                                                                        S      1
,,12HX_Carriage_6,12HX_Carriage_6,7Hunknown,7Hunknown,32,38,7,99,15,,1.,G      1
2,2HMM,1,0.08,15H20150214.161426,0.01,10000.,7Hunknown,7Hunknown,11,0,; G      2
     186       1                                                00000000D      1
     186            -187       1       0                               0D      2
     514       2                                                00010000D      3
     514                       2       1                               0D      4
     510       4                                                00010000D      5
     510            -187       1       1                               0D      6
     510       5                                                00010000D      7
     510            -187       1       1                               0D      8
     510       6                                                00010000D      9
     510            -187       1       1                               0D     10
     510       7                                                00010000D     11
     510            -187       1       1                               0D     12
     510       8                                                00010000D     13
     510            -187       1       1                               0D     14
     510       9                                                00010000D     15
     510            -187       1       1                               0D     16
     510      10                                                00010000D     17
     510            -187       1       1                               0D     18
     510      11                                                00010000D     19
     510            -187       1       1                               0D     20
     510      12                                                00010000D     21
     510            -187       1       1                               0D     22
     510      13                                                00010000D     23
     510            -187       1       1                               0D     24
     510      14                                                00010000D     25
     510            -187       1       1                               0D     26
     510      15                                                00010000D     27
     510            -187       1       1                               0D     28
     510      16                                                00010000D     29
     510            -187       1       1                               0D     30
     510      17                                                00010000D     31
     510            -187       1       1                               0D     32
     508      18                                                00010000D     33
     508                       1       1                               0D     34
     508      19                                                00010000D     35
     508                       2       1                               0D     36
     508      21                                                00010000D     37
     508                       1       1                               0D     38
     508      22                                                00010000D     39
     508                       1       1                               0D     40
     508      23                                                00010000D     41
     508                       1       1                               0D     42
     508      24                                                00010000D     43
     508                       1       1                               0D     44
     508      25                                                00010000D     45
     508                       2       1                               0D     46
     508      27                                                00010000D     47
     508                       2       1                               0D     48
     508      29                                                00010000D     49
     508                       1       1                               0D     50
     508      30                                                00010000D     51
     508                       1       1                               0D     52
     508      31                                                00010000D     53
     508                       1       1                               0D     54
     508      32                                                00010000D     55
     508                       2       1                               0D     56
     508      34                                                00010000D     57
     508                       1       1                               0D     58
     508      35                                                00010000D     59
     508                       1       1                               0D     60
     508      36                                                00010000D     61
     508                       1       1                               0D     62
     508      37                                                00010000D     63
     508                       1       1                               0D     64
     508      38                                                00010000D     65
     508                       1       1                               0D     66
     508      39                                                00010000D     67
     508                       1       1                               0D     68
     508      40                                                00010000D     69
     508                       1       1                               0D     70
     508      41                                                00010000D     71
     508                       1       1                               0D     72
     508      42                                                00010000D     73
     508                       1       1                               0D     74
     508      43                                                00010000D     75
     508                       1       1                               0D     76
     126      44                                                00010000D     77
     126       0               5       0                               0D     78
     126      49                                                00010000D     79
     126       0               5       0                               0D     80
     126      54                                                00010000D     81
     126       0               5       0                               0D     82
     126      59                                                00010000D     83
     126       0               5       0                               0D     84
     126      64                                                00010000D     85
     126       0               4       0                               0D     86
     126      68                                                00010000D     87
     126       0               4       0                               0D     88
     126      72                                                00010000D     89
     126       0               4       0                               0D     90
     126      76                                                00010000D     91
     126       0               4       0                               0D     92
     126      80                                                00010000D     93
     126       0               3       0                               0D     94
     126      83                                                00010000D     95
     126       0               4       0                               0D     96
     126      87                                                00010000D     97
     126       0               4       0                               0D     98
     126      91                                                00010000D     99
     126       0              15       0                               0D    100
     126     106                                                00010000D    101
     126       0              15       0                               0D    102
     126     121                                                00010000D    103
     126       0               6       0                               0D    104
     126     127                                                00010000D    105
     126       0              13       0                               0D    106
     126     140                                                00010000D    107
     126       0               6       0                               0D    108
     126     146                                                00010000D    109
     126       0              13       0                               0D    110
     126     159                                                00010000D    111
     126       0               5       0                               0D    112
     126     164                                                00010000D    113
     126       0              15       0                               0D    114
     126     179                                                00010000D    115
     126       0               5       0                               0D    116
     126     184                                                00010000D    117
     126       0              15       0                               0D    118
     126     199                                                00010000D    119
     126       0               3       0                               0D    120
     126     202                                                00010000D    121
     126       0               3       0                               0D    122
     126     205                                                00010000D    123
     126       0               3       0                               0D    124
     126     208                                                00010000D    125
     126       0               4       0                               0D    126
     126     212                                                00010000D    127
     126       0               5       0                               0D    128
     126     217                                                00010000D    129
     126       0               5       0                               0D    130
     126     222                                                00010000D    131
     126       0               4       0                               0D    132
     126     226                                                00010000D    133
     126       0               4       0                               0D    134
     126     230                                                00010000D    135
     126       0               4       0                               0D    136
     126     234                                                00010000D    137
     126       0               4       0                               0D    138
     126     238                                                00010000D    139
     126       0               4       0                               0D    140
     126     242                                                00010000D    141
     126       0              15       0                               0D    142
     126     257                                                00010000D    143
     126       0              15       0                               0D    144
     126     272                                                00010000D    145
     126       0               3       0                               0D    146
     126     275                                                00010000D    147
     126       0               5       0                               0D    148
     126     280                                                00010000D    149
     126       0               5       0                               0D    150
     126     285                                                00010000D    151
     126       0               3       0                               0D    152
     128     288                                                00010000D    153
     128       0    -187       9       0                               0D    154
     128     297                                                00010000D    155
     128       0    -187       7       0                               0D    156
     128     304                                                00010000D    157
     128       0    -187      27       0                               0D    158
     128     331                                                00010000D    159
     128       0    -187      28       0                               0D    160
     128     359                                                00010000D    161
     128       0    -187       6       0                               0D    162
     128     365                                                00010000D    163
     128       0    -187       9       0                               0D    164
     128     374                                                00010000D    165
     128       0    -187       9       0                               0D    166
     128     383                                                00010000D    167
     128       0    -187       7       0                               0D    168
     128     390                                                00010000D    169
     128       0    -187       7       0                               0D    170
     128     397                                                00010000D    171
     128       0    -187      28       0                               0D    172
     128     425                                                00010000D    173
     128       0    -187      28       0                               0D    174
     128     453                                                00010000D    175
     128       0    -187       7       0                               0D    176
     128     460                                                00010000D    177
     128       0    -187       8       0                               0D    178
     128     468                                                00010000D    179
     128       0    -187       6       0                               0D    180
     502     474                                                00010000D    181
     502                      26       1                               0D    182
     504     500                                                00010001D    183
     504                      11       1                               0D    184
     406     511                                                00000000D    185
     406                       1      15                               0D    186
     314     512                                                00000200D    187
     314                       2       0                               0D    188
186,3,1,0,0,1,185;                                                     1P      1
514,14,5,1,7,1,9,1,11,1,13,1,15,1,17,1,19,1,21,1,23,1,25,1,27,1,       3P      2
29,1,31,1;                                                             3P      3
510,153,1,1,33;                                                        5P      4
510,155,5,1,35,37,39,41,43;                                            7P      5
510,157,1,1,45;                                                        9P      6
510,159,1,1,47;                                                       11P      7
510,161,1,1,49;                                                       13P      8
510,163,1,1,51;                                                       15P      9
510,165,1,1,53;                                                       17P     10
510,167,5,1,55,57,59,61,63;                                           19P     11
510,169,1,1,65;                                                       21P     12
510,171,1,1,67;                                                       23P     13
510,173,1,1,69;                                                       25P     14
510,175,1,1,71;                                                       27P     15
510,177,1,1,73;                                                       29P     16
510,179,1,1,75;                                                       31P     17
508,4,0,183,1,0,0,0,183,2,0,0,0,183,3,0,0,0,183,4,0,0;                33P     18
508,8,0,183,5,1,0,0,183,1,1,0,0,183,6,1,0,0,183,7,1,0,0,183,8,1,      35P     19
0,0,183,9,0,0,0,183,10,1,0,0,183,11,1,0;                              35P     20
508,1,0,183,12,1,0;                                                   37P     21
508,1,0,183,13,1,0;                                                   39P     22
508,2,0,183,14,1,0,0,183,15,1,0;                                      41P     23
508,2,0,183,16,1,0,0,183,17,1,0;                                      43P     24
508,5,0,183,16,0,0,0,183,17,0,0,0,183,18,1,0,0,183,19,0,0,0,183,      45P     25
18,0,0;                                                               45P     26
508,5,0,183,14,0,0,0,183,15,0,0,0,183,20,1,0,0,183,21,0,0,0,183,      47P     27
20,0,0;                                                               47P     28
508,4,0,183,22,1,0,0,183,9,1,0,0,183,23,1,0,0,183,24,1,0;             49P     29
508,4,0,183,6,0,0,0,183,4,1,0,0,183,25,0,0,0,183,26,0,0;              51P     30
508,4,0,183,5,0,0,0,183,27,0,0,0,183,28,0,0,0,183,2,1,0;              53P     31
508,8,0,183,28,1,0,0,183,29,1,0,0,183,30,1,0,0,183,24,0,0,0,183,      55P     32
31,0,0,0,183,32,1,0,0,183,25,1,0,0,183,3,1,0;                         55P     33
508,1,0,183,19,1,0;                                                   57P     34
508,1,0,183,21,1,0;                                                   59P     35
508,1,0,183,33,1,0;                                                   61P     36
508,1,0,183,34,1,0;                                                   63P     37
508,4,0,183,27,1,0,0,183,11,0,0,0,183,35,1,0,0,183,29,0,0;            65P     38
508,4,0,183,33,0,0,0,183,36,1,0,0,183,12,0,0,0,183,36,0,0;            67P     39
508,4,0,183,34,0,0,0,183,37,1,0,0,183,13,0,0,0,183,37,0,0;            69P     40
508,4,0,183,8,0,0,0,183,38,1,0,0,183,31,1,0,0,183,23,0,0;             71P     41
508,4,0,183,10,0,0,0,183,22,0,0,0,183,30,0,0,0,183,35,0,0;            73P     42
508,4,0,183,26,1,0,0,183,32,0,0,0,183,38,0,0,0,183,7,0,0;             75P     43
126,1,1,0,0,1,0,-0.447465717260155,-0.447465717260155,                77P     44
1.50628986286026,1.50628986286026,1.,1.,73.199317206226,              77P     45
-10.7499997615868,-29.8749997615757,53.6617614050218,                 77P     46
-10.7499997615868,-29.8749997615757,-0.447465717260155,               77P     47
1.50628986286026,0.,0.,0.;                                            77P     48
126,1,1,0,0,1,0,-3.40000000000054,-3.40000000000054,                  79P     49
-2.90000000000054,-2.90000000000054,1.,1.,73.199317206226,            79P     50
-10.7499997615859,-24.8749997615757,73.199317206226,                  79P     51
-10.7499997615868,-29.8749997615757,-3.40000000000054,                79P     52
-2.90000000000054,0.,0.,0.;                                           79P     53
126,1,1,0,0,1,0,-1.50628986286026,-1.50628986286026,                  81P     54
0.447465717260155,0.447465717260155,1.,1.,53.6617614050218,           81P     55
-10.7499997615859,-24.8749997615757,73.199317206226,                  81P     56
-10.7499997615859,-24.8749997615757,-1.50628986286026,                81P     57
0.447465717260155,0.,0.,0.;                                           81P     58
126,1,1,0,0,1,0,2.90000000000054,2.90000000000054,                    83P     59
3.40000000000054,3.40000000000054,1.,1.,53.6617614050218,             83P     60
-10.7499997615868,-29.8749997615757,53.6617614050218,                 83P     61
-10.7499997615859,-24.8749997615757,2.90000000000054,                 83P     62
3.40000000000054,0.,0.,0.;                                            83P     63
126,1,1,0,0,1,0,-0.974999999999999,-0.974999999999999,1.625,          85P     64
1.625,1.,1.,73.199317206226,-36.7499997615868,-29.8749997615711,      85P     65
73.199317206226,-10.7499997615868,-29.8749997615757,                  85P     66
-0.974999999999999,1.625,0.,0.,0.;                                    85P     67
126,1,1,0,0,1,0,-1.575,-1.575,1.025,1.025,1.,1.,                      87P     68
53.6617614050218,-10.7499997615868,-29.8749997615757,                 87P     69
53.6617614050218,-36.7499997615868,-29.8749997615711,-1.575,          87P     70
1.025,0.,0.,0.;                                                       87P     71
126,1,1,0,0,1,0,3.4338241456001,3.4338241456001,4.55,4.55,1.,1.,      89P     72
53.6617614050218,-36.7499997615868,-29.8749997615711,                 89P     73
42.5000028610229,-36.7499997615868,-29.8749997615711,                 89P     74
3.4338241456001,4.55,0.,0.,0.;                                        89P     75
126,1,1,0,0,1,0,-0.899999999999999,-0.899999999999999,3.5,3.5,        91P     76
1.,1.,42.5000028610229,-36.7499997615868,-29.8749997615711,           91P     77
42.5000028610229,7.25000023841318,-29.8749997615789,                  91P     78
-0.899999999999999,3.5,0.,0.,0.;                                      91P     79
126,1,1,0,0,1,0,0.,0.,4.55,4.55,1.,1.,88.0000028610229,               93P     80
7.25000023841318,-29.8749997615789,42.5000028610229,                  93P     81
7.25000023841318,-29.8749997615789,0.,4.55,0.,0.,0.;                  93P     82
126,1,1,0,0,1,0,-3.5,-3.5,0.899999999999999,0.899999999999999,        95P     83
1.,1.,88.0000028610229,7.25000023841318,-29.8749997615789,            95P     84
88.0000028610229,-36.7499997615868,-29.8749997615711,-3.5,            95P     85
0.899999999999999,0.,0.,0.;                                           95P     86
126,1,1,0,0,1,0,0.,0.,1.48006856547969,1.48006856547969,1.,1.,        97P     87
88.0000028610229,-36.7499997615868,-29.8749997615711,                 97P     88
73.199317206226,-36.7499997615868,-29.8749997615711,0.,               97P     89
1.48006856547969,0.,0.,0.;                                            97P     90
126,8,2,0,1,0,0,-3.14159265358979,-3.14159265358979,                  99P     91
-3.14159265358979,-1.5707963267949,-1.5707963267949,0.,0.,            99P     92
1.5707963267949,1.5707963267949,3.14159265358979,                     99P     93
3.14159265358979,3.14159265358979,1.,0.707106781186538,1.,            99P     94
0.707106781186538,1.,0.707106781186538,1.,0.707106781186538,1.,       99P     95
81.5000028610229,-32.2499997615868,-29.8749997615719,                 99P     96
81.5000028610229,-33.7499997615868,-29.8749997615716,                 99P     97
83.0000028610229,-33.7499997615868,-29.8749997615716,                 99P     98
84.5000028610229,-33.7499997615868,-29.8749997615716,                 99P     99
84.5000028610229,-32.2499997615868,-29.8749997615719,                 99P    100
84.5000028610229,-30.7499997615868,-29.8749997615721,                 99P    101
83.0000028610229,-30.7499997615868,-29.8749997615721,                 99P    102
81.5000028610229,-30.7499997615868,-29.8749997615721,                 99P    103
81.5000028610229,-32.2499997615868,-29.8749997615719,                 99P    104
-3.14159265358979,3.14159265358979,0.,0.,0.;                          99P    105
126,8,2,0,1,0,0,-3.14159265358979,-3.14159265358979,                 101P    106
-3.14159265358979,-1.5707963267949,-1.5707963267949,0.,0.,           101P    107
1.5707963267949,1.5707963267949,3.14159265358979,                    101P    108
3.14159265358979,3.14159265358979,1.,0.707106781186555,1.,           101P    109
0.707106781186555,1.,0.707106781186555,1.,0.707106781186555,1.,      101P    110
46.0000028610229,-32.2499997615868,-29.8749997615719,                101P    111
46.0000028610229,-33.7499997615868,-29.8749997615716,                101P    112
47.5000028610229,-33.7499997615868,-29.8749997615716,                101P    113
49.0000028610229,-33.7499997615868,-29.8749997615716,                101P    114
49.0000028610229,-32.2499997615868,-29.8749997615719,                101P    115
49.0000028610229,-30.7499997615868,-29.8749997615721,                101P    116
47.5000028610229,-30.7499997615868,-29.8749997615721,                101P    117
46.0000028610229,-30.7499997615868,-29.8749997615721,                101P    118
46.0000028610229,-32.2499997615868,-29.8749997615719,                101P    119
-3.14159265358979,3.14159265358979,0.,0.,0.;                         101P    120
126,2,2,0,0,0,0,1.5707963267949,1.5707963267949,1.5707963267949,     103P    121
3.14159265358979,3.14159265358979,3.14159265358979,1.,               103P    122
0.707106781186555,1.,65.0000028610229,2.75000023841318,              103P    123
-29.8749997615781,66.5000028610229,2.75000023841318,                 103P    124
-29.8749997615781,66.5000028610229,4.25000023841318,                 103P    125
-29.8749997615783,1.5707963267949,3.14159265358979,0.,0.,0.;         103P    126
126,6,2,0,0,0,0,3.14159265358979,3.14159265358979,                   105P    127
3.14159265358979,4.71238898038469,4.71238898038469,                  105P    128
6.28318530717959,6.28318530717959,7.85398163397448,                  105P    129
7.85398163397448,7.85398163397448,1.,0.707106781186555,1.,           105P    130
0.707106781186538,1.,0.707106781186556,1.,66.5000028610229,          105P    131
4.25000023841318,-29.8749997615783,66.5000028610229,                 105P    132
5.75000023841318,-29.8749997615786,65.0000028610229,                 105P    133
5.75000023841318,-29.8749997615786,63.5000028610229,                 105P    134
5.75000023841318,-29.8749997615786,63.5000028610229,                 105P    135
4.25000023841318,-29.8749997615783,63.5000028610229,                 105P    136
2.75000023841318,-29.8749997615781,65.0000028610229,                 105P    137
2.75000023841318,-29.8749997615781,3.14159265358979,                 105P    138
7.85398163397448,0.,0.,0.;                                           105P    139
126,2,2,0,0,0,0,1.5707963267949,1.5707963267949,1.5707963267949,     107P    140
3.14159265358979,3.14159265358979,3.14159265358979,1.,               107P    141
0.707106781186538,1.,84.0000028610229,2.75000023841317,              107P    142
-29.8749997615781,85.5000028610229,2.75000023841317,                 107P    143
-29.8749997615781,85.5000028610229,4.25000023841318,                 107P    144
-29.8749997615783,1.5707963267949,3.14159265358979,0.,0.,0.;         107P    145
126,6,2,0,0,0,0,3.14159265358979,3.14159265358979,                   109P    146
3.14159265358979,4.71238898038469,4.71238898038469,                  109P    147
6.28318530717959,6.28318530717959,7.85398163397448,                  109P    148
7.85398163397448,7.85398163397448,1.,0.707106781186538,1.,           109P    149
0.707106781186538,1.,0.707106781186539,1.,85.5000028610229,          109P    150
4.25000023841318,-29.8749997615783,85.5000028610229,                 109P    151
5.75000023841318,-29.8749997615786,84.0000028610229,                 109P    152
5.75000023841318,-29.8749997615786,82.5000028610229,                 109P    153
5.75000023841318,-29.8749997615786,82.5000028610229,                 109P    154
4.25000023841318,-29.8749997615783,82.5000028610229,                 109P    155
2.75000023841317,-29.8749997615781,84.0000028610229,                 109P    156
2.75000023841317,-29.8749997615781,3.14159265358979,                 109P    157
7.85398163397448,0.,0.,0.;                                           109P    158
126,1,1,0,0,1,0,-4.4403294923352D-28,-4.4403294923352D-28,           111P    159
3.33333333333333,3.33333333333333,1.,1.,85.5000028610229,            111P    160
4.25000023841318,-29.8749997615783,85.5000028610229,                 111P    161
4.25000023841407,-24.8749997615783,-4.4403294923352D-28,             111P    162
3.33333333333333,0.,0.,0.;                                           111P    163
126,8,2,0,1,0,0,-3.14159265358979,-3.14159265358979,                 113P    164
-3.14159265358979,-1.5707963267949,-1.5707963267949,0.,0.,           113P    165
1.5707963267949,1.5707963267949,3.14159265358979,                    113P    166
3.14159265358979,3.14159265358979,1.,0.707106781186538,1.,           113P    167
0.707106781186538,1.,0.707106781186538,1.,0.707106781186538,1.,      113P    168
85.5000028610229,4.25000023841407,-24.8749997615783,                 113P    169
85.5000028610229,2.75000023841406,-24.8749997615781,                 113P    170
84.0000028610229,2.75000023841406,-24.8749997615781,                 113P    171
82.5000028610229,2.75000023841406,-24.8749997615781,                 113P    172
82.5000028610229,4.25000023841407,-24.8749997615783,                 113P    173
82.5000028610229,5.75000023841407,-24.8749997615786,                 113P    174
84.0000028610229,5.75000023841407,-24.8749997615786,                 113P    175
85.5000028610229,5.75000023841407,-24.8749997615786,                 113P    176
85.5000028610229,4.25000023841407,-24.8749997615783,                 113P    177
-3.14159265358979,3.14159265358979,0.,0.,0.;                         113P    178
126,1,1,0,0,1,0,-3.88709821877856D-28,-3.88709821877856D-28,         115P    179
3.33333333333333,3.33333333333333,1.,1.,66.5000028610229,            115P    180
4.25000023841318,-29.8749997615783,66.5000028610229,                 115P    181
4.25000023841407,-24.8749997615783,-3.88709821877856D-28,            115P    182
3.33333333333333,0.,0.,0.;                                           115P    183
126,8,2,0,1,0,0,-3.14159265358979,-3.14159265358979,                 117P    184
-3.14159265358979,-1.5707963267949,-1.5707963267949,0.,0.,           117P    185
1.5707963267949,1.5707963267949,3.14159265358979,                    117P    186
3.14159265358979,3.14159265358979,1.,0.707106781186555,1.,           117P    187
0.707106781186555,1.,0.707106781186555,1.,0.707106781186555,1.,      117P    188
66.5000028610229,4.25000023841407,-24.8749997615783,                 117P    189
66.5000028610229,2.75000023841406,-24.8749997615781,                 117P    190
65.0000028610229,2.75000023841406,-24.8749997615781,                 117P    191
63.5000028610229,2.75000023841406,-24.8749997615781,                 117P    192
63.5000028610229,4.25000023841407,-24.8749997615783,                 117P    193
63.5000028610229,5.75000023841407,-24.8749997615786,                 117P    194
65.0000028610229,5.75000023841407,-24.8749997615786,                 117P    195
66.5000028610229,5.75000023841407,-24.8749997615786,                 117P    196
66.5000028610229,4.25000023841407,-24.8749997615783,                 117P    197
-3.14159265358979,3.14159265358979,0.,0.,0.;                         117P    198
126,1,1,0,0,1,0,0.,0.,0.5,0.5,1.,1.,88.0000028610229,                119P    199
7.25000023841407,-24.8749997615789,88.0000028610229,                 119P    200
7.25000023841318,-29.8749997615789,0.,0.5,0.,0.,0.;                  119P    201
126,1,1,0,0,1,0,0.,0.,0.5,0.5,1.,1.,42.5000028610229,                121P    202
7.25000023841318,-29.8749997615789,42.5000028610229,                 121P    203
7.25000023841407,-24.8749997615789,0.,0.5,0.,0.,0.;                  121P    204
126,1,1,0,0,1,0,0.,0.,4.55,4.55,1.,1.,42.5000028610229,              123P    205
7.25000023841407,-24.8749997615789,88.0000028610229,                 123P    206
7.25000023841407,-24.8749997615789,0.,4.55,0.,0.,0.;                 123P    207
126,1,1,0,0,1,0,-1.025,-1.025,1.575,1.575,1.,1.,                     125P    208
53.6617614050218,-36.7499997615859,-24.8749997615711,                125P    209
53.6617614050218,-10.7499997615859,-24.8749997615757,-1.025,         125P    210
1.575,0.,0.,0.;                                                      125P    211
126,1,1,0,0,1,0,1.45000000000027,1.45000000000027,                   127P    212
1.95000000000027,1.95000000000027,1.,1.,53.6617614050218,            127P    213
-36.7499997615868,-29.8749997615711,53.6617614050218,                127P    214
-36.7499997615859,-24.8749997615711,1.45000000000027,                127P    215
1.95000000000027,0.,0.,0.;                                           127P    216
126,1,1,0,0,1,0,-1.95000000000027,-1.95000000000027,                 129P    217
-1.45000000000027,-1.45000000000027,1.,1.,73.199317206226,           129P    218
-36.7499997615859,-24.8749997615711,73.199317206226,                 129P    219
-36.7499997615868,-29.8749997615711,-1.95000000000027,               129P    220
-1.45000000000027,0.,0.,0.;                                          129P    221
126,1,1,0,0,1,0,-1.625,-1.625,0.974999999999999,                     131P    222
0.974999999999999,1.,1.,73.199317206226,-10.7499997615859,           131P    223
-24.8749997615757,73.199317206226,-36.7499997615859,                 131P    224
-24.8749997615711,-1.625,0.974999999999999,0.,0.,0.;                 131P    225
126,1,1,0,0,1,0,-1.48006856547969,-1.48006856547969,0.,0.,1.,1.,     133P    226
73.199317206226,-36.7499997615859,-24.8749997615711,                 133P    227
88.0000028610229,-36.7499997615859,-24.8749997615711,                133P    228
-1.48006856547969,0.,0.,0.,0.;                                       133P    229
126,1,1,0,0,1,0,-0.899999999999999,-0.899999999999999,3.5,3.5,       135P    230
1.,1.,88.0000028610229,-36.7499997615859,-24.8749997615711,          135P    231
88.0000028610229,7.25000023841407,-24.8749997615789,                 135P    232
-0.899999999999999,3.5,0.,0.,0.;                                     135P    233
126,1,1,0,0,1,0,-0.899999999999999,-0.899999999999999,3.5,3.5,       137P    234
1.,1.,42.5000028610229,-36.7499997615859,-24.8749997615711,          137P    235
42.5000028610229,7.25000023841407,-24.8749997615789,                 137P    236
-0.899999999999999,3.5,0.,0.,0.;                                     137P    237
126,1,1,0,0,1,0,-4.55,-4.55,-3.4338241456001,-3.4338241456001,       139P    238
1.,1.,42.5000028610229,-36.7499997615859,-24.8749997615711,          139P    239
53.6617614050218,-36.7499997615859,-24.8749997615711,-4.55,          139P    240
-3.4338241456001,0.,0.,0.;                                           139P    241
126,8,2,0,1,0,0,-3.14159265358979,-3.14159265358979,                 141P    242
-3.14159265358979,-1.5707963267949,-1.5707963267949,0.,0.,           141P    243
1.5707963267949,1.5707963267949,3.14159265358979,                    141P    244
3.14159265358979,3.14159265358979,1.,0.707106781186538,1.,           141P    245
0.707106781186538,1.,0.707106781186538,1.,0.707106781186538,1.,      141P    246
81.5000028610229,-32.2499997615859,-24.8749997615719,                141P    247
81.5000028610229,-30.7499997615859,-24.8749997615721,                141P    248
83.0000028610229,-30.7499997615859,-24.8749997615721,                141P    249
84.5000028610229,-30.7499997615859,-24.8749997615721,                141P    250
84.5000028610229,-32.2499997615859,-24.8749997615719,                141P    251
84.5000028610229,-33.7499997615859,-24.8749997615716,                141P    252
83.0000028610229,-33.7499997615859,-24.8749997615716,                141P    253
81.5000028610229,-33.7499997615859,-24.8749997615716,                141P    254
81.5000028610229,-32.2499997615859,-24.8749997615719,                141P    255
-3.14159265358979,3.14159265358979,0.,0.,0.;                         141P    256
126,8,2,0,1,0,0,-3.14159265358979,-3.14159265358979,                 143P    257
-3.14159265358979,-1.5707963267949,-1.5707963267949,0.,0.,           143P    258
1.5707963267949,1.5707963267949,3.14159265358979,                    143P    259
3.14159265358979,3.14159265358979,1.,0.707106781186555,1.,           143P    260
0.707106781186555,1.,0.707106781186555,1.,0.707106781186555,1.,      143P    261
46.0000028610229,-32.2499997615859,-24.8749997615719,                143P    262
46.0000028610229,-30.7499997615859,-24.8749997615721,                143P    263
47.5000028610229,-30.7499997615859,-24.8749997615721,                143P    264
49.0000028610229,-30.7499997615859,-24.8749997615721,                143P    265
49.0000028610229,-32.2499997615859,-24.8749997615719,                143P    266
49.0000028610229,-33.7499997615859,-24.8749997615716,                143P    267
47.5000028610229,-33.7499997615859,-24.8749997615716,                143P    268
46.0000028610229,-33.7499997615859,-24.8749997615716,                143P    269
46.0000028610229,-32.2499997615859,-24.8749997615719,                143P    270
-3.14159265358979,3.14159265358979,0.,0.,0.;                         143P    271
126,1,1,0,0,1,0,0.,0.,0.5,0.5,1.,1.,88.0000028610229,                145P    272
-36.7499997615868,-29.8749997615711,88.0000028610229,                145P    273
-36.7499997615859,-24.8749997615711,0.,0.5,0.,0.,0.;                 145P    274
126,1,1,0,0,1,0,-4.62798397729659D-28,-4.62798397729659D-28,         147P    275
3.33333333333333,3.33333333333333,1.,1.,81.5000028610229,            147P    276
-32.2499997615859,-24.8749997615719,81.5000028610229,                147P    277
-32.2499997615868,-29.8749997615719,-4.62798397729659D-28,           147P    278
3.33333333333333,0.,0.,0.;                                           147P    279
126,1,1,0,0,1,0,-4.04555615975739D-28,-4.04555615975739D-28,         149P    280
3.33333333333333,3.33333333333333,1.,1.,46.0000028610229,            149P    281
-32.2499997615859,-24.8749997615719,46.0000028610229,                149P    282
-32.2499997615868,-29.8749997615719,-4.04555615975739D-28,           149P    283
3.33333333333333,0.,0.,0.;                                           149P    284
126,1,1,0,0,1,0,0.,0.,0.5,0.5,1.,1.,42.5000028610229,                151P    285
-36.7499997615868,-29.8749997615711,42.5000028610229,                151P    286
-36.7499997615859,-24.8749997615711,0.,0.5,0.,0.,0.;                 151P    287
128,1,1,1,1,0,0,1,0,0,2.90000000000054,2.90000000000054,             153P    288
3.40000000000054,3.40000000000054,-1.85375558012042,                 153P    289
-1.85375558012042,0.0999999999999996,0.0999999999999996,1.,1.,       153P    290
1.,1.,53.6617614050218,-10.7499997615859,-24.8749997615757,          153P    291
53.6617614050218,-10.7499997615868,-29.8749997615757,                153P    292
73.199317206226,-10.7499997615859,-24.8749997615757,                 153P    293
73.199317206226,-10.7499997615868,-29.8749997615757,                 153P    294
2.90000000000054,3.40000000000054,-1.85375558012042,                 153P    295
0.0999999999999996;                                                  153P    296
128,1,1,1,1,0,0,1,0,0,-2.275,-2.275,2.275,2.275,                     155P    297
-0.449999999999999,-0.449999999999999,3.95,3.95,1.,1.,1.,1.,         155P    298
88.0000028610229,-36.7499997615868,-29.8749997615711,                155P    299
42.5000028610229,-36.7499997615868,-29.8749997615711,                155P    300
88.0000028610229,7.25000023841318,-29.8749997615789,                 155P    301
42.5000028610229,7.25000023841318,-29.8749997615789,-2.275,          155P    302
2.275,-0.449999999999999,3.95;                                       155P    303
128,1,8,1,2,0,1,0,0,1,-4.4403294923352D-28,-4.4403294923352D-28,     157P    304
3.33333333333333,3.33333333333333,-3.14159265358979,                 157P    305
-3.14159265358979,-3.14159265358979,-1.5707963267949,                157P    306
-1.5707963267949,0.,0.,1.5707963267949,1.5707963267949,              157P    307
3.14159265358979,3.14159265358979,3.14159265358979,1.,1.,            157P    308
0.707106781186548,0.707106781186548,1.,1.,0.707106781186548,         157P    309
0.707106781186548,1.,1.,0.707106781186548,0.707106781186548,1.,      157P    310
1.,0.707106781186548,0.707106781186548,1.,1.,85.5000028610229,       157P    311
4.25000023841318,-29.8749997615783,85.5000028610229,                 157P    312
4.25000023841407,-24.8749997615783,85.5000028610229,                 157P    313
5.75000023841318,-29.8749997615786,85.5000028610229,                 157P    314
5.75000023841407,-24.8749997615786,84.0000028610229,                 157P    315
5.75000023841318,-29.8749997615786,84.0000028610229,                 157P    316
5.75000023841407,-24.8749997615786,82.5000028610229,                 157P    317
5.75000023841318,-29.8749997615786,82.5000028610229,                 157P    318
5.75000023841407,-24.8749997615786,82.5000028610229,                 157P    319
4.25000023841318,-29.8749997615783,82.5000028610229,                 157P    320
4.25000023841407,-24.8749997615783,82.5000028610229,                 157P    321
2.75000023841317,-29.8749997615781,82.5000028610229,                 157P    322
2.75000023841406,-24.8749997615781,84.0000028610229,                 157P    323
2.75000023841317,-29.8749997615781,84.0000028610229,                 157P    324
2.75000023841406,-24.8749997615781,85.5000028610229,                 157P    325
2.75000023841317,-29.8749997615781,85.5000028610229,                 157P    326
2.75000023841406,-24.8749997615781,85.5000028610229,                 157P    327
4.25000023841318,-29.8749997615783,85.5000028610229,                 157P    328
4.25000023841407,-24.8749997615783,-4.4403294923352D-28,             157P    329
3.33333333333333,-3.14159265358979,3.14159265358979;                 157P    330
128,1,8,1,2,0,1,0,0,1,-3.88709821877856D-28,                         159P    331
-3.88709821877856D-28,3.33333333333333,3.33333333333333,             159P    332
-3.14159265358979,-3.14159265358979,-3.14159265358979,               159P    333
-1.5707963267949,-1.5707963267949,0.,0.,1.5707963267949,             159P    334
1.5707963267949,3.14159265358979,3.14159265358979,                   159P    335
3.14159265358979,1.,1.,0.707106781186548,0.707106781186548,1.,       159P    336
1.,0.707106781186548,0.707106781186548,1.,1.,0.707106781186548,      159P    337
0.707106781186548,1.,1.,0.707106781186548,0.707106781186548,1.,      159P    338
1.,66.5000028610229,4.25000023841318,-29.8749997615783,              159P    339
66.5000028610229,4.25000023841407,-24.8749997615783,                 159P    340
66.5000028610229,5.75000023841318,-29.8749997615786,                 159P    341
66.5000028610229,5.75000023841407,-24.8749997615786,                 159P    342
65.0000028610229,5.75000023841318,-29.8749997615786,                 159P    343
65.0000028610229,5.75000023841407,-24.8749997615786,                 159P    344
63.5000028610229,5.75000023841318,-29.8749997615786,                 159P    345
63.5000028610229,5.75000023841407,-24.8749997615786,                 159P    346
63.5000028610229,4.25000023841318,-29.8749997615783,                 159P    347
63.5000028610229,4.25000023841407,-24.8749997615783,                 159P    348
63.5000028610229,2.75000023841318,-29.8749997615781,                 159P    349
63.5000028610229,2.75000023841406,-24.8749997615781,                 159P    350
65.0000028610229,2.75000023841318,-29.8749997615781,                 159P    351
65.0000028610229,2.75000023841406,-24.8749997615781,                 159P    352
66.5000028610229,2.75000023841318,-29.8749997615781,                 159P    353
66.5000028610229,2.75000023841406,-24.8749997615781,                 159P    354
66.5000028610229,4.25000023841318,-29.8749997615783,                 159P    355
66.5000028610229,4.25000023841407,-24.8749997615783,                 159P    356
-3.88709821877856D-28,3.33333333333333,-3.14159265358979,            159P    357
3.14159265358979;                                                    159P    358
128,1,1,1,1,0,0,1,0,0,-0.25,-0.25,0.25,0.25,-2.275,-2.275,2.275,     161P    359
2.275,1.,1.,1.,1.,42.5000028610229,7.25000023841318,                 161P    360
-29.8749997615789,42.5000028610229,7.25000023841407,                 161P    361
-24.8749997615789,88.0000028610229,7.25000023841318,                 161P    362
-29.8749997615789,88.0000028610229,7.25000023841407,                 161P    363
-24.8749997615789,-0.25,0.25,-2.275,2.275;                           161P    364
128,1,1,1,1,0,0,1,0,0,2.90000000000035,2.90000000000035,             163P    365
3.40000000000081,3.40000000000081,-1.49999999999948,                 163P    366
-1.49999999999948,1.1000000000006,1.1000000000006,1.,1.,1.,1.,       163P    367
53.6617614050218,-36.7499997615868,-24.8749997615711,                163P    368
53.6617614050218,-36.7499997615868,-29.8749997615757,                163P    369
53.6617614050218,-10.7499997615859,-24.8749997615711,                163P    370
53.6617614050218,-10.7499997615859,-29.8749997615757,                163P    371
2.90000000000035,3.40000000000081,-1.49999999999948,                 163P    372
1.1000000000006;                                                     163P    373
128,1,1,1,1,0,0,1,0,0,-3.40000000000054,-3.40000000000054,           165P    374
-2.90000000000008,-2.90000000000008,5.15143483426073D-13,            165P    375
5.15143483426073D-13,2.6000000000006,2.6000000000006,1.,1.,1.,       165P    376
1.,73.199317206226,-36.7499997615868,-29.8749997615757,              165P    377
73.199317206226,-36.7499997615868,-24.8749997615711,                 165P    378
73.199317206226,-10.7499997615859,-29.8749997615757,                 165P    379
73.199317206226,-10.7499997615859,-24.8749997615711,                 165P    380
-3.40000000000054,-2.90000000000008,5.15143483426073D-13,            165P    381
2.6000000000006;                                                     165P    382
128,1,1,1,1,0,0,1,0,0,-2.275,-2.275,2.275,2.275,                     167P    383
-0.449999999999999,-0.449999999999999,3.95,3.95,1.,1.,1.,1.,         167P    384
42.5000028610229,-36.7499997615859,-24.8749997615711,                167P    385
88.0000028610229,-36.7499997615859,-24.8749997615711,                167P    386
42.5000028610229,7.25000023841407,-24.8749997615789,                 167P    387
88.0000028610229,7.25000023841407,-24.8749997615789,-2.275,          167P    388
2.275,-0.449999999999999,3.95;                                       167P    389
128,1,1,1,1,0,0,1,0,0,3.06993143452031,3.06993143452031,4.55,        169P    390
4.55,0.,0.,0.5,0.5,1.,1.,1.,1.,73.199317206226,                      169P    391
-36.7499997615868,-29.8749997615711,88.0000028610229,                169P    392
-36.7499997615868,-29.8749997615711,73.199317206226,                 169P    393
-36.7499997615859,-24.8749997615711,88.0000028610229,                169P    394
-36.7499997615859,-24.8749997615711,3.06993143452031,4.55,0.,        169P    395
0.5;                                                                 169P    396
128,1,8,1,2,0,1,0,0,1,-4.62798397729659D-28,                         171P    397
-4.62798397729659D-28,3.33333333333333,3.33333333333333,             171P    398
-3.14159265358979,-3.14159265358979,-3.14159265358979,               171P    399
-1.5707963267949,-1.5707963267949,0.,0.,1.5707963267949,             171P    400
1.5707963267949,3.14159265358979,3.14159265358979,                   171P    401
3.14159265358979,1.,1.,0.707106781186548,0.707106781186548,1.,       171P    402
1.,0.707106781186548,0.707106781186548,1.,1.,0.707106781186548,      171P    403
0.707106781186548,1.,1.,0.707106781186548,0.707106781186548,1.,      171P    404
1.,81.5000028610229,-32.2499997615859,-24.8749997615719,             171P    405
81.5000028610229,-32.2499997615868,-29.8749997615719,                171P    406
81.5000028610229,-30.7499997615859,-24.8749997615721,                171P    407
81.5000028610229,-30.7499997615868,-29.8749997615721,                171P    408
83.0000028610229,-30.7499997615859,-24.8749997615721,                171P    409
83.0000028610229,-30.7499997615868,-29.8749997615721,                171P    410
84.5000028610229,-30.7499997615859,-24.8749997615721,                171P    411
84.5000028610229,-30.7499997615868,-29.8749997615721,                171P    412
84.5000028610229,-32.2499997615859,-24.8749997615719,                171P    413
84.5000028610229,-32.2499997615868,-29.8749997615719,                171P    414
84.5000028610229,-33.7499997615859,-24.8749997615716,                171P    415
84.5000028610229,-33.7499997615868,-29.8749997615716,                171P    416
83.0000028610229,-33.7499997615859,-24.8749997615716,                171P    417
83.0000028610229,-33.7499997615868,-29.8749997615716,                171P    418
81.5000028610229,-33.7499997615859,-24.8749997615716,                171P    419
81.5000028610229,-33.7499997615868,-29.8749997615716,                171P    420
81.5000028610229,-32.2499997615859,-24.8749997615719,                171P    421
81.5000028610229,-32.2499997615868,-29.8749997615719,                171P    422
-4.62798397729659D-28,3.33333333333333,-3.14159265358979,            171P    423
3.14159265358979;                                                    171P    424
128,1,8,1,2,0,1,0,0,1,-4.04555615975739D-28,                         173P    425
-4.04555615975739D-28,3.33333333333333,3.33333333333333,             173P    426
-3.14159265358979,-3.14159265358979,-3.14159265358979,               173P    427
-1.5707963267949,-1.5707963267949,0.,0.,1.5707963267949,             173P    428
1.5707963267949,3.14159265358979,3.14159265358979,                   173P    429
3.14159265358979,1.,1.,0.707106781186548,0.707106781186548,1.,       173P    430
1.,0.707106781186548,0.707106781186548,1.,1.,0.707106781186548,      173P    431
0.707106781186548,1.,1.,0.707106781186548,0.707106781186548,1.,      173P    432
1.,46.0000028610229,-32.2499997615859,-24.8749997615719,             173P    433
46.0000028610229,-32.2499997615868,-29.8749997615719,                173P    434
46.0000028610229,-30.7499997615859,-24.8749997615721,                173P    435
46.0000028610229,-30.7499997615868,-29.8749997615721,                173P    436
47.5000028610229,-30.7499997615859,-24.8749997615721,                173P    437
47.5000028610229,-30.7499997615868,-29.8749997615721,                173P    438
49.0000028610229,-30.7499997615859,-24.8749997615721,                173P    439
49.0000028610229,-30.7499997615868,-29.8749997615721,                173P    440
49.0000028610229,-32.2499997615859,-24.8749997615719,                173P    441
49.0000028610229,-32.2499997615868,-29.8749997615719,                173P    442
49.0000028610229,-33.7499997615859,-24.8749997615716,                173P    443
49.0000028610229,-33.7499997615868,-29.8749997615716,                173P    444
47.5000028610229,-33.7499997615859,-24.8749997615716,                173P    445
47.5000028610229,-33.7499997615868,-29.8749997615716,                173P    446
46.0000028610229,-33.7499997615859,-24.8749997615716,                173P    447
46.0000028610229,-33.7499997615868,-29.8749997615716,                173P    448
46.0000028610229,-32.2499997615859,-24.8749997615719,                173P    449
46.0000028610229,-32.2499997615868,-29.8749997615719,                173P    450
-4.04555615975739D-28,3.33333333333333,-3.14159265358979,            173P    451
3.14159265358979;                                                    173P    452
128,1,1,1,1,0,0,1,0,0,-3.5,-3.5,0.899999999999999,                   175P    453
0.899999999999999,0.,0.,0.5,0.5,1.,1.,1.,1.,42.5000028610229,        175P    454
7.25000023841318,-29.8749997615789,42.5000028610229,                 175P    455
-36.7499997615868,-29.8749997615711,42.5000028610229,                175P    456
7.25000023841407,-24.8749997615789,42.5000028610229,                 175P    457
-36.7499997615859,-24.8749997615711,-3.5,0.899999999999999,0.,       175P    458
0.5;                                                                 175P    459
128,1,1,1,1,0,0,1,0,0,-1.38839519318898D-29,                         177P    460
-1.38839519318898D-29,4.4,4.4,-1.0097419586829D-28,                  177P    461
-1.0097419586829D-28,0.5,0.5,1.,1.,1.,1.,88.0000028610229,           177P    462
-36.7499997615868,-29.8749997615711,88.0000028610229,                177P    463
7.25000023841318,-29.8749997615789,88.0000028610229,                 177P    464
-36.7499997615859,-24.8749997615711,88.0000028610229,                177P    465
7.25000023841407,-24.8749997615789,-1.38839519318898D-29,4.4,        177P    466
-1.0097419586829D-28,0.5;                                            177P    467
128,1,1,1,1,0,0,1,0,0,0.,0.,1.1161758543999,1.1161758543999,0.,      179P    468
0.,0.5,0.5,1.,1.,1.,1.,42.5000028610229,-36.7499997615868,           179P    469
-29.8749997615711,53.6617614050218,-36.7499997615868,                179P    470
-29.8749997615711,42.5000028610229,-36.7499997615859,                179P    471
-24.8749997615711,53.6617614050218,-36.7499997615859,                179P    472
-24.8749997615711,0.,1.1161758543999,0.,0.5;                         179P    473
502,26,73.199317206226,-10.7499997615868,-29.8749997615757,          181P    474
53.6617614050218,-10.7499997615868,-29.8749997615757,                181P    475
73.199317206226,-10.7499997615859,-24.8749997615757,                 181P    476
53.6617614050218,-10.7499997615859,-24.8749997615757,                181P    477
73.199317206226,-36.7499997615868,-29.8749997615711,                 181P    478
53.6617614050218,-36.7499997615868,-29.8749997615711,                181P    479
42.5000028610229,-36.7499997615868,-29.8749997615711,                181P    480
42.5000028610229,7.25000023841318,-29.8749997615789,                 181P    481
88.0000028610229,7.25000023841318,-29.8749997615789,                 181P    482
88.0000028610229,-36.7499997615868,-29.8749997615711,                181P    483
81.5000028610229,-32.2499997615868,-29.8749997615719,                181P    484
46.0000028610229,-32.2499997615868,-29.8749997615719,                181P    485
65.0000028610229,2.75000023841318,-29.8749997615781,                 181P    486
66.5000028610229,4.25000023841318,-29.8749997615783,                 181P    487
84.0000028610229,2.75000023841317,-29.8749997615781,                 181P    488
85.5000028610229,4.25000023841318,-29.8749997615783,                 181P    489
85.5000028610229,4.25000023841407,-24.8749997615783,                 181P    490
66.5000028610229,4.25000023841407,-24.8749997615783,                 181P    491
88.0000028610229,7.25000023841407,-24.8749997615789,                 181P    492
42.5000028610229,7.25000023841407,-24.8749997615789,                 181P    493
53.6617614050218,-36.7499997615859,-24.8749997615711,                181P    494
73.199317206226,-36.7499997615859,-24.8749997615711,                 181P    495
88.0000028610229,-36.7499997615859,-24.8749997615711,                181P    496
42.5000028610229,-36.7499997615859,-24.8749997615711,                181P    497
81.5000028610229,-32.2499997615859,-24.8749997615719,                181P    498
46.0000028610229,-32.2499997615859,-24.8749997615719;                181P    499
504,38,77,181,1,181,2,79,181,3,181,1,81,181,4,181,3,83,181,2,        183P    500
181,4,85,181,5,181,1,87,181,2,181,6,89,181,6,181,7,91,181,7,181,     183P    501
8,93,181,9,181,8,95,181,9,181,10,97,181,10,181,5,99,181,11,181,      183P    502
11,101,181,12,181,12,103,181,13,181,14,105,181,14,181,13,107,        183P    503
181,15,181,16,109,181,16,181,15,111,181,16,181,17,113,181,17,        183P    504
181,17,115,181,14,181,18,117,181,18,181,18,119,181,19,181,9,121,     183P    505
181,8,181,20,123,181,20,181,19,125,181,21,181,4,127,181,6,181,       183P    506
21,129,181,22,181,5,131,181,3,181,22,133,181,22,181,23,135,181,      183P    507
23,181,19,137,181,24,181,20,139,181,24,181,21,141,181,25,181,25,     183P    508
143,181,26,181,26,145,181,10,181,23,147,181,25,181,11,149,181,       183P    509
26,181,12,151,181,7,181,24;                                          183P    510
406,1,5HBody1;                                                       185P    511
314,62.7450980392157,62.7450980392157,62.7450980392157,13HSteel      187P    512
- Satin;                                                             187P    513
S      1G      2D    188P    513                                        T      1
