                                                                        S      1
,,12HX_Carriage_5,12HX_Carriage_5,7Hunknown,7Hunknown,32,38,7,99,15,,1.,G      1
2,2HMM,1,0.08,15H20150214.161419,0.01,10000.,7Hunknown,7Hunknown,11,0,; G      2
     186       1                                                00000000D      1
     186            -159       1       0                               0D      2
     514       2                                                00010000D      3
     514                       1       1                               0D      4
     510       3                                                00010000D      5
     510            -159       1       1                               0D      6
     510       4                                                00010000D      7
     510            -159       1       1                               0D      8
     510       5                                                00010000D      9
     510            -159       1       1                               0D     10
     510       6                                                00010000D     11
     510            -159       1       1                               0D     12
     510       7                                                00010000D     13
     510            -159       1       1                               0D     14
     510       8                                                00010000D     15
     510            -159       1       1                               0D     16
     510       9                                                00010000D     17
     510            -159       1       1                               0D     18
     510      10                                                00010000D     19
     510            -159       1       1                               0D     20
     510      11                                                00010000D     21
     510            -159       1       1                               0D     22
     510      12                                                00010000D     23
     510            -159       1       1                               0D     24
     510      13                                                00010000D     25
     510            -159       1       1                               0D     26
     510      14                                                00010000D     27
     510            -159       1       1                               0D     28
     508      15                                                00010000D     29
     508                       1       1                               0D     30
     508      16                                                00010000D     31
     508                       1       1                               0D     32
     508      17                                                00010000D     33
     508                       1       1                               0D     34
     508      18                                                00010000D     35
     508                       1       1                               0D     36
     508      19                                                00010000D     37
     508                       1       1                               0D     38
     508      20                                                00010000D     39
     508                       1       1                               0D     40
     508      21                                                00010000D     41
     508                       1       1                               0D     42
     508      22                                                00010000D     43
     508                       1       1                               0D     44
     508      23                                                00010000D     45
     508                       1       1                               0D     46
     508      24                                                00010000D     47
     508                       2       1                               0D     48
     508      26                                                00010000D     49
     508                       1       1                               0D     50
     508      27                                                00010000D     51
     508                       1       1                               0D     52
     508      28                                                00010000D     53
     508                       1       1                               0D     54
     508      29                                                00010000D     55
     508                       1       1                               0D     56
     508      30                                                00010000D     57
     508                       1       1                               0D     58
     508      31                                                00010000D     59
     508                       1       1                               0D     60
     508      32                                                00010000D     61
     508                       1       1                               0D     62
     508      33                                                00010000D     63
     508                       2       1                               0D     64
     508      35                                                00010000D     65
     508                       1       1                               0D     66
     508      36                                                00010000D     67
     508                       1       1                               0D     68
     126      37                                                00010000D     69
     126       0               4       0                               0D     70
     126      41                                                00010000D     71
     126       0               3       0                               0D     72
     126      44                                                00010000D     73
     126       0               4       0                               0D     74
     126      48                                                00010000D     75
     126       0               4       0                               0D     76
     126      52                                                00010000D     77
     126       0              15       0                               0D     78
     126      67                                                00010000D     79
     126       0              15       0                               0D     80
     126      82                                                00010000D     81
     126       0               3       0                               0D     82
     126      85                                                00010000D     83
     126       0               4       0                               0D     84
     126      89                                                00010000D     85
     126       0               3       0                               0D     86
     126      92                                                00010000D     87
     126       0              15       0                               0D     88
     126     107                                                00010000D     89
     126       0              15       0                               0D     90
     126     122                                                00010000D     91
     126       0               5       0                               0D     92
     126     127                                                00010000D     93
     126       0               5       0                               0D     94
     126     132                                                00010000D     95
     126       0               4       0                               0D     96
     126     136                                                00010000D     97
     126       0               5       0                               0D     98
     126     141                                                00010000D     99
     126       0              15       0                               0D    100
     126     156                                                00010000D    101
     126       0              15       0                               0D    102
     126     171                                                00010000D    103
     126       0               3       0                               0D    104
     126     174                                                00010000D    105
     126       0               3       0                               0D    106
     126     177                                                00010000D    107
     126       0               3       0                               0D    108
     126     180                                                00010000D    109
     126       0               3       0                               0D    110
     126     183                                                00010000D    111
     126       0              15       0                               0D    112
     126     198                                                00010000D    113
     126       0               4       0                               0D    114
     126     202                                                00010000D    115
     126       0              15       0                               0D    116
     126     217                                                00010000D    117
     126       0               4       0                               0D    118
     126     221                                                00010000D    119
     126       0               3       0                               0D    120
     126     224                                                00010000D    121
     126       0               3       0                               0D    122
     126     227                                                00010000D    123
     126       0               3       0                               0D    124
     126     230                                                00010000D    125
     126       0               5       0                               0D    126
     126     235                                                00010000D    127
     126       0               5       0                               0D    128
     128     240                                                00010000D    129
     128       0    -159       7       0                               0D    130
     128     247                                                00010000D    131
     128       0    -159       6       0                               0D    132
     128     253                                                00010000D    133
     128       0    -159       7       0                               0D    134
     128     260                                                00010000D    135
     128       0    -159       7       0                               0D    136
     128     267                                                00010000D    137
     128       0    -159       6       0                               0D    138
     128     273                                                00010000D    139
     128       0    -159      26       0                               0D    140
     128     299                                                00010000D    141
     128       0    -159      26       0                               0D    142
     128     325                                                00010000D    143
     128       0    -159       6       0                               0D    144
     128     331                                                00010000D    145
     128       0    -159       6       0                               0D    146
     128     337                                                00010000D    147
     128       0    -159       6       0                               0D    148
     128     343                                                00010000D    149
     128       0    -159      27       0                               0D    150
     128     370                                                00010000D    151
     128       0    -159      27       0                               0D    152
     502     397                                                00010000D    153
     502                      20       1                               0D    154
     504     417                                                00010001D    155
     504                       8       1                               0D    156
     406     425                                                00000000D    157
     406                       1      15                               0D    158
     314     426                                                00000200D    159
     314                       2       0                               0D    160
186,3,1,0,0,1,157;                                                     1P      1
514,12,5,1,7,1,9,1,11,1,13,1,15,1,17,1,19,1,21,1,23,1,25,1,27,1;       3P      2
510,129,3,1,29,31,33;                                                  5P      3
510,131,3,1,35,37,39;                                                  7P      4
510,133,3,1,41,43,45;                                                  9P      5
510,135,1,1,47;                                                       11P      6
510,137,1,1,49;                                                       13P      7
510,139,1,1,51;                                                       15P      8
510,141,1,1,53;                                                       17P      9
510,143,3,1,55,57,59;                                                 19P     10
510,145,1,1,61;                                                       21P     11
510,147,1,1,63;                                                       23P     12
510,149,1,1,65;                                                       25P     13
510,151,1,1,67;                                                       27P     14
508,4,0,155,1,1,0,0,155,2,1,0,0,155,3,1,0,0,155,4,0,0;                29P     15
508,1,0,155,5,1,0;                                                    31P     16
508,1,0,155,6,1,0;                                                    33P     17
508,4,0,155,4,1,0,0,155,7,0,0,0,155,8,0,0,0,155,9,0,0;                35P     18
508,1,0,155,10,1,0;                                                   37P     19
508,1,0,155,11,1,0;                                                   39P     20
508,4,0,155,12,0,0,0,155,13,0,0,0,155,14,0,0,0,155,15,0,0;            41P     21
508,1,0,155,16,0,0;                                                   43P     22
508,1,0,155,17,0,0;                                                   45P     23
508,6,0,155,13,1,0,0,155,18,1,0,0,155,1,0,0,0,155,9,1,0,0,155,        47P     24
19,1,0,0,155,20,0,0;                                                  47P     25
508,4,0,155,12,1,0,0,155,21,1,0,0,155,2,0,0,0,155,18,0,0;             49P     26
508,4,0,155,22,0,0,0,155,23,1,0,0,155,11,0,0,0,155,23,0,0;            51P     27
508,4,0,155,24,0,0,0,155,25,1,0,0,155,10,0,0,0,155,25,0,0;            53P     28
508,4,0,155,14,1,0,0,155,20,1,0,0,155,26,1,0,0,155,27,1,0;            55P     29
508,1,0,155,22,1,0;                                                   57P     30
508,1,0,155,24,1,0;                                                   59P     31
508,4,0,155,8,1,0,0,155,28,1,0,0,155,26,0,0,0,155,19,0,0;             61P     32
508,6,0,155,15,1,0,0,155,27,0,0,0,155,28,0,0,0,155,7,1,0,0,155,       63P     33
3,0,0,0,155,21,0,0;                                                   63P     34
508,4,0,155,6,0,0,0,155,29,1,0,0,155,16,1,0,0,155,29,0,0;             65P     35
508,4,0,155,5,0,0,0,155,30,1,0,0,155,17,1,0,0,155,30,0,0;             67P     36
126,1,1,0,0,1,0,-2.6,-2.6,1.49999999999973,1.49999999999973,1.,       69P     37
1.,25.5000028610229,-73.7499997615895,-70.8749997615672,              69P     38
25.5000028610229,-73.7499997615895,-29.8749997615699,-2.6,            69P     39
1.49999999999973,0.,0.,0.;                                            69P     40
126,1,1,0,0,1,0,0.,0.,3.1,3.1,1.,1.,25.5000028610229,                 71P     41
-73.7499997615895,-29.8749997615699,25.5000028610229,                 71P     42
-42.7499997615895,-29.8749997615726,0.,3.1,0.,0.,0.;                  71P     43
126,1,1,0,0,1,0,-1.49999999999946,-1.49999999999946,2.6,2.6,1.,       73P     44
1.,25.5000028610229,-42.7499997615895,-29.8749997615726,              73P     45
25.5000028610229,-42.7499997615895,-70.8749997615672,                 73P     46
-1.49999999999946,2.6,0.,0.,0.;                                       73P     47
126,1,1,0,0,1,0,-0.775,-0.775,2.325,2.325,1.,1.,                      75P     48
25.5000028610229,-73.7499997615895,-70.8749997615672,                 75P     49
25.5000028610229,-42.7499997615895,-70.8749997615672,-0.775,          75P     50
2.325,0.,0.,0.;                                                       75P     51
126,8,2,0,1,0,0,-3.14159265358979,-3.14159265358979,                  77P     52
-3.14159265358979,-1.5707963267949,-1.5707963267949,0.,0.,            77P     53
1.5707963267949,1.5707963267949,3.14159265358979,                     77P     54
3.14159265358979,3.14159265358979,1.,0.707106781186536,1.,            77P     55
0.707106781186536,1.,0.707106781186536,1.,0.707106781186536,1.,       77P     56
25.5000028610229,-48.7499997615895,-38.8749997615699,                 77P     57
25.5000028610229,-47.2499997615895,-38.8749997615699,                 77P     58
25.5000028610229,-47.2499997615895,-37.3749997615699,                 77P     59
25.5000028610229,-47.2499997615895,-35.8749997615699,                 77P     60
25.5000028610229,-48.7499997615895,-35.8749997615699,                 77P     61
25.5000028610229,-50.2499997615895,-35.8749997615699,                 77P     62
25.5000028610229,-50.2499997615895,-37.3749997615699,                 77P     63
25.5000028610229,-50.2499997615895,-38.8749997615699,                 77P     64
25.5000028610229,-48.7499997615895,-38.8749997615699,                 77P     65
-3.14159265358979,3.14159265358979,0.,0.,0.;                          77P     66
126,8,2,0,1,0,0,-3.14159265358979,-3.14159265358979,                  79P     67
-3.14159265358979,-1.5707963267949,-1.5707963267949,0.,0.,            79P     68
1.5707963267949,1.5707963267949,3.14159265358979,                     79P     69
3.14159265358979,3.14159265358979,1.,0.707106781186554,1.,            79P     70
0.707106781186554,1.,0.707106781186554,1.,0.707106781186554,1.,       79P     71
25.5000028610229,-67.7499997615895,-38.8749997615699,                 79P     72
25.5000028610229,-66.2499997615895,-38.8749997615699,                 79P     73
25.5000028610229,-66.2499997615895,-37.3749997615699,                 79P     74
25.5000028610229,-66.2499997615895,-35.8749997615699,                 79P     75
25.5000028610229,-67.7499997615895,-35.8749997615699,                 79P     76
25.5000028610229,-69.2499997615895,-35.8749997615699,                 79P     77
25.5000028610229,-69.2499997615895,-37.3749997615699,                 79P     78
25.5000028610229,-69.2499997615895,-38.8749997615699,                 79P     79
25.5000028610229,-67.7499997615895,-38.8749997615699,                 79P     80
-3.14159265358979,3.14159265358979,0.,0.,0.;                          79P     81
126,1,1,0,0,1,0,-2.65,-2.65,-1.15,-1.15,1.,1.,10.5000028610229,       81P     82
-42.7499997615895,-70.8749997615672,25.5000028610229,                 81P     83
-42.7499997615895,-70.8749997615672,-2.65,-1.15,0.,0.,0.;             81P     84
126,1,1,0,0,1,0,-0.775,-0.775,2.325,2.325,1.,1.,                      83P     85
10.5000028610229,-73.7499997615895,-70.8749997615672,                 83P     86
10.5000028610229,-42.7499997615895,-70.8749997615672,-0.775,          83P     87
2.325,0.,0.,0.;                                                       83P     88
126,1,1,0,0,1,0,1.15,1.15,2.65,2.65,1.,1.,25.5000028610229,           85P     89
-73.7499997615895,-70.8749997615672,10.5000028610229,                 85P     90
-73.7499997615895,-70.8749997615672,1.15,2.65,0.,0.,0.;               85P     91
126,8,2,0,1,0,0,-3.14159265358979,-3.14159265358979,                  87P     92
-3.14159265358979,-1.5707963267949,-1.5707963267949,0.,0.,            87P     93
1.5707963267949,1.5707963267949,3.14159265358979,                     87P     94
3.14159265358979,3.14159265358979,1.,0.707106781186552,1.,            87P     95
0.707106781186552,1.,0.707106781186552,1.,0.707106781186552,1.,       87P     96
17.0000028610229,-55.7499997615895,-70.8749997615672,                 87P     97
17.0000028610229,-57.2499997615895,-70.8749997615672,                 87P     98
15.5000028610229,-57.2499997615895,-70.8749997615672,                 87P     99
14.0000028610229,-57.2499997615895,-70.8749997615672,                 87P    100
14.0000028610229,-55.7499997615895,-70.8749997615672,                 87P    101
14.0000028610229,-54.2499997615895,-70.8749997615672,                 87P    102
15.5000028610229,-54.2499997615895,-70.8749997615672,                 87P    103
17.0000028610229,-54.2499997615895,-70.8749997615672,                 87P    104
17.0000028610229,-55.7499997615895,-70.8749997615672,                 87P    105
-3.14159265358979,3.14159265358979,0.,0.,0.;                          87P    106
126,8,2,0,1,0,0,-3.14159265358979,-3.14159265358979,                  89P    107
-3.14159265358979,-1.5707963267949,-1.5707963267949,0.,0.,            89P    108
1.5707963267949,1.5707963267949,3.14159265358979,                     89P    109
3.14159265358979,3.14159265358979,1.,0.707106781186552,1.,            89P    110
0.707106781186552,1.,0.707106781186552,1.,0.707106781186552,1.,       89P    111
17.0000028610229,-65.7499997615895,-70.8749997615672,                 89P    112
17.0000028610229,-67.2499997615895,-70.8749997615672,                 89P    113
15.5000028610229,-67.2499997615895,-70.8749997615672,                 89P    114
14.0000028610229,-67.2499997615895,-70.8749997615672,                 89P    115
14.0000028610229,-65.7499997615895,-70.8749997615672,                 89P    116
14.0000028610229,-64.2499997615895,-70.8749997615672,                 89P    117
15.5000028610229,-64.2499997615895,-70.8749997615672,                 89P    118
17.0000028610229,-64.2499997615895,-70.8749997615672,                 89P    119
17.0000028610229,-65.7499997615895,-70.8749997615672,                 89P    120
-3.14159265358979,3.14159265358979,0.,0.,0.;                          89P    121
126,1,1,0,0,1,0,-0.775000000000067,-0.775000000000067,                91P    122
2.32499999999993,2.32499999999993,1.,1.,36.5000028610229,             91P    123
-73.7499997615895,-29.8749997615699,36.5000028610229,                 91P    124
-42.7499997615895,-29.8749997615754,-0.775000000000067,               91P    125
2.32499999999993,0.,0.,0.;                                            91P    126
126,1,1,0,0,1,0,-3.87499999999993,-3.87499999999993,                  93P    127
1.1249999999998,1.1249999999998,1.,1.,36.5000028610229,               93P    128
-73.7499997615895,-79.8749997615672,36.5000028610229,                 93P    129
-73.7499997615895,-29.8749997615699,-3.87499999999993,                93P    130
1.1249999999998,0.,0.,0.;                                             93P    131
126,1,1,0,0,1,0,-0.775,-0.775,2.325,2.325,1.,1.,                      95P    132
36.5000028610229,-42.7499997615895,-79.8749997615672,                 95P    133
36.5000028610229,-73.7499997615895,-79.8749997615672,-0.775,          95P    134
2.325,0.,0.,0.;                                                       95P    135
126,1,1,0,0,1,0,-0.374999999999796,-0.374999999999796,                97P    136
4.62499999999966,4.62499999999966,1.,1.,36.5000028610229,             97P    137
-42.7499997615895,-29.8749997615726,36.5000028610229,                 97P    138
-42.7499997615895,-79.8749997615672,-0.374999999999796,               97P    139
4.62499999999966,0.,0.,0.;                                            97P    140
126,8,2,0,1,0,0,-3.14159265358979,-3.14159265358979,                  99P    141
-3.14159265358979,-1.5707963267949,-1.5707963267949,0.,0.,            99P    142
1.5707963267949,1.5707963267949,3.14159265358979,                     99P    143
3.14159265358979,3.14159265358979,1.,0.707106781186554,1.,            99P    144
0.707106781186554,1.,0.707106781186554,1.,0.707106781186554,1.,       99P    145
36.5000028610229,-67.7499997615895,-38.8749997615699,                 99P    146
36.5000028610229,-66.2499997615895,-38.8749997615699,                 99P    147
36.5000028610229,-66.2499997615895,-37.3749997615699,                 99P    148
36.5000028610229,-66.2499997615895,-35.8749997615699,                 99P    149
36.5000028610229,-67.7499997615895,-35.8749997615699,                 99P    150
36.5000028610229,-69.2499997615895,-35.8749997615699,                 99P    151
36.5000028610229,-69.2499997615895,-37.3749997615699,                 99P    152
36.5000028610229,-69.2499997615895,-38.8749997615699,                 99P    153
36.5000028610229,-67.7499997615895,-38.8749997615699,                 99P    154
-3.14159265358979,3.14159265358979,0.,0.,0.;                          99P    155
126,8,2,0,1,0,0,-3.14159265358979,-3.14159265358979,                 101P    156
-3.14159265358979,-1.5707963267949,-1.5707963267949,0.,0.,           101P    157
1.5707963267949,1.5707963267949,3.14159265358979,                    101P    158
3.14159265358979,3.14159265358979,1.,0.707106781186536,1.,           101P    159
0.707106781186536,1.,0.707106781186536,1.,0.707106781186536,1.,      101P    160
36.5000028610229,-48.7499997615895,-38.8749997615699,                101P    161
36.5000028610229,-47.2499997615895,-38.8749997615699,                101P    162
36.5000028610229,-47.2499997615895,-37.3749997615699,                101P    163
36.5000028610229,-47.2499997615895,-35.8749997615699,                101P    164
36.5000028610229,-48.7499997615895,-35.8749997615699,                101P    165
36.5000028610229,-50.2499997615895,-35.8749997615699,                101P    166
36.5000028610229,-50.2499997615895,-37.3749997615699,                101P    167
36.5000028610229,-50.2499997615895,-38.8749997615699,                101P    168
36.5000028610229,-48.7499997615895,-38.8749997615699,                101P    169
-3.14159265358979,3.14159265358979,0.,0.,0.;                         101P    170
126,1,1,0,0,1,0,0.6,0.6,1.7,1.7,1.,1.,36.5000028610229,              103P    171
-73.7499997615895,-29.8749997615699,25.5000028610229,                103P    172
-73.7499997615895,-29.8749997615699,0.6,1.7,0.,0.,0.;                103P    173
126,1,1,0,0,1,0,2.6,2.6,3.5,3.5,1.,1.,10.5000028610229,              105P    174
-73.7499997615895,-70.8749997615672,10.5000028610229,                105P    175
-73.7499997615895,-79.8749997615672,2.6,3.5,0.,0.,0.;                105P    176
126,1,1,0,0,1,0,0.6,0.6,3.2,3.2,1.,1.,36.5000028610229,              107P    177
-73.7499997615895,-79.8749997615672,10.5000028610229,                107P    178
-73.7499997615895,-79.8749997615672,0.6,3.2,0.,0.,0.;                107P    179
126,1,1,0,0,1,0,0.6,0.6,1.7,1.7,1.,1.,36.5000028610229,              109P    180
-42.7499997615895,-29.8749997615726,25.5000028610229,                109P    181
-42.7499997615895,-29.8749997615726,0.6,1.7,0.,0.,0.;                109P    182
126,8,2,0,1,0,0,-3.14159265358979,-3.14159265358979,                 111P    183
-3.14159265358979,-1.5707963267949,-1.5707963267949,0.,0.,           111P    184
1.5707963267949,1.5707963267949,3.14159265358979,                    111P    185
3.14159265358979,3.14159265358979,1.,0.707106781186552,1.,           111P    186
0.707106781186552,1.,0.707106781186552,1.,0.707106781186552,1.,      111P    187
17.0000028610229,-65.7499997615895,-79.8749997615672,                111P    188
17.0000028610229,-64.2499997615895,-79.8749997615672,                111P    189
15.5000028610229,-64.2499997615895,-79.8749997615672,                111P    190
14.0000028610229,-64.2499997615895,-79.8749997615672,                111P    191
14.0000028610229,-65.7499997615895,-79.8749997615672,                111P    192
14.0000028610229,-67.2499997615895,-79.8749997615672,                111P    193
15.5000028610229,-67.2499997615895,-79.8749997615672,                111P    194
17.0000028610229,-67.2499997615895,-79.8749997615672,                111P    195
17.0000028610229,-65.7499997615895,-79.8749997615672,                111P    196
-3.14159265358979,3.14159265358979,0.,0.,0.;                         111P    197
126,1,1,0,0,1,0,0.,0.,6.00000000000001,6.00000000000001,1.,1.,       113P    198
17.0000028610229,-65.7499997615895,-79.8749997615672,                113P    199
17.0000028610229,-65.7499997615895,-70.8749997615672,0.,             113P    200
6.00000000000001,0.,0.,0.;                                           113P    201
126,8,2,0,1,0,0,-3.14159265358979,-3.14159265358979,                 115P    202
-3.14159265358979,-1.5707963267949,-1.5707963267949,0.,0.,           115P    203
1.5707963267949,1.5707963267949,3.14159265358979,                    115P    204
3.14159265358979,3.14159265358979,1.,0.707106781186552,1.,           115P    205
0.707106781186552,1.,0.707106781186552,1.,0.707106781186552,1.,      115P    206
17.0000028610229,-55.7499997615895,-79.8749997615672,                115P    207
17.0000028610229,-54.2499997615895,-79.8749997615672,                115P    208
15.5000028610229,-54.2499997615895,-79.8749997615672,                115P    209
14.0000028610229,-54.2499997615895,-79.8749997615672,                115P    210
14.0000028610229,-55.7499997615895,-79.8749997615672,                115P    211
14.0000028610229,-57.2499997615895,-79.8749997615672,                115P    212
15.5000028610229,-57.2499997615895,-79.8749997615672,                115P    213
17.0000028610229,-57.2499997615895,-79.8749997615672,                115P    214
17.0000028610229,-55.7499997615895,-79.8749997615672,                115P    215
-3.14159265358979,3.14159265358979,0.,0.,0.;                         115P    216
126,1,1,0,0,1,0,0.,0.,6.00000000000001,6.00000000000001,1.,1.,       117P    217
17.0000028610229,-55.7499997615895,-79.8749997615672,                117P    218
17.0000028610229,-55.7499997615895,-70.8749997615672,0.,             117P    219
6.00000000000001,0.,0.,0.;                                           117P    220
126,1,1,0,0,1,0,-3.1,-3.1,0.,0.,1.,1.,10.5000028610229,              119P    221
-73.7499997615895,-79.8749997615672,10.5000028610229,                119P    222
-42.7499997615895,-79.8749997615672,-3.1,0.,0.,0.,0.;                119P    223
126,1,1,0,0,1,0,-3.2,-3.2,-0.6,-0.6,1.,1.,10.5000028610229,          121P    224
-42.7499997615895,-79.8749997615672,36.5000028610229,                121P    225
-42.7499997615895,-79.8749997615672,-3.2,-0.6,0.,0.,0.;              121P    226
126,1,1,0,0,1,0,3.,3.,3.9,3.9,1.,1.,10.5000028610229,                123P    227
-42.7499997615895,-70.8749997615672,10.5000028610229,                123P    228
-42.7499997615895,-79.8749997615672,3.,3.9,0.,0.,0.;                 123P    229
126,1,1,0,0,1,0,-8.6666666666667,-8.6666666666667,                   125P    230
-1.33333333333334,-1.33333333333334,1.,1.,25.5000028610229,          125P    231
-67.7499997615895,-38.8749997615699,36.5000028610229,                125P    232
-67.7499997615895,-38.8749997615699,-8.6666666666667,                125P    233
-1.33333333333334,0.,0.,0.;                                          125P    234
126,1,1,0,0,1,0,-8.66666666666667,-8.66666666666667,                 127P    235
-1.33333333333333,-1.33333333333333,1.,1.,25.5000028610229,          127P    236
-48.7499997615895,-38.8749997615699,36.5000028610229,                127P    237
-48.7499997615895,-38.8749997615699,-8.66666666666667,               127P    238
-1.33333333333333,0.,0.,0.;                                          127P    239
128,1,1,1,1,0,0,1,0,0,-3.34999999999987,-3.34999999999987,           129P    240
0.749999999999867,0.749999999999867,-1.55,-1.55,1.55,1.55,1.,1.,     129P    241
1.,1.,25.5000028610229,-73.7499997615895,-70.8749997615672,          129P    242
25.5000028610229,-73.7499997615895,-29.8749997615699,                129P    243
25.5000028610229,-42.7499997615895,-70.8749997615672,                129P    244
25.5000028610229,-42.7499997615895,-29.8749997615699,                129P    245
-3.34999999999987,0.749999999999867,-1.55,1.55;                      129P    246
128,1,1,1,1,0,0,1,0,0,0.,0.,3.1,3.1,0.6,0.6,2.1,2.1,1.,1.,1.,1.,     131P    247
25.5000028610229,-73.7499997615895,-70.8749997615672,                131P    248
25.5000028610229,-42.7499997615895,-70.8749997615672,                131P    249
10.5000028610229,-73.7499997615895,-70.8749997615672,                131P    250
10.5000028610229,-42.7499997615895,-70.8749997615672,0.,3.1,0.6,     131P    251
2.1;                                                                 131P    252
128,1,1,1,1,0,0,1,0,0,-4.24999999999987,-4.24999999999987,           133P    253
0.749999999999867,0.749999999999867,-1.55,-1.55,1.55,1.55,1.,1.,     133P    254
1.,1.,36.5000028610229,-73.7499997615895,-29.8749997615699,          133P    255
36.5000028610229,-73.7499997615895,-79.8749997615672,                133P    256
36.5000028610229,-42.7499997615895,-29.8749997615699,                133P    257
36.5000028610229,-42.7499997615895,-79.8749997615672,                133P    258
-4.24999999999987,0.749999999999867,-1.55,1.55;                      133P    259
128,1,1,1,1,0,0,1,0,0,-3.5,-3.5,1.49999999999973,                    135P    260
1.49999999999973,0.6,0.6,3.2,3.2,1.,1.,1.,1.,36.5000028610229,       135P    261
-73.7499997615895,-79.8749997615672,36.5000028610229,                135P    262
-73.7499997615895,-29.8749997615699,10.5000028610229,                135P    263
-73.7499997615895,-79.8749997615672,10.5000028610229,                135P    264
-73.7499997615895,-29.8749997615699,-3.5,1.49999999999973,0.6,       135P    265
3.2;                                                                 135P    266
128,1,1,1,1,0,0,1,0,0,0.,0.,3.1,3.1,0.6,0.6,1.7,1.7,1.,1.,1.,1.,     137P    267
36.5000028610229,-73.7499997615895,-29.8749997615699,                137P    268
36.5000028610229,-42.7499997615895,-29.8749997615754,                137P    269
25.5000028610229,-73.7499997615895,-29.8749997615699,                137P    270
25.5000028610229,-42.7499997615895,-29.8749997615754,0.,3.1,0.6,     137P    271
1.7;                                                                 137P    272
128,1,8,1,2,0,1,0,0,1,0.,0.,6.00000000000001,6.00000000000001,       139P    273
-3.14159265358979,-3.14159265358979,-3.14159265358979,               139P    274
-1.5707963267949,-1.5707963267949,0.,0.,1.5707963267949,             139P    275
1.5707963267949,3.14159265358979,3.14159265358979,                   139P    276
3.14159265358979,1.,1.,0.707106781186548,0.707106781186548,1.,       139P    277
1.,0.707106781186548,0.707106781186548,1.,1.,0.707106781186548,      139P    278
0.707106781186548,1.,1.,0.707106781186548,0.707106781186548,1.,      139P    279
1.,17.0000028610229,-65.7499997615895,-79.8749997615672,             139P    280
17.0000028610229,-65.7499997615895,-70.8749997615672,                139P    281
17.0000028610229,-64.2499997615895,-79.8749997615672,                139P    282
17.0000028610229,-64.2499997615895,-70.8749997615672,                139P    283
15.5000028610229,-64.2499997615895,-79.8749997615672,                139P    284
15.5000028610229,-64.2499997615895,-70.8749997615672,                139P    285
14.0000028610229,-64.2499997615895,-79.8749997615672,                139P    286
14.0000028610229,-64.2499997615895,-70.8749997615672,                139P    287
14.0000028610229,-65.7499997615895,-79.8749997615672,                139P    288
14.0000028610229,-65.7499997615895,-70.8749997615672,                139P    289
14.0000028610229,-67.2499997615895,-79.8749997615672,                139P    290
14.0000028610229,-67.2499997615895,-70.8749997615672,                139P    291
15.5000028610229,-67.2499997615895,-79.8749997615672,                139P    292
15.5000028610229,-67.2499997615895,-70.8749997615672,                139P    293
17.0000028610229,-67.2499997615895,-79.8749997615672,                139P    294
17.0000028610229,-67.2499997615895,-70.8749997615672,                139P    295
17.0000028610229,-65.7499997615895,-79.8749997615672,                139P    296
17.0000028610229,-65.7499997615895,-70.8749997615672,0.,             139P    297
6.00000000000001,-3.14159265358979,3.14159265358979;                 139P    298
128,1,8,1,2,0,1,0,0,1,0.,0.,6.00000000000001,6.00000000000001,       141P    299
-3.14159265358979,-3.14159265358979,-3.14159265358979,               141P    300
-1.5707963267949,-1.5707963267949,0.,0.,1.5707963267949,             141P    301
1.5707963267949,3.14159265358979,3.14159265358979,                   141P    302
3.14159265358979,1.,1.,0.707106781186548,0.707106781186548,1.,       141P    303
1.,0.707106781186548,0.707106781186548,1.,1.,0.707106781186548,      141P    304
0.707106781186548,1.,1.,0.707106781186548,0.707106781186548,1.,      141P    305
1.,17.0000028610229,-55.7499997615895,-79.8749997615672,             141P    306
17.0000028610229,-55.7499997615895,-70.8749997615672,                141P    307
17.0000028610229,-54.2499997615895,-79.8749997615672,                141P    308
17.0000028610229,-54.2499997615895,-70.8749997615672,                141P    309
15.5000028610229,-54.2499997615895,-79.8749997615672,                141P    310
15.5000028610229,-54.2499997615895,-70.8749997615672,                141P    311
14.0000028610229,-54.2499997615895,-79.8749997615672,                141P    312
14.0000028610229,-54.2499997615895,-70.8749997615672,                141P    313
14.0000028610229,-55.7499997615895,-79.8749997615672,                141P    314
14.0000028610229,-55.7499997615895,-70.8749997615672,                141P    315
14.0000028610229,-57.2499997615895,-79.8749997615672,                141P    316
14.0000028610229,-57.2499997615895,-70.8749997615672,                141P    317
15.5000028610229,-57.2499997615895,-79.8749997615672,                141P    318
15.5000028610229,-57.2499997615895,-70.8749997615672,                141P    319
17.0000028610229,-57.2499997615895,-79.8749997615672,                141P    320
17.0000028610229,-57.2499997615895,-70.8749997615672,                141P    321
17.0000028610229,-55.7499997615895,-79.8749997615672,                141P    322
17.0000028610229,-55.7499997615895,-70.8749997615672,0.,             141P    323
6.00000000000001,-3.14159265358979,3.14159265358979;                 141P    324
128,1,1,1,1,0,0,1,0,0,0.,0.,3.1,3.1,0.6,0.6,3.2,3.2,1.,1.,1.,1.,     143P    325
36.5000028610229,-42.7499997615895,-79.8749997615672,                143P    326
36.5000028610229,-73.7499997615895,-79.8749997615672,                143P    327
10.5000028610229,-42.7499997615895,-79.8749997615672,                143P    328
10.5000028610229,-73.7499997615895,-79.8749997615672,0.,3.1,0.6,     143P    329
3.2;                                                                 143P    330
128,1,1,1,1,0,0,1,0,0,-3.7,-3.7,-2.8,-2.8,-1.55,-1.55,1.55,1.55,     145P    331
1.,1.,1.,1.,10.5000028610229,-73.7499997615895,                      145P    332
-79.8749997615672,10.5000028610229,-73.7499997615895,                145P    333
-70.8749997615672,10.5000028610229,-42.7499997615895,                145P    334
-79.8749997615672,10.5000028610229,-42.7499997615895,                145P    335
-70.8749997615672,-3.7,-2.8,-1.55,1.55;                              145P    336
128,1,1,1,1,0,0,1,0,0,0.,0.,4.99999999999946,4.99999999999946,       147P    337
0.6,0.6,3.2,3.2,1.,1.,1.,1.,36.5000028610229,-42.7499997615895,      147P    338
-29.8749997615726,36.5000028610229,-42.7499997615895,                147P    339
-79.8749997615672,10.5000028610229,-42.7499997615895,                147P    340
-29.8749997615726,10.5000028610229,-42.7499997615895,                147P    341
-79.8749997615672,0.,4.99999999999946,0.6,3.2;                       147P    342
128,1,8,1,2,0,1,0,0,1,-8.6666666666667,-8.6666666666667,             149P    343
-1.33333333333334,-1.33333333333334,-3.14159265358979,               149P    344
-3.14159265358979,-3.14159265358979,-1.5707963267949,                149P    345
-1.5707963267949,0.,0.,1.5707963267949,1.5707963267949,              149P    346
3.14159265358979,3.14159265358979,3.14159265358979,1.,1.,            149P    347
0.707106781186548,0.707106781186548,1.,1.,0.707106781186548,         149P    348
0.707106781186548,1.,1.,0.707106781186548,0.707106781186548,1.,      149P    349
1.,0.707106781186548,0.707106781186548,1.,1.,25.5000028610229,       149P    350
-67.7499997615895,-38.8749997615699,36.5000028610229,                149P    351
-67.7499997615895,-38.8749997615699,25.5000028610229,                149P    352
-66.2499997615895,-38.8749997615699,36.5000028610229,                149P    353
-66.2499997615895,-38.8749997615699,25.5000028610229,                149P    354
-66.2499997615895,-37.3749997615699,36.5000028610229,                149P    355
-66.2499997615895,-37.3749997615699,25.5000028610229,                149P    356
-66.2499997615895,-35.8749997615699,36.5000028610229,                149P    357
-66.2499997615895,-35.8749997615699,25.5000028610229,                149P    358
-67.7499997615895,-35.8749997615699,36.5000028610229,                149P    359
-67.7499997615895,-35.8749997615699,25.5000028610229,                149P    360
-69.2499997615895,-35.8749997615699,36.5000028610229,                149P    361
-69.2499997615895,-35.8749997615699,25.5000028610229,                149P    362
-69.2499997615895,-37.3749997615699,36.5000028610229,                149P    363
-69.2499997615895,-37.3749997615699,25.5000028610229,                149P    364
-69.2499997615895,-38.8749997615699,36.5000028610229,                149P    365
-69.2499997615895,-38.8749997615699,25.5000028610229,                149P    366
-67.7499997615895,-38.8749997615699,36.5000028610229,                149P    367
-67.7499997615895,-38.8749997615699,-8.6666666666667,                149P    368
-1.33333333333334,-3.14159265358979,3.14159265358979;                149P    369
128,1,8,1,2,0,1,0,0,1,-8.66666666666667,-8.66666666666667,           151P    370
-1.33333333333333,-1.33333333333333,-3.14159265358979,               151P    371
-3.14159265358979,-3.14159265358979,-1.5707963267949,                151P    372
-1.5707963267949,0.,0.,1.5707963267949,1.5707963267949,              151P    373
3.14159265358979,3.14159265358979,3.14159265358979,1.,1.,            151P    374
0.707106781186548,0.707106781186548,1.,1.,0.707106781186548,         151P    375
0.707106781186548,1.,1.,0.707106781186548,0.707106781186548,1.,      151P    376
1.,0.707106781186548,0.707106781186548,1.,1.,25.5000028610229,       151P    377
-48.7499997615895,-38.8749997615699,36.5000028610229,                151P    378
-48.7499997615895,-38.8749997615699,25.5000028610229,                151P    379
-47.2499997615895,-38.8749997615699,36.5000028610229,                151P    380
-47.2499997615895,-38.8749997615699,25.5000028610229,                151P    381
-47.2499997615895,-37.3749997615699,36.5000028610229,                151P    382
-47.2499997615895,-37.3749997615699,25.5000028610229,                151P    383
-47.2499997615895,-35.8749997615699,36.5000028610229,                151P    384
-47.2499997615895,-35.8749997615699,25.5000028610229,                151P    385
-48.7499997615895,-35.8749997615699,36.5000028610229,                151P    386
-48.7499997615895,-35.8749997615699,25.5000028610229,                151P    387
-50.2499997615895,-35.8749997615699,36.5000028610229,                151P    388
-50.2499997615895,-35.8749997615699,25.5000028610229,                151P    389
-50.2499997615895,-37.3749997615699,36.5000028610229,                151P    390
-50.2499997615895,-37.3749997615699,25.5000028610229,                151P    391
-50.2499997615895,-38.8749997615699,36.5000028610229,                151P    392
-50.2499997615895,-38.8749997615699,25.5000028610229,                151P    393
-48.7499997615895,-38.8749997615699,36.5000028610229,                151P    394
-48.7499997615895,-38.8749997615699,-8.66666666666667,               151P    395
-1.33333333333333,-3.14159265358979,3.14159265358979;                151P    396
502,20,25.5000028610229,-73.7499997615895,-70.8749997615672,         153P    397
25.5000028610229,-73.7499997615895,-29.8749997615699,                153P    398
25.5000028610229,-42.7499997615895,-29.8749997615726,                153P    399
25.5000028610229,-42.7499997615895,-70.8749997615672,                153P    400
25.5000028610229,-48.7499997615895,-38.8749997615699,                153P    401
25.5000028610229,-67.7499997615895,-38.8749997615699,                153P    402
10.5000028610229,-42.7499997615895,-70.8749997615672,                153P    403
10.5000028610229,-73.7499997615895,-70.8749997615672,                153P    404
17.0000028610229,-55.7499997615895,-70.8749997615672,                153P    405
17.0000028610229,-65.7499997615895,-70.8749997615672,                153P    406
36.5000028610229,-73.7499997615895,-29.8749997615699,                153P    407
36.5000028610229,-42.7499997615895,-29.8749997615726,                153P    408
36.5000028610229,-73.7499997615895,-79.8749997615672,                153P    409
36.5000028610229,-42.7499997615895,-79.8749997615672,                153P    410
36.5000028610229,-67.7499997615895,-38.8749997615699,                153P    411
36.5000028610229,-48.7499997615895,-38.8749997615699,                153P    412
10.5000028610229,-73.7499997615895,-79.8749997615672,                153P    413
17.0000028610229,-65.7499997615895,-79.8749997615672,                153P    414
17.0000028610229,-55.7499997615895,-79.8749997615672,                153P    415
10.5000028610229,-42.7499997615895,-79.8749997615672;                153P    416
504,30,69,153,1,153,2,71,153,2,153,3,73,153,3,153,4,75,153,1,        155P    417
153,4,77,153,5,153,5,79,153,6,153,6,81,153,7,153,4,83,153,8,153,     155P    418
7,85,153,1,153,8,87,153,9,153,9,89,153,10,153,10,91,153,11,153,      155P    419
12,93,153,13,153,11,95,153,14,153,13,97,153,12,153,14,99,153,15,     155P    420
153,15,101,153,16,153,16,103,153,11,153,2,105,153,8,153,17,107,      155P    421
153,13,153,17,109,153,12,153,3,111,153,18,153,18,113,153,18,153,     155P    422
10,115,153,19,153,19,117,153,19,153,9,119,153,17,153,20,121,153,     155P    423
20,153,14,123,153,7,153,20,125,153,6,153,15,127,153,5,153,16;        155P    424
406,1,5HBody1;                                                       157P    425
314,62.7450980392157,62.7450980392157,62.7450980392157,13HSteel      159P    426
- Satin;                                                             159P    427
S      1G      2D    160P    427                                        T      1
