                                                                        S      1
,,15HXY_Idler_Left_2,15HXY_Idler_Left_2,7Hunknown,7Hunknown,32,38,7,99, G      1
15,,1.,2,2HMM,1,0.08,15H20150214.154501,0.01,10000.,7Hunknown,7Hunknown,G      2
11,0,;                                                                  G      3
     186       1                                                00000000D      1
     186             -51       1       0                               0D      2
     514       2                                                00010000D      3
     514                       1       1                               0D      4
     510       3                                                00010000D      5
     510             -51       1       1                               0D      6
     510       4                                                00010000D      7
     510             -51       1       1                               0D      8
     510       5                                                00010000D      9
     510             -51       1       1                               0D     10
     510       6                                                00010000D     11
     510             -51       1       1                               0D     12
     508       7                                                00010000D     13
     508                       1       1                               0D     14
     508       8                                                00010000D     15
     508                       1       1                               0D     16
     508       9                                                00010000D     17
     508                       1       1                               0D     18
     508      10                                                00010000D     19
     508                       1       1                               0D     20
     508      11                                                00010000D     21
     508                       1       1                               0D     22
     508      12                                                00010000D     23
     508                       1       1                               0D     24
     126      13                                                00010000D     25
     126       0              15       0                               0D     26
     126      28                                                00010000D     27
     126       0               5       0                               0D     28
     126      33                                                00010000D     29
     126       0              15       0                               0D     30
     126      48                                                00010000D     31
     126       0              15       0                               0D     32
     126      63                                                00010000D     33
     126       0               5       0                               0D     34
     126      68                                                00010000D     35
     126       0              15       0                               0D     36
     128      83                                                00010000D     37
     128       0     -51      28       0                               0D     38
     128     111                                                00010000D     39
     128       0     -51      28       0                               0D     40
     128     139                                                00010000D     41
     128       0     -51       6       0                               0D     42
     128     145                                                00010000D     43
     128       0     -51       6       0                               0D     44
     502     151                                                00010000D     45
     502                       4       1                               0D     46
     504     155                                                00010001D     47
     504                       2       1                               0D     48
     406     157                                                00000000D     49
     406                       1      15                               0D     50
     314     158                                                00000200D     51
     314                       2       0                               0D     52
186,3,1,0,0,1,49;                                                      1P      1
514,4,5,1,7,1,9,1,11,1;                                                3P      2
510,37,1,1,13;                                                         5P      3
510,39,1,1,15;                                                         7P      4
510,41,2,1,17,19;                                                      9P      5
510,43,2,1,21,23;                                                     11P      6
508,4,0,47,1,0,0,0,47,2,1,0,0,47,3,0,0,0,47,2,0,0;                    13P      7
508,4,0,47,4,0,0,0,47,5,1,0,0,47,6,1,0,0,47,5,0,0;                    15P      8
508,1,0,47,1,1,0;                                                     17P      9
508,1,0,47,4,1,0;                                                     19P     10
508,1,0,47,3,1,0;                                                     21P     11
508,1,0,47,6,0,0;                                                     23P     12
126,8,2,0,1,0,0,-3.14159265358979,-3.14159265358979,                  25P     13
-3.14159265358979,-1.5707963267949,-1.5707963267949,0.,0.,            25P     14
1.5707963267949,1.5707963267949,3.14159265358979,                     25P     15
3.14159265358979,3.14159265358979,1.,0.707106781186546,1.,            25P     16
0.707106781186546,1.,0.707106781186546,1.,0.707106781186546,1.,       25P     17
65.3591888150007,28.1883184574946,-5.54750655723971,                  25P     18
65.3591888150007,20.6883184574946,-5.54750655723971,                  25P     19
57.8591888150007,20.6883184574946,-5.54750655723971,                  25P     20
50.3591888150007,20.6883184574946,-5.54750655723971,                  25P     21
50.3591888150007,28.1883184574946,-5.54750655723971,                  25P     22
50.3591888150007,35.6883184574946,-5.54750655723971,                  25P     23
57.8591888150007,35.6883184574946,-5.54750655723971,                  25P     24
65.3591888150007,35.6883184574946,-5.54750655723971,                  25P     25
65.3591888150007,28.1883184574946,-5.54750655723971,                  25P     26
-3.14159265358979,3.14159265358979,0.,0.,0.;                          25P     27
126,1,1,0,0,1,0,-4.35983562251079D-18,-4.35983562251079D-18,          27P     28
1.73333333333333,1.73333333333333,1.,1.,65.3591888150007,             27P     29
28.1883184574946,-5.54750655723971,65.3591888150007,                  27P     30
28.1883184574946,7.45249344276029,-4.35983562251079D-18,              27P     31
1.73333333333333,0.,0.,0.;                                            27P     32
126,8,2,0,1,0,0,-3.14159265358979,-3.14159265358979,                  29P     33
-3.14159265358979,-1.5707963267949,-1.5707963267949,0.,0.,            29P     34
1.5707963267949,1.5707963267949,3.14159265358979,                     29P     35
3.14159265358979,3.14159265358979,1.,0.707106781186546,1.,            29P     36
0.707106781186546,1.,0.707106781186546,1.,0.707106781186546,1.,       29P     37
65.3591888150007,28.1883184574946,7.45249344276029,                   29P     38
65.3591888150007,35.6883184574946,7.45249344276029,                   29P     39
57.8591888150007,35.6883184574946,7.45249344276029,                   29P     40
50.3591888150007,35.6883184574946,7.45249344276029,                   29P     41
50.3591888150007,28.1883184574946,7.45249344276029,                   29P     42
50.3591888150007,20.6883184574946,7.45249344276029,                   29P     43
57.8591888150007,20.6883184574946,7.45249344276029,                   29P     44
65.3591888150007,20.6883184574946,7.45249344276029,                   29P     45
65.3591888150007,28.1883184574946,7.45249344276029,                   29P     46
-3.14159265358979,3.14159265358979,0.,0.,0.;                          29P     47
126,8,2,0,1,0,0,-3.14159265358979,-3.14159265358979,                  31P     48
-3.14159265358979,-1.5707963267949,-1.5707963267949,0.,0.,            31P     49
1.5707963267949,1.5707963267949,3.14159265358979,                     31P     50
3.14159265358979,3.14159265358979,1.,0.70710678118655,1.,             31P     51
0.70710678118655,1.,0.70710678118655,1.,0.70710678118655,1.,          31P     52
63.3591888150007,28.1883184574946,-5.54750655723971,                  31P     53
63.3591888150007,33.6883184574946,-5.54750655723971,                  31P     54
57.8591888150007,33.6883184574946,-5.54750655723971,                  31P     55
52.3591888150007,33.6883184574946,-5.54750655723971,                  31P     56
52.3591888150007,28.1883184574946,-5.54750655723971,                  31P     57
52.3591888150007,22.6883184574946,-5.54750655723971,                  31P     58
57.8591888150007,22.6883184574946,-5.54750655723971,                  31P     59
63.3591888150007,22.6883184574946,-5.54750655723971,                  31P     60
63.3591888150007,28.1883184574946,-5.54750655723971,                  31P     61
-3.14159265358979,3.14159265358979,0.,0.,0.;                          31P     62
126,1,1,0,0,1,0,-2.36363636363636,-2.36363636363636,                  33P     63
2.62486895529168D-17,2.62486895529168D-17,1.,1.,                      33P     64
63.3591888150007,28.1883184574946,-5.54750655723971,                  33P     65
63.3591888150007,28.1883184574946,7.45249344276029,                   33P     66
-2.36363636363636,2.62486895529168D-17,0.,0.,0.;                      33P     67
126,8,2,0,1,0,0,-3.14159265358979,-3.14159265358979,                  35P     68
-3.14159265358979,-1.5707963267949,-1.5707963267949,0.,0.,            35P     69
1.5707963267949,1.5707963267949,3.14159265358979,                     35P     70
3.14159265358979,3.14159265358979,1.,0.70710678118655,1.,             35P     71
0.70710678118655,1.,0.70710678118655,1.,0.70710678118655,1.,          35P     72
63.3591888150007,28.1883184574946,7.45249344276029,                   35P     73
63.3591888150007,33.6883184574946,7.45249344276029,                   35P     74
57.8591888150007,33.6883184574946,7.45249344276029,                   35P     75
52.3591888150007,33.6883184574946,7.45249344276029,                   35P     76
52.3591888150007,28.1883184574946,7.45249344276029,                   35P     77
52.3591888150007,22.6883184574946,7.45249344276029,                   35P     78
57.8591888150007,22.6883184574946,7.45249344276029,                   35P     79
63.3591888150007,22.6883184574946,7.45249344276029,                   35P     80
63.3591888150007,28.1883184574946,7.45249344276029,                   35P     81
-3.14159265358979,3.14159265358979,0.,0.,0.;                          35P     82
128,1,8,1,2,0,1,0,0,1,-4.35983562251079D-18,                          37P     83
-4.35983562251079D-18,1.73333333333333,1.73333333333333,              37P     84
-3.14159265358979,-3.14159265358979,-3.14159265358979,                37P     85
-1.5707963267949,-1.5707963267949,0.,0.,1.5707963267949,              37P     86
1.5707963267949,3.14159265358979,3.14159265358979,                    37P     87
3.14159265358979,1.,1.,0.707106781186548,0.707106781186548,1.,        37P     88
1.,0.707106781186548,0.707106781186548,1.,1.,0.707106781186548,       37P     89
0.707106781186548,1.,1.,0.707106781186548,0.707106781186548,1.,       37P     90
1.,65.3591888150007,28.1883184574946,7.45249344276029,                37P     91
65.3591888150007,28.1883184574946,-5.54750655723971,                  37P     92
65.3591888150007,35.6883184574946,7.45249344276029,                   37P     93
65.3591888150007,35.6883184574946,-5.54750655723971,                  37P     94
57.8591888150007,35.6883184574946,7.45249344276029,                   37P     95
57.8591888150007,35.6883184574946,-5.54750655723971,                  37P     96
50.3591888150007,35.6883184574946,7.45249344276029,                   37P     97
50.3591888150007,35.6883184574946,-5.54750655723971,                  37P     98
50.3591888150007,28.1883184574946,7.45249344276029,                   37P     99
50.3591888150007,28.1883184574946,-5.54750655723971,                  37P    100
50.3591888150007,20.6883184574946,7.45249344276029,                   37P    101
50.3591888150007,20.6883184574946,-5.54750655723971,                  37P    102
57.8591888150007,20.6883184574946,7.45249344276029,                   37P    103
57.8591888150007,20.6883184574946,-5.54750655723971,                  37P    104
65.3591888150007,20.6883184574946,7.45249344276029,                   37P    105
65.3591888150007,20.6883184574946,-5.54750655723971,                  37P    106
65.3591888150007,28.1883184574946,7.45249344276029,                   37P    107
65.3591888150007,28.1883184574946,-5.54750655723971,                  37P    108
-4.35983562251079D-18,1.73333333333333,-3.14159265358979,             37P    109
3.14159265358979;                                                     37P    110
128,1,8,1,2,0,1,0,0,1,-2.62486895529168D-17,                          39P    111
-2.62486895529168D-17,2.36363636363636,2.36363636363636,              39P    112
-3.14159265358979,-3.14159265358979,-3.14159265358979,                39P    113
-1.5707963267949,-1.5707963267949,0.,0.,1.5707963267949,              39P    114
1.5707963267949,3.14159265358979,3.14159265358979,                    39P    115
3.14159265358979,1.,1.,0.707106781186548,0.707106781186548,1.,        39P    116
1.,0.707106781186548,0.707106781186548,1.,1.,0.707106781186548,       39P    117
0.707106781186548,1.,1.,0.707106781186548,0.707106781186548,1.,       39P    118
1.,63.3591888150007,28.1883184574946,7.45249344276029,                39P    119
63.3591888150007,28.1883184574946,-5.54750655723971,                  39P    120
63.3591888150007,22.6883184574946,7.45249344276029,                   39P    121
63.3591888150007,22.6883184574946,-5.54750655723971,                  39P    122
57.8591888150007,22.6883184574946,7.45249344276029,                   39P    123
57.8591888150007,22.6883184574946,-5.54750655723971,                  39P    124
52.3591888150007,22.6883184574946,7.45249344276029,                   39P    125
52.3591888150007,22.6883184574946,-5.54750655723971,                  39P    126
52.3591888150007,28.1883184574946,7.45249344276029,                   39P    127
52.3591888150007,28.1883184574946,-5.54750655723971,                  39P    128
52.3591888150007,33.6883184574946,7.45249344276029,                   39P    129
52.3591888150007,33.6883184574946,-5.54750655723971,                  39P    130
57.8591888150007,33.6883184574946,7.45249344276029,                   39P    131
57.8591888150007,33.6883184574946,-5.54750655723971,                  39P    132
63.3591888150007,33.6883184574946,7.45249344276029,                   39P    133
63.3591888150007,33.6883184574946,-5.54750655723971,                  39P    134
63.3591888150007,28.1883184574946,7.45249344276029,                   39P    135
63.3591888150007,28.1883184574946,-5.54750655723971,                  39P    136
-2.62486895529168D-17,2.36363636363636,-3.14159265358979,             39P    137
3.14159265358979;                                                     39P    138
128,1,1,1,1,0,0,1,0,0,-0.75,-0.75,0.75,0.75,-0.75,-0.75,0.75,         41P    139
0.75,1.,1.,1.,1.,65.3591888150007,20.6883184574946,                   41P    140
-5.54750655723971,50.3591888150007,20.6883184574946,                  41P    141
-5.54750655723971,65.3591888150007,35.6883184574946,                  41P    142
-5.54750655723971,50.3591888150007,35.6883184574946,                  41P    143
-5.54750655723971,-0.75,0.75,-0.75,0.75;                              41P    144
128,1,1,1,1,0,0,1,0,0,-0.75,-0.75,0.75,0.75,-0.75,-0.75,0.75,         43P    145
0.75,1.,1.,1.,1.,50.3591888150007,20.6883184574946,                   43P    146
7.45249344276029,65.3591888150007,20.6883184574946,                   43P    147
7.45249344276029,50.3591888150007,35.6883184574946,                   43P    148
7.45249344276029,65.3591888150007,35.6883184574946,                   43P    149
7.45249344276029,-0.75,0.75,-0.75,0.75;                               43P    150
502,4,65.3591888150007,28.1883184574946,-5.54750655723971,            45P    151
65.3591888150007,28.1883184574946,7.45249344276029,                   45P    152
63.3591888150007,28.1883184574946,-5.54750655723971,                  45P    153
63.3591888150007,28.1883184574946,7.45249344276029;                   45P    154
504,6,25,45,1,45,1,27,45,1,45,2,29,45,2,45,2,31,45,3,45,3,33,45,      47P    155
3,45,4,35,45,4,45,4;                                                  47P    156
406,1,5HBody1;                                                        49P    157
314,62.7450980392157,62.7450980392157,62.7450980392157,13HSteel       51P    158
- Satin;                                                              51P    159
S      1G      3D     52P    159                                        T      1
