                                                                        S      1
,,10HY_End_Stop,10HY_End_Stop,7Hunknown,7Hunknown,32,38,7,99,15,,1.,2,2HG      1
MM,1,0.08,15H20150214.160846,0.01,10000.,7Hunknown,7Hunknown,11,0,;     G      2
     408       1                                       5        00010001D      1
     408       0               1       0                               0D      2
     408       2                                                00000001D      3
     408       0               1       0                               0D      4
     124       3                                                00000000D      5
     124                       1       0                               0D      6
     308       4                                                00010200D      7
     308       0               1       0                               0D      8
     308       5                                                00010200D      9
     308       0               1       0                               0D     10
     186       6                                                00010000D     11
     186                       1       0                               0D     12
     514       7                                                00010000D     13
     514                       2       1                               0D     14
     510       9                                                00010000D     15
     510                       1       1                               0D     16
     510      10                                                00010000D     17
     510                       1       1                               0D     18
     510      11                                                00010000D     19
     510                       1       1                               0D     20
     510      12                                                00010000D     21
     510                       1       1                               0D     22
     510      13                                                00010000D     23
     510                       1       1                               0D     24
     510      14                                                00010000D     25
     510                       1       1                               0D     26
     510      15                                                00010000D     27
     510                       1       1                               0D     28
     510      16                                                00010000D     29
     510                       1       1                               0D     30
     510      17                                                00010000D     31
     510                       1       1                               0D     32
     510      18                                                00010000D     33
     510                       1       1                               0D     34
     510      19                                                00010000D     35
     510                       1       1                               0D     36
     510      20                                                00010000D     37
     510                       1       1                               0D     38
     510      21                                                00010000D     39
     510                       1       1                               0D     40
     510      22                                                00010000D     41
     510                       1       1                               0D     42
     510      23                                                00010000D     43
     510                       1       1                               0D     44
     510      24                                                00010000D     45
     510                       1       1                               0D     46
     508      25                                                00010000D     47
     508                       1       1                               0D     48
     508      26                                                00010000D     49
     508                       2       1                               0D     50
     508      28                                                00010000D     51
     508                       1       1                               0D     52
     508      29                                                00010000D     53
     508                       1       1                               0D     54
     508      30                                                00010000D     55
     508                       1       1                               0D     56
     508      31                                                00010000D     57
     508                       1       1                               0D     58
     508      32                                                00010000D     59
     508                       1       1                               0D     60
     508      33                                                00010000D     61
     508                       1       1                               0D     62
     508      34                                                00010000D     63
     508                       1       1                               0D     64
     508      35                                                00010000D     65
     508                       1       1                               0D     66
     508      36                                                00010000D     67
     508                       1       1                               0D     68
     508      37                                                00010000D     69
     508                       1       1                               0D     70
     508      38                                                00010000D     71
     508                       1       1                               0D     72
     508      39                                                00010000D     73
     508                       1       1                               0D     74
     508      40                                                00010000D     75
     508                       1       1                               0D     76
     508      41                                                00010000D     77
     508                       1       1                               0D     78
     508      42                                                00010000D     79
     508                       1       1                               0D     80
     508      43                                                00010000D     81
     508                       1       1                               0D     82
     508      44                                                00010000D     83
     508                       1       1                               0D     84
     508      45                                                00010000D     85
     508                       2       1                               0D     86
     508      47                                                00010000D     87
     508                       1       1                               0D     88
     508      48                                                00010000D     89
     508                       1       1                               0D     90
     508      49                                                00010000D     91
     508                       1       1                               0D     92
     508      50                                                00010000D     93
     508                       1       1                               0D     94
     508      51                                                00010000D     95
     508                       1       1                               0D     96
     508      52                                                00010000D     97
     508                       1       1                               0D     98
     126      53                                                00010000D     99
     126       0               3       0                               0D    100
     126      56                                                00010000D    101
     126       0               4       0                               0D    102
     126      60                                                00010000D    103
     126       0               3       0                               0D    104
     126      63                                                00010000D    105
     126       0               4       0                               0D    106
     126      67                                                00010000D    107
     126       0               3       0                               0D    108
     126      70                                                00010000D    109
     126       0               3       0                               0D    110
     126      73                                                00010000D    111
     126       0               3       0                               0D    112
     126      76                                                00010000D    113
     126       0               3       0                               0D    114
     126      79                                                00010000D    115
     126       0               4       0                               0D    116
     126      83                                                00010000D    117
     126       0              13       0                               0D    118
     126      96                                                00010000D    119
     126       0              13       0                               0D    120
     126     109                                                00010000D    121
     126       0               4       0                               0D    122
     126     113                                                00010000D    123
     126       0               4       0                               0D    124
     126     117                                                00010000D    125
     126       0               3       0                               0D    126
     126     120                                                00010000D    127
     126       0              12       0                               0D    128
     126     132                                                00010000D    129
     126       0              12       0                               0D    130
     126     144                                                00010000D    131
     126       0               3       0                               0D    132
     126     147                                                00010000D    133
     126       0              12       0                               0D    134
     126     159                                                00010000D    135
     126       0              12       0                               0D    136
     126     171                                                00010000D    137
     126       0              12       0                               0D    138
     126     183                                                00010000D    139
     126       0              12       0                               0D    140
     126     195                                                00010000D    141
     126       0              12       0                               0D    142
     126     207                                                00010000D    143
     126       0               3       0                               0D    144
     126     210                                                00010000D    145
     126       0              12       0                               0D    146
     126     222                                                00010000D    147
     126       0               3       0                               0D    148
     126     225                                                00010000D    149
     126       0               3       0                               0D    150
     126     228                                                00010000D    151
     126       0               3       0                               0D    152
     126     231                                                00010000D    153
     126       0              13       0                               0D    154
     126     244                                                00010000D    155
     126       0               3       0                               0D    156
     126     247                                                00010000D    157
     126       0              13       0                               0D    158
     126     260                                                00010000D    159
     126       0               3       0                               0D    160
     126     263                                                00010000D    161
     126       0               3       0                               0D    162
     126     266                                                00010000D    163
     126       0               3       0                               0D    164
     126     269                                                00010000D    165
     126       0               3       0                               0D    166
     126     272                                                00010000D    167
     126       0               3       0                               0D    168
     126     275                                                00010000D    169
     126       0               3       0                               0D    170
     128     278                                                00010000D    171
     128       0               6       0                               0D    172
     128     284                                                00010000D    173
     128       0               5       0                               0D    174
     128     289                                                00010000D    175
     128       0               7       0                               0D    176
     128     296                                                00010000D    177
     128       0               4       0                               0D    178
     128     300                                                00010000D    179
     128       0               7       0                               0D    180
     128     307                                                00010000D    181
     128       0               7       0                               0D    182
     128     314                                                00010000D    183
     128       0              20       0                               0D    184
     128     334                                                00010000D    185
     128       0              20       0                               0D    186
     128     354                                                00010000D    187
     128       0              20       0                               0D    188
     128     374                                                00010000D    189
     128       0              20       0                               0D    190
     128     394                                                00010000D    191
     128       0              22       0                               0D    192
     128     416                                                00010000D    193
     128       0              22       0                               0D    194
     128     438                                                00010000D    195
     128       0               6       0                               0D    196
     128     444                                                00010000D    197
     128       0               5       0                               0D    198
     128     449                                                00010000D    199
     128       0               6       0                               0D    200
     128     455                                                00010000D    201
     128       0               4       0                               0D    202
     502     459                                                00010000D    203
     502                      16       1                               0D    204
     504     475                                                00010001D    205
     504                      10       1                               0D    206
     406     485                                                00000000D    207
     406                       1      15                               0D    208
     406     486                                                00000000D    209
     406                       1      15                               0D    210
     406     487                                                00000000D    211
     406                       1      15                               0D    212
     314     488                                                00000200D    213
     314                       2       0                               0D    214
408,7,0.,0.,0.,1.,0,1,209;                                             1P      1
408,9,0.,0.,0.,1.,0,1,211;                                             3P      2
124,1.,0.,0.,0.,0.,1.,0.,30.,0.,0.,1.,0.;                              5P      3
308,0,10HComponent5,1,11;                                              7P      4
308,1,19HZ-idler-top-left v6,1,1;                                      9P      5
186,13,1,0,0,1,207;                                                   11P      6
514,16,15,1,17,1,19,1,21,1,23,1,25,1,27,1,29,1,31,1,33,1,35,1,        13P      7
37,1,39,1,41,1,43,1,45,1;                                             13P      8
510,171,1,1,47;                                                       15P      9
510,173,3,1,49,51,53;                                                 17P     10
510,175,3,1,55,57,59;                                                 19P     11
510,177,1,1,61;                                                       21P     12
510,179,2,1,63,65;                                                    23P     13
510,181,2,1,67,69;                                                    25P     14
510,183,1,1,71;                                                       27P     15
510,185,1,1,73;                                                       29P     16
510,187,1,1,75;                                                       31P     17
510,189,1,1,77;                                                       33P     18
510,191,1,1,79;                                                       35P     19
510,193,1,1,81;                                                       37P     20
510,195,1,1,83;                                                       39P     21
510,197,3,1,85,87,89;                                                 41P     22
510,199,3,1,91,93,95;                                                 43P     23
510,201,1,1,97;                                                       45P     24
508,4,0,205,1,0,0,0,205,2,0,0,0,205,3,0,0,0,205,4,0,0;                47P     25
508,6,0,205,5,1,0,0,205,4,1,0,0,205,6,0,0,0,205,7,0,0,0,205,8,0,      49P     26
0,0,205,9,1,0;                                                        49P     27
508,1,0,205,10,1,0;                                                   51P     28
508,1,0,205,11,1,0;                                                   53P     29
508,4,0,205,9,0,0,0,205,12,0,0,0,205,13,0,0,0,205,14,0,0;             55P     30
508,1,0,205,15,0,0;                                                   57P     31
508,1,0,205,16,0,0;                                                   59P     32
508,4,0,205,14,1,0,0,205,17,0,0,0,205,1,1,0,0,205,5,0,0;              61P     33
508,1,0,205,18,0,0;                                                   63P     34
508,1,0,205,19,1,0;                                                   65P     35
508,1,0,205,20,0,0;                                                   67P     36
508,1,0,205,21,1,0;                                                   69P     37
508,4,0,205,22,0,0,0,205,23,1,0,0,205,20,1,0,0,205,23,0,0;            71P     38
508,4,0,205,24,0,0,0,205,25,1,0,0,205,18,1,0,0,205,25,0,0;            73P     39
508,4,0,205,21,0,0,0,205,26,1,0,0,205,15,1,0,0,205,26,0,0;            75P     40
508,4,0,205,19,0,0,0,205,27,1,0,0,205,16,1,0,0,205,27,0,0;            77P     41
508,4,0,205,28,0,0,0,205,29,1,0,0,205,10,0,0,0,205,29,0,0;            79P     42
508,4,0,205,30,0,0,0,205,31,1,0,0,205,11,0,0,0,205,31,0,0;            81P     43
508,4,0,205,3,1,0,0,205,32,1,0,0,205,33,1,0,0,205,6,1,0;              83P     44
508,6,0,205,17,1,0,0,205,13,1,0,0,205,34,0,0,0,205,35,1,0,0,205,      85P     45
32,0,0,0,205,2,1,0;                                                   85P     46
508,1,0,205,28,1,0;                                                   87P     47
508,1,0,205,30,1,0;                                                   89P     48
508,4,0,205,36,0,0,0,205,7,1,0,0,205,33,0,0,0,205,35,0,0;             91P     49
508,1,0,205,22,1,0;                                                   93P     50
508,1,0,205,24,1,0;                                                   95P     51
508,4,0,205,12,1,0,0,205,8,1,0,0,205,36,1,0,0,205,34,1,0;             97P     52
126,1,1,0,0,1,0,-0.5,-0.5,1.,1.,1.,1.,22.1500000357628,-60.,          99P     53
62.4380101134509,7.15000003576279,-60.,62.4380101134509,-0.5,1.,      99P     54
0.,0.,0.;                                                             99P     55
126,1,1,0,0,1,0,-3.3052997480578,-3.3052997480578,                   101P     56
-0.784100755826601,-0.784100755826601,1.,1.,22.1500000357628,        101P     57
-60.,87.6500000357629,22.1500000357628,-60.,62.4380101134509,        101P     58
-3.3052997480578,-0.784100755826601,0.,0.,0.;                        101P     59
126,1,1,0,0,1,0,-0.25,-0.25,1.25,1.25,1.,1.,7.1500000357628,         103P     60
-60.,87.6500000357629,22.1500000357628,-60.,87.6500000357629,        103P     61
-0.25,1.25,0.,0.,0.;                                                 103P     62
126,1,1,0,0,1,0,2.3947002519422,2.3947002519422,4.9158992441734,     105P     63
4.9158992441734,1.,1.,7.1500000357628,-60.,62.4380101134509,         105P     64
7.1500000357628,-60.,87.6500000357629,2.3947002519422,               105P     65
4.9158992441734,0.,0.,0.;                                            105P     66
126,1,1,0,0,1,0,-1.3,-1.3,0.25,0.25,1.,1.,7.1500000357628,-75.5,     107P     67
62.4380101134509,7.1500000357628,-60.,62.4380101134509,-1.3,         107P     68
0.25,0.,0.,0.;                                                       107P     69
126,1,1,0,0,1,0,-0.9,-0.9,-0.25,-0.25,1.,1.,7.1500000357628,         109P     70
-53.5,87.6500000357629,7.1500000357628,-60.,87.6500000357629,        109P     71
-0.9,-0.25,0.,0.,0.;                                                 109P     72
126,1,1,0,0,1,0,-3.2211989922312,-3.2211989922312,2.5,2.5,1.,1.,     111P     73
7.15000003576279,-53.5,30.4380101134509,7.1500000357628,-53.5,       111P     74
87.6500000357629,-3.2211989922312,2.5,0.,0.,0.;                      111P     75
126,1,1,0,0,1,0,-1.3,-1.3,0.9,0.9,1.,1.,7.15000003576279,-75.5,      113P     76
30.4380101134509,7.15000003576279,-53.5,30.4380101134509,-1.3,       113P     77
0.9,0.,0.,0.;                                                        113P     78
126,1,1,0,0,1,0,-1.4302997480578,-1.4302997480578,                   115P     79
1.7697002519422,1.7697002519422,1.,1.,7.15000003576279,-75.5,        115P     80
30.4380101134509,7.1500000357628,-75.5,62.4380101134509,             115P     81
-1.4302997480578,1.7697002519422,0.,0.,0.;                           115P     82
126,8,2,0,1,0,0,-3.14159265358979,-3.14159265358979,                 117P     83
-3.14159265358979,-1.5707963267949,-1.5707963267949,0.,0.,           117P     84
1.5707963267949,1.5707963267949,3.14159265358979,                    117P     85
3.14159265358979,3.14159265358979,1.,0.707106781186564,1.,           117P     86
0.707106781186564,1.,0.707106781186564,1.,0.707106781186564,1.,      117P     87
7.1500000357628,-57.5,65.1500000357629,7.1500000357628,              117P     88
-59.0000000000001,65.1500000357629,7.1500000357628,                  117P     89
-59.0000000000001,63.6500000357629,7.1500000357628,                  117P     90
-59.0000000000001,62.1500000357629,7.1500000357628,-57.5,            117P     91
62.1500000357629,7.1500000357628,-56.,62.1500000357629,              117P     92
7.1500000357628,-56.,63.6500000357629,7.1500000357628,-56.,          117P     93
65.1500000357629,7.1500000357628,-57.5,65.1500000357629,             117P     94
-3.14159265358979,3.14159265358979,0.,0.,0.;                         117P     95
126,8,2,0,1,0,0,-3.14159265358979,-3.14159265358979,                 119P     96
-3.14159265358979,-1.5707963267949,-1.5707963267949,0.,0.,           119P     97
1.5707963267949,1.5707963267949,3.14159265358979,                    119P     98
3.14159265358979,3.14159265358979,1.,0.707106781186547,1.,           119P     99
0.707106781186547,1.,0.707106781186547,1.,0.707106781186547,1.,      119P    100
7.1500000357628,-57.5,84.1500000357629,7.1500000357628,              119P    101
-59.0000000000001,84.1500000357629,7.1500000357628,                  119P    102
-59.0000000000001,82.6500000357629,7.1500000357628,                  119P    103
-59.0000000000001,81.1500000357629,7.1500000357628,-57.5,            119P    104
81.1500000357629,7.1500000357628,-56.,81.1500000357629,              119P    105
7.1500000357628,-56.,82.6500000357629,7.1500000357628,-56.,          119P    106
84.1500000357629,7.1500000357628,-57.5,84.1500000357629,             119P    107
-3.14159265358979,3.14159265358979,0.,0.,0.;                         119P    108
126,1,1,0,0,1,0,-0.625000000000001,-0.625000000000001,               121P    109
0.874999999999999,0.874999999999999,1.,1.,22.1500000357628,          121P    110
-75.5,30.4380101134509,7.15000003576279,-75.5,30.4380101134509,      121P    111
-0.625000000000001,0.874999999999999,0.,0.,0.;                       121P    112
126,1,1,0,0,1,0,-0.159100755826601,-0.159100755826601,               123P    113
3.0408992441734,3.0408992441734,1.,1.,22.1500000357628,-75.5,        123P    114
62.4380101134509,22.1500000357628,-75.5,30.4380101134509,            123P    115
-0.159100755826601,3.0408992441734,0.,0.,0.;                         123P    116
126,1,1,0,0,1,0,-1.125,-1.125,0.375,0.375,1.,1.,7.1500000357628,     125P    117
-75.5,62.4380101134509,22.1500000357628,-75.5,62.4380101134509,      125P    118
-1.125,0.375,0.,0.,0.;                                               125P    119
126,8,2,0,1,0,0,-3.14159265358979,-3.14159265358979,                 127P    120
-3.14159265358979,-1.5707963267949,-1.5707963267949,0.,0.,           127P    121
1.5707963267949,1.5707963267949,3.14159265358979,                    127P    122
3.14159265358979,3.14159265358979,1.,0.707106781186541,1.,           127P    123
0.707106781186541,1.,0.707106781186541,1.,0.707106781186541,1.,      127P    124
14.1500000357628,-75.5,51.6500000357629,14.1500000357628,-75.5,      127P    125
53.6500000357629,12.1500000357628,-75.5,53.6500000357629,            127P    126
10.1500000357628,-75.5,53.6500000357629,10.1500000357628,-75.5,      127P    127
51.6500000357629,10.1500000357628,-75.5,49.6500000357629,            127P    128
12.1500000357628,-75.5,49.6500000357629,14.1500000357628,-75.5,      127P    129
49.6500000357629,14.1500000357628,-75.5,51.6500000357629,            127P    130
-3.14159265358979,3.14159265358979,0.,0.,0.;                         127P    131
126,8,2,0,1,0,0,-3.14159265358979,-3.14159265358979,                 129P    132
-3.14159265358979,-1.5707963267949,-1.5707963267949,0.,0.,           129P    133
1.5707963267949,1.5707963267949,3.14159265358979,                    129P    134
3.14159265358979,3.14159265358979,1.,0.707106781186548,1.,           129P    135
0.707106781186541,1.,0.707106781186541,1.,0.707106781186548,1.,      129P    136
14.1500000357628,-75.5,35.4380101134509,14.1500000357628,-75.5,      129P    137
37.4380101134509,12.1500000357628,-75.5,37.4380101134509,            129P    138
10.1500000357628,-75.5,37.4380101134509,10.1500000357628,-75.5,      129P    139
35.4380101134509,10.1500000357628,-75.5,33.4380101134509,            129P    140
12.1500000357628,-75.5,33.4380101134509,14.1500000357628,-75.5,      129P    141
33.4380101134509,14.1500000357628,-75.5,35.4380101134509,            129P    142
-3.14159265358979,3.14159265358979,0.,0.,0.;                         129P    143
126,1,1,0,0,1,0,-0.25,-0.25,1.3,1.3,1.,1.,22.1500000357628,-60.,     131P    144
62.4380101134509,22.1500000357628,-75.5,62.4380101134509,-0.25,      131P    145
1.3,0.,0.,0.;                                                        131P    146
126,8,2,0,1,0,0,-3.14159265358979,-3.14159265358979,                 133P    147
-3.14159265358979,-1.5707963267949,-1.5707963267949,0.,0.,           133P    148
1.5707963267949,1.5707963267949,3.14159265358979,                    133P    149
3.14159265358979,3.14159265358979,1.,0.707106781186549,1.,           133P    150
0.707106781186549,1.,0.707106781186549,1.,0.707106781186549,1.,      133P    151
15.1500000357628,-66.5,35.4380101134509,15.1500000357628,-66.5,      133P    152
38.4380101134509,12.1500000357628,-66.5,38.4380101134509,            133P    153
9.1500000357628,-66.5,38.4380101134509,9.1500000357628,-66.5,        133P    154
35.4380101134509,9.1500000357628,-66.5,32.4380101134509,             133P    155
12.1500000357628,-66.5,32.4380101134509,15.1500000357628,-66.5,      133P    156
32.4380101134509,15.1500000357628,-66.5,35.4380101134509,            133P    157
-3.14159265358979,3.14159265358979,0.,0.,0.;                         133P    158
126,8,2,0,1,0,0,-3.14159265358979,-3.14159265358979,                 135P    159
-3.14159265358979,-1.5707963267949,-1.5707963267949,0.,0.,           135P    160
1.5707963267949,1.5707963267949,3.14159265358979,                    135P    161
3.14159265358979,3.14159265358979,1.,0.707106781186548,1.,           135P    162
0.707106781186541,1.,0.707106781186541,1.,0.707106781186548,1.,      135P    163
14.1500000357628,-66.5,35.4380101134509,14.1500000357628,-66.5,      135P    164
37.4380101134509,12.1500000357628,-66.5,37.4380101134509,            135P    165
10.1500000357628,-66.5,37.4380101134509,10.1500000357628,-66.5,      135P    166
35.4380101134509,10.1500000357628,-66.5,33.4380101134509,            135P    167
12.1500000357628,-66.5,33.4380101134509,14.1500000357628,-66.5,      135P    168
33.4380101134509,14.1500000357628,-66.5,35.4380101134509,            135P    169
-3.14159265358979,3.14159265358979,0.,0.,0.;                         135P    170
126,8,2,0,1,0,0,-3.14159265358979,-3.14159265358979,                 137P    171
-3.14159265358979,-1.5707963267949,-1.5707963267949,0.,0.,           137P    172
1.5707963267949,1.5707963267949,3.14159265358979,                    137P    173
3.14159265358979,3.14159265358979,1.,0.707106781186553,1.,           137P    174
0.707106781186544,1.,0.707106781186544,1.,0.707106781186553,1.,      137P    175
15.1500000357628,-66.5,51.6500000357629,15.1500000357628,-66.5,      137P    176
54.6500000357629,12.1500000357628,-66.5,54.6500000357629,            137P    177
9.1500000357628,-66.5,54.6500000357629,9.1500000357628,-66.5,        137P    178
51.6500000357629,9.1500000357628,-66.5,48.6500000357629,             137P    179
12.1500000357628,-66.5,48.6500000357629,15.1500000357628,-66.5,      137P    180
48.6500000357629,15.1500000357628,-66.5,51.6500000357629,            137P    181
-3.14159265358979,3.14159265358979,0.,0.,0.;                         137P    182
126,8,2,0,1,0,0,-3.14159265358979,-3.14159265358979,                 139P    183
-3.14159265358979,-1.5707963267949,-1.5707963267949,0.,0.,           139P    184
1.5707963267949,1.5707963267949,3.14159265358979,                    139P    185
3.14159265358979,3.14159265358979,1.,0.707106781186541,1.,           139P    186
0.707106781186541,1.,0.707106781186541,1.,0.707106781186541,1.,      139P    187
14.1500000357628,-66.5,51.6500000357629,14.1500000357628,-66.5,      139P    188
53.6500000357629,12.1500000357628,-66.5,53.6500000357629,            139P    189
10.1500000357628,-66.5,53.6500000357629,10.1500000357628,-66.5,      139P    190
51.6500000357629,10.1500000357628,-66.5,49.6500000357629,            139P    191
12.1500000357628,-66.5,49.6500000357629,14.1500000357628,-66.5,      139P    192
49.6500000357629,14.1500000357628,-66.5,51.6500000357629,            139P    193
-3.14159265358979,3.14159265358979,0.,0.,0.;                         139P    194
126,8,2,0,1,0,0,-3.14159265358979,-3.14159265358979,                 141P    195
-3.14159265358979,-1.5707963267949,-1.5707963267949,0.,0.,           141P    196
1.5707963267949,1.5707963267949,3.14159265358979,                    141P    197
3.14159265358979,3.14159265358979,1.,0.707106781186553,1.,           141P    198
0.707106781186544,1.,0.707106781186544,1.,0.707106781186553,1.,      141P    199
15.1500000357628,-53.5,51.6500000357629,15.1500000357628,-53.5,      141P    200
54.6500000357629,12.1500000357628,-53.5,54.6500000357629,            141P    201
9.1500000357628,-53.5,54.6500000357629,9.1500000357628,-53.5,        141P    202
51.6500000357629,9.1500000357628,-53.5,48.6500000357629,             141P    203
12.1500000357628,-53.5,48.6500000357629,15.1500000357628,-53.5,      141P    204
48.6500000357629,15.1500000357628,-53.5,51.6500000357629,            141P    205
-3.14159265358979,3.14159265358979,0.,0.,0.;                         141P    206
126,1,1,0,0,1,0,0.,0.,4.33333333333333,4.33333333333333,1.,1.,       143P    207
15.1500000357628,-53.5,51.6500000357629,15.1500000357628,-66.5,      143P    208
51.6500000357629,0.,4.33333333333333,0.,0.,0.;                       143P    209
126,8,2,0,1,0,0,-3.14159265358979,-3.14159265358979,                 145P    210
-3.14159265358979,-1.5707963267949,-1.5707963267949,0.,0.,           145P    211
1.5707963267949,1.5707963267949,3.14159265358979,                    145P    212
3.14159265358979,3.14159265358979,1.,0.707106781186549,1.,           145P    213
0.707106781186549,1.,0.707106781186549,1.,0.707106781186549,1.,      145P    214
15.1500000357628,-53.5,35.4380101134509,15.1500000357628,-53.5,      145P    215
38.4380101134509,12.1500000357628,-53.5,38.4380101134509,            145P    216
9.1500000357628,-53.5,38.4380101134509,9.1500000357628,-53.5,        145P    217
35.4380101134509,9.1500000357628,-53.5,32.4380101134509,             145P    218
12.1500000357628,-53.5,32.4380101134509,15.1500000357628,-53.5,      145P    219
32.4380101134509,15.1500000357628,-53.5,35.4380101134509,            145P    220
-3.14159265358979,3.14159265358979,0.,0.,0.;                         145P    221
126,1,1,0,0,1,0,0.,0.,4.33333333333333,4.33333333333333,1.,1.,       147P    222
15.1500000357628,-53.5,35.4380101134509,15.1500000357628,-66.5,      147P    223
35.4380101134509,0.,4.33333333333333,0.,0.,0.;                       147P    224
126,1,1,0,0,1,0,6.5,6.5,11.,11.,1.,1.,14.1500000357628,-66.5,        149P    225
51.6500000357629,14.1500000357628,-75.5,51.6500000357629,6.5,        149P    226
11.,0.,0.,0.;                                                        149P    227
126,1,1,0,0,1,0,6.5,6.5,11.,11.,1.,1.,14.1500000357628,-66.5,        151P    228
35.4380101134509,14.1500000357628,-75.5,35.4380101134509,6.5,        151P    229
11.,0.,0.,0.;                                                        151P    230
126,8,2,0,1,0,0,-3.14159265358979,-3.14159265358979,                 153P    231
-3.14159265358979,-1.5707963267949,-1.5707963267949,0.,0.,           153P    232
1.5707963267949,1.5707963267949,3.14159265358979,                    153P    233
3.14159265358979,3.14159265358979,1.,0.707106781186564,1.,           153P    234
0.707106781186564,1.,0.707106781186564,1.,0.707106781186564,1.,      153P    235
22.1500000357628,-57.5,65.1500000357629,22.1500000357628,-56.,       153P    236
65.1500000357629,22.1500000357628,-56.,63.6500000357629,             153P    237
22.1500000357628,-56.,62.1500000357629,22.1500000357628,-57.5,       153P    238
62.1500000357629,22.1500000357628,-59.0000000000001,                 153P    239
62.1500000357629,22.1500000357628,-59.0000000000001,                 153P    240
63.6500000357629,22.1500000357628,-59.0000000000001,                 153P    241
65.1500000357629,22.1500000357628,-57.5,65.1500000357629,            153P    242
-3.14159265358979,3.14159265358979,0.,0.,0.;                         153P    243
126,1,1,0,0,1,0,0.,0.,9.99999999999998,9.99999999999998,1.,1.,       155P    244
22.1500000357628,-57.5,65.1500000357629,7.1500000357628,-57.5,       155P    245
65.1500000357629,0.,9.99999999999998,0.,0.,0.;                       155P    246
126,8,2,0,1,0,0,-3.14159265358979,-3.14159265358979,                 157P    247
-3.14159265358979,-1.5707963267949,-1.5707963267949,0.,0.,           157P    248
1.5707963267949,1.5707963267949,3.14159265358979,                    157P    249
3.14159265358979,3.14159265358979,1.,0.707106781186547,1.,           157P    250
0.707106781186547,1.,0.707106781186547,1.,0.707106781186547,1.,      157P    251
22.1500000357628,-57.5,84.1500000357629,22.1500000357628,-56.,       157P    252
84.1500000357629,22.1500000357628,-56.,82.6500000357629,             157P    253
22.1500000357628,-56.,81.1500000357629,22.1500000357628,-57.5,       157P    254
81.1500000357629,22.1500000357628,-59.0000000000001,                 157P    255
81.1500000357629,22.1500000357628,-59.0000000000001,                 157P    256
82.6500000357629,22.1500000357628,-59.0000000000001,                 157P    257
84.1500000357629,22.1500000357628,-57.5,84.1500000357629,            157P    258
-3.14159265358979,3.14159265358979,0.,0.,0.;                         157P    259
126,1,1,0,0,1,0,0.,0.,9.99999999999998,9.99999999999998,1.,1.,       159P    260
22.1500000357628,-57.5,84.1500000357629,7.1500000357628,-57.5,       159P    261
84.1500000357629,0.,9.99999999999998,0.,0.,0.;                       159P    262
126,1,1,0,0,1,0,0.25,0.25,0.9,0.9,1.,1.,22.1500000357628,-60.,       161P    263
87.6500000357629,22.1500000357628,-53.5,87.6500000357629,0.25,       161P    264
0.9,0.,0.,0.;                                                        161P    265
126,1,1,0,0,1,0,-0.5,-0.5,1.,1.,1.,1.,22.1500000357628,-53.5,        163P    266
87.6500000357629,7.1500000357628,-53.5,87.6500000357629,-0.5,1.,     163P    267
0.,0.,0.;                                                            163P    268
126,1,1,0,0,1,0,-0.9,-0.9,1.3,1.3,1.,1.,22.1500000357628,-53.5,      165P    269
30.4380101134509,22.1500000357628,-75.5,30.4380101134509,-0.9,       165P    270
1.3,0.,0.,0.;                                                        165P    271
126,1,1,0,0,1,0,0.,0.,5.7211989922312,5.7211989922312,1.,1.,         167P    272
22.1500000357628,-53.5,30.4380101134509,22.1500000357628,-53.5,      167P    273
87.6500000357629,0.,5.7211989922312,0.,0.,0.;                        167P    274
126,1,1,0,0,1,0,-1.,-1.,0.5,0.5,1.,1.,7.15000003576279,-53.5,        169P    275
30.4380101134509,22.1500000357628,-53.5,30.4380101134509,-1.,        169P    276
0.5,0.,0.,0.;                                                        169P    277
128,1,1,1,1,0,0,1,0,0,1.5894005038844,1.5894005038844,               171P    278
4.1105994961156,4.1105994961156,-0.5,-0.5,1.,1.,1.,1.,1.,1.,         171P    279
7.15000003576279,-60.,87.6500000357629,7.15000003576279,-60.,        171P    280
62.4380101134509,22.1500000357628,-60.,87.6500000357629,             171P    281
22.1500000357628,-60.,62.4380101134509,1.5894005038844,              171P    282
4.1105994961156,-0.5,1.;                                             171P    283
128,1,1,1,1,0,0,1,0,0,0.,0.,5.7211989922312,5.7211989922312,         173P    284
-1.3,-1.3,0.9,0.9,1.,1.,1.,1.,7.15000003576279,-75.5,                173P    285
30.4380101134509,7.1500000357628,-75.5,87.6500000357629,             173P    286
7.15000003576279,-53.5,30.4380101134509,7.1500000357628,-53.5,       173P    287
87.6500000357629,0.,5.7211989922312,-1.3,0.9;                        173P    288
128,1,1,1,1,0,0,1,0,0,-0.750000000000001,-0.750000000000001,         175P    289
0.75,0.75,-2.8605994961156,-2.8605994961156,0.3394005038844,         175P    290
0.3394005038844,1.,1.,1.,1.,7.15000003576279,-75.5,                  175P    291
30.4380101134509,22.1500000357628,-75.5,30.4380101134509,            175P    292
7.15000003576279,-75.5,62.4380101134509,22.1500000357628,-75.5,      175P    293
62.4380101134509,-0.750000000000001,0.75,-2.8605994961156,           175P    294
0.3394005038844;                                                     175P    295
128,1,1,1,1,0,0,1,0,0,0.,0.,1.5,1.5,-0.25,-0.25,1.3,1.3,1.,1.,       177P    296
1.,1.,22.1500000357628,-60.,62.4380101134509,7.15000003576279,       177P    297
-60.,62.4380101134509,22.1500000357628,-75.5,62.4380101134509,       177P    298
7.15000003576279,-75.5,62.4380101134509,0.,1.5,-0.25,1.3;            177P    299
128,1,1,1,1,0,0,1,0,0,-0.0499999999999996,-0.0499999999999996,       179P    300
0.55,0.55,-2.6605994961156,-2.6605994961156,-2.0605994961156,        179P    301
-2.0605994961156,1.,1.,1.,1.,15.1500000357628,-66.5,                 179P    302
32.4380101134509,9.1500000357628,-66.5,32.4380101134509,             179P    303
15.1500000357628,-66.5,38.4380101134509,9.1500000357628,-66.5,       179P    304
38.4380101134509,-0.0499999999999996,0.55,-2.6605994961156,          179P    305
-2.0605994961156;                                                    179P    306
128,1,1,1,1,0,0,1,0,0,-0.0499999999999998,-0.0499999999999998,       181P    307
0.55,0.55,-1.0394005038844,-1.0394005038844,-0.4394005038844,        181P    308
-0.4394005038844,1.,1.,1.,1.,15.1500000357628,-66.5,                 181P    309
48.6500000357629,9.1500000357628,-66.5,48.6500000357629,             181P    310
15.1500000357628,-66.5,54.6500000357629,9.1500000357628,-66.5,       181P    311
54.6500000357629,-0.0499999999999998,0.55,-1.0394005038844,          181P    312
-0.4394005038844;                                                    181P    313
128,1,8,1,2,0,1,0,0,1,0.,0.,4.33333333333333,4.33333333333333,       183P    314
-3.14159265358979,-3.14159265358979,-3.14159265358979,               183P    315
-1.5707963267949,-1.5707963267949,0.,0.,1.5707963267949,             183P    316
1.5707963267949,3.14159265358979,3.14159265358979,                   183P    317
3.14159265358979,1.,1.,0.707106781186548,0.707106781186548,1.,       183P    318
1.,0.707106781186548,0.707106781186548,1.,1.,0.707106781186548,      183P    319
0.707106781186548,1.,1.,0.707106781186548,0.707106781186548,1.,      183P    320
1.,15.1500000357628,-53.5,51.6500000357629,15.1500000357628,         183P    321
-66.5,51.6500000357629,15.1500000357628,-53.5,54.6500000357629,      183P    322
15.1500000357628,-66.5,54.6500000357629,12.1500000357628,-53.5,      183P    323
54.6500000357629,12.1500000357628,-66.5,54.6500000357629,            183P    324
9.1500000357628,-53.5,54.6500000357629,9.1500000357628,-66.5,        183P    325
54.6500000357629,9.1500000357628,-53.5,51.6500000357629,             183P    326
9.1500000357628,-66.5,51.6500000357629,9.1500000357628,-53.5,        183P    327
48.6500000357629,9.1500000357628,-66.5,48.6500000357629,             183P    328
12.1500000357628,-53.5,48.6500000357629,12.1500000357628,-66.5,      183P    329
48.6500000357629,15.1500000357628,-53.5,48.6500000357629,            183P    330
15.1500000357628,-66.5,48.6500000357629,15.1500000357628,-53.5,      183P    331
51.6500000357629,15.1500000357628,-66.5,51.6500000357629,0.,         183P    332
4.33333333333333,-3.14159265358979,3.14159265358979;                 183P    333
128,1,8,1,2,0,1,0,0,1,0.,0.,4.33333333333333,4.33333333333333,       185P    334
-3.14159265358979,-3.14159265358979,-3.14159265358979,               185P    335
-1.5707963267949,-1.5707963267949,0.,0.,1.5707963267949,             185P    336
1.5707963267949,3.14159265358979,3.14159265358979,                   185P    337
3.14159265358979,1.,1.,0.707106781186548,0.707106781186548,1.,       185P    338
1.,0.707106781186548,0.707106781186548,1.,1.,0.707106781186548,      185P    339
0.707106781186548,1.,1.,0.707106781186548,0.707106781186548,1.,      185P    340
1.,15.1500000357628,-53.5,35.4380101134509,15.1500000357628,         185P    341
-66.5,35.4380101134509,15.1500000357628,-53.5,38.4380101134509,      185P    342
15.1500000357628,-66.5,38.4380101134509,12.1500000357628,-53.5,      185P    343
38.4380101134509,12.1500000357628,-66.5,38.4380101134509,            185P    344
9.1500000357628,-53.5,38.4380101134509,9.1500000357628,-66.5,        185P    345
38.4380101134509,9.1500000357628,-53.5,35.4380101134509,             185P    346
9.1500000357628,-66.5,35.4380101134509,9.1500000357628,-53.5,        185P    347
32.4380101134509,9.1500000357628,-66.5,32.4380101134509,             185P    348
12.1500000357628,-53.5,32.4380101134509,12.1500000357628,-66.5,      185P    349
32.4380101134509,15.1500000357628,-53.5,32.4380101134509,            185P    350
15.1500000357628,-66.5,32.4380101134509,15.1500000357628,-53.5,      185P    351
35.4380101134509,15.1500000357628,-66.5,35.4380101134509,0.,         185P    352
4.33333333333333,-3.14159265358979,3.14159265358979;                 185P    353
128,1,8,1,2,0,1,0,0,1,6.5,6.5,11.,11.,-3.14159265358979,             187P    354
-3.14159265358979,-3.14159265358979,-1.5707963267949,                187P    355
-1.5707963267949,0.,0.,1.5707963267949,1.5707963267949,              187P    356
3.14159265358979,3.14159265358979,3.14159265358979,1.,1.,            187P    357
0.707106781186548,0.707106781186548,1.,1.,0.707106781186548,         187P    358
0.707106781186548,1.,1.,0.707106781186548,0.707106781186548,1.,      187P    359
1.,0.707106781186548,0.707106781186548,1.,1.,14.1500000357628,       187P    360
-66.5,51.6500000357629,14.1500000357628,-75.5,51.6500000357629,      187P    361
14.1500000357628,-66.5,53.6500000357629,14.1500000357628,-75.5,      187P    362
53.6500000357629,12.1500000357628,-66.5,53.6500000357629,            187P    363
12.1500000357628,-75.5,53.6500000357629,10.1500000357628,-66.5,      187P    364
53.6500000357629,10.1500000357628,-75.5,53.6500000357629,            187P    365
10.1500000357628,-66.5,51.6500000357629,10.1500000357628,-75.5,      187P    366
51.6500000357629,10.1500000357628,-66.5,49.6500000357629,            187P    367
10.1500000357628,-75.5,49.6500000357629,12.1500000357628,-66.5,      187P    368
49.6500000357629,12.1500000357628,-75.5,49.6500000357629,            187P    369
14.1500000357628,-66.5,49.6500000357629,14.1500000357628,-75.5,      187P    370
49.6500000357629,14.1500000357628,-66.5,51.6500000357629,            187P    371
14.1500000357628,-75.5,51.6500000357629,6.5,11.,                     187P    372
-3.14159265358979,3.14159265358979;                                  187P    373
128,1,8,1,2,0,1,0,0,1,6.5,6.5,11.,11.,-3.14159265358979,             189P    374
-3.14159265358979,-3.14159265358979,-1.5707963267949,                189P    375
-1.5707963267949,0.,0.,1.5707963267949,1.5707963267949,              189P    376
3.14159265358979,3.14159265358979,3.14159265358979,1.,1.,            189P    377
0.707106781186548,0.707106781186548,1.,1.,0.707106781186548,         189P    378
0.707106781186548,1.,1.,0.707106781186548,0.707106781186548,1.,      189P    379
1.,0.707106781186548,0.707106781186548,1.,1.,14.1500000357628,       189P    380
-66.5,35.4380101134509,14.1500000357628,-75.5,35.4380101134509,      189P    381
14.1500000357628,-66.5,37.4380101134509,14.1500000357628,-75.5,      189P    382
37.4380101134509,12.1500000357628,-66.5,37.4380101134509,            189P    383
12.1500000357628,-75.5,37.4380101134509,10.1500000357628,-66.5,      189P    384
37.4380101134509,10.1500000357628,-75.5,37.4380101134509,            189P    385
10.1500000357628,-66.5,35.4380101134509,10.1500000357628,-75.5,      189P    386
35.4380101134509,10.1500000357628,-66.5,33.4380101134509,            189P    387
10.1500000357628,-75.5,33.4380101134509,12.1500000357628,-66.5,      189P    388
33.4380101134509,12.1500000357628,-75.5,33.4380101134509,            189P    389
14.1500000357628,-66.5,33.4380101134509,14.1500000357628,-75.5,      189P    390
33.4380101134509,14.1500000357628,-66.5,35.4380101134509,            189P    391
14.1500000357628,-75.5,35.4380101134509,6.5,11.,                     189P    392
-3.14159265358979,3.14159265358979;                                  189P    393
128,1,8,1,2,0,1,0,0,1,0.,0.,9.99999999999998,9.99999999999998,       191P    394
-3.14159265358979,-3.14159265358979,-3.14159265358979,               191P    395
-1.5707963267949,-1.5707963267949,0.,0.,1.5707963267949,             191P    396
1.5707963267949,3.14159265358979,3.14159265358979,                   191P    397
3.14159265358979,1.,1.,0.707106781186548,0.707106781186548,1.,       191P    398
1.,0.707106781186548,0.707106781186548,1.,1.,0.707106781186548,      191P    399
0.707106781186548,1.,1.,0.707106781186548,0.707106781186548,1.,      191P    400
1.,22.1500000357628,-57.5,65.1500000357629,7.1500000357628,          191P    401
-57.5,65.1500000357629,22.1500000357628,-56.,65.1500000357629,       191P    402
7.1500000357628,-56.,65.1500000357629,22.1500000357628,-56.,         191P    403
63.6500000357629,7.1500000357628,-56.,63.6500000357629,              191P    404
22.1500000357628,-56.,62.1500000357629,7.1500000357628,-56.,         191P    405
62.1500000357629,22.1500000357628,-57.5,62.1500000357629,            191P    406
7.1500000357628,-57.5,62.1500000357629,22.1500000357628,             191P    407
-59.0000000000001,62.1500000357629,7.1500000357628,                  191P    408
-59.0000000000001,62.1500000357629,22.1500000357628,                 191P    409
-59.0000000000001,63.6500000357629,7.1500000357628,                  191P    410
-59.0000000000001,63.6500000357629,22.1500000357628,                 191P    411
-59.0000000000001,65.1500000357629,7.1500000357628,                  191P    412
-59.0000000000001,65.1500000357629,22.1500000357628,-57.5,           191P    413
65.1500000357629,7.1500000357628,-57.5,65.1500000357629,0.,          191P    414
9.99999999999998,-3.14159265358979,3.14159265358979;                 191P    415
128,1,8,1,2,0,1,0,0,1,0.,0.,9.99999999999998,9.99999999999998,       193P    416
-3.14159265358979,-3.14159265358979,-3.14159265358979,               193P    417
-1.5707963267949,-1.5707963267949,0.,0.,1.5707963267949,             193P    418
1.5707963267949,3.14159265358979,3.14159265358979,                   193P    419
3.14159265358979,1.,1.,0.707106781186548,0.707106781186548,1.,       193P    420
1.,0.707106781186548,0.707106781186548,1.,1.,0.707106781186548,      193P    421
0.707106781186548,1.,1.,0.707106781186548,0.707106781186548,1.,      193P    422
1.,22.1500000357628,-57.5,84.1500000357629,7.1500000357628,          193P    423
-57.5,84.1500000357629,22.1500000357628,-56.,84.1500000357629,       193P    424
7.1500000357628,-56.,84.1500000357629,22.1500000357628,-56.,         193P    425
82.6500000357629,7.1500000357628,-56.,82.6500000357629,              193P    426
22.1500000357628,-56.,81.1500000357629,7.1500000357628,-56.,         193P    427
81.1500000357629,22.1500000357628,-57.5,81.1500000357629,            193P    428
7.1500000357628,-57.5,81.1500000357629,22.1500000357628,             193P    429
-59.0000000000001,81.1500000357629,7.1500000357628,                  193P    430
-59.0000000000001,81.1500000357629,22.1500000357628,                 193P    431
-59.0000000000001,82.6500000357629,7.1500000357628,                  193P    432
-59.0000000000001,82.6500000357629,22.1500000357628,                 193P    433
-59.0000000000001,84.1500000357629,7.1500000357628,                  193P    434
-59.0000000000001,84.1500000357629,22.1500000357628,-57.5,           193P    435
84.1500000357629,7.1500000357628,-57.5,84.1500000357629,0.,          193P    436
9.99999999999998,-3.14159265358979,3.14159265358979;                 193P    437
128,1,1,1,1,0,0,1,0,0,-2.22044604925031D-16,                         195P    438
-2.22044604925031D-16,1.5,1.5,0.25,0.25,0.9,0.9,1.,1.,1.,1.,         195P    439
7.1500000357628,-60.,87.6500000357629,22.1500000357628,-60.,         195P    440
87.6500000357629,7.1500000357628,-53.5,87.6500000357629,             195P    441
22.1500000357628,-53.5,87.6500000357629,-2.22044604925031D-16,       195P    442
1.5,0.25,0.9;                                                        195P    443
128,1,1,1,1,0,0,1,0,0,-2.5,-2.5,3.2211989922312,3.2211989922312,     197P    444
-1.3,-1.3,0.9,0.9,1.,1.,1.,1.,22.1500000357628,-75.5,                197P    445
87.6500000357629,22.1500000357628,-75.5,30.4380101134509,            197P    446
22.1500000357628,-53.5,87.6500000357629,22.1500000357628,-53.5,      197P    447
30.4380101134509,-2.5,3.2211989922312,-1.3,0.9;                      197P    448
128,1,1,1,1,0,0,1,0,0,-1.6105994961156,-1.6105994961156,             199P    449
4.1105994961156,4.1105994961156,-0.5,-0.5,1.,1.,1.,1.,1.,1.,         199P    450
7.15000003576279,-53.5,30.4380101134509,7.15000003576279,-53.5,      199P    451
87.6500000357629,22.1500000357628,-53.5,30.4380101134509,            199P    452
22.1500000357628,-53.5,87.6500000357629,-1.6105994961156,            199P    453
4.1105994961156,-0.5,1.;                                             199P    454
128,1,1,1,1,0,0,1,0,0,-0.5,-0.5,1.,1.,-1.3,-1.3,0.9,0.9,1.,1.,       201P    455
1.,1.,22.1500000357628,-75.5,30.4380101134509,7.15000003576279,      201P    456
-75.5,30.4380101134509,22.1500000357628,-53.5,30.4380101134509,      201P    457
7.1500000357628,-53.5,30.4380101134509,-0.5,1.,-1.3,0.9;             201P    458
502,24,22.1500000357628,-60.,62.4380101134509,7.15000003576279,      203P    459
-60.,62.4380101134509,22.1500000357628,-60.,87.6500000357629,        203P    460
7.1500000357628,-60.,87.6500000357629,7.15000003576279,-75.5,        203P    461
62.4380101134509,7.1500000357628,-53.5,87.6500000357629,             203P    462
7.15000003576279,-53.5,30.4380101134509,7.15000003576279,-75.5,      203P    463
30.4380101134509,7.1500000357628,-57.5,65.1500000357629,             203P    464
7.1500000357628,-57.5,84.1500000357629,22.1500000357628,-75.5,       203P    465
30.4380101134509,22.1500000357628,-75.5,62.4380101134509,            203P    466
14.1500000357628,-75.5,51.6500000357629,14.1500000357628,-75.5,      203P    467
35.4380101134509,15.1500000357628,-66.5,35.4380101134509,            203P    468
14.1500000357628,-66.5,35.4380101134509,15.1500000357628,-66.5,      203P    469
51.6500000357629,14.1500000357628,-66.5,51.6500000357629,            203P    470
15.1500000357628,-53.5,51.6500000357629,15.1500000357628,-53.5,      203P    471
35.4380101134509,22.1500000357628,-57.5,65.1500000357629,            203P    472
22.1500000357628,-57.5,84.1500000357629,22.1500000357628,-53.5,      203P    473
87.6500000357629,22.1500000357628,-53.5,30.4380101134509;            203P    474
504,36,99,203,1,203,2,101,203,3,203,1,103,203,4,203,3,105,203,2,     205P    475
203,4,107,203,5,203,2,109,203,6,203,4,111,203,7,203,6,113,203,8,     205P    476
203,7,115,203,8,203,5,117,203,9,203,9,119,203,10,203,10,121,203,     205P    477
11,203,8,123,203,12,203,11,125,203,5,203,12,127,203,13,203,13,       205P    478
129,203,14,203,14,131,203,1,203,12,133,203,15,203,15,135,203,16,     205P    479
203,16,137,203,17,203,17,139,203,18,203,18,141,203,19,203,19,        205P    480
143,203,19,203,17,145,203,20,203,20,147,203,20,203,15,149,203,       205P    481
18,203,13,151,203,16,203,14,153,203,21,203,21,155,203,21,203,9,      205P    482
157,203,22,203,22,159,203,22,203,10,161,203,3,203,23,163,203,23,     205P    483
203,6,165,203,24,203,11,167,203,24,203,23,169,203,7,203,24;          205P    484
406,1,5HBody1;                                                       207P    485
406,1,12HComponent5:1;                                               209P    486
406,1,21HZ-idler-top-left v6:1;                                      211P    487
314,62.7450980392157,62.7450980392157,62.7450980392157,13HSteel      213P    488
- Satin;                                                             213P    489
S      1G      2D    214P    489                                        T      1
