                                                                        S      1
,,17HATX_Power_Mount_3,17HATX_Power_Mount_3,7Hunknown,7Hunknown,32,38,7,G      1
99,15,,1.,2,2HMM,1,0.08,15H20150214.160542,0.01,10000.,7Hunknown,7HunknoG      2
wn,11,0,;                                                               G      3
     186       1                                                00000000D      1
     186            -247       1       0                               0D      2
     514       2                                                00010000D      3
     514                       2       1                               0D      4
     510       4                                                00010000D      5
     510            -247       1       1                               0D      6
     510       5                                                00010000D      7
     510            -247       1       1                               0D      8
     510       6                                                00010000D      9
     510            -247       1       1                               0D     10
     510       7                                                00010000D     11
     510            -247       1       1                               0D     12
     510       8                                                00010000D     13
     510            -247       1       1                               0D     14
     510       9                                                00010000D     15
     510            -247       1       1                               0D     16
     510      10                                                00010000D     17
     510            -247       1       1                               0D     18
     510      11                                                00010000D     19
     510            -247       1       1                               0D     20
     510      12                                                00010000D     21
     510            -247       1       1                               0D     22
     510      13                                                00010000D     23
     510            -247       1       1                               0D     24
     510      14                                                00010000D     25
     510            -247       1       1                               0D     26
     510      15                                                00010000D     27
     510            -247       1       1                               0D     28
     510      16                                                00010000D     29
     510            -247       1       1                               0D     30
     510      17                                                00010000D     31
     510            -247       1       1                               0D     32
     510      18                                                00010000D     33
     510            -247       1       1                               0D     34
     510      19                                                00010000D     35
     510            -247       1       1                               0D     36
     510      20                                                00010000D     37
     510            -247       1       1                               0D     38
     510      21                                                00010000D     39
     510            -247       1       1                               0D     40
     510      22                                                00010000D     41
     510            -247       1       1                               0D     42
     508      23                                                00010000D     43
     508                       1       1                               0D     44
     508      24                                                00010000D     45
     508                       1       1                               0D     46
     508      25                                                00010000D     47
     508                       1       1                               0D     48
     508      26                                                00010000D     49
     508                       3       1                               0D     50
     508      29                                                00010000D     51
     508                       1       1                               0D     52
     508      30                                                00010000D     53
     508                       1       1                               0D     54
     508      31                                                00010000D     55
     508                       1       1                               0D     56
     508      32                                                00010000D     57
     508                       1       1                               0D     58
     508      33                                                00010000D     59
     508                       1       1                               0D     60
     508      34                                                00010000D     61
     508                       1       1                               0D     62
     508      35                                                00010000D     63
     508                       1       1                               0D     64
     508      36                                                00010000D     65
     508                       1       1                               0D     66
     508      37                                                00010000D     67
     508                       3       1                               0D     68
     508      40                                                00010000D     69
     508                       1       1                               0D     70
     508      41                                                00010000D     71
     508                       1       1                               0D     72
     508      42                                                00010000D     73
     508                       1       1                               0D     74
     508      43                                                00010000D     75
     508                       1       1                               0D     76
     508      44                                                00010000D     77
     508                       1       1                               0D     78
     508      45                                                00010000D     79
     508                       1       1                               0D     80
     508      46                                                00010000D     81
     508                       1       1                               0D     82
     508      47                                                00010000D     83
     508                       1       1                               0D     84
     508      48                                                00010000D     85
     508                       1       1                               0D     86
     508      49                                                00010000D     87
     508                       1       1                               0D     88
     508      50                                                00010000D     89
     508                       1       1                               0D     90
     508      51                                                00010000D     91
     508                       1       1                               0D     92
     508      52                                                00010000D     93
     508                       1       1                               0D     94
     508      53                                                00010000D     95
     508                       1       1                               0D     96
     508      54                                                00010000D     97
     508                       1       1                               0D     98
     508      55                                                00010000D     99
     508                       1       1                               0D    100
     126      56                                                00010000D    101
     126       0               5       0                               0D    102
     126      61                                                00010000D    103
     126       0               2       0                               0D    104
     126      63                                                00010000D    105
     126       0               5       0                               0D    106
     126      68                                                00010000D    107
     126       0               2       0                               0D    108
     126      70                                                00010000D    109
     126       0               2       0                               0D    110
     126      72                                                00010000D    111
     126       0               3       0                               0D    112
     126      75                                                00010000D    113
     126       0               2       0                               0D    114
     126      77                                                00010000D    115
     126       0               5       0                               0D    116
     126      82                                                00010000D    117
     126       0               5       0                               0D    118
     126      87                                                00010000D    119
     126       0               3       0                               0D    120
     126      90                                                00010000D    121
     126       0               2       0                               0D    122
     126      92                                                00010000D    123
     126       0               2       0                               0D    124
     126      94                                                00010000D    125
     126       0               2       0                               0D    126
     126      96                                                00010000D    127
     126       0               2       0                               0D    128
     126      98                                                00010000D    129
     126       0               2       0                               0D    130
     126     100                                                00010000D    131
     126       0               5       0                               0D    132
     126     105                                                00010000D    133
     126       0               3       0                               0D    134
     126     108                                                00010000D    135
     126       0               5       0                               0D    136
     126     113                                                00010000D    137
     126       0               2       0                               0D    138
     126     115                                                00010000D    139
     126       0              10       0                               0D    140
     126     125                                                00010000D    141
     126       0              10       0                               0D    142
     126     135                                                00010000D    143
     126       0              10       0                               0D    144
     126     145                                                00010000D    145
     126       0              10       0                               0D    146
     126     155                                                00010000D    147
     126       0              12       0                               0D    148
     126     167                                                00010000D    149
     126       0               2       0                               0D    150
     126     169                                                00010000D    151
     126       0               2       0                               0D    152
     126     171                                                00010000D    153
     126       0              12       0                               0D    154
     126     183                                                00010000D    155
     126       0               3       0                               0D    156
     126     186                                                00010000D    157
     126       0               3       0                               0D    158
     126     189                                                00010000D    159
     126       0               2       0                               0D    160
     126     191                                                00010000D    161
     126       0               5       0                               0D    162
     126     196                                                00010000D    163
     126       0               3       0                               0D    164
     126     199                                                00010000D    165
     126       0               5       0                               0D    166
     126     204                                                00010000D    167
     126       0               2       0                               0D    168
     126     206                                                00010000D    169
     126       0               2       0                               0D    170
     126     208                                                00010000D    171
     126       0               2       0                               0D    172
     126     210                                                00010000D    173
     126       0               2       0                               0D    174
     126     212                                                00010000D    175
     126       0              10       0                               0D    176
     126     222                                                00010000D    177
     126       0              10       0                               0D    178
     126     232                                                00010000D    179
     126       0              10       0                               0D    180
     126     242                                                00010000D    181
     126       0              10       0                               0D    182
     126     252                                                00010000D    183
     126       0               3       0                               0D    184
     126     255                                                00010000D    185
     126       0               3       0                               0D    186
     126     258                                                00010000D    187
     126       0               3       0                               0D    188
     126     261                                                00010000D    189
     126       0               2       0                               0D    190
     126     263                                                00010000D    191
     126       0               2       0                               0D    192
     126     265                                                00010000D    193
     126       0               3       0                               0D    194
     126     268                                                00010000D    195
     126       0               3       0                               0D    196
     126     271                                                00010000D    197
     126       0               3       0                               0D    198
     126     274                                                00010000D    199
     126       0               2       0                               0D    200
     126     276                                                00010000D    201
     126       0               2       0                               0D    202
     128     278                                                00010000D    203
     128       0    -247       7       0                               0D    204
     128     285                                                00010000D    205
     128       0    -247       4       0                               0D    206
     128     289                                                00010000D    207
     128       0    -247       8       0                               0D    208
     128     297                                                00010000D    209
     128       0    -247       4       0                               0D    210
     128     301                                                00010000D    211
     128       0    -247       4       0                               0D    212
     128     305                                                00010000D    213
     128       0    -247      20       0                               0D    214
     128     325                                                00010000D    215
     128       0    -247       4       0                               0D    216
     128     329                                                00010000D    217
     128       0    -247       4       0                               0D    218
     128     333                                                00010000D    219
     128       0    -247       7       0                               0D    220
     128     340                                                00010000D    221
     128       0    -247       4       0                               0D    222
     128     344                                                00010000D    223
     128       0    -247       8       0                               0D    224
     128     352                                                00010000D    225
     128       0    -247       4       0                               0D    226
     128     356                                                00010000D    227
     128       0    -247      17       0                               0D    228
     128     373                                                00010000D    229
     128       0    -247      17       0                               0D    230
     128     390                                                00010000D    231
     128       0    -247      17       0                               0D    232
     128     407                                                00010000D    233
     128       0    -247      17       0                               0D    234
     128     424                                                00010000D    235
     128       0    -247       3       0                               0D    236
     128     427                                                00010000D    237
     128       0    -247       5       0                               0D    238
     128     432                                                00010000D    239
     128       0    -247       5       0                               0D    240
     502     437                                                00010000D    241
     502                      18       1                               0D    242
     504     455                                                00010001D    243
     504                      15       1                               0D    244
     406     470                                                00000000D    245
     406                       1      15                               0D    246
     314     471                                                00000200D    247
     314                       2       0                               0D    248
186,3,1,0,0,1,245;                                                     1P      1
514,19,5,1,7,1,9,1,11,1,13,1,15,1,17,1,19,1,21,1,23,1,25,1,27,1,       3P      2
29,1,31,1,33,1,35,1,37,1,39,1,41,1;                                    3P      3
510,203,1,1,43;                                                        5P      4
510,205,1,1,45;                                                        7P      5
510,207,1,1,47;                                                        9P      6
510,209,6,1,49,51,53,55,57,59;                                        11P      7
510,211,1,1,61;                                                       13P      8
510,213,1,1,63;                                                       15P      9
510,215,1,1,65;                                                       17P     10
510,217,6,1,67,69,71,73,75,77;                                        19P     11
510,219,1,1,79;                                                       21P     12
510,221,1,1,81;                                                       23P     13
510,223,1,1,83;                                                       25P     14
510,225,1,1,85;                                                       27P     15
510,227,1,1,87;                                                       29P     16
510,229,1,1,89;                                                       31P     17
510,231,1,1,91;                                                       33P     18
510,233,1,1,93;                                                       35P     19
510,235,1,1,95;                                                       37P     20
510,237,1,1,97;                                                       39P     21
510,239,1,1,99;                                                       41P     22
508,4,0,243,1,1,0,0,243,2,1,0,0,243,3,1,0,0,243,4,1,0;                43P     23
508,4,0,243,2,0,0,0,243,5,1,0,0,243,6,0,0,0,243,7,1,0;                45P     24
508,4,0,243,8,1,0,0,243,6,1,0,0,243,9,1,0,0,243,10,1,0;               47P     25
508,12,0,243,8,0,0,0,243,11,0,0,0,243,12,1,0,0,243,13,1,0,0,243,      49P     26
14,1,0,0,243,15,0,0,0,243,16,0,0,0,243,17,0,0,0,243,18,0,0,0,         49P     27
243,19,0,0,0,243,3,0,0,0,243,7,0,0;                                   49P     28
508,1,0,243,20,0,0;                                                   51P     29
508,1,0,243,21,0,0;                                                   53P     30
508,1,0,243,22,0,0;                                                   55P     31
508,1,0,243,23,1,0;                                                   57P     32
508,1,0,243,24,1,0;                                                   59P     33
508,4,0,243,10,0,0,0,243,25,1,0,0,243,26,1,0,0,243,11,1,0;            61P     34
508,4,0,243,27,0,0,0,243,28,1,0,0,243,24,0,0,0,243,28,0,0;            63P     35
508,4,0,243,4,0,0,0,243,19,1,0,0,243,29,0,0,0,243,30,0,0;             65P     36
508,12,0,243,9,0,0,0,243,5,0,0,0,243,1,0,0,0,243,30,1,0,0,243,        67P     37
31,0,0,0,243,32,1,0,0,243,33,0,0,0,243,34,0,0,0,243,35,0,0,0,         67P     38
243,36,1,0,0,243,37,1,0,0,243,25,0,0;                                 67P     39
508,1,0,243,27,1,0;                                                   69P     40
508,1,0,243,38,1,0;                                                   71P     41
508,1,0,243,39,1,0;                                                   73P     42
508,1,0,243,40,1,0;                                                   75P     43
508,1,0,243,41,1,0;                                                   77P     44
508,4,0,243,18,1,0,0,243,42,1,0,0,243,31,1,0,0,243,29,1,0;            79P     45
508,4,0,243,42,0,0,0,243,17,1,0,0,243,43,0,0,0,243,32,0,0;            81P     46
508,4,0,243,16,1,0,0,243,44,1,0,0,243,33,1,0,0,243,43,1,0;            83P     47
508,4,0,243,44,0,0,0,243,15,1,0,0,243,45,1,0,0,243,34,1,0;            85P     48
508,4,0,243,38,0,0,0,243,46,1,0,0,243,23,0,0,0,243,46,0,0;            87P     49
508,4,0,243,41,0,0,0,243,47,1,0,0,243,20,1,0,0,243,47,0,0;            89P     50
508,4,0,243,40,0,0,0,243,48,1,0,0,243,21,1,0,0,243,48,0,0;            91P     51
508,4,0,243,39,0,0,0,243,49,1,0,0,243,22,1,0,0,243,49,0,0;            93P     52
508,4,0,243,13,0,0,0,243,50,1,0,0,243,36,0,0,0,243,51,0,0;            95P     53
508,4,0,243,14,0,0,0,243,51,1,0,0,243,35,1,0,0,243,45,0,0;            97P     54
508,4,0,243,12,0,0,0,243,26,0,0,0,243,37,0,0,0,243,50,0,0;            99P     55
126,2,2,0,0,0,0,-0.785398163397448,-0.785398163397448,               101P     56
-0.785398163397448,0.785398163397448,0.785398163397448,              101P     57
0.785398163397448,1.,0.707106781186545,1.,80.,-137.,                 101P     58
54.5556834000509,75.,-137.,54.5556834000509,75.,-142.,               101P     59
54.5556834000509,-0.785398163397448,0.785398163397448,0.,0.,0.;      101P     60
126,1,1,0,0,1,0,-0.5,-0.5,0.,0.,1.,1.,75.,-142.,                     103P     61
54.5556834000509,75.,-142.,49.5556834000509,-0.5,0.,0.,0.,0.;        103P     62
126,2,2,0,0,0,0,-0.785398163397448,-0.785398163397448,               105P     63
-0.785398163397448,0.785398163397448,0.785398163397448,              105P     64
0.785398163397448,1.,0.707106781186545,1.,75.,-142.,                 105P     65
49.5556834000509,75.,-137.,49.5556834000509,80.,-137.,               105P     66
49.5556834000509,-0.785398163397448,0.785398163397448,0.,0.,0.;      105P     67
126,1,1,0,0,1,0,0.,0.,0.5,0.5,1.,1.,80.,-137.,49.5556834000509,      107P     68
80.,-137.,54.5556834000509,0.,0.5,0.,0.,0.;                          107P     69
126,1,1,0,0,1,0,0.5,0.5,0.9,0.9,1.,1.,75.,-142.,                     109P     70
54.5556834000509,75.,-146.,54.5556834000509,0.5,0.9,0.,0.,0.;        109P     71
126,1,1,0,0,1,0,-0.125,-0.125,0.375,0.375,1.,1.,75.,-146.,           111P     72
49.5556834000509,75.,-146.,54.5556834000509,-0.125,0.375,0.,0.,      111P     73
0.;                                                                  111P     74
126,1,1,0,0,1,0,-0.9,-0.9,-0.5,-0.5,1.,1.,75.,-146.,                 113P     75
49.5556834000509,75.,-142.,49.5556834000509,-0.9,-0.5,0.,0.,0.;      113P     76
126,2,2,0,0,0,0,-0.785398163397448,-0.785398163397448,               115P     77
-0.785398163397448,0.785398163397448,0.785398163397448,              115P     78
0.785398163397448,1.,0.707106781186545,1.,70.,-151.,                 115P     79
49.5556834000509,75.,-151.,49.5556834000509,75.,-146.,               115P     80
49.5556834000509,-0.785398163397448,0.785398163397448,0.,0.,0.;      115P     81
126,2,2,0,0,0,0,-0.785398163397448,-0.785398163397448,               117P     82
-0.785398163397448,0.785398163397448,0.785398163397448,              117P     83
0.785398163397448,1.,0.707106781186545,1.,75.,-146.,                 117P     84
54.5556834000509,75.,-151.,54.5556834000509,70.,-151.,               117P     85
54.5556834000509,-0.785398163397448,0.785398163397448,0.,0.,0.;      117P     86
126,1,1,0,0,1,0,-0.375,-0.375,0.124999999999999,                     119P     87
0.124999999999999,1.,1.,70.,-151.,54.5556834000509,70.,-151.,        119P     88
49.5556834000509,-0.375,0.124999999999999,0.,0.,0.;                  119P     89
126,1,1,0,0,1,0,-1.5,-1.5,0.5,0.5,1.,1.,50.,-151.,                   121P     90
49.5556834000509,70.,-151.,49.5556834000509,-1.5,0.5,0.,0.,0.;       121P     91
126,1,1,0,0,1,0,-2.4,-2.4,0.5,0.5,1.,1.,50.,-151.,                   123P     92
49.5556834000509,50.,-122.,49.5556834000509,-2.4,0.5,0.,0.,0.;       123P     93
126,1,1,0,0,1,0,0.,0.,8.6,8.6,1.,1.,50.,-122.,49.5556834000509,      125P     94
136.,-122.,49.5556834000509,0.,8.6,0.,0.,0.;                         125P     95
126,1,1,0,0,1,0,-1.5,-1.5,1.4,1.4,1.,1.,136.,-122.,                  127P     96
49.5556834000509,136.,-151.,49.5556834000509,-1.5,1.4,0.,0.,0.;      127P     97
126,1,1,0,0,1,0,0.5,0.5,1.5,1.5,1.,1.,126.,-151.,                    129P     98
49.5556834000509,136.,-151.,49.5556834000509,0.5,1.5,0.,0.,0.;       129P     99
126,2,2,0,0,0,0,-0.785398163397448,-0.785398163397448,               131P    100
-0.785398163397448,0.785398163397448,0.785398163397448,              131P    101
0.785398163397448,1.,0.707106781186539,1.,121.,-146.,                131P    102
49.5556834000509,121.,-151.,49.5556834000509,126.,-151.,             131P    103
49.5556834000509,-0.785398163397448,0.785398163397448,0.,0.,0.;      131P    104
126,1,1,0,0,1,0,0.5,0.5,0.899999999999999,0.899999999999999,1.,      133P    105
1.,121.,-142.,49.5556834000509,121.,-146.,49.5556834000509,0.5,      133P    106
0.899999999999999,0.,0.,0.;                                          133P    107
126,2,2,0,0,0,0,-0.785398163397448,-0.785398163397448,               135P    108
-0.785398163397448,0.785398163397448,0.785398163397448,              135P    109
0.785398163397448,1.,0.707106781186539,1.,116.,-137.,                135P    110
49.5556834000509,121.,-137.,49.5556834000509,121.,-142.,             135P    111
49.5556834000509,-0.785398163397448,0.785398163397448,0.,0.,0.;      135P    112
126,1,1,0,0,1,0,3.,3.,6.6,6.6,1.,1.,80.,-137.,49.5556834000509,      137P    113
116.,-137.,49.5556834000509,3.,6.6,0.,0.,0.;                         137P    114
126,8,2,0,1,0,0,-3.14159265358979,-3.14159265358979,                 139P    115
-3.14159265358979,-1.5707963267949,-1.5707963267949,0.,0.,           139P    116
1.5707963267949,1.5707963267949,3.14159265358979,                    139P    117
3.14159265358979,3.14159265358979,1.,0.70710678118653,1.,            139P    118
0.70710678118653,1.,0.70710678118653,1.,0.70710678118653,1.,         139P    119
88.5,-131.,49.5556834000509,87.,-131.,49.5556834000509,87.,          139P    120
-129.5,49.5556834000509,87.,-128.,49.5556834000509,88.5,-128.,       139P    121
49.5556834000509,90.,-128.,49.5556834000509,90.,-129.5,              139P    122
49.5556834000509,90.,-131.,49.5556834000509,88.5,-131.,              139P    123
49.5556834000509,-3.14159265358979,3.14159265358979,0.,0.,0.;        139P    124
126,8,2,0,1,0,0,-3.14159265358979,-3.14159265358979,                 141P    125
-3.14159265358979,-1.5707963267949,-1.5707963267949,0.,0.,           141P    126
1.5707963267949,1.5707963267949,3.14159265358979,                    141P    127
3.14159265358979,3.14159265358979,1.,0.70710678118653,1.,            141P    128
0.70710678118653,1.,0.70710678118653,1.,0.70710678118653,1.,         141P    129
128.,-131.,49.5556834000509,126.5,-131.,49.5556834000509,126.5,      141P    130
-129.5,49.5556834000509,126.5,-128.,49.5556834000509,128.,-128.,     141P    131
49.5556834000509,129.5,-128.,49.5556834000509,129.5,-129.5,          141P    132
49.5556834000509,129.5,-131.,49.5556834000509,128.,-131.,            141P    133
49.5556834000509,-3.14159265358979,3.14159265358979,0.,0.,0.;        141P    134
126,8,2,0,1,0,0,-3.14159265358979,-3.14159265358979,                 143P    135
-3.14159265358979,-1.5707963267949,-1.5707963267949,0.,0.,           143P    136
1.5707963267949,1.5707963267949,3.14159265358979,                    143P    137
3.14159265358979,3.14159265358979,1.,0.707106781186547,1.,           143P    138
0.707106781186547,1.,0.707106781186547,1.,0.707106781186547,1.,      143P    139
58.5,-131.,49.5556834000509,57.,-131.,49.5556834000509,57.,          143P    140
-129.5,49.5556834000509,57.,-128.,49.5556834000509,58.5,-128.,       143P    141
49.5556834000509,60.,-128.,49.5556834000509,60.,-129.5,              143P    142
49.5556834000509,60.,-131.,49.5556834000509,58.5,-131.,              143P    143
49.5556834000509,-3.14159265358979,3.14159265358979,0.,0.,0.;        143P    144
126,8,2,0,1,0,0,-3.14159265358979,-3.14159265358979,                 145P    145
-3.14159265358979,-1.5707963267949,-1.5707963267949,0.,0.,           145P    146
1.5707963267949,1.5707963267949,3.14159265358979,                    145P    147
3.14159265358979,3.14159265358979,1.,0.707106781186554,1.,           145P    148
0.707106781186554,1.,0.707106781186554,1.,0.707106781186554,1.,      145P    149
130.,-145.,49.5556834000509,132.,-145.,49.5556834000509,132.,        145P    150
-143.,49.5556834000509,132.,-141.,49.5556834000509,130.,-141.,       145P    151
49.5556834000509,128.,-141.,49.5556834000509,128.,-143.,             145P    152
49.5556834000509,128.,-145.,49.5556834000509,130.,-145.,             145P    153
49.5556834000509,-3.14159265358979,3.14159265358979,0.,0.,0.;        145P    154
126,8,2,0,1,0,0,-3.14159265358979,-3.14159265358979,                 147P    155
-3.14159265358979,-1.5707963267949,-1.5707963267949,0.,0.,           147P    156
1.5707963267949,1.5707963267949,3.14159265358979,                    147P    157
3.14159265358979,3.14159265358979,1.,0.707106781186545,1.,           147P    158
0.707106781186545,1.,0.707106781186545,1.,0.707106781186545,1.,      147P    159
65.9916689801964,-145.,49.5556834000509,67.9916689801964,-145.,      147P    160
49.5556834000509,67.9916689801964,-143.,49.5556834000509,            147P    161
67.9916689801964,-141.,49.5556834000509,65.9916689801964,-141.,      147P    162
49.5556834000509,63.9916689801964,-141.,49.5556834000509,            147P    163
63.9916689801964,-143.,49.5556834000509,63.9916689801964,-145.,      147P    164
49.5556834000509,65.9916689801964,-145.,49.5556834000509,            147P    165
-3.14159265358979,3.14159265358979,0.,0.,0.;                         147P    166
126,1,1,0,0,1,0,-2.,-2.,0.,0.,1.,1.,70.,-151.,54.5556834000509,      149P    167
50.,-151.,54.5556834000509,-2.,0.,0.,0.,0.;                          149P    168
126,1,1,0,0,1,0,-0.5,-0.5,0.,0.,1.,1.,50.,-151.,                     151P    169
54.5556834000509,50.,-151.,49.5556834000509,-0.5,0.,0.,0.,0.;        151P    170
126,8,2,0,1,0,0,-3.14159265358979,-3.14159265358979,                 153P    171
-3.14159265358979,-1.5707963267949,-1.5707963267949,0.,0.,           153P    172
1.5707963267949,1.5707963267949,3.14159265358979,                    153P    173
3.14159265358979,3.14159265358979,1.,0.707106781186545,1.,           153P    174
0.707106781186545,1.,0.707106781186545,1.,0.707106781186545,1.,      153P    175
65.9916689801964,-145.,54.5556834000509,63.9916689801964,-145.,      153P    176
54.5556834000509,63.9916689801964,-143.,54.5556834000509,            153P    177
63.9916689801964,-141.,54.5556834000509,65.9916689801964,-141.,      153P    178
54.5556834000509,67.9916689801964,-141.,54.5556834000509,            153P    179
67.9916689801964,-143.,54.5556834000509,67.9916689801964,-145.,      153P    180
54.5556834000509,65.9916689801964,-145.,54.5556834000509,            153P    181
-3.14159265358979,3.14159265358979,0.,0.,0.;                         153P    182
126,1,1,0,0,1,0,0.,0.,2.5,2.5,1.,1.,65.9916689801964,-145.,          155P    183
54.5556834000509,65.9916689801964,-145.,49.5556834000509,0.,2.5,     155P    184
0.,0.,0.;                                                            155P    185
126,1,1,0,0,1,0,-0.25,-0.25,0.25,0.25,1.,1.,116.,-137.,              157P    186
54.5556834000509,116.,-137.,49.5556834000509,-0.25,0.25,0.,0.,       157P    187
0.;                                                                  157P    188
126,1,1,0,0,1,0,3.,3.,6.6,6.6,1.,1.,80.,-137.,54.5556834000509,      159P    189
116.,-137.,54.5556834000509,3.,6.6,0.,0.,0.;                         159P    190
126,2,2,0,0,0,0,-0.785398163397448,-0.785398163397448,               161P    191
-0.785398163397448,0.785398163397448,0.785398163397448,              161P    192
0.785398163397448,1.,0.707106781186539,1.,121.,-142.,                161P    193
54.5556834000509,121.,-137.,54.5556834000509,116.,-137.,             161P    194
54.5556834000509,-0.785398163397448,0.785398163397448,0.,0.,0.;      161P    195
126,1,1,0,0,1,0,0.5,0.5,0.899999999999999,0.899999999999999,1.,      163P    196
1.,121.,-142.,54.5556834000509,121.,-146.,54.5556834000509,0.5,      163P    197
0.899999999999999,0.,0.,0.;                                          163P    198
126,2,2,0,0,0,0,-0.785398163397448,-0.785398163397448,               165P    199
-0.785398163397448,0.785398163397448,0.785398163397448,              165P    200
0.785398163397448,1.,0.707106781186539,1.,126.,-151.,                165P    201
54.5556834000509,121.,-151.,54.5556834000509,121.,-146.,             165P    202
54.5556834000509,-0.785398163397448,0.785398163397448,0.,0.,0.;      165P    203
126,1,1,0,0,1,0,0.,0.,1.,1.,1.,1.,136.,-151.,54.5556834000509,       167P    204
126.,-151.,54.5556834000509,0.,1.,0.,0.,0.;                          167P    205
126,1,1,0,0,1,0,-1.5,-1.5,1.4,1.4,1.,1.,136.,-122.,                  169P    206
54.5556834000509,136.,-151.,54.5556834000509,-1.5,1.4,0.,0.,0.;      169P    207
126,1,1,0,0,1,0,-8.6,-8.6,0.,0.,1.,1.,136.,-122.,                    171P    208
54.5556834000509,50.,-122.,54.5556834000509,-8.6,0.,0.,0.,0.;        171P    209
126,1,1,0,0,1,0,-0.5,-0.5,2.4,2.4,1.,1.,50.,-122.,                   173P    210
54.5556834000509,50.,-151.,54.5556834000509,-0.5,2.4,0.,0.,0.;       173P    211
126,8,2,0,1,0,0,-3.14159265358979,-3.14159265358979,                 175P    212
-3.14159265358979,-1.5707963267949,-1.5707963267949,0.,0.,           175P    213
1.5707963267949,1.5707963267949,3.14159265358979,                    175P    214
3.14159265358979,3.14159265358979,1.,0.707106781186554,1.,           175P    215
0.707106781186554,1.,0.707106781186554,1.,0.707106781186554,1.,      175P    216
130.,-145.,54.5556834000509,128.,-145.,54.5556834000509,128.,        175P    217
-143.,54.5556834000509,128.,-141.,54.5556834000509,130.,-141.,       175P    218
54.5556834000509,132.,-141.,54.5556834000509,132.,-143.,             175P    219
54.5556834000509,132.,-145.,54.5556834000509,130.,-145.,             175P    220
54.5556834000509,-3.14159265358979,3.14159265358979,0.,0.,0.;        175P    221
126,8,2,0,1,0,0,-3.14159265358979,-3.14159265358979,                 177P    222
-3.14159265358979,-1.5707963267949,-1.5707963267949,0.,0.,           177P    223
1.5707963267949,1.5707963267949,3.14159265358979,                    177P    224
3.14159265358979,3.14159265358979,1.,0.707106781186547,1.,           177P    225
0.707106781186547,1.,0.707106781186547,1.,0.707106781186547,1.,      177P    226
58.5,-131.,54.5556834000509,57.,-131.,54.5556834000509,57.,          177P    227
-129.5,54.5556834000509,57.,-128.,54.5556834000509,58.5,-128.,       177P    228
54.5556834000509,60.,-128.,54.5556834000509,60.,-129.5,              177P    229
54.5556834000509,60.,-131.,54.5556834000509,58.5,-131.,              177P    230
54.5556834000509,-3.14159265358979,3.14159265358979,0.,0.,0.;        177P    231
126,8,2,0,1,0,0,-3.14159265358979,-3.14159265358979,                 179P    232
-3.14159265358979,-1.5707963267949,-1.5707963267949,0.,0.,           179P    233
1.5707963267949,1.5707963267949,3.14159265358979,                    179P    234
3.14159265358979,3.14159265358979,1.,0.70710678118653,1.,            179P    235
0.70710678118653,1.,0.70710678118653,1.,0.70710678118653,1.,         179P    236
128.,-131.,54.5556834000509,126.5,-131.,54.5556834000509,126.5,      179P    237
-129.5,54.5556834000509,126.5,-128.,54.5556834000509,128.,-128.,     179P    238
54.5556834000509,129.5,-128.,54.5556834000509,129.5,-129.5,          179P    239
54.5556834000509,129.5,-131.,54.5556834000509,128.,-131.,            179P    240
54.5556834000509,-3.14159265358979,3.14159265358979,0.,0.,0.;        179P    241
126,8,2,0,1,0,0,-3.14159265358979,-3.14159265358979,                 181P    242
-3.14159265358979,-1.5707963267949,-1.5707963267949,0.,0.,           181P    243
1.5707963267949,1.5707963267949,3.14159265358979,                    181P    244
3.14159265358979,3.14159265358979,1.,0.70710678118653,1.,            181P    245
0.70710678118653,1.,0.70710678118653,1.,0.70710678118653,1.,         181P    246
88.5,-131.,54.5556834000509,87.,-131.,54.5556834000509,87.,          181P    247
-129.5,54.5556834000509,87.,-128.,54.5556834000509,88.5,-128.,       181P    248
54.5556834000509,90.,-128.,54.5556834000509,90.,-129.5,              181P    249
54.5556834000509,90.,-131.,54.5556834000509,88.5,-131.,              181P    250
54.5556834000509,-3.14159265358979,3.14159265358979,0.,0.,0.;        181P    251
126,1,1,0,0,1,0,-0.25,-0.25,0.25,0.25,1.,1.,121.,-142.,              183P    252
49.5556834000509,121.,-142.,54.5556834000509,-0.25,0.25,0.,0.,       183P    253
0.;                                                                  183P    254
126,1,1,0,0,1,0,-0.125,-0.125,0.375,0.375,1.,1.,121.,-146.,          185P    255
54.5556834000509,121.,-146.,49.5556834000509,-0.125,0.375,0.,0.,     185P    256
0.;                                                                  185P    257
126,1,1,0,0,1,0,-0.375,-0.375,0.125,0.125,1.,1.,126.,-151.,          187P    258
49.5556834000509,126.,-151.,54.5556834000509,-0.375,0.125,0.,0.,     187P    259
0.;                                                                  187P    260
126,1,1,0,0,1,0,0.,0.,0.5,0.5,1.,1.,136.,-151.,49.5556834000509,     189P    261
136.,-151.,54.5556834000509,0.,0.5,0.,0.,0.;                         189P    262
126,1,1,0,0,1,0,0.,0.,2.5,2.5,1.,1.,130.,-145.,54.5556834000509,     191P    263
130.,-145.,49.5556834000509,0.,2.5,0.,0.,0.;                         191P    264
126,1,1,0,0,1,0,-3.33333333333333,-3.33333333333333,0.,0.,1.,1.,     193P    265
88.5,-131.,54.5556834000509,88.5,-131.,49.5556834000509,             193P    266
-3.33333333333333,0.,0.,0.,0.;                                       193P    267
126,1,1,0,0,1,0,-3.33333333333333,-3.33333333333333,0.,0.,1.,1.,     195P    268
128.,-131.,54.5556834000509,128.,-131.,49.5556834000509,             195P    269
-3.33333333333333,0.,0.,0.,0.;                                       195P    270
126,1,1,0,0,1,0,-3.33333333333333,-3.33333333333333,0.,0.,1.,1.,     197P    271
58.5,-131.,54.5556834000509,58.5,-131.,49.5556834000509,             197P    272
-3.33333333333333,0.,0.,0.,0.;                                       197P    273
126,1,1,0,0,1,0,0.,0.,0.5,0.5,1.,1.,50.,-122.,49.5556834000509,      199P    274
50.,-122.,54.5556834000509,0.,0.5,0.,0.,0.;                          199P    275
126,1,1,0,0,1,0,0.,0.,0.5,0.5,1.,1.,136.,-122.,49.5556834000509,     201P    276
136.,-122.,54.5556834000509,0.,0.5,0.,0.,0.;                         201P    277
128,1,2,1,2,0,0,0,0,0,-1.,-1.,0.,0.,-0.785398163397448,              203P    278
-0.785398163397448,-0.785398163397448,0.785398163397448,             203P    279
0.785398163397448,0.785398163397448,1.,1.,0.707106781186548,         203P    280
0.707106781186548,1.,1.,75.,-142.,54.5556834000509,75.,-142.,        203P    281
49.5556834000509,75.,-137.,54.5556834000509,75.,-137.,               203P    282
49.5556834000509,80.,-137.,54.5556834000509,80.,-137.,               203P    283
49.5556834000509,-1.,0.,-0.785398163397448,0.785398163397448;        203P    284
128,1,1,1,1,0,0,1,0,0,-0.5,-0.5,0.,0.,-0.9,-0.9,-0.5,-0.5,1.,1.,     205P    285
1.,1.,75.,-146.,54.5556834000509,75.,-146.,49.5556834000509,75.,     205P    286
-142.,54.5556834000509,75.,-142.,49.5556834000509,-0.5,0.,-0.9,      205P    287
-0.5;                                                                205P    288
128,1,2,1,2,0,0,0,0,0,-0.75,-0.75,0.25,0.25,-0.785398163397448,      207P    289
-0.785398163397448,-0.785398163397448,0.785398163397448,             207P    290
0.785398163397448,0.785398163397448,1.,1.,0.707106781186548,         207P    291
0.707106781186548,1.,1.,75.,-146.,49.5556834000509,75.,-146.,        207P    292
54.5556834000509,75.,-151.,49.5556834000509,75.,-151.,               207P    293
54.5556834000509,70.,-151.,49.5556834000509,70.,-151.,               207P    294
54.5556834000509,-0.75,0.25,-0.785398163397448,                      207P    295
0.785398163397448;                                                   207P    296
128,1,1,1,1,0,0,1,0,0,-2.15,-2.15,0.75,0.75,-4.3,-4.3,4.3,4.3,       209P    297
1.,1.,1.,1.,136.,-122.,49.5556834000509,136.,-151.,                  209P    298
49.5556834000509,50.,-122.,49.5556834000509,50.,-151.,               209P    299
49.5556834000509,-2.15,0.75,-4.3,4.3;                                209P    300
128,1,1,1,1,0,0,1,0,0,-0.25,-0.25,0.25,0.25,-0.75,-0.75,1.25,        211P    301
1.25,1.,1.,1.,1.,50.,-151.,54.5556834000509,50.,-151.,               211P    302
49.5556834000509,70.,-151.,54.5556834000509,70.,-151.,               211P    303
49.5556834000509,-0.25,0.25,-0.75,1.25;                              211P    304
128,1,8,1,2,0,1,0,0,1,0.,0.,2.5,2.5,-3.14159265358979,               213P    305
-3.14159265358979,-3.14159265358979,-1.5707963267949,                213P    306
-1.5707963267949,0.,0.,1.5707963267949,1.5707963267949,              213P    307
3.14159265358979,3.14159265358979,3.14159265358979,1.,1.,            213P    308
0.707106781186548,0.707106781186548,1.,1.,0.707106781186548,         213P    309
0.707106781186548,1.,1.,0.707106781186548,0.707106781186548,1.,      213P    310
1.,0.707106781186548,0.707106781186548,1.,1.,65.9916689801964,       213P    311
-145.,54.5556834000509,65.9916689801964,-145.,49.5556834000509,      213P    312
63.9916689801964,-145.,54.5556834000509,63.9916689801964,-145.,      213P    313
49.5556834000509,63.9916689801964,-143.,54.5556834000509,            213P    314
63.9916689801964,-143.,49.5556834000509,63.9916689801964,-141.,      213P    315
54.5556834000509,63.9916689801964,-141.,49.5556834000509,            213P    316
65.9916689801964,-141.,54.5556834000509,65.9916689801964,-141.,      213P    317
49.5556834000509,67.9916689801964,-141.,54.5556834000509,            213P    318
67.9916689801964,-141.,49.5556834000509,67.9916689801964,-143.,      213P    319
54.5556834000509,67.9916689801964,-143.,49.5556834000509,            213P    320
67.9916689801964,-145.,54.5556834000509,67.9916689801964,-145.,      213P    321
49.5556834000509,65.9916689801964,-145.,54.5556834000509,            213P    322
65.9916689801964,-145.,49.5556834000509,0.,2.5,                      213P    323
-3.14159265358979,3.14159265358979;                                  213P    324
128,1,1,1,1,0,0,1,0,0,3.,3.,6.6,6.6,0.,0.,0.5,0.5,1.,1.,1.,1.,       215P    325
80.,-137.,49.5556834000509,116.,-137.,49.5556834000509,80.,          215P    326
-137.,54.5556834000509,116.,-137.,54.5556834000509,3.,6.6,0.,        215P    327
0.5;                                                                 215P    328
128,1,1,1,1,0,0,1,0,0,-2.15,-2.15,0.75,0.75,-4.3,-4.3,4.3,4.3,       217P    329
1.,1.,1.,1.,136.,-151.,54.5556834000509,136.,-122.,                  217P    330
54.5556834000509,50.,-151.,54.5556834000509,50.,-122.,               217P    331
54.5556834000509,-2.15,0.75,-4.3,4.3;                                217P    332
128,1,2,1,2,0,0,0,0,0,-0.5,-0.5,0.5,0.5,-0.785398163397448,          219P    333
-0.785398163397448,-0.785398163397448,0.785398163397448,             219P    334
0.785398163397448,0.785398163397448,1.,1.,0.707106781186548,         219P    335
0.707106781186548,1.,1.,121.,-142.,49.5556834000509,121.,-142.,      219P    336
54.5556834000509,121.,-137.,49.5556834000509,121.,-137.,             219P    337
54.5556834000509,116.,-137.,49.5556834000509,116.,-137.,             219P    338
54.5556834000509,-0.5,0.5,-0.785398163397448,0.785398163397448;      219P    339
128,1,1,1,1,0,0,1,0,0,0.,0.,0.5,0.5,0.5,0.5,0.899999999999999,       221P    340
0.899999999999999,1.,1.,1.,1.,121.,-142.,54.5556834000509,121.,      221P    341
-142.,49.5556834000509,121.,-146.,54.5556834000509,121.,-146.,       221P    342
49.5556834000509,0.,0.5,0.5,0.899999999999999;                       221P    343
128,1,2,1,2,0,0,0,0,0,-0.25,-0.25,0.75,0.75,-0.785398163397448,      223P    344
-0.785398163397448,-0.785398163397448,0.785398163397448,             223P    345
0.785398163397448,0.785398163397448,1.,1.,0.707106781186548,         223P    346
0.707106781186548,1.,1.,126.,-151.,49.5556834000509,126.,-151.,      223P    347
54.5556834000509,121.,-151.,49.5556834000509,121.,-151.,             223P    348
54.5556834000509,121.,-146.,49.5556834000509,121.,-146.,             223P    349
54.5556834000509,-0.25,0.75,-0.785398163397448,                      223P    350
0.785398163397448;                                                   223P    351
128,1,1,1,1,0,0,1,0,0,-0.25,-0.25,0.25,0.25,-0.25,-0.25,0.75,        225P    352
0.75,1.,1.,1.,1.,126.,-151.,54.5556834000509,126.,-151.,             225P    353
49.5556834000509,136.,-151.,54.5556834000509,136.,-151.,             225P    354
49.5556834000509,-0.25,0.25,-0.25,0.75;                              225P    355
128,1,8,1,2,0,1,0,0,1,0.,0.,2.5,2.5,-3.14159265358979,               227P    356
-3.14159265358979,-3.14159265358979,-1.5707963267949,                227P    357
-1.5707963267949,0.,0.,1.5707963267949,1.5707963267949,              227P    358
3.14159265358979,3.14159265358979,3.14159265358979,1.,1.,            227P    359
0.707106781186548,0.707106781186548,1.,1.,0.707106781186548,         227P    360
0.707106781186548,1.,1.,0.707106781186548,0.707106781186548,1.,      227P    361
1.,0.707106781186548,0.707106781186548,1.,1.,130.,-145.,             227P    362
54.5556834000509,130.,-145.,49.5556834000509,128.,-145.,             227P    363
54.5556834000509,128.,-145.,49.5556834000509,128.,-143.,             227P    364
54.5556834000509,128.,-143.,49.5556834000509,128.,-141.,             227P    365
54.5556834000509,128.,-141.,49.5556834000509,130.,-141.,             227P    366
54.5556834000509,130.,-141.,49.5556834000509,132.,-141.,             227P    367
54.5556834000509,132.,-141.,49.5556834000509,132.,-143.,             227P    368
54.5556834000509,132.,-143.,49.5556834000509,132.,-145.,             227P    369
54.5556834000509,132.,-145.,49.5556834000509,130.,-145.,             227P    370
54.5556834000509,130.,-145.,49.5556834000509,0.,2.5,                 227P    371
-3.14159265358979,3.14159265358979;                                  227P    372
128,1,8,1,2,0,1,0,0,1,0.,0.,3.33333333333333,3.33333333333333,       229P    373
-3.14159265358979,-3.14159265358979,-3.14159265358979,               229P    374
-1.5707963267949,-1.5707963267949,0.,0.,1.5707963267949,             229P    375
1.5707963267949,3.14159265358979,3.14159265358979,                   229P    376
3.14159265358979,1.,1.,0.707106781186548,0.707106781186548,1.,       229P    377
1.,0.707106781186548,0.707106781186548,1.,1.,0.707106781186548,      229P    378
0.707106781186548,1.,1.,0.707106781186548,0.707106781186548,1.,      229P    379
1.,88.5,-131.,49.5556834000509,88.5,-131.,54.5556834000509,90.,      229P    380
-131.,49.5556834000509,90.,-131.,54.5556834000509,90.,-129.5,        229P    381
49.5556834000509,90.,-129.5,54.5556834000509,90.,-128.,              229P    382
49.5556834000509,90.,-128.,54.5556834000509,88.5,-128.,              229P    383
49.5556834000509,88.5,-128.,54.5556834000509,87.,-128.,              229P    384
49.5556834000509,87.,-128.,54.5556834000509,87.,-129.5,              229P    385
49.5556834000509,87.,-129.5,54.5556834000509,87.,-131.,              229P    386
49.5556834000509,87.,-131.,54.5556834000509,88.5,-131.,              229P    387
49.5556834000509,88.5,-131.,54.5556834000509,0.,                     229P    388
3.33333333333333,-3.14159265358979,3.14159265358979;                 229P    389
128,1,8,1,2,0,1,0,0,1,0.,0.,3.33333333333333,3.33333333333333,       231P    390
-3.14159265358979,-3.14159265358979,-3.14159265358979,               231P    391
-1.5707963267949,-1.5707963267949,0.,0.,1.5707963267949,             231P    392
1.5707963267949,3.14159265358979,3.14159265358979,                   231P    393
3.14159265358979,1.,1.,0.707106781186548,0.707106781186548,1.,       231P    394
1.,0.707106781186548,0.707106781186548,1.,1.,0.707106781186548,      231P    395
0.707106781186548,1.,1.,0.707106781186548,0.707106781186548,1.,      231P    396
1.,128.,-131.,49.5556834000509,128.,-131.,54.5556834000509,          231P    397
129.5,-131.,49.5556834000509,129.5,-131.,54.5556834000509,129.5,     231P    398
-129.5,49.5556834000509,129.5,-129.5,54.5556834000509,129.5,         231P    399
-128.,49.5556834000509,129.5,-128.,54.5556834000509,128.,-128.,      231P    400
49.5556834000509,128.,-128.,54.5556834000509,126.5,-128.,            231P    401
49.5556834000509,126.5,-128.,54.5556834000509,126.5,-129.5,          231P    402
49.5556834000509,126.5,-129.5,54.5556834000509,126.5,-131.,          231P    403
49.5556834000509,126.5,-131.,54.5556834000509,128.,-131.,            231P    404
49.5556834000509,128.,-131.,54.5556834000509,0.,                     231P    405
3.33333333333333,-3.14159265358979,3.14159265358979;                 231P    406
128,1,8,1,2,0,1,0,0,1,0.,0.,3.33333333333333,3.33333333333333,       233P    407
-3.14159265358979,-3.14159265358979,-3.14159265358979,               233P    408
-1.5707963267949,-1.5707963267949,0.,0.,1.5707963267949,             233P    409
1.5707963267949,3.14159265358979,3.14159265358979,                   233P    410
3.14159265358979,1.,1.,0.707106781186548,0.707106781186548,1.,       233P    411
1.,0.707106781186548,0.707106781186548,1.,1.,0.707106781186548,      233P    412
0.707106781186548,1.,1.,0.707106781186548,0.707106781186548,1.,      233P    413
1.,58.5,-131.,49.5556834000509,58.5,-131.,54.5556834000509,60.,      233P    414
-131.,49.5556834000509,60.,-131.,54.5556834000509,60.,-129.5,        233P    415
49.5556834000509,60.,-129.5,54.5556834000509,60.,-128.,              233P    416
49.5556834000509,60.,-128.,54.5556834000509,58.5,-128.,              233P    417
49.5556834000509,58.5,-128.,54.5556834000509,57.,-128.,              233P    418
49.5556834000509,57.,-128.,54.5556834000509,57.,-129.5,              233P    419
49.5556834000509,57.,-129.5,54.5556834000509,57.,-131.,              233P    420
49.5556834000509,57.,-131.,54.5556834000509,58.5,-131.,              233P    421
49.5556834000509,58.5,-131.,54.5556834000509,0.,                     233P    422
3.33333333333333,-3.14159265358979,3.14159265358979;                 233P    423
128,1,1,1,1,0,0,1,0,0,0.,0.,8.6,8.6,0.,0.,0.5,0.5,1.,1.,1.,1.,       235P    424
136.,-122.,49.5556834000509,50.,-122.,49.5556834000509,136.,         235P    425
-122.,54.5556834000509,50.,-122.,54.5556834000509,0.,8.6,0.,0.5;     235P    426
128,1,1,1,1,0,0,1,0,0,-1.4,-1.4,1.5,1.5,-8.88178419700125D-16,       237P    427
-8.88178419700125D-16,0.5,0.5,1.,1.,1.,1.,136.,-151.,                237P    428
49.5556834000509,136.,-122.,49.5556834000509,136.,-151.,             237P    429
54.5556834000509,136.,-122.,54.5556834000509,-1.4,1.5,               237P    430
-8.88178419700125D-16,0.5;                                           237P    431
128,1,1,1,1,0,0,1,0,0,0.,0.,2.9,2.9,-8.88178419700125D-16,           239P    432
-8.88178419700125D-16,0.5,0.5,1.,1.,1.,1.,50.,-122.,                 239P    433
49.5556834000509,50.,-151.,49.5556834000509,50.,-122.,               239P    434
54.5556834000509,50.,-151.,54.5556834000509,0.,2.9,                  239P    435
-8.88178419700125D-16,0.5;                                           239P    436
502,34,80.,-137.,54.5556834000509,75.,-142.,54.5556834000509,        241P    437
75.,-142.,49.5556834000509,80.,-137.,49.5556834000509,75.,-146.,     241P    438
54.5556834000509,75.,-146.,49.5556834000509,70.,-151.,               241P    439
49.5556834000509,70.,-151.,54.5556834000509,50.,-151.,               241P    440
49.5556834000509,50.,-122.,49.5556834000509,136.,-122.,              241P    441
49.5556834000509,136.,-151.,49.5556834000509,126.,-151.,             241P    442
49.5556834000509,121.,-146.,49.5556834000509,121.,-142.,             241P    443
49.5556834000509,116.,-137.,49.5556834000509,88.5,-131.,             241P    444
49.5556834000509,128.,-131.,49.5556834000509,58.5,-131.,             241P    445
49.5556834000509,130.,-145.,49.5556834000509,65.9916689801964,       241P    446
-145.,49.5556834000509,50.,-151.,54.5556834000509,                   241P    447
65.9916689801964,-145.,54.5556834000509,116.,-137.,                  241P    448
54.5556834000509,121.,-142.,54.5556834000509,121.,-146.,             241P    449
54.5556834000509,126.,-151.,54.5556834000509,136.,-151.,             241P    450
54.5556834000509,136.,-122.,54.5556834000509,50.,-122.,              241P    451
54.5556834000509,130.,-145.,54.5556834000509,58.5,-131.,             241P    452
54.5556834000509,128.,-131.,54.5556834000509,88.5,-131.,             241P    453
54.5556834000509;                                                    241P    454
504,51,101,241,1,241,2,103,241,2,241,3,105,241,3,241,4,107,241,      243P    455
4,241,1,109,241,2,241,5,111,241,6,241,5,113,241,6,241,3,115,241,     243P    456
7,241,6,117,241,5,241,8,119,241,8,241,7,121,241,9,241,7,123,241,     243P    457
9,241,10,125,241,10,241,11,127,241,11,241,12,129,241,13,241,12,      243P    458
131,241,14,241,13,133,241,15,241,14,135,241,16,241,15,137,241,4,     243P    459
241,16,139,241,17,241,17,141,241,18,241,18,143,241,19,241,19,        243P    460
145,241,20,241,20,147,241,21,241,21,149,241,8,241,22,151,241,22,     243P    461
241,9,153,241,23,241,23,155,241,23,241,21,157,241,24,241,16,159,     243P    462
241,1,241,24,161,241,25,241,24,163,241,25,241,26,165,241,27,241,     243P    463
26,167,241,28,241,27,169,241,29,241,28,171,241,29,241,30,173,        243P    464
241,30,241,22,175,241,31,241,31,177,241,32,241,32,179,241,33,        243P    465
241,33,181,241,34,241,34,183,241,15,241,25,185,241,26,241,14,        243P    466
187,241,13,241,27,189,241,12,241,28,191,241,31,241,20,193,241,       243P    467
34,241,17,195,241,33,241,18,197,241,32,241,19,199,241,10,241,30,     243P    468
201,241,11,241,29;                                                   243P    469
406,1,5HBody1;                                                       245P    470
314,62.7450980392157,62.7450980392157,62.7450980392157,13HSteel      247P    471
- Satin;                                                             247P    472
S      1G      3D    248P    472                                        T      1
