                                                                        S      1
,,11HCable_Clamp,11HCable_Clamp,7Hunknown,7Hunknown,32,38,7,99,15,,1.,2,G      1
2HMM,1,0.08,15H20150214.160431,0.01,10000.,7Hunknown,7Hunknown,11,0,;   G      2
     408       1                                                00000001D      1
     408       0               1       0                               0D      2
     308       2                                                00010200D      3
     308       0               1       0                               0D      4
     186       3                                                00010000D      5
     186                       1       0                               0D      6
     514       4                                                00010000D      7
     514                       2       1                               0D      8
     510       6                                                00010000D      9
     510                       1       1                               0D     10
     510       7                                                00010000D     11
     510                       1       1                               0D     12
     510       8                                                00010000D     13
     510                       1       1                               0D     14
     510       9                                                00010000D     15
     510                       1       1                               0D     16
     510      10                                                00010000D     17
     510                       1       1                               0D     18
     510      11                                                00010000D     19
     510                       1       1                               0D     20
     510      12                                                00010000D     21
     510                       1       1                               0D     22
     510      13                                                00010000D     23
     510                       1       1                               0D     24
     510      14                                                00010000D     25
     510                       1       1                               0D     26
     510      15                                                00010000D     27
     510                       1       1                               0D     28
     510      16                                                00010000D     29
     510                       1       1                               0D     30
     510      17                                                00010000D     31
     510                       1       1                               0D     32
     510      18                                                00010000D     33
     510                       1       1                               0D     34
     510      19                                                00010000D     35
     510                       1       1                               0D     36
     510      20                                                00010000D     37
     510                       1       1                               0D     38
     510      21                                                00010000D     39
     510                       1       1                               0D     40
     508      22                                                00010000D     41
     508                       1       1                               0D     42
     508      23                                                00010000D     43
     508                       2       1                               0D     44
     508      25                                                00010000D     45
     508                       1       1                               0D     46
     508      26                                                00010000D     47
     508                       1       1                               0D     48
     508      27                                                00010000D     49
     508                       1       1                               0D     50
     508      28                                                00010000D     51
     508                       1       1                               0D     52
     508      29                                                00010000D     53
     508                       1       1                               0D     54
     508      30                                                00010000D     55
     508                       3       1                               0D     56
     508      33                                                00010000D     57
     508                       1       1                               0D     58
     508      34                                                00010000D     59
     508                       1       1                               0D     60
     508      35                                                00010000D     61
     508                       1       1                               0D     62
     508      36                                                00010000D     63
     508                       1       1                               0D     64
     508      37                                                00010000D     65
     508                       1       1                               0D     66
     508      38                                                00010000D     67
     508                       2       1                               0D     68
     508      40                                                00010000D     69
     508                       2       1                               0D     70
     508      42                                                00010000D     71
     508                       3       1                               0D     72
     126      45                                                00010000D     73
     126       0               5       0                               0D     74
     126      50                                                00010000D     75
     126       0               2       0                               0D     76
     126      52                                                00010000D     77
     126       0               5       0                               0D     78
     126      57                                                00010000D     79
     126       0               2       0                               0D     80
     126      59                                                00010000D     81
     126       0               2       0                               0D     82
     126      61                                                00010000D     83
     126       0               4       0                               0D     84
     126      65                                                00010000D     85
     126       0               2       0                               0D     86
     126      67                                                00010000D     87
     126       0               4       0                               0D     88
     126      71                                                00010000D     89
     126       0               2       0                               0D     90
     126      73                                                00010000D     91
     126       0               5       0                               0D     92
     126      78                                                00010000D     93
     126       0               2       0                               0D     94
     126      80                                                00010000D     95
     126       0               2       0                               0D     96
     126      82                                                00010000D     97
     126       0               2       0                               0D     98
     126      84                                                00010000D     99
     126       0               4       0                               0D    100
     126      88                                                00010000D    101
     126       0               2       0                               0D    102
     126      90                                                00010000D    103
     126       0               5       0                               0D    104
     126      95                                                00010000D    105
     126       0               2       0                               0D    106
     126      97                                                00010000D    107
     126       0               2       0                               0D    108
     126      99                                                00010000D    109
     126       0               2       0                               0D    110
     126     101                                                00010000D    111
     126       0               2       0                               0D    112
     126     103                                                00010000D    113
     126       0               4       0                               0D    114
     126     107                                                00010000D    115
     126       0               2       0                               0D    116
     126     109                                                00010000D    117
     126       0               2       0                               0D    118
     126     111                                                00010000D    119
     126       0               2       0                               0D    120
     126     113                                                00010000D    121
     126       0               4       0                               0D    122
     126     117                                                00010000D    123
     126       0               2       0                               0D    124
     126     119                                                00010000D    125
     126       0               4       0                               0D    126
     126     123                                                00010000D    127
     126       0               2       0                               0D    128
     126     125                                                00010000D    129
     126       0               2       0                               0D    130
     126     127                                                00010000D    131
     126       0               4       0                               0D    132
     126     131                                                00010000D    133
     126       0               2       0                               0D    134
     126     133                                                00010000D    135
     126       0               2       0                               0D    136
     126     135                                                00010000D    137
     126       0               2       0                               0D    138
     126     137                                                00010000D    139
     126       0               3       0                               0D    140
     126     140                                                00010000D    141
     126       0               2       0                               0D    142
     126     142                                                00010000D    143
     126       0               4       0                               0D    144
     126     146                                                00010000D    145
     126       0               2       0                               0D    146
     126     148                                                00010000D    147
     126       0               2       0                               0D    148
     126     150                                                00010000D    149
     126       0               2       0                               0D    150
     126     152                                                00010000D    151
     126       0               2       0                               0D    152
     126     154                                                00010000D    153
     126       0               2       0                               0D    154
     126     156                                                00010000D    155
     126       0               2       0                               0D    156
     128     158                                                00010000D    157
     128       0               8       0                               0D    158
     128     166                                                00010000D    159
     128       0               3       0                               0D    160
     128     169                                                00010000D    161
     128       0               3       0                               0D    162
     128     172                                                00010000D    163
     128       0               7       0                               0D    164
     128     179                                                00010000D    165
     128       0               6       0                               0D    166
     128     185                                                00010000D    167
     128       0               3       0                               0D    168
     128     188                                                00010000D    169
     128       0               6       0                               0D    170
     128     194                                                00010000D    171
     128       0               3       0                               0D    172
     128     197                                                00010000D    173
     128       0               6       0                               0D    174
     128     203                                                00010000D    175
     128       0               2       0                               0D    176
     128     205                                                00010000D    177
     128       0               8       0                               0D    178
     128     213                                                00010000D    179
     128       0               2       0                               0D    180
     128     215                                                00010000D    181
     128       0               3       0                               0D    182
     128     218                                                00010000D    183
     128       0               3       0                               0D    184
     128     221                                                00010000D    185
     128       0               3       0                               0D    186
     128     224                                                00010000D    187
     128       0               3       0                               0D    188
     502     227                                                00010000D    189
     502                       5       1                               0D    190
     504     232                                                00010001D    191
     504                      12       1                               0D    192
     406     244                                                00000000D    193
     406                       1      15                               0D    194
     406     245                                                00000000D    195
     406                       1      15                               0D    196
     314     246                                                00000200D    197
     314                       1       0                               0D    198
     314     247                                                00000200D    199
     314                       2       0                               0D    200
408,3,0.,0.,0.,1.,0,1,195;                                             1P      1
308,0,17HCable fastener v4,1,5;                                        3P      2
186,7,1,0,0,1,193;                                                     5P      3
514,16,9,1,11,1,13,1,15,1,17,1,19,1,21,1,23,1,25,1,27,1,29,1,31,       7P      4
1,33,1,35,1,37,1,39,1;                                                 7P      5
510,157,1,1,41;                                                        9P      6
510,159,1,1,43;                                                       11P      7
510,161,1,1,45;                                                       13P      8
510,163,1,1,47;                                                       15P      9
510,165,1,1,49;                                                       17P     10
510,167,1,1,51;                                                       19P     11
510,169,1,1,53;                                                       21P     12
510,171,1,1,55;                                                       23P     13
510,173,1,1,57;                                                       25P     14
510,175,1,1,59;                                                       27P     15
510,177,1,1,61;                                                       29P     16
510,179,1,1,63;                                                       31P     17
510,181,1,1,65;                                                       33P     18
510,183,1,1,67;                                                       35P     19
510,185,1,1,69;                                                       37P     20
510,187,1,1,71;                                                       39P     21
508,4,0,191,1,1,0,0,191,2,1,0,0,191,3,1,0,0,191,4,1,0;                41P     22
508,8,0,191,1,0,0,0,191,5,1,0,0,191,6,0,0,0,191,7,1,0,0,191,8,0,      43P     23
0,0,191,9,1,0,0,191,10,0,0,0,191,11,1,0;                              43P     24
508,4,0,191,4,0,0,0,191,12,0,0,0,191,13,0,0,0,191,5,0,0;              45P     25
508,4,0,191,6,1,0,0,191,13,1,0,0,191,14,1,0,0,191,15,1,0;             47P     26
508,4,0,191,16,1,0,0,191,17,1,0,0,191,10,1,0,0,191,18,1,0;            49P     27
508,4,0,191,18,0,0,0,191,9,0,0,0,191,19,0,0,0,191,20,0,0;             51P     28
508,4,0,191,21,1,0,0,191,19,1,0,0,191,8,1,0,0,191,22,1,0;             53P     29
508,10,0,191,15,0,0,0,191,23,0,0,0,191,24,0,0,0,191,25,0,0,0,         55P     30
191,26,0,0,0,191,27,0,0,0,191,28,0,0,0,191,29,0,0,0,191,22,0,0,       55P     31
0,191,7,0,0;                                                          55P     32
508,4,0,191,30,1,0,0,191,31,1,0,0,191,25,1,0,0,191,32,1,0;            57P     33
508,4,0,191,32,0,0,0,191,24,1,0,0,191,33,0,0,0,191,34,1,0;            59P     34
508,4,0,191,27,1,0,0,191,35,1,0,0,191,36,1,0,0,191,37,1,0;            61P     35
508,4,0,191,37,0,0,0,191,38,0,0,0,191,39,1,0,0,191,28,1,0;            63P     36
508,4,0,191,31,0,0,0,191,40,1,0,0,191,35,0,0,0,191,26,1,0;            65P     37
508,6,0,191,3,0,0,0,191,41,1,0,0,191,33,1,0,0,191,23,1,0,0,191,       67P     38
14,0,0,0,191,12,1,0;                                                  67P     39
508,6,0,191,16,0,0,0,191,20,1,0,0,191,21,0,0,0,191,29,1,0,0,191,      69P     40
39,0,0,0,191,42,1,0;                                                  69P     41
508,10,0,191,2,0,0,0,191,11,0,0,0,191,17,0,0,0,191,42,0,0,0,191,      71P     42
38,1,0,0,191,36,0,0,0,191,40,0,0,0,191,30,0,0,0,191,34,0,0,0,         71P     43
191,41,0,0;                                                           71P     44
126,2,2,0,0,0,0,-0.785398163397448,-0.785398163397448,                73P     45
-0.785398163397448,0.785398163397448,0.785398163397448,               73P     46
0.785398163397448,1.,0.707106781186548,1.,13.5,-1.,3.,13.5,-1.,       73P     47
1.2490009027033D-15,10.5,-1.,1.11022302462516D-15,                    73P     48
-0.785398163397448,0.785398163397448,0.,0.,0.;                        73P     49
126,1,1,0,0,1,0,-0.1,-0.1,0.3,0.3,1.,1.,10.5,-1.,0.,10.5,3.,0.,       75P     50
-0.1,0.3,0.,0.,0.;                                                    75P     51
126,2,2,0,0,0,0,-0.785398163397448,-0.785398163397448,                77P     52
-0.785398163397448,0.785398163397448,0.785398163397448,               77P     53
0.785398163397448,1.,0.707106781186548,1.,10.5,3.,                    77P     54
1.11022302462516D-15,13.5,3.,1.2490009027033D-15,13.5,3.,3.,          77P     55
-0.785398163397448,0.785398163397448,0.,0.,0.;                        77P     56
126,1,1,0,0,1,0,-0.3,-0.3,0.1,0.1,1.,1.,13.5,3.,3.,13.5,-1.,3.,       79P     57
-0.3,0.1,0.,0.,0.;                                                    79P     58
126,1,1,0,0,1,0,0.3,0.3,0.7,0.7,1.,1.,13.5,-1.,3.,13.5,-1.,7.,        81P     59
0.3,0.7,0.,0.,0.;                                                     81P     60
126,2,2,0,0,0,0,-0.785398163397449,-0.785398163397449,                83P     61
-0.785398163397449,0.785398163397448,0.785398163397448,               83P     62
0.785398163397448,1.,0.707106781186546,1.,10.5,-1.,10.,13.5,-1.,      83P     63
10.,13.5,-1.,7.,-0.785398163397449,0.785398163397448,0.,0.,0.;        83P     64
126,1,1,0,0,1,0,-0.4125,-0.4125,0.8375,0.8375,1.,1.,10.5,-1.,         85P     65
10.,-2.,-1.,10.,-0.4125,0.8375,0.,0.,0.;                              85P     66
126,2,2,0,0,0,0,-0.785398163397448,-0.785398163397448,                87P     67
-0.785398163397448,0.785398163397448,0.785398163397448,               87P     68
0.785398163397448,1.,0.707106781186547,1.,-5.,-1.,7.,-5.,-1.,         87P     69
10.,-2.,-1.,10.,-0.785398163397448,0.785398163397448,0.,0.,0.;        87P     70
126,1,1,0,0,1,0,-0.7,-0.7,-0.3,-0.3,1.,1.,-5.,-1.,7.,-5.,-1.,3.,      89P     71
-0.7,-0.3,0.,0.,0.;                                                   89P     72
126,2,2,0,0,0,0,-0.785398163397448,-0.785398163397448,                91P     73
-0.785398163397448,0.785398163397448,0.785398163397448,               91P     74
0.785398163397448,1.,0.707106781186548,1.,-2.,-1.,                    91P     75
5.55111512312578D-16,-5.,-1.,1.80411241501588D-15,-5.,-1.,3.,         91P     76
-0.785398163397448,0.785398163397448,0.,0.,0.;                        91P     77
126,1,1,0,0,1,0,-1.05,-1.05,0.2,0.2,1.,1.,-2.,-1.,0.,10.5,-1.,        93P     78
0.,-1.05,0.2,0.,0.,0.;                                                93P     79
126,1,1,0,0,1,0,-0.7,-0.7,-0.3,-0.3,1.,1.,13.5,3.,7.,13.5,3.,3.,      95P     80
-0.7,-0.3,0.,0.,0.;                                                   95P     81
126,1,1,0,0,1,0,-0.1,-0.1,0.3,0.3,1.,1.,13.5,-1.,7.,13.5,3.,7.,       97P     82
-0.1,0.3,0.,0.,0.;                                                    97P     83
126,2,2,0,0,0,0,-0.785398163397448,-0.785398163397448,                99P     84
-0.785398163397448,0.785398163397449,0.785398163397449,               99P     85
0.785398163397449,1.,0.707106781186546,1.,13.5,3.,7.,13.5,3.,         99P     86
10.,10.5,3.,10.,-0.785398163397448,0.785398163397449,0.,0.,0.;        99P     87
126,1,1,0,0,1,0,-0.3,-0.3,0.1,0.1,1.,1.,10.5,3.,10.,10.5,-1.,        101P     88
10.,-0.3,0.1,0.,0.,0.;                                               101P     89
126,2,2,0,0,0,0,-0.785398163397448,-0.785398163397448,               103P     90
-0.785398163397448,0.785398163397448,0.785398163397448,              103P     91
0.785398163397448,1.,0.707106781186548,1.,-5.,3.,3.,-5.,3.,          103P     92
1.38777878078145D-16,-2.,3.,0.,-0.785398163397448,                   103P     93
0.785398163397448,0.,0.,0.;                                          103P     94
126,1,1,0,0,1,0,-0.3,-0.3,0.1,0.1,1.,1.,-2.,3.,0.,-2.,-1.,0.,        105P     95
-0.3,0.1,0.,0.,0.;                                                   105P     96
126,1,1,0,0,1,0,-0.1,-0.1,0.3,0.3,1.,1.,-5.,-1.,3.,-5.,3.,3.,        107P     97
-0.1,0.3,0.,0.,0.;                                                   107P     98
126,1,1,0,0,1,0,-0.3,-0.3,0.1,0.1,1.,1.,-5.,3.,7.,-5.,-1.,7.,        109P     99
-0.3,0.1,0.,0.,0.;                                                   109P    100
126,1,1,0,0,1,0,0.3,0.3,0.7,0.7,1.,1.,-5.,3.,3.,-5.,3.,7.,0.3,       111P    101
0.7,0.,0.,0.;                                                        111P    102
126,2,2,0,0,0,0,-0.785398163397448,-0.785398163397448,               113P    103
-0.785398163397448,0.785398163397448,0.785398163397448,              113P    104
0.785398163397448,1.,0.707106781186547,1.,-2.,3.,10.,-5.,3.,10.,     113P    105
-5.,3.,7.,-0.785398163397448,0.785398163397448,0.,0.,0.;             113P    106
126,1,1,0,0,1,0,-0.1,-0.1,0.3,0.3,1.,1.,-2.,-1.,10.,-2.,3.,10.,      115P    107
-0.1,0.3,0.,0.,0.;                                                   115P    108
126,1,1,0,0,1,0,0.2125,0.2125,0.4125,0.4125,1.,1.,8.5,3.,10.,        117P    109
10.5,3.,10.,0.2125,0.4125,0.,0.,0.;                                  117P    110
126,1,1,0,0,1,0,-0.7,-0.7,-0.3,-0.3,1.,1.,8.5,7.,10.,8.5,3.,10.,     119P    111
-0.7,-0.3,0.,0.,0.;                                                  119P    112
126,2,2,0,0,0,0,-0.785398163397448,-0.785398163397448,               121P    113
-0.785398163397448,0.785398163397448,0.785398163397448,              121P    114
0.785398163397448,1.,0.707106781186549,1.,7.5,8.,10.,8.5,8.,10.,     121P    115
8.5,7.,10.,-0.785398163397448,0.785398163397448,0.,0.,0.;            121P    116
126,1,1,0,0,1,0,-0.5375,-0.5375,0.1125,0.1125,1.,1.,1.,8.,10.,       123P    117
7.5,8.,10.,-0.5375,0.1125,0.,0.,0.;                                  123P    118
126,2,2,0,0,0,0,-0.785398163397449,-0.785398163397449,               125P    119
-0.785398163397449,0.785398163397447,0.785398163397447,              125P    120
0.785398163397447,1.,0.707106781186545,1.,0.,7.,10.,0.,8.,10.,       125P    121
1.,8.,10.,-0.785398163397449,0.785398163397447,0.,0.,0.;             125P    122
126,1,1,0,0,1,0,0.3,0.3,0.7,0.7,1.,1.,0.,3.,10.,0.,7.,10.,0.3,       127P    123
0.7,0.,0.,0.;                                                        127P    124
126,1,1,0,0,1,0,-0.8375,-0.8375,-0.6375,-0.6375,1.,1.,-2.,3.,        129P    125
10.,0.,3.,10.,-0.8375,-0.6375,0.,0.,0.;                              129P    126
126,2,2,0,0,0,0,-0.785398163397448,-0.785398163397448,               131P    127
-0.785398163397448,0.785398163397448,0.785398163397448,              131P    128
0.785398163397448,1.,0.707106781186549,1.,8.5,7.,0.,8.5,8.,0.,       131P    129
7.5,8.,0.,-0.785398163397448,0.785398163397448,0.,0.,0.;             131P    130
126,1,1,0,0,1,0,-0.5,-0.5,0.5,0.5,1.,1.,7.5,8.,0.,7.5,8.,10.,        133P    131
-0.5,0.5,0.,0.,0.;                                                   133P    132
126,1,1,0,0,1,0,-0.5,-0.5,0.5,0.5,1.,1.,8.5,7.,10.,8.5,7.,0.,        135P    133
-0.5,0.5,0.,0.,0.;                                                   135P    134
126,1,1,0,0,1,0,0.,0.,1.,1.,1.,1.,8.5,3.,0.,8.5,3.,10.,0.,1.,0.,     137P    135
0.,0.;                                                               137P    136
126,1,1,0,0,1,0,-0.4,-0.4,-1.11022302462516D-16,                     139P    137
-1.11022302462516D-16,1.,1.,8.5,3.,0.,8.5,7.,0.,-0.4,                139P    138
-1.11022302462516D-16,0.,0.,0.;                                      139P    139
126,1,1,0,0,1,0,-0.5,-0.5,0.5,0.5,1.,1.,1.,8.,10.,1.,8.,0.,-0.5,     141P    140
0.5,0.,0.,0.;                                                        141P    141
126,2,2,0,0,0,0,-0.785398163397448,-0.785398163397448,               143P    142
-0.785398163397448,0.785398163397449,0.785398163397449,              143P    143
0.785398163397449,1.,0.707106781186548,1.,1.,8.,0.,0.,8.,0.,0.,      143P    144
7.,0.,-0.785398163397448,0.785398163397449,0.,0.,0.;                 143P    145
126,1,1,0,0,1,0,-0.5,-0.5,0.5,0.5,1.,1.,0.,7.,0.,0.,7.,10.,-0.5,     145P    146
0.5,0.,0.,0.;                                                        145P    147
126,1,1,0,0,1,0,0.3,0.3,0.7,0.7,1.,1.,0.,3.,0.,0.,7.,0.,0.3,0.7,     147P    148
0.,0.,0.;                                                            147P    149
126,1,1,0,0,1,0,-0.5,-0.5,0.5,0.5,1.,1.,0.,3.,0.,0.,3.,10.,-0.5,     149P    150
0.5,0.,0.,0.;                                                        149P    151
126,1,1,0,0,1,0,-0.75,-0.75,-0.1,-0.1,1.,1.,7.5,8.,0.,1.,8.,0.,      151P    152
-0.75,-0.1,0.,0.,0.;                                                 151P    153
126,1,1,0,0,1,0,-0.2,-0.2,0.,0.,1.,1.,10.5,3.,0.,8.5,3.,0.,-0.2,     153P    154
0.,0.,0.,0.;                                                         153P    155
126,1,1,0,0,1,0,0.,0.,0.2,0.2,1.,1.,0.,3.,0.,-2.,3.,0.,0.,0.2,       155P    156
0.,0.,0.;                                                            155P    157
128,1,2,1,2,0,0,0,0,0,-1.,-1.,0.333333333333333,                     157P    158
0.333333333333333,-0.785398163397449,-0.785398163397449,             157P    159
-0.785398163397449,0.785398163397448,0.785398163397448,              157P    160
0.785398163397448,1.,1.,0.707106781186548,0.707106781186548,1.,      157P    161
1.,10.5,-1.,1.11022302462516D-15,10.5,3.,1.11022302462516D-15,       157P    162
13.5,-1.,1.66533453693773D-15,13.5,3.,1.66533453693773D-15,13.5,     157P    163
-1.,3.,13.5,3.,3.,-1.,0.333333333333333,-0.785398163397449,          157P    164
0.785398163397448;                                                   157P    165
128,1,1,1,1,0,0,1,0,0,0.,0.,1.,1.,-0.925,-0.925,0.925,0.925,1.,      159P    166
1.,1.,1.,-5.,-1.,10.,-5.,-1.,0.,13.5,-1.,10.,13.5,-1.,0.,0.,1.,      159P    167
-0.925,0.925;                                                        159P    168
128,1,1,1,1,0,0,1,0,0,1.3,1.3,1.7,1.7,-0.1,-0.1,0.3,0.3,1.,1.,       161P    169
1.,1.,13.5,-1.,7.,13.5,-1.,3.,13.5,3.,7.,13.5,3.,3.,1.3,1.7,         161P    170
-0.1,0.3;                                                            161P    171
128,1,2,1,2,0,0,0,0,0,-1.,-1.,0.333333333333333,                     163P    172
0.333333333333333,-0.785398163397448,-0.785398163397448,             163P    173
-0.785398163397448,0.785398163397449,0.785398163397449,              163P    174
0.785398163397449,1.,1.,0.707106781186547,0.707106781186547,1.,      163P    175
1.,13.5,-1.,7.,13.5,3.,7.,13.5,-1.,10.,13.5,3.,10.,10.5,-1.,10.,     163P    176
10.5,3.,10.,-1.,0.333333333333333,-0.785398163397448,                163P    177
0.785398163397449;                                                   163P    178
128,1,2,1,2,0,0,0,0,0,-0.333333333333333,-0.333333333333333,1.,      165P    179
1.,-0.785398163397448,-0.785398163397448,-0.785398163397448,         165P    180
0.785398163397448,0.785398163397448,0.785398163397448,1.,1.,         165P    181
0.707106781186548,0.707106781186548,1.,1.,-2.,3.,0.,-2.,-1.,0.,      165P    182
-5.,3.,0.,-5.,-1.,0.,-5.,3.,3.,-5.,-1.,3.,-0.333333333333333,1.,     165P    183
-0.785398163397448,0.785398163397448;                                165P    184
128,1,1,1,1,0,0,1,0,0,0.3,0.3,0.7,0.7,-0.1,-0.1,0.3,0.3,1.,1.,       167P    185
1.,1.,-5.,-1.,3.,-5.,-1.,7.,-5.,3.,3.,-5.,3.,7.,0.3,0.7,-0.1,        167P    186
0.3;                                                                 167P    187
128,1,2,1,2,0,0,0,0,0,-0.333333333333333,-0.333333333333333,1.,      169P    188
1.,-0.785398163397448,-0.785398163397448,-0.785398163397448,         169P    189
0.785398163397448,0.785398163397448,0.785398163397448,1.,1.,         169P    190
0.707106781186548,0.707106781186548,1.,1.,-5.,3.,7.,-5.,-1.,7.,      169P    191
-5.,3.,10.,-5.,-1.,10.,-2.,3.,10.,-2.,-1.,10.,                       169P    192
-0.333333333333333,1.,-0.785398163397448,0.785398163397448;          169P    193
128,1,1,1,1,0,0,1,0,0,-1.05,-1.05,0.2,0.2,-0.1,-0.1,0.8,0.8,1.,      171P    194
1.,1.,1.,-2.,-1.,10.,10.5,-1.,10.,-2.,8.,10.,10.5,8.,10.,-1.05,      171P    195
0.2,-0.1,0.8;                                                        171P    196
128,1,2,1,2,0,0,0,0,0,-5.,-5.,5.,5.,-0.785398163397448,              173P    197
-0.785398163397448,-0.785398163397448,0.785398163397448,             173P    198
0.785398163397448,0.785398163397448,1.,1.,0.707106781186548,         173P    199
0.707106781186548,1.,1.,7.5,8.,0.,7.5,8.,10.,8.5,8.,0.,8.5,8.,       173P    200
10.,8.5,7.,0.,8.5,7.,10.,-5.,5.,-0.785398163397448,                  173P    201
0.785398163397448;                                                   173P    202
128,1,1,1,1,0,0,1,0,0,0.,0.,1.,1.,0.3,0.3,0.7,0.7,1.,1.,1.,1.,       175P    203
8.5,3.,10.,8.5,3.,0.,8.5,7.,10.,8.5,7.,0.,0.,1.,0.3,0.7;             175P    204
128,1,2,1,2,0,0,0,0,0,-5.,-5.,5.,5.,-0.785398163397448,              177P    205
-0.785398163397448,-0.785398163397448,0.785398163397449,             177P    206
0.785398163397449,0.785398163397449,1.,1.,0.707106781186548,         177P    207
0.707106781186548,1.,1.,1.,8.,10.,1.,8.,5.55111512312578D-16,        177P    208
4.16333634234434D-16,8.,10.,4.16333634234434D-16,8.,                 177P    209
5.55111512312578D-16,-2.77555756156289D-16,7.,10.,                   177P    210
-2.77555756156289D-16,7.,5.55111512312578D-16,-5.,5.,                177P    211
-0.785398163397448,0.785398163397449;                                177P    212
128,1,1,1,1,0,0,1,0,0,0.,0.,1.,1.,0.3,0.3,0.7,0.7,1.,1.,1.,1.,       179P    213
0.,3.,0.,0.,3.,10.,0.,7.,0.,0.,7.,10.,0.,1.,0.3,0.7;                 179P    214
128,1,1,1,1,0,0,1,0,0,-1.,-1.,0.,0.,-0.325,-0.325,0.325,0.325,       181P    215
1.,1.,1.,1.,1.,8.,0.,1.,8.,10.,7.5,8.,0.,7.5,8.,10.,-1.,0.,          181P    216
-0.325,0.325;                                                        181P    217
128,1,1,1,1,0,0,1,0,0,0.425,0.425,0.925,0.925,0.,0.,1.,1.,1.,1.,     183P    218
1.,1.,8.5,3.,10.,13.5,3.,10.,8.5,3.,0.,13.5,3.,0.,0.425,0.925,       183P    219
0.,1.;                                                               183P    220
128,1,1,1,1,0,0,1,0,0,-0.925,-0.925,-0.425,-0.425,0.,0.,1.,1.,       185P    221
1.,1.,1.,1.,-5.,3.,10.,0.,3.,10.,-5.,3.,0.,0.,3.,0.,-0.925,          185P    222
-0.425,0.,1.;                                                        185P    223
128,1,1,1,1,0,0,1,0,0,0.3,0.3,1.55,1.55,-0.1,-0.1,0.8,0.8,1.,1.,     187P    224
1.,1.,10.5,-1.,0.,-2.,-1.,0.,10.5,8.,0.,-2.,8.,0.,0.3,1.55,-0.1,     187P    225
0.8;                                                                 187P    226
502,28,13.5,-1.,3.,10.5,-1.,0.,10.5,3.,0.,13.5,3.,3.,13.5,-1.,       189P    227
7.,10.5,-1.,10.,-2.,-1.,10.,-5.,-1.,7.,-5.,-1.,3.,-2.,-1.,0.,        189P    228
13.5,3.,7.,10.5,3.,10.,-5.,3.,3.,-2.,3.,0.,-5.,3.,7.,-2.,3.,10.,     189P    229
8.5,3.,10.,8.5,7.,10.,7.5,8.,10.,1.,8.,10.,0.,7.,10.,0.,3.,10.,      189P    230
8.5,7.,0.,7.5,8.,0.,8.5,3.,0.,1.,8.,0.,0.,7.,0.,0.,3.,0.;            189P    231
504,42,73,189,1,189,2,75,189,2,189,3,77,189,3,189,4,79,189,4,        191P    232
189,1,81,189,1,189,5,83,189,6,189,5,85,189,6,189,7,87,189,8,189,     191P    233
7,89,189,8,189,9,91,189,10,189,9,93,189,10,189,2,95,189,11,189,      191P    234
4,97,189,5,189,11,99,189,11,189,12,101,189,12,189,6,103,189,13,      191P    235
189,14,105,189,14,189,10,107,189,9,189,13,109,189,15,189,8,111,      191P    236
189,13,189,15,113,189,16,189,15,115,189,7,189,16,117,189,17,189,     191P    237
12,119,189,18,189,17,121,189,19,189,18,123,189,20,189,19,125,        191P    238
189,21,189,20,127,189,22,189,21,129,189,16,189,22,131,189,23,        191P    239
189,24,133,189,24,189,19,135,189,18,189,23,137,189,25,189,17,        191P    240
139,189,25,189,23,141,189,20,189,26,143,189,26,189,27,145,189,       191P    241
27,189,21,147,189,28,189,27,149,189,28,189,22,151,189,24,189,26,     191P    242
153,189,3,189,25,155,189,28,189,14;                                  191P    243
406,1,5HBody2;                                                       193P    244
406,1,19HCable fastener v4:1;                                        195P    245
314,0.,0.,0.,13HSemi-Polished;                                       197P    246
314,62.7450980392157,62.7450980392157,62.7450980392157,13HSteel      199P    247
- Satin;                                                             199P    248
S      1G      2D    200P    248                                        T      1
