                                                                        S      1
,,14HY_Axis_Mount_3,14HY_Axis_Mount_3,7Hunknown,7Hunknown,32,38,7,99,15,G      1
,1.,2,2HMM,1,0.08,15H20150214.155235,0.01,10000.,7Hunknown,7Hunknown,11,G      2
0,;                                                                     G      3
     186       1                                                00000000D      1
     186            -159       1       0                               0D      2
     514       2                                                00010000D      3
     514                       1       1                               0D      4
     510       3                                                00010000D      5
     510            -159       1       1                               0D      6
     510       4                                                00010000D      7
     510            -159       1       1                               0D      8
     510       5                                                00010000D      9
     510            -159       1       1                               0D     10
     510       6                                                00010000D     11
     510            -159       1       1                               0D     12
     510       7                                                00010000D     13
     510            -159       1       1                               0D     14
     510       8                                                00010000D     15
     510            -159       1       1                               0D     16
     510       9                                                00010000D     17
     510            -159       1       1                               0D     18
     510      10                                                00010000D     19
     510            -159       1       1                               0D     20
     510      11                                                00010000D     21
     510            -159       1       1                               0D     22
     510      12                                                00010000D     23
     510            -159       1       1                               0D     24
     510      13                                                00010000D     25
     510            -159       1       1                               0D     26
     510      14                                                00010000D     27
     510            -159       1       1                               0D     28
     508      15                                                00010000D     29
     508                       1       1                               0D     30
     508      16                                                00010000D     31
     508                       1       1                               0D     32
     508      17                                                00010000D     33
     508                       1       1                               0D     34
     508      18                                                00010000D     35
     508                       1       1                               0D     36
     508      19                                                00010000D     37
     508                       1       1                               0D     38
     508      20                                                00010000D     39
     508                       1       1                               0D     40
     508      21                                                00010000D     41
     508                       1       1                               0D     42
     508      22                                                00010000D     43
     508                       1       1                               0D     44
     508      23                                                00010000D     45
     508                       1       1                               0D     46
     508      24                                                00010000D     47
     508                       1       1                               0D     48
     508      25                                                00010000D     49
     508                       1       1                               0D     50
     508      26                                                00010000D     51
     508                       1       1                               0D     52
     508      27                                                00010000D     53
     508                       1       1                               0D     54
     508      28                                                00010000D     55
     508                       1       1                               0D     56
     508      29                                                00010000D     57
     508                       1       1                               0D     58
     508      30                                                00010000D     59
     508                       1       1                               0D     60
     508      31                                                00010000D     61
     508                       1       1                               0D     62
     508      32                                                00010000D     63
     508                       2       1                               0D     64
     508      34                                                00010000D     65
     508                       1       1                               0D     66
     508      35                                                00010000D     67
     508                       2       1                               0D     68
     126      37                                                00010000D     69
     126       0              10       0                               0D     70
     126      47                                                00010000D     71
     126       0               3       0                               0D     72
     126      50                                                00010000D     73
     126       0              10       0                               0D     74
     126      60                                                00010000D     75
     126       0              10       0                               0D     76
     126      70                                                00010000D     77
     126       0               3       0                               0D     78
     126      73                                                00010000D     79
     126       0              10       0                               0D     80
     126      83                                                00010000D     81
     126       0               3       0                               0D     82
     126      86                                                00010000D     83
     126       0               2       0                               0D     84
     126      88                                                00010000D     85
     126       0               3       0                               0D     86
     126      91                                                00010000D     87
     126       0               2       0                               0D     88
     126      93                                                00010000D     89
     126       0               3       0                               0D     90
     126      96                                                00010000D     91
     126       0               3       0                               0D     92
     126      99                                                00010000D     93
     126       0               2       0                               0D     94
     126     101                                                00010000D     95
     126       0               3       0                               0D     96
     126     104                                                00010000D     97
     126       0              10       0                               0D     98
     126     114                                                00010000D     99
     126       0              10       0                               0D    100
     126     124                                                00010000D    101
     126       0               2       0                               0D    102
     126     126                                                00010000D    103
     126       0               2       0                               0D    104
     126     128                                                00010000D    105
     126       0               2       0                               0D    106
     126     130                                                00010000D    107
     126       0               2       0                               0D    108
     126     132                                                00010000D    109
     126       0              10       0                               0D    110
     126     142                                                00010000D    111
     126       0              10       0                               0D    112
     126     152                                                00010000D    113
     126       0               2       0                               0D    114
     126     154                                                00010000D    115
     126       0               2       0                               0D    116
     126     156                                                00010000D    117
     126       0               2       0                               0D    118
     126     158                                                00010000D    119
     126       0               3       0                               0D    120
     126     161                                                00010000D    121
     126       0               4       0                               0D    122
     126     165                                                00010000D    123
     126       0               4       0                               0D    124
     126     169                                                00010000D    125
     126       0               3       0                               0D    126
     126     172                                                00010000D    127
     126       0               3       0                               0D    128
     128     175                                                00010000D    129
     128       0    -159      17       0                               0D    130
     128     192                                                00010000D    131
     128       0    -159      17       0                               0D    132
     128     209                                                00010000D    133
     128       0    -159       6       0                               0D    134
     128     215                                                00010000D    135
     128       0    -159       6       0                               0D    136
     128     221                                                00010000D    137
     128       0    -159       5       0                               0D    138
     128     226                                                00010000D    139
     128       0    -159       4       0                               0D    140
     128     230                                                00010000D    141
     128       0    -159       4       0                               0D    142
     128     234                                                00010000D    143
     128       0    -159      18       0                               0D    144
     128     252                                                00010000D    145
     128       0    -159      18       0                               0D    146
     128     270                                                00010000D    147
     128       0    -159       4       0                               0D    148
     128     274                                                00010000D    149
     128       0    -159       4       0                               0D    150
     128     278                                                00010000D    151
     128       0    -159       4       0                               0D    152
     502     282                                                00010000D    153
     502                      10       1                               0D    154
     504     292                                                00010001D    155
     504                       9       1                               0D    156
     406     301                                                00000000D    157
     406                       1      15                               0D    158
     314     302                                                00000200D    159
     314                       2       0                               0D    160
186,3,1,0,0,1,157;                                                     1P      1
514,12,5,1,7,1,9,1,11,1,13,1,15,1,17,1,19,1,21,1,23,1,25,1,27,1;       3P      2
510,129,1,1,29;                                                        5P      3
510,131,1,1,31;                                                        7P      4
510,133,1,1,33;                                                        9P      5
510,135,3,1,35,37,39;                                                 11P      6
510,137,3,1,41,43,45;                                                 13P      7
510,139,3,1,47,49,51;                                                 15P      8
510,141,3,1,53,55,57;                                                 17P      9
510,143,1,1,59;                                                       19P     10
510,145,1,1,61;                                                       21P     11
510,147,1,1,63;                                                       23P     12
510,149,1,1,65;                                                       25P     13
510,151,1,1,67;                                                       27P     14
508,4,0,155,1,0,0,0,155,2,1,0,0,155,3,0,0,0,155,2,0,0;                29P     15
508,4,0,155,4,0,0,0,155,5,1,0,0,155,6,0,0,0,155,5,0,0;                31P     16
508,4,0,155,7,1,0,0,155,8,1,0,0,155,9,1,0,0,155,10,1,0;               33P     17
508,4,0,155,11,0,0,0,155,12,1,0,0,155,13,1,0,0,155,14,1,0;            35P     18
508,1,0,155,15,1,0;                                                   37P     19
508,1,0,155,16,1,0;                                                   39P     20
508,4,0,155,17,0,0,0,155,18,1,0,0,155,19,1,0,0,155,20,0,0;            41P     21
508,1,0,155,21,1,0;                                                   43P     22
508,1,0,155,22,1,0;                                                   45P     23
508,4,0,155,23,1,0,0,155,10,0,0,0,155,24,0,0,0,155,18,0,0;            47P     24
508,1,0,155,3,1,0;                                                    49P     25
508,1,0,155,6,1,0;                                                    51P     26
508,4,0,155,11,1,0,0,155,25,1,0,0,155,8,0,0,0,155,26,0,0;             53P     27
508,1,0,155,1,1,0;                                                    55P     28
508,1,0,155,4,1,0;                                                    57P     29
508,4,0,155,16,0,0,0,155,27,1,0,0,155,22,0,0,0,155,27,0,0;            59P     30
508,4,0,155,15,0,0,0,155,28,1,0,0,155,21,0,0,0,155,28,0,0;            61P     31
508,6,0,155,17,1,0,0,155,29,1,0,0,155,12,0,0,0,155,26,1,0,0,155,      63P     32
7,0,0,0,155,23,0,0;                                                   63P     33
508,4,0,155,29,0,0,0,155,20,1,0,0,155,30,1,0,0,155,13,0,0;            65P     34
508,6,0,155,19,0,0,0,155,24,1,0,0,155,9,0,0,0,155,25,0,0,0,155,       67P     35
14,0,0,0,155,30,0,0;                                                  67P     36
126,8,2,0,1,0,0,-3.14159265358979,-3.14159265358979,                  69P     37
-3.14159265358979,-1.5707963267949,-1.5707963267949,0.,0.,            69P     38
1.5707963267949,1.5707963267949,3.14159265358979,                     69P     39
3.14159265358979,3.14159265358979,1.,0.70710678118653,1.,             69P     40
0.70710678118653,1.,0.70710678118653,1.,0.70710678118653,1.,94.,      69P     41
-147.,153.055683400051,95.5,-147.,153.055683400051,95.5,-147.,        69P     42
154.555683400051,95.5,-147.,156.055683400051,94.,-147.,               69P     43
156.055683400051,92.5,-147.,156.055683400051,92.5,-147.,              69P     44
154.555683400051,92.5,-147.,153.055683400051,94.,-147.,               69P     45
153.055683400051,-3.14159265358979,3.14159265358979,0.,0.,0.;         69P     46
126,1,1,0,0,1,0,0.,0.,3.33333333333333,3.33333333333333,1.,1.,        71P     47
94.,-147.,153.055683400051,94.,-152.,153.055683400051,0.,             71P     48
3.33333333333333,0.,0.,0.;                                            71P     49
126,8,2,0,1,0,0,-3.14159265358979,-3.14159265358979,                  73P     50
-3.14159265358979,-1.5707963267949,-1.5707963267949,0.,0.,            73P     51
1.5707963267949,1.5707963267949,3.14159265358979,                     73P     52
3.14159265358979,3.14159265358979,1.,0.70710678118653,1.,             73P     53
0.70710678118653,1.,0.70710678118653,1.,0.70710678118653,1.,94.,      73P     54
-152.,153.055683400051,92.5,-152.,153.055683400051,92.5,-152.,        73P     55
154.555683400051,92.5,-152.,156.055683400051,94.,-152.,               73P     56
156.055683400051,95.5,-152.,156.055683400051,95.5,-152.,              73P     57
154.555683400051,95.5,-152.,153.055683400051,94.,-152.,               73P     58
153.055683400051,-3.14159265358979,3.14159265358979,0.,0.,0.;         73P     59
126,8,2,0,1,0,0,-3.14159265358979,-3.14159265358979,                  75P     60
-3.14159265358979,-1.5707963267949,-1.5707963267949,0.,0.,            75P     61
1.5707963267949,1.5707963267949,3.14159265358979,                     75P     62
3.14159265358979,3.14159265358979,1.,0.707106781186578,1.,            75P     63
0.707106781186578,1.,0.707106781186578,1.,0.707106781186578,1.,       75P     64
84.,-147.,153.055683400051,85.5,-147.,153.055683400051,85.5,          75P     65
-147.,154.555683400051,85.5,-147.,156.055683400051,84.,-147.,         75P     66
156.055683400051,82.5,-147.,156.055683400051,82.5,-147.,              75P     67
154.555683400051,82.5,-147.,153.055683400051,84.,-147.,               75P     68
153.055683400051,-3.14159265358979,3.14159265358979,0.,0.,0.;         75P     69
126,1,1,0,0,1,0,0.,0.,3.33333333333337,3.33333333333337,1.,1.,        77P     70
84.,-147.,153.055683400051,84.,-152.,153.055683400051,0.,             77P     71
3.33333333333337,0.,0.,0.;                                            77P     72
126,8,2,0,1,0,0,-3.14159265358979,-3.14159265358979,                  79P     73
-3.14159265358979,-1.5707963267949,-1.5707963267949,0.,0.,            79P     74
1.5707963267949,1.5707963267949,3.14159265358979,                     79P     75
3.14159265358979,3.14159265358979,1.,0.707106781186578,1.,            79P     76
0.707106781186578,1.,0.707106781186578,1.,0.707106781186578,1.,       79P     77
84.,-152.,153.055683400051,82.5,-152.,153.055683400051,82.5,          79P     78
-152.,154.555683400051,82.5,-152.,156.055683400051,84.,-152.,         79P     79
156.055683400051,85.5,-152.,156.055683400051,85.5,-152.,              79P     80
154.555683400051,85.5,-152.,153.055683400051,84.,-152.,               79P     81
153.055683400051,-3.14159265358979,3.14159265358979,0.,0.,0.;         79P     82
126,1,1,0,0,1,0,-0.0999999999999996,-0.0999999999999996,0.4,0.4,      81P     83
1.,1.,100.,-152.,143.555683400051,100.,-147.,143.555683400051,        81P     84
-0.0999999999999996,0.4,0.,0.,0.;                                     81P     85
126,1,1,0,0,1,0,-1.8,-1.8,0.,0.,1.,1.,100.,-147.,                     83P     86
143.555683400051,100.,-147.,161.555683400051,-1.8,0.,0.,0.,0.;        83P     87
126,1,1,0,0,1,0,-0.0999999999999996,-0.0999999999999996,0.4,0.4,      85P     88
1.,1.,100.,-147.,161.555683400051,100.,-152.,161.555683400051,        85P     89
-0.0999999999999996,0.4,0.,0.,0.;                                     85P     90
126,1,1,0,0,1,0,-2.8,-2.8,-1.,-1.,1.,1.,100.,-152.,                   87P     91
161.555683400051,100.,-152.,143.555683400051,-2.8,-1.,0.,0.,0.;       87P     92
126,1,1,0,0,1,0,-0.399999999999999,-0.399999999999999,1.4,1.4,        89P     93
1.,1.,72.,-147.,143.555683400051,72.,-147.,161.555683400051,          89P     94
-0.399999999999999,1.4,0.,0.,0.;                                      89P     95
126,1,1,0,0,1,0,0.0999999999999996,0.0999999999999996,1.,1.,1.,       91P     96
1.,72.,-147.,143.555683400051,72.,-138.,143.555683400051,             91P     97
0.0999999999999996,1.,0.,0.,0.;                                       91P     98
126,1,1,0,0,1,0,0.,0.,1.8,1.8,1.,1.,72.,-138.,143.555683400051,       93P     99
72.,-138.,161.555683400051,0.,1.8,0.,0.,0.;                           93P    100
126,1,1,0,0,1,0,-1.,-1.,-0.0999999999999996,-0.0999999999999996,      95P    101
1.,1.,72.,-138.,161.555683400051,72.,-147.,161.555683400051,-1.,      95P    102
-0.0999999999999996,0.,0.,0.;                                         95P    103
126,8,2,0,1,0,0,-3.14159265358979,-3.14159265358979,                  97P    104
-3.14159265358979,-1.5707963267949,-1.5707963267949,0.,0.,            97P    105
1.5707963267949,1.5707963267949,3.14159265358979,                     97P    106
3.14159265358979,3.14159265358979,1.,0.70710678118653,1.,             97P    107
0.70710678118653,1.,0.70710678118653,1.,0.70710678118653,1.,72.,      97P    108
-143.,158.055683400051,72.,-141.5,158.055683400051,72.,-141.5,        97P    109
156.555683400051,72.,-141.5,155.055683400051,72.,-143.,               97P    110
155.055683400051,72.,-144.5,155.055683400051,72.,-144.5,              97P    111
156.555683400051,72.,-144.5,158.055683400051,72.,-143.,               97P    112
158.055683400051,-3.14159265358979,3.14159265358979,0.,0.,0.;         97P    113
126,8,2,0,1,0,0,-3.14159265358979,-3.14159265358979,                  99P    114
-3.14159265358979,-1.5707963267949,-1.5707963267949,0.,0.,            99P    115
1.5707963267949,1.5707963267949,3.14159265358979,                     99P    116
3.14159265358979,3.14159265358979,1.,0.70710678118653,1.,             99P    117
0.70710678118653,1.,0.70710678118653,1.,0.70710678118653,1.,72.,      99P    118
-143.,150.055683400051,72.,-141.5,150.055683400051,72.,-141.5,        99P    119
148.555683400051,72.,-141.5,147.055683400051,72.,-143.,               99P    120
147.055683400051,72.,-144.5,147.055683400051,72.,-144.5,              99P    121
148.555683400051,72.,-144.5,150.055683400051,72.,-143.,               99P    122
150.055683400051,-3.14159265358979,3.14159265358979,0.,0.,0.;         99P    123
126,1,1,0,0,1,0,-0.4,-0.4,1.,1.,1.,1.,67.,-152.,                     101P    124
143.555683400051,67.,-138.,143.555683400051,-0.4,1.,0.,0.,0.;        101P    125
126,1,1,0,0,1,0,1.,1.,2.8,2.8,1.,1.,67.,-152.,143.555683400051,      103P    126
67.,-152.,161.555683400051,1.,2.8,0.,0.,0.;                          103P    127
126,1,1,0,0,1,0,-0.4,-0.4,1.,1.,1.,1.,67.,-152.,                     105P    128
161.555683400051,67.,-138.,161.555683400051,-0.4,1.,0.,0.,0.;        105P    129
126,1,1,0,0,1,0,-1.8,-1.8,0.,0.,1.,1.,67.,-138.,                     107P    130
143.555683400051,67.,-138.,161.555683400051,-1.8,0.,0.,0.,0.;        107P    131
126,8,2,0,1,0,0,-3.14159265358979,-3.14159265358979,                 109P    132
-3.14159265358979,-1.5707963267949,-1.5707963267949,0.,0.,           109P    133
1.5707963267949,1.5707963267949,3.14159265358979,                    109P    134
3.14159265358979,3.14159265358979,1.,0.70710678118653,1.,            109P    135
0.70710678118653,1.,0.70710678118653,1.,0.70710678118653,1.,67.,     109P    136
-143.,158.055683400051,67.,-144.5,158.055683400051,67.,-144.5,       109P    137
156.555683400051,67.,-144.5,155.055683400051,67.,-143.,              109P    138
155.055683400051,67.,-141.5,155.055683400051,67.,-141.5,             109P    139
156.555683400051,67.,-141.5,158.055683400051,67.,-143.,              109P    140
158.055683400051,-3.14159265358979,3.14159265358979,0.,0.,0.;        109P    141
126,8,2,0,1,0,0,-3.14159265358979,-3.14159265358979,                 111P    142
-3.14159265358979,-1.5707963267949,-1.5707963267949,0.,0.,           111P    143
1.5707963267949,1.5707963267949,3.14159265358979,                    111P    144
3.14159265358979,3.14159265358979,1.,0.70710678118653,1.,            111P    145
0.70710678118653,1.,0.70710678118653,1.,0.70710678118653,1.,67.,     111P    146
-143.,150.055683400051,67.,-144.5,150.055683400051,67.,-144.5,       111P    147
148.555683400051,67.,-144.5,147.055683400051,67.,-143.,              111P    148
147.055683400051,67.,-141.5,147.055683400051,67.,-141.5,             111P    149
148.555683400051,67.,-141.5,150.055683400051,67.,-143.,              111P    150
150.055683400051,-3.14159265358979,3.14159265358979,0.,0.,0.;        111P    151
126,1,1,0,0,1,0,0.,0.,3.3,3.3,1.,1.,67.,-152.,143.555683400051,      113P    152
100.,-152.,143.555683400051,0.,3.3,0.,0.,0.;                         113P    153
126,1,1,0,0,1,0,0.,0.,3.3,3.3,1.,1.,67.,-152.,161.555683400051,      115P    154
100.,-152.,161.555683400051,0.,3.3,0.,0.,0.;                         115P    155
126,1,1,0,0,1,0,0.5,0.5,3.3,3.3,1.,1.,72.,-147.,                     117P    156
161.555683400051,100.,-147.,161.555683400051,0.5,3.3,0.,0.,0.;       117P    157
126,1,1,0,0,1,0,-2.1,-2.1,0.699999999999999,0.699999999999999,       119P    158
1.,1.,72.,-147.,143.555683400051,100.,-147.,143.555683400051,        119P    159
-2.1,0.699999999999999,0.,0.,0.;                                     119P    160
126,1,1,0,0,1,0,-0.666666666666663,-0.666666666666663,               121P    161
2.66666666666666,2.66666666666666,1.,1.,72.,-143.,                   121P    162
150.055683400051,67.,-143.,150.055683400051,-0.666666666666663,      121P    163
2.66666666666666,0.,0.,0.;                                           121P    164
126,1,1,0,0,1,0,-0.666666666666663,-0.666666666666663,               123P    165
2.66666666666666,2.66666666666666,1.,1.,72.,-143.,                   123P    166
158.055683400051,67.,-143.,158.055683400051,-0.666666666666663,      123P    167
2.66666666666666,0.,0.,0.;                                           123P    168
126,1,1,0,0,1,0,-0.4,-0.4,0.0999999999999996,0.0999999999999996,     125P    169
1.,1.,67.,-138.,143.555683400051,72.,-138.,143.555683400051,         125P    170
-0.4,0.0999999999999996,0.,0.,0.;                                    125P    171
126,1,1,0,0,1,0,-0.4,-0.4,0.0999999999999996,0.0999999999999996,     127P    172
1.,1.,67.,-138.,161.555683400051,72.,-138.,161.555683400051,         127P    173
-0.4,0.0999999999999996,0.,0.,0.;                                    127P    174
128,1,8,1,2,0,1,0,0,1,0.,0.,3.33333333333333,3.33333333333333,       129P    175
-3.14159265358979,-3.14159265358979,-3.14159265358979,               129P    176
-1.5707963267949,-1.5707963267949,0.,0.,1.5707963267949,             129P    177
1.5707963267949,3.14159265358979,3.14159265358979,                   129P    178
3.14159265358979,1.,1.,0.707106781186548,0.707106781186548,1.,       129P    179
1.,0.707106781186548,0.707106781186548,1.,1.,0.707106781186548,      129P    180
0.707106781186548,1.,1.,0.707106781186548,0.707106781186548,1.,      129P    181
1.,94.,-147.,153.055683400051,94.,-152.,153.055683400051,95.5,       129P    182
-147.,153.055683400051,95.5,-152.,153.055683400051,95.5,-147.,       129P    183
154.555683400051,95.5,-152.,154.555683400051,95.5,-147.,             129P    184
156.055683400051,95.5,-152.,156.055683400051,94.,-147.,              129P    185
156.055683400051,94.,-152.,156.055683400051,92.5,-147.,              129P    186
156.055683400051,92.5,-152.,156.055683400051,92.5,-147.,             129P    187
154.555683400051,92.5,-152.,154.555683400051,92.5,-147.,             129P    188
153.055683400051,92.5,-152.,153.055683400051,94.,-147.,              129P    189
153.055683400051,94.,-152.,153.055683400051,0.,3.33333333333333,     129P    190
-3.14159265358979,3.14159265358979;                                  129P    191
128,1,8,1,2,0,1,0,0,1,0.,0.,3.33333333333337,3.33333333333337,       131P    192
-3.14159265358979,-3.14159265358979,-3.14159265358979,               131P    193
-1.5707963267949,-1.5707963267949,0.,0.,1.5707963267949,             131P    194
1.5707963267949,3.14159265358979,3.14159265358979,                   131P    195
3.14159265358979,1.,1.,0.707106781186548,0.707106781186548,1.,       131P    196
1.,0.707106781186548,0.707106781186548,1.,1.,0.707106781186548,      131P    197
0.707106781186548,1.,1.,0.707106781186548,0.707106781186548,1.,      131P    198
1.,84.,-147.,153.055683400051,84.,-152.,153.055683400051,85.5,       131P    199
-147.,153.055683400051,85.5,-152.,153.055683400051,85.5,-147.,       131P    200
154.555683400051,85.5,-152.,154.555683400051,85.5,-147.,             131P    201
156.055683400051,85.5,-152.,156.055683400051,84.,-147.,              131P    202
156.055683400051,84.,-152.,156.055683400051,82.5,-147.,              131P    203
156.055683400051,82.5,-152.,156.055683400051,82.5,-147.,             131P    204
154.555683400051,82.5,-152.,154.555683400051,82.5,-147.,             131P    205
153.055683400051,82.5,-152.,153.055683400051,84.,-147.,              131P    206
153.055683400051,84.,-152.,153.055683400051,0.,3.33333333333337,     131P    207
-3.14159265358979,3.14159265358979;                                  131P    208
128,1,1,1,1,0,0,1,0,0,-1.4,-1.4,0.400000000000002,                   133P    209
0.400000000000002,-0.200000000000001,-0.200000000000001,             133P    210
0.299999999999999,0.299999999999999,1.,1.,1.,1.,100.,-152.,          133P    211
161.555683400051,100.,-152.,143.555683400051,100.,-147.,             133P    212
161.555683400051,100.,-147.,143.555683400051,-1.4,                   133P    213
0.400000000000002,-0.200000000000001,0.299999999999999;              133P    214
128,1,1,1,1,0,0,1,0,0,-2.22044604925031D-16,                         135P    215
-2.22044604925031D-16,1.8,1.8,0.0999999999999996,                    135P    216
0.0999999999999996,1.,1.,1.,1.,1.,1.,72.,-147.,161.555683400051,     135P    217
72.,-147.,143.555683400051,72.,-138.,161.555683400051,72.,-138.,     135P    218
143.555683400051,-2.22044604925031D-16,1.8,0.0999999999999996,       135P    219
1.;                                                                  135P    220
128,1,1,1,1,0,0,1,0,0,-0.200000000000001,-0.200000000000001,1.2,     137P    221
1.2,-0.400000000000002,-0.400000000000002,1.4,1.4,1.,1.,1.,1.,       137P    222
67.,-138.,143.555683400051,67.,-152.,143.555683400051,67.,-138.,     137P    223
161.555683400051,67.,-152.,161.555683400051,-0.200000000000001,      137P    224
1.2,-0.400000000000002,1.4;                                          137P    225
128,1,1,1,1,0,0,1,0,0,0.,0.,1.8,1.8,0.,0.,3.3,3.3,1.,1.,1.,1.,       139P    226
67.,-152.,161.555683400051,67.,-152.,143.555683400051,100.,          139P    227
-152.,161.555683400051,100.,-152.,143.555683400051,0.,1.8,0.,        139P    228
3.3;                                                                 139P    229
128,1,1,1,1,0,0,1,0,0,1.,1.,2.8,2.8,0.5,0.5,3.3,3.3,1.,1.,1.,1.,     141P    230
72.,-147.,143.555683400051,72.,-147.,161.555683400051,100.,          141P    231
-147.,143.555683400051,100.,-147.,161.555683400051,1.,2.8,0.5,       141P    232
3.3;                                                                 141P    233
128,1,8,1,2,0,1,0,0,1,-0.666666666666663,-0.666666666666663,         143P    234
2.66666666666666,2.66666666666666,-3.14159265358979,                 143P    235
-3.14159265358979,-3.14159265358979,-1.5707963267949,                143P    236
-1.5707963267949,0.,0.,1.5707963267949,1.5707963267949,              143P    237
3.14159265358979,3.14159265358979,3.14159265358979,1.,1.,            143P    238
0.707106781186548,0.707106781186548,1.,1.,0.707106781186548,         143P    239
0.707106781186548,1.,1.,0.707106781186548,0.707106781186548,1.,      143P    240
1.,0.707106781186548,0.707106781186548,1.,1.,72.,-143.,              143P    241
150.055683400051,67.,-143.,150.055683400051,72.,-141.5,              143P    242
150.055683400051,67.,-141.5,150.055683400051,72.,-141.5,             143P    243
148.555683400051,67.,-141.5,148.555683400051,72.,-141.5,             143P    244
147.055683400051,67.,-141.5,147.055683400051,72.,-143.,              143P    245
147.055683400051,67.,-143.,147.055683400051,72.,-144.5,              143P    246
147.055683400051,67.,-144.5,147.055683400051,72.,-144.5,             143P    247
148.555683400051,67.,-144.5,148.555683400051,72.,-144.5,             143P    248
150.055683400051,67.,-144.5,150.055683400051,72.,-143.,              143P    249
150.055683400051,67.,-143.,150.055683400051,-0.666666666666663,      143P    250
2.66666666666666,-3.14159265358979,3.14159265358979;                 143P    251
128,1,8,1,2,0,1,0,0,1,-0.666666666666663,-0.666666666666663,         145P    252
2.66666666666666,2.66666666666666,-3.14159265358979,                 145P    253
-3.14159265358979,-3.14159265358979,-1.5707963267949,                145P    254
-1.5707963267949,0.,0.,1.5707963267949,1.5707963267949,              145P    255
3.14159265358979,3.14159265358979,3.14159265358979,1.,1.,            145P    256
0.707106781186548,0.707106781186548,1.,1.,0.707106781186548,         145P    257
0.707106781186548,1.,1.,0.707106781186548,0.707106781186548,1.,      145P    258
1.,0.707106781186548,0.707106781186548,1.,1.,72.,-143.,              145P    259
158.055683400051,67.,-143.,158.055683400051,72.,-141.5,              145P    260
158.055683400051,67.,-141.5,158.055683400051,72.,-141.5,             145P    261
156.555683400051,67.,-141.5,156.555683400051,72.,-141.5,             145P    262
155.055683400051,67.,-141.5,155.055683400051,72.,-143.,              145P    263
155.055683400051,67.,-143.,155.055683400051,72.,-144.5,              145P    264
155.055683400051,67.,-144.5,155.055683400051,72.,-144.5,             145P    265
156.555683400051,67.,-144.5,156.555683400051,72.,-144.5,             145P    266
158.055683400051,67.,-144.5,158.055683400051,72.,-143.,              145P    267
158.055683400051,67.,-143.,158.055683400051,-0.666666666666663,      145P    268
2.66666666666666,-3.14159265358979,3.14159265358979;                 145P    269
128,1,1,1,1,0,0,1,0,0,-2.9,-2.9,0.4,0.4,-0.4,-0.4,1.,1.,1.,1.,       147P    270
1.,1.,100.,-152.,143.555683400051,67.,-152.,143.555683400051,        147P    271
100.,-138.,143.555683400051,67.,-138.,143.555683400051,-2.9,0.4,     147P    272
-0.4,1.;                                                             147P    273
128,1,1,1,1,0,0,1,0,0,-0.9,-0.9,0.9,0.9,-0.2,-0.2,0.3,0.3,1.,1.,     149P    274
1.,1.,67.,-138.,143.555683400051,67.,-138.,161.555683400051,72.,     149P    275
-138.,143.555683400051,72.,-138.,161.555683400051,-0.9,0.9,-0.2,     149P    276
0.3;                                                                 149P    277
128,1,1,1,1,0,0,1,0,0,-1.,-1.,0.4,0.4,0.,0.,3.3,3.3,1.,1.,1.,1.,     151P    278
67.,-138.,161.555683400051,67.,-152.,161.555683400051,100.,          151P    279
-138.,161.555683400051,100.,-152.,161.555683400051,-1.,0.4,0.,       151P    280
3.3;                                                                 151P    281
502,20,94.,-147.,153.055683400051,94.,-152.,153.055683400051,        153P    282
84.,-147.,153.055683400051,84.,-152.,153.055683400051,100.,          153P    283
-152.,143.555683400051,100.,-147.,143.555683400051,100.,-147.,       153P    284
161.555683400051,100.,-152.,161.555683400051,72.,-147.,              153P    285
143.555683400051,72.,-147.,161.555683400051,72.,-138.,               153P    286
143.555683400051,72.,-138.,161.555683400051,72.,-143.,               153P    287
158.055683400051,72.,-143.,150.055683400051,67.,-152.,               153P    288
143.555683400051,67.,-138.,143.555683400051,67.,-152.,               153P    289
161.555683400051,67.,-138.,161.555683400051,67.,-143.,               153P    290
158.055683400051,67.,-143.,150.055683400051;                         153P    291
504,30,69,153,1,153,1,71,153,1,153,2,73,153,2,153,2,75,153,3,        155P    292
153,3,77,153,3,153,4,79,153,4,153,4,81,153,5,153,6,83,153,6,153,     155P    293
7,85,153,7,153,8,87,153,8,153,5,89,153,9,153,10,91,153,9,153,11,     155P    294
93,153,11,153,12,95,153,12,153,10,97,153,13,153,13,99,153,14,        155P    295
153,14,101,153,15,153,16,103,153,15,153,17,105,153,17,153,18,        155P    296
107,153,16,153,18,109,153,19,153,19,111,153,20,153,20,113,153,       155P    297
15,153,5,115,153,17,153,8,117,153,10,153,7,119,153,9,153,6,121,      155P    298
153,14,153,20,123,153,13,153,19,125,153,16,153,11,127,153,18,        155P    299
153,12;                                                              155P    300
406,1,5HBody1;                                                       157P    301
314,62.7450980392157,62.7450980392157,62.7450980392157,13HSteel      159P    302
- Satin;                                                             159P    303
S      1G      3D    160P    303                                        T      1
