                                                                        S      1
,,18HY_Carriage_Right_4,18HY_Carriage_Right_4,7Hunknown,7Hunknown,32,38,G      1
7,99,15,,1.,2,2HMM,1,0.08,15H20150418.182936,0.01,10000.,7Hunknown,7HunkG      2
nown,11,0,;                                                             G      3
     186       1                                                00000000D      1
     186            -179       1       0                               0D      2
     514       2                                                00010000D      3
     514                       2       1                               0D      4
     510       4                                                00010000D      5
     510            -179       1       1                               0D      6
     510       5                                                00010000D      7
     510            -179       1       1                               0D      8
     510       6                                                00010000D      9
     510            -179       1       1                               0D     10
     510       7                                                00010000D     11
     510            -179       1       1                               0D     12
     510       8                                                00010000D     13
     510            -179       1       1                               0D     14
     510       9                                                00010000D     15
     510            -179       1       1                               0D     16
     510      10                                                00010000D     17
     510            -179       1       1                               0D     18
     510      11                                                00010000D     19
     510            -179       1       1                               0D     20
     510      12                                                00010000D     21
     510            -179       1       1                               0D     22
     510      13                                                00010000D     23
     510            -179       1       1                               0D     24
     510      14                                                00010000D     25
     510            -179       1       1                               0D     26
     510      15                                                00010000D     27
     510            -179       1       1                               0D     28
     510      16                                                00010000D     29
     510            -179       1       1                               0D     30
     508      17                                                00010000D     31
     508                       1       1                               0D     32
     508      18                                                00010000D     33
     508                       2       1                               0D     34
     508      20                                                00010000D     35
     508                       1       1                               0D     36
     508      21                                                00010000D     37
     508                       1       1                               0D     38
     508      22                                                00010000D     39
     508                       1       1                               0D     40
     508      23                                                00010000D     41
     508                       1       1                               0D     42
     508      24                                                00010000D     43
     508                       2       1                               0D     44
     508      26                                                00010000D     45
     508                       1       1                               0D     46
     508      27                                                00010000D     47
     508                       1       1                               0D     48
     508      28                                                00010000D     49
     508                       1       1                               0D     50
     508      29                                                00010000D     51
     508                       2       1                               0D     52
     508      31                                                00010000D     53
     508                       2       1                               0D     54
     508      33                                                00010000D     55
     508                       1       1                               0D     56
     508      34                                                00010000D     57
     508                       1       1                               0D     58
     508      35                                                00010000D     59
     508                       1       1                               0D     60
     508      36                                                00010000D     61
     508                       2       1                               0D     62
     508      38                                                00010000D     63
     508                       2       1                               0D     64
     508      40                                                00010000D     65
     508                       1       1                               0D     66
     508      41                                                00010000D     67
     508                       1       1                               0D     68
     508      42                                                00010000D     69
     508                       1       1                               0D     70
     508      43                                                00010000D     71
     508                       1       1                               0D     72
     126      44                                                00010000D     73
     126       0               7       0                               0D     74
     126      51                                                00010000D     75
     126       0               3       0                               0D     76
     126      54                                                00010000D     77
     126       0               7       0                               0D     78
     126      61                                                00010000D     79
     126       0               3       0                               0D     80
     126      64                                                00010000D     81
     126       0               3       0                               0D     82
     126      67                                                00010000D     83
     126       0               4       0                               0D     84
     126      71                                                00010000D     85
     126       0               3       0                               0D     86
     126      74                                                00010000D     87
     126       0               3       0                               0D     88
     126      77                                                00010000D     89
     126       0               3       0                               0D     90
     126      80                                                00010000D     91
     126       0               6       0                               0D     92
     126      86                                                00010000D     93
     126       0              13       0                               0D     94
     126      99                                                00010000D     95
     126       0               6       0                               0D     96
     126     105                                                00010000D     97
     126       0              13       0                               0D     98
     126     118                                                00010000D     99
     126       0              15       0                               0D    100
     126     133                                                00010000D    101
     126       0              15       0                               0D    102
     126     148                                                00010000D    103
     126       0               3       0                               0D    104
     126     151                                                00010000D    105
     126       0               3       0                               0D    106
     126     154                                                00010000D    107
     126       0               3       0                               0D    108
     126     157                                                00010000D    109
     126       0               4       0                               0D    110
     126     161                                                00010000D    111
     126       0               3       0                               0D    112
     126     164                                                00010000D    113
     126       0               3       0                               0D    114
     126     167                                                00010000D    115
     126       0               3       0                               0D    116
     126     170                                                00010000D    117
     126       0               3       0                               0D    118
     126     173                                                00010000D    119
     126       0               3       0                               0D    120
     126     176                                                00010000D    121
     126       0               4       0                               0D    122
     126     180                                                00010000D    123
     126       0              13       0                               0D    124
     126     193                                                00010000D    125
     126       0               6       0                               0D    126
     126     199                                                00010000D    127
     126       0               4       0                               0D    128
     126     203                                                00010000D    129
     126       0              13       0                               0D    130
     126     216                                                00010000D    131
     126       0               6       0                               0D    132
     126     222                                                00010000D    133
     126       0               4       0                               0D    134
     126     226                                                00010000D    135
     126       0              15       0                               0D    136
     126     241                                                00010000D    137
     126       0               4       0                               0D    138
     126     245                                                00010000D    139
     126       0              15       0                               0D    140
     126     260                                                00010000D    141
     126       0               3       0                               0D    142
     126     263                                                00010000D    143
     126       0               3       0                               0D    144
     126     266                                                00010000D    145
     126       0               3       0                               0D    146
     128     269                                                00010000D    147
     128       0    -179      11       0                               0D    148
     128     280                                                00010000D    149
     128       0    -179       6       0                               0D    150
     128     286                                                00010000D    151
     128       0    -179       5       0                               0D    152
     128     291                                                00010000D    153
     128       0    -179       5       0                               0D    154
     128     296                                                00010000D    155
     128       0    -179       6       0                               0D    156
     128     302                                                00010000D    157
     128       0    -179       6       0                               0D    158
     128     308                                                00010000D    159
     128       0    -179      26       0                               0D    160
     128     334                                                00010000D    161
     128       0    -179      26       0                               0D    162
     128     360                                                00010000D    163
     128       0    -179      26       0                               0D    164
     128     386                                                00010000D    165
     128       0    -179      26       0                               0D    166
     128     412                                                00010000D    167
     128       0    -179       6       0                               0D    168
     128     418                                                00010000D    169
     128       0    -179       6       0                               0D    170
     128     424                                                00010000D    171
     128       0    -179       6       0                               0D    172
     502     430                                                00010000D    173
     502                      26       1                               0D    174
     504     456                                                00010001D    175
     504                      11       1                               0D    176
     406     467                                                00000000D    177
     406                       1      15                               0D    178
     314     468                                                00000200D    179
     314                       2       0                               0D    180
186,3,1,0,0,1,177;                                                     1P      1
514,13,5,1,7,1,9,1,11,1,13,1,15,1,17,1,19,1,21,1,23,1,25,1,27,1,       3P      2
29,1;                                                                  3P      3
510,147,1,1,31;                                                        5P      4
510,149,5,1,33,35,37,39,41;                                            7P      5
510,151,1,1,43;                                                        9P      6
510,153,1,1,45;                                                       11P      7
510,155,1,1,47;                                                       13P      8
510,157,1,1,49;                                                       15P      9
510,159,1,1,51;                                                       17P     10
510,161,1,1,53;                                                       19P     11
510,163,1,1,55;                                                       21P     12
510,165,1,1,57;                                                       23P     13
510,167,1,1,59;                                                       25P     14
510,169,1,1,61;                                                       27P     15
510,171,5,1,63,65,67,69,71;                                           29P     16
508,4,0,175,1,1,0,0,175,2,1,0,0,175,3,1,0,0,175,4,1,0;                31P     17
508,6,0,175,2,0,0,0,175,5,1,0,0,175,6,1,0,0,175,7,1,0,0,175,8,1,      33P     18
0,0,175,9,1,0;                                                        33P     19
508,2,0,175,10,1,0,0,175,11,1,0;                                      35P     20
508,2,0,175,12,1,0,0,175,13,1,0;                                      37P     21
508,1,0,175,14,1,0;                                                   39P     22
508,1,0,175,15,1,0;                                                   41P     23
508,5,0,175,1,0,0,0,175,16,0,0,0,175,17,1,0,0,175,18,1,0,0,175,       43P     24
5,0,0;                                                                43P     25
508,4,0,175,19,0,0,0,175,20,0,0,0,175,6,0,0,0,175,18,0,0;             45P     26
508,4,0,175,21,0,0,0,175,22,0,0,0,175,7,0,0,0,175,20,1,0;             47P     27
508,4,0,175,22,1,0,0,175,23,1,0,0,175,24,1,0,0,175,8,0,0;             49P     28
508,6,0,175,10,0,0,0,175,11,0,0,0,175,25,1,0,0,175,26,1,0,0,175,      51P     29
27,1,0,0,175,25,0,0;                                                  51P     30
508,6,0,175,12,0,0,0,175,13,0,0,0,175,28,1,0,0,175,29,1,0,0,175,      53P     31
30,1,0,0,175,28,0,0;                                                  53P     32
508,4,0,175,14,0,0,0,175,31,1,0,0,175,32,1,0,0,175,31,0,0;            55P     33
508,4,0,175,15,0,0,0,175,33,1,0,0,175,34,1,0,0,175,33,0,0;            57P     34
508,4,0,175,4,0,0,0,175,35,0,0,0,175,36,1,0,0,175,16,1,0;             59P     35
508,5,0,175,3,0,0,0,175,9,0,0,0,175,24,0,0,0,175,37,1,0,0,175,        61P     36
35,1,0;                                                               61P     37
508,6,0,175,19,1,0,0,175,17,0,0,0,175,36,0,0,0,175,37,0,0,0,175,      63P     38
23,0,0,0,175,21,1,0;                                                  63P     39
508,1,0,175,34,0,0;                                                   65P     40
508,1,0,175,32,0,0;                                                   67P     41
508,2,0,175,30,0,0,0,175,29,0,0;                                      69P     42
508,2,0,175,27,0,0,0,175,26,0,0;                                      71P     43
126,2,2,0,0,0,0,-0.785398163397449,-0.785398163397449,                73P     44
-0.785398163397449,0.785398163397448,0.785398163397448,               73P     45
0.785398163397448,1.,0.707106781186547,1.,42.500002861023,            73P     46
-81.2499997615814,15.6250002384186,42.500002861023,                   73P     47
-81.2499997615814,11.6250002384186,38.500002861023,                   73P     48
-81.2499997615814,11.6250002384186,-0.785398163397449,                73P     49
0.785398163397448,0.,0.,0.;                                           73P     50
126,1,1,0,0,1,0,-3.525,-3.525,1.175,1.175,1.,1.,38.500002861023,      75P     51
-81.2499997615814,11.6250002384186,38.500002861023,                   75P     52
-34.2499997615814,11.6250002384186,-3.525,1.175,0.,0.,0.;             75P     53
126,2,2,0,0,0,0,-0.785398163397449,-0.785398163397449,                77P     54
-0.785398163397449,0.785398163397449,0.785398163397449,               77P     55
0.785398163397449,1.,0.707106781186548,1.,38.500002861023,            77P     56
-34.2499997615814,11.6250002384186,42.500002861023,                   77P     57
-34.2499997615814,11.6250002384186,42.500002861023,                   77P     58
-34.2499997615814,15.6250002384186,-0.785398163397449,                77P     59
0.785398163397449,0.,0.,0.;                                           77P     60
126,1,1,0,0,1,0,-1.175,-1.175,3.525,3.525,1.,1.,42.500002861023,      79P     61
-34.2499997615814,15.6250002384186,42.500002861023,                   79P     62
-81.2499997615814,15.6250002384186,-1.175,3.525,0.,0.,0.;             79P     63
126,1,1,0,0,1,0,0.4,0.4,1.,1.,1.,1.,38.500002861023,                  81P     64
-81.2499997615814,11.6250002384186,32.500002861023,                   81P     65
-81.2499997615814,11.6250002384186,0.4,1.,0.,0.,0.;                   81P     66
126,1,1,0,0,1,0,-1.175,-1.175,0.824999999999999,                      83P     67
0.824999999999999,1.,1.,32.500002861023,-81.2499997615814,            83P     68
11.6250002384186,32.500002861023,-61.2499997615814,                   83P     69
11.6250002384186,-1.175,0.824999999999999,0.,0.,0.;                   83P     70
126,1,1,0,0,1,0,-0.65,-0.65,2.95,2.95,1.,1.,32.500002861023,          85P     71
-61.2499997615814,11.6250002384186,-3.49999713897701,                 85P     72
-61.2499997615814,11.6250002384186,-0.65,2.95,0.,0.,0.;               85P     73
126,1,1,0,0,1,0,2.,2.,4.7,4.7,1.,1.,-3.49999713897701,                87P     74
-61.2499997615814,11.6250002384186,-3.49999713897701,                 87P     75
-34.2499997615814,11.6250002384186,2.,4.7,0.,0.,0.;                   87P     76
126,1,1,0,0,1,0,0.,0.,4.2,4.2,1.,1.,-3.49999713897701,                89P     77
-34.2499997615814,11.6250002384186,38.500002861023,                   89P     78
-34.2499997615814,11.6250002384186,0.,4.2,0.,0.,0.;                   89P     79
126,2,2,0,0,0,0,1.5707963267949,1.5707963267949,1.5707963267949,      91P     80
3.14159265358979,3.14159265358979,3.14159265358979,1.,                91P     81
0.707106781186545,1.,-0.499997138977011,-39.7499997615814,            91P     82
11.6250002384186,1.00000286102299,-39.7499997615814,                  91P     83
11.6250002384186,1.00000286102299,-38.2499997615814,                  91P     84
11.6250002384186,1.5707963267949,3.14159265358979,0.,0.,0.;           91P     85
126,6,2,0,0,0,0,3.14159265358979,3.14159265358979,                    93P     86
3.14159265358979,4.71238898038469,4.71238898038469,                   93P     87
6.28318530717959,6.28318530717959,7.85398163397448,                   93P     88
7.85398163397448,7.85398163397448,1.,0.707106781186545,1.,            93P     89
0.707106781186553,1.,0.707106781186544,1.,1.00000286102299,           93P     90
-38.2499997615814,11.6250002384186,1.00000286102299,                  93P     91
-36.7499997615814,11.6250002384186,-0.499997138977011,                93P     92
-36.7499997615814,11.6250002384186,-1.99999713897701,                 93P     93
-36.7499997615814,11.6250002384186,-1.99999713897701,                 93P     94
-38.2499997615814,11.6250002384186,-1.99999713897701,                 93P     95
-39.7499997615814,11.6250002384186,-0.499997138977011,                93P     96
-39.7499997615814,11.6250002384186,3.14159265358979,                  93P     97
7.85398163397448,0.,0.,0.;                                            93P     98
126,2,2,0,0,0,0,1.5707963267949,1.5707963267949,1.5707963267949,      95P     99
3.14159265358979,3.14159265358979,3.14159265358979,1.,                95P    100
0.707106781186539,1.,-0.499997138977011,-58.7499997615814,            95P    101
11.6250002384186,1.00000286102299,-58.7499997615814,                  95P    102
11.6250002384186,1.00000286102299,-57.2499997615814,                  95P    103
11.6250002384186,1.5707963267949,3.14159265358979,0.,0.,0.;           95P    104
126,6,2,0,0,0,0,3.14159265358979,3.14159265358979,                    97P    105
3.14159265358979,4.71238898038469,4.71238898038469,                   97P    106
6.28318530717959,6.28318530717959,7.85398163397448,                   97P    107
7.85398163397448,7.85398163397448,1.,0.707106781186539,1.,            97P    108
0.707106781186538,1.,0.707106781186538,1.,1.00000286102299,           97P    109
-57.2499997615814,11.6250002384186,1.00000286102299,                  97P    110
-55.7499997615814,11.6250002384186,-0.499997138977011,                97P    111
-55.7499997615814,11.6250002384186,-1.99999713897701,                 97P    112
-55.7499997615814,11.6250002384186,-1.99999713897701,                 97P    113
-57.2499997615814,11.6250002384186,-1.99999713897701,                 97P    114
-58.7499997615814,11.6250002384186,-0.499997138977011,                97P    115
-58.7499997615814,11.6250002384186,3.14159265358979,                  97P    116
7.85398163397448,0.,0.,0.;                                            97P    117
126,8,2,0,1,0,0,-3.14159265358979,-3.14159265358979,                  99P    118
-3.14159265358979,-1.5707963267949,-1.5707963267949,0.,0.,            99P    119
1.5707963267949,1.5707963267949,3.14159265358979,                     99P    120
3.14159265358979,3.14159265358979,1.,0.707106781186555,1.,            99P    121
0.707106781186555,1.,0.707106781186555,1.,0.707106781186555,1.,       99P    122
37.000002861023,-77.2499997615814,11.6250002384186,                   99P    123
37.000002861023,-75.7499997615814,11.6250002384186,                   99P    124
35.500002861023,-75.7499997615814,11.6250002384186,                   99P    125
34.000002861023,-75.7499997615814,11.6250002384186,                   99P    126
34.000002861023,-77.2499997615814,11.6250002384186,                   99P    127
34.000002861023,-78.7499997615814,11.6250002384186,                   99P    128
35.500002861023,-78.7499997615814,11.6250002384186,                   99P    129
37.000002861023,-78.7499997615814,11.6250002384186,                   99P    130
37.000002861023,-77.2499997615814,11.6250002384186,                   99P    131
-3.14159265358979,3.14159265358979,0.,0.,0.;                          99P    132
126,8,2,0,1,0,0,-3.14159265358979,-3.14159265358979,                 101P    133
-3.14159265358979,-1.5707963267949,-1.5707963267949,0.,0.,           101P    134
1.5707963267949,1.5707963267949,3.14159265358979,                    101P    135
3.14159265358979,3.14159265358979,1.,0.707106781186542,1.,           101P    136
0.707106781186542,1.,0.707106781186542,1.,0.707106781186542,1.,      101P    137
37.000002861023,-38.2499997615814,11.6250002384186,                  101P    138
37.000002861023,-36.7499997615814,11.6250002384186,                  101P    139
35.500002861023,-36.7499997615814,11.6250002384186,                  101P    140
34.000002861023,-36.7499997615814,11.6250002384186,                  101P    141
34.000002861023,-38.2499997615814,11.6250002384186,                  101P    142
34.000002861023,-39.7499997615814,11.6250002384186,                  101P    143
35.500002861023,-39.7499997615814,11.6250002384186,                  101P    144
37.000002861023,-39.7499997615814,11.6250002384186,                  101P    145
37.000002861023,-38.2499997615814,11.6250002384186,                  101P    146
-3.14159265358979,3.14159265358979,0.,0.,0.;                         101P    147
126,1,1,0,0,1,0,0.,0.,0.1,0.1,1.,1.,42.500002861023,                 103P    148
-81.2499997615814,16.6250002384186,42.500002861023,                  103P    149
-81.2499997615814,15.6250002384186,0.,0.1,0.,0.,0.;                  103P    150
126,1,1,0,0,1,0,0.,0.,1.,1.,1.,1.,42.500002861023,                   105P    151
-81.2499997615814,16.6250002384186,32.500002861023,                  105P    152
-81.2499997615814,16.6250002384186,0.,1.,0.,0.,0.;                   105P    153
126,1,1,0,0,1,0,-0.25,-0.25,0.25,0.25,1.,1.,32.500002861023,         107P    154
-81.2499997615814,16.6250002384186,32.500002861023,                  107P    155
-81.2499997615814,11.6250002384186,-0.25,0.25,0.,0.,0.;              107P    156
126,1,1,0,0,1,0,-0.824999999999999,-0.824999999999999,1.175,         109P    157
1.175,1.,1.,32.500002861023,-61.2499997615814,16.6250002384186,      109P    158
32.500002861023,-81.2499997615814,16.6250002384186,                  109P    159
-0.824999999999999,1.175,0.,0.,0.;                                   109P    160
126,1,1,0,0,1,0,0.,0.,0.5,0.5,1.,1.,32.500002861023,                 111P    161
-61.2499997615814,11.6250002384186,32.500002861023,                  111P    162
-61.2499997615814,16.6250002384186,0.,0.5,0.,0.,0.;                  111P    163
126,1,1,0,0,1,0,-2.95,-2.95,0.65,0.65,1.,1.,-3.49999713897701,       113P    164
-61.2499997615814,16.6250002384186,32.500002861023,                  113P    165
-61.2499997615814,16.6250002384186,-2.95,0.65,0.,0.,0.;              113P    166
126,1,1,0,0,1,0,-0.25,-0.25,0.25,0.25,1.,1.,-3.49999713897701,       115P    167
-61.2499997615814,11.6250002384186,-3.49999713897701,                115P    168
-61.2499997615814,16.6250002384186,-0.25,0.25,0.,0.,0.;              115P    169
126,1,1,0,0,1,0,2.,2.,4.7,4.7,1.,1.,-3.49999713897701,               117P    170
-61.2499997615814,16.6250002384186,-3.49999713897701,                117P    171
-34.2499997615814,16.6250002384186,2.,4.7,0.,0.,0.;                  117P    172
126,1,1,0,0,1,0,0.,0.,0.5,0.5,1.,1.,-3.49999713897701,               119P    173
-34.2499997615814,16.6250002384186,-3.49999713897701,                119P    174
-34.2499997615814,11.6250002384186,0.,0.5,0.,0.,0.;                  119P    175
126,1,1,0,0,1,0,-3.33333333333333,-3.33333333333333,0.,0.,1.,1.,     121P    176
1.00000286102299,-38.2499997615814,11.6250002384186,                 121P    177
1.00000286102299,-38.2499997615814,16.6250002384186,                 121P    178
-3.33333333333333,0.,0.,0.,0.;                                       121P    179
126,6,2,0,0,0,0,3.14159265358979,3.14159265358979,                   123P    180
3.14159265358979,4.71238898038469,4.71238898038469,                  123P    181
6.28318530717959,6.28318530717959,7.85398163397448,                  123P    182
7.85398163397448,7.85398163397448,1.,0.707106781186545,1.,           123P    183
0.707106781186553,1.,0.707106781186544,1.,1.00000286102299,          123P    184
-38.2499997615814,16.6250002384186,1.00000286102299,                 123P    185
-36.7499997615814,16.6250002384186,-0.499997138977011,               123P    186
-36.7499997615814,16.6250002384186,-1.99999713897701,                123P    187
-36.7499997615814,16.6250002384186,-1.99999713897701,                123P    188
-38.2499997615814,16.6250002384186,-1.99999713897701,                123P    189
-39.7499997615814,16.6250002384186,-0.499997138977011,               123P    190
-39.7499997615814,16.6250002384186,3.14159265358979,                 123P    191
7.85398163397448,0.,0.,0.;                                           123P    192
126,2,2,0,0,0,0,1.5707963267949,1.5707963267949,1.5707963267949,     125P    193
3.14159265358979,3.14159265358979,3.14159265358979,1.,               125P    194
0.707106781186545,1.,-0.499997138977011,-39.7499997615814,           125P    195
16.6250002384186,1.00000286102299,-39.7499997615814,                 125P    196
16.6250002384186,1.00000286102299,-38.2499997615814,                 125P    197
16.6250002384186,1.5707963267949,3.14159265358979,0.,0.,0.;          125P    198
126,1,1,0,0,1,0,-3.33333333333333,-3.33333333333333,0.,0.,1.,1.,     127P    199
1.00000286102299,-57.2499997615814,11.6250002384186,                 127P    200
1.00000286102299,-57.2499997615814,16.6250002384186,                 127P    201
-3.33333333333333,0.,0.,0.,0.;                                       127P    202
126,6,2,0,0,0,0,3.14159265358979,3.14159265358979,                   129P    203
3.14159265358979,4.71238898038469,4.71238898038469,                  129P    204
6.28318530717959,6.28318530717959,7.85398163397448,                  129P    205
7.85398163397448,7.85398163397448,1.,0.707106781186539,1.,           129P    206
0.707106781186538,1.,0.707106781186538,1.,1.00000286102299,          129P    207
-57.2499997615814,16.6250002384186,1.00000286102299,                 129P    208
-55.7499997615814,16.6250002384186,-0.499997138977011,               129P    209
-55.7499997615814,16.6250002384186,-1.99999713897701,                129P    210
-55.7499997615814,16.6250002384186,-1.99999713897701,                129P    211
-57.2499997615814,16.6250002384186,-1.99999713897701,                129P    212
-58.7499997615814,16.6250002384186,-0.499997138977011,               129P    213
-58.7499997615814,16.6250002384186,3.14159265358979,                 129P    214
7.85398163397448,0.,0.,0.;                                           129P    215
126,2,2,0,0,0,0,1.5707963267949,1.5707963267949,1.5707963267949,     131P    216
3.14159265358979,3.14159265358979,3.14159265358979,1.,               131P    217
0.707106781186539,1.,-0.499997138977011,-58.7499997615814,           131P    218
16.6250002384186,1.00000286102299,-58.7499997615814,                 131P    219
16.6250002384186,1.00000286102299,-57.2499997615814,                 131P    220
16.6250002384186,1.5707963267949,3.14159265358979,0.,0.,0.;          131P    221
126,1,1,0,0,1,0,-3.33333333333333,-3.33333333333333,0.,0.,1.,1.,     133P    222
37.000002861023,-77.2499997615814,11.6250002384186,                  133P    223
37.000002861023,-77.2499997615814,16.6250002384186,                  133P    224
-3.33333333333333,0.,0.,0.,0.;                                       133P    225
126,8,2,0,1,0,0,-3.14159265358979,-3.14159265358979,                 135P    226
-3.14159265358979,-1.5707963267949,-1.5707963267949,0.,0.,           135P    227
1.5707963267949,1.5707963267949,3.14159265358979,                    135P    228
3.14159265358979,3.14159265358979,1.,0.707106781186555,1.,           135P    229
0.707106781186555,1.,0.707106781186555,1.,0.707106781186555,1.,      135P    230
37.000002861023,-77.2499997615814,16.6250002384186,                  135P    231
37.000002861023,-75.7499997615814,16.6250002384186,                  135P    232
35.500002861023,-75.7499997615814,16.6250002384186,                  135P    233
34.000002861023,-75.7499997615814,16.6250002384186,                  135P    234
34.000002861023,-77.2499997615814,16.6250002384186,                  135P    235
34.000002861023,-78.7499997615814,16.6250002384186,                  135P    236
35.500002861023,-78.7499997615814,16.6250002384186,                  135P    237
37.000002861023,-78.7499997615814,16.6250002384186,                  135P    238
37.000002861023,-77.2499997615814,16.6250002384186,                  135P    239
-3.14159265358979,3.14159265358979,0.,0.,0.;                         135P    240
126,1,1,0,0,1,0,-3.33333333333334,-3.33333333333334,0.,0.,1.,1.,     137P    241
37.000002861023,-38.2499997615814,11.6250002384186,                  137P    242
37.000002861023,-38.2499997615814,16.6250002384186,                  137P    243
-3.33333333333334,0.,0.,0.,0.;                                       137P    244
126,8,2,0,1,0,0,-3.14159265358979,-3.14159265358979,                 139P    245
-3.14159265358979,-1.5707963267949,-1.5707963267949,0.,0.,           139P    246
1.5707963267949,1.5707963267949,3.14159265358979,                    139P    247
3.14159265358979,3.14159265358979,1.,0.707106781186542,1.,           139P    248
0.707106781186542,1.,0.707106781186542,1.,0.707106781186542,1.,      139P    249
37.000002861023,-38.2499997615814,16.6250002384186,                  139P    250
37.000002861023,-36.7499997615814,16.6250002384186,                  139P    251
35.500002861023,-36.7499997615814,16.6250002384186,                  139P    252
34.000002861023,-36.7499997615814,16.6250002384186,                  139P    253
34.000002861023,-38.2499997615814,16.6250002384186,                  139P    254
34.000002861023,-39.7499997615814,16.6250002384186,                  139P    255
35.500002861023,-39.7499997615814,16.6250002384186,                  139P    256
37.000002861023,-39.7499997615814,16.6250002384186,                  139P    257
37.000002861023,-38.2499997615814,16.6250002384186,                  139P    258
-3.14159265358979,3.14159265358979,0.,0.,0.;                         139P    259
126,1,1,0,0,1,0,0.,0.,0.1,0.1,1.,1.,42.500002861023,                 141P    260
-34.2499997615814,16.6250002384186,42.500002861023,                  141P    261
-34.2499997615814,15.6250002384186,0.,0.1,0.,0.,0.;                  141P    262
126,1,1,0,0,1,0,0.,0.,4.7,4.7,1.,1.,42.500002861023,                 143P    263
-34.2499997615814,16.6250002384186,42.500002861023,                  143P    264
-81.2499997615814,16.6250002384186,0.,4.7,0.,0.,0.;                  143P    265
126,1,1,0,0,1,0,0.,0.,4.6,4.6,1.,1.,-3.49999713897701,               145P    266
-34.2499997615814,16.6250002384186,42.500002861023,                  145P    267
-34.2499997615814,16.6250002384186,0.,4.6,0.,0.,0.;                  145P    268
128,1,2,1,2,0,0,0,0,0,-2.9375,-2.9375,8.8125,8.8125,                 147P    269
-0.785398163397449,-0.785398163397449,-0.785398163397449,            147P    270
0.785398163397449,0.785398163397449,0.785398163397449,1.,1.,         147P    271
0.707106781186547,0.707106781186547,1.,1.,38.500002861023,           147P    272
-81.2499997615814,11.6250002384186,38.500002861023,                  147P    273
-34.2499997615814,11.6250002384186,42.500002861023,                  147P    274
-81.2499997615814,11.6250002384186,42.500002861023,                  147P    275
-34.2499997615814,11.6250002384186,42.500002861023,                  147P    276
-81.2499997615814,15.6250002384186,42.500002861023,                  147P    277
-34.2499997615814,15.6250002384186,-2.9375,8.8125,                   147P    278
-0.785398163397449,0.785398163397449;                                147P    279
128,1,1,1,1,0,0,1,0,0,-1.9,-1.9,2.3,2.3,-2.35,-2.35,2.35,2.35,       149P    280
1.,1.,1.,1.,38.500002861023,-81.2499997615814,11.6250002384186,      149P    281
-3.49999713897701,-81.2499997615814,11.6250002384186,                149P    282
38.500002861023,-34.2499997615814,11.6250002384186,                  149P    283
-3.49999713897701,-34.2499997615814,11.6250002384186,-1.9,2.3,       149P    284
-2.35,2.35;                                                          149P    285
128,1,1,1,1,0,0,1,0,0,0.,0.,1.,1.,0.,0.,0.5,0.5,1.,1.,1.,1.,         151P    286
42.500002861023,-81.2499997615814,16.6250002384186,                  151P    287
32.500002861023,-81.2499997615814,16.6250002384186,                  151P    288
42.500002861023,-81.2499997615814,11.6250002384186,                  151P    289
32.500002861023,-81.2499997615814,11.6250002384186,0.,1.,0.,0.5;     151P    290
128,1,1,1,1,0,0,1,0,0,0.,0.,2.,2.,0.,0.,0.5,0.5,1.,1.,1.,1.,         153P    291
32.500002861023,-61.2499997615814,11.6250002384186,                  153P    292
32.500002861023,-81.2499997615814,11.6250002384186,                  153P    293
32.500002861023,-61.2499997615814,16.6250002384186,                  153P    294
32.500002861023,-81.2499997615814,16.6250002384186,0.,2.,0.,0.5;     153P    295
128,1,1,1,1,0,0,1,0,0,0.,0.,3.6,3.6,0.,0.,0.5,0.5,1.,1.,1.,1.,       155P    296
-3.49999713897701,-61.2499997615814,11.6250002384186,                155P    297
32.500002861023,-61.2499997615814,11.6250002384186,                  155P    298
-3.49999713897701,-61.2499997615814,16.6250002384186,                155P    299
32.500002861023,-61.2499997615814,16.6250002384186,0.,3.6,0.,        155P    300
0.5;                                                                 155P    301
128,1,1,1,1,0,0,1,0,0,2.,2.,4.7,4.7,0.,0.,0.5,0.5,1.,1.,1.,1.,       157P    302
-3.49999713897701,-61.2499997615814,16.6250002384186,                157P    303
-3.49999713897701,-34.2499997615814,16.6250002384186,                157P    304
-3.49999713897701,-61.2499997615814,11.6250002384186,                157P    305
-3.49999713897701,-34.2499997615814,11.6250002384186,2.,4.7,0.,      157P    306
0.5;                                                                 157P    307
128,1,8,1,2,0,1,0,0,1,0.,0.,3.33333333333333,3.33333333333333,       159P    308
-3.14159265358979,-3.14159265358979,-3.14159265358979,               159P    309
-1.5707963267949,-1.5707963267949,0.,0.,1.5707963267949,             159P    310
1.5707963267949,3.14159265358979,3.14159265358979,                   159P    311
3.14159265358979,1.,1.,0.707106781186548,0.707106781186548,1.,       159P    312
1.,0.707106781186548,0.707106781186548,1.,1.,0.707106781186548,      159P    313
0.707106781186548,1.,1.,0.707106781186548,0.707106781186548,1.,      159P    314
1.,1.00000286102299,-38.2499997615814,16.6250002384186,              159P    315
1.00000286102299,-38.2499997615814,11.6250002384186,                 159P    316
1.00000286102299,-39.7499997615814,16.6250002384186,                 159P    317
1.00000286102299,-39.7499997615814,11.6250002384186,                 159P    318
-0.499997138977011,-39.7499997615814,16.6250002384186,               159P    319
-0.499997138977011,-39.7499997615814,11.6250002384186,               159P    320
-1.99999713897701,-39.7499997615814,16.6250002384186,                159P    321
-1.99999713897701,-39.7499997615814,11.6250002384186,                159P    322
-1.99999713897701,-38.2499997615814,16.6250002384186,                159P    323
-1.99999713897701,-38.2499997615814,11.6250002384186,                159P    324
-1.99999713897701,-36.7499997615814,16.6250002384186,                159P    325
-1.99999713897701,-36.7499997615814,11.6250002384186,                159P    326
-0.499997138977011,-36.7499997615814,16.6250002384186,               159P    327
-0.499997138977011,-36.7499997615814,11.6250002384186,               159P    328
1.00000286102299,-36.7499997615814,16.6250002384186,                 159P    329
1.00000286102299,-36.7499997615814,11.6250002384186,                 159P    330
1.00000286102299,-38.2499997615814,16.6250002384186,                 159P    331
1.00000286102299,-38.2499997615814,11.6250002384186,0.,              159P    332
3.33333333333333,-3.14159265358979,3.14159265358979;                 159P    333
128,1,8,1,2,0,1,0,0,1,0.,0.,3.33333333333333,3.33333333333333,       161P    334
-3.14159265358979,-3.14159265358979,-3.14159265358979,               161P    335
-1.5707963267949,-1.5707963267949,0.,0.,1.5707963267949,             161P    336
1.5707963267949,3.14159265358979,3.14159265358979,                   161P    337
3.14159265358979,1.,1.,0.707106781186548,0.707106781186548,1.,       161P    338
1.,0.707106781186548,0.707106781186548,1.,1.,0.707106781186548,      161P    339
0.707106781186548,1.,1.,0.707106781186548,0.707106781186548,1.,      161P    340
1.,1.00000286102299,-57.2499997615814,16.6250002384186,              161P    341
1.00000286102299,-57.2499997615814,11.6250002384186,                 161P    342
1.00000286102299,-58.7499997615814,16.6250002384186,                 161P    343
1.00000286102299,-58.7499997615814,11.6250002384186,                 161P    344
-0.499997138977011,-58.7499997615814,16.6250002384186,               161P    345
-0.499997138977011,-58.7499997615814,11.6250002384186,               161P    346
-1.99999713897701,-58.7499997615814,16.6250002384186,                161P    347
-1.99999713897701,-58.7499997615814,11.6250002384186,                161P    348
-1.99999713897701,-57.2499997615814,16.6250002384186,                161P    349
-1.99999713897701,-57.2499997615814,11.6250002384186,                161P    350
-1.99999713897701,-55.7499997615814,16.6250002384186,                161P    351
-1.99999713897701,-55.7499997615814,11.6250002384186,                161P    352
-0.499997138977011,-55.7499997615814,16.6250002384186,               161P    353
-0.499997138977011,-55.7499997615814,11.6250002384186,               161P    354
1.00000286102299,-55.7499997615814,16.6250002384186,                 161P    355
1.00000286102299,-55.7499997615814,11.6250002384186,                 161P    356
1.00000286102299,-57.2499997615814,16.6250002384186,                 161P    357
1.00000286102299,-57.2499997615814,11.6250002384186,0.,              161P    358
3.33333333333333,-3.14159265358979,3.14159265358979;                 161P    359
128,1,8,1,2,0,1,0,0,1,0.,0.,3.33333333333333,3.33333333333333,       163P    360
-3.14159265358979,-3.14159265358979,-3.14159265358979,               163P    361
-1.5707963267949,-1.5707963267949,0.,0.,1.5707963267949,             163P    362
1.5707963267949,3.14159265358979,3.14159265358979,                   163P    363
3.14159265358979,1.,1.,0.707106781186548,0.707106781186548,1.,       163P    364
1.,0.707106781186548,0.707106781186548,1.,1.,0.707106781186548,      163P    365
0.707106781186548,1.,1.,0.707106781186548,0.707106781186548,1.,      163P    366
1.,37.000002861023,-77.2499997615814,16.6250002384186,               163P    367
37.000002861023,-77.2499997615814,11.6250002384186,                  163P    368
37.000002861023,-78.7499997615814,16.6250002384186,                  163P    369
37.000002861023,-78.7499997615814,11.6250002384186,                  163P    370
35.500002861023,-78.7499997615814,16.6250002384186,                  163P    371
35.500002861023,-78.7499997615814,11.6250002384186,                  163P    372
34.000002861023,-78.7499997615814,16.6250002384186,                  163P    373
34.000002861023,-78.7499997615814,11.6250002384186,                  163P    374
34.000002861023,-77.2499997615814,16.6250002384186,                  163P    375
34.000002861023,-77.2499997615814,11.6250002384186,                  163P    376
34.000002861023,-75.7499997615814,16.6250002384186,                  163P    377
34.000002861023,-75.7499997615814,11.6250002384186,                  163P    378
35.500002861023,-75.7499997615814,16.6250002384186,                  163P    379
35.500002861023,-75.7499997615814,11.6250002384186,                  163P    380
37.000002861023,-75.7499997615814,16.6250002384186,                  163P    381
37.000002861023,-75.7499997615814,11.6250002384186,                  163P    382
37.000002861023,-77.2499997615814,16.6250002384186,                  163P    383
37.000002861023,-77.2499997615814,11.6250002384186,0.,               163P    384
3.33333333333333,-3.14159265358979,3.14159265358979;                 163P    385
128,1,8,1,2,0,1,0,0,1,0.,0.,3.33333333333334,3.33333333333334,       165P    386
-3.14159265358979,-3.14159265358979,-3.14159265358979,               165P    387
-1.5707963267949,-1.5707963267949,0.,0.,1.5707963267949,             165P    388
1.5707963267949,3.14159265358979,3.14159265358979,                   165P    389
3.14159265358979,1.,1.,0.707106781186548,0.707106781186548,1.,       165P    390
1.,0.707106781186548,0.707106781186548,1.,1.,0.707106781186548,      165P    391
0.707106781186548,1.,1.,0.707106781186548,0.707106781186548,1.,      165P    392
1.,37.000002861023,-38.2499997615814,16.6250002384186,               165P    393
37.000002861023,-38.2499997615814,11.6250002384186,                  165P    394
37.000002861023,-39.7499997615814,16.6250002384186,                  165P    395
37.000002861023,-39.7499997615814,11.6250002384186,                  165P    396
35.500002861023,-39.7499997615814,16.6250002384186,                  165P    397
35.500002861023,-39.7499997615814,11.6250002384186,                  165P    398
34.000002861023,-39.7499997615814,16.6250002384186,                  165P    399
34.000002861023,-39.7499997615814,11.6250002384186,                  165P    400
34.000002861023,-38.2499997615814,16.6250002384186,                  165P    401
34.000002861023,-38.2499997615814,11.6250002384186,                  165P    402
34.000002861023,-36.7499997615814,16.6250002384186,                  165P    403
34.000002861023,-36.7499997615814,11.6250002384186,                  165P    404
35.500002861023,-36.7499997615814,16.6250002384186,                  165P    405
35.500002861023,-36.7499997615814,11.6250002384186,                  165P    406
37.000002861023,-36.7499997615814,16.6250002384186,                  165P    407
37.000002861023,-36.7499997615814,11.6250002384186,                  165P    408
37.000002861023,-38.2499997615814,16.6250002384186,                  165P    409
37.000002861023,-38.2499997615814,11.6250002384186,0.,               165P    410
3.33333333333334,-3.14159265358979,3.14159265358979;                 165P    411
128,1,1,1,1,0,0,1,0,0,0.,0.,4.7,4.7,0.,0.,0.1,0.1,1.,1.,1.,1.,       167P    412
42.500002861023,-34.2499997615814,16.6250002384186,                  167P    413
42.500002861023,-81.2499997615814,16.6250002384186,                  167P    414
42.500002861023,-34.2499997615814,15.6250002384186,                  167P    415
42.500002861023,-81.2499997615814,15.6250002384186,0.,4.7,0.,        167P    416
0.1;                                                                 167P    417
128,1,1,1,1,0,0,1,0,0,0.,0.,4.6,4.6,0.,0.,0.5,0.5,1.,1.,1.,1.,       169P    418
-3.49999713897701,-34.2499997615814,16.6250002384186,                169P    419
42.500002861023,-34.2499997615814,16.6250002384186,                  169P    420
-3.49999713897701,-34.2499997615814,11.6250002384186,                169P    421
42.500002861023,-34.2499997615814,11.6250002384186,0.,4.6,0.,        169P    422
0.5;                                                                 169P    423
128,1,1,1,1,0,0,1,0,0,-2.3,-2.3,2.3,2.3,-2.35,-2.35,2.35,2.35,       171P    424
1.,1.,1.,1.,-3.49999713897701,-81.2499997615814,                     171P    425
16.6250002384186,42.500002861023,-81.2499997615814,                  171P    426
16.6250002384186,-3.49999713897701,-34.2499997615814,                171P    427
16.6250002384186,42.500002861023,-34.2499997615814,                  171P    428
16.6250002384186,-2.3,2.3,-2.35,2.35;                                171P    429
502,26,42.500002861023,-81.2499997615814,15.6250002384186,           173P    430
38.500002861023,-81.2499997615814,11.6250002384186,                  173P    431
38.500002861023,-34.2499997615814,11.6250002384186,                  173P    432
42.500002861023,-34.2499997615814,15.6250002384186,                  173P    433
32.500002861023,-81.2499997615814,11.6250002384186,                  173P    434
32.500002861023,-61.2499997615814,11.6250002384186,                  173P    435
-3.49999713897701,-61.2499997615814,11.6250002384186,                173P    436
-3.49999713897701,-34.2499997615814,11.6250002384186,                173P    437
-0.499997138977011,-39.7499997615814,11.6250002384186,               173P    438
1.00000286102299,-38.2499997615814,11.6250002384186,                 173P    439
-0.499997138977011,-58.7499997615814,11.6250002384186,               173P    440
1.00000286102299,-57.2499997615814,11.6250002384186,                 173P    441
37.000002861023,-77.2499997615814,11.6250002384186,                  173P    442
37.000002861023,-38.2499997615814,11.6250002384186,                  173P    443
42.500002861023,-81.2499997615814,16.6250002384186,                  173P    444
32.500002861023,-81.2499997615814,16.6250002384186,                  173P    445
32.500002861023,-61.2499997615814,16.6250002384186,                  173P    446
-3.49999713897701,-61.2499997615814,16.6250002384186,                173P    447
-3.49999713897701,-34.2499997615814,16.6250002384186,                173P    448
1.00000286102299,-38.2499997615814,16.6250002384186,                 173P    449
-0.499997138977011,-39.7499997615814,16.6250002384186,               173P    450
1.00000286102299,-57.2499997615814,16.6250002384186,                 173P    451
-0.499997138977011,-58.7499997615814,16.6250002384186,               173P    452
37.000002861023,-77.2499997615814,16.6250002384186,                  173P    453
37.000002861023,-38.2499997615814,16.6250002384186,                  173P    454
42.500002861023,-34.2499997615814,16.6250002384186;                  173P    455
504,37,73,173,1,173,2,75,173,2,173,3,77,173,3,173,4,79,173,4,        175P    456
173,1,81,173,2,173,5,83,173,5,173,6,85,173,6,173,7,87,173,7,173,     175P    457
8,89,173,8,173,3,91,173,9,173,10,93,173,10,173,9,95,173,11,173,      175P    458
12,97,173,12,173,11,99,173,13,173,13,101,173,14,173,14,103,173,      175P    459
15,173,1,105,173,15,173,16,107,173,16,173,5,109,173,17,173,16,       175P    460
111,173,6,173,17,113,173,18,173,17,115,173,7,173,18,117,173,18,      175P    461
173,19,119,173,19,173,8,121,173,10,173,20,123,173,20,173,21,125,     175P    462
173,21,173,20,127,173,12,173,22,129,173,22,173,23,131,173,23,        175P    463
173,22,133,173,13,173,24,135,173,24,173,24,137,173,14,173,25,        175P    464
139,173,25,173,25,141,173,26,173,4,143,173,26,173,15,145,173,19,     175P    465
173,26;                                                              175P    466
406,1,5HBody1;                                                       177P    467
314,62.7450980392157,62.7450980392157,62.7450980392157,13HSteel      179P    468
- Satin;                                                             179P    469
S      1G      3D    180P    469                                        T      1
