                                                                        S      1
,,17HATX_Power_Mount_2,17HATX_Power_Mount_2,7Hunknown,7Hunknown,32,38,7,G      1
99,15,,1.,2,2HMM,1,0.08,15H20150214.160536,0.01,10000.,7Hunknown,7HunknoG      2
wn,11,0,;                                                               G      3
     186       1                                                00000000D      1
     186            -247       1       0                               0D      2
     514       2                                                00010000D      3
     514                       2       1                               0D      4
     510       4                                                00010000D      5
     510            -247       1       1                               0D      6
     510       5                                                00010000D      7
     510            -247       1       1                               0D      8
     510       6                                                00010000D      9
     510            -247       1       1                               0D     10
     510       7                                                00010000D     11
     510            -247       1       1                               0D     12
     510       8                                                00010000D     13
     510            -247       1       1                               0D     14
     510       9                                                00010000D     15
     510            -247       1       1                               0D     16
     510      10                                                00010000D     17
     510            -247       1       1                               0D     18
     510      11                                                00010000D     19
     510            -247       1       1                               0D     20
     510      12                                                00010000D     21
     510            -247       1       1                               0D     22
     510      13                                                00010000D     23
     510            -247       1       1                               0D     24
     510      14                                                00010000D     25
     510            -247       1       1                               0D     26
     510      15                                                00010000D     27
     510            -247       1       1                               0D     28
     510      16                                                00010000D     29
     510            -247       1       1                               0D     30
     510      17                                                00010000D     31
     510            -247       1       1                               0D     32
     510      18                                                00010000D     33
     510            -247       1       1                               0D     34
     510      19                                                00010000D     35
     510            -247       1       1                               0D     36
     510      20                                                00010000D     37
     510            -247       1       1                               0D     38
     510      21                                                00010000D     39
     510            -247       1       1                               0D     40
     510      22                                                00010000D     41
     510            -247       1       1                               0D     42
     508      23                                                00010000D     43
     508                       1       1                               0D     44
     508      24                                                00010000D     45
     508                       1       1                               0D     46
     508      25                                                00010000D     47
     508                       1       1                               0D     48
     508      26                                                00010000D     49
     508                       1       1                               0D     50
     508      27                                                00010000D     51
     508                       3       1                               0D     52
     508      30                                                00010000D     53
     508                       1       1                               0D     54
     508      31                                                00010000D     55
     508                       1       1                               0D     56
     508      32                                                00010000D     57
     508                       1       1                               0D     58
     508      33                                                00010000D     59
     508                       1       1                               0D     60
     508      34                                                00010000D     61
     508                       1       1                               0D     62
     508      35                                                00010000D     63
     508                       1       1                               0D     64
     508      36                                                00010000D     65
     508                       1       1                               0D     66
     508      37                                                00010000D     67
     508                       1       1                               0D     68
     508      38                                                00010000D     69
     508                       1       1                               0D     70
     508      39                                                00010000D     71
     508                       1       1                               0D     72
     508      40                                                00010000D     73
     508                       3       1                               0D     74
     508      43                                                00010000D     75
     508                       1       1                               0D     76
     508      44                                                00010000D     77
     508                       1       1                               0D     78
     508      45                                                00010000D     79
     508                       1       1                               0D     80
     508      46                                                00010000D     81
     508                       1       1                               0D     82
     508      47                                                00010000D     83
     508                       1       1                               0D     84
     508      48                                                00010000D     85
     508                       1       1                               0D     86
     508      49                                                00010000D     87
     508                       1       1                               0D     88
     508      50                                                00010000D     89
     508                       1       1                               0D     90
     508      51                                                00010000D     91
     508                       1       1                               0D     92
     508      52                                                00010000D     93
     508                       1       1                               0D     94
     508      53                                                00010000D     95
     508                       1       1                               0D     96
     508      54                                                00010000D     97
     508                       1       1                               0D     98
     508      55                                                00010000D     99
     508                       1       1                               0D    100
     126      56                                                00010000D    101
     126       0              10       0                               0D    102
     126      66                                                00010000D    103
     126       0               3       0                               0D    104
     126      69                                                00010000D    105
     126       0              10       0                               0D    106
     126      79                                                00010000D    107
     126       0               5       0                               0D    108
     126      84                                                00010000D    109
     126       0               2       0                               0D    110
     126      86                                                00010000D    111
     126       0               5       0                               0D    112
     126      91                                                00010000D    113
     126       0               2       0                               0D    114
     126      93                                                00010000D    115
     126       0               3       0                               0D    116
     126      96                                                00010000D    117
     126       0               3       0                               0D    118
     126      99                                                00010000D    119
     126       0               3       0                               0D    120
     126     102                                                00010000D    121
     126       0               5       0                               0D    122
     126     107                                                00010000D    123
     126       0               3       0                               0D    124
     126     110                                                00010000D    125
     126       0               5       0                               0D    126
     126     115                                                00010000D    127
     126       0               2       0                               0D    128
     126     117                                                00010000D    129
     126       0               2       0                               0D    130
     126     119                                                00010000D    131
     126       0               2       0                               0D    132
     126     121                                                00010000D    133
     126       0               2       0                               0D    134
     126     123                                                00010000D    135
     126       0               3       0                               0D    136
     126     126                                                00010000D    137
     126       0               5       0                               0D    138
     126     131                                                00010000D    139
     126       0               2       0                               0D    140
     126     133                                                00010000D    141
     126       0               5       0                               0D    142
     126     138                                                00010000D    143
     126       0               2       0                               0D    144
     126     140                                                00010000D    145
     126       0              10       0                               0D    146
     126     150                                                00010000D    147
     126       0              10       0                               0D    148
     126     160                                                00010000D    149
     126       0              10       0                               0D    150
     126     170                                                00010000D    151
     126       0              10       0                               0D    152
     126     180                                                00010000D    153
     126       0               2       0                               0D    154
     126     182                                                00010000D    155
     126       0               2       0                               0D    156
     126     184                                                00010000D    157
     126       0              10       0                               0D    158
     126     194                                                00010000D    159
     126       0               3       0                               0D    160
     126     197                                                00010000D    161
     126       0               2       0                               0D    162
     126     199                                                00010000D    163
     126       0               5       0                               0D    164
     126     204                                                00010000D    165
     126       0               2       0                               0D    166
     126     206                                                00010000D    167
     126       0               3       0                               0D    168
     126     209                                                00010000D    169
     126       0               2       0                               0D    170
     126     211                                                00010000D    171
     126       0               5       0                               0D    172
     126     216                                                00010000D    173
     126       0               3       0                               0D    174
     126     219                                                00010000D    175
     126       0               2       0                               0D    176
     126     221                                                00010000D    177
     126       0               3       0                               0D    178
     126     224                                                00010000D    179
     126       0               2       0                               0D    180
     126     226                                                00010000D    181
     126       0               2       0                               0D    182
     126     228                                                00010000D    183
     126       0               2       0                               0D    184
     126     230                                                00010000D    185
     126       0              10       0                               0D    186
     126     240                                                00010000D    187
     126       0              10       0                               0D    188
     126     250                                                00010000D    189
     126       0              10       0                               0D    190
     126     260                                                00010000D    191
     126       0               3       0                               0D    192
     126     263                                                00010000D    193
     126       0               3       0                               0D    194
     126     266                                                00010000D    195
     126       0               3       0                               0D    196
     126     269                                                00010000D    197
     126       0               3       0                               0D    198
     126     272                                                00010000D    199
     126       0               2       0                               0D    200
     126     274                                                00010000D    201
     126       0               2       0                               0D    202
     128     276                                                00010000D    203
     128       0    -247      17       0                               0D    204
     128     293                                                00010000D    205
     128       0    -247       7       0                               0D    206
     128     300                                                00010000D    207
     128       0    -247       4       0                               0D    208
     128     304                                                00010000D    209
     128       0    -247       8       0                               0D    210
     128     312                                                00010000D    211
     128       0    -247       4       0                               0D    212
     128     316                                                00010000D    213
     128       0    -247       4       0                               0D    214
     128     320                                                00010000D    215
     128       0    -247      18       0                               0D    216
     128     338                                                00010000D    217
     128       0    -247       8       0                               0D    218
     128     346                                                00010000D    219
     128       0    -247       3       0                               0D    220
     128     349                                                00010000D    221
     128       0    -247       9       0                               0D    222
     128     358                                                00010000D    223
     128       0    -247       4       0                               0D    224
     128     362                                                00010000D    225
     128       0    -247       4       0                               0D    226
     128     366                                                00010000D    227
     128       0    -247      17       0                               0D    228
     128     383                                                00010000D    229
     128       0    -247      17       0                               0D    230
     128     400                                                00010000D    231
     128       0    -247      17       0                               0D    232
     128     417                                                00010000D    233
     128       0    -247       5       0                               0D    234
     128     422                                                00010000D    235
     128       0    -247       5       0                               0D    236
     128     427                                                00010000D    237
     128       0    -247       3       0                               0D    238
     128     430                                                00010000D    239
     128       0    -247       6       0                               0D    240
     502     436                                                00010000D    241
     502                      17       1                               0D    242
     504     453                                                00010001D    243
     504                      15       1                               0D    244
     406     468                                                00000000D    245
     406                       1      15                               0D    246
     314     469                                                00000200D    247
     314                       2       0                               0D    248
186,3,1,0,0,1,245;                                                     1P      1
514,19,5,1,7,1,9,1,11,1,13,1,15,1,17,1,19,1,21,1,23,1,25,1,27,1,       3P      2
29,1,31,1,33,1,35,1,37,1,39,1,41,1;                                    3P      3
510,203,1,1,43;                                                        5P      4
510,205,1,1,45;                                                        7P      5
510,207,1,1,47;                                                        9P      6
510,209,1,1,49;                                                       11P      7
510,211,6,1,51,53,55,57,59,61;                                        13P      8
510,213,1,1,63;                                                       15P      9
510,215,1,1,65;                                                       17P     10
510,217,1,1,67;                                                       19P     11
510,219,1,1,69;                                                       21P     12
510,221,1,1,71;                                                       23P     13
510,223,6,1,73,75,77,79,81,83;                                        25P     14
510,225,1,1,85;                                                       27P     15
510,227,1,1,87;                                                       29P     16
510,229,1,1,89;                                                       31P     17
510,231,1,1,91;                                                       33P     18
510,233,1,1,93;                                                       35P     19
510,235,1,1,95;                                                       37P     20
510,237,1,1,97;                                                       39P     21
510,239,1,1,99;                                                       41P     22
508,4,0,243,1,0,0,0,243,2,1,0,0,243,3,0,0,0,243,2,0,0;                43P     23
508,4,0,243,4,1,0,0,243,5,1,0,0,243,6,1,0,0,243,7,1,0;                45P     24
508,4,0,243,5,0,0,0,243,8,1,0,0,243,9,0,0,0,243,10,0,0;               47P     25
508,4,0,243,11,1,0,0,243,12,1,0,0,243,13,1,0,0,243,9,1,0;             49P     26
508,12,0,243,13,0,0,0,243,14,0,0,0,243,15,0,0,0,243,16,0,0,0,         51P     27
243,17,1,0,0,243,18,1,0,0,243,19,0,0,0,243,20,0,0,0,243,21,0,0,       51P     28
0,243,22,0,0,0,243,6,0,0,0,243,10,1,0;                                51P     29
508,1,0,243,1,1,0;                                                    53P     30
508,1,0,243,23,0,0;                                                   55P     31
508,1,0,243,24,0,0;                                                   57P     32
508,1,0,243,25,0,0;                                                   59P     33
508,1,0,243,26,1,0;                                                   61P     34
508,4,0,243,12,0,0,0,243,27,1,0,0,243,28,1,0,0,243,14,1,0;            63P     35
508,4,0,243,29,0,0,0,243,30,1,0,0,243,26,0,0,0,243,30,0,0;            65P     36
508,4,0,243,21,1,0,0,243,31,1,0,0,243,32,1,0,0,243,33,1,0;            67P     37
508,4,0,243,31,0,0,0,243,20,1,0,0,243,34,0,0,0,243,35,0,0;            69P     38
508,4,0,243,36,1,0,0,243,34,1,0,0,243,19,1,0,0,243,37,1,0;            71P     39
508,12,0,243,11,0,0,0,243,8,0,0,0,243,4,0,0,0,243,38,1,0,0,243,       73P     40
32,0,0,0,243,35,1,0,0,243,36,0,0,0,243,39,1,0,0,243,40,0,0,0,         73P     41
243,41,1,0,0,243,42,1,0,0,243,27,0,0;                                 73P     42
508,1,0,243,3,1,0;                                                    75P     43
508,1,0,243,29,1,0;                                                   77P     44
508,1,0,243,43,1,0;                                                   79P     45
508,1,0,243,44,1,0;                                                   81P     46
508,1,0,243,45,1,0;                                                   83P     47
508,4,0,243,37,0,0,0,243,18,0,0,0,243,46,0,0,0,243,39,0,0;            85P     48
508,4,0,243,43,0,0,0,243,47,1,0,0,243,25,1,0,0,243,47,0,0;            87P     49
508,4,0,243,44,0,0,0,243,48,1,0,0,243,24,1,0,0,243,48,0,0;            89P     50
508,4,0,243,45,0,0,0,243,49,1,0,0,243,23,1,0,0,243,49,0,0;            91P     51
508,4,0,243,16,1,0,0,243,50,1,0,0,243,41,0,0,0,243,51,0,0;            93P     52
508,4,0,243,46,1,0,0,243,17,0,0,0,243,51,1,0,0,243,40,1,0;            95P     53
508,4,0,243,7,0,0,0,243,22,1,0,0,243,33,0,0,0,243,38,0,0;             97P     54
508,4,0,243,15,1,0,0,243,28,0,0,0,243,42,0,0,0,243,50,0,0;            99P     55
126,8,2,0,1,0,0,-3.14159265358979,-3.14159265358979,                 101P     56
-3.14159265358979,-1.5707963267949,-1.5707963267949,0.,0.,           101P     57
1.5707963267949,1.5707963267949,3.14159265358979,                    101P     58
3.14159265358979,3.14159265358979,1.,0.707106781186545,1.,           101P     59
0.707106781186545,1.,0.707106781186545,1.,0.707106781186545,1.,      101P     60
56.,-168.5,31.5556834000509,54.,-168.5,31.5556834000509,54.,         101P     61
-166.5,31.5556834000509,54.,-164.5,31.5556834000509,56.,-164.5,      101P     62
31.5556834000509,58.,-164.5,31.5556834000509,58.,-166.5,             101P     63
31.5556834000509,58.,-168.5,31.5556834000509,56.,-168.5,             101P     64
31.5556834000509,-3.14159265358979,3.14159265358979,0.,0.,0.;        101P     65
126,1,1,0,0,1,0,4.44089209850062D-15,4.44089209850062D-15,2.5,       103P     66
2.5,1.,1.,56.,-168.5,31.5556834000509,56.,-168.5,                    103P     67
26.5556834000509,4.44089209850062D-15,2.5,0.,0.,0.;                  103P     68
126,8,2,0,1,0,0,-3.14159265358979,-3.14159265358979,                 105P     69
-3.14159265358979,-1.5707963267949,-1.5707963267949,0.,0.,           105P     70
1.5707963267949,1.5707963267949,3.14159265358979,                    105P     71
3.14159265358979,3.14159265358979,1.,0.707106781186545,1.,           105P     72
0.707106781186545,1.,0.707106781186545,1.,0.707106781186545,1.,      105P     73
56.,-168.5,26.5556834000509,58.,-168.5,26.5556834000509,58.,         105P     74
-166.5,26.5556834000509,58.,-164.5,26.5556834000509,56.,-164.5,      105P     75
26.5556834000509,54.,-164.5,26.5556834000509,54.,-166.5,             105P     76
26.5556834000509,54.,-168.5,26.5556834000509,56.,-168.5,             105P     77
26.5556834000509,-3.14159265358979,3.14159265358979,0.,0.,0.;        105P     78
126,2,2,0,0,0,0,-0.785398163397448,-0.785398163397448,               107P     79
-0.785398163397448,0.785398163397448,0.785398163397448,              107P     80
0.785398163397448,1.,0.707106781186539,1.,116.,-137.,                107P     81
26.5556834000509,121.,-137.,26.5556834000509,121.,-142.,             107P     82
26.5556834000509,-0.785398163397448,0.785398163397448,0.,0.,0.;      107P     83
126,1,1,0,0,1,0,-0.5,-0.5,0.,0.,1.,1.,121.,-142.,                    109P     84
26.5556834000509,121.,-142.,31.5556834000509,-0.5,0.,0.,0.,0.;       109P     85
126,2,2,0,0,0,0,-0.785398163397448,-0.785398163397448,               111P     86
-0.785398163397448,0.785398163397448,0.785398163397448,              111P     87
0.785398163397448,1.,0.707106781186539,1.,121.,-142.,                111P     88
31.5556834000509,121.,-137.,31.5556834000509,116.,-137.,             111P     89
31.5556834000509,-0.785398163397448,0.785398163397448,0.,0.,0.;      111P     90
126,1,1,0,0,1,0,0.,0.,0.5,0.5,1.,1.,116.,-137.,31.5556834000509,     113P     91
116.,-137.,26.5556834000509,0.,0.5,0.,0.,0.;                         113P     92
126,1,1,0,0,1,0,0.5,0.5,0.899999999999999,0.899999999999999,1.,      115P     93
1.,121.,-142.,26.5556834000509,121.,-146.,26.5556834000509,0.5,      115P     94
0.899999999999999,0.,0.,0.;                                          115P     95
126,1,1,0,0,1,0,-0.125,-0.125,0.375,0.375,1.,1.,121.,-146.,          117P     96
31.5556834000509,121.,-146.,26.5556834000509,-0.125,0.375,0.,0.,     117P     97
0.;                                                                  117P     98
126,1,1,0,0,1,0,0.5,0.5,0.899999999999999,0.899999999999999,1.,      119P     99
1.,121.,-142.,31.5556834000509,121.,-146.,31.5556834000509,0.5,      119P    100
0.899999999999999,0.,0.,0.;                                          119P    101
126,2,2,0,0,0,0,-0.785398163397448,-0.785398163397448,               121P    102
-0.785398163397448,0.785398163397448,0.785398163397448,              121P    103
0.785398163397448,1.,0.707106781186539,1.,121.,-146.,                121P    104
26.5556834000509,121.,-151.,26.5556834000509,126.,-151.,             121P    105
26.5556834000509,-0.785398163397448,0.785398163397448,0.,0.,0.;      121P    106
126,1,1,0,0,1,0,-0.375,-0.375,0.125,0.125,1.,1.,126.,-151.,          123P    107
26.5556834000509,126.,-151.,31.5556834000509,-0.375,0.125,0.,0.,     123P    108
0.;                                                                  123P    109
126,2,2,0,0,0,0,-0.785398163397448,-0.785398163397448,               125P    110
-0.785398163397448,0.785398163397448,0.785398163397448,              125P    111
0.785398163397448,1.,0.707106781186539,1.,126.,-151.,                125P    112
31.5556834000509,121.,-151.,31.5556834000509,121.,-146.,             125P    113
31.5556834000509,-0.785398163397448,0.785398163397448,0.,0.,0.;      125P    114
126,1,1,0,0,1,0,0.,0.,1.,1.,1.,1.,136.,-151.,31.5556834000509,       127P    115
126.,-151.,31.5556834000509,0.,1.,0.,0.,0.;                          127P    116
126,1,1,0,0,1,0,0.,0.,2.9,2.9,1.,1.,136.,-122.,31.5556834000509,     129P    117
136.,-151.,31.5556834000509,0.,2.9,0.,0.,0.;                         129P    118
126,1,1,0,0,1,0,-1.7,-1.7,6.9,6.9,1.,1.,50.,-122.,                   131P    119
31.5556834000509,136.,-122.,31.5556834000509,-1.7,6.9,0.,0.,0.;      131P    120
126,1,1,0,0,1,0,-1.5,-1.5,3.7,3.7,1.,1.,50.,-122.,                   133P    121
31.5556834000509,50.,-174.,31.5556834000509,-1.5,3.7,0.,0.,0.;       133P    122
126,1,1,0,0,1,0,-2.525,-2.525,-1.525,-1.525,1.,1.,50.,-174.,         135P    123
31.5556834000509,60.,-174.,31.5556834000509,-2.525,-1.525,0.,0.,     135P    124
0.;                                                                  135P    125
126,2,2,0,0,0,0,-0.785398163397448,-0.785398163397448,               137P    126
-0.785398163397448,0.785398163397448,0.785398163397448,              137P    127
0.785398163397448,1.,0.707106781186545,1.,65.,-169.,                 137P    128
31.5556834000509,65.,-174.,31.5556834000509,60.,-174.,               137P    129
31.5556834000509,-0.785398163397448,0.785398163397448,0.,0.,0.;      137P    130
126,1,1,0,0,1,0,0.5,0.5,3.2,3.2,1.,1.,65.,-142.,                     139P    131
31.5556834000509,65.,-169.,31.5556834000509,0.5,3.2,0.,0.,0.;        139P    132
126,2,2,0,0,0,0,-0.785398163397448,-0.785398163397448,               141P    133
-0.785398163397448,0.785398163397448,0.785398163397448,              141P    134
0.785398163397448,1.,0.707106781186545,1.,70.,-137.,                 141P    135
31.5556834000509,65.,-137.,31.5556834000509,65.,-142.,               141P    136
31.5556834000509,-0.785398163397448,0.785398163397448,0.,0.,0.;      141P    137
126,1,1,0,0,1,0,2.,2.,6.6,6.6,1.,1.,116.,-137.,31.5556834000509,     143P    138
70.,-137.,31.5556834000509,2.,6.6,0.,0.,0.;                          143P    139
126,8,2,0,1,0,0,-3.14159265358979,-3.14159265358979,                 145P    140
-3.14159265358979,-1.5707963267949,-1.5707963267949,0.,0.,           145P    141
1.5707963267949,1.5707963267949,3.14159265358979,                    145P    142
3.14159265358979,3.14159265358979,1.,0.707106781186547,1.,           145P    143
0.707106781186547,1.,0.707106781186547,1.,0.707106781186547,1.,      145P    144
58.5,-131.,31.5556834000509,60.,-131.,31.5556834000509,60.,          145P    145
-129.5,31.5556834000509,60.,-128.,31.5556834000509,58.5,-128.,       145P    146
31.5556834000509,57.,-128.,31.5556834000509,57.,-129.5,              145P    147
31.5556834000509,57.,-131.,31.5556834000509,58.5,-131.,              145P    148
31.5556834000509,-3.14159265358979,3.14159265358979,0.,0.,0.;        145P    149
126,8,2,0,1,0,0,-3.14159265358979,-3.14159265358979,                 147P    150
-3.14159265358979,-1.5707963267949,-1.5707963267949,0.,0.,           147P    151
1.5707963267949,1.5707963267949,3.14159265358979,                    147P    152
3.14159265358979,3.14159265358979,1.,0.70710678118653,1.,            147P    153
0.70710678118653,1.,0.70710678118653,1.,0.70710678118653,1.,         147P    154
88.5,-131.,31.5556834000509,90.,-131.,31.5556834000509,90.,          147P    155
-129.5,31.5556834000509,90.,-128.,31.5556834000509,88.5,-128.,       147P    156
31.5556834000509,87.,-128.,31.5556834000509,87.,-129.5,              147P    157
31.5556834000509,87.,-131.,31.5556834000509,88.5,-131.,              147P    158
31.5556834000509,-3.14159265358979,3.14159265358979,0.,0.,0.;        147P    159
126,8,2,0,1,0,0,-3.14159265358979,-3.14159265358979,                 149P    160
-3.14159265358979,-1.5707963267949,-1.5707963267949,0.,0.,           149P    161
1.5707963267949,1.5707963267949,3.14159265358979,                    149P    162
3.14159265358979,3.14159265358979,1.,0.70710678118653,1.,            149P    163
0.70710678118653,1.,0.70710678118653,1.,0.70710678118653,1.,         149P    164
128.,-131.,31.5556834000509,129.5,-131.,31.5556834000509,129.5,      149P    165
-129.5,31.5556834000509,129.5,-128.,31.5556834000509,128.,-128.,     149P    166
31.5556834000509,126.5,-128.,31.5556834000509,126.5,-129.5,          149P    167
31.5556834000509,126.5,-131.,31.5556834000509,128.,-131.,            149P    168
31.5556834000509,-3.14159265358979,3.14159265358979,0.,0.,0.;        149P    169
126,8,2,0,1,0,0,-3.14159265358979,-3.14159265358979,                 151P    170
-3.14159265358979,-1.5707963267949,-1.5707963267949,0.,0.,           151P    171
1.5707963267949,1.5707963267949,3.14159265358979,                    151P    172
3.14159265358979,3.14159265358979,1.,0.707106781186517,1.,           151P    173
0.707106781186517,1.,0.707106781186517,1.,0.707106781186517,1.,      151P    174
130.,-141.,31.5556834000509,132.,-141.,31.5556834000509,132.,        151P    175
-143.,31.5556834000509,132.,-145.,31.5556834000509,130.,-145.,       151P    176
31.5556834000509,128.,-145.,31.5556834000509,128.,-143.,             151P    177
31.5556834000509,128.,-141.,31.5556834000509,130.,-141.,             151P    178
31.5556834000509,-3.14159265358979,3.14159265358979,0.,0.,0.;        151P    179
126,1,1,0,0,1,0,0.5,0.5,1.5,1.5,1.,1.,126.,-151.,                    153P    180
26.5556834000509,136.,-151.,26.5556834000509,0.5,1.5,0.,0.,0.;       153P    181
126,1,1,0,0,1,0,0.,0.,0.5,0.5,1.,1.,136.,-151.,26.5556834000509,     155P    182
136.,-151.,31.5556834000509,0.,0.5,0.,0.,0.;                         155P    183
126,8,2,0,1,0,0,-3.14159265358979,-3.14159265358979,                 157P    184
-3.14159265358979,-1.5707963267949,-1.5707963267949,0.,0.,           157P    185
1.5707963267949,1.5707963267949,3.14159265358979,                    157P    186
3.14159265358979,3.14159265358979,1.,0.707106781186517,1.,           157P    187
0.707106781186517,1.,0.707106781186517,1.,0.707106781186517,1.,      157P    188
130.,-141.,26.5556834000509,128.,-141.,26.5556834000509,128.,        157P    189
-143.,26.5556834000509,128.,-145.,26.5556834000509,130.,-145.,       157P    190
26.5556834000509,132.,-145.,26.5556834000509,132.,-143.,             157P    191
26.5556834000509,132.,-141.,26.5556834000509,130.,-141.,             157P    192
26.5556834000509,-3.14159265358979,3.14159265358979,0.,0.,0.;        157P    193
126,1,1,0,0,1,0,-2.22044604925031D-15,-2.22044604925031D-15,2.5,     159P    194
2.5,1.,1.,130.,-141.,26.5556834000509,130.,-141.,                    159P    195
31.5556834000509,-2.22044604925031D-15,2.5,0.,0.,0.;                 159P    196
126,1,1,0,0,1,0,-0.25,-0.25,0.25,0.25,1.,1.,65.,-142.,               161P    197
31.5556834000509,65.,-142.,26.5556834000509,-0.25,0.25,0.,0.,0.;     161P    198
126,2,2,0,0,0,0,-0.785398163397448,-0.785398163397448,               163P    199
-0.785398163397448,0.785398163397448,0.785398163397448,              163P    200
0.785398163397448,1.,0.707106781186545,1.,65.,-142.,                 163P    201
26.5556834000509,65.,-137.,26.5556834000509,70.,-137.,               163P    202
26.5556834000509,-0.785398163397448,0.785398163397448,0.,0.,0.;      163P    203
126,1,1,0,0,1,0,-0.25,-0.25,0.25,0.25,1.,1.,70.,-137.,               165P    204
26.5556834000509,70.,-137.,31.5556834000509,-0.25,0.25,0.,0.,0.;     165P    205
126,1,1,0,0,1,0,-0.125,-0.125,0.375,0.375,1.,1.,65.,-169.,           167P    206
26.5556834000509,65.,-169.,31.5556834000509,-0.125,0.375,0.,0.,      167P    207
0.;                                                                  167P    208
126,1,1,0,0,1,0,0.5,0.5,3.2,3.2,1.,1.,65.,-142.,                     169P    209
26.5556834000509,65.,-169.,26.5556834000509,0.5,3.2,0.,0.,0.;        169P    210
126,2,2,0,0,0,0,-0.785398163397448,-0.785398163397448,               171P    211
-0.785398163397448,0.785398163397448,0.785398163397448,              171P    212
0.785398163397448,1.,0.707106781186545,1.,60.,-174.,                 171P    213
26.5556834000509,65.,-174.,26.5556834000509,65.,-169.,               171P    214
26.5556834000509,-0.785398163397448,0.785398163397448,0.,0.,0.;      171P    215
126,1,1,0,0,1,0,-0.375,-0.375,0.125,0.125,1.,1.,60.,-174.,           173P    216
31.5556834000509,60.,-174.,26.5556834000509,-0.375,0.125,0.,0.,      173P    217
0.;                                                                  173P    218
126,1,1,0,0,1,0,2.,2.,6.6,6.6,1.,1.,116.,-137.,26.5556834000509,     175P    219
70.,-137.,26.5556834000509,2.,6.6,0.,0.,0.;                          175P    220
126,1,1,0,0,1,0,1.525,1.525,2.525,2.525,1.,1.,60.,-174.,             177P    221
26.5556834000509,50.,-174.,26.5556834000509,1.525,2.525,0.,0.,       177P    222
0.;                                                                  177P    223
126,1,1,0,0,1,0,-1.5,-1.5,3.7,3.7,1.,1.,50.,-122.,                   179P    224
26.5556834000509,50.,-174.,26.5556834000509,-1.5,3.7,0.,0.,0.;       179P    225
126,1,1,0,0,1,0,-1.7,-1.7,6.9,6.9,1.,1.,50.,-122.,                   181P    226
26.5556834000509,136.,-122.,26.5556834000509,-1.7,6.9,0.,0.,0.;      181P    227
126,1,1,0,0,1,0,0.,0.,2.9,2.9,1.,1.,136.,-122.,26.5556834000509,     183P    228
136.,-151.,26.5556834000509,0.,2.9,0.,0.,0.;                         183P    229
126,8,2,0,1,0,0,-3.14159265358979,-3.14159265358979,                 185P    230
-3.14159265358979,-1.5707963267949,-1.5707963267949,0.,0.,           185P    231
1.5707963267949,1.5707963267949,3.14159265358979,                    185P    232
3.14159265358979,3.14159265358979,1.,0.70710678118653,1.,            185P    233
0.70710678118653,1.,0.70710678118653,1.,0.70710678118653,1.,         185P    234
128.,-131.,26.5556834000509,129.5,-131.,26.5556834000509,129.5,      185P    235
-129.5,26.5556834000509,129.5,-128.,26.5556834000509,128.,-128.,     185P    236
26.5556834000509,126.5,-128.,26.5556834000509,126.5,-129.5,          185P    237
26.5556834000509,126.5,-131.,26.5556834000509,128.,-131.,            185P    238
26.5556834000509,-3.14159265358979,3.14159265358979,0.,0.,0.;        185P    239
126,8,2,0,1,0,0,-3.14159265358979,-3.14159265358979,                 187P    240
-3.14159265358979,-1.5707963267949,-1.5707963267949,0.,0.,           187P    241
1.5707963267949,1.5707963267949,3.14159265358979,                    187P    242
3.14159265358979,3.14159265358979,1.,0.70710678118653,1.,            187P    243
0.70710678118653,1.,0.70710678118653,1.,0.70710678118653,1.,         187P    244
88.5,-131.,26.5556834000509,90.,-131.,26.5556834000509,90.,          187P    245
-129.5,26.5556834000509,90.,-128.,26.5556834000509,88.5,-128.,       187P    246
26.5556834000509,87.,-128.,26.5556834000509,87.,-129.5,              187P    247
26.5556834000509,87.,-131.,26.5556834000509,88.5,-131.,              187P    248
26.5556834000509,-3.14159265358979,3.14159265358979,0.,0.,0.;        187P    249
126,8,2,0,1,0,0,-3.14159265358979,-3.14159265358979,                 189P    250
-3.14159265358979,-1.5707963267949,-1.5707963267949,0.,0.,           189P    251
1.5707963267949,1.5707963267949,3.14159265358979,                    189P    252
3.14159265358979,3.14159265358979,1.,0.707106781186547,1.,           189P    253
0.707106781186547,1.,0.707106781186547,1.,0.707106781186547,1.,      189P    254
58.5,-131.,26.5556834000509,60.,-131.,26.5556834000509,60.,          189P    255
-129.5,26.5556834000509,60.,-128.,26.5556834000509,58.5,-128.,       189P    256
26.5556834000509,57.,-128.,26.5556834000509,57.,-129.5,              189P    257
26.5556834000509,57.,-131.,26.5556834000509,58.5,-131.,              189P    258
26.5556834000509,-3.14159265358979,3.14159265358979,0.,0.,0.;        189P    259
126,1,1,0,0,1,0,-0.375,-0.375,0.125,0.125,1.,1.,50.,-174.,           191P    260
26.5556834000509,50.,-174.,31.5556834000509,-0.375,0.125,0.,0.,      191P    261
0.;                                                                  191P    262
126,1,1,0,0,1,0,-3.33333333333333,-3.33333333333333,0.,0.,1.,1.,     193P    263
128.,-131.,26.5556834000509,128.,-131.,31.5556834000509,             193P    264
-3.33333333333333,0.,0.,0.,0.;                                       193P    265
126,1,1,0,0,1,0,-3.33333333333333,-3.33333333333333,0.,0.,1.,1.,     195P    266
88.5,-131.,26.5556834000509,88.5,-131.,31.5556834000509,             195P    267
-3.33333333333333,0.,0.,0.,0.;                                       195P    268
126,1,1,0,0,1,0,-3.33333333333333,-3.33333333333333,0.,0.,1.,1.,     197P    269
58.5,-131.,26.5556834000509,58.5,-131.,31.5556834000509,             197P    270
-3.33333333333333,0.,0.,0.,0.;                                       197P    271
126,1,1,0,0,1,0,0.,0.,0.5,0.5,1.,1.,136.,-122.,31.5556834000509,     199P    272
136.,-122.,26.5556834000509,0.,0.5,0.,0.,0.;                         199P    273
126,1,1,0,0,1,0,0.,0.,0.5,0.5,1.,1.,50.,-122.,31.5556834000509,      201P    274
50.,-122.,26.5556834000509,0.,0.5,0.,0.,0.;                          201P    275
128,1,8,1,2,0,1,0,0,1,4.44089209850062D-15,4.44089209850062D-15,     203P    276
2.5,2.5,-3.14159265358979,-3.14159265358979,-3.14159265358979,       203P    277
-1.5707963267949,-1.5707963267949,0.,0.,1.5707963267949,             203P    278
1.5707963267949,3.14159265358979,3.14159265358979,                   203P    279
3.14159265358979,1.,1.,0.707106781186548,0.707106781186548,1.,       203P    280
1.,0.707106781186548,0.707106781186548,1.,1.,0.707106781186548,      203P    281
0.707106781186548,1.,1.,0.707106781186548,0.707106781186548,1.,      203P    282
1.,56.,-168.5,31.5556834000509,56.,-168.5,26.5556834000509,54.,      203P    283
-168.5,31.5556834000509,54.,-168.5,26.5556834000509,54.,-166.5,      203P    284
31.5556834000509,54.,-166.5,26.5556834000509,54.,-164.5,             203P    285
31.5556834000509,54.,-164.5,26.5556834000509,56.,-164.5,             203P    286
31.5556834000509,56.,-164.5,26.5556834000509,58.,-164.5,             203P    287
31.5556834000509,58.,-164.5,26.5556834000509,58.,-166.5,             203P    288
31.5556834000509,58.,-166.5,26.5556834000509,58.,-168.5,             203P    289
31.5556834000509,58.,-168.5,26.5556834000509,56.,-168.5,             203P    290
31.5556834000509,56.,-168.5,26.5556834000509,                        203P    291
4.44089209850062D-15,2.5,-3.14159265358979,3.14159265358979;         203P    292
128,1,2,1,2,0,0,0,0,0,-1.,-1.,0.,0.,-0.785398163397448,              205P    293
-0.785398163397448,-0.785398163397448,0.785398163397448,             205P    294
0.785398163397448,0.785398163397448,1.,1.,0.707106781186548,         205P    295
0.707106781186548,1.,1.,121.,-142.,26.5556834000509,121.,-142.,      205P    296
31.5556834000509,121.,-137.,26.5556834000509,121.,-137.,             205P    297
31.5556834000509,116.,-137.,26.5556834000509,116.,-137.,             205P    298
31.5556834000509,-1.,0.,-0.785398163397448,0.785398163397448;        205P    299
128,1,1,1,1,0,0,1,0,0,0.,0.,0.5,0.5,0.5,0.5,0.899999999999999,       207P    300
0.899999999999999,1.,1.,1.,1.,121.,-142.,31.5556834000509,121.,      207P    301
-142.,26.5556834000509,121.,-146.,31.5556834000509,121.,-146.,       207P    302
26.5556834000509,0.,0.5,0.5,0.899999999999999;                       207P    303
128,1,2,1,2,0,0,0,0,0,-0.25,-0.25,0.750000000000001,                 209P    304
0.750000000000001,-0.785398163397448,-0.785398163397448,             209P    305
-0.785398163397448,0.785398163397448,0.785398163397448,              209P    306
0.785398163397448,1.,1.,0.707106781186548,0.707106781186548,1.,      209P    307
1.,126.,-151.,26.5556834000509,126.,-151.,31.5556834000509,121.,     209P    308
-151.,26.5556834000509,121.,-151.,31.5556834000509,121.,-146.,       209P    309
26.5556834000509,121.,-146.,31.5556834000509,-0.25,                  209P    310
0.750000000000001,-0.785398163397448,0.785398163397448;              209P    311
128,1,1,1,1,0,0,1,0,0,-0.75,-0.75,4.45,4.45,-4.3,-4.3,4.3,4.3,       211P    312
1.,1.,1.,1.,136.,-174.,31.5556834000509,136.,-122.,                  211P    313
31.5556834000509,50.,-174.,31.5556834000509,50.,-122.,               211P    314
31.5556834000509,-0.75,4.45,-4.3,4.3;                                211P    315
128,1,1,1,1,0,0,1,0,0,-0.25,-0.25,0.25,0.25,-0.25,-0.25,0.75,        213P    316
0.75,1.,1.,1.,1.,126.,-151.,31.5556834000509,126.,-151.,             213P    317
26.5556834000509,136.,-151.,31.5556834000509,136.,-151.,             213P    318
26.5556834000509,-0.25,0.25,-0.25,0.75;                              213P    319
128,1,8,1,2,0,1,0,0,1,-2.22044604925031D-15,                         215P    320
-2.22044604925031D-15,2.5,2.5,-3.14159265358979,                     215P    321
-3.14159265358979,-3.14159265358979,-1.5707963267949,                215P    322
-1.5707963267949,0.,0.,1.5707963267949,1.5707963267949,              215P    323
3.14159265358979,3.14159265358979,3.14159265358979,1.,1.,            215P    324
0.707106781186548,0.707106781186548,1.,1.,0.707106781186548,         215P    325
0.707106781186548,1.,1.,0.707106781186548,0.707106781186548,1.,      215P    326
1.,0.707106781186548,0.707106781186548,1.,1.,130.,-141.,             215P    327
26.5556834000509,130.,-141.,31.5556834000509,128.,-141.,             215P    328
26.5556834000509,128.,-141.,31.5556834000509,128.,-143.,             215P    329
26.5556834000509,128.,-143.,31.5556834000509,128.,-145.,             215P    330
26.5556834000509,128.,-145.,31.5556834000509,130.,-145.,             215P    331
26.5556834000509,130.,-145.,31.5556834000509,132.,-145.,             215P    332
26.5556834000509,132.,-145.,31.5556834000509,132.,-143.,             215P    333
26.5556834000509,132.,-143.,31.5556834000509,132.,-141.,             215P    334
26.5556834000509,132.,-141.,31.5556834000509,130.,-141.,             215P    335
26.5556834000509,130.,-141.,31.5556834000509,                        215P    336
-2.22044604925031D-15,2.5,-3.14159265358979,3.14159265358979;        215P    337
128,1,2,1,2,0,0,0,0,0,-0.5,-0.5,0.500000000000001,                   217P    338
0.500000000000001,-0.785398163397448,-0.785398163397448,             217P    339
-0.785398163397448,0.785398163397448,0.785398163397448,              217P    340
0.785398163397448,1.,1.,0.707106781186548,0.707106781186548,1.,      217P    341
1.,65.,-142.,31.5556834000509,65.,-142.,26.5556834000509,65.,        217P    342
-137.,31.5556834000509,65.,-137.,26.5556834000509,70.,-137.,         217P    343
31.5556834000509,70.,-137.,26.5556834000509,-0.5,                    217P    344
0.500000000000001,-0.785398163397448,0.785398163397448;              217P    345
128,1,1,1,1,0,0,1,0,0,0.,0.,0.5,0.5,0.5,0.5,3.2,3.2,1.,1.,1.,1.,     219P    346
65.,-142.,26.5556834000509,65.,-142.,31.5556834000509,65.,-169.,     219P    347
26.5556834000509,65.,-169.,31.5556834000509,0.,0.5,0.5,3.2;          219P    348
128,1,2,1,2,0,0,0,0,0,-0.750000000000001,-0.750000000000001,         221P    349
0.250000000000001,0.250000000000001,-0.785398163397448,              221P    350
-0.785398163397448,-0.785398163397448,0.785398163397448,             221P    351
0.785398163397448,0.785398163397448,1.,1.,0.707106781186548,         221P    352
0.707106781186548,1.,1.,65.,-169.,26.5556834000509,65.,-169.,        221P    353
31.5556834000509,65.,-174.,26.5556834000509,65.,-174.,               221P    354
31.5556834000509,60.,-174.,26.5556834000509,60.,-174.,               221P    355
31.5556834000509,-0.750000000000001,0.250000000000001,               221P    356
-0.785398163397448,0.785398163397448;                                221P    357
128,1,1,1,1,0,0,1,0,0,-0.75,-0.75,4.45,4.45,-4.3,-4.3,4.3,4.3,       223P    358
1.,1.,1.,1.,136.,-122.,26.5556834000509,136.,-174.,                  223P    359
26.5556834000509,50.,-122.,26.5556834000509,50.,-174.,               223P    360
26.5556834000509,-0.75,4.45,-4.3,4.3;                                223P    361
128,1,1,1,1,0,0,1,0,0,-0.25,-0.25,0.25,0.25,-0.75,-0.75,0.25,        225P    362
0.25,1.,1.,1.,1.,50.,-174.,31.5556834000509,50.,-174.,               225P    363
26.5556834000509,60.,-174.,31.555683400051,60.,-174.,                225P    364
26.5556834000509,-0.25,0.25,-0.75,0.25;                              225P    365
128,1,8,1,2,0,1,0,0,1,0.,0.,3.33333333333333,3.33333333333333,       227P    366
-3.14159265358979,-3.14159265358979,-3.14159265358979,               227P    367
-1.5707963267949,-1.5707963267949,0.,0.,1.5707963267949,             227P    368
1.5707963267949,3.14159265358979,3.14159265358979,                   227P    369
3.14159265358979,1.,1.,0.707106781186548,0.707106781186548,1.,       227P    370
1.,0.707106781186548,0.707106781186548,1.,1.,0.707106781186548,      227P    371
0.707106781186548,1.,1.,0.707106781186548,0.707106781186548,1.,      227P    372
1.,128.,-131.,31.5556834000509,128.,-131.,26.5556834000509,          227P    373
126.5,-131.,31.5556834000509,126.5,-131.,26.5556834000509,126.5,     227P    374
-129.5,31.5556834000509,126.5,-129.5,26.5556834000509,126.5,         227P    375
-128.,31.5556834000509,126.5,-128.,26.5556834000509,128.,-128.,      227P    376
31.5556834000509,128.,-128.,26.5556834000509,129.5,-128.,            227P    377
31.5556834000509,129.5,-128.,26.5556834000509,129.5,-129.5,          227P    378
31.5556834000509,129.5,-129.5,26.5556834000509,129.5,-131.,          227P    379
31.5556834000509,129.5,-131.,26.5556834000509,128.,-131.,            227P    380
31.5556834000509,128.,-131.,26.5556834000509,0.,                     227P    381
3.33333333333333,-3.14159265358979,3.14159265358979;                 227P    382
128,1,8,1,2,0,1,0,0,1,0.,0.,3.33333333333333,3.33333333333333,       229P    383
-3.14159265358979,-3.14159265358979,-3.14159265358979,               229P    384
-1.5707963267949,-1.5707963267949,0.,0.,1.5707963267949,             229P    385
1.5707963267949,3.14159265358979,3.14159265358979,                   229P    386
3.14159265358979,1.,1.,0.707106781186548,0.707106781186548,1.,       229P    387
1.,0.707106781186548,0.707106781186548,1.,1.,0.707106781186548,      229P    388
0.707106781186548,1.,1.,0.707106781186548,0.707106781186548,1.,      229P    389
1.,88.5,-131.,31.5556834000509,88.5,-131.,26.5556834000509,87.,      229P    390
-131.,31.5556834000509,87.,-131.,26.5556834000509,87.,-129.5,        229P    391
31.5556834000509,87.,-129.5,26.5556834000509,87.,-128.,              229P    392
31.5556834000509,87.,-128.,26.5556834000509,88.5,-128.,              229P    393
31.5556834000509,88.5,-128.,26.5556834000509,90.,-128.,              229P    394
31.5556834000509,90.,-128.,26.5556834000509,90.,-129.5,              229P    395
31.5556834000509,90.,-129.5,26.5556834000509,90.,-131.,              229P    396
31.5556834000509,90.,-131.,26.5556834000509,88.5,-131.,              229P    397
31.5556834000509,88.5,-131.,26.5556834000509,0.,                     229P    398
3.33333333333333,-3.14159265358979,3.14159265358979;                 229P    399
128,1,8,1,2,0,1,0,0,1,0.,0.,3.33333333333333,3.33333333333333,       231P    400
-3.14159265358979,-3.14159265358979,-3.14159265358979,               231P    401
-1.5707963267949,-1.5707963267949,0.,0.,1.5707963267949,             231P    402
1.5707963267949,3.14159265358979,3.14159265358979,                   231P    403
3.14159265358979,1.,1.,0.707106781186548,0.707106781186548,1.,       231P    404
1.,0.707106781186548,0.707106781186548,1.,1.,0.707106781186548,      231P    405
0.707106781186548,1.,1.,0.707106781186548,0.707106781186548,1.,      231P    406
1.,58.5,-131.,31.5556834000509,58.5,-131.,26.5556834000509,57.,      231P    407
-131.,31.5556834000509,57.,-131.,26.5556834000509,57.,-129.5,        231P    408
31.5556834000509,57.,-129.5,26.5556834000509,57.,-128.,              231P    409
31.5556834000509,57.,-128.,26.5556834000509,58.5,-128.,              231P    410
31.5556834000509,58.5,-128.,26.5556834000509,60.,-128.,              231P    411
31.5556834000509,60.,-128.,26.5556834000509,60.,-129.5,              231P    412
31.5556834000509,60.,-129.5,26.5556834000509,60.,-131.,              231P    413
31.5556834000509,60.,-131.,26.5556834000509,58.5,-131.,              231P    414
31.5556834000509,58.5,-131.,26.5556834000509,0.,                     231P    415
3.33333333333333,-3.14159265358979,3.14159265358979;                 231P    416
128,1,1,1,1,0,0,1,0,0,0.,0.,8.6,8.6,-4.91608969920341D-31,           233P    417
-4.91608969920341D-31,0.5,0.5,1.,1.,1.,1.,50.,-122.,                 233P    418
31.5556834000509,136.,-122.,31.5556834000509,50.,-122.,              233P    419
26.5556834000509,136.,-122.,26.5556834000509,0.,8.6,                 233P    420
-4.91608969920341D-31,0.5;                                           233P    421
128,1,1,1,1,0,0,1,0,0,-3.7,-3.7,1.5,1.5,-4.44089209850063D-16,       235P    422
-4.44089209850063D-16,0.500000000000001,0.500000000000001,1.,1.,     235P    423
1.,1.,50.,-174.,31.555683400051,50.,-122.,31.5556834000509,50.,      235P    424
-174.,26.5556834000509,50.,-122.,26.5556834000509,-3.7,1.5,          235P    425
-4.44089209850063D-16,0.500000000000001;                             235P    426
128,1,1,1,1,0,0,1,0,0,2.,2.,6.6,6.6,0.,0.,0.5,0.5,1.,1.,1.,1.,       237P    427
116.,-137.,31.5556834000509,70.,-137.,31.5556834000509,116.,         237P    428
-137.,26.5556834000509,70.,-137.,26.5556834000509,2.,6.6,0.,0.5;     237P    429
128,1,1,1,1,0,0,1,0,0,-1.11022302462516D-16,                         239P    430
-1.11022302462516D-16,2.9,2.9,-1.22124532708767D-16,                 239P    431
-1.22124532708767D-16,0.5,0.5,1.,1.,1.,1.,136.,-122.,                239P    432
31.5556834000509,136.,-151.,31.5556834000509,136.,-122.,             239P    433
26.5556834000509,136.,-151.,26.5556834000509,                        239P    434
-1.11022302462516D-16,2.9,-1.22124532708767D-16,0.5;                 239P    435
502,34,56.,-168.5,31.555683400051,56.,-168.5,26.5556834000509,       241P    436
116.,-137.,26.5556834000509,121.,-142.,26.5556834000509,121.,        241P    437
-142.,31.5556834000509,116.,-137.,31.5556834000509,121.,-146.,       241P    438
26.5556834000509,121.,-146.,31.5556834000509,126.,-151.,             241P    439
26.5556834000509,126.,-151.,31.5556834000509,136.,-151.,             241P    440
31.5556834000509,136.,-122.,31.5556834000509,50.,-122.,              241P    441
31.5556834000509,50.,-174.,31.5556834000509,60.,-174.,               241P    442
31.5556834000509,65.,-169.,31.5556834000509,65.,-142.,               241P    443
31.5556834000509,70.,-137.,31.5556834000509,58.5,-131.,              241P    444
31.5556834000509,88.5,-131.,31.5556834000509,128.,-131.,             241P    445
31.5556834000509,130.,-141.,31.5556834000509,136.,-151.,             241P    446
26.5556834000509,130.,-141.,26.5556834000509,65.,-142.,              241P    447
26.5556834000509,70.,-137.,26.5556834000509,65.,-169.,               241P    448
26.5556834000509,60.,-174.,26.5556834000509,50.,-174.,               241P    449
26.5556834000509,50.,-122.,26.5556834000509,136.,-122.,              241P    450
26.5556834000509,128.,-131.,26.5556834000509,88.5,-131.,             241P    451
26.5556834000509,58.5,-131.,26.5556834000509;                        241P    452
504,51,101,241,1,241,1,103,241,1,241,2,105,241,2,241,2,107,241,      243P    453
3,241,4,109,241,4,241,5,111,241,5,241,6,113,241,6,241,3,115,241,     243P    454
4,241,7,117,241,8,241,7,119,241,5,241,8,121,241,7,241,9,123,241,     243P    455
9,241,10,125,241,10,241,8,127,241,11,241,10,129,241,12,241,11,       243P    456
131,241,13,241,12,133,241,13,241,14,135,241,14,241,15,137,241,       243P    457
16,241,15,139,241,17,241,16,141,241,18,241,17,143,241,6,241,18,      243P    458
145,241,19,241,19,147,241,20,241,20,149,241,21,241,21,151,241,       243P    459
22,241,22,153,241,9,241,23,155,241,23,241,11,157,241,24,241,24,      243P    460
159,241,24,241,22,161,241,17,241,25,163,241,25,241,26,165,241,       243P    461
26,241,18,167,241,27,241,16,169,241,25,241,27,171,241,28,241,27,     243P    462
173,241,15,241,28,175,241,3,241,26,177,241,28,241,29,179,241,30,     243P    463
241,29,181,241,30,241,31,183,241,31,241,23,185,241,32,241,32,        243P    464
187,241,33,241,33,189,241,34,241,34,191,241,29,241,14,193,241,       243P    465
32,241,21,195,241,33,241,20,197,241,34,241,19,199,241,12,241,31,     243P    466
201,241,13,241,30;                                                   243P    467
406,1,5HBody1;                                                       245P    468
314,62.7450980392157,62.7450980392157,62.7450980392157,13HSteel      247P    469
- Satin;                                                             247P    470
S      1G      3D    248P    470                                        T      1
