                                                                        S      1
,,10HBackPanel4,10HBackPanel4,7Hunknown,7Hunknown,32,38,7,99,15,,1.,2,2HG      1
MM,1,0.08,15H20150605.172525,0.01,10000.,7Hunknown,7Hunknown,11,0,;     G      2
     186       1                                                00000000D      1
     186            -279       1       0                               0D      2
     514       2                                                00010000D      3
     514                       2       1                               0D      4
     510       4                                                00010000D      5
     510            -279       1       1                               0D      6
     510       5                                                00010000D      7
     510            -279       1       1                               0D      8
     510       6                                                00010000D      9
     510            -279       1       1                               0D     10
     510       7                                                00010000D     11
     510            -279       1       1                               0D     12
     510       8                                                00010000D     13
     510            -279       1       1                               0D     14
     510       9                                                00010000D     15
     510            -279       1       1                               0D     16
     510      10                                                00010000D     17
     510            -279       1       1                               0D     18
     510      11                                                00010000D     19
     510            -279       1       1                               0D     20
     510      12                                                00010000D     21
     510            -279       1       1                               0D     22
     510      13                                                00010000D     23
     510            -279       1       1                               0D     24
     510      14                                                00010000D     25
     510            -279       1       1                               0D     26
     510      15                                                00010000D     27
     510            -279       1       1                               0D     28
     510      16                                                00010000D     29
     510            -279       1       1                               0D     30
     510      17                                                00010000D     31
     510            -279       1       1                               0D     32
     510      18                                                00010000D     33
     510            -279       1       1                               0D     34
     510      19                                                00010000D     35
     510            -279       1       1                               0D     36
     510      20                                                00010000D     37
     510            -279       1       1                               0D     38
     510      21                                                00010000D     39
     510            -279       1       1                               0D     40
     510      22                                                00010000D     41
     510            -279       1       1                               0D     42
     510      23                                                00010000D     43
     510            -279       1       1                               0D     44
     510      24                                                00010000D     45
     510            -279       1       1                               0D     46
     510      25                                                00010000D     47
     510            -279       1       1                               0D     48
     508      26                                                00010000D     49
     508                       1       1                               0D     50
     508      27                                                00010000D     51
     508                       1       1                               0D     52
     508      28                                                00010000D     53
     508                       1       1                               0D     54
     508      29                                                00010000D     55
     508                       1       1                               0D     56
     508      30                                                00010000D     57
     508                       2       1                               0D     58
     508      32                                                00010000D     59
     508                       3       1                               0D     60
     508      35                                                00010000D     61
     508                       1       1                               0D     62
     508      36                                                00010000D     63
     508                       1       1                               0D     64
     508      37                                                00010000D     65
     508                       1       1                               0D     66
     508      38                                                00010000D     67
     508                       1       1                               0D     68
     508      39                                                00010000D     69
     508                       1       1                               0D     70
     508      40                                                00010000D     71
     508                       1       1                               0D     72
     508      41                                                00010000D     73
     508                       1       1                               0D     74
     508      42                                                00010000D     75
     508                       1       1                               0D     76
     508      43                                                00010000D     77
     508                       1       1                               0D     78
     508      44                                                00010000D     79
     508                       1       1                               0D     80
     508      45                                                00010000D     81
     508                       2       1                               0D     82
     508      47                                                00010000D     83
     508                       1       1                               0D     84
     508      48                                                00010000D     85
     508                       1       1                               0D     86
     508      49                                                00010000D     87
     508                       1       1                               0D     88
     508      50                                                00010000D     89
     508                       1       1                               0D     90
     508      51                                                00010000D     91
     508                       1       1                               0D     92
     508      52                                                00010000D     93
     508                       1       1                               0D     94
     508      53                                                00010000D     95
     508                       1       1                               0D     96
     508      54                                                00010000D     97
     508                       1       1                               0D     98
     508      55                                                00010000D     99
     508                       3       1                               0D    100
     508      58                                                00010000D    101
     508                       1       1                               0D    102
     508      59                                                00010000D    103
     508                       1       1                               0D    104
     508      60                                                00010000D    105
     508                       1       1                               0D    106
     508      61                                                00010000D    107
     508                       1       1                               0D    108
     126      62                                                00010000D    109
     126       0               4       0                               0D    110
     126      66                                                00010000D    111
     126       0               2       0                               0D    112
     126      68                                                00010000D    113
     126       0               4       0                               0D    114
     126      72                                                00010000D    115
     126       0               2       0                               0D    116
     126      74                                                00010000D    117
     126       0               2       0                               0D    118
     126      76                                                00010000D    119
     126       0               2       0                               0D    120
     126      78                                                00010000D    121
     126       0               2       0                               0D    122
     126      80                                                00010000D    123
     126       0               4       0                               0D    124
     126      84                                                00010000D    125
     126       0               2       0                               0D    126
     126      86                                                00010000D    127
     126       0               4       0                               0D    128
     126      90                                                00010000D    129
     126       0               3       0                               0D    130
     126      93                                                00010000D    131
     126       0               2       0                               0D    132
     126      95                                                00010000D    133
     126       0               2       0                               0D    134
     126      97                                                00010000D    135
     126       0               2       0                               0D    136
     126      99                                                00010000D    137
     126       0               2       0                               0D    138
     126     101                                                00010000D    139
     126       0               4       0                               0D    140
     126     105                                                00010000D    141
     126       0               3       0                               0D    142
     126     108                                                00010000D    143
     126       0               2       0                               0D    144
     126     110                                                00010000D    145
     126       0               2       0                               0D    146
     126     112                                                00010000D    147
     126       0               2       0                               0D    148
     126     114                                                00010000D    149
     126       0               2       0                               0D    150
     126     116                                                00010000D    151
     126       0               2       0                               0D    152
     126     118                                                00010000D    153
     126       0               3       0                               0D    154
     126     121                                                00010000D    155
     126       0               5       0                               0D    156
     126     126                                                00010000D    157
     126       0               2       0                               0D    158
     126     128                                                00010000D    159
     126       0               2       0                               0D    160
     126     130                                                00010000D    161
     126       0               2       0                               0D    162
     126     132                                                00010000D    163
     126       0               2       0                               0D    164
     126     134                                                00010000D    165
     126       0               2       0                               0D    166
     126     136                                                00010000D    167
     126       0              10       0                               0D    168
     126     146                                                00010000D    169
     126       0               8       0                               0D    170
     126     154                                                00010000D    171
     126       0               8       0                               0D    172
     126     162                                                00010000D    173
     126       0               8       0                               0D    174
     126     170                                                00010000D    175
     126       0               2       0                               0D    176
     126     172                                                00010000D    177
     126       0               3       0                               0D    178
     126     175                                                00010000D    179
     126       0               3       0                               0D    180
     126     178                                                00010000D    181
     126       0               2       0                               0D    182
     126     180                                                00010000D    183
     126       0               3       0                               0D    184
     126     183                                                00010000D    185
     126       0               3       0                               0D    186
     126     186                                                00010000D    187
     126       0               2       0                               0D    188
     126     188                                                00010000D    189
     126       0               2       0                               0D    190
     126     190                                                00010000D    191
     126       0               5       0                               0D    192
     126     195                                                00010000D    193
     126       0               2       0                               0D    194
     126     197                                                00010000D    195
     126       0               3       0                               0D    196
     126     200                                                00010000D    197
     126       0               2       0                               0D    198
     126     202                                                00010000D    199
     126       0               2       0                               0D    200
     126     204                                                00010000D    201
     126       0               2       0                               0D    202
     126     206                                                00010000D    203
     126       0               8       0                               0D    204
     126     214                                                00010000D    205
     126       0               3       0                               0D    206
     126     217                                                00010000D    207
     126       0               8       0                               0D    208
     126     225                                                00010000D    209
     126       0               3       0                               0D    210
     126     228                                                00010000D    211
     126       0              10       0                               0D    212
     126     238                                                00010000D    213
     126       0               4       0                               0D    214
     126     242                                                00010000D    215
     126       0              10       0                               0D    216
     126     252                                                00010000D    217
     126       0               3       0                               0D    218
     126     255                                                00010000D    219
     126       0               8       0                               0D    220
     126     263                                                00010000D    221
     126       0               2       0                               0D    222
     126     265                                                00010000D    223
     126       0               8       0                               0D    224
     126     273                                                00010000D    225
     126       0               2       0                               0D    226
     126     275                                                00010000D    227
     126       0               2       0                               0D    228
     128     277                                                00010000D    229
     128       0    -279       3       0                               0D    230
     128     280                                                00010000D    231
     128       0    -279       3       0                               0D    232
     128     283                                                00010000D    233
     128       0    -279       3       0                               0D    234
     128     286                                                00010000D    235
     128       0    -279       3       0                               0D    236
     128     289                                                00010000D    237
     128       0    -279       2       0                               0D    238
     128     291                                                00010000D    239
     128       0    -279       3       0                               0D    240
     128     294                                                00010000D    241
     128       0    -279       3       0                               0D    242
     128     297                                                00010000D    243
     128       0    -279       4       0                               0D    244
     128     301                                                00010000D    245
     128       0    -279       4       0                               0D    246
     128     305                                                00010000D    247
     128       0    -279       3       0                               0D    248
     128     308                                                00010000D    249
     128       0    -279       8       0                               0D    250
     128     316                                                00010000D    251
     128       0    -279       3       0                               0D    252
     128     319                                                00010000D    253
     128       0    -279       4       0                               0D    254
     128     323                                                00010000D    255
     128       0    -279       3       0                               0D    256
     128     326                                                00010000D    257
     128       0    -279      13       0                               0D    258
     128     339                                                00010000D    259
     128       0    -279      13       0                               0D    260
     128     352                                                00010000D    261
     128       0    -279      18       0                               0D    262
     128     370                                                00010000D    263
     128       0    -279      17       0                               0D    264
     128     387                                                00010000D    265
     128       0    -279      12       0                               0D    266
     128     399                                                00010000D    267
     128       0    -279      15       0                               0D    268
     128     414                                                00010000D    269
     128       0    -279       3       0                               0D    270
     128     417                                                00010000D    271
     128       0    -279       3       0                               0D    272
     502     420                                                00010000D    273
     502                      11       1                               0D    274
     504     431                                                00010001D    275
     504                      17       1                               0D    276
     406     448                                                00000000D    277
     406                       1      15                               0D    278
     314     449                                                00000200D    279
     314                       2       0                               0D    280
186,3,1,0,0,1,277;                                                     1P      1
514,22,5,1,7,1,9,1,11,1,13,1,15,1,17,1,19,1,21,1,23,1,25,1,27,1,       3P      2
29,1,31,1,33,1,35,1,37,1,39,1,41,1,43,1,45,1,47,1;                     3P      3
510,229,1,1,49;                                                        5P      4
510,231,1,1,51;                                                        7P      5
510,233,1,1,53;                                                        9P      6
510,235,1,1,55;                                                       11P      7
510,237,1,1,57;                                                       13P      8
510,239,1,1,59;                                                       15P      9
510,241,6,1,61,63,65,67,69,71;                                        17P     10
510,243,1,1,73;                                                       19P     11
510,245,1,1,75;                                                       21P     12
510,247,1,1,77;                                                       23P     13
510,249,1,1,79;                                                       25P     14
510,251,1,1,81;                                                       27P     15
510,253,1,1,83;                                                       29P     16
510,255,1,1,85;                                                       31P     17
510,257,1,1,87;                                                       33P     18
510,259,1,1,89;                                                       35P     19
510,261,1,1,91;                                                       37P     20
510,263,1,1,93;                                                       39P     21
510,265,1,1,95;                                                       41P     22
510,267,1,1,97;                                                       43P     23
510,269,4,1,99,101,103,105;                                           45P     24
510,271,1,1,107;                                                      47P     25
508,4,0,275,1,1,0,0,275,2,0,0,0,275,3,1,0,0,275,4,0,0;                49P     26
508,4,0,275,2,1,0,0,275,5,1,0,0,275,6,1,0,0,275,7,1,0;                51P     27
508,4,0,275,8,1,0,0,275,9,0,0,0,275,10,1,0,0,275,6,0,0;               53P     28
508,4,0,275,4,1,0,0,275,11,1,0,0,275,9,1,0,0,275,12,1,0;              55P     29
508,6,0,275,13,0,0,0,275,14,0,0,0,275,15,0,0,0,275,16,0,0,0,275,      57P     30
17,0,0,0,275,18,0,0;                                                  57P     31
508,10,0,275,14,1,0,0,275,19,1,0,0,275,20,0,0,0,275,21,1,0,0,         59P     32
275,22,1,0,0,275,23,0,0,0,275,24,0,0,0,275,25,0,0,0,275,26,0,0,       59P     33
0,275,27,0,0;                                                         59P     34
508,4,0,275,13,1,0,0,275,28,1,0,0,275,29,0,0,0,275,19,0,0;            61P     35
508,4,0,275,12,0,0,0,275,8,0,0,0,275,5,0,0,0,275,1,0,0;               63P     36
508,1,0,275,30,0,0;                                                   65P     37
508,1,0,275,31,0,0;                                                   67P     38
508,1,0,275,32,0,0;                                                   69P     39
508,1,0,275,33,0,0;                                                   71P     40
508,4,0,275,34,1,0,0,275,23,1,0,0,275,35,1,0,0,275,36,1,0;            73P     41
508,4,0,275,37,1,0,0,275,38,1,0,0,275,39,1,0,0,275,25,1,0;            75P     42
508,4,0,275,39,0,0,0,275,40,0,0,0,275,41,1,0,0,275,26,1,0;            77P     43
508,4,0,275,37,0,0,0,275,24,1,0,0,275,34,0,0,0,275,42,1,0;            79P     44
508,6,0,275,38,0,0,0,275,42,0,0,0,275,36,0,0,0,275,43,0,0,0,275,      81P     45
44,1,0,0,275,40,1,0;                                                  81P     46
508,4,0,275,35,0,0,0,275,22,0,0,0,275,45,1,0,0,275,43,1,0;            83P     47
508,4,0,275,20,1,0,0,275,29,1,0,0,275,46,1,0,0,275,47,1,0;            85P     48
508,4,0,275,48,0,0,0,275,49,1,0,0,275,50,0,0,0,275,49,0,0;            87P     49
508,4,0,275,50,1,0,0,275,51,1,0,0,275,31,1,0,0,275,51,0,0;            89P     50
508,4,0,275,52,0,0,0,275,53,1,0,0,275,54,0,0,0,275,53,0,0;            91P     51
508,4,0,275,54,1,0,0,275,55,1,0,0,275,30,1,0,0,275,55,0,0;            93P     52
508,4,0,275,56,1,0,0,275,57,1,0,0,275,32,1,0,0,275,57,0,0;            95P     53
508,4,0,275,58,1,0,0,275,59,1,0,0,275,33,1,0,0,275,59,0,0;            97P     54
508,12,0,275,17,1,0,0,275,52,1,0,0,275,16,1,0,0,275,48,1,0,0,         99P     55
275,15,1,0,0,275,27,1,0,0,275,41,0,0,0,275,44,0,0,0,275,45,0,0,       99P     56
0,275,21,0,0,0,275,47,0,0,0,275,60,0,0;                               99P     57
508,4,0,275,3,0,0,0,275,7,0,0,0,275,10,0,0,0,275,11,0,0;             101P     58
508,1,0,275,58,0,0;                                                  103P     59
508,1,0,275,56,0,0;                                                  105P     60
508,4,0,275,18,1,0,0,275,60,1,0,0,275,46,0,0,0,275,28,0,0;           107P     61
126,1,1,0,0,1,0,-1.19181034482759,-1.19181034482759,                 109P     62
2.80818965517241,2.80818965517241,1.,1.,201.336206896552,0.,42.,     109P     63
161.336206896552,0.,42.,-1.19181034482759,2.80818965517241,0.,       109P     64
0.,0.;                                                               109P     65
126,1,1,0,0,1,0,0.,0.,0.5,0.5,1.,1.,161.336206896552,5.,42.,         111P     66
161.336206896552,0.,42.,0.,0.5,0.,0.,0.;                             111P     67
126,1,1,0,0,1,0,-2.80818965517241,-2.80818965517241,                 113P     68
1.19181034482759,1.19181034482759,1.,1.,161.336206896552,5.,42.,     113P     69
201.336206896552,5.,42.,-2.80818965517241,1.19181034482759,0.,       113P     70
0.,0.;                                                               113P     71
126,1,1,0,0,1,0,-0.5,-0.5,0.,0.,1.,1.,201.336206896552,0.,42.,       115P     72
201.336206896552,5.,42.,-0.5,0.,0.,0.,0.;                            115P     73
126,1,1,0,0,1,0,0.45,0.45,1.85,1.85,1.,1.,161.336206896552,0.,       117P     74
42.,161.336206896552,0.,28.,0.45,1.85,0.,0.,0.;                      117P     75
126,1,1,0,0,1,0,-0.5,-0.5,0.,0.,1.,1.,161.336206896552,0.,28.,       119P     76
161.336206896552,5.,28.,-0.5,0.,0.,0.,0.;                            119P     77
126,1,1,0,0,1,0,1.65,1.65,3.05,3.05,1.,1.,161.336206896552,5.,       121P     78
28.,161.336206896552,5.,42.,1.65,3.05,0.,0.,0.;                      121P     79
126,1,1,0,0,1,0,-4.80818965517241,-4.80818965517241,                 123P     80
-0.808189655172415,-0.808189655172415,1.,1.,161.336206896552,0.,     123P     81
28.,201.336206896552,0.,28.,-4.80818965517241,                       123P     82
-0.808189655172415,0.,0.,0.;                                         123P     83
126,1,1,0,0,1,0,0.,0.,0.5,0.5,1.,1.,201.336206896552,5.,28.,         125P     84
201.336206896552,0.,28.,0.,0.5,0.,0.,0.;                             125P     85
126,1,1,0,0,1,0,0.808189655172415,0.808189655172415,                 127P     86
4.80818965517241,4.80818965517241,1.,1.,201.336206896552,5.,28.,     127P     87
161.336206896552,5.,28.,0.808189655172415,4.80818965517241,0.,       127P     88
0.,0.;                                                               127P     89
126,1,1,0,0,1,0,-1.85,-1.85,-0.449999999999999,                      129P     90
-0.449999999999999,1.,1.,201.336206896552,5.,42.,                    129P     91
201.336206896552,5.,28.,-1.85,-0.449999999999999,0.,0.,0.;           129P     92
126,1,1,0,0,1,0,-3.05,-3.05,-1.65,-1.65,1.,1.,201.336206896552,      131P     93
0.,28.,201.336206896552,0.,42.,-3.05,-1.65,0.,0.,0.;                 131P     94
126,1,1,0,0,1,0,-0.25,-0.25,6.75,6.75,1.,1.,145.,0.,70.,145.,0.,     133P     95
0.,-0.25,6.75,0.,0.,0.;                                              133P     96
126,1,1,0,0,1,0,0.,0.,0.5,0.5,1.,1.,145.,5.,70.,145.,0.,70.,0.,      135P     97
0.5,0.,0.,0.;                                                        135P     98
126,1,1,0,0,1,0,3.25,3.25,3.75,3.75,1.,1.,145.,5.,65.,145.,5.,       137P     99
70.,3.25,3.75,0.,0.,0.;                                              137P    100
126,1,1,0,0,1,0,0.25000000372529,0.25000000372529,                   139P    101
6.24999999627471,6.24999999627471,1.,1.,145.,5.,                     139P    102
5.00000007450581,145.,5.,65.,0.25000000372529,6.24999999627471,      139P    103
0.,0.,0.;                                                            139P    104
126,1,1,0,0,1,0,0.,0.,0.500000007450581,0.500000007450581,1.,1.,     141P    105
145.,5.,0.,145.,5.,5.00000007450581,0.,0.500000007450581,0.,0.,      141P    106
0.;                                                                  141P    107
126,1,1,0,0,1,0,-0.25,-0.25,0.25,0.25,1.,1.,145.,0.,0.,145.,5.,      143P    108
0.,-0.25,0.25,0.,0.,0.;                                              143P    109
126,1,1,0,0,1,0,7.25,7.25,14.4,14.4,1.,1.,145.,0.,70.,216.5,0.,      145P    110
70.,7.25,14.4,0.,0.,0.;                                              145P    111
126,1,1,0,0,1,0,-0.125,-0.125,0.375,0.375,1.,1.,216.5,5.,70.,        147P    112
216.5,0.,70.,-0.125,0.375,0.,0.,0.;                                  147P    113
126,1,1,0,0,1,0,0.0999999999999996,0.0999999999999996,3.15,3.15,     149P    114
1.,1.,216.5,5.,70.,186.,5.,70.,0.0999999999999996,3.15,0.,0.,0.;     149P    115
126,1,1,0,0,1,0,0.,0.,0.75,0.75,1.,1.,186.,5.,70.,186.,12.5,70.,     151P    116
0.,0.75,0.,0.,0.;                                                    151P    117
126,1,1,0,0,1,0,-2.475,-2.475,-0.774999999999999,                    153P    118
-0.774999999999999,1.,1.,169.,12.5,70.,186.,12.5,70.,-2.475,         153P    119
-0.774999999999999,0.,0.,0.;                                         153P    120
126,4,2,0,0,0,0,-3.14159265358979,-3.14159265358979,                 155P    121
-3.14159265358979,-1.5707963267949,-1.5707963267949,0.,0.,0.,1.,     155P    122
0.707106781186551,1.,0.70710678118655,1.,161.,12.5,70.,161.,8.5,     155P    123
70.,165.,8.5,70.,169.,8.5,70.,169.,12.5,70.,-3.14159265358979,       155P    124
0.,0.,0.,0.;                                                         155P    125
126,1,1,0,0,1,0,-3.975,-3.975,-3.275,-3.275,1.,1.,154.,12.5,70.,     157P    126
161.,12.5,70.,-3.975,-3.275,0.,0.,0.;                                157P    127
126,1,1,0,0,1,0,0.,0.,0.75,0.75,1.,1.,154.,5.,70.,154.,12.5,70.,     159P    128
0.,0.75,0.,0.,0.;                                                    159P    129
126,1,1,0,0,1,0,7.25,7.25,8.15,8.15,1.,1.,145.,5.,70.,154.,5.,       161P    130
70.,7.25,8.15,0.,0.,0.;                                              161P    131
126,1,1,0,0,1,0,7.25,7.25,14.4,14.4,1.,1.,145.,0.,0.,216.5,0.,       163P    132
0.,7.25,14.4,0.,0.,0.;                                               163P    133
126,1,1,0,0,1,0,-1.75,-1.75,5.25,5.25,1.,1.,216.5,0.,70.,216.5,      165P    134
0.,0.,-1.75,5.25,0.,0.,0.;                                           165P    135
126,8,2,0,1,0,0,-3.14159265358979,-3.14159265358979,                 167P    136
-3.14159265358979,-1.5707963267949,-1.5707963267949,0.,0.,           167P    137
1.5707963267949,1.5707963267949,3.14159265358979,                    167P    138
3.14159265358979,3.14159265358979,1.,0.707106781186551,1.,           167P    139
0.707106781186551,1.,0.707106781186551,1.,0.707106781186551,1.,      167P    140
147.,0.,5.00000007450581,147.,0.,3.00000007450581,149.,0.,           167P    141
3.00000007450581,151.,0.,3.00000007450581,151.,0.,                   167P    142
5.00000007450581,151.,0.,7.0000000745058,149.,0.,                    167P    143
7.0000000745058,147.,0.,7.0000000745058,147.,0.,                     167P    144
5.00000007450581,-3.14159265358979,3.14159265358979,0.,0.,0.;        167P    145
126,8,2,0,1,0,0,-3.14159265358979,-3.14159265358979,                 169P    146
-3.14159265358979,-1.5707963267949,-1.5707963267949,0.,0.,           169P    147
1.5707963267949,1.5707963267949,3.14159265358979,                    169P    148
3.14159265358979,3.14159265358979,1.,0.707106781186556,1.,           169P    149
0.707106781186556,1.,0.707106781186556,1.,0.707106781186556,1.,      169P    150
147.,0.,65.,147.,0.,63.,149.,0.,63.,151.,0.,63.,151.,0.,65.,         169P    151
151.,0.,67.,149.,0.,67.,147.,0.,67.,147.,0.,65.,                     169P    152
-3.14159265358979,3.14159265358979,0.,0.,0.;                         169P    153
126,8,2,0,1,0,0,-3.14159265358979,-3.14159265358979,                 171P    154
-3.14159265358979,-1.5707963267949,-1.5707963267949,0.,0.,           171P    155
1.5707963267949,1.5707963267949,3.14159265358979,                    171P    156
3.14159265358979,3.14159265358979,1.,0.707106781186557,1.,           171P    157
0.707106781186557,1.,0.707106781186557,1.,0.707106781186557,1.,      171P    158
208.,0.,62.,208.,0.,60.5,209.5,0.,60.5,211.,0.,60.5,211.,0.,62.,     171P    159
211.,0.,63.5,209.5,0.,63.5,208.,0.,63.5,208.,0.,62.,                 171P    160
-3.14159265358979,3.14159265358979,0.,0.,0.;                         171P    161
126,8,2,0,1,0,0,-3.14159265358979,-3.14159265358979,                 173P    162
-3.14159265358979,-1.5707963267949,-1.5707963267949,0.,0.,           173P    163
1.5707963267949,1.5707963267949,3.14159265358979,                    173P    164
3.14159265358979,3.14159265358979,1.,0.707106781186548,1.,           173P    165
0.707106781186548,1.,0.707106781186548,1.,0.707106781186548,1.,      173P    166
208.,0.,8.,208.,0.,6.5,209.5,0.,6.5,211.,0.,6.5,211.,0.,8.,211.,     173P    167
0.,9.5,209.5,0.,9.5,208.,0.,9.5,208.,0.,8.,-3.14159265358979,        173P    168
3.14159265358979,0.,0.,0.;                                           173P    169
126,1,1,0,0,1,0,0.,0.,0.6,0.6,1.,1.,169.,12.5,64.,169.,12.5,70.,     175P    170
0.,0.6,0.,0.,0.;                                                     175P    171
126,1,1,0,0,1,0,-0.0749999999999993,-0.0749999999999993,0.525,       177P    172
0.525,1.,1.,186.,12.5,70.,186.,12.5,64.,-0.0749999999999993,         177P    173
0.525,0.,0.,0.;                                                      177P    174
126,1,1,0,0,1,0,-2.4,-2.4,-0.700000000000003,-0.700000000000003,     179P    175
1.,1.,186.,12.5,64.,169.,12.5,64.,-2.4,-0.700000000000003,0.,0.,     179P    176
0.;                                                                  179P    177
126,1,1,0,0,1,0,-0.6,-0.6,0.,0.,1.,1.,161.,12.5,70.,161.,12.5,       181P    178
64.,-0.6,0.,0.,0.,0.;                                                181P    179
126,1,1,0,0,1,0,0.0999999999999979,0.0999999999999979,               183P    180
0.799999999999999,0.799999999999999,1.,1.,161.,12.5,64.,154.,        183P    181
12.5,64.,0.0999999999999979,0.799999999999999,0.,0.,0.;              183P    182
126,1,1,0,0,1,0,-0.574999999999999,-0.574999999999999,               185P    183
0.0250000000000004,0.0250000000000004,1.,1.,154.,12.5,64.,154.,      185P    184
12.5,70.,-0.574999999999999,0.0250000000000004,0.,0.,0.;             185P    185
126,1,1,0,0,1,0,-0.9,-0.9,-0.15,-0.15,1.,1.,154.,5.,64.,154.,        187P    186
12.5,64.,-0.9,-0.15,0.,0.,0.;                                        187P    187
126,1,1,0,0,1,0,2.95,2.95,3.55,3.55,1.,1.,154.,5.,64.,154.,5.,       189P    188
70.,2.95,3.55,0.,0.,0.;                                              189P    189
126,4,2,0,0,0,0,0.,0.,0.,1.5707963267949,1.5707963267949,            191P    190
3.14159265358979,3.14159265358979,3.14159265358979,1.,               191P    191
0.70710678118655,1.,0.707106781186551,1.,169.,12.5,64.,169.,8.5,     191P    192
64.,165.,8.5,64.,161.,8.5,64.,161.,12.5,64.,0.,3.14159265358979,     191P    193
0.,0.,0.;                                                            191P    194
126,1,1,0,0,1,0,0.,0.,0.75,0.75,1.,1.,186.,5.,64.,186.,12.5,64.,     193P    195
0.,0.75,0.,0.,0.;                                                    193P    196
126,1,1,0,0,1,0,-0.0250000000000021,-0.0250000000000021,3.175,       195P    197
3.175,1.,1.,186.,5.,64.,154.,5.,64.,-0.0250000000000021,3.175,       195P    198
0.,0.,0.;                                                            195P    199
126,1,1,0,0,1,0,-3.55,-3.55,-2.95,-2.95,1.,1.,186.,5.,70.,186.,      197P    200
5.,64.,-3.55,-2.95,0.,0.,0.;                                         197P    201
126,1,1,0,0,1,0,-0.125,-0.125,0.375,0.375,1.,1.,216.5,0.,0.,         199P    202
216.5,5.,0.,-0.125,0.375,0.,0.,0.;                                   199P    203
126,1,1,0,0,1,0,-1.75,-1.75,5.25,5.25,1.,1.,216.5,5.,0.,216.5,       201P    204
5.,70.,-1.75,5.25,0.,0.,0.;                                          201P    205
126,8,2,0,1,0,0,-3.14159265358979,-3.14159265358979,                 203P    206
-3.14159265358979,-1.5707963267949,-1.5707963267949,0.,0.,           203P    207
1.5707963267949,1.5707963267949,3.14159265358979,                    203P    208
3.14159265358979,3.14159265358979,1.,0.707106781186542,1.,           203P    209
0.707106781186542,1.,0.707106781186542,1.,0.707106781186542,1.,      203P    210
145.,5.,65.,145.,5.,61.,149.,5.,61.,153.,5.,61.,153.,5.,65.,         203P    211
153.,5.,69.,149.,5.,69.,145.,5.,69.,145.,5.,65.,                     203P    212
-3.14159265358979,3.14159265358979,0.,0.,0.;                         203P    213
126,1,1,0,0,1,0,-0.47140452079103,-0.47140452079103,                 205P    214
0.47140452079103,0.47140452079103,1.,1.,145.,5.,65.,147.,3.,65.,     205P    215
-0.47140452079103,0.47140452079103,0.,0.,0.;                         205P    216
126,8,2,0,1,0,0,-3.14159265358979,-3.14159265358979,                 207P    217
-3.14159265358979,-1.5707963267949,-1.5707963267949,0.,0.,           207P    218
1.5707963267949,1.5707963267949,3.14159265358979,                    207P    219
3.14159265358979,3.14159265358979,1.,0.707106781186556,1.,           207P    220
0.707106781186556,1.,0.707106781186556,1.,0.707106781186556,1.,      207P    221
147.,3.,65.,147.,3.,67.,149.,3.,67.,151.,3.,67.,151.,3.,65.,         207P    222
151.,3.,63.,149.,3.,63.,147.,3.,63.,147.,3.,65.,                     207P    223
-3.14159265358979,3.14159265358979,0.,0.,0.;                         207P    224
126,1,1,0,0,1,0,0.999999999999995,0.999999999999995,                 209P    225
2.49999999999999,2.49999999999999,1.,1.,147.,3.,65.,147.,0.,65.,     209P    226
0.999999999999995,2.49999999999999,0.,0.,0.;                         209P    227
126,8,2,0,1,0,0,-3.14159265358979,-3.14159265358979,                 211P    228
-3.14159265358979,-1.5707963267949,-1.5707963267949,0.,0.,           211P    229
1.5707963267949,1.5707963267949,3.14159265358979,                    211P    230
3.14159265358979,3.14159265358979,1.,0.707106781186551,1.,           211P    231
0.707106781186551,1.,0.707106781186551,1.,0.707106781186551,1.,      211P    232
145.,5.,5.00000007450581,145.,5.,1.00000007450582,149.,5.,           211P    233
1.00000007450582,153.,5.,1.00000007450582,153.,5.,                   211P    234
5.00000007450581,153.,5.,9.00000007450579,149.,5.,                   211P    235
9.00000007450579,145.,5.,9.00000007450579,145.,5.,                   211P    236
5.00000007450581,-3.14159265358979,3.14159265358979,0.,0.,0.;        211P    237
126,1,1,0,0,1,0,-0.471404520791033,-0.471404520791033,               213P    238
0.471404520791033,0.471404520791033,1.,1.,145.,5.,                   213P    239
5.00000007450581,147.,3.,5.00000007450581,-0.471404520791033,        213P    240
0.471404520791033,0.,0.,0.;                                          213P    241
126,8,2,0,1,0,0,-3.14159265358979,-3.14159265358979,                 215P    242
-3.14159265358979,-1.5707963267949,-1.5707963267949,0.,0.,           215P    243
1.5707963267949,1.5707963267949,3.14159265358979,                    215P    244
3.14159265358979,3.14159265358979,1.,0.707106781186551,1.,           215P    245
0.707106781186551,1.,0.707106781186551,1.,0.707106781186551,1.,      215P    246
147.,3.,5.00000007450581,147.,3.,7.0000000745058,149.,3.,            215P    247
7.0000000745058,151.,3.,7.0000000745058,151.,3.,                     215P    248
5.00000007450581,151.,3.,3.00000007450581,149.,3.,                   215P    249
3.00000007450581,147.,3.,3.00000007450581,147.,3.,                   215P    250
5.00000007450581,-3.14159265358979,3.14159265358979,0.,0.,0.;        215P    251
126,1,1,0,0,1,0,1.,1.,2.50000000000001,2.50000000000001,1.,1.,       217P    252
147.,3.,5.00000007450581,147.,0.,5.00000007450581,1.,                217P    253
2.50000000000001,0.,0.,0.;                                           217P    254
126,8,2,0,1,0,0,-3.14159265358979,-3.14159265358979,                 219P    255
-3.14159265358979,-1.5707963267949,-1.5707963267949,0.,0.,           219P    256
1.5707963267949,1.5707963267949,3.14159265358979,                    219P    257
3.14159265358979,3.14159265358979,1.,0.707106781186557,1.,           219P    258
0.707106781186557,1.,0.707106781186557,1.,0.707106781186557,1.,      219P    259
208.,5.,62.,208.,5.,63.5,209.5,5.,63.5,211.,5.,63.5,211.,5.,62.,     219P    260
211.,5.,60.5,209.5,5.,60.5,208.,5.,60.5,208.,5.,62.,                 219P    261
-3.14159265358979,3.14159265358979,0.,0.,0.;                         219P    262
126,1,1,0,0,1,0,0.,0.,3.33333333333333,3.33333333333333,1.,1.,       221P    263
208.,5.,62.,208.,0.,62.,0.,3.33333333333333,0.,0.,0.;                221P    264
126,8,2,0,1,0,0,-3.14159265358979,-3.14159265358979,                 223P    265
-3.14159265358979,-1.5707963267949,-1.5707963267949,0.,0.,           223P    266
1.5707963267949,1.5707963267949,3.14159265358979,                    223P    267
3.14159265358979,3.14159265358979,1.,0.707106781186548,1.,           223P    268
0.707106781186548,1.,0.707106781186548,1.,0.707106781186548,1.,      223P    269
208.,5.,8.,208.,5.,9.5,209.5,5.,9.5,211.,5.,9.5,211.,5.,8.,211.,     223P    270
5.,6.5,209.5,5.,6.5,208.,5.,6.5,208.,5.,8.,-3.14159265358979,        223P    271
3.14159265358979,0.,0.,0.;                                           223P    272
126,1,1,0,0,1,0,0.,0.,3.33333333333333,3.33333333333333,1.,1.,       225P    273
208.,5.,8.,208.,0.,8.,0.,3.33333333333333,0.,0.,0.;                  225P    274
126,1,1,0,0,1,0,7.25,7.25,14.4,14.4,1.,1.,145.,5.,0.,216.5,5.,       227P    275
0.,7.25,14.4,0.,0.,0.;                                               227P    276
128,1,1,1,1,0,0,1,0,0,-4.,-4.,0.,0.,-0.5,-0.5,0.,0.,1.,1.,1.,1.,     229P    277
201.336206896552,0.,42.,161.336206896552,0.,42.,                     229P    278
201.336206896552,5.,42.,161.336206896552,5.,42.,-4.,0.,-0.5,0.;      229P    279
128,1,1,1,1,0,0,1,0,0,0.5,0.5,1.9,1.9,0.,0.,0.5,0.5,1.,1.,1.,1.,     231P    280
161.336206896552,5.,28.,161.336206896552,5.,42.,                     231P    281
161.336206896552,0.,28.,161.336206896552,0.,42.,0.5,1.9,0.,0.5;      231P    282
128,1,1,1,1,0,0,1,0,0,-4.,-4.,0.,0.,-0.5,-0.5,0.,0.,1.,1.,1.,1.,     233P    283
161.336206896552,0.,28.,201.336206896552,0.,28.,                     233P    284
161.336206896552,5.,28.,201.336206896552,5.,28.,-4.,0.,-0.5,0.;      233P    285
128,1,1,1,1,0,0,1,0,0,0.5,0.5,1.9,1.9,0.,0.,0.5,0.5,1.,1.,1.,1.,     235P    286
201.336206896552,5.,42.,201.336206896552,5.,28.,                     235P    287
201.336206896552,0.,42.,201.336206896552,0.,28.,0.5,1.9,0.,0.5;      235P    288
128,1,1,1,1,0,0,1,0,0,0.,0.,7.,7.,0.,0.,0.5,0.5,1.,1.,1.,1.,         237P    289
145.,5.,70.,145.,5.,0.,145.,0.,70.,145.,0.,0.,0.,7.,0.,0.5;          237P    290
128,1,1,1,1,0,0,1,0,0,-0.75,-0.75,0.5,0.5,7.25,7.25,14.4,14.4,       239P    291
1.,1.,1.,1.,145.,12.5,70.,145.,0.,70.,216.5,12.5,70.,216.5,0.,       239P    292
70.,-0.75,0.5,7.25,14.4;                                             239P    293
128,1,1,1,1,0,0,1,0,0,0.,0.,7.,7.,7.25,7.25,14.4,14.4,1.,1.,1.,      241P    294
1.,145.,0.,70.,145.,0.,0.,216.5,0.,70.,216.5,0.,0.,0.,7.,7.25,       241P    295
14.4;                                                                241P    296
128,1,1,1,1,0,0,1,0,0,-0.0499999999999998,-0.0499999999999998,       243P    297
0.55,0.55,-1.6,-1.6,0.0999999999999979,0.0999999999999979,1.,1.,     243P    298
1.,1.,186.,12.5,70.,186.,12.5,64.,169.,12.5,70.,169.,12.5,64.,       243P    299
-0.0499999999999998,0.55,-1.6,0.0999999999999979;                    243P    300
128,1,1,1,1,0,0,1,0,0,-0.0499999999999998,-0.0499999999999998,       245P    301
0.55,0.55,0.899999999999999,0.899999999999999,1.6,1.6,1.,1.,1.,      245P    302
1.,161.,12.5,70.,161.,12.5,64.,154.,12.5,70.,154.,12.5,64.,          245P    303
-0.0499999999999998,0.55,0.899999999999999,1.6;                      245P    304
128,1,1,1,1,0,0,1,0,0,0.,0.,0.6,0.6,0.,0.,0.75,0.75,1.,1.,1.,1.,     247P    305
154.,5.,64.,154.,5.,70.,154.,12.5,64.,154.,12.5,70.,0.,0.6,0.,       247P    306
0.75;                                                                247P    307
128,1,4,1,2,0,0,0,0,0,0.,0.,1.5,1.5,0.,0.,0.,1.5707963267949,        249P    308
1.5707963267949,3.14159265358979,3.14159265358979,                   249P    309
3.14159265358979,1.,1.,0.707106781186548,0.707106781186548,1.,       249P    310
1.,0.707106781186548,0.707106781186548,1.,1.,169.,12.5,70.,169.,     249P    311
12.5,64.,169.,8.50000000000002,70.,169.,8.50000000000002,64.,        249P    312
165.,8.50000000000001,70.,165.,8.50000000000001,64.,161.,            249P    313
8.50000000000002,70.,161.,8.50000000000002,64.,161.,12.5,70.,        249P    314
161.,12.5,64.,0.,1.5,0.,3.14159265358979;                            249P    315
128,1,1,1,1,0,0,1,0,0,0.,0.,3.2,3.2,0.,0.,0.75,0.75,1.,1.,1.,1.,     251P    316
186.,5.,64.,154.,5.,64.,186.,12.5,64.,154.,12.5,64.,0.,3.2,0.,       251P    317
0.75;                                                                251P    318
128,1,1,1,1,0,0,1,0,0,-0.5,-0.5,0.0999999999999996,                  253P    319
0.0999999999999996,0.,0.,0.75,0.75,1.,1.,1.,1.,186.,5.,70.,186.,     253P    320
5.,64.,186.,12.5,70.,186.,12.5,64.,-0.5,0.0999999999999996,0.,       253P    321
0.75;                                                                253P    322
128,1,1,1,1,0,0,1,0,0,-3.5,-3.5,3.5,3.5,-0.25,-0.25,0.25,0.25,       255P    323
1.,1.,1.,1.,216.5,0.,70.,216.5,0.,0.,216.5,5.,70.,216.5,5.,0.,       255P    324
-3.5,3.5,-0.25,0.25;                                                 255P    325
128,1,8,1,2,0,1,0,0,1,-0.47140452079103,-0.47140452079103,           257P    326
0.47140452079103,0.47140452079103,-3.14159265358979,                 257P    327
-3.14159265358979,-3.14159265358979,-1.5707963267949,                257P    328
-1.5707963267949,0.,0.,1.5707963267949,1.5707963267949,              257P    329
3.14159265358979,3.14159265358979,3.14159265358979,1.,1.,            257P    330
0.707106781186548,0.707106781186548,1.,1.,0.707106781186548,         257P    331
0.707106781186548,1.,1.,0.707106781186548,0.707106781186548,1.,      257P    332
1.,0.707106781186548,0.707106781186548,1.,1.,145.,5.,65.,147.,       257P    333
3.,65.,145.,5.,61.,147.,3.,63.,149.,5.,61.,149.,3.,63.,153.,5.,      257P    334
61.,151.,3.,63.,153.,5.,65.,151.,3.,65.,153.,5.,69.,151.,3.,67.,     257P    335
149.,5.,69.,149.,3.,67.,145.,5.,69.,147.,3.,67.,145.,5.,65.,         257P    336
147.,3.,65.,-0.47140452079103,0.47140452079103,                      257P    337
-3.14159265358979,3.14159265358979;                                  257P    338
128,1,8,1,2,0,1,0,0,1,0.999999999999995,0.999999999999995,           259P    339
2.49999999999999,2.49999999999999,-3.14159265358979,                 259P    340
-3.14159265358979,-3.14159265358979,-1.5707963267949,                259P    341
-1.5707963267949,0.,0.,1.5707963267949,1.5707963267949,              259P    342
3.14159265358979,3.14159265358979,3.14159265358979,1.,1.,            259P    343
0.707106781186548,0.707106781186548,1.,1.,0.707106781186548,         259P    344
0.707106781186548,1.,1.,0.707106781186548,0.707106781186548,1.,      259P    345
1.,0.707106781186548,0.707106781186548,1.,1.,147.,0.,65.,147.,       259P    346
3.,65.,147.,0.,67.,147.,3.,67.,149.,0.,67.,149.,3.,67.,151.,0.,      259P    347
67.,151.,3.,67.,151.,0.,65.,151.,3.,65.,151.,0.,63.,151.,3.,63.,     259P    348
149.,0.,63.,149.,3.,63.,147.,0.,63.,147.,3.,63.,147.,0.,65.,         259P    349
147.,3.,65.,0.999999999999995,2.49999999999999,                      259P    350
-3.14159265358979,3.14159265358979;                                  259P    351
128,1,8,1,2,0,1,0,0,1,-0.471404520791033,-0.471404520791033,         261P    352
0.471404520791033,0.471404520791033,-3.14159265358979,               261P    353
-3.14159265358979,-3.14159265358979,-1.5707963267949,                261P    354
-1.5707963267949,0.,0.,1.5707963267949,1.5707963267949,              261P    355
3.14159265358979,3.14159265358979,3.14159265358979,1.,1.,            261P    356
0.707106781186548,0.707106781186548,1.,1.,0.707106781186548,         261P    357
0.707106781186548,1.,1.,0.707106781186548,0.707106781186548,1.,      261P    358
1.,0.707106781186548,0.707106781186548,1.,1.,145.,5.,                261P    359
5.00000007450581,147.,3.,5.00000007450581,145.,5.,                   261P    360
1.00000007450582,147.,3.,3.00000007450581,149.,5.,                   261P    361
1.00000007450582,149.,3.,3.00000007450581,153.,5.,                   261P    362
1.00000007450582,151.,3.,3.00000007450581,153.,5.,                   261P    363
5.00000007450581,151.,3.,5.00000007450581,153.,5.,                   261P    364
9.00000007450579,151.,3.,7.0000000745058,149.,5.,                    261P    365
9.00000007450579,149.,3.,7.0000000745058,145.,5.,                    261P    366
9.00000007450579,147.,3.,7.0000000745058,145.,5.,                    261P    367
5.00000007450581,147.,3.,5.00000007450581,-0.471404520791033,        261P    368
0.471404520791033,-3.14159265358979,3.14159265358979;                261P    369
128,1,8,1,2,0,1,0,0,1,1.,1.,2.50000000000001,2.50000000000001,       263P    370
-3.14159265358979,-3.14159265358979,-3.14159265358979,               263P    371
-1.5707963267949,-1.5707963267949,0.,0.,1.5707963267949,             263P    372
1.5707963267949,3.14159265358979,3.14159265358979,                   263P    373
3.14159265358979,1.,1.,0.707106781186548,0.707106781186548,1.,       263P    374
1.,0.707106781186548,0.707106781186548,1.,1.,0.707106781186548,      263P    375
0.707106781186548,1.,1.,0.707106781186548,0.707106781186548,1.,      263P    376
1.,147.,0.,5.00000007450581,147.,3.,5.00000007450581,147.,0.,        263P    377
7.0000000745058,147.,3.,7.0000000745058,149.,0.,7.0000000745058,     263P    378
149.,3.,7.0000000745058,151.,0.,7.0000000745058,151.,3.,             263P    379
7.0000000745058,151.,0.,5.00000007450581,151.,3.,                    263P    380
5.00000007450581,151.,0.,3.00000007450581,151.,3.,                   263P    381
3.00000007450581,149.,0.,3.00000007450581,149.,3.,                   263P    382
3.00000007450581,147.,0.,3.00000007450581,147.,3.,                   263P    383
3.00000007450581,147.,0.,5.00000007450581,147.,3.,                   263P    384
5.00000007450581,1.,2.50000000000001,-3.14159265358979,              263P    385
3.14159265358979;                                                    263P    386
128,1,8,1,2,0,1,0,0,1,0.,0.,3.33333333333333,3.33333333333333,       265P    387
-3.14159265358979,-3.14159265358979,-3.14159265358979,               265P    388
-1.5707963267949,-1.5707963267949,0.,0.,1.5707963267949,             265P    389
1.5707963267949,3.14159265358979,3.14159265358979,                   265P    390
3.14159265358979,1.,1.,0.707106781186548,0.707106781186548,1.,       265P    391
1.,0.707106781186548,0.707106781186548,1.,1.,0.707106781186548,      265P    392
0.707106781186548,1.,1.,0.707106781186548,0.707106781186548,1.,      265P    393
1.,208.,0.,62.,208.,5.,62.,208.,0.,63.5,208.,5.,63.5,209.5,0.,       265P    394
63.5,209.5,5.,63.5,211.,0.,63.5,211.,5.,63.5,211.,0.,62.,211.,       265P    395
5.,62.,211.,0.,60.5,211.,5.,60.5,209.5,0.,60.5,209.5,5.,60.5,        265P    396
208.,0.,60.5,208.,5.,60.5,208.,0.,62.,208.,5.,62.,0.,                265P    397
3.33333333333333,-3.14159265358979,3.14159265358979;                 265P    398
128,1,8,1,2,0,1,0,0,1,0.,0.,3.33333333333333,3.33333333333333,       267P    399
-3.14159265358979,-3.14159265358979,-3.14159265358979,               267P    400
-1.5707963267949,-1.5707963267949,0.,0.,1.5707963267949,             267P    401
1.5707963267949,3.14159265358979,3.14159265358979,                   267P    402
3.14159265358979,1.,1.,0.707106781186548,0.707106781186548,1.,       267P    403
1.,0.707106781186548,0.707106781186548,1.,1.,0.707106781186548,      267P    404
0.707106781186548,1.,1.,0.707106781186548,0.707106781186548,1.,      267P    405
1.,208.,0.,8.,208.,5.,8.,208.,0.,9.50000000000002,208.,5.,           267P    406
9.50000000000002,209.5,0.,9.50000000000002,209.5,5.,                 267P    407
9.50000000000002,211.,0.,9.50000000000002,211.,5.,                   267P    408
9.50000000000002,211.,0.,8.,211.,5.,8.,211.,0.,6.49999999999998,     267P    409
211.,5.,6.49999999999998,209.5,0.,6.49999999999998,209.5,5.,         267P    410
6.49999999999998,208.,0.,6.49999999999998,208.,5.,                   267P    411
6.49999999999998,208.,0.,8.,208.,5.,8.,0.,3.33333333333333,          267P    412
-3.14159265358979,3.14159265358979;                                  267P    413
128,1,1,1,1,0,0,1,0,0,0.,0.,7.,7.,7.25,7.25,14.4,14.4,1.,1.,1.,      269P    414
1.,145.,5.,0.,145.,5.,70.,216.5,5.,0.,216.5,5.,70.,0.,7.,7.25,       269P    415
14.4;                                                                269P    416
128,1,1,1,1,0,0,1,0,0,0.,0.,0.5,0.5,7.25,7.25,14.4,14.4,1.,1.,       271P    417
1.,1.,145.,0.,0.,145.,5.,0.,216.5,0.,0.,216.5,5.,0.,0.,0.5,7.25,     271P    418
14.4;                                                                271P    419
502,38,201.336206896552,0.,42.,161.336206896552,0.,42.,              273P    420
161.336206896552,5.,42.,201.336206896552,5.,42.,                     273P    421
161.336206896552,0.,28.,161.336206896552,5.,28.,                     273P    422
201.336206896552,0.,28.,201.336206896552,5.,28.,145.,0.,70.,         273P    423
145.,0.,0.,145.,5.,70.,145.,5.,65.,145.,5.,5.00000007450581,         273P    424
145.,5.,0.,216.5,0.,70.,216.5,5.,70.,186.,5.,70.,186.,12.5,70.,      273P    425
169.,12.5,70.,161.,12.5,70.,154.,12.5,70.,154.,5.,70.,216.5,0.,      273P    426
0.,147.,0.,5.00000007450581,147.,0.,65.,208.,0.,62.,208.,0.,8.,      273P    427
169.,12.5,64.,186.,12.5,64.,161.,12.5,64.,154.,12.5,64.,154.,5.,     273P    428
64.,186.,5.,64.,216.5,5.,0.,147.,3.,65.,147.,3.,                     273P    429
5.00000007450581,208.,5.,62.,208.,5.,8.;                             273P    430
504,60,109,273,1,273,2,111,273,3,273,2,113,273,3,273,4,115,273,      275P    431
1,273,4,117,273,2,273,5,119,273,5,273,6,121,273,6,273,3,123,273,     275P    432
5,273,7,125,273,8,273,7,127,273,8,273,6,129,273,4,273,8,131,273,     275P    433
7,273,1,133,273,9,273,10,135,273,11,273,9,137,273,12,273,11,139,     275P    434
273,13,273,12,141,273,14,273,13,143,273,10,273,14,145,273,9,273,     275P    435
15,147,273,16,273,15,149,273,16,273,17,151,273,17,273,18,153,        275P    436
273,19,273,18,155,273,20,273,19,157,273,21,273,20,159,273,22,        275P    437
273,21,161,273,11,273,22,163,273,10,273,23,165,273,15,273,23,        275P    438
167,273,24,273,24,169,273,25,273,25,171,273,26,273,26,173,273,       275P    439
27,273,27,175,273,28,273,19,177,273,18,273,29,179,273,29,273,28,     275P    440
181,273,20,273,30,183,273,30,273,31,185,273,31,273,21,187,273,       275P    441
32,273,31,189,273,32,273,22,191,273,28,273,30,193,273,33,273,29,     275P    442
195,273,33,273,32,197,273,17,273,33,199,273,23,273,34,201,273,       275P    443
34,273,16,203,273,12,273,12,205,273,12,273,35,207,273,35,273,35,     275P    444
209,273,35,273,25,211,273,13,273,13,213,273,13,273,36,215,273,       275P    445
36,273,36,217,273,36,273,24,219,273,37,273,37,221,273,37,273,26,     275P    446
223,273,38,273,38,225,273,38,273,27,227,273,14,273,34;               275P    447
406,1,5HBody1;                                                       277P    448
314,62.7450980392157,62.7450980392157,62.7450980392157,13HSteel      279P    449
- Satin;                                                             279P    450
S      1G      2D    280P    450                                        T      1
