                                                                        S      1
,,10HBackPanel2,10HBackPanel2,7Hunknown,7Hunknown,32,38,7,99,15,,1.,2,2HG      1
MM,1,0.08,15H20150605.172511,0.01,10000.,7Hunknown,7Hunknown,11,0,;     G      2
     186       1                                                00000000D      1
     186            -215       1       0                               0D      2
     514       2                                                00010000D      3
     514                       2       1                               0D      4
     510       4                                                00010000D      5
     510            -215       1       1                               0D      6
     510       5                                                00010000D      7
     510            -215       1       1                               0D      8
     510       6                                                00010000D      9
     510            -215       1       1                               0D     10
     510       7                                                00010000D     11
     510            -215       1       1                               0D     12
     510       8                                                00010000D     13
     510            -215       1       1                               0D     14
     510       9                                                00010000D     15
     510            -215       1       1                               0D     16
     510      10                                                00010000D     17
     510            -215       1       1                               0D     18
     510      11                                                00010000D     19
     510            -215       1       1                               0D     20
     510      12                                                00010000D     21
     510            -215       1       1                               0D     22
     510      13                                                00010000D     23
     510            -215       1       1                               0D     24
     510      14                                                00010000D     25
     510            -215       1       1                               0D     26
     510      15                                                00010000D     27
     510            -215       1       1                               0D     28
     510      16                                                00010000D     29
     510            -215       1       1                               0D     30
     510      17                                                00010000D     31
     510            -215       1       1                               0D     32
     510      18                                                00010000D     33
     510            -215       1       1                               0D     34
     510      19                                                00010000D     35
     510            -215       1       1                               0D     36
     508      20                                                00010000D     37
     508                       1       1                               0D     38
     508      21                                                00010000D     39
     508                       2       1                               0D     40
     508      23                                                00010000D     41
     508                       1       1                               0D     42
     508      24                                                00010000D     43
     508                       1       1                               0D     44
     508      25                                                00010000D     45
     508                       1       1                               0D     46
     508      26                                                00010000D     47
     508                       1       1                               0D     48
     508      27                                                00010000D     49
     508                       1       1                               0D     50
     508      28                                                00010000D     51
     508                       1       1                               0D     52
     508      29                                                00010000D     53
     508                       1       1                               0D     54
     508      30                                                00010000D     55
     508                       1       1                               0D     56
     508      31                                                00010000D     57
     508                       2       1                               0D     58
     508      33                                                00010000D     59
     508                       1       1                               0D     60
     508      34                                                00010000D     61
     508                       1       1                               0D     62
     508      35                                                00010000D     63
     508                       1       1                               0D     64
     508      36                                                00010000D     65
     508                       1       1                               0D     66
     508      37                                                00010000D     67
     508                       1       1                               0D     68
     508      38                                                00010000D     69
     508                       1       1                               0D     70
     508      39                                                00010000D     71
     508                       1       1                               0D     72
     508      40                                                00010000D     73
     508                       1       1                               0D     74
     508      41                                                00010000D     75
     508                       1       1                               0D     76
     508      42                                                00010000D     77
     508                       1       1                               0D     78
     508      43                                                00010000D     79
     508                       1       1                               0D     80
     508      44                                                00010000D     81
     508                       1       1                               0D     82
     508      45                                                00010000D     83
     508                       1       1                               0D     84
     508      46                                                00010000D     85
     508                       1       1                               0D     86
     508      47                                                00010000D     87
     508                       1       1                               0D     88
     508      48                                                00010000D     89
     508                       1       1                               0D     90
     508      49                                                00010000D     91
     508                       1       1                               0D     92
     126      50                                                00010000D     93
     126       0               5       0                               0D     94
     126      55                                                00010000D     95
     126       0               3       0                               0D     96
     126      58                                                00010000D     97
     126       0               5       0                               0D     98
     126      63                                                00010000D     99
     126       0               2       0                               0D    100
     126      65                                                00010000D    101
     126       0               4       0                               0D    102
     126      69                                                00010000D    103
     126       0               5       0                               0D    104
     126      74                                                00010000D    105
     126       0               3       0                               0D    106
     126      77                                                00010000D    107
     126       0               2       0                               0D    108
     126      79                                                00010000D    109
     126       0               2       0                               0D    110
     126      81                                                00010000D    111
     126       0               2       0                               0D    112
     126      83                                                00010000D    113
     126       0               3       0                               0D    114
     126      86                                                00010000D    115
     126       0               8       0                               0D    116
     126      94                                                00010000D    117
     126       0               8       0                               0D    118
     126     102                                                00010000D    119
     126       0               8       0                               0D    120
     126     110                                                00010000D    121
     126       0              11       0                               0D    122
     126     121                                                00010000D    123
     126       0               8       0                               0D    124
     126     129                                                00010000D    125
     126       0               8       0                               0D    126
     126     137                                                00010000D    127
     126       0               4       0                               0D    128
     126     141                                                00010000D    129
     126       0               2       0                               0D    130
     126     143                                                00010000D    131
     126       0               5       0                               0D    132
     126     148                                                00010000D    133
     126       0               3       0                               0D    134
     126     151                                                00010000D    135
     126       0               3       0                               0D    136
     126     154                                                00010000D    137
     126       0               2       0                               0D    138
     126     156                                                00010000D    139
     126       0               2       0                               0D    140
     126     158                                                00010000D    141
     126       0               2       0                               0D    142
     126     160                                                00010000D    143
     126       0               3       0                               0D    144
     126     163                                                00010000D    145
     126       0               8       0                               0D    146
     126     171                                                00010000D    147
     126       0               8       0                               0D    148
     126     179                                                00010000D    149
     126       0               8       0                               0D    150
     126     187                                                00010000D    151
     126       0              11       0                               0D    152
     126     198                                                00010000D    153
     126       0               8       0                               0D    154
     126     206                                                00010000D    155
     126       0               8       0                               0D    156
     126     214                                                00010000D    157
     126       0               3       0                               0D    158
     126     217                                                00010000D    159
     126       0               3       0                               0D    160
     126     220                                                00010000D    161
     126       0               4       0                               0D    162
     126     224                                                00010000D    163
     126       0               3       0                               0D    164
     126     227                                                00010000D    165
     126       0               2       0                               0D    166
     126     229                                                00010000D    167
     126       0               2       0                               0D    168
     126     231                                                00010000D    169
     126       0               2       0                               0D    170
     126     233                                                00010000D    171
     126       0               2       0                               0D    172
     126     235                                                00010000D    173
     126       0               2       0                               0D    174
     126     237                                                00010000D    175
     126       0               2       0                               0D    176
     128     239                                                00010000D    177
     128       0    -215      10       0                               0D    178
     128     249                                                00010000D    179
     128       0    -215       3       0                               0D    180
     128     252                                                00010000D    181
     128       0    -215       7       0                               0D    182
     128     259                                                00010000D    183
     128       0    -215      10       0                               0D    184
     128     269                                                00010000D    185
     128       0    -215       3       0                               0D    186
     128     272                                                00010000D    187
     128       0    -215      13       0                               0D    188
     128     285                                                00010000D    189
     128       0    -215      13       0                               0D    190
     128     298                                                00010000D    191
     128       0    -215      19       0                               0D    192
     128     317                                                00010000D    193
     128       0    -215      13       0                               0D    194
     128     330                                                00010000D    195
     128       0    -215       5       0                               0D    196
     128     335                                                00010000D    197
     128       0    -215       6       0                               0D    198
     128     341                                                00010000D    199
     128       0    -215       3       0                               0D    200
     128     344                                                00010000D    201
     128       0    -215       3       0                               0D    202
     128     347                                                00010000D    203
     128       0    -215      12       0                               0D    204
     128     359                                                00010000D    205
     128       0    -215      12       0                               0D    206
     128     371                                                00010000D    207
     128       0    -215       2       0                               0D    208
     502     373                                                00010000D    209
     502                       9       1                               0D    210
     504     382                                                00010001D    211
     504                      12       1                               0D    212
     406     394                                                00000000D    213
     406                       1      15                               0D    214
     314     395                                                00000200D    215
     314                       2       0                               0D    216
186,3,1,0,0,1,213;                                                     1P      1
514,16,5,1,7,1,9,1,11,1,13,1,15,1,17,1,19,1,21,1,23,1,25,1,27,1,       3P      2
29,1,31,1,33,1,35,1;                                                   3P      3
510,177,1,1,37;                                                        5P      4
510,179,7,1,39,41,43,45,47,49,51;                                      7P      5
510,181,1,1,53;                                                        9P      6
510,183,1,1,55;                                                       11P      7
510,185,7,1,57,59,61,63,65,67,69;                                     13P      8
510,187,1,1,71;                                                       15P      9
510,189,1,1,73;                                                       17P     10
510,191,1,1,75;                                                       19P     11
510,193,1,1,77;                                                       21P     12
510,195,1,1,79;                                                       23P     13
510,197,1,1,81;                                                       25P     14
510,199,1,1,83;                                                       27P     15
510,201,1,1,85;                                                       29P     16
510,203,1,1,87;                                                       31P     17
510,205,1,1,89;                                                       33P     18
510,207,1,1,91;                                                       35P     19
508,4,0,211,1,0,0,0,211,2,0,0,0,211,3,0,0,0,211,4,0,0;                37P     20
508,8,0,211,3,1,0,0,211,5,0,0,0,211,6,1,0,0,211,7,0,0,0,211,8,1,      39P     21
0,0,211,9,1,0,0,211,10,1,0,0,211,11,0,0;                              39P     22
508,1,0,211,12,1,0;                                                   41P     23
508,1,0,211,13,1,0;                                                   43P     24
508,1,0,211,14,1,0;                                                   45P     25
508,1,0,211,15,1,0;                                                   47P     26
508,1,0,211,16,1,0;                                                   49P     27
508,1,0,211,17,1,0;                                                   51P     28
508,4,0,211,2,1,0,0,211,18,1,0,0,211,19,1,0,0,211,5,1,0;              53P     29
508,4,0,211,6,0,0,0,211,19,0,0,0,211,20,0,0,0,211,21,0,0;             55P     30
508,8,0,211,1,1,0,0,211,22,0,0,0,211,23,1,0,0,211,24,1,0,0,211,       57P     31
25,1,0,0,211,26,0,0,0,211,20,1,0,0,211,18,0,0;                        57P     32
508,1,0,211,27,0,0;                                                   59P     33
508,1,0,211,28,0,0;                                                   61P     34
508,1,0,211,29,1,0;                                                   63P     35
508,1,0,211,30,1,0;                                                   65P     36
508,1,0,211,31,1,0;                                                   67P     37
508,1,0,211,32,1,0;                                                   69P     38
508,4,0,211,32,0,0,0,211,33,1,0,0,211,17,0,0,0,211,33,0,0;            71P     39
508,4,0,211,31,0,0,0,211,34,1,0,0,211,16,0,0,0,211,34,0,0;            73P     40
508,4,0,211,30,0,0,0,211,35,1,0,0,211,15,0,0,0,211,35,0,0;            75P     41
508,4,0,211,29,0,0,0,211,36,1,0,0,211,14,0,0,0,211,36,0,0;            77P     42
508,4,0,211,4,1,0,0,211,11,1,0,0,211,37,1,0,0,211,22,1,0;             79P     43
508,4,0,211,21,1,0,0,211,26,1,0,0,211,38,1,0,0,211,7,1,0;             81P     44
508,4,0,211,23,0,0,0,211,37,0,0,0,211,10,0,0,0,211,39,0,0;            83P     45
508,4,0,211,25,0,0,0,211,40,0,0,0,211,8,0,0,0,211,38,0,0;             85P     46
508,4,0,211,13,0,0,0,211,41,1,0,0,211,28,1,0,0,211,41,0,0;            87P     47
508,4,0,211,12,0,0,0,211,42,1,0,0,211,27,1,0,0,211,42,0,0;            89P     48
508,4,0,211,39,1,0,0,211,9,0,0,0,211,40,1,0,0,211,24,0,0;             91P     49
126,2,2,0,0,0,0,2.3598365619417,2.3598365619417,2.3598365619417,      93P     50
3.92334874523789,3.92334874523789,3.92334874523789,1.,                93P     51
0.709677419354838,1.,60.5,0.,44.5399175830396,65.9204545454546,       93P     52
0.,50.,60.5,0.,55.4600824169604,2.3598365619417,                      93P     53
3.92334874523789,0.,0.,0.;                                            93P     54
126,1,1,0,0,1,0,-1.,-1.,-0.5,-0.5,1.,1.,60.5,-5.,                     95P     55
44.5399175830396,60.5,5.55111512312578D-16,44.5399175830396,-1.,      95P     56
-0.5,0.,0.,0.;                                                        95P     57
126,2,2,0,0,0,0,2.3598365619417,2.3598365619417,2.3598365619417,      97P     58
3.92334874523789,3.92334874523789,3.92334874523789,1.,                97P     59
0.709677419354838,1.,60.5,-5.,55.4600824169604,65.9204545454546,      97P     60
-5.,50.,60.5,-5.,44.5399175830396,2.3598365619417,                    97P     61
3.92334874523789,0.,0.,0.;                                            97P     62
126,1,1,0,0,1,0,0.5,0.5,1.,1.,1.,1.,60.5,5.55111512312578D-16,        99P     63
55.4600824169604,60.5,-5.,55.4600824169604,0.5,1.,0.,0.,0.;           99P     64
126,1,1,0,0,1,0,2.54600824169604,2.54600824169604,                   101P     65
4.45399175830396,4.45399175830396,1.,1.,60.5,-5.,                    101P     66
25.4600824169604,60.5,-5.,44.5399175830396,2.54600824169604,         101P     67
4.45399175830396,0.,0.,0.;                                           101P     68
126,2,2,0,0,0,0,2.3598365619417,2.3598365619417,2.3598365619417,     103P     69
3.92334874523789,3.92334874523789,3.92334874523789,1.,               103P     70
0.709677419354838,1.,60.5,-5.,25.4600824169604,65.9204545454546,     103P     71
-5.,20.,60.5,-5.,14.5399175830396,2.3598365619417,                   103P     72
3.92334874523789,0.,0.,0.;                                           103P     73
126,1,1,0,0,1,0,0.4,0.4,1.45399175830396,1.45399175830396,1.,1.,     105P     74
60.5,-5.,4.,60.5,-5.,14.5399175830396,0.4,1.45399175830396,0.,       105P     75
0.,0.;                                                               105P     76
126,1,1,0,0,1,0,-1.5,-1.5,0.899999999999999,0.899999999999999,       107P     77
1.,1.,60.5,-5.,4.,84.5,-5.,4.,-1.5,0.899999999999999,0.,0.,0.;       107P     78
126,1,1,0,0,1,0,-6.6,-6.6,-0.4,-0.4,1.,1.,84.5,-5.,4.,84.5,-5.,      109P     79
66.,-6.6,-0.4,0.,0.,0.;                                              109P     80
126,1,1,0,0,1,0,-0.300000000000001,-0.300000000000001,2.1,2.1,       111P     81
1.,1.,84.5,-5.,66.,60.5,-5.,66.,-0.300000000000001,2.1,0.,0.,0.;     111P     82
126,1,1,0,0,1,0,5.54600824169604,5.54600824169604,6.6,6.6,1.,1.,     113P     83
60.5,-5.,55.4600824169604,60.5,-5.,66.,5.54600824169604,6.6,0.,      113P     84
0.,0.;                                                               113P     85
126,8,2,0,1,0,0,-3.14159265358979,-3.14159265358979,                 115P     86
-3.14159265358979,-1.5707963267949,-1.5707963267949,0.,0.,           115P     87
1.5707963267949,1.5707963267949,3.14159265358979,                    115P     88
3.14159265358979,3.14159265358979,1.,0.707106781186555,1.,           115P     89
0.707106781186538,1.,0.707106781186538,1.,0.707106781186555,1.,      115P     90
79.,-5.,8.,79.,-5.,9.5,80.5,-5.,9.5,82.,-5.,9.5,82.,-5.,8.,82.,      115P     91
-5.,6.5,80.5,-5.,6.5,79.,-5.,6.5,79.,-5.,8.,-3.14159265358979,       115P     92
3.14159265358979,0.,0.,0.;                                           115P     93
126,8,2,0,1,0,0,-3.14159265358979,-3.14159265358979,                 117P     94
-3.14159265358979,-1.5707963267949,-1.5707963267949,0.,0.,           117P     95
1.5707963267949,1.5707963267949,3.14159265358979,                    117P     96
3.14159265358979,3.14159265358979,1.,0.707106781186564,1.,           117P     97
0.707106781186547,1.,0.707106781186547,1.,0.707106781186564,1.,      117P     98
79.,-5.,62.,79.,-5.,63.5,80.5,-5.,63.5,82.,-5.,63.5,82.,-5.,62.,     117P     99
82.,-5.,60.5,80.5,-5.,60.5,79.,-5.,60.5,79.,-5.,62.,                 117P    100
-3.14159265358979,3.14159265358979,0.,0.,0.;                         117P    101
126,8,2,0,1,0,0,-3.14159265358979,-3.14159265358979,                 119P    102
-3.14159265358979,-1.5707963267949,-1.5707963267949,0.,0.,           119P    103
1.5707963267949,1.5707963267949,3.14159265358979,                    119P    104
3.14159265358979,3.14159265358979,1.,0.707106781186555,1.,           119P    105
0.707106781186555,1.,0.707106781186555,1.,0.707106781186555,1.,      119P    106
66.,-5.,8.,66.,-5.,6.5,64.5,-5.,6.5,63.,-5.,6.5,63.,-5.,8.,63.,      119P    107
-5.,9.5,64.5,-5.,9.5,66.,-5.,9.5,66.,-5.,8.,-3.14159265358979,       119P    108
3.14159265358979,0.,0.,0.;                                           119P    109
126,8,2,0,1,0,0,-3.14159265358979,-3.14159265358979,                 121P    110
-3.14159265358979,-1.5707963267949,-1.5707963267949,0.,0.,           121P    111
1.5707963267949,1.5707963267949,3.14159265358979,                    121P    112
3.14159265358979,3.14159265358979,1.,0.707106781186539,1.,           121P    113
0.707106781186556,1.,0.707106781186556,1.,0.707106781186539,1.,      121P    114
67.5333282998853,-5.,20.,67.5333282998853,-5.,18.4666717001148,      121P    115
66.,-5.,18.4666717001148,64.4666717001148,-5.,18.4666717001148,      121P    116
64.4666717001148,-5.,20.,64.4666717001148,-5.,21.5333282998852,      121P    117
66.,-5.,21.5333282998852,67.5333282998853,-5.,21.5333282998852,      121P    118
67.5333282998853,-5.,20.,-3.14159265358979,3.14159265358979,0.,      121P    119
0.,0.;                                                               121P    120
126,8,2,0,1,0,0,-3.14159265358979,-3.14159265358979,                 123P    121
-3.14159265358979,-1.5707963267949,-1.5707963267949,0.,0.,           123P    122
1.5707963267949,1.5707963267949,3.14159265358979,                    123P    123
3.14159265358979,3.14159265358979,1.,0.707106781186564,1.,           123P    124
0.707106781186564,1.,0.707106781186564,1.,0.707106781186564,1.,      123P    125
67.5,-5.,50.,67.5,-5.,48.5,66.,-5.,48.5,64.5,-5.,48.5,64.5,-5.,      123P    126
50.,64.5,-5.,51.5,66.,-5.,51.5,67.5,-5.,51.5,67.5,-5.,50.,           123P    127
-3.14159265358979,3.14159265358979,0.,0.,0.;                         123P    128
126,8,2,0,1,0,0,-3.14159265358979,-3.14159265358979,                 125P    129
-3.14159265358979,-1.5707963267949,-1.5707963267949,0.,0.,           125P    130
1.5707963267949,1.5707963267949,3.14159265358979,                    125P    131
3.14159265358979,3.14159265358979,1.,0.707106781186564,1.,           125P    132
0.707106781186564,1.,0.707106781186564,1.,0.707106781186564,1.,      125P    133
66.,-5.,62.,66.,-5.,60.5,64.5,-5.,60.5,63.,-5.,60.5,63.,-5.,62.,     125P    134
63.,-5.,63.5,64.5,-5.,63.5,66.,-5.,63.5,66.,-5.,62.,                 125P    135
-3.14159265358979,3.14159265358979,0.,0.,0.;                         125P    136
126,1,1,0,0,1,0,-4.45399175830396,-4.45399175830396,                 127P    137
-2.54600824169604,-2.54600824169604,1.,1.,60.5,0.,                   127P    138
44.5399175830396,60.5,0.,25.4600824169604,-4.45399175830396,         127P    139
-2.54600824169604,0.,0.,0.;                                          127P    140
126,1,1,0,0,1,0,0.5,0.5,1.,1.,1.,1.,60.5,5.55111512312578D-16,       129P    141
25.4600824169604,60.5,-5.,25.4600824169604,0.5,1.,0.,0.,0.;          129P    142
126,2,2,0,0,0,0,2.3598365619417,2.3598365619417,2.3598365619417,     131P    143
3.92334874523789,3.92334874523789,3.92334874523789,1.,               131P    144
0.709677419354838,1.,60.5,0.,14.5399175830396,65.9204545454546,      131P    145
0.,20.,60.5,0.,25.4600824169604,2.3598365619417,                     131P    146
3.92334874523789,0.,0.,0.;                                           131P    147
126,1,1,0,0,1,0,-1.,-1.,-0.5,-0.5,1.,1.,60.5,-5.,                    133P    148
14.5399175830396,60.5,5.55111512312578D-16,14.5399175830396,-1.,     133P    149
-0.5,0.,0.,0.;                                                       133P    150
126,1,1,0,0,1,0,-6.6,-6.6,-5.54600824169604,-5.54600824169604,       135P    151
1.,1.,60.5,0.,66.,60.5,0.,55.4600824169604,-6.6,                     135P    152
-5.54600824169604,0.,0.,0.;                                          135P    153
126,1,1,0,0,1,0,-2.1,-2.1,0.300000000000001,0.300000000000001,       137P    154
1.,1.,60.5,0.,66.,84.5,0.,66.,-2.1,0.300000000000001,0.,0.,0.;       137P    155
126,1,1,0,0,1,0,0.4,0.4,6.6,6.6,1.,1.,84.5,0.,66.,84.5,0.,4.,        139P    156
0.4,6.6,0.,0.,0.;                                                    139P    157
126,1,1,0,0,1,0,-0.899999999999999,-0.899999999999999,1.5,1.5,       141P    158
1.,1.,84.5,0.,4.,60.5,0.,4.,-0.899999999999999,1.5,0.,0.,0.;         141P    159
126,1,1,0,0,1,0,-1.45399175830396,-1.45399175830396,-0.4,-0.4,       143P    160
1.,1.,60.5,0.,14.5399175830396,60.5,0.,4.,-1.45399175830396,         143P    161
-0.4,0.,0.,0.;                                                       143P    162
126,8,2,0,1,0,0,-3.14159265358979,-3.14159265358979,                 145P    163
-3.14159265358979,-1.5707963267949,-1.5707963267949,0.,0.,           145P    164
1.5707963267949,1.5707963267949,3.14159265358979,                    145P    165
3.14159265358979,3.14159265358979,1.,0.707106781186555,1.,           145P    166
0.707106781186538,1.,0.707106781186538,1.,0.707106781186555,1.,      145P    167
79.,0.,8.,79.,0.,9.5,80.5,0.,9.5,82.,0.,9.5,82.,0.,8.,82.,0.,        145P    168
6.5,80.5,0.,6.5,79.,0.,6.5,79.,0.,8.,-3.14159265358979,              145P    169
3.14159265358979,0.,0.,0.;                                           145P    170
126,8,2,0,1,0,0,-3.14159265358979,-3.14159265358979,                 147P    171
-3.14159265358979,-1.5707963267949,-1.5707963267949,0.,0.,           147P    172
1.5707963267949,1.5707963267949,3.14159265358979,                    147P    173
3.14159265358979,3.14159265358979,1.,0.707106781186564,1.,           147P    174
0.707106781186547,1.,0.707106781186547,1.,0.707106781186564,1.,      147P    175
79.,0.,62.,79.,0.,63.5,80.5,0.,63.5,82.,0.,63.5,82.,0.,62.,82.,      147P    176
0.,60.5,80.5,0.,60.5,79.,0.,60.5,79.,0.,62.,-3.14159265358979,       147P    177
3.14159265358979,0.,0.,0.;                                           147P    178
126,8,2,0,1,0,0,-3.14159265358979,-3.14159265358979,                 149P    179
-3.14159265358979,-1.5707963267949,-1.5707963267949,0.,0.,           149P    180
1.5707963267949,1.5707963267949,3.14159265358979,                    149P    181
3.14159265358979,3.14159265358979,1.,0.707106781186555,1.,           149P    182
0.707106781186555,1.,0.707106781186555,1.,0.707106781186555,1.,      149P    183
66.,0.,8.,66.,0.,9.5,64.5,0.,9.5,63.,0.,9.5,63.,0.,8.,63.,0.,        149P    184
6.5,64.5,0.,6.5,66.,0.,6.5,66.,0.,8.,-3.14159265358979,              149P    185
3.14159265358979,0.,0.,0.;                                           149P    186
126,8,2,0,1,0,0,-3.14159265358979,-3.14159265358979,                 151P    187
-3.14159265358979,-1.5707963267949,-1.5707963267949,0.,0.,           151P    188
1.5707963267949,1.5707963267949,3.14159265358979,                    151P    189
3.14159265358979,3.14159265358979,1.,0.707106781186539,1.,           151P    190
0.707106781186556,1.,0.707106781186556,1.,0.707106781186539,1.,      151P    191
67.5333282998853,0.,20.,67.5333282998853,0.,21.5333282998852,        151P    192
66.,0.,21.5333282998852,64.4666717001148,0.,21.5333282998852,        151P    193
64.4666717001148,0.,20.,64.4666717001148,0.,18.4666717001148,        151P    194
66.,0.,18.4666717001148,67.5333282998853,0.,18.4666717001148,        151P    195
67.5333282998853,0.,20.,-3.14159265358979,3.14159265358979,0.,       151P    196
0.,0.;                                                               151P    197
126,8,2,0,1,0,0,-3.14159265358979,-3.14159265358979,                 153P    198
-3.14159265358979,-1.5707963267949,-1.5707963267949,0.,0.,           153P    199
1.5707963267949,1.5707963267949,3.14159265358979,                    153P    200
3.14159265358979,3.14159265358979,1.,0.707106781186564,1.,           153P    201
0.707106781186564,1.,0.707106781186564,1.,0.707106781186564,1.,      153P    202
67.5,0.,50.,67.5,0.,51.5,66.,0.,51.5,64.5,0.,51.5,64.5,0.,50.,       153P    203
64.5,0.,48.5,66.,0.,48.5,67.5,0.,48.5,67.5,0.,50.,                   153P    204
-3.14159265358979,3.14159265358979,0.,0.,0.;                         153P    205
126,8,2,0,1,0,0,-3.14159265358979,-3.14159265358979,                 155P    206
-3.14159265358979,-1.5707963267949,-1.5707963267949,0.,0.,           155P    207
1.5707963267949,1.5707963267949,3.14159265358979,                    155P    208
3.14159265358979,3.14159265358979,1.,0.707106781186564,1.,           155P    209
0.707106781186564,1.,0.707106781186564,1.,0.707106781186564,1.,      155P    210
66.,0.,62.,66.,0.,63.5,64.5,0.,63.5,63.,0.,63.5,63.,0.,62.,63.,      155P    211
0.,60.5,64.5,0.,60.5,66.,0.,60.5,66.,0.,62.,-3.14159265358979,       155P    212
3.14159265358979,0.,0.,0.;                                           155P    213
126,1,1,0,0,1,0,3.33333333333333,3.33333333333333,                   157P    214
6.66666666666665,6.66666666666665,1.,1.,66.,0.,62.,66.,-5.,62.,      157P    215
3.33333333333333,6.66666666666665,0.,0.,0.;                          157P    216
126,1,1,0,0,1,0,3.33333333333333,3.33333333333333,                   159P    217
6.66666666666665,6.66666666666665,1.,1.,67.5,0.,50.,67.5,-5.,        159P    218
50.,3.33333333333333,6.66666666666665,0.,0.,0.;                      159P    219
126,1,1,0,0,1,0,3.26088026965536,3.26088026965536,                   161P    220
6.52176053931072,6.52176053931072,1.,1.,67.5333282998853,0.,20.,     161P    221
67.5333282998853,-5.,20.,3.26088026965536,6.52176053931072,0.,       161P    222
0.,0.;                                                               161P    223
126,1,1,0,0,1,0,3.33333333333333,3.33333333333333,                   163P    224
6.66666666666665,6.66666666666665,1.,1.,66.,0.,8.,66.,-5.,8.,        163P    225
3.33333333333333,6.66666666666665,0.,0.,0.;                          163P    226
126,1,1,0,0,1,0,-0.5,-0.5,0.,0.,1.,1.,60.5,-5.,66.,60.5,0.,66.,      165P    227
-0.5,0.,0.,0.,0.;                                                    165P    228
126,1,1,0,0,1,0,0.,0.,0.5,0.5,1.,1.,60.5,0.,4.,60.5,-5.,4.,0.,       167P    229
0.5,0.,0.,0.;                                                        167P    230
126,1,1,0,0,1,0,0.,0.,0.5,0.5,1.,1.,84.5,0.,66.,84.5,-5.,66.,0.,     169P    231
0.5,0.,0.,0.;                                                        169P    232
126,1,1,0,0,1,0,-0.5,-0.5,0.,0.,1.,1.,84.5,-5.,4.,84.5,0.,4.,        171P    233
-0.5,0.,0.,0.,0.;                                                    171P    234
126,1,1,0,0,1,0,-3.33333333333333,-3.33333333333333,0.,0.,1.,1.,     173P    235
79.,-5.,62.,79.,0.,62.,-3.33333333333333,0.,0.,0.,0.;                173P    236
126,1,1,0,0,1,0,-3.33333333333333,-3.33333333333333,0.,0.,1.,1.,     175P    237
79.,-5.,8.,79.,0.,8.,-3.33333333333333,0.,0.,0.,0.;                  175P    238
128,1,2,1,2,0,0,0,0,0,0.64516129032258,0.64516129032258,             177P    239
1.29032258064516,1.29032258064516,2.3598365619417,                   177P    240
2.3598365619417,2.3598365619417,3.92334874523789,                    177P    241
3.92334874523789,3.92334874523789,1.,1.,0.709677419354838,           177P    242
0.709677419354838,1.,1.,60.5,5.55111512312578D-16,                   177P    243
44.5399175830396,60.5,-5.,44.5399175830396,65.9204545454546,         177P    244
5.55111512312578D-16,50.,65.9204545454546,-5.,50.,60.5,              177P    245
5.55111512312578D-16,55.4600824169604,60.5,-5.,55.4600824169604,     177P    246
0.64516129032258,1.29032258064516,2.3598365619417,                   177P    247
3.92334874523789;                                                    177P    248
128,1,1,1,1,0,0,1,0,0,-1.8,-1.8,0.6,0.6,-3.1,-3.1,3.1,3.1,1.,1.,     179P    249
1.,1.,60.5,-5.,4.,84.5,-5.,4.,60.5,-5.,66.,84.5,-5.,66.,-1.8,        179P    250
0.6,-3.1,3.1;                                                        179P    251
128,1,1,1,1,0,0,1,0,0,-4.45399175830396,-4.45399175830396,           181P    252
-2.54600824169604,-2.54600824169604,-0.5,-0.5,                       181P    253
5.55111512312578D-17,5.55111512312578D-17,1.,1.,1.,1.,60.5,-5.,      181P    254
25.4600824169604,60.5,-5.,44.5399175830396,60.5,                     181P    255
5.55111512312578D-16,25.4600824169604,60.5,5.55111512312578D-16,     181P    256
44.5399175830396,-4.45399175830396,-2.54600824169604,-0.5,           181P    257
5.55111512312578D-17;                                                181P    258
128,1,2,1,2,0,0,0,0,0,0.64516129032258,0.64516129032258,             183P    259
1.29032258064516,1.29032258064516,2.3598365619417,                   183P    260
2.3598365619417,2.3598365619417,3.92334874523789,                    183P    261
3.92334874523789,3.92334874523789,1.,1.,0.709677419354838,           183P    262
0.709677419354838,1.,1.,60.5,5.55111512312578D-16,                   183P    263
14.5399175830396,60.5,-5.,14.5399175830396,65.9204545454546,         183P    264
5.55111512312578D-16,20.,65.9204545454546,-5.,20.,60.5,              183P    265
5.55111512312578D-16,25.4600824169604,60.5,-5.,25.4600824169604,     183P    266
0.64516129032258,1.29032258064516,2.3598365619417,                   183P    267
3.92334874523789;                                                    183P    268
128,1,1,1,1,0,0,1,0,0,-1.8,-1.8,0.6,0.6,-3.1,-3.1,3.1,3.1,1.,1.,     185P    269
1.,1.,84.5,0.,4.,60.5,0.,4.,84.5,0.,66.,60.5,0.,66.,-1.8,0.6,        185P    270
-3.1,3.1;                                                            185P    271
128,1,8,1,2,0,1,0,0,1,3.33333333333333,3.33333333333333,             187P    272
6.66666666666665,6.66666666666665,-3.14159265358979,                 187P    273
-3.14159265358979,-3.14159265358979,-1.5707963267949,                187P    274
-1.5707963267949,0.,0.,1.5707963267949,1.5707963267949,              187P    275
3.14159265358979,3.14159265358979,3.14159265358979,1.,1.,            187P    276
0.707106781186548,0.707106781186548,1.,1.,0.707106781186548,         187P    277
0.707106781186548,1.,1.,0.707106781186548,0.707106781186548,1.,      187P    278
1.,0.707106781186548,0.707106781186548,1.,1.,66.,0.,62.,66.,-5.,     187P    279
62.,66.,0.,63.5,66.,-5.,63.5,64.5,0.,63.5,64.5,-5.,63.5,63.,0.,      187P    280
63.5,63.,-5.,63.5,63.,0.,62.,63.,-5.,62.,63.,0.,60.5,63.,-5.,        187P    281
60.5,64.5,0.,60.5,64.5,-5.,60.5,66.,0.,60.5,66.,-5.,60.5,66.,0.,     187P    282
62.,66.,-5.,62.,3.33333333333333,6.66666666666665,                   187P    283
-3.14159265358979,3.14159265358979;                                  187P    284
128,1,8,1,2,0,1,0,0,1,3.33333333333333,3.33333333333333,             189P    285
6.66666666666665,6.66666666666665,-3.14159265358979,                 189P    286
-3.14159265358979,-3.14159265358979,-1.5707963267949,                189P    287
-1.5707963267949,0.,0.,1.5707963267949,1.5707963267949,              189P    288
3.14159265358979,3.14159265358979,3.14159265358979,1.,1.,            189P    289
0.707106781186548,0.707106781186548,1.,1.,0.707106781186548,         189P    290
0.707106781186548,1.,1.,0.707106781186548,0.707106781186548,1.,      189P    291
1.,0.707106781186548,0.707106781186548,1.,1.,67.5,0.,50.,67.5,       189P    292
-5.,50.,67.5,0.,51.5,67.5,-5.,51.5,66.,0.,51.5,66.,-5.,51.5,         189P    293
64.5,0.,51.5,64.5,-5.,51.5,64.5,0.,50.,64.5,-5.,50.,64.5,0.,         189P    294
48.5,64.5,-5.,48.5,66.,0.,48.5,66.,-5.,48.5,67.5,0.,48.5,67.5,       189P    295
-5.,48.5,67.5,0.,50.,67.5,-5.,50.,3.33333333333333,                  189P    296
6.66666666666665,-3.14159265358979,3.14159265358979;                 189P    297
128,1,8,1,2,0,1,0,0,1,3.26088026965536,3.26088026965536,             191P    298
6.52176053931072,6.52176053931072,-3.14159265358979,                 191P    299
-3.14159265358979,-3.14159265358979,-1.5707963267949,                191P    300
-1.5707963267949,0.,0.,1.5707963267949,1.5707963267949,              191P    301
3.14159265358979,3.14159265358979,3.14159265358979,1.,1.,            191P    302
0.707106781186548,0.707106781186548,1.,1.,0.707106781186548,         191P    303
0.707106781186548,1.,1.,0.707106781186548,0.707106781186548,1.,      191P    304
1.,0.707106781186548,0.707106781186548,1.,1.,67.5333282998853,       191P    305
0.,20.,67.5333282998853,-5.,20.,67.5333282998853,0.,                 191P    306
21.5333282998852,67.5333282998853,-5.,21.5333282998852,66.,0.,       191P    307
21.5333282998852,66.,-5.,21.5333282998852,64.4666717001148,0.,       191P    308
21.5333282998852,64.4666717001148,-5.,21.5333282998852,              191P    309
64.4666717001148,0.,20.,64.4666717001148,-5.,20.,                    191P    310
64.4666717001148,0.,18.4666717001148,64.4666717001148,-5.,           191P    311
18.4666717001148,66.,0.,18.4666717001148,66.,-5.,                    191P    312
18.4666717001148,67.5333282998853,0.,18.4666717001148,               191P    313
67.5333282998853,-5.,18.4666717001148,67.5333282998853,0.,20.,       191P    314
67.5333282998853,-5.,20.,3.26088026965536,6.52176053931072,          191P    315
-3.14159265358979,3.14159265358979;                                  191P    316
128,1,8,1,2,0,1,0,0,1,3.33333333333333,3.33333333333333,             193P    317
6.66666666666665,6.66666666666665,-3.14159265358979,                 193P    318
-3.14159265358979,-3.14159265358979,-1.5707963267949,                193P    319
-1.5707963267949,0.,0.,1.5707963267949,1.5707963267949,              193P    320
3.14159265358979,3.14159265358979,3.14159265358979,1.,1.,            193P    321
0.707106781186548,0.707106781186548,1.,1.,0.707106781186548,         193P    322
0.707106781186548,1.,1.,0.707106781186548,0.707106781186548,1.,      193P    323
1.,0.707106781186548,0.707106781186548,1.,1.,66.,0.,8.,66.,-5.,      193P    324
8.,66.,0.,9.5,66.,-5.,9.5,64.5,0.,9.5,64.5,-5.,9.5,63.,0.,9.5,       193P    325
63.,-5.,9.5,63.,0.,8.,63.,-5.,8.,63.,0.,6.5,63.,-5.,6.5,64.5,0.,     193P    326
6.5,64.5,-5.,6.5,66.,0.,6.5,66.,-5.,6.5,66.,0.,8.,66.,-5.,8.,        193P    327
3.33333333333333,6.66666666666665,-3.14159265358979,                 193P    328
3.14159265358979;                                                    193P    329
128,1,1,1,1,0,0,1,0,0,-1.45399175830396,-1.45399175830396,-0.4,      195P    330
-0.4,-0.5,-0.5,5.55111512312578D-17,5.55111512312578D-17,1.,1.,      195P    331
1.,1.,60.5,-5.,55.4600824169604,60.5,-5.,66.,60.5,                   195P    332
5.55111512312578D-16,55.4600824169604,60.5,5.55111512312578D-16,     195P    333
66.,-1.45399175830396,-0.4,-0.5,5.55111512312578D-17;                195P    334
128,1,1,1,1,0,0,1,0,0,-6.6,-6.6,-5.54600824169604,                   197P    335
-5.54600824169604,-0.5,-0.5,5.55111512312578D-17,                    197P    336
5.55111512312578D-17,1.,1.,1.,1.,60.5,-5.,4.,60.5,-5.,               197P    337
14.5399175830396,60.5,5.55111512312578D-16,4.,60.5,                  197P    338
5.55111512312578D-16,14.5399175830396,-6.6,-5.54600824169604,        197P    339
-0.5,5.55111512312578D-17;                                           197P    340
128,1,1,1,1,0,0,1,0,0,0.,0.,2.4,2.4,-0.5,-0.5,0.,0.,1.,1.,1.,1.,     199P    341
60.5,-5.,66.,84.5,-5.,66.,60.5,0.,66.,84.5,0.,66.,0.,2.4,-0.5,       199P    342
0.;                                                                  199P    343
128,1,1,1,1,0,0,1,0,0,-1.2,-1.2,1.2,1.2,-0.5,-0.5,0.,0.,1.,1.,       201P    344
1.,1.,84.5,-5.,4.,60.5,-5.,4.,84.5,0.,4.,60.5,0.,4.,-1.2,1.2,        201P    345
-0.5,0.;                                                             201P    346
128,1,8,1,2,0,1,0,0,1,0.,0.,3.33333333333333,3.33333333333333,       203P    347
-3.14159265358979,-3.14159265358979,-3.14159265358979,               203P    348
-1.5707963267949,-1.5707963267949,0.,0.,1.5707963267949,             203P    349
1.5707963267949,3.14159265358979,3.14159265358979,                   203P    350
3.14159265358979,1.,1.,0.707106781186548,0.707106781186548,1.,       203P    351
1.,0.707106781186548,0.707106781186548,1.,1.,0.707106781186548,      203P    352
0.707106781186548,1.,1.,0.707106781186548,0.707106781186548,1.,      203P    353
1.,79.,0.,62.,79.,-5.,62.,79.,0.,60.5,79.,-5.,60.5,80.5,0.,60.5,     203P    354
80.5,-5.,60.5,82.,0.,60.5,82.,-5.,60.5,82.,0.,62.,82.,-5.,62.,       203P    355
82.,0.,63.5,82.,-5.,63.5,80.5,0.,63.5,80.5,-5.,63.5,79.,0.,63.5,     203P    356
79.,-5.,63.5,79.,0.,62.,79.,-5.,62.,0.,3.33333333333333,             203P    357
-3.14159265358979,3.14159265358979;                                  203P    358
128,1,8,1,2,0,1,0,0,1,0.,0.,3.33333333333333,3.33333333333333,       205P    359
-3.14159265358979,-3.14159265358979,-3.14159265358979,               205P    360
-1.5707963267949,-1.5707963267949,0.,0.,1.5707963267949,             205P    361
1.5707963267949,3.14159265358979,3.14159265358979,                   205P    362
3.14159265358979,1.,1.,0.707106781186548,0.707106781186548,1.,       205P    363
1.,0.707106781186548,0.707106781186548,1.,1.,0.707106781186548,      205P    364
0.707106781186548,1.,1.,0.707106781186548,0.707106781186548,1.,      205P    365
1.,79.,0.,8.,79.,-5.,8.,79.,0.,6.5,79.,-5.,6.5,80.5,0.,6.5,80.5,     205P    366
-5.,6.5,82.,0.,6.5,82.,-5.,6.5,82.,0.,8.,82.,-5.,8.,82.,0.,9.5,      205P    367
82.,-5.,9.5,80.5,0.,9.5,80.5,-5.,9.5,79.,0.,9.5,79.,-5.,9.5,79.,     205P    368
0.,8.,79.,-5.,8.,0.,3.33333333333333,-3.14159265358979,              205P    369
3.14159265358979;                                                    205P    370
128,1,1,1,1,0,0,1,0,0,0.4,0.4,6.6,6.6,0.,0.,0.5,0.5,1.,1.,1.,1.,     207P    371
84.5,0.,4.,84.5,0.,66.,84.5,-5.,4.,84.5,-5.,66.,0.4,6.6,0.,0.5;      207P    372
502,28,60.5,5.55111512312578D-16,44.5399175830396,60.5,              209P    373
5.55111512312578D-16,55.4600824169604,60.5,-5.,44.5399175830396,     209P    374
60.5,-5.,55.4600824169604,60.5,-5.,25.4600824169604,60.5,-5.,        209P    375
14.5399175830396,60.5,-5.,4.,84.5,-5.,4.,84.5,-5.,66.,60.5,-5.,      209P    376
66.,79.,-5.,8.,79.,-5.,62.,66.,-5.,8.,67.5333282998853,-5.,20.,      209P    377
67.5,-5.,50.,66.,-5.,62.,60.5,5.55111512312578D-16,                  209P    378
25.4600824169604,60.5,5.55111512312578D-16,14.5399175830396,         209P    379
60.5,0.,66.,84.5,0.,66.,84.5,0.,4.,60.5,0.,4.,79.,0.,8.,79.,0.,      209P    380
62.,66.,0.,8.,67.5333282998853,0.,20.,67.5,0.,50.,66.,0.,62.;        209P    381
504,42,93,209,1,209,2,95,209,3,209,1,97,209,4,209,3,99,209,2,        211P    382
209,4,101,209,5,209,3,103,209,5,209,6,105,209,7,209,6,107,209,7,     211P    383
209,8,109,209,8,209,9,111,209,9,209,10,113,209,4,209,10,115,209,     211P    384
11,209,11,117,209,12,209,12,119,209,13,209,13,121,209,14,209,14,     211P    385
123,209,15,209,15,125,209,16,209,16,127,209,1,209,17,129,209,17,     211P    386
209,5,131,209,18,209,17,133,209,6,209,18,135,209,19,209,2,137,       211P    387
209,19,209,20,139,209,20,209,21,141,209,21,209,22,143,209,18,        211P    388
209,22,145,209,23,209,23,147,209,24,209,24,149,209,25,209,25,        211P    389
151,209,26,209,26,153,209,27,209,27,155,209,28,209,28,157,209,       211P    390
28,209,16,159,209,27,209,15,161,209,26,209,14,163,209,25,209,13,     211P    391
165,209,10,209,19,167,209,22,209,7,169,209,20,209,9,171,209,8,       211P    392
209,21,173,209,12,209,24,175,209,11,209,23;                          211P    393
406,1,5HBody1;                                                       213P    394
314,62.7450980392157,62.7450980392157,62.7450980392157,13HSteel      215P    395
- Satin;                                                             215P    396
S      1G      2D    216P    396                                        T      1
