                                                                        S      1
,,10HBackPanel1,10HBackPanel1,7Hunknown,7Hunknown,32,38,7,99,15,,1.,2,2HG      1
MM,1,0.08,15H20150605.172506,0.01,10000.,7Hunknown,7Hunknown,11,0,;     G      2
     186       1                                                00000000D      1
     186            -227       1       0                               0D      2
     514       2                                                00010000D      3
     514                       2       1                               0D      4
     510       4                                                00010000D      5
     510            -227       1       1                               0D      6
     510       5                                                00010000D      7
     510            -227       1       1                               0D      8
     510       6                                                00010000D      9
     510            -227       1       1                               0D     10
     510       7                                                00010000D     11
     510            -227       1       1                               0D     12
     510       8                                                00010000D     13
     510            -227       1       1                               0D     14
     510       9                                                00010000D     15
     510            -227       1       1                               0D     16
     510      10                                                00010000D     17
     510            -227       1       1                               0D     18
     510      11                                                00010000D     19
     510            -227       1       1                               0D     20
     510      12                                                00010000D     21
     510            -227       1       1                               0D     22
     510      13                                                00010000D     23
     510            -227       1       1                               0D     24
     510      14                                                00010000D     25
     510            -227       1       1                               0D     26
     510      15                                                00010000D     27
     510            -227       1       1                               0D     28
     510      16                                                00010000D     29
     510            -227       1       1                               0D     30
     510      17                                                00010000D     31
     510            -227       1       1                               0D     32
     510      18                                                00010000D     33
     510            -227       1       1                               0D     34
     510      19                                                00010000D     35
     510            -227       1       1                               0D     36
     510      20                                                00010000D     37
     510            -227       1       1                               0D     38
     510      21                                                00010000D     39
     510            -227       1       1                               0D     40
     508      22                                                00010000D     41
     508                       1       1                               0D     42
     508      23                                                00010000D     43
     508                       1       1                               0D     44
     508      24                                                00010000D     45
     508                       1       1                               0D     46
     508      25                                                00010000D     47
     508                       1       1                               0D     48
     508      26                                                00010000D     49
     508                       1       1                               0D     50
     508      27                                                00010000D     51
     508                       1       1                               0D     52
     508      28                                                00010000D     53
     508                       1       1                               0D     54
     508      29                                                00010000D     55
     508                       1       1                               0D     56
     508      30                                                00010000D     57
     508                       1       1                               0D     58
     508      31                                                00010000D     59
     508                       2       1                               0D     60
     508      33                                                00010000D     61
     508                       1       1                               0D     62
     508      34                                                00010000D     63
     508                       3       1                               0D     64
     508      37                                                00010000D     65
     508                       1       1                               0D     66
     508      38                                                00010000D     67
     508                       1       1                               0D     68
     508      39                                                00010000D     69
     508                       1       1                               0D     70
     508      40                                                00010000D     71
     508                       3       1                               0D     72
     508      43                                                00010000D     73
     508                       1       1                               0D     74
     508      44                                                00010000D     75
     508                       1       1                               0D     76
     508      45                                                00010000D     77
     508                       1       1                               0D     78
     508      46                                                00010000D     79
     508                       1       1                               0D     80
     508      47                                                00010000D     81
     508                       1       1                               0D     82
     508      48                                                00010000D     83
     508                       1       1                               0D     84
     508      49                                                00010000D     85
     508                       1       1                               0D     86
     508      50                                                00010000D     87
     508                       2       1                               0D     88
     126      52                                                00010000D     89
     126       0               2       0                               0D     90
     126      54                                                00010000D     91
     126       0               2       0                               0D     92
     126      56                                                00010000D     93
     126       0               2       0                               0D     94
     126      58                                                00010000D     95
     126       0               2       0                               0D     96
     126      60                                                00010000D     97
     126       0               8       0                               0D     98
     126      68                                                00010000D     99
     126       0               8       0                               0D    100
     126      76                                                00010000D    101
     126       0               8       0                               0D    102
     126      84                                                00010000D    103
     126       0              10       0                               0D    104
     126      94                                                00010000D    105
     126       0               2       0                               0D    106
     126      96                                                00010000D    107
     126       0               3       0                               0D    108
     126      99                                                00010000D    109
     126       0               3       0                               0D    110
     126     102                                                00010000D    111
     126       0               3       0                               0D    112
     126     105                                                00010000D    113
     126       0               2       0                               0D    114
     126     107                                                00010000D    115
     126       0               2       0                               0D    116
     126     109                                                00010000D    117
     126       0               3       0                               0D    118
     126     112                                                00010000D    119
     126       0               3       0                               0D    120
     126     115                                                00010000D    121
     126       0               2       0                               0D    122
     126     117                                                00010000D    123
     126       0               2       0                               0D    124
     126     119                                                00010000D    125
     126       0               2       0                               0D    126
     126     121                                                00010000D    127
     126       0               5       0                               0D    128
     126     126                                                00010000D    129
     126       0               5       0                               0D    130
     126     131                                                00010000D    131
     126       0               3       0                               0D    132
     126     134                                                00010000D    133
     126       0               2       0                               0D    134
     126     136                                                00010000D    135
     126       0               2       0                               0D    136
     126     138                                                00010000D    137
     126       0               2       0                               0D    138
     126     140                                                00010000D    139
     126       0               2       0                               0D    140
     126     142                                                00010000D    141
     126       0               2       0                               0D    142
     126     144                                                00010000D    143
     126       0               8       0                               0D    144
     126     152                                                00010000D    145
     126       0               3       0                               0D    146
     126     155                                                00010000D    147
     126       0              10       0                               0D    148
     126     165                                                00010000D    149
     126       0               3       0                               0D    150
     126     168                                                00010000D    151
     126       0               2       0                               0D    152
     126     170                                                00010000D    153
     126       0               2       0                               0D    154
     126     172                                                00010000D    155
     126       0               2       0                               0D    156
     126     174                                                00010000D    157
     126       0               8       0                               0D    158
     126     182                                                00010000D    159
     126       0               8       0                               0D    160
     126     190                                                00010000D    161
     126       0               2       0                               0D    162
     126     192                                                00010000D    163
     126       0               2       0                               0D    164
     126     194                                                00010000D    165
     126       0               2       0                               0D    166
     126     196                                                00010000D    167
     126       0               3       0                               0D    168
     126     199                                                00010000D    169
     126       0               8       0                               0D    170
     126     207                                                00010000D    171
     126       0               3       0                               0D    172
     126     210                                                00010000D    173
     126       0               4       0                               0D    174
     126     214                                                00010000D    175
     126       0              10       0                               0D    176
     126     224                                                00010000D    177
     126       0               3       0                               0D    178
     126     227                                                00010000D    179
     126       0               2       0                               0D    180
     126     229                                                00010000D    181
     126       0               2       0                               0D    182
     126     231                                                00010000D    183
     126       0               2       0                               0D    184
     128     233                                                00010000D    185
     128       0    -227       3       0                               0D    186
     128     236                                                00010000D    187
     128       0    -227       4       0                               0D    188
     128     240                                                00010000D    189
     128       0    -227       4       0                               0D    190
     128     244                                                00010000D    191
     128       0    -227       3       0                               0D    192
     128     247                                                00010000D    193
     128       0    -227       7       0                               0D    194
     128     254                                                00010000D    195
     128       0    -227       3       0                               0D    196
     128     257                                                00010000D    197
     128       0    -227       4       0                               0D    198
     128     261                                                00010000D    199
     128       0    -227       3       0                               0D    200
     128     264                                                00010000D    201
     128       0    -227       3       0                               0D    202
     128     267                                                00010000D    203
     128       0    -227       3       0                               0D    204
     128     270                                                00010000D    205
     128       0    -227      13       0                               0D    206
     128     283                                                00010000D    207
     128       0    -227      13       0                               0D    208
     128     296                                                00010000D    209
     128       0    -227      18       0                               0D    210
     128     314                                                00010000D    211
     128       0    -227      17       0                               0D    212
     128     331                                                00010000D    213
     128       0    -227      12       0                               0D    214
     128     343                                                00010000D    215
     128       0    -227      12       0                               0D    216
     128     355                                                00010000D    217
     128       0    -227       3       0                               0D    218
     128     358                                                00010000D    219
     128       0    -227       3       0                               0D    220
     502     361                                                00010000D    221
     502                       7       1                               0D    222
     504     368                                                00010001D    223
     504                      14       1                               0D    224
     406     382                                                00000000D    225
     406                       1      15                               0D    226
     314     383                                                00000200D    227
     314                       2       0                               0D    228
186,3,1,0,0,1,225;                                                     1P      1
514,18,5,1,7,1,9,1,11,1,13,1,15,1,17,1,19,1,21,1,23,1,25,1,27,1,       3P      2
29,1,31,1,33,1,35,1,37,1,39,1;                                         3P      3
510,185,5,1,41,43,45,47,49;                                            5P      4
510,187,1,1,51;                                                        7P      5
510,189,1,1,53;                                                        9P      6
510,191,1,1,55;                                                       11P      7
510,193,1,1,57;                                                       13P      8
510,195,1,1,59;                                                       15P      9
510,197,1,1,61;                                                       17P     10
510,199,3,1,63,65,67;                                                 19P     11
510,201,1,1,69;                                                       21P     12
510,203,1,1,71;                                                       23P     13
510,205,1,1,73;                                                       25P     14
510,207,1,1,75;                                                       27P     15
510,209,1,1,77;                                                       29P     16
510,211,1,1,79;                                                       31P     17
510,213,1,1,81;                                                       33P     18
510,215,1,1,83;                                                       35P     19
510,217,1,1,85;                                                       37P     20
510,219,1,1,87;                                                       39P     21
508,4,0,223,1,1,0,0,223,2,1,0,0,223,3,0,0,0,223,4,0,0;                41P     22
508,1,0,223,5,1,0;                                                    43P     23
508,1,0,223,6,1,0;                                                    45P     24
508,1,0,223,7,1,0;                                                    47P     25
508,1,0,223,8,1,0;                                                    49P     26
508,4,0,223,9,0,0,0,223,10,0,0,0,223,11,0,0,0,223,12,0,0;             51P     27
508,4,0,223,13,0,0,0,223,14,0,0,0,223,15,0,0,0,223,16,0,0;            53P     28
508,4,0,223,15,1,0,0,223,17,0,0,0,223,18,0,0,0,223,19,1,0;            55P     29
508,4,0,223,13,1,0,0,223,20,0,0,0,223,9,1,0,0,223,21,0,0;             57P     30
508,6,0,223,16,1,0,0,223,19,0,0,0,223,22,0,0,0,223,23,1,0,0,223,      59P     31
10,1,0,0,223,20,1,0;                                                  59P     32
508,4,0,223,11,1,0,0,223,23,0,0,0,223,24,0,0,0,223,25,1,0;            61P     33
508,12,0,223,24,1,0,0,223,22,1,0,0,223,18,1,0,0,223,26,1,0,0,         63P     34
223,27,0,0,0,223,28,0,0,0,223,29,0,0,0,223,30,0,0,0,223,31,0,0,       63P     35
0,223,32,0,0,0,223,33,1,0,0,223,34,1,0;                               63P     36
508,1,0,223,35,1,0;                                                   65P     37
508,1,0,223,36,1,0;                                                   67P     38
508,4,0,223,37,0,0,0,223,33,0,0,0,223,38,0,0,0,223,1,0,0;             69P     39
508,10,0,223,12,1,0,0,223,25,0,0,0,223,34,0,0,0,223,37,1,0,0,         71P     40
223,4,1,0,0,223,39,0,0,0,223,26,0,0,0,223,17,1,0,0,223,14,1,0,0,      71P     41
223,21,1,0;                                                           71P     42
508,4,0,223,28,1,0,0,223,40,1,0,0,223,41,1,0,0,223,40,0,0;            73P     43
508,4,0,223,41,0,0,0,223,42,1,0,0,223,7,0,0,0,223,42,0,0;             75P     44
508,4,0,223,30,1,0,0,223,43,1,0,0,223,44,1,0,0,223,43,0,0;            77P     45
508,4,0,223,44,0,0,0,223,45,1,0,0,223,8,0,0,0,223,45,0,0;             79P     46
508,4,0,223,35,0,0,0,223,46,1,0,0,223,6,0,0,0,223,46,0,0;             81P     47
508,4,0,223,36,0,0,0,223,47,1,0,0,223,5,0,0,0,223,47,0,0;             83P     48
508,4,0,223,38,1,0,0,223,32,1,0,0,223,48,0,0,0,223,2,0,0;             85P     49
508,6,0,223,39,1,0,0,223,3,1,0,0,223,48,1,0,0,223,31,1,0,0,223,       87P     50
29,1,0,0,223,27,1,0;                                                  87P     51
126,1,1,0,0,1,0,-1.75,-1.75,5.25,5.25,1.,1.,73.5,0.,70.,73.5,0.,      89P     52
0.,-1.75,5.25,0.,0.,0.;                                               89P     53
126,1,1,0,0,1,0,0.0999999999999996,0.0999999999999996,7.25,7.25,      91P     54
1.,1.,73.5,0.,0.,145.,0.,0.,0.0999999999999996,7.25,0.,0.,0.;         91P     55
126,1,1,0,0,1,0,0.,0.,7.,7.,1.,1.,145.,0.,70.,145.,0.,0.,0.,7.,       93P     56
0.,0.,0.;                                                             93P     57
126,1,1,0,0,1,0,0.0999999999999996,0.0999999999999996,7.25,7.25,      95P     58
1.,1.,73.5,0.,70.,145.,0.,70.,0.0999999999999996,7.25,0.,0.,0.;       95P     59
126,8,2,0,1,0,0,-3.14159265358979,-3.14159265358979,                  97P     60
-3.14159265358979,-1.5707963267949,-1.5707963267949,0.,0.,            97P     61
1.5707963267949,1.5707963267949,3.14159265358979,                     97P     62
3.14159265358979,3.14159265358979,1.,0.707106781186538,1.,            97P     63
0.707106781186555,1.,0.707106781186555,1.,0.707106781186538,1.,       97P     64
82.,0.,8.,82.,0.,6.5,80.5,0.,6.5,79.,0.,6.5,79.,0.,8.,79.,0.,         97P     65
9.5,80.5,0.,9.5,82.,0.,9.5,82.,0.,8.,-3.14159265358979,               97P     66
3.14159265358979,0.,0.,0.;                                            97P     67
126,8,2,0,1,0,0,-3.14159265358979,-3.14159265358979,                  99P     68
-3.14159265358979,-1.5707963267949,-1.5707963267949,0.,0.,            99P     69
1.5707963267949,1.5707963267949,3.14159265358979,                     99P     70
3.14159265358979,3.14159265358979,1.,0.707106781186547,1.,            99P     71
0.707106781186564,1.,0.707106781186564,1.,0.707106781186547,1.,       99P     72
82.,0.,62.,82.,0.,60.5,80.5,0.,60.5,79.,0.,60.5,79.,0.,62.,79.,       99P     73
0.,63.5,80.5,0.,63.5,82.,0.,63.5,82.,0.,62.,-3.14159265358979,        99P     74
3.14159265358979,0.,0.,0.;                                            99P     75
126,8,2,0,1,0,0,-3.14159265358979,-3.14159265358979,                 101P     76
-3.14159265358979,-1.5707963267949,-1.5707963267949,0.,0.,           101P     77
1.5707963267949,1.5707963267949,3.14159265358979,                    101P     78
3.14159265358979,3.14159265358979,1.,0.707106781186556,1.,           101P     79
0.707106781186556,1.,0.707106781186556,1.,0.707106781186556,1.,      101P     80
143.,0.,65.,143.,0.,63.,141.,0.,63.,139.,0.,63.,139.,0.,65.,         101P     81
139.,0.,67.,141.,0.,67.,143.,0.,67.,143.,0.,65.,                     101P     82
-3.14159265358979,3.14159265358979,0.,0.,0.;                         101P     83
126,8,2,0,1,0,0,-3.14159265358979,-3.14159265358979,                 103P     84
-3.14159265358979,-1.5707963267949,-1.5707963267949,0.,0.,           103P     85
1.5707963267949,1.5707963267949,3.14159265358979,                    103P     86
3.14159265358979,3.14159265358979,1.,0.707106781186551,1.,           103P     87
0.707106781186551,1.,0.707106781186551,1.,0.707106781186551,1.,      103P     88
143.,0.,5.00000007450581,143.,0.,3.00000007450581,141.,0.,           103P     89
3.00000007450581,139.,0.,3.00000007450581,139.,0.,                   103P     90
5.00000007450581,139.,0.,7.0000000745058,141.,0.,                    103P     91
7.0000000745058,143.,0.,7.0000000745058,143.,0.,                     103P     92
5.00000007450581,-3.14159265358979,3.14159265358979,0.,0.,0.;        103P     93
126,1,1,0,0,1,0,0.,0.,0.6,0.6,1.,1.,121.,12.5,64.,121.,12.5,70.,     105P     94
0.,0.6,0.,0.,0.;                                                     105P     95
126,1,1,0,0,1,0,-2.4,-2.4,-0.700000000000003,-0.700000000000003,     107P     96
1.,1.,104.,12.5,64.,121.,12.5,64.,-2.4,-0.700000000000003,0.,0.,     107P     97
0.;                                                                  107P     98
126,1,1,0,0,1,0,-0.0749999999999993,-0.0749999999999993,0.525,       109P     99
0.525,1.,1.,104.,12.5,70.,104.,12.5,64.,-0.0749999999999993,         109P    100
0.525,0.,0.,0.;                                                      109P    101
126,1,1,0,0,1,0,-2.475,-2.475,-0.774999999999999,                    111P    102
-0.774999999999999,1.,1.,121.,12.5,70.,104.,12.5,70.,-2.475,         111P    103
-0.774999999999999,0.,0.,0.;                                         111P    104
126,1,1,0,0,1,0,-0.6,-0.6,0.,0.,1.,1.,129.,12.5,70.,129.,12.5,       113P    105
64.,-0.6,0.,0.,0.,0.;                                                113P    106
126,1,1,0,0,1,0,-3.975,-3.975,-3.275,-3.275,1.,1.,136.,12.5,70.,     115P    107
129.,12.5,70.,-3.975,-3.275,0.,0.,0.;                                115P    108
126,1,1,0,0,1,0,-0.574999999999999,-0.574999999999999,               117P    109
0.0250000000000004,0.0250000000000004,1.,1.,136.,12.5,64.,136.,      117P    110
12.5,70.,-0.574999999999999,0.0250000000000004,0.,0.,0.;             117P    111
126,1,1,0,0,1,0,0.0999999999999979,0.0999999999999979,               119P    112
0.799999999999999,0.799999999999999,1.,1.,129.,12.5,64.,136.,        119P    113
12.5,64.,0.0999999999999979,0.799999999999999,0.,0.,0.;              119P    114
126,1,1,0,0,1,0,0.,0.,0.75,0.75,1.,1.,136.,5.,70.,136.,12.5,70.,     121P    115
0.,0.75,0.,0.,0.;                                                    121P    116
126,1,1,0,0,1,0,2.95,2.95,3.55,3.55,1.,1.,136.,5.,64.,136.,5.,       123P    117
70.,2.95,3.55,0.,0.,0.;                                              123P    118
126,1,1,0,0,1,0,-0.9,-0.9,-0.15,-0.15,1.,1.,136.,5.,64.,136.,        125P    119
12.5,64.,-0.9,-0.15,0.,0.,0.;                                        125P    120
126,4,2,0,0,0,0,0.,0.,0.,1.5707963267949,1.5707963267949,            127P    121
3.14159265358979,3.14159265358979,3.14159265358979,1.,               127P    122
0.707106781186541,1.,0.707106781186542,1.,121.,12.5,64.,121.,        127P    123
8.5,64.,125.,8.5,64.,129.,8.5,64.,129.,12.5,64.,0.,                  127P    124
3.14159265358979,0.,0.,0.;                                           127P    125
126,4,2,0,0,0,0,-3.14159265358979,-3.14159265358979,                 129P    126
-3.14159265358979,-1.5707963267949,-1.5707963267949,0.,0.,0.,1.,     129P    127
0.707106781186542,1.,0.707106781186541,1.,129.,12.5,70.,129.,        129P    128
8.5,70.,125.,8.5,70.,121.,8.5,70.,121.,12.5,70.,                     129P    129
-3.14159265358979,0.,0.,0.,0.;                                       129P    130
126,1,1,0,0,1,0,-0.0250000000000021,-0.0250000000000021,3.175,       131P    131
3.175,1.,1.,104.,5.,64.,136.,5.,64.,-0.0250000000000021,3.175,       131P    132
0.,0.,0.;                                                            131P    133
126,1,1,0,0,1,0,0.,0.,0.75,0.75,1.,1.,104.,5.,64.,104.,12.5,64.,     133P    134
0.,0.75,0.,0.,0.;                                                    133P    135
126,1,1,0,0,1,0,-3.55,-3.55,-2.95,-2.95,1.,1.,104.,5.,70.,104.,      135P    136
5.,64.,-3.55,-2.95,0.,0.,0.;                                         135P    137
126,1,1,0,0,1,0,0.,0.,0.75,0.75,1.,1.,104.,5.,70.,104.,12.5,70.,     137P    138
0.,0.75,0.,0.,0.;                                                    137P    139
126,1,1,0,0,1,0,6.35,6.35,7.25,7.25,1.,1.,136.,5.,70.,145.,5.,       139P    140
70.,6.35,7.25,0.,0.,0.;                                              139P    141
126,1,1,0,0,1,0,6.5,6.5,7.,7.,1.,1.,145.,5.,65.,145.,5.,70.,6.5,     141P    142
7.,0.,0.,0.;                                                         141P    143
126,8,2,0,1,0,0,-3.14159265358979,-3.14159265358979,                 143P    144
-3.14159265358979,-1.5707963267949,-1.5707963267949,0.,0.,           143P    145
1.5707963267949,1.5707963267949,3.14159265358979,                    143P    146
3.14159265358979,3.14159265358979,1.,0.707106781186542,1.,           143P    147
0.707106781186542,1.,0.707106781186542,1.,0.707106781186542,1.,      143P    148
145.,5.,65.,145.,5.,61.,141.,5.,61.,137.,5.,61.,137.,5.,65.,         143P    149
137.,5.,69.,141.,5.,69.,145.,5.,69.,145.,5.,65.,                     143P    150
-3.14159265358979,3.14159265358979,0.,0.,0.;                         143P    151
126,1,1,0,0,1,0,0.500000007450581,0.500000007450581,6.5,6.5,1.,      145P    152
1.,145.,5.,5.00000007450581,145.,5.,65.,0.500000007450581,6.5,       145P    153
0.,0.,0.;                                                            145P    154
126,8,2,0,1,0,0,-3.14159265358979,-3.14159265358979,                 147P    155
-3.14159265358979,-1.5707963267949,-1.5707963267949,0.,0.,           147P    156
1.5707963267949,1.5707963267949,3.14159265358979,                    147P    157
3.14159265358979,3.14159265358979,1.,0.707106781186551,1.,           147P    158
0.707106781186551,1.,0.707106781186551,1.,0.707106781186551,1.,      147P    159
145.,5.,5.00000007450581,145.,5.,1.00000007450582,141.,5.,           147P    160
1.00000007450582,137.,5.,1.00000007450582,137.,5.,                   147P    161
5.00000007450581,137.,5.,9.00000007450579,141.,5.,                   147P    162
9.00000007450579,145.,5.,9.00000007450579,145.,5.,                   147P    163
5.00000007450581,-3.14159265358979,3.14159265358979,0.,0.,0.;        147P    164
126,1,1,0,0,1,0,0.,0.,0.500000007450581,0.500000007450581,1.,1.,     149P    165
145.,5.,0.,145.,5.,5.00000007450581,0.,0.500000007450581,0.,0.,      149P    166
0.;                                                                  149P    167
126,1,1,0,0,1,0,0.0999999999999996,0.0999999999999996,7.25,7.25,     151P    168
1.,1.,73.5,5.,0.,145.,5.,0.,0.0999999999999996,7.25,0.,0.,0.;        151P    169
126,1,1,0,0,1,0,-1.75,-1.75,5.25,5.25,1.,1.,73.5,5.,0.,73.5,5.,      153P    170
70.,-1.75,5.25,0.,0.,0.;                                             153P    171
126,1,1,0,0,1,0,0.0999999999999996,0.0999999999999996,3.15,3.15,     155P    172
1.,1.,73.5,5.,70.,104.,5.,70.,0.0999999999999996,3.15,0.,0.,0.;      155P    173
126,8,2,0,1,0,0,-3.14159265358979,-3.14159265358979,                 157P    174
-3.14159265358979,-1.5707963267949,-1.5707963267949,0.,0.,           157P    175
1.5707963267949,1.5707963267949,3.14159265358979,                    157P    176
3.14159265358979,3.14159265358979,1.,0.707106781186547,1.,           157P    177
0.707106781186564,1.,0.707106781186564,1.,0.707106781186547,1.,      157P    178
82.,5.,62.,82.,5.,63.5,80.5,5.,63.5,79.,5.,63.5,79.,5.,62.,79.,      157P    179
5.,60.5,80.5,5.,60.5,82.,5.,60.5,82.,5.,62.,-3.14159265358979,       157P    180
3.14159265358979,0.,0.,0.;                                           157P    181
126,8,2,0,1,0,0,-3.14159265358979,-3.14159265358979,                 159P    182
-3.14159265358979,-1.5707963267949,-1.5707963267949,0.,0.,           159P    183
1.5707963267949,1.5707963267949,3.14159265358979,                    159P    184
3.14159265358979,3.14159265358979,1.,0.707106781186538,1.,           159P    185
0.707106781186555,1.,0.707106781186555,1.,0.707106781186538,1.,      159P    186
82.,5.,8.,82.,5.,9.5,80.5,5.,9.5,79.,5.,9.5,79.,5.,8.,79.,5.,        159P    187
6.5,80.5,5.,6.5,82.,5.,6.5,82.,5.,8.,-3.14159265358979,              159P    188
3.14159265358979,0.,0.,0.;                                           159P    189
126,1,1,0,0,1,0,-0.125,-0.125,0.375,0.375,1.,1.,73.5,5.,70.,         161P    190
73.5,0.,70.,-0.125,0.375,0.,0.,0.;                                   161P    191
126,1,1,0,0,1,0,-0.125,-0.125,0.375,0.375,1.,1.,73.5,0.,0.,73.5,     163P    192
5.,0.,-0.125,0.375,0.,0.,0.;                                         163P    193
126,1,1,0,0,1,0,0.,0.,0.5,0.5,1.,1.,145.,5.,70.,145.,0.,70.,0.,      165P    194
0.5,0.,0.,0.;                                                        165P    195
126,1,1,0,0,1,0,-0.47140452079103,-0.47140452079103,                 167P    196
0.47140452079103,0.47140452079103,1.,1.,145.,5.,65.,143.,3.,65.,     167P    197
-0.47140452079103,0.47140452079103,0.,0.,0.;                         167P    198
126,8,2,0,1,0,0,-3.14159265358979,-3.14159265358979,                 169P    199
-3.14159265358979,-1.5707963267949,-1.5707963267949,0.,0.,           169P    200
1.5707963267949,1.5707963267949,3.14159265358979,                    169P    201
3.14159265358979,3.14159265358979,1.,0.707106781186556,1.,           169P    202
0.707106781186556,1.,0.707106781186556,1.,0.707106781186556,1.,      169P    203
143.,3.,65.,143.,3.,67.,141.,3.,67.,139.,3.,67.,139.,3.,65.,         169P    204
139.,3.,63.,141.,3.,63.,143.,3.,63.,143.,3.,65.,                     169P    205
-3.14159265358979,3.14159265358979,0.,0.,0.;                         169P    206
126,1,1,0,0,1,0,0.999999999999995,0.999999999999995,                 171P    207
2.49999999999999,2.49999999999999,1.,1.,143.,3.,65.,143.,0.,65.,     171P    208
0.999999999999995,2.49999999999999,0.,0.,0.;                         171P    209
126,1,1,0,0,1,0,-0.471404520791033,-0.471404520791033,               173P    210
0.471404520791033,0.471404520791033,1.,1.,145.,5.,                   173P    211
5.00000007450581,143.,3.,5.00000007450581,-0.471404520791033,        173P    212
0.471404520791033,0.,0.,0.;                                          173P    213
126,8,2,0,1,0,0,-3.14159265358979,-3.14159265358979,                 175P    214
-3.14159265358979,-1.5707963267949,-1.5707963267949,0.,0.,           175P    215
1.5707963267949,1.5707963267949,3.14159265358979,                    175P    216
3.14159265358979,3.14159265358979,1.,0.707106781186551,1.,           175P    217
0.707106781186551,1.,0.707106781186551,1.,0.707106781186551,1.,      175P    218
143.,3.,5.00000007450581,143.,3.,7.0000000745058,141.,3.,            175P    219
7.0000000745058,139.,3.,7.0000000745058,139.,3.,                     175P    220
5.00000007450581,139.,3.,3.00000007450581,141.,3.,                   175P    221
3.00000007450581,143.,3.,3.00000007450581,143.,3.,                   175P    222
5.00000007450581,-3.14159265358979,3.14159265358979,0.,0.,0.;        175P    223
126,1,1,0,0,1,0,1.,1.,2.50000000000001,2.50000000000001,1.,1.,       177P    224
143.,3.,5.00000007450581,143.,0.,5.00000007450581,1.,                177P    225
2.50000000000001,0.,0.,0.;                                           177P    226
126,1,1,0,0,1,0,0.,0.,3.33333333333333,3.33333333333333,1.,1.,       179P    227
82.,5.,62.,82.,0.,62.,0.,3.33333333333333,0.,0.,0.;                  179P    228
126,1,1,0,0,1,0,0.,0.,3.33333333333333,3.33333333333333,1.,1.,       181P    229
82.,5.,8.,82.,0.,8.,0.,3.33333333333333,0.,0.,0.;                    181P    230
126,1,1,0,0,1,0,0.,0.,0.5,0.5,1.,1.,145.,0.,0.,145.,5.,0.,0.,        183P    231
0.5,0.,0.,0.;                                                        183P    232
128,1,1,1,1,0,0,1,0,0,0.,0.,7.,7.,0.0999999999999996,                185P    233
0.0999999999999996,7.25,7.25,1.,1.,1.,1.,73.5,0.,70.,73.5,0.,0.,     185P    234
145.,0.,70.,145.,0.,0.,0.,7.,0.0999999999999996,7.25;                185P    235
128,1,1,1,1,0,0,1,0,0,-0.0499999999999998,-0.0499999999999998,       187P    236
0.55,0.55,-1.6,-1.6,0.0999999999999979,0.0999999999999979,1.,1.,     187P    237
1.,1.,104.,12.5,64.,104.,12.5,70.,121.,12.5,64.,121.,12.5,70.,       187P    238
-0.0499999999999998,0.55,-1.6,0.0999999999999979;                    187P    239
128,1,1,1,1,0,0,1,0,0,-0.0499999999999998,-0.0499999999999998,       189P    240
0.55,0.55,0.899999999999999,0.899999999999999,1.6,1.6,1.,1.,1.,      189P    241
1.,129.,12.5,64.,129.,12.5,70.,136.,12.5,64.,136.,12.5,70.,          189P    242
-0.0499999999999998,0.55,0.899999999999999,1.6;                      189P    243
128,1,1,1,1,0,0,1,0,0,0.,0.,0.6,0.6,0.,0.,0.75,0.75,1.,1.,1.,1.,     191P    244
136.,5.,70.,136.,5.,64.,136.,12.5,70.,136.,12.5,64.,0.,0.6,0.,       191P    245
0.75;                                                                191P    246
128,1,4,1,2,0,0,0,0,0,0.,0.,1.5,1.5,0.,0.,0.,1.5707963267949,        193P    247
1.5707963267949,3.14159265358979,3.14159265358979,                   193P    248
3.14159265358979,1.,1.,0.707106781186548,0.707106781186548,1.,       193P    249
1.,0.707106781186548,0.707106781186548,1.,1.,121.,12.5,64.,121.,     193P    250
12.5,70.,121.,8.5,64.,121.,8.5,70.,125.,8.5,64.,125.,8.5,70.,        193P    251
129.,8.5,64.,129.,8.5,70.,129.,12.5,64.,129.,12.5,70.,0.,1.5,0.,     193P    252
3.14159265358979;                                                    193P    253
128,1,1,1,1,0,0,1,0,0,0.,0.,3.2,3.2,0.,0.,0.75,0.75,1.,1.,1.,1.,     195P    254
136.,5.,64.,104.,5.,64.,136.,12.5,64.,104.,12.5,64.,0.,3.2,0.,       195P    255
0.75;                                                                195P    256
128,1,1,1,1,0,0,1,0,0,-0.5,-0.5,0.0999999999999996,                  197P    257
0.0999999999999996,0.,0.,0.75,0.75,1.,1.,1.,1.,104.,5.,64.,104.,     197P    258
5.,70.,104.,12.5,64.,104.,12.5,70.,-0.5,0.0999999999999996,0.,       197P    259
0.75;                                                                197P    260
128,1,1,1,1,0,0,1,0,0,0.,0.,7.,7.,0.0999999999999996,                199P    261
0.0999999999999996,7.25,7.25,1.,1.,1.,1.,73.5,5.,0.,73.5,5.,70.,     199P    262
145.,5.,0.,145.,5.,70.,0.,7.,0.0999999999999996,7.25;                199P    263
128,1,1,1,1,0,0,1,0,0,-3.5,-3.5,3.5,3.5,-0.25,-0.25,0.25,0.25,       201P    264
1.,1.,1.,1.,73.5,0.,0.,73.5,0.,70.,73.5,5.,0.,73.5,5.,70.,-3.5,      201P    265
3.5,-0.25,0.25;                                                      201P    266
128,1,1,1,1,0,0,1,0,0,-0.75,-0.75,0.5,0.5,0.0999999999999996,        203P    267
0.0999999999999996,7.25,7.25,1.,1.,1.,1.,73.5,12.5,70.,73.5,0.,      203P    268
70.,145.,12.5,70.,145.,0.,70.,-0.75,0.5,0.0999999999999996,7.25;     203P    269
128,1,8,1,2,0,1,0,0,1,-0.47140452079103,-0.47140452079103,           205P    270
0.47140452079103,0.47140452079103,-3.14159265358979,                 205P    271
-3.14159265358979,-3.14159265358979,-1.5707963267949,                205P    272
-1.5707963267949,0.,0.,1.5707963267949,1.5707963267949,              205P    273
3.14159265358979,3.14159265358979,3.14159265358979,1.,1.,            205P    274
0.707106781186548,0.707106781186548,1.,1.,0.707106781186548,         205P    275
0.707106781186548,1.,1.,0.707106781186548,0.707106781186548,1.,      205P    276
1.,0.707106781186548,0.707106781186548,1.,1.,143.,3.,65.,145.,       205P    277
5.,65.,143.,3.,63.,145.,5.,61.,141.,3.,63.,141.,5.,61.,139.,3.,      205P    278
63.,137.,5.,61.,139.,3.,65.,137.,5.,65.,139.,3.,67.,137.,5.,69.,     205P    279
141.,3.,67.,141.,5.,69.,143.,3.,67.,145.,5.,69.,143.,3.,65.,         205P    280
145.,5.,65.,-0.47140452079103,0.47140452079103,                      205P    281
-3.14159265358979,3.14159265358979;                                  205P    282
128,1,8,1,2,0,1,0,0,1,0.999999999999995,0.999999999999995,           207P    283
2.49999999999999,2.49999999999999,-3.14159265358979,                 207P    284
-3.14159265358979,-3.14159265358979,-1.5707963267949,                207P    285
-1.5707963267949,0.,0.,1.5707963267949,1.5707963267949,              207P    286
3.14159265358979,3.14159265358979,3.14159265358979,1.,1.,            207P    287
0.707106781186548,0.707106781186548,1.,1.,0.707106781186548,         207P    288
0.707106781186548,1.,1.,0.707106781186548,0.707106781186548,1.,      207P    289
1.,0.707106781186548,0.707106781186548,1.,1.,143.,3.,65.,143.,       207P    290
0.,65.,143.,3.,67.,143.,0.,67.,141.,3.,67.,141.,0.,67.,139.,3.,      207P    291
67.,139.,0.,67.,139.,3.,65.,139.,0.,65.,139.,3.,63.,139.,0.,63.,     207P    292
141.,3.,63.,141.,0.,63.,143.,3.,63.,143.,0.,63.,143.,3.,65.,         207P    293
143.,0.,65.,0.999999999999995,2.49999999999999,                      207P    294
-3.14159265358979,3.14159265358979;                                  207P    295
128,1,8,1,2,0,1,0,0,1,-0.471404520791033,-0.471404520791033,         209P    296
0.471404520791033,0.471404520791033,-3.14159265358979,               209P    297
-3.14159265358979,-3.14159265358979,-1.5707963267949,                209P    298
-1.5707963267949,0.,0.,1.5707963267949,1.5707963267949,              209P    299
3.14159265358979,3.14159265358979,3.14159265358979,1.,1.,            209P    300
0.707106781186548,0.707106781186548,1.,1.,0.707106781186548,         209P    301
0.707106781186548,1.,1.,0.707106781186548,0.707106781186548,1.,      209P    302
1.,0.707106781186548,0.707106781186548,1.,1.,143.,3.,                209P    303
5.00000007450581,145.,5.,5.00000007450581,143.,3.,                   209P    304
3.00000007450581,145.,5.,1.00000007450582,141.,3.,                   209P    305
3.00000007450581,141.,5.,1.00000007450582,139.,3.,                   209P    306
3.00000007450581,137.,5.,1.00000007450582,139.,3.,                   209P    307
5.00000007450581,137.,5.,5.00000007450581,139.,3.,                   209P    308
7.0000000745058,137.,5.,9.00000007450579,141.,3.,                    209P    309
7.0000000745058,141.,5.,9.00000007450579,143.,3.,                    209P    310
7.0000000745058,145.,5.,9.00000007450579,143.,3.,                    209P    311
5.00000007450581,145.,5.,5.00000007450581,-0.471404520791033,        209P    312
0.471404520791033,-3.14159265358979,3.14159265358979;                209P    313
128,1,8,1,2,0,1,0,0,1,1.,1.,2.50000000000001,2.50000000000001,       211P    314
-3.14159265358979,-3.14159265358979,-3.14159265358979,               211P    315
-1.5707963267949,-1.5707963267949,0.,0.,1.5707963267949,             211P    316
1.5707963267949,3.14159265358979,3.14159265358979,                   211P    317
3.14159265358979,1.,1.,0.707106781186548,0.707106781186548,1.,       211P    318
1.,0.707106781186548,0.707106781186548,1.,1.,0.707106781186548,      211P    319
0.707106781186548,1.,1.,0.707106781186548,0.707106781186548,1.,      211P    320
1.,143.,3.,5.00000007450581,143.,0.,5.00000007450581,143.,3.,        211P    321
7.0000000745058,143.,0.,7.0000000745058,141.,3.,7.0000000745058,     211P    322
141.,0.,7.0000000745058,139.,3.,7.0000000745058,139.,0.,             211P    323
7.0000000745058,139.,3.,5.00000007450581,139.,0.,                    211P    324
5.00000007450581,139.,3.,3.00000007450581,139.,0.,                   211P    325
3.00000007450581,141.,3.,3.00000007450581,141.,0.,                   211P    326
3.00000007450581,143.,3.,3.00000007450581,143.,0.,                   211P    327
3.00000007450581,143.,3.,5.00000007450581,143.,0.,                   211P    328
5.00000007450581,1.,2.50000000000001,-3.14159265358979,              211P    329
3.14159265358979;                                                    211P    330
128,1,8,1,2,0,1,0,0,1,0.,0.,3.33333333333333,3.33333333333333,       213P    331
-3.14159265358979,-3.14159265358979,-3.14159265358979,               213P    332
-1.5707963267949,-1.5707963267949,0.,0.,1.5707963267949,             213P    333
1.5707963267949,3.14159265358979,3.14159265358979,                   213P    334
3.14159265358979,1.,1.,0.707106781186548,0.707106781186548,1.,       213P    335
1.,0.707106781186548,0.707106781186548,1.,1.,0.707106781186548,      213P    336
0.707106781186548,1.,1.,0.707106781186548,0.707106781186548,1.,      213P    337
1.,82.,5.,62.,82.,0.,62.,82.,5.,63.5,82.,0.,63.5,80.5,5.,63.5,       213P    338
80.5,0.,63.5,79.,5.,63.5,79.,0.,63.5,79.,5.,62.,79.,0.,62.,79.,      213P    339
5.,60.5,79.,0.,60.5,80.5,5.,60.5,80.5,0.,60.5,82.,5.,60.5,82.,       213P    340
0.,60.5,82.,5.,62.,82.,0.,62.,0.,3.33333333333333,                   213P    341
-3.14159265358979,3.14159265358979;                                  213P    342
128,1,8,1,2,0,1,0,0,1,0.,0.,3.33333333333333,3.33333333333333,       215P    343
-3.14159265358979,-3.14159265358979,-3.14159265358979,               215P    344
-1.5707963267949,-1.5707963267949,0.,0.,1.5707963267949,             215P    345
1.5707963267949,3.14159265358979,3.14159265358979,                   215P    346
3.14159265358979,1.,1.,0.707106781186548,0.707106781186548,1.,       215P    347
1.,0.707106781186548,0.707106781186548,1.,1.,0.707106781186548,      215P    348
0.707106781186548,1.,1.,0.707106781186548,0.707106781186548,1.,      215P    349
1.,82.,5.,8.,82.,0.,8.,82.,5.,9.5,82.,0.,9.5,80.5,5.,9.5,80.5,       215P    350
0.,9.5,79.,5.,9.5,79.,0.,9.5,79.,5.,8.,79.,0.,8.,79.,5.,6.5,79.,     215P    351
0.,6.5,80.5,5.,6.5,80.5,0.,6.5,82.,5.,6.5,82.,0.,6.5,82.,5.,8.,      215P    352
82.,0.,8.,0.,3.33333333333333,-3.14159265358979,                     215P    353
3.14159265358979;                                                    215P    354
128,1,1,1,1,0,0,1,0,0,0.,0.,0.5,0.5,0.0999999999999996,              217P    355
0.0999999999999996,7.25,7.25,1.,1.,1.,1.,73.5,0.,0.,73.5,5.,0.,      217P    356
145.,0.,0.,145.,5.,0.,0.,0.5,0.0999999999999996,7.25;                217P    357
128,1,1,1,1,0,0,1,0,0,-3.5,-3.5,3.5,3.5,-0.25,-0.25,0.25,0.25,       219P    358
1.,1.,1.,1.,145.,0.,70.,145.,0.,0.,145.,5.,70.,145.,5.,0.,-3.5,      219P    359
3.5,-0.25,0.25;                                                      219P    360
502,30,73.5,0.,70.,73.5,0.,0.,145.,0.,0.,145.,0.,70.,82.,0.,8.,      221P    361
82.,0.,62.,143.,0.,65.,143.,0.,5.00000007450581,121.,12.5,64.,       221P    362
121.,12.5,70.,104.,12.5,64.,104.,12.5,70.,129.,12.5,70.,129.,        221P    363
12.5,64.,136.,12.5,70.,136.,12.5,64.,136.,5.,70.,136.,5.,64.,        221P    364
104.,5.,64.,104.,5.,70.,145.,5.,70.,145.,5.,65.,145.,5.,             221P    365
5.00000007450581,145.,5.,0.,73.5,5.,0.,73.5,5.,70.,82.,5.,62.,       221P    366
82.,5.,8.,143.,3.,65.,143.,3.,5.00000007450581;                      221P    367
504,48,89,221,1,221,2,91,221,2,221,3,93,221,4,221,3,95,221,1,        223P    368
221,4,97,221,5,221,5,99,221,6,221,6,101,221,7,221,7,103,221,8,       223P    369
221,8,105,221,9,221,10,107,221,11,221,9,109,221,12,221,11,111,       223P    370
221,10,221,12,113,221,13,221,14,115,221,15,221,13,117,221,16,        223P    371
221,15,119,221,14,221,16,121,221,17,221,15,123,221,18,221,17,        223P    372
125,221,18,221,16,127,221,9,221,14,129,221,13,221,10,131,221,19,     223P    373
221,18,133,221,19,221,11,135,221,20,221,19,137,221,20,221,12,        223P    374
139,221,17,221,21,141,221,22,221,21,143,221,22,221,22,145,221,       223P    375
23,221,22,147,221,23,221,23,149,221,24,221,23,151,221,25,221,24,     223P    376
153,221,25,221,26,155,221,26,221,20,157,221,27,221,27,159,221,       223P    377
28,221,28,161,221,26,221,1,163,221,2,221,25,165,221,21,221,4,        223P    378
167,221,22,221,29,169,221,29,221,29,171,221,29,221,7,173,221,23,     223P    379
221,30,175,221,30,221,30,177,221,30,221,8,179,221,27,221,6,181,      223P    380
221,28,221,5,183,221,3,221,24;                                       223P    381
406,1,5HBody1;                                                       225P    382
314,62.7450980392157,62.7450980392157,62.7450980392157,13HSteel      227P    383
- Satin;                                                             227P    384
S      1G      2D    228P    384                                        T      1
