                                                                        S      1
,,10HBackPanel1,10HBackPanel1,7Hunknown,7Hunknown,32,38,7,99,15,,1.,2,2HG      1
MM,1,0.08,15H20150630.211000,0.01,10000.,7Hunknown,7Hunknown,11,0,;     G      2
     186       1                                                00000000D      1
     186            -279       1       0                               0D      2
     514       2                                                00010000D      3
     514                       2       1                               0D      4
     510       4                                                00010000D      5
     510            -279       1       1                               0D      6
     510       5                                                00010000D      7
     510            -279       1       1                               0D      8
     510       6                                                00010000D      9
     510            -279       1       1                               0D     10
     510       7                                                00010000D     11
     510            -279       1       1                               0D     12
     510       8                                                00010000D     13
     510            -279       1       1                               0D     14
     510       9                                                00010000D     15
     510            -279       1       1                               0D     16
     510      10                                                00010000D     17
     510            -279       1       1                               0D     18
     510      11                                                00010000D     19
     510            -279       1       1                               0D     20
     510      12                                                00010000D     21
     510            -279       1       1                               0D     22
     510      13                                                00010000D     23
     510            -279       1       1                               0D     24
     510      14                                                00010000D     25
     510            -279       1       1                               0D     26
     510      15                                                00010000D     27
     510            -279       1       1                               0D     28
     510      16                                                00010000D     29
     510            -279       1       1                               0D     30
     510      17                                                00010000D     31
     510            -279       1       1                               0D     32
     510      18                                                00010000D     33
     510            -279       1       1                               0D     34
     510      19                                                00010000D     35
     510            -279       1       1                               0D     36
     510      20                                                00010000D     37
     510            -279       1       1                               0D     38
     510      21                                                00010000D     39
     510            -279       1       1                               0D     40
     510      22                                                00010000D     41
     510            -279       1       1                               0D     42
     510      23                                                00010000D     43
     510            -279       1       1                               0D     44
     510      24                                                00010000D     45
     510            -279       1       1                               0D     46
     510      25                                                00010000D     47
     510            -279       1       1                               0D     48
     508      26                                                00010000D     49
     508                       1       1                               0D     50
     508      27                                                00010000D     51
     508                       1       1                               0D     52
     508      28                                                00010000D     53
     508                       1       1                               0D     54
     508      29                                                00010000D     55
     508                       1       1                               0D     56
     508      30                                                00010000D     57
     508                       1       1                               0D     58
     508      31                                                00010000D     59
     508                       1       1                               0D     60
     508      32                                                00010000D     61
     508                       1       1                               0D     62
     508      33                                                00010000D     63
     508                       1       1                               0D     64
     508      34                                                00010000D     65
     508                       1       1                               0D     66
     508      35                                                00010000D     67
     508                       1       1                               0D     68
     508      36                                                00010000D     69
     508                       1       1                               0D     70
     508      37                                                00010000D     71
     508                       1       1                               0D     72
     508      38                                                00010000D     73
     508                       1       1                               0D     74
     508      39                                                00010000D     75
     508                       1       1                               0D     76
     508      40                                                00010000D     77
     508                       2       1                               0D     78
     508      42                                                00010000D     79
     508                       1       1                               0D     80
     508      43                                                00010000D     81
     508                       3       1                               0D     82
     508      46                                                00010000D     83
     508                       1       1                               0D     84
     508      47                                                00010000D     85
     508                       1       1                               0D     86
     508      48                                                00010000D     87
     508                       1       1                               0D     88
     508      49                                                00010000D     89
     508                       1       1                               0D     90
     508      50                                                00010000D     91
     508                       3       1                               0D     92
     508      53                                                00010000D     93
     508                       1       1                               0D     94
     508      54                                                00010000D     95
     508                       1       1                               0D     96
     508      55                                                00010000D     97
     508                       1       1                               0D     98
     508      56                                                00010000D     99
     508                       1       1                               0D    100
     508      57                                                00010000D    101
     508                       1       1                               0D    102
     508      58                                                00010000D    103
     508                       1       1                               0D    104
     508      59                                                00010000D    105
     508                       1       1                               0D    106
     508      60                                                00010000D    107
     508                       2       1                               0D    108
     126      62                                                00010000D    109
     126       0               2       0                               0D    110
     126      64                                                00010000D    111
     126       0               2       0                               0D    112
     126      66                                                00010000D    113
     126       0               2       0                               0D    114
     126      68                                                00010000D    115
     126       0               2       0                               0D    116
     126      70                                                00010000D    117
     126       0               2       0                               0D    118
     126      72                                                00010000D    119
     126       0               2       0                               0D    120
     126      74                                                00010000D    121
     126       0               2       0                               0D    122
     126      76                                                00010000D    123
     126       0               2       0                               0D    124
     126      78                                                00010000D    125
     126       0               2       0                               0D    126
     126      80                                                00010000D    127
     126       0               2       0                               0D    128
     126      82                                                00010000D    129
     126       0               2       0                               0D    130
     126      84                                                00010000D    131
     126       0               2       0                               0D    132
     126      86                                                00010000D    133
     126       0               2       0                               0D    134
     126      88                                                00010000D    135
     126       0               2       0                               0D    136
     126      90                                                00010000D    137
     126       0               2       0                               0D    138
     126      92                                                00010000D    139
     126       0               2       0                               0D    140
     126      94                                                00010000D    141
     126       0               8       0                               0D    142
     126     102                                                00010000D    143
     126       0               8       0                               0D    144
     126     110                                                00010000D    145
     126       0               8       0                               0D    146
     126     118                                                00010000D    147
     126       0              10       0                               0D    148
     126     128                                                00010000D    149
     126       0               2       0                               0D    150
     126     130                                                00010000D    151
     126       0               3       0                               0D    152
     126     133                                                00010000D    153
     126       0               3       0                               0D    154
     126     136                                                00010000D    155
     126       0               3       0                               0D    156
     126     139                                                00010000D    157
     126       0               2       0                               0D    158
     126     141                                                00010000D    159
     126       0               2       0                               0D    160
     126     143                                                00010000D    161
     126       0               3       0                               0D    162
     126     146                                                00010000D    163
     126       0               3       0                               0D    164
     126     149                                                00010000D    165
     126       0               2       0                               0D    166
     126     151                                                00010000D    167
     126       0               2       0                               0D    168
     126     153                                                00010000D    169
     126       0               2       0                               0D    170
     126     155                                                00010000D    171
     126       0               5       0                               0D    172
     126     160                                                00010000D    173
     126       0               5       0                               0D    174
     126     165                                                00010000D    175
     126       0               3       0                               0D    176
     126     168                                                00010000D    177
     126       0               2       0                               0D    178
     126     170                                                00010000D    179
     126       0               2       0                               0D    180
     126     172                                                00010000D    181
     126       0               2       0                               0D    182
     126     174                                                00010000D    183
     126       0               2       0                               0D    184
     126     176                                                00010000D    185
     126       0               2       0                               0D    186
     126     178                                                00010000D    187
     126       0               8       0                               0D    188
     126     186                                                00010000D    189
     126       0               3       0                               0D    190
     126     189                                                00010000D    191
     126       0              10       0                               0D    192
     126     199                                                00010000D    193
     126       0               3       0                               0D    194
     126     202                                                00010000D    195
     126       0               2       0                               0D    196
     126     204                                                00010000D    197
     126       0               2       0                               0D    198
     126     206                                                00010000D    199
     126       0               2       0                               0D    200
     126     208                                                00010000D    201
     126       0               8       0                               0D    202
     126     216                                                00010000D    203
     126       0               8       0                               0D    204
     126     224                                                00010000D    205
     126       0               2       0                               0D    206
     126     226                                                00010000D    207
     126       0               2       0                               0D    208
     126     228                                                00010000D    209
     126       0               2       0                               0D    210
     126     230                                                00010000D    211
     126       0               3       0                               0D    212
     126     233                                                00010000D    213
     126       0               8       0                               0D    214
     126     241                                                00010000D    215
     126       0               3       0                               0D    216
     126     244                                                00010000D    217
     126       0               4       0                               0D    218
     126     248                                                00010000D    219
     126       0              10       0                               0D    220
     126     258                                                00010000D    221
     126       0               3       0                               0D    222
     126     261                                                00010000D    223
     126       0               2       0                               0D    224
     126     263                                                00010000D    225
     126       0               2       0                               0D    226
     126     265                                                00010000D    227
     126       0               2       0                               0D    228
     128     267                                                00010000D    229
     128       0    -279       3       0                               0D    230
     128     270                                                00010000D    231
     128       0    -279       3       0                               0D    232
     128     273                                                00010000D    233
     128       0    -279       3       0                               0D    234
     128     276                                                00010000D    235
     128       0    -279       3       0                               0D    236
     128     279                                                00010000D    237
     128       0    -279       3       0                               0D    238
     128     282                                                00010000D    239
     128       0    -279       4       0                               0D    240
     128     286                                                00010000D    241
     128       0    -279       4       0                               0D    242
     128     290                                                00010000D    243
     128       0    -279       3       0                               0D    244
     128     293                                                00010000D    245
     128       0    -279       7       0                               0D    246
     128     300                                                00010000D    247
     128       0    -279       3       0                               0D    248
     128     303                                                00010000D    249
     128       0    -279       4       0                               0D    250
     128     307                                                00010000D    251
     128       0    -279       3       0                               0D    252
     128     310                                                00010000D    253
     128       0    -279       3       0                               0D    254
     128     313                                                00010000D    255
     128       0    -279       3       0                               0D    256
     128     316                                                00010000D    257
     128       0    -279      13       0                               0D    258
     128     329                                                00010000D    259
     128       0    -279      13       0                               0D    260
     128     342                                                00010000D    261
     128       0    -279      18       0                               0D    262
     128     360                                                00010000D    263
     128       0    -279      17       0                               0D    264
     128     377                                                00010000D    265
     128       0    -279      12       0                               0D    266
     128     389                                                00010000D    267
     128       0    -279      12       0                               0D    268
     128     401                                                00010000D    269
     128       0    -279       3       0                               0D    270
     128     404                                                00010000D    271
     128       0    -279       3       0                               0D    272
     502     407                                                00010000D    273
     502                       9       1                               0D    274
     504     416                                                00010001D    275
     504                      17       1                               0D    276
     406     433                                                00000000D    277
     406                       1      15                               0D    278
     314     434                                                00000200D    279
     314                       2       0                               0D    280
186,3,1,0,0,1,277;                                                     1P      1
514,22,5,1,7,1,9,1,11,1,13,1,15,1,17,1,19,1,21,1,23,1,25,1,27,1,       3P      2
29,1,31,1,33,1,35,1,37,1,39,1,41,1,43,1,45,1,47,1;                     3P      3
510,229,1,1,49;                                                        5P      4
510,231,1,1,51;                                                        7P      5
510,233,1,1,53;                                                        9P      6
510,235,1,1,55;                                                       11P      7
510,237,6,1,57,59,61,63,65,67;                                        13P      8
510,239,1,1,69;                                                       15P      9
510,241,1,1,71;                                                       17P     10
510,243,1,1,73;                                                       19P     11
510,245,1,1,75;                                                       21P     12
510,247,1,1,77;                                                       23P     13
510,249,1,1,79;                                                       25P     14
510,251,4,1,81,83,85,87;                                              27P     15
510,253,1,1,89;                                                       29P     16
510,255,1,1,91;                                                       31P     17
510,257,1,1,93;                                                       33P     18
510,259,1,1,95;                                                       35P     19
510,261,1,1,97;                                                       37P     20
510,263,1,1,99;                                                       39P     21
510,265,1,1,101;                                                      41P     22
510,267,1,1,103;                                                      43P     23
510,269,1,1,105;                                                      45P     24
510,271,1,1,107;                                                      47P     25
508,4,0,275,1,0,0,0,275,2,0,0,0,275,3,0,0,0,275,4,1,0;                49P     26
508,4,0,275,5,0,0,0,275,4,0,0,0,275,6,0,0,0,275,7,1,0;                51P     27
508,4,0,275,8,0,0,0,275,7,0,0,0,275,9,0,0,0,275,10,1,0;               53P     28
508,4,0,275,11,0,0,0,275,10,0,0,0,275,12,0,0,0,275,2,1,0;             55P     29
508,4,0,275,13,1,0,0,275,14,1,0,0,275,15,0,0,0,275,16,0,0;            57P     30
508,4,0,275,9,1,0,0,275,6,1,0,0,275,3,1,0,0,275,12,1,0;               59P     31
508,1,0,275,17,1,0;                                                   61P     32
508,1,0,275,18,1,0;                                                   63P     33
508,1,0,275,19,1,0;                                                   65P     34
508,1,0,275,20,1,0;                                                   67P     35
508,4,0,275,21,0,0,0,275,22,0,0,0,275,23,0,0,0,275,24,0,0;            69P     36
508,4,0,275,25,0,0,0,275,26,0,0,0,275,27,0,0,0,275,28,0,0;            71P     37
508,4,0,275,27,1,0,0,275,29,0,0,0,275,30,0,0,0,275,31,1,0;            73P     38
508,4,0,275,25,1,0,0,275,32,0,0,0,275,21,1,0,0,275,33,0,0;            75P     39
508,6,0,275,28,1,0,0,275,31,0,0,0,275,34,0,0,0,275,35,1,0,0,275,      77P     40
22,1,0,0,275,32,1,0;                                                  77P     41
508,4,0,275,23,1,0,0,275,35,0,0,0,275,36,0,0,0,275,37,1,0;            79P     42
508,12,0,275,36,1,0,0,275,34,1,0,0,275,30,1,0,0,275,38,1,0,0,         81P     43
275,39,0,0,0,275,40,0,0,0,275,41,0,0,0,275,42,0,0,0,275,43,0,0,       81P     44
0,275,44,0,0,0,275,45,1,0,0,275,46,1,0;                               81P     45
508,4,0,275,8,1,0,0,275,11,1,0,0,275,1,1,0,0,275,5,1,0;               83P     46
508,1,0,275,47,1,0;                                                   85P     47
508,1,0,275,48,1,0;                                                   87P     48
508,4,0,275,49,0,0,0,275,45,0,0,0,275,50,0,0,0,275,13,0,0;            89P     49
508,10,0,275,24,1,0,0,275,37,0,0,0,275,46,0,0,0,275,49,1,0,0,         91P     50
275,16,1,0,0,275,51,0,0,0,275,38,0,0,0,275,29,1,0,0,275,26,1,0,       91P     51
0,275,33,1,0;                                                         91P     52
508,4,0,275,40,1,0,0,275,52,1,0,0,275,53,1,0,0,275,52,0,0;            93P     53
508,4,0,275,53,0,0,0,275,54,1,0,0,275,19,0,0,0,275,54,0,0;            95P     54
508,4,0,275,42,1,0,0,275,55,1,0,0,275,56,1,0,0,275,55,0,0;            97P     55
508,4,0,275,56,0,0,0,275,57,1,0,0,275,20,0,0,0,275,57,0,0;            99P     56
508,4,0,275,47,0,0,0,275,58,1,0,0,275,18,0,0,0,275,58,0,0;           101P     57
508,4,0,275,48,0,0,0,275,59,1,0,0,275,17,0,0,0,275,59,0,0;           103P     58
508,4,0,275,50,1,0,0,275,44,1,0,0,275,60,0,0,0,275,14,0,0;           105P     59
508,6,0,275,51,1,0,0,275,15,1,0,0,275,60,1,0,0,275,43,1,0,0,275,     107P     60
41,1,0,0,275,39,1,0;                                                 107P     61
126,1,1,0,0,1,0,-1.1332,-1.1332,2.8668,2.8668,1.,1.,89.836,5.,       109P     62
28.,129.836,5.,28.,-1.1332,2.8668,0.,0.,0.;                          109P     63
126,1,1,0,0,1,0,0.,0.,0.5,0.5,1.,1.,89.836,0.,28.,89.836,5.,28.,     111P     64
0.,0.5,0.,0.,0.;                                                     111P     65
126,1,1,0,0,1,0,-2.8668,-2.8668,1.1332,1.1332,1.,1.,129.836,0.,      113P     66
28.,89.836,0.,28.,-2.8668,1.1332,0.,0.,0.;                           113P     67
126,1,1,0,0,1,0,0.,0.,0.5,0.5,1.,1.,129.836,0.,28.,129.836,5.,       115P     68
28.,0.,0.5,0.,0.,0.;                                                 115P     69
126,1,1,0,0,1,0,0.7,0.7,2.1,2.1,1.,1.,129.836,5.,28.,129.836,5.,     117P     70
42.,0.7,2.1,0.,0.,0.;                                                117P     71
126,1,1,0,0,1,0,1.4,1.4,2.8,2.8,1.,1.,129.836,0.,42.,129.836,0.,     119P     72
28.,1.4,2.8,0.,0.,0.;                                                119P     73
126,1,1,0,0,1,0,0.,0.,0.5,0.5,1.,1.,129.836,0.,42.,129.836,5.,       121P     74
42.,0.,0.5,0.,0.,0.;                                                 121P     75
126,1,1,0,0,1,0,-4.8668,-4.8668,-0.8668,-0.8668,1.,1.,129.836,       123P     76
5.,42.,89.836,5.,42.,-4.8668,-0.8668,0.,0.,0.;                       123P     77
126,1,1,0,0,1,0,0.8668,0.8668,4.8668,4.8668,1.,1.,89.836,0.,42.,     125P     78
129.836,0.,42.,0.8668,4.8668,0.,0.,0.;                               125P     79
126,1,1,0,0,1,0,0.,0.,0.5,0.5,1.,1.,89.836,0.,42.,89.836,5.,42.,     127P     80
0.,0.5,0.,0.,0.;                                                     127P     81
126,1,1,0,0,1,0,-2.8,-2.8,-1.4,-1.4,1.,1.,89.836,5.,42.,89.836,      129P     82
5.,28.,-2.8,-1.4,0.,0.,0.;                                           129P     83
126,1,1,0,0,1,0,-2.1,-2.1,-0.7,-0.7,1.,1.,89.836,0.,28.,89.836,      131P     84
0.,42.,-2.1,-0.7,0.,0.,0.;                                           131P     85
126,1,1,0,0,1,0,-1.75,-1.75,5.25,5.25,1.,1.,73.5,0.,70.,73.5,0.,     133P     86
0.,-1.75,5.25,0.,0.,0.;                                              133P     87
126,1,1,0,0,1,0,0.0999999999999996,0.0999999999999996,7.25,7.25,     135P     88
1.,1.,73.5,0.,0.,145.,0.,0.,0.0999999999999996,7.25,0.,0.,0.;        135P     89
126,1,1,0,0,1,0,0.,0.,7.,7.,1.,1.,145.,0.,70.,145.,0.,0.,0.,7.,      137P     90
0.,0.,0.;                                                            137P     91
126,1,1,0,0,1,0,0.0999999999999996,0.0999999999999996,7.25,7.25,     139P     92
1.,1.,73.5,0.,70.,145.,0.,70.,0.0999999999999996,7.25,0.,0.,0.;      139P     93
126,8,2,0,1,0,0,-3.14159265358979,-3.14159265358979,                 141P     94
-3.14159265358979,-1.5707963267949,-1.5707963267949,0.,0.,           141P     95
1.5707963267949,1.5707963267949,3.14159265358979,                    141P     96
3.14159265358979,3.14159265358979,1.,0.707106781186538,1.,           141P     97
0.707106781186555,1.,0.707106781186555,1.,0.707106781186538,1.,      141P     98
82.,0.,8.,82.,0.,6.5,80.5,0.,6.5,79.,0.,6.5,79.,0.,8.,79.,0.,        141P     99
9.5,80.5,0.,9.5,82.,0.,9.5,82.,0.,8.,-3.14159265358979,              141P    100
3.14159265358979,0.,0.,0.;                                           141P    101
126,8,2,0,1,0,0,-3.14159265358979,-3.14159265358979,                 143P    102
-3.14159265358979,-1.5707963267949,-1.5707963267949,0.,0.,           143P    103
1.5707963267949,1.5707963267949,3.14159265358979,                    143P    104
3.14159265358979,3.14159265358979,1.,0.707106781186547,1.,           143P    105
0.707106781186564,1.,0.707106781186564,1.,0.707106781186547,1.,      143P    106
82.,0.,62.,82.,0.,60.5,80.5,0.,60.5,79.,0.,60.5,79.,0.,62.,79.,      143P    107
0.,63.5,80.5,0.,63.5,82.,0.,63.5,82.,0.,62.,-3.14159265358979,       143P    108
3.14159265358979,0.,0.,0.;                                           143P    109
126,8,2,0,1,0,0,-3.14159265358979,-3.14159265358979,                 145P    110
-3.14159265358979,-1.5707963267949,-1.5707963267949,0.,0.,           145P    111
1.5707963267949,1.5707963267949,3.14159265358979,                    145P    112
3.14159265358979,3.14159265358979,1.,0.707106781186556,1.,           145P    113
0.707106781186556,1.,0.707106781186556,1.,0.707106781186556,1.,      145P    114
143.,0.,65.,143.,0.,63.,141.,0.,63.,139.,0.,63.,139.,0.,65.,         145P    115
139.,0.,67.,141.,0.,67.,143.,0.,67.,143.,0.,65.,                     145P    116
-3.14159265358979,3.14159265358979,0.,0.,0.;                         145P    117
126,8,2,0,1,0,0,-3.14159265358979,-3.14159265358979,                 147P    118
-3.14159265358979,-1.5707963267949,-1.5707963267949,0.,0.,           147P    119
1.5707963267949,1.5707963267949,3.14159265358979,                    147P    120
3.14159265358979,3.14159265358979,1.,0.707106781186551,1.,           147P    121
0.707106781186551,1.,0.707106781186551,1.,0.707106781186551,1.,      147P    122
143.,0.,5.00000007450581,143.,0.,3.00000007450581,141.,0.,           147P    123
3.00000007450581,139.,0.,3.00000007450581,139.,0.,                   147P    124
5.00000007450581,139.,0.,7.0000000745058,141.,0.,                    147P    125
7.0000000745058,143.,0.,7.0000000745058,143.,0.,                     147P    126
5.00000007450581,-3.14159265358979,3.14159265358979,0.,0.,0.;        147P    127
126,1,1,0,0,1,0,0.,0.,0.6,0.6,1.,1.,121.,12.5,64.,121.,12.5,70.,     149P    128
0.,0.6,0.,0.,0.;                                                     149P    129
126,1,1,0,0,1,0,-2.4,-2.4,-0.700000000000003,-0.700000000000003,     151P    130
1.,1.,104.,12.5,64.,121.,12.5,64.,-2.4,-0.700000000000003,0.,0.,     151P    131
0.;                                                                  151P    132
126,1,1,0,0,1,0,-0.0749999999999993,-0.0749999999999993,0.525,       153P    133
0.525,1.,1.,104.,12.5,70.,104.,12.5,64.,-0.0749999999999993,         153P    134
0.525,0.,0.,0.;                                                      153P    135
126,1,1,0,0,1,0,-2.475,-2.475,-0.774999999999999,                    155P    136
-0.774999999999999,1.,1.,121.,12.5,70.,104.,12.5,70.,-2.475,         155P    137
-0.774999999999999,0.,0.,0.;                                         155P    138
126,1,1,0,0,1,0,-0.6,-0.6,0.,0.,1.,1.,129.,12.5,70.,129.,12.5,       157P    139
64.,-0.6,0.,0.,0.,0.;                                                157P    140
126,1,1,0,0,1,0,-3.975,-3.975,-3.275,-3.275,1.,1.,136.,12.5,70.,     159P    141
129.,12.5,70.,-3.975,-3.275,0.,0.,0.;                                159P    142
126,1,1,0,0,1,0,-0.574999999999999,-0.574999999999999,               161P    143
0.0250000000000004,0.0250000000000004,1.,1.,136.,12.5,64.,136.,      161P    144
12.5,70.,-0.574999999999999,0.0250000000000004,0.,0.,0.;             161P    145
126,1,1,0,0,1,0,0.0999999999999979,0.0999999999999979,               163P    146
0.799999999999999,0.799999999999999,1.,1.,129.,12.5,64.,136.,        163P    147
12.5,64.,0.0999999999999979,0.799999999999999,0.,0.,0.;              163P    148
126,1,1,0,0,1,0,0.,0.,0.75,0.75,1.,1.,136.,5.,70.,136.,12.5,70.,     165P    149
0.,0.75,0.,0.,0.;                                                    165P    150
126,1,1,0,0,1,0,2.95,2.95,3.55,3.55,1.,1.,136.,5.,64.,136.,5.,       167P    151
70.,2.95,3.55,0.,0.,0.;                                              167P    152
126,1,1,0,0,1,0,-0.9,-0.9,-0.15,-0.15,1.,1.,136.,5.,64.,136.,        169P    153
12.5,64.,-0.9,-0.15,0.,0.,0.;                                        169P    154
126,4,2,0,0,0,0,0.,0.,0.,1.5707963267949,1.5707963267949,            171P    155
3.14159265358979,3.14159265358979,3.14159265358979,1.,               171P    156
0.707106781186541,1.,0.707106781186542,1.,121.,12.5,64.,121.,        171P    157
8.5,64.,125.,8.5,64.,129.,8.5,64.,129.,12.5,64.,0.,                  171P    158
3.14159265358979,0.,0.,0.;                                           171P    159
126,4,2,0,0,0,0,-3.14159265358979,-3.14159265358979,                 173P    160
-3.14159265358979,-1.5707963267949,-1.5707963267949,0.,0.,0.,1.,     173P    161
0.707106781186542,1.,0.707106781186541,1.,129.,12.5,70.,129.,        173P    162
8.5,70.,125.,8.5,70.,121.,8.5,70.,121.,12.5,70.,                     173P    163
-3.14159265358979,0.,0.,0.,0.;                                       173P    164
126,1,1,0,0,1,0,-0.0250000000000021,-0.0250000000000021,3.175,       175P    165
3.175,1.,1.,104.,5.,64.,136.,5.,64.,-0.0250000000000021,3.175,       175P    166
0.,0.,0.;                                                            175P    167
126,1,1,0,0,1,0,0.,0.,0.75,0.75,1.,1.,104.,5.,64.,104.,12.5,64.,     177P    168
0.,0.75,0.,0.,0.;                                                    177P    169
126,1,1,0,0,1,0,-3.55,-3.55,-2.95,-2.95,1.,1.,104.,5.,70.,104.,      179P    170
5.,64.,-3.55,-2.95,0.,0.,0.;                                         179P    171
126,1,1,0,0,1,0,0.,0.,0.75,0.75,1.,1.,104.,5.,70.,104.,12.5,70.,     181P    172
0.,0.75,0.,0.,0.;                                                    181P    173
126,1,1,0,0,1,0,6.35,6.35,7.25,7.25,1.,1.,136.,5.,70.,145.,5.,       183P    174
70.,6.35,7.25,0.,0.,0.;                                              183P    175
126,1,1,0,0,1,0,6.5,6.5,7.,7.,1.,1.,145.,5.,65.,145.,5.,70.,6.5,     185P    176
7.,0.,0.,0.;                                                         185P    177
126,8,2,0,1,0,0,-3.14159265358979,-3.14159265358979,                 187P    178
-3.14159265358979,-1.5707963267949,-1.5707963267949,0.,0.,           187P    179
1.5707963267949,1.5707963267949,3.14159265358979,                    187P    180
3.14159265358979,3.14159265358979,1.,0.707106781186542,1.,           187P    181
0.707106781186542,1.,0.707106781186542,1.,0.707106781186542,1.,      187P    182
145.,5.,65.,145.,5.,61.,141.,5.,61.,137.,5.,61.,137.,5.,65.,         187P    183
137.,5.,69.,141.,5.,69.,145.,5.,69.,145.,5.,65.,                     187P    184
-3.14159265358979,3.14159265358979,0.,0.,0.;                         187P    185
126,1,1,0,0,1,0,0.500000007450581,0.500000007450581,6.5,6.5,1.,      189P    186
1.,145.,5.,5.00000007450581,145.,5.,65.,0.500000007450581,6.5,       189P    187
0.,0.,0.;                                                            189P    188
126,8,2,0,1,0,0,-3.14159265358979,-3.14159265358979,                 191P    189
-3.14159265358979,-1.5707963267949,-1.5707963267949,0.,0.,           191P    190
1.5707963267949,1.5707963267949,3.14159265358979,                    191P    191
3.14159265358979,3.14159265358979,1.,0.707106781186551,1.,           191P    192
0.707106781186551,1.,0.707106781186551,1.,0.707106781186551,1.,      191P    193
145.,5.,5.00000007450581,145.,5.,1.00000007450582,141.,5.,           191P    194
1.00000007450582,137.,5.,1.00000007450582,137.,5.,                   191P    195
5.00000007450581,137.,5.,9.00000007450579,141.,5.,                   191P    196
9.00000007450579,145.,5.,9.00000007450579,145.,5.,                   191P    197
5.00000007450581,-3.14159265358979,3.14159265358979,0.,0.,0.;        191P    198
126,1,1,0,0,1,0,0.,0.,0.500000007450581,0.500000007450581,1.,1.,     193P    199
145.,5.,0.,145.,5.,5.00000007450581,0.,0.500000007450581,0.,0.,      193P    200
0.;                                                                  193P    201
126,1,1,0,0,1,0,0.0999999999999996,0.0999999999999996,7.25,7.25,     195P    202
1.,1.,73.5,5.,0.,145.,5.,0.,0.0999999999999996,7.25,0.,0.,0.;        195P    203
126,1,1,0,0,1,0,-1.75,-1.75,5.25,5.25,1.,1.,73.5,5.,0.,73.5,5.,      197P    204
70.,-1.75,5.25,0.,0.,0.;                                             197P    205
126,1,1,0,0,1,0,0.0999999999999996,0.0999999999999996,3.15,3.15,     199P    206
1.,1.,73.5,5.,70.,104.,5.,70.,0.0999999999999996,3.15,0.,0.,0.;      199P    207
126,8,2,0,1,0,0,-3.14159265358979,-3.14159265358979,                 201P    208
-3.14159265358979,-1.5707963267949,-1.5707963267949,0.,0.,           201P    209
1.5707963267949,1.5707963267949,3.14159265358979,                    201P    210
3.14159265358979,3.14159265358979,1.,0.707106781186547,1.,           201P    211
0.707106781186564,1.,0.707106781186564,1.,0.707106781186547,1.,      201P    212
82.,5.,62.,82.,5.,63.5,80.5,5.,63.5,79.,5.,63.5,79.,5.,62.,79.,      201P    213
5.,60.5,80.5,5.,60.5,82.,5.,60.5,82.,5.,62.,-3.14159265358979,       201P    214
3.14159265358979,0.,0.,0.;                                           201P    215
126,8,2,0,1,0,0,-3.14159265358979,-3.14159265358979,                 203P    216
-3.14159265358979,-1.5707963267949,-1.5707963267949,0.,0.,           203P    217
1.5707963267949,1.5707963267949,3.14159265358979,                    203P    218
3.14159265358979,3.14159265358979,1.,0.707106781186538,1.,           203P    219
0.707106781186555,1.,0.707106781186555,1.,0.707106781186538,1.,      203P    220
82.,5.,8.,82.,5.,9.5,80.5,5.,9.5,79.,5.,9.5,79.,5.,8.,79.,5.,        203P    221
6.5,80.5,5.,6.5,82.,5.,6.5,82.,5.,8.,-3.14159265358979,              203P    222
3.14159265358979,0.,0.,0.;                                           203P    223
126,1,1,0,0,1,0,-0.125,-0.125,0.375,0.375,1.,1.,73.5,5.,70.,         205P    224
73.5,0.,70.,-0.125,0.375,0.,0.,0.;                                   205P    225
126,1,1,0,0,1,0,-0.125,-0.125,0.375,0.375,1.,1.,73.5,0.,0.,73.5,     207P    226
5.,0.,-0.125,0.375,0.,0.,0.;                                         207P    227
126,1,1,0,0,1,0,0.,0.,0.5,0.5,1.,1.,145.,5.,70.,145.,0.,70.,0.,      209P    228
0.5,0.,0.,0.;                                                        209P    229
126,1,1,0,0,1,0,-0.47140452079103,-0.47140452079103,                 211P    230
0.47140452079103,0.47140452079103,1.,1.,145.,5.,65.,143.,3.,65.,     211P    231
-0.47140452079103,0.47140452079103,0.,0.,0.;                         211P    232
126,8,2,0,1,0,0,-3.14159265358979,-3.14159265358979,                 213P    233
-3.14159265358979,-1.5707963267949,-1.5707963267949,0.,0.,           213P    234
1.5707963267949,1.5707963267949,3.14159265358979,                    213P    235
3.14159265358979,3.14159265358979,1.,0.707106781186556,1.,           213P    236
0.707106781186556,1.,0.707106781186556,1.,0.707106781186556,1.,      213P    237
143.,3.,65.,143.,3.,67.,141.,3.,67.,139.,3.,67.,139.,3.,65.,         213P    238
139.,3.,63.,141.,3.,63.,143.,3.,63.,143.,3.,65.,                     213P    239
-3.14159265358979,3.14159265358979,0.,0.,0.;                         213P    240
126,1,1,0,0,1,0,0.999999999999995,0.999999999999995,                 215P    241
2.49999999999999,2.49999999999999,1.,1.,143.,3.,65.,143.,0.,65.,     215P    242
0.999999999999995,2.49999999999999,0.,0.,0.;                         215P    243
126,1,1,0,0,1,0,-0.471404520791033,-0.471404520791033,               217P    244
0.471404520791033,0.471404520791033,1.,1.,145.,5.,                   217P    245
5.00000007450581,143.,3.,5.00000007450581,-0.471404520791033,        217P    246
0.471404520791033,0.,0.,0.;                                          217P    247
126,8,2,0,1,0,0,-3.14159265358979,-3.14159265358979,                 219P    248
-3.14159265358979,-1.5707963267949,-1.5707963267949,0.,0.,           219P    249
1.5707963267949,1.5707963267949,3.14159265358979,                    219P    250
3.14159265358979,3.14159265358979,1.,0.707106781186551,1.,           219P    251
0.707106781186551,1.,0.707106781186551,1.,0.707106781186551,1.,      219P    252
143.,3.,5.00000007450581,143.,3.,7.0000000745058,141.,3.,            219P    253
7.0000000745058,139.,3.,7.0000000745058,139.,3.,                     219P    254
5.00000007450581,139.,3.,3.00000007450581,141.,3.,                   219P    255
3.00000007450581,143.,3.,3.00000007450581,143.,3.,                   219P    256
5.00000007450581,-3.14159265358979,3.14159265358979,0.,0.,0.;        219P    257
126,1,1,0,0,1,0,1.,1.,2.50000000000001,2.50000000000001,1.,1.,       221P    258
143.,3.,5.00000007450581,143.,0.,5.00000007450581,1.,                221P    259
2.50000000000001,0.,0.,0.;                                           221P    260
126,1,1,0,0,1,0,0.,0.,3.33333333333333,3.33333333333333,1.,1.,       223P    261
82.,5.,62.,82.,0.,62.,0.,3.33333333333333,0.,0.,0.;                  223P    262
126,1,1,0,0,1,0,0.,0.,3.33333333333333,3.33333333333333,1.,1.,       225P    263
82.,5.,8.,82.,0.,8.,0.,3.33333333333333,0.,0.,0.;                    225P    264
126,1,1,0,0,1,0,0.,0.,0.5,0.5,1.,1.,145.,0.,0.,145.,5.,0.,0.,        227P    265
0.5,0.,0.,0.;                                                        227P    266
128,1,1,1,1,0,0,1,0,0,0.,0.,4.,4.,0.,0.,0.5,0.5,1.,1.,1.,1.,         229P    267
89.836,0.,28.,129.836,0.,28.,89.836,5.,28.,129.836,5.,28.,0.,4.,     229P    268
0.,0.5;                                                              229P    269
128,1,1,1,1,0,0,1,0,0,0.,0.,1.4,1.4,0.,0.,0.5,0.5,1.,1.,1.,1.,       231P    270
129.836,0.,28.,129.836,0.,42.,129.836,5.,28.,129.836,5.,42.,0.,      231P    271
1.4,0.,0.5;                                                          231P    272
128,1,1,1,1,0,0,1,0,0,0.,0.,4.,4.,0.,0.,0.5,0.5,1.,1.,1.,1.,         233P    273
129.836,0.,42.,89.836,0.,42.,129.836,5.,42.,89.836,5.,42.,0.,4.,     233P    274
0.,0.5;                                                              233P    275
128,1,1,1,1,0,0,1,0,0,0.,0.,1.4,1.4,0.,0.,0.5,0.5,1.,1.,1.,1.,       235P    276
89.836,0.,42.,89.836,0.,28.,89.836,5.,42.,89.836,5.,28.,0.,1.4,      235P    277
0.,0.5;                                                              235P    278
128,1,1,1,1,0,0,1,0,0,0.,0.,7.,7.,0.0999999999999996,                237P    279
0.0999999999999996,7.25,7.25,1.,1.,1.,1.,73.5,0.,70.,73.5,0.,0.,     237P    280
145.,0.,70.,145.,0.,0.,0.,7.,0.0999999999999996,7.25;                237P    281
128,1,1,1,1,0,0,1,0,0,-0.0499999999999998,-0.0499999999999998,       239P    282
0.55,0.55,-1.6,-1.6,0.0999999999999979,0.0999999999999979,1.,1.,     239P    283
1.,1.,104.,12.5,64.,104.,12.5,70.,121.,12.5,64.,121.,12.5,70.,       239P    284
-0.0499999999999998,0.55,-1.6,0.0999999999999979;                    239P    285
128,1,1,1,1,0,0,1,0,0,-0.0499999999999998,-0.0499999999999998,       241P    286
0.55,0.55,0.899999999999999,0.899999999999999,1.6,1.6,1.,1.,1.,      241P    287
1.,129.,12.5,64.,129.,12.5,70.,136.,12.5,64.,136.,12.5,70.,          241P    288
-0.0499999999999998,0.55,0.899999999999999,1.6;                      241P    289
128,1,1,1,1,0,0,1,0,0,0.,0.,0.6,0.6,0.,0.,0.75,0.75,1.,1.,1.,1.,     243P    290
136.,5.,70.,136.,5.,64.,136.,12.5,70.,136.,12.5,64.,0.,0.6,0.,       243P    291
0.75;                                                                243P    292
128,1,4,1,2,0,0,0,0,0,0.,0.,1.5,1.5,0.,0.,0.,1.5707963267949,        245P    293
1.5707963267949,3.14159265358979,3.14159265358979,                   245P    294
3.14159265358979,1.,1.,0.707106781186548,0.707106781186548,1.,       245P    295
1.,0.707106781186548,0.707106781186548,1.,1.,121.,12.5,64.,121.,     245P    296
12.5,70.,121.,8.5,64.,121.,8.5,70.,125.,8.5,64.,125.,8.5,70.,        245P    297
129.,8.5,64.,129.,8.5,70.,129.,12.5,64.,129.,12.5,70.,0.,1.5,0.,     245P    298
3.14159265358979;                                                    245P    299
128,1,1,1,1,0,0,1,0,0,0.,0.,3.2,3.2,0.,0.,0.75,0.75,1.,1.,1.,1.,     247P    300
136.,5.,64.,104.,5.,64.,136.,12.5,64.,104.,12.5,64.,0.,3.2,0.,       247P    301
0.75;                                                                247P    302
128,1,1,1,1,0,0,1,0,0,-0.5,-0.5,0.0999999999999996,                  249P    303
0.0999999999999996,0.,0.,0.75,0.75,1.,1.,1.,1.,104.,5.,64.,104.,     249P    304
5.,70.,104.,12.5,64.,104.,12.5,70.,-0.5,0.0999999999999996,0.,       249P    305
0.75;                                                                249P    306
128,1,1,1,1,0,0,1,0,0,0.,0.,7.,7.,0.0999999999999996,                251P    307
0.0999999999999996,7.25,7.25,1.,1.,1.,1.,73.5,5.,0.,73.5,5.,70.,     251P    308
145.,5.,0.,145.,5.,70.,0.,7.,0.0999999999999996,7.25;                251P    309
128,1,1,1,1,0,0,1,0,0,-3.5,-3.5,3.5,3.5,-0.25,-0.25,0.25,0.25,       253P    310
1.,1.,1.,1.,73.5,0.,0.,73.5,0.,70.,73.5,5.,0.,73.5,5.,70.,-3.5,      253P    311
3.5,-0.25,0.25;                                                      253P    312
128,1,1,1,1,0,0,1,0,0,-0.75,-0.75,0.5,0.5,0.0999999999999996,        255P    313
0.0999999999999996,7.25,7.25,1.,1.,1.,1.,73.5,12.5,70.,73.5,0.,      255P    314
70.,145.,12.5,70.,145.,0.,70.,-0.75,0.5,0.0999999999999996,7.25;     255P    315
128,1,8,1,2,0,1,0,0,1,-0.47140452079103,-0.47140452079103,           257P    316
0.47140452079103,0.47140452079103,-3.14159265358979,                 257P    317
-3.14159265358979,-3.14159265358979,-1.5707963267949,                257P    318
-1.5707963267949,0.,0.,1.5707963267949,1.5707963267949,              257P    319
3.14159265358979,3.14159265358979,3.14159265358979,1.,1.,            257P    320
0.707106781186548,0.707106781186548,1.,1.,0.707106781186548,         257P    321
0.707106781186548,1.,1.,0.707106781186548,0.707106781186548,1.,      257P    322
1.,0.707106781186548,0.707106781186548,1.,1.,143.,3.,65.,145.,       257P    323
5.,65.,143.,3.,63.,145.,5.,61.,141.,3.,63.,141.,5.,61.,139.,3.,      257P    324
63.,137.,5.,61.,139.,3.,65.,137.,5.,65.,139.,3.,67.,137.,5.,69.,     257P    325
141.,3.,67.,141.,5.,69.,143.,3.,67.,145.,5.,69.,143.,3.,65.,         257P    326
145.,5.,65.,-0.47140452079103,0.47140452079103,                      257P    327
-3.14159265358979,3.14159265358979;                                  257P    328
128,1,8,1,2,0,1,0,0,1,0.999999999999995,0.999999999999995,           259P    329
2.49999999999999,2.49999999999999,-3.14159265358979,                 259P    330
-3.14159265358979,-3.14159265358979,-1.5707963267949,                259P    331
-1.5707963267949,0.,0.,1.5707963267949,1.5707963267949,              259P    332
3.14159265358979,3.14159265358979,3.14159265358979,1.,1.,            259P    333
0.707106781186548,0.707106781186548,1.,1.,0.707106781186548,         259P    334
0.707106781186548,1.,1.,0.707106781186548,0.707106781186548,1.,      259P    335
1.,0.707106781186548,0.707106781186548,1.,1.,143.,3.,65.,143.,       259P    336
0.,65.,143.,3.,67.,143.,0.,67.,141.,3.,67.,141.,0.,67.,139.,3.,      259P    337
67.,139.,0.,67.,139.,3.,65.,139.,0.,65.,139.,3.,63.,139.,0.,63.,     259P    338
141.,3.,63.,141.,0.,63.,143.,3.,63.,143.,0.,63.,143.,3.,65.,         259P    339
143.,0.,65.,0.999999999999995,2.49999999999999,                      259P    340
-3.14159265358979,3.14159265358979;                                  259P    341
128,1,8,1,2,0,1,0,0,1,-0.471404520791033,-0.471404520791033,         261P    342
0.471404520791033,0.471404520791033,-3.14159265358979,               261P    343
-3.14159265358979,-3.14159265358979,-1.5707963267949,                261P    344
-1.5707963267949,0.,0.,1.5707963267949,1.5707963267949,              261P    345
3.14159265358979,3.14159265358979,3.14159265358979,1.,1.,            261P    346
0.707106781186548,0.707106781186548,1.,1.,0.707106781186548,         261P    347
0.707106781186548,1.,1.,0.707106781186548,0.707106781186548,1.,      261P    348
1.,0.707106781186548,0.707106781186548,1.,1.,143.,3.,                261P    349
5.00000007450581,145.,5.,5.00000007450581,143.,3.,                   261P    350
3.00000007450581,145.,5.,1.00000007450582,141.,3.,                   261P    351
3.00000007450581,141.,5.,1.00000007450582,139.,3.,                   261P    352
3.00000007450581,137.,5.,1.00000007450582,139.,3.,                   261P    353
5.00000007450581,137.,5.,5.00000007450581,139.,3.,                   261P    354
7.0000000745058,137.,5.,9.00000007450579,141.,3.,                    261P    355
7.0000000745058,141.,5.,9.00000007450579,143.,3.,                    261P    356
7.0000000745058,145.,5.,9.00000007450579,143.,3.,                    261P    357
5.00000007450581,145.,5.,5.00000007450581,-0.471404520791033,        261P    358
0.471404520791033,-3.14159265358979,3.14159265358979;                261P    359
128,1,8,1,2,0,1,0,0,1,1.,1.,2.50000000000001,2.50000000000001,       263P    360
-3.14159265358979,-3.14159265358979,-3.14159265358979,               263P    361
-1.5707963267949,-1.5707963267949,0.,0.,1.5707963267949,             263P    362
1.5707963267949,3.14159265358979,3.14159265358979,                   263P    363
3.14159265358979,1.,1.,0.707106781186548,0.707106781186548,1.,       263P    364
1.,0.707106781186548,0.707106781186548,1.,1.,0.707106781186548,      263P    365
0.707106781186548,1.,1.,0.707106781186548,0.707106781186548,1.,      263P    366
1.,143.,3.,5.00000007450581,143.,0.,5.00000007450581,143.,3.,        263P    367
7.0000000745058,143.,0.,7.0000000745058,141.,3.,7.0000000745058,     263P    368
141.,0.,7.0000000745058,139.,3.,7.0000000745058,139.,0.,             263P    369
7.0000000745058,139.,3.,5.00000007450581,139.,0.,                    263P    370
5.00000007450581,139.,3.,3.00000007450581,139.,0.,                   263P    371
3.00000007450581,141.,3.,3.00000007450581,141.,0.,                   263P    372
3.00000007450581,143.,3.,3.00000007450581,143.,0.,                   263P    373
3.00000007450581,143.,3.,5.00000007450581,143.,0.,                   263P    374
5.00000007450581,1.,2.50000000000001,-3.14159265358979,              263P    375
3.14159265358979;                                                    263P    376
128,1,8,1,2,0,1,0,0,1,0.,0.,3.33333333333333,3.33333333333333,       265P    377
-3.14159265358979,-3.14159265358979,-3.14159265358979,               265P    378
-1.5707963267949,-1.5707963267949,0.,0.,1.5707963267949,             265P    379
1.5707963267949,3.14159265358979,3.14159265358979,                   265P    380
3.14159265358979,1.,1.,0.707106781186548,0.707106781186548,1.,       265P    381
1.,0.707106781186548,0.707106781186548,1.,1.,0.707106781186548,      265P    382
0.707106781186548,1.,1.,0.707106781186548,0.707106781186548,1.,      265P    383
1.,82.,5.,62.,82.,0.,62.,82.,5.,63.5,82.,0.,63.5,80.5,5.,63.5,       265P    384
80.5,0.,63.5,79.,5.,63.5,79.,0.,63.5,79.,5.,62.,79.,0.,62.,79.,      265P    385
5.,60.5,79.,0.,60.5,80.5,5.,60.5,80.5,0.,60.5,82.,5.,60.5,82.,       265P    386
0.,60.5,82.,5.,62.,82.,0.,62.,0.,3.33333333333333,                   265P    387
-3.14159265358979,3.14159265358979;                                  265P    388
128,1,8,1,2,0,1,0,0,1,0.,0.,3.33333333333333,3.33333333333333,       267P    389
-3.14159265358979,-3.14159265358979,-3.14159265358979,               267P    390
-1.5707963267949,-1.5707963267949,0.,0.,1.5707963267949,             267P    391
1.5707963267949,3.14159265358979,3.14159265358979,                   267P    392
3.14159265358979,1.,1.,0.707106781186548,0.707106781186548,1.,       267P    393
1.,0.707106781186548,0.707106781186548,1.,1.,0.707106781186548,      267P    394
0.707106781186548,1.,1.,0.707106781186548,0.707106781186548,1.,      267P    395
1.,82.,5.,8.,82.,0.,8.,82.,5.,9.5,82.,0.,9.5,80.5,5.,9.5,80.5,       267P    396
0.,9.5,79.,5.,9.5,79.,0.,9.5,79.,5.,8.,79.,0.,8.,79.,5.,6.5,79.,     267P    397
0.,6.5,80.5,5.,6.5,80.5,0.,6.5,82.,5.,6.5,82.,0.,6.5,82.,5.,8.,      267P    398
82.,0.,8.,0.,3.33333333333333,-3.14159265358979,                     267P    399
3.14159265358979;                                                    267P    400
128,1,1,1,1,0,0,1,0,0,0.,0.,0.5,0.5,0.0999999999999996,              269P    401
0.0999999999999996,7.25,7.25,1.,1.,1.,1.,73.5,0.,0.,73.5,5.,0.,      269P    402
145.,0.,0.,145.,5.,0.,0.,0.5,0.0999999999999996,7.25;                269P    403
128,1,1,1,1,0,0,1,0,0,-3.5,-3.5,3.5,3.5,-0.25,-0.25,0.25,0.25,       271P    404
1.,1.,1.,1.,145.,0.,70.,145.,0.,0.,145.,5.,70.,145.,5.,0.,-3.5,      271P    405
3.5,-0.25,0.25;                                                      271P    406
502,38,89.836,5.,28.,129.836,5.,28.,89.836,0.,28.,129.836,0.,        273P    407
28.,129.836,5.,42.,129.836,0.,42.,89.836,5.,42.,89.836,0.,42.,       273P    408
73.5,0.,70.,73.5,0.,0.,145.,0.,0.,145.,0.,70.,82.,0.,8.,82.,0.,      273P    409
62.,143.,0.,65.,143.,0.,5.00000007450581,121.,12.5,64.,121.,         273P    410
12.5,70.,104.,12.5,64.,104.,12.5,70.,129.,12.5,70.,129.,12.5,        273P    411
64.,136.,12.5,70.,136.,12.5,64.,136.,5.,70.,136.,5.,64.,104.,5.,     273P    412
64.,104.,5.,70.,145.,5.,70.,145.,5.,65.,145.,5.,                     273P    413
5.00000007450581,145.,5.,0.,73.5,5.,0.,73.5,5.,70.,82.,5.,62.,       273P    414
82.,5.,8.,143.,3.,65.,143.,3.,5.00000007450581;                      273P    415
504,60,109,273,1,273,2,111,273,3,273,1,113,273,4,273,3,115,273,      275P    416
4,273,2,117,273,2,273,5,119,273,6,273,4,121,273,6,273,5,123,273,     275P    417
5,273,7,125,273,8,273,6,127,273,8,273,7,129,273,7,273,1,131,273,     275P    418
3,273,8,133,273,9,273,10,135,273,10,273,11,137,273,12,273,11,        275P    419
139,273,9,273,12,141,273,13,273,13,143,273,14,273,14,145,273,15,     275P    420
273,15,147,273,16,273,16,149,273,17,273,18,151,273,19,273,17,        275P    421
153,273,20,273,19,155,273,18,273,20,157,273,21,273,22,159,273,       275P    422
23,273,21,161,273,24,273,23,163,273,22,273,24,165,273,25,273,23,     275P    423
167,273,26,273,25,169,273,26,273,24,171,273,17,273,22,173,273,       275P    424
21,273,18,175,273,27,273,26,177,273,27,273,19,179,273,28,273,27,     275P    425
181,273,28,273,20,183,273,25,273,29,185,273,30,273,29,187,273,       275P    426
30,273,30,189,273,31,273,30,191,273,31,273,31,193,273,32,273,31,     275P    427
195,273,33,273,32,197,273,33,273,34,199,273,34,273,28,201,273,       275P    428
35,273,35,203,273,36,273,36,205,273,34,273,9,207,273,10,273,33,      275P    429
209,273,29,273,12,211,273,30,273,37,213,273,37,273,37,215,273,       275P    430
37,273,15,217,273,31,273,38,219,273,38,273,38,221,273,38,273,16,     275P    431
223,273,35,273,14,225,273,36,273,13,227,273,11,273,32;               275P    432
406,1,5HBody1;                                                       277P    433
314,62.7450980392157,62.7450980392157,62.7450980392157,13HSteel      279P    434
- Satin;                                                             279P    435
S      1G      2D    280P    435                                        T      1
