                                                                        S      1
,,10HBackPanel3,10HBackPanel3,7Hunknown,7Hunknown,32,38,7,99,15,,1.,2,2HG      1
MM,1,0.08,15H20150605.172516,0.01,10000.,7Hunknown,7Hunknown,11,0,;     G      2
     186       1                                                00000000D      1
     186            -159       1       0                               0D      2
     514       2                                                00010000D      3
     514                       1       1                               0D      4
     510       3                                                00010000D      5
     510            -159       1       1                               0D      6
     510       4                                                00010000D      7
     510            -159       1       1                               0D      8
     510       5                                                00010000D      9
     510            -159       1       1                               0D     10
     510       6                                                00010000D     11
     510            -159       1       1                               0D     12
     510       7                                                00010000D     13
     510            -159       1       1                               0D     14
     510       8                                                00010000D     15
     510            -159       1       1                               0D     16
     510       9                                                00010000D     17
     510            -159       1       1                               0D     18
     510      10                                                00010000D     19
     510            -159       1       1                               0D     20
     510      11                                                00010000D     21
     510            -159       1       1                               0D     22
     510      12                                                00010000D     23
     510            -159       1       1                               0D     24
     510      13                                                00010000D     25
     510            -159       1       1                               0D     26
     510      14                                                00010000D     27
     510            -159       1       1                               0D     28
     508      15                                                00010000D     29
     508                       1       1                               0D     30
     508      16                                                00010000D     31
     508                       2       1                               0D     32
     508      18                                                00010000D     33
     508                       1       1                               0D     34
     508      19                                                00010000D     35
     508                       3       1                               0D     36
     508      22                                                00010000D     37
     508                       1       1                               0D     38
     508      23                                                00010000D     39
     508                       1       1                               0D     40
     508      24                                                00010000D     41
     508                       2       1                               0D     42
     508      26                                                00010000D     43
     508                       1       1                               0D     44
     508      27                                                00010000D     45
     508                       2       1                               0D     46
     508      29                                                00010000D     47
     508                       1       1                               0D     48
     508      30                                                00010000D     49
     508                       1       1                               0D     50
     508      31                                                00010000D     51
     508                       1       1                               0D     52
     508      32                                                00010000D     53
     508                       1       1                               0D     54
     508      33                                                00010000D     55
     508                       1       1                               0D     56
     508      34                                                00010000D     57
     508                       1       1                               0D     58
     508      35                                                00010000D     59
     508                       1       1                               0D     60
     508      36                                                00010000D     61
     508                       1       1                               0D     62
     508      37                                                00010000D     63
     508                       1       1                               0D     64
     126      38                                                00010000D     65
     126       0               2       0                               0D     66
     126      40                                                00010000D     67
     126       0               2       0                               0D     68
     126      42                                                00010000D     69
     126       0               2       0                               0D     70
     126      44                                                00010000D     71
     126       0               2       0                               0D     72
     126      46                                                00010000D     73
     126       0               2       0                               0D     74
     126      48                                                00010000D     75
     126       0               3       0                               0D     76
     126      51                                                00010000D     77
     126       0               3       0                               0D     78
     126      54                                                00010000D     79
     126       0               2       0                               0D     80
     126      56                                                00010000D     81
     126       0               2       0                               0D     82
     126      58                                                00010000D     83
     126       0               2       0                               0D     84
     126      60                                                00010000D     85
     126       0               2       0                               0D     86
     126      62                                                00010000D     87
     126       0               2       0                               0D     88
     126      64                                                00010000D     89
     126       0               2       0                               0D     90
     126      66                                                00010000D     91
     126       0               6       0                               0D     92
     126      72                                                00010000D     93
     126       0               7       0                               0D     94
     126      79                                                00010000D     95
     126       0               5       0                               0D     96
     126      84                                                00010000D     97
     126       0               6       0                               0D     98
     126      90                                                00010000D     99
     126       0               8       0                               0D    100
     126      98                                                00010000D    101
     126       0               8       0                               0D    102
     126     106                                                00010000D    103
     126       0               3       0                               0D    104
     126     109                                                00010000D    105
     126       0               8       0                               0D    106
     126     117                                                00010000D    107
     126       0               2       0                               0D    108
     126     119                                                00010000D    109
     126       0               8       0                               0D    110
     126     127                                                00010000D    111
     126       0               4       0                               0D    112
     126     131                                                00010000D    113
     126       0              10       0                               0D    114
     126     141                                                00010000D    115
     126       0               2       0                               0D    116
     126     143                                                00010000D    117
     126       0              10       0                               0D    118
     126     153                                                00010000D    119
     126       0               2       0                               0D    120
     126     155                                                00010000D    121
     126       0               8       0                               0D    122
     126     163                                                00010000D    123
     126       0               2       0                               0D    124
     126     165                                                00010000D    125
     126       0               8       0                               0D    126
     126     173                                                00010000D    127
     126       0               2       0                               0D    128
     128     175                                                00010000D    129
     128       0    -159       2       0                               0D    130
     128     177                                                00010000D    131
     128       0    -159       2       0                               0D    132
     128     179                                                00010000D    133
     128       0    -159       2       0                               0D    134
     128     181                                                00010000D    135
     128       0    -159       3       0                               0D    136
     128     184                                                00010000D    137
     128       0    -159      13       0                               0D    138
     128     197                                                00010000D    139
     128       0    -159      11       0                               0D    140
     128     208                                                00010000D    141
     128       0    -159      17       0                               0D    142
     128     225                                                00010000D    143
     128       0    -159      15       0                               0D    144
     128     240                                                00010000D    145
     128       0    -159      12       0                               0D    146
     128     252                                                00010000D    147
     128       0    -159      12       0                               0D    148
     128     264                                                00010000D    149
     128       0    -159       3       0                               0D    150
     128     267                                                00010000D    151
     128       0    -159       3       0                               0D    152
     502     270                                                00010000D    153
     502                       5       1                               0D    154
     504     275                                                00010001D    155
     504                       9       1                               0D    156
     406     284                                                00000000D    157
     406                       1      15                               0D    158
     314     285                                                00000200D    159
     314                       2       0                               0D    160
186,3,1,0,0,1,157;                                                     1P      1
514,12,5,1,7,1,9,1,11,1,13,1,15,1,17,1,19,1,21,1,23,1,25,1,27,1;       3P      2
510,129,1,1,29;                                                        5P      3
510,131,1,1,31;                                                        7P      4
510,133,1,1,33;                                                        9P      5
510,135,3,1,35,37,39;                                                 11P      6
510,137,1,1,41;                                                       13P      7
510,139,1,1,43;                                                       15P      8
510,141,1,1,45;                                                       17P      9
510,143,1,1,47;                                                       19P     10
510,145,1,1,49;                                                       21P     11
510,147,1,1,51;                                                       23P     12
510,149,1,1,53;                                                       25P     13
510,151,5,1,55,57,59,61,63;                                           27P     14
508,4,0,155,1,1,0,0,155,2,0,0,0,155,3,0,0,0,155,4,1,0;                29P     15
508,6,0,155,5,0,0,0,155,6,0,0,0,155,7,0,0,0,155,8,0,0,0,155,9,0,      31P     16
0,0,155,2,1,0;                                                        31P     17
508,4,0,155,10,0,0,0,155,11,0,0,0,155,12,0,0,0,155,4,0,0;             33P     18
508,10,0,155,1,0,0,0,155,12,1,0,0,155,13,1,0,0,155,7,1,0,0,155,       35P     19
14,0,0,0,155,15,0,0,0,155,6,1,0,0,155,16,0,0,0,155,17,0,0,0,155,      35P     20
5,1,0;                                                                35P     21
508,1,0,155,18,1,0;                                                   37P     22
508,1,0,155,19,1,0;                                                   39P     23
508,5,0,155,17,1,0,0,155,20,1,0,0,155,21,1,0,0,155,20,0,0,0,155,      41P     24
16,1,0;                                                               41P     25
508,4,0,155,21,0,0,0,155,22,1,0,0,155,23,0,0,0,155,22,0,0;            43P     26
508,5,0,155,15,1,0,0,155,24,1,0,0,155,25,1,0,0,155,24,0,0,0,155,      45P     27
14,1,0;                                                               45P     28
508,4,0,155,25,0,0,0,155,26,1,0,0,155,27,0,0,0,155,26,0,0;            47P     29
508,4,0,155,19,0,0,0,155,28,1,0,0,155,29,0,0,0,155,28,0,0;            49P     30
508,4,0,155,18,0,0,0,155,30,1,0,0,155,31,0,0,0,155,30,0,0;            51P     31
508,4,0,155,11,1,0,0,155,32,0,0,0,155,8,1,0,0,155,13,0,0;             53P     32
508,4,0,155,10,1,0,0,155,3,1,0,0,155,9,1,0,0,155,32,1,0;              55P     33
508,1,0,155,27,1,0;                                                   57P     34
508,1,0,155,23,1,0;                                                   59P     35
508,1,0,155,29,1,0;                                                   61P     36
508,1,0,155,31,1,0;                                                   63P     37
126,1,1,0,0,1,0,-7.15,-7.15,0.,0.,1.,1.,71.5,5.,70.,0.,5.,70.,        65P     38
-7.15,0.,0.,0.,0.;                                                    65P     39
126,1,1,0,0,1,0,0.,0.,0.5,0.5,1.,1.,0.,0.,70.,0.,5.,70.,0.,0.5,       67P     40
0.,0.,0.;                                                             67P     41
126,1,1,0,0,1,0,0.0999999999999996,0.0999999999999996,7.25,7.25,      69P     42
1.,1.,71.5,0.,70.,0.,0.,70.,0.0999999999999996,7.25,0.,0.,0.;         69P     43
126,1,1,0,0,1,0,0.,0.,0.5,0.5,1.,1.,71.5,0.,70.,71.5,5.,70.,0.,       71P     44
0.5,0.,0.,0.;                                                         71P     45
126,1,1,0,0,1,0,-0.5,-0.5,0.,0.,1.,1.,0.,5.,65.,0.,5.,70.,-0.5,       73P     46
0.,0.,0.,0.;                                                          73P     47
126,1,1,0,0,1,0,-6.49999999254942,-6.49999999254942,-0.5,-0.5,        75P     48
1.,1.,0.,5.,5.00000007450581,0.,5.,65.,-6.49999999254942,-0.5,        75P     49
0.,0.,0.;                                                             75P     50
126,1,1,0,0,1,0,-7.,-7.,-6.49999999254942,-6.49999999254942,1.,       77P     51
1.,0.,5.,0.,0.,5.,5.00000007450581,-7.,-6.49999999254942,0.,0.,       77P     52
0.;                                                                   77P     53
126,1,1,0,0,1,0,0.,0.,0.5,0.5,1.,1.,0.,0.,0.,0.,5.,0.,0.,0.5,0.,      79P     54
0.,0.;                                                                79P     55
126,1,1,0,0,1,0,0.,0.,7.,7.,1.,1.,0.,0.,70.,0.,0.,0.,0.,7.,0.,        81P     56
0.,0.;                                                                81P     57
126,1,1,0,0,1,0,-5.25,-5.25,1.75,1.75,1.,1.,71.5,0.,0.,71.5,0.,       83P     58
70.,-5.25,1.75,0.,0.,0.;                                              83P     59
126,1,1,0,0,1,0,-0.5,-0.5,0.,0.,1.,1.,71.5,5.,0.,71.5,0.,0.,          85P     60
-0.5,0.,0.,0.,0.;                                                     85P     61
126,1,1,0,0,1,0,-1.75,-1.75,5.25,5.25,1.,1.,71.5,5.,70.,71.5,5.,      87P     62
0.,-1.75,5.25,0.,0.,0.;                                               87P     63
126,1,1,0,0,1,0,-7.15,-7.15,0.,0.,1.,1.,71.5,5.,0.,0.,5.,0.,          89P     64
-7.15,0.,0.,0.,0.;                                                    89P     65
126,4,2,0,0,0,0,-3.14159265358979,-3.14159265358979,                  91P     66
-3.14159265358979,-1.5707963267949,-1.5707963267949,0.,0.,0.,1.,      91P     67
0.707106781186547,1.,0.707106781186547,1.,8.,5.,                      91P     68
5.00000007450581,8.,5.,1.00000007450581,4.,5.,1.00000007450581,       91P     69
1.11022302462516D-15,5.,1.00000007450581,1.11022302462516D-15,        91P     70
5.,5.00000007450581,-3.14159265358979,0.,0.,0.,0.;                    91P     71
126,4,2,0,0,0,0,-6.28318530717959,-6.28318530717959,                  93P     72
-6.28318530717959,-4.71238898038469,-4.71238898038469,                93P     73
-3.14159265358979,-3.14159265358979,-3.14159265358979,1.,             93P     74
0.707106781186548,1.,0.707106781186547,1.,1.11022302462516D-15,       93P     75
5.,5.00000007450581,2.15519325659668D-15,5.,9.00000007450581,4.,      93P     76
5.,9.00000007450581,8.,5.,9.00000007450581,8.,5.,                     93P     77
5.00000007450581,-6.28318530717959,-3.14159265358979,0.,0.,0.;        93P     78
126,4,2,0,0,0,0,-3.14159265358979,-3.14159265358979,                  95P     79
-3.14159265358979,-1.5707963267949,-1.5707963267949,0.,0.,0.,1.,      95P     80
0.707106781186548,1.,0.707106781186548,1.,8.,5.,65.,8.,5.,61.,        95P     81
4.,5.,61.,-5.55111512312578D-16,5.,61.,-5.55111512312578D-16,5.,      95P     82
65.,-3.14159265358979,0.,0.,0.,0.;                                    95P     83
126,4,2,0,0,0,0,-6.28318530717959,-6.28318530717959,                  97P     84
-6.28318530717959,-4.71238898038469,-4.71238898038469,                97P     85
-3.14159265358979,-3.14159265358979,-3.14159265358979,1.,             97P     86
0.707106781186548,1.,0.707106781186549,1.,-5.55111512312578D-16,      97P     87
5.,65.,4.89858719658942D-16,5.,69.,4.,5.,69.,8.,5.,69.,8.,5.,         97P     88
65.,-6.28318530717959,-3.14159265358979,0.,0.,0.;                     97P     89
126,8,2,0,1,0,0,-3.14159265358979,-3.14159265358979,                  99P     90
-3.14159265358979,-1.5707963267949,-1.5707963267949,0.,0.,            99P     91
1.5707963267949,1.5707963267949,3.14159265358979,                     99P     92
3.14159265358979,3.14159265358979,1.,0.707106781186555,1.,            99P     93
0.707106781186555,1.,0.707106781186555,1.,0.707106781186555,1.,       99P     94
66.,5.,8.,66.,5.,9.5,64.5,5.,9.5,63.,5.,9.5,63.,5.,8.,63.,5.,         99P     95
6.5,64.5,5.,6.5,66.,5.,6.5,66.,5.,8.,-3.14159265358979,               99P     96
3.14159265358979,0.,0.,0.;                                            99P     97
126,8,2,0,1,0,0,-3.14159265358979,-3.14159265358979,                 101P     98
-3.14159265358979,-1.5707963267949,-1.5707963267949,0.,0.,           101P     99
1.5707963267949,1.5707963267949,3.14159265358979,                    101P    100
3.14159265358979,3.14159265358979,1.,0.707106781186564,1.,           101P    101
0.707106781186564,1.,0.707106781186564,1.,0.707106781186564,1.,      101P    102
66.,5.,62.,66.,5.,63.5,64.5,5.,63.5,63.,5.,63.5,63.,5.,62.,63.,      101P    103
5.,60.5,64.5,5.,60.5,66.,5.,60.5,66.,5.,62.,-3.14159265358979,       101P    104
3.14159265358979,0.,0.,0.;                                           101P    105
126,1,1,0,0,1,0,-0.471404520791033,-0.471404520791033,               103P    106
0.471404520791032,0.471404520791032,1.,1.,8.,5.,65.,6.,3.,65.,       103P    107
-0.471404520791033,0.471404520791032,0.,0.,0.;                       103P    108
126,8,2,0,1,0,0,-3.14159265358979,-3.14159265358979,                 105P    109
-3.14159265358979,-1.5707963267949,-1.5707963267949,0.,0.,           105P    110
1.5707963267949,1.5707963267949,3.14159265358979,                    105P    111
3.14159265358979,3.14159265358979,1.,0.707106781186542,1.,           105P    112
0.707106781186542,1.,0.707106781186542,1.,0.707106781186542,1.,      105P    113
6.,3.,65.,6.,3.,67.,4.,3.,67.,2.,3.,67.,2.,3.,65.,2.,3.,63.,4.,      105P    114
3.,63.,6.,3.,63.,6.,3.,65.,-3.14159265358979,3.14159265358979,       105P    115
0.,0.,0.;                                                            105P    116
126,1,1,0,0,1,0,1.,1.,2.5,2.5,1.,1.,6.,3.,65.,6.,0.,65.,1.,2.5,      107P    117
0.,0.,0.;                                                            107P    118
126,8,2,0,1,0,0,-3.14159265358979,-3.14159265358979,                 109P    119
-3.14159265358979,-1.5707963267949,-1.5707963267949,0.,0.,           109P    120
1.5707963267949,1.5707963267949,3.14159265358979,                    109P    121
3.14159265358979,3.14159265358979,1.,0.707106781186542,1.,           109P    122
0.707106781186542,1.,0.707106781186542,1.,0.707106781186542,1.,      109P    123
6.,0.,65.,6.,0.,63.,4.,0.,63.,2.,0.,63.,2.,0.,65.,2.,0.,67.,4.,      109P    124
0.,67.,6.,0.,67.,6.,0.,65.,-3.14159265358979,3.14159265358979,       109P    125
0.,0.,0.;                                                            109P    126
126,1,1,0,0,1,0,-0.471404520791032,-0.471404520791032,               111P    127
0.471404520791032,0.471404520791032,1.,1.,8.,5.,                     111P    128
5.00000007450581,6.,3.,5.00000007450581,-0.471404520791032,          111P    129
0.471404520791032,0.,0.,0.;                                          111P    130
126,8,2,0,1,0,0,-3.14159265358979,-3.14159265358979,                 113P    131
-3.14159265358979,-1.5707963267949,-1.5707963267949,0.,0.,           113P    132
1.5707963267949,1.5707963267949,3.14159265358979,                    113P    133
3.14159265358979,3.14159265358979,1.,0.707106781186547,1.,           113P    134
0.707106781186547,1.,0.707106781186547,1.,0.707106781186547,1.,      113P    135
6.,3.,5.00000007450581,6.,3.,7.00000007450581,4.,3.,                 113P    136
7.00000007450581,2.,3.,7.00000007450581,2.,3.,5.00000007450581,      113P    137
2.,3.,3.00000007450581,4.,3.,3.00000007450581,6.,3.,                 113P    138
3.00000007450581,6.,3.,5.00000007450581,-3.14159265358979,           113P    139
3.14159265358979,0.,0.,0.;                                           113P    140
126,1,1,0,0,1,0,1.,1.,2.5,2.5,1.,1.,6.,3.,5.00000007450581,6.,       115P    141
0.,5.00000007450581,1.,2.5,0.,0.,0.;                                 115P    142
126,8,2,0,1,0,0,-3.14159265358979,-3.14159265358979,                 117P    143
-3.14159265358979,-1.5707963267949,-1.5707963267949,0.,0.,           117P    144
1.5707963267949,1.5707963267949,3.14159265358979,                    117P    145
3.14159265358979,3.14159265358979,1.,0.707106781186547,1.,           117P    146
0.707106781186547,1.,0.707106781186547,1.,0.707106781186547,1.,      117P    147
6.,0.,5.00000007450581,6.,0.,3.00000007450581,4.,0.,                 117P    148
3.00000007450581,2.,0.,3.00000007450581,2.,0.,5.00000007450581,      117P    149
2.,0.,7.00000007450581,4.,0.,7.00000007450581,6.,0.,                 117P    150
7.00000007450581,6.,0.,5.00000007450581,-3.14159265358979,           117P    151
3.14159265358979,0.,0.,0.;                                           117P    152
126,1,1,0,0,1,0,0.,0.,3.33333333333333,3.33333333333333,1.,1.,       119P    153
66.,5.,62.,66.,0.,62.,0.,3.33333333333333,0.,0.,0.;                  119P    154
126,8,2,0,1,0,0,-3.14159265358979,-3.14159265358979,                 121P    155
-3.14159265358979,-1.5707963267949,-1.5707963267949,0.,0.,           121P    156
1.5707963267949,1.5707963267949,3.14159265358979,                    121P    157
3.14159265358979,3.14159265358979,1.,0.707106781186564,1.,           121P    158
0.707106781186564,1.,0.707106781186564,1.,0.707106781186564,1.,      121P    159
66.,0.,62.,66.,0.,60.5,64.5,0.,60.5,63.,0.,60.5,63.,0.,62.,63.,      121P    160
0.,63.5,64.5,0.,63.5,66.,0.,63.5,66.,0.,62.,-3.14159265358979,       121P    161
3.14159265358979,0.,0.,0.;                                           121P    162
126,1,1,0,0,1,0,0.,0.,3.33333333333333,3.33333333333333,1.,1.,       123P    163
66.,5.,8.,66.,0.,8.,0.,3.33333333333333,0.,0.,0.;                    123P    164
126,8,2,0,1,0,0,-3.14159265358979,-3.14159265358979,                 125P    165
-3.14159265358979,-1.5707963267949,-1.5707963267949,0.,0.,           125P    166
1.5707963267949,1.5707963267949,3.14159265358979,                    125P    167
3.14159265358979,3.14159265358979,1.,0.707106781186555,1.,           125P    168
0.707106781186555,1.,0.707106781186555,1.,0.707106781186555,1.,      125P    169
66.,0.,8.,66.,0.,6.5,64.5,0.,6.5,63.,0.,6.5,63.,0.,8.,63.,0.,        125P    170
9.5,64.5,0.,9.5,66.,0.,9.5,66.,0.,8.,-3.14159265358979,              125P    171
3.14159265358979,0.,0.,0.;                                           125P    172
126,1,1,0,0,1,0,0.,0.,7.15,7.15,1.,1.,0.,0.,0.,71.5,0.,0.,0.,        127P    173
7.15,0.,0.,0.;                                                       127P    174
128,1,1,1,1,0,0,1,0,0,0.,0.,7.15,7.15,0.,0.,0.5,0.5,1.,1.,1.,1.,     129P    175
0.,0.,70.,71.5,0.,70.,0.,5.,70.,71.5,5.,70.,0.,7.15,0.,0.5;          129P    176
128,1,1,1,1,0,0,1,0,0,0.,0.,7.,7.,0.,0.,0.5,0.5,1.,1.,1.,1.,0.,      131P    177
0.,0.,0.,0.,70.,0.,5.,0.,0.,5.,70.,0.,7.,0.,0.5;                     131P    178
128,1,1,1,1,0,0,1,0,0,-7.,-7.,0.,0.,0.,0.,0.5,0.5,1.,1.,1.,1.,       133P    179
71.5,0.,70.,71.5,0.,0.,71.5,5.,70.,71.5,5.,0.,-7.,0.,0.,0.5;         133P    180
128,1,1,1,1,0,0,1,0,0,-3.5,-3.5,3.5,3.5,-3.625,-3.625,3.525,         135P    181
3.525,1.,1.,1.,1.,0.,5.,0.,0.,5.,70.,71.5,5.,0.,71.5,5.,70.,         135P    182
-3.5,3.5,-3.625,3.525;                                               135P    183
128,1,8,1,2,0,1,0,0,1,-0.471404520791032,-0.471404520791032,         137P    184
0.471404520791033,0.471404520791033,-3.14159265358979,               137P    185
-3.14159265358979,-3.14159265358979,-1.5707963267949,                137P    186
-1.5707963267949,0.,0.,1.5707963267949,1.5707963267949,              137P    187
3.14159265358979,3.14159265358979,3.14159265358979,1.,1.,            137P    188
0.707106781186548,0.707106781186548,1.,1.,0.707106781186548,         137P    189
0.707106781186548,1.,1.,0.707106781186548,0.707106781186548,1.,      137P    190
1.,0.707106781186548,0.707106781186548,1.,1.,6.,3.,65.,8.,5.,        137P    191
65.,6.,3.,63.,8.,5.,61.,4.,3.,63.,4.,5.,61.,2.,3.,63.,               137P    192
-1.66533453693773D-15,5.,61.,2.,3.,65.,-2.77555756156289D-15,5.,     137P    193
65.,2.,3.,67.,-1.66533453693773D-15,5.,69.,4.,3.,67.,4.,5.,69.,      137P    194
6.,3.,67.,8.,5.,69.,6.,3.,65.,8.,5.,65.,-0.471404520791032,          137P    195
0.471404520791033,-3.14159265358979,3.14159265358979;                137P    196
128,1,8,1,2,0,1,0,0,1,1.,1.,2.5,2.5,-3.14159265358979,               139P    197
-3.14159265358979,-3.14159265358979,-1.5707963267949,                139P    198
-1.5707963267949,0.,0.,1.5707963267949,1.5707963267949,              139P    199
3.14159265358979,3.14159265358979,3.14159265358979,1.,1.,            139P    200
0.707106781186548,0.707106781186548,1.,1.,0.707106781186548,         139P    201
0.707106781186548,1.,1.,0.707106781186548,0.707106781186548,1.,      139P    202
1.,0.707106781186548,0.707106781186548,1.,1.,6.,3.,65.,6.,0.,        139P    203
65.,6.,3.,67.,6.,0.,67.,4.,3.,67.,4.,0.,67.,2.,3.,67.,2.,0.,67.,     139P    204
2.,3.,65.,2.,0.,65.,2.,3.,63.,2.,0.,63.,4.,3.,63.,4.,0.,63.,6.,      139P    205
3.,63.,6.,0.,63.,6.,3.,65.,6.,0.,65.,1.,2.5,-3.14159265358979,       139P    206
3.14159265358979;                                                    139P    207
128,1,8,1,2,0,1,0,0,1,-0.471404520791032,-0.471404520791032,         141P    208
0.471404520791032,0.471404520791032,-3.14159265358979,               141P    209
-3.14159265358979,-3.14159265358979,-1.5707963267949,                141P    210
-1.5707963267949,0.,0.,1.5707963267949,1.5707963267949,              141P    211
3.14159265358979,3.14159265358979,3.14159265358979,1.,1.,            141P    212
0.707106781186548,0.707106781186548,1.,1.,0.707106781186548,         141P    213
0.707106781186548,1.,1.,0.707106781186548,0.707106781186548,1.,      141P    214
1.,0.707106781186548,0.707106781186548,1.,1.,6.,3.,                  141P    215
5.00000007450581,8.,5.,5.00000007450581,6.,3.,3.00000007450581,      141P    216
8.,5.,1.00000007450581,4.,3.,3.00000007450581,4.,5.,                 141P    217
1.00000007450581,2.,3.,3.00000007450581,2.22044604925031D-15,5.,     141P    218
1.00000007450581,2.,3.,5.00000007450581,1.11022302462516D-15,5.,     141P    219
5.00000007450581,2.,3.,7.0000000745058,2.22044604925031D-15,5.,      141P    220
9.0000000745058,4.,3.,7.00000007450581,4.,5.,9.00000007450581,       141P    221
6.,3.,7.0000000745058,8.,5.,9.0000000745058,6.,3.,                   141P    222
5.00000007450581,8.,5.,5.00000007450581,-0.471404520791032,          141P    223
0.471404520791032,-3.14159265358979,3.14159265358979;                141P    224
128,1,8,1,2,0,1,0,0,1,1.,1.,2.5,2.5,-3.14159265358979,               143P    225
-3.14159265358979,-3.14159265358979,-1.5707963267949,                143P    226
-1.5707963267949,0.,0.,1.5707963267949,1.5707963267949,              143P    227
3.14159265358979,3.14159265358979,3.14159265358979,1.,1.,            143P    228
0.707106781186548,0.707106781186548,1.,1.,0.707106781186548,         143P    229
0.707106781186548,1.,1.,0.707106781186548,0.707106781186548,1.,      143P    230
1.,0.707106781186548,0.707106781186548,1.,1.,6.,3.,                  143P    231
5.00000007450581,6.,0.,5.00000007450581,6.,3.,7.0000000745058,       143P    232
6.,0.,7.0000000745058,4.,3.,7.00000007450581,4.,0.,                  143P    233
7.00000007450581,2.,3.,7.0000000745058,2.,0.,7.0000000745058,2.,     143P    234
3.,5.00000007450581,2.,0.,5.00000007450581,2.,3.,                    143P    235
3.00000007450581,2.,0.,3.00000007450581,4.,3.,3.00000007450581,      143P    236
4.,0.,3.00000007450581,6.,3.,3.00000007450581,6.,0.,                 143P    237
3.00000007450581,6.,3.,5.00000007450581,6.,0.,5.00000007450581,      143P    238
1.,2.5,-3.14159265358979,3.14159265358979;                           143P    239
128,1,8,1,2,0,1,0,0,1,0.,0.,3.33333333333333,3.33333333333333,       145P    240
-3.14159265358979,-3.14159265358979,-3.14159265358979,               145P    241
-1.5707963267949,-1.5707963267949,0.,0.,1.5707963267949,             145P    242
1.5707963267949,3.14159265358979,3.14159265358979,                   145P    243
3.14159265358979,1.,1.,0.707106781186548,0.707106781186548,1.,       145P    244
1.,0.707106781186548,0.707106781186548,1.,1.,0.707106781186548,      145P    245
0.707106781186548,1.,1.,0.707106781186548,0.707106781186548,1.,      145P    246
1.,66.,5.,62.,66.,0.,62.,66.,5.,63.5,66.,0.,63.5,64.5,5.,63.5,       145P    247
64.5,0.,63.5,63.,5.,63.5,63.,0.,63.5,63.,5.,62.,63.,0.,62.,63.,      145P    248
5.,60.5,63.,0.,60.5,64.5,5.,60.5,64.5,0.,60.5,66.,5.,60.5,66.,       145P    249
0.,60.5,66.,5.,62.,66.,0.,62.,0.,3.33333333333333,                   145P    250
-3.14159265358979,3.14159265358979;                                  145P    251
128,1,8,1,2,0,1,0,0,1,0.,0.,3.33333333333333,3.33333333333333,       147P    252
-3.14159265358979,-3.14159265358979,-3.14159265358979,               147P    253
-1.5707963267949,-1.5707963267949,0.,0.,1.5707963267949,             147P    254
1.5707963267949,3.14159265358979,3.14159265358979,                   147P    255
3.14159265358979,1.,1.,0.707106781186548,0.707106781186548,1.,       147P    256
1.,0.707106781186548,0.707106781186548,1.,1.,0.707106781186548,      147P    257
0.707106781186548,1.,1.,0.707106781186548,0.707106781186548,1.,      147P    258
1.,66.,5.,8.,66.,0.,8.,66.,5.,9.5,66.,0.,9.5,64.5,5.,9.5,64.5,       147P    259
0.,9.5,63.,5.,9.5,63.,0.,9.5,63.,5.,8.,63.,0.,8.,63.,5.,6.5,63.,     147P    260
0.,6.5,64.5,5.,6.5,64.5,0.,6.5,66.,5.,6.5,66.,0.,6.5,66.,5.,8.,      147P    261
66.,0.,8.,0.,3.33333333333333,-3.14159265358979,                     147P    262
3.14159265358979;                                                    147P    263
128,1,1,1,1,0,0,1,0,0,0.0999999999999996,0.0999999999999996,         149P    264
7.25,7.25,0.,0.,0.5,0.5,1.,1.,1.,1.,71.5,0.,0.,0.,0.,0.,71.5,5.,     149P    265
0.,0.,5.,0.,0.0999999999999996,7.25,0.,0.5;                          149P    266
128,1,1,1,1,0,0,1,0,0,-3.625,-3.625,3.525,3.525,-3.5,-3.5,3.5,       151P    267
3.5,1.,1.,1.,1.,71.5,0.,70.,0.,0.,70.,71.5,0.,0.,0.,0.,0.,           151P    268
-3.625,3.525,-3.5,3.5;                                               151P    269
502,20,71.5,5.,70.,0.,5.,70.,0.,0.,70.,71.5,0.,70.,0.,5.,65.,0.,     153P    270
5.,5.00000007450581,0.,5.,0.,0.,0.,0.,71.5,0.,0.,71.5,5.,0.,8.,      153P    271
5.,5.00000007450581,8.,5.,65.,66.,5.,8.,66.,5.,62.,6.,3.,65.,6.,     153P    272
0.,65.,6.,3.,5.00000007450581,6.,0.,5.00000007450581,66.,0.,62.,     153P    273
66.,0.,8.;                                                           153P    274
504,32,65,153,1,153,2,67,153,3,153,2,69,153,4,153,3,71,153,4,        155P    275
153,1,73,153,5,153,2,75,153,6,153,5,77,153,7,153,6,79,153,8,153,     155P    276
7,81,153,3,153,8,83,153,9,153,4,85,153,10,153,9,87,153,1,153,10,     155P    277
89,153,10,153,7,91,153,11,153,6,93,153,6,153,11,95,153,12,153,5,     155P    278
97,153,5,153,12,99,153,13,153,13,101,153,14,153,14,103,153,12,       155P    279
153,15,105,153,15,153,15,107,153,15,153,16,109,153,16,153,16,        155P    280
111,153,11,153,17,113,153,17,153,17,115,153,17,153,18,117,153,       155P    281
18,153,18,119,153,14,153,19,121,153,19,153,19,123,153,13,153,20,     155P    282
125,153,20,153,20,127,153,8,153,9;                                   155P    283
406,1,5HBody1;                                                       157P    284
314,62.7450980392157,62.7450980392157,62.7450980392157,13HSteel      159P    285
- Satin;                                                             159P    286
S      1G      2D    160P    286                                        T      1
