                                                                        S      1
,,11HCable_clamp,11HCable_clamp,7Hunknown,7Hunknown,32,38,7,99,15,,1.,2,G      1
2HMM,1,0.08,15H20150718.181702,0.01,10000.,7Hunknown,7Hunknown,11,0,;   G      2
     186       1                                                00000000D      1
     186            -191       1       0                               0D      2
     514       2                                                00010000D      3
     514                       2       1                               0D      4
     510       4                                                00010000D      5
     510            -191       1       1                               0D      6
     510       5                                                00010000D      7
     510            -191       1       1                               0D      8
     510       6                                                00010000D      9
     510            -191       1       1                               0D     10
     510       7                                                00010000D     11
     510            -191       1       1                               0D     12
     510       8                                                00010000D     13
     510            -191       1       1                               0D     14
     510       9                                                00010000D     15
     510            -191       1       1                               0D     16
     510      10                                                00010000D     17
     510            -191       1       1                               0D     18
     510      11                                                00010000D     19
     510            -191       1       1                               0D     20
     510      12                                                00010000D     21
     510            -191       1       1                               0D     22
     510      13                                                00010000D     23
     510            -191       1       1                               0D     24
     510      14                                                00010000D     25
     510            -191       1       1                               0D     26
     510      15                                                00010000D     27
     510            -191       1       1                               0D     28
     510      16                                                00010000D     29
     510            -191       1       1                               0D     30
     510      17                                                00010000D     31
     510            -191       1       1                               0D     32
     510      18                                                00010000D     33
     510            -191       1       1                               0D     34
     510      19                                                00010000D     35
     510            -191       1       1                               0D     36
     508      20                                                00010000D     37
     508                       1       1                               0D     38
     508      21                                                00010000D     39
     508                       2       1                               0D     40
     508      23                                                00010000D     41
     508                       1       1                               0D     42
     508      24                                                00010000D     43
     508                       1       1                               0D     44
     508      25                                                00010000D     45
     508                       1       1                               0D     46
     508      26                                                00010000D     47
     508                       1       1                               0D     48
     508      27                                                00010000D     49
     508                       1       1                               0D     50
     508      28                                                00010000D     51
     508                       3       1                               0D     52
     508      31                                                00010000D     53
     508                       1       1                               0D     54
     508      32                                                00010000D     55
     508                       1       1                               0D     56
     508      33                                                00010000D     57
     508                       1       1                               0D     58
     508      34                                                00010000D     59
     508                       1       1                               0D     60
     508      35                                                00010000D     61
     508                       1       1                               0D     62
     508      36                                                00010000D     63
     508                       2       1                               0D     64
     508      38                                                00010000D     65
     508                       2       1                               0D     66
     508      40                                                00010000D     67
     508                       3       1                               0D     68
     126      43                                                00010000D     69
     126       0               5       0                               0D     70
     126      48                                                00010000D     71
     126       0               2       0                               0D     72
     126      50                                                00010000D     73
     126       0               5       0                               0D     74
     126      55                                                00010000D     75
     126       0               2       0                               0D     76
     126      57                                                00010000D     77
     126       0               2       0                               0D     78
     126      59                                                00010000D     79
     126       0               4       0                               0D     80
     126      63                                                00010000D     81
     126       0               2       0                               0D     82
     126      65                                                00010000D     83
     126       0               4       0                               0D     84
     126      69                                                00010000D     85
     126       0               2       0                               0D     86
     126      71                                                00010000D     87
     126       0               5       0                               0D     88
     126      76                                                00010000D     89
     126       0               2       0                               0D     90
     126      78                                                00010000D     91
     126       0               2       0                               0D     92
     126      80                                                00010000D     93
     126       0               2       0                               0D     94
     126      82                                                00010000D     95
     126       0               4       0                               0D     96
     126      86                                                00010000D     97
     126       0               2       0                               0D     98
     126      88                                                00010000D     99
     126       0               5       0                               0D    100
     126      93                                                00010000D    101
     126       0               2       0                               0D    102
     126      95                                                00010000D    103
     126       0               2       0                               0D    104
     126      97                                                00010000D    105
     126       0               2       0                               0D    106
     126      99                                                00010000D    107
     126       0               2       0                               0D    108
     126     101                                                00010000D    109
     126       0               4       0                               0D    110
     126     105                                                00010000D    111
     126       0               2       0                               0D    112
     126     107                                                00010000D    113
     126       0               2       0                               0D    114
     126     109                                                00010000D    115
     126       0               2       0                               0D    116
     126     111                                                00010000D    117
     126       0               4       0                               0D    118
     126     115                                                00010000D    119
     126       0               2       0                               0D    120
     126     117                                                00010000D    121
     126       0               4       0                               0D    122
     126     121                                                00010000D    123
     126       0               2       0                               0D    124
     126     123                                                00010000D    125
     126       0               2       0                               0D    126
     126     125                                                00010000D    127
     126       0               4       0                               0D    128
     126     129                                                00010000D    129
     126       0               2       0                               0D    130
     126     131                                                00010000D    131
     126       0               2       0                               0D    132
     126     133                                                00010000D    133
     126       0               2       0                               0D    134
     126     135                                                00010000D    135
     126       0               3       0                               0D    136
     126     138                                                00010000D    137
     126       0               2       0                               0D    138
     126     140                                                00010000D    139
     126       0               4       0                               0D    140
     126     144                                                00010000D    141
     126       0               2       0                               0D    142
     126     146                                                00010000D    143
     126       0               2       0                               0D    144
     126     148                                                00010000D    145
     126       0               2       0                               0D    146
     126     150                                                00010000D    147
     126       0               2       0                               0D    148
     126     152                                                00010000D    149
     126       0               2       0                               0D    150
     126     154                                                00010000D    151
     126       0               2       0                               0D    152
     128     156                                                00010000D    153
     128       0    -191       8       0                               0D    154
     128     164                                                00010000D    155
     128       0    -191       3       0                               0D    156
     128     167                                                00010000D    157
     128       0    -191       3       0                               0D    158
     128     170                                                00010000D    159
     128       0    -191       7       0                               0D    160
     128     177                                                00010000D    161
     128       0    -191       6       0                               0D    162
     128     183                                                00010000D    163
     128       0    -191       3       0                               0D    164
     128     186                                                00010000D    165
     128       0    -191       6       0                               0D    166
     128     192                                                00010000D    167
     128       0    -191       3       0                               0D    168
     128     195                                                00010000D    169
     128       0    -191       6       0                               0D    170
     128     201                                                00010000D    171
     128       0    -191       2       0                               0D    172
     128     203                                                00010000D    173
     128       0    -191       8       0                               0D    174
     128     211                                                00010000D    175
     128       0    -191       2       0                               0D    176
     128     213                                                00010000D    177
     128       0    -191       3       0                               0D    178
     128     216                                                00010000D    179
     128       0    -191       3       0                               0D    180
     128     219                                                00010000D    181
     128       0    -191       3       0                               0D    182
     128     222                                                00010000D    183
     128       0    -191       3       0                               0D    184
     502     225                                                00010000D    185
     502                       5       1                               0D    186
     504     230                                                00010001D    187
     504                      12       1                               0D    188
     406     242                                                00000000D    189
     406                       1      15                               0D    190
     314     243                                                00000200D    191
     314                       1       0                               0D    192
186,3,1,0,0,1,189;                                                     1P      1
514,16,5,1,7,1,9,1,11,1,13,1,15,1,17,1,19,1,21,1,23,1,25,1,27,1,       3P      2
29,1,31,1,33,1,35,1;                                                   3P      3
510,153,1,1,37;                                                        5P      4
510,155,1,1,39;                                                        7P      5
510,157,1,1,41;                                                        9P      6
510,159,1,1,43;                                                       11P      7
510,161,1,1,45;                                                       13P      8
510,163,1,1,47;                                                       15P      9
510,165,1,1,49;                                                       17P     10
510,167,1,1,51;                                                       19P     11
510,169,1,1,53;                                                       21P     12
510,171,1,1,55;                                                       23P     13
510,173,1,1,57;                                                       25P     14
510,175,1,1,59;                                                       27P     15
510,177,1,1,61;                                                       29P     16
510,179,1,1,63;                                                       31P     17
510,181,1,1,65;                                                       33P     18
510,183,1,1,67;                                                       35P     19
508,4,0,187,1,1,0,0,187,2,1,0,0,187,3,1,0,0,187,4,1,0;                37P     20
508,8,0,187,1,0,0,0,187,5,1,0,0,187,6,0,0,0,187,7,1,0,0,187,8,0,      39P     21
0,0,187,9,1,0,0,187,10,0,0,0,187,11,1,0;                              39P     22
508,4,0,187,4,0,0,0,187,12,0,0,0,187,13,0,0,0,187,5,0,0;              41P     23
508,4,0,187,6,1,0,0,187,13,1,0,0,187,14,1,0,0,187,15,1,0;             43P     24
508,4,0,187,16,1,0,0,187,17,1,0,0,187,10,1,0,0,187,18,1,0;            45P     25
508,4,0,187,18,0,0,0,187,9,0,0,0,187,19,0,0,0,187,20,0,0;             47P     26
508,4,0,187,21,1,0,0,187,19,1,0,0,187,8,1,0,0,187,22,1,0;             49P     27
508,10,0,187,15,0,0,0,187,23,0,0,0,187,24,0,0,0,187,25,0,0,0,         51P     28
187,26,0,0,0,187,27,0,0,0,187,28,0,0,0,187,29,0,0,0,187,22,0,0,       51P     29
0,187,7,0,0;                                                          51P     30
508,4,0,187,30,1,0,0,187,31,1,0,0,187,25,1,0,0,187,32,1,0;            53P     31
508,4,0,187,32,0,0,0,187,24,1,0,0,187,33,0,0,0,187,34,1,0;            55P     32
508,4,0,187,27,1,0,0,187,35,1,0,0,187,36,1,0,0,187,37,1,0;            57P     33
508,4,0,187,37,0,0,0,187,38,0,0,0,187,39,1,0,0,187,28,1,0;            59P     34
508,4,0,187,31,0,0,0,187,40,1,0,0,187,35,0,0,0,187,26,1,0;            61P     35
508,6,0,187,3,0,0,0,187,41,1,0,0,187,33,1,0,0,187,23,1,0,0,187,       63P     36
14,0,0,0,187,12,1,0;                                                  63P     37
508,6,0,187,16,0,0,0,187,20,1,0,0,187,21,0,0,0,187,29,1,0,0,187,      65P     38
39,0,0,0,187,42,1,0;                                                  65P     39
508,10,0,187,2,0,0,0,187,11,0,0,0,187,17,0,0,0,187,42,0,0,0,187,      67P     40
38,1,0,0,187,36,0,0,0,187,40,0,0,0,187,30,0,0,0,187,34,0,0,0,         67P     41
187,41,0,0;                                                           67P     42
126,2,2,0,0,0,0,-0.785398163397448,-0.785398163397448,                69P     43
-0.785398163397448,0.785398163397448,0.785398163397448,               69P     44
0.785398163397448,1.,0.707106781186548,1.,13.5,-1.,3.,13.5,-1.,       69P     45
1.2490009027033D-15,10.5,-1.,1.11022302462516D-15,                    69P     46
-0.785398163397448,0.785398163397448,0.,0.,0.;                        69P     47
126,1,1,0,0,1,0,-0.1,-0.1,0.3,0.3,1.,1.,10.5,-1.,0.,10.5,3.,0.,       71P     48
-0.1,0.3,0.,0.,0.;                                                    71P     49
126,2,2,0,0,0,0,-0.785398163397448,-0.785398163397448,                73P     50
-0.785398163397448,0.785398163397448,0.785398163397448,               73P     51
0.785398163397448,1.,0.707106781186548,1.,10.5,3.,                    73P     52
1.11022302462516D-15,13.5,3.,1.2490009027033D-15,13.5,3.,3.,          73P     53
-0.785398163397448,0.785398163397448,0.,0.,0.;                        73P     54
126,1,1,0,0,1,0,-0.3,-0.3,0.1,0.1,1.,1.,13.5,3.,3.,13.5,-1.,3.,       75P     55
-0.3,0.1,0.,0.,0.;                                                    75P     56
126,1,1,0,0,1,0,0.3,0.3,0.7,0.7,1.,1.,13.5,-1.,3.,13.5,-1.,7.,        77P     57
0.3,0.7,0.,0.,0.;                                                     77P     58
126,2,2,0,0,0,0,-0.785398163397449,-0.785398163397449,                79P     59
-0.785398163397449,0.785398163397448,0.785398163397448,               79P     60
0.785398163397448,1.,0.707106781186546,1.,10.5,-1.,10.,13.5,-1.,      79P     61
10.,13.5,-1.,7.,-0.785398163397449,0.785398163397448,0.,0.,0.;        79P     62
126,1,1,0,0,1,0,-0.4125,-0.4125,0.8375,0.8375,1.,1.,10.5,-1.,         81P     63
10.,-2.,-1.,10.,-0.4125,0.8375,0.,0.,0.;                              81P     64
126,2,2,0,0,0,0,-0.785398163397448,-0.785398163397448,                83P     65
-0.785398163397448,0.785398163397448,0.785398163397448,               83P     66
0.785398163397448,1.,0.707106781186547,1.,-5.,-1.,7.,-5.,-1.,         83P     67
10.,-2.,-1.,10.,-0.785398163397448,0.785398163397448,0.,0.,0.;        83P     68
126,1,1,0,0,1,0,-0.7,-0.7,-0.3,-0.3,1.,1.,-5.,-1.,7.,-5.,-1.,3.,      85P     69
-0.7,-0.3,0.,0.,0.;                                                   85P     70
126,2,2,0,0,0,0,-0.785398163397448,-0.785398163397448,                87P     71
-0.785398163397448,0.785398163397448,0.785398163397448,               87P     72
0.785398163397448,1.,0.707106781186548,1.,-2.,-1.,                    87P     73
5.55111512312578D-16,-5.,-1.,1.80411241501588D-15,-5.,-1.,3.,         87P     74
-0.785398163397448,0.785398163397448,0.,0.,0.;                        87P     75
126,1,1,0,0,1,0,-1.05,-1.05,0.2,0.2,1.,1.,-2.,-1.,0.,10.5,-1.,        89P     76
0.,-1.05,0.2,0.,0.,0.;                                                89P     77
126,1,1,0,0,1,0,-0.7,-0.7,-0.3,-0.3,1.,1.,13.5,3.,7.,13.5,3.,3.,      91P     78
-0.7,-0.3,0.,0.,0.;                                                   91P     79
126,1,1,0,0,1,0,-0.1,-0.1,0.3,0.3,1.,1.,13.5,-1.,7.,13.5,3.,7.,       93P     80
-0.1,0.3,0.,0.,0.;                                                    93P     81
126,2,2,0,0,0,0,-0.785398163397448,-0.785398163397448,                95P     82
-0.785398163397448,0.785398163397449,0.785398163397449,               95P     83
0.785398163397449,1.,0.707106781186546,1.,13.5,3.,7.,13.5,3.,         95P     84
10.,10.5,3.,10.,-0.785398163397448,0.785398163397449,0.,0.,0.;        95P     85
126,1,1,0,0,1,0,-0.3,-0.3,0.1,0.1,1.,1.,10.5,3.,10.,10.5,-1.,         97P     86
10.,-0.3,0.1,0.,0.,0.;                                                97P     87
126,2,2,0,0,0,0,-0.785398163397448,-0.785398163397448,                99P     88
-0.785398163397448,0.785398163397448,0.785398163397448,               99P     89
0.785398163397448,1.,0.707106781186548,1.,-5.,3.,3.,-5.,3.,           99P     90
1.38777878078145D-16,-2.,3.,0.,-0.785398163397448,                    99P     91
0.785398163397448,0.,0.,0.;                                           99P     92
126,1,1,0,0,1,0,-0.3,-0.3,0.1,0.1,1.,1.,-2.,3.,0.,-2.,-1.,0.,        101P     93
-0.3,0.1,0.,0.,0.;                                                   101P     94
126,1,1,0,0,1,0,-0.1,-0.1,0.3,0.3,1.,1.,-5.,-1.,3.,-5.,3.,3.,        103P     95
-0.1,0.3,0.,0.,0.;                                                   103P     96
126,1,1,0,0,1,0,-0.3,-0.3,0.1,0.1,1.,1.,-5.,3.,7.,-5.,-1.,7.,        105P     97
-0.3,0.1,0.,0.,0.;                                                   105P     98
126,1,1,0,0,1,0,0.3,0.3,0.7,0.7,1.,1.,-5.,3.,3.,-5.,3.,7.,0.3,       107P     99
0.7,0.,0.,0.;                                                        107P    100
126,2,2,0,0,0,0,-0.785398163397448,-0.785398163397448,               109P    101
-0.785398163397448,0.785398163397448,0.785398163397448,              109P    102
0.785398163397448,1.,0.707106781186547,1.,-2.,3.,10.,-5.,3.,10.,     109P    103
-5.,3.,7.,-0.785398163397448,0.785398163397448,0.,0.,0.;             109P    104
126,1,1,0,0,1,0,-0.1,-0.1,0.3,0.3,1.,1.,-2.,-1.,10.,-2.,3.,10.,      111P    105
-0.1,0.3,0.,0.,0.;                                                   111P    106
126,1,1,0,0,1,0,0.2125,0.2125,0.4125,0.4125,1.,1.,8.5,3.,10.,        113P    107
10.5,3.,10.,0.2125,0.4125,0.,0.,0.;                                  113P    108
126,1,1,0,0,1,0,-0.7,-0.7,-0.3,-0.3,1.,1.,8.5,7.,10.,8.5,3.,10.,     115P    109
-0.7,-0.3,0.,0.,0.;                                                  115P    110
126,2,2,0,0,0,0,-0.785398163397448,-0.785398163397448,               117P    111
-0.785398163397448,0.785398163397448,0.785398163397448,              117P    112
0.785398163397448,1.,0.707106781186549,1.,7.5,8.,10.,8.5,8.,10.,     117P    113
8.5,7.,10.,-0.785398163397448,0.785398163397448,0.,0.,0.;            117P    114
126,1,1,0,0,1,0,-0.5375,-0.5375,0.1125,0.1125,1.,1.,1.,8.,10.,       119P    115
7.5,8.,10.,-0.5375,0.1125,0.,0.,0.;                                  119P    116
126,2,2,0,0,0,0,-0.785398163397449,-0.785398163397449,               121P    117
-0.785398163397449,0.785398163397447,0.785398163397447,              121P    118
0.785398163397447,1.,0.707106781186545,1.,0.,7.,10.,0.,8.,10.,       121P    119
1.,8.,10.,-0.785398163397449,0.785398163397447,0.,0.,0.;             121P    120
126,1,1,0,0,1,0,0.3,0.3,0.7,0.7,1.,1.,0.,3.,10.,0.,7.,10.,0.3,       123P    121
0.7,0.,0.,0.;                                                        123P    122
126,1,1,0,0,1,0,-0.8375,-0.8375,-0.6375,-0.6375,1.,1.,-2.,3.,        125P    123
10.,0.,3.,10.,-0.8375,-0.6375,0.,0.,0.;                              125P    124
126,2,2,0,0,0,0,-0.785398163397448,-0.785398163397448,               127P    125
-0.785398163397448,0.785398163397448,0.785398163397448,              127P    126
0.785398163397448,1.,0.707106781186549,1.,8.5,7.,0.,8.5,8.,0.,       127P    127
7.5,8.,0.,-0.785398163397448,0.785398163397448,0.,0.,0.;             127P    128
126,1,1,0,0,1,0,-0.5,-0.5,0.5,0.5,1.,1.,7.5,8.,0.,7.5,8.,10.,        129P    129
-0.5,0.5,0.,0.,0.;                                                   129P    130
126,1,1,0,0,1,0,-0.5,-0.5,0.5,0.5,1.,1.,8.5,7.,10.,8.5,7.,0.,        131P    131
-0.5,0.5,0.,0.,0.;                                                   131P    132
126,1,1,0,0,1,0,0.,0.,1.,1.,1.,1.,8.5,3.,0.,8.5,3.,10.,0.,1.,0.,     133P    133
0.,0.;                                                               133P    134
126,1,1,0,0,1,0,-0.4,-0.4,-1.11022302462516D-16,                     135P    135
-1.11022302462516D-16,1.,1.,8.5,3.,0.,8.5,7.,0.,-0.4,                135P    136
-1.11022302462516D-16,0.,0.,0.;                                      135P    137
126,1,1,0,0,1,0,-0.5,-0.5,0.5,0.5,1.,1.,1.,8.,10.,1.,8.,0.,-0.5,     137P    138
0.5,0.,0.,0.;                                                        137P    139
126,2,2,0,0,0,0,-0.785398163397448,-0.785398163397448,               139P    140
-0.785398163397448,0.785398163397449,0.785398163397449,              139P    141
0.785398163397449,1.,0.707106781186548,1.,1.,8.,0.,0.,8.,0.,0.,      139P    142
7.,0.,-0.785398163397448,0.785398163397449,0.,0.,0.;                 139P    143
126,1,1,0,0,1,0,-0.5,-0.5,0.5,0.5,1.,1.,0.,7.,0.,0.,7.,10.,-0.5,     141P    144
0.5,0.,0.,0.;                                                        141P    145
126,1,1,0,0,1,0,0.3,0.3,0.7,0.7,1.,1.,0.,3.,0.,0.,7.,0.,0.3,0.7,     143P    146
0.,0.,0.;                                                            143P    147
126,1,1,0,0,1,0,-0.5,-0.5,0.5,0.5,1.,1.,0.,3.,0.,0.,3.,10.,-0.5,     145P    148
0.5,0.,0.,0.;                                                        145P    149
126,1,1,0,0,1,0,-0.75,-0.75,-0.1,-0.1,1.,1.,7.5,8.,0.,1.,8.,0.,      147P    150
-0.75,-0.1,0.,0.,0.;                                                 147P    151
126,1,1,0,0,1,0,-0.2,-0.2,0.,0.,1.,1.,10.5,3.,0.,8.5,3.,0.,-0.2,     149P    152
0.,0.,0.,0.;                                                         149P    153
126,1,1,0,0,1,0,0.,0.,0.2,0.2,1.,1.,0.,3.,0.,-2.,3.,0.,0.,0.2,       151P    154
0.,0.,0.;                                                            151P    155
128,1,2,1,2,0,0,0,0,0,-1.,-1.,0.333333333333333,                     153P    156
0.333333333333333,-0.785398163397449,-0.785398163397449,             153P    157
-0.785398163397449,0.785398163397448,0.785398163397448,              153P    158
0.785398163397448,1.,1.,0.707106781186548,0.707106781186548,1.,      153P    159
1.,10.5,-1.,1.11022302462516D-15,10.5,3.,1.11022302462516D-15,       153P    160
13.5,-1.,1.66533453693773D-15,13.5,3.,1.66533453693773D-15,13.5,     153P    161
-1.,3.,13.5,3.,3.,-1.,0.333333333333333,-0.785398163397449,          153P    162
0.785398163397448;                                                   153P    163
128,1,1,1,1,0,0,1,0,0,0.,0.,1.,1.,-0.925,-0.925,0.925,0.925,1.,      155P    164
1.,1.,1.,-5.,-1.,10.,-5.,-1.,0.,13.5,-1.,10.,13.5,-1.,0.,0.,1.,      155P    165
-0.925,0.925;                                                        155P    166
128,1,1,1,1,0,0,1,0,0,1.3,1.3,1.7,1.7,-0.1,-0.1,0.3,0.3,1.,1.,       157P    167
1.,1.,13.5,-1.,7.,13.5,-1.,3.,13.5,3.,7.,13.5,3.,3.,1.3,1.7,         157P    168
-0.1,0.3;                                                            157P    169
128,1,2,1,2,0,0,0,0,0,-1.,-1.,0.333333333333333,                     159P    170
0.333333333333333,-0.785398163397448,-0.785398163397448,             159P    171
-0.785398163397448,0.785398163397449,0.785398163397449,              159P    172
0.785398163397449,1.,1.,0.707106781186547,0.707106781186547,1.,      159P    173
1.,13.5,-1.,7.,13.5,3.,7.,13.5,-1.,10.,13.5,3.,10.,10.5,-1.,10.,     159P    174
10.5,3.,10.,-1.,0.333333333333333,-0.785398163397448,                159P    175
0.785398163397449;                                                   159P    176
128,1,2,1,2,0,0,0,0,0,-0.333333333333333,-0.333333333333333,1.,      161P    177
1.,-0.785398163397448,-0.785398163397448,-0.785398163397448,         161P    178
0.785398163397448,0.785398163397448,0.785398163397448,1.,1.,         161P    179
0.707106781186548,0.707106781186548,1.,1.,-2.,3.,0.,-2.,-1.,0.,      161P    180
-5.,3.,0.,-5.,-1.,0.,-5.,3.,3.,-5.,-1.,3.,-0.333333333333333,1.,     161P    181
-0.785398163397448,0.785398163397448;                                161P    182
128,1,1,1,1,0,0,1,0,0,0.3,0.3,0.7,0.7,-0.1,-0.1,0.3,0.3,1.,1.,       163P    183
1.,1.,-5.,-1.,3.,-5.,-1.,7.,-5.,3.,3.,-5.,3.,7.,0.3,0.7,-0.1,        163P    184
0.3;                                                                 163P    185
128,1,2,1,2,0,0,0,0,0,-0.333333333333333,-0.333333333333333,1.,      165P    186
1.,-0.785398163397448,-0.785398163397448,-0.785398163397448,         165P    187
0.785398163397448,0.785398163397448,0.785398163397448,1.,1.,         165P    188
0.707106781186548,0.707106781186548,1.,1.,-5.,3.,7.,-5.,-1.,7.,      165P    189
-5.,3.,10.,-5.,-1.,10.,-2.,3.,10.,-2.,-1.,10.,                       165P    190
-0.333333333333333,1.,-0.785398163397448,0.785398163397448;          165P    191
128,1,1,1,1,0,0,1,0,0,-1.05,-1.05,0.2,0.2,-0.1,-0.1,0.8,0.8,1.,      167P    192
1.,1.,1.,-2.,-1.,10.,10.5,-1.,10.,-2.,8.,10.,10.5,8.,10.,-1.05,      167P    193
0.2,-0.1,0.8;                                                        167P    194
128,1,2,1,2,0,0,0,0,0,-5.,-5.,5.,5.,-0.785398163397448,              169P    195
-0.785398163397448,-0.785398163397448,0.785398163397448,             169P    196
0.785398163397448,0.785398163397448,1.,1.,0.707106781186548,         169P    197
0.707106781186548,1.,1.,7.5,8.,0.,7.5,8.,10.,8.5,8.,0.,8.5,8.,       169P    198
10.,8.5,7.,0.,8.5,7.,10.,-5.,5.,-0.785398163397448,                  169P    199
0.785398163397448;                                                   169P    200
128,1,1,1,1,0,0,1,0,0,0.,0.,1.,1.,0.3,0.3,0.7,0.7,1.,1.,1.,1.,       171P    201
8.5,3.,10.,8.5,3.,0.,8.5,7.,10.,8.5,7.,0.,0.,1.,0.3,0.7;             171P    202
128,1,2,1,2,0,0,0,0,0,-5.,-5.,5.,5.,-0.785398163397448,              173P    203
-0.785398163397448,-0.785398163397448,0.785398163397449,             173P    204
0.785398163397449,0.785398163397449,1.,1.,0.707106781186548,         173P    205
0.707106781186548,1.,1.,1.,8.,10.,1.,8.,5.55111512312578D-16,        173P    206
4.16333634234434D-16,8.,10.,4.16333634234434D-16,8.,                 173P    207
5.55111512312578D-16,-2.77555756156289D-16,7.,10.,                   173P    208
-2.77555756156289D-16,7.,5.55111512312578D-16,-5.,5.,                173P    209
-0.785398163397448,0.785398163397449;                                173P    210
128,1,1,1,1,0,0,1,0,0,0.,0.,1.,1.,0.3,0.3,0.7,0.7,1.,1.,1.,1.,       175P    211
0.,3.,0.,0.,3.,10.,0.,7.,0.,0.,7.,10.,0.,1.,0.3,0.7;                 175P    212
128,1,1,1,1,0,0,1,0,0,-1.,-1.,0.,0.,-0.325,-0.325,0.325,0.325,       177P    213
1.,1.,1.,1.,1.,8.,0.,1.,8.,10.,7.5,8.,0.,7.5,8.,10.,-1.,0.,          177P    214
-0.325,0.325;                                                        177P    215
128,1,1,1,1,0,0,1,0,0,0.425,0.425,0.925,0.925,0.,0.,1.,1.,1.,1.,     179P    216
1.,1.,8.5,3.,10.,13.5,3.,10.,8.5,3.,0.,13.5,3.,0.,0.425,0.925,       179P    217
0.,1.;                                                               179P    218
128,1,1,1,1,0,0,1,0,0,-0.925,-0.925,-0.425,-0.425,0.,0.,1.,1.,       181P    219
1.,1.,1.,1.,-5.,3.,10.,0.,3.,10.,-5.,3.,0.,0.,3.,0.,-0.925,          181P    220
-0.425,0.,1.;                                                        181P    221
128,1,1,1,1,0,0,1,0,0,0.3,0.3,1.55,1.55,-0.1,-0.1,0.8,0.8,1.,1.,     183P    222
1.,1.,10.5,-1.,0.,-2.,-1.,0.,10.5,8.,0.,-2.,8.,0.,0.3,1.55,-0.1,     183P    223
0.8;                                                                 183P    224
502,28,13.5,-1.,3.,10.5,-1.,0.,10.5,3.,0.,13.5,3.,3.,13.5,-1.,       185P    225
7.,10.5,-1.,10.,-2.,-1.,10.,-5.,-1.,7.,-5.,-1.,3.,-2.,-1.,0.,        185P    226
13.5,3.,7.,10.5,3.,10.,-5.,3.,3.,-2.,3.,0.,-5.,3.,7.,-2.,3.,10.,     185P    227
8.5,3.,10.,8.5,7.,10.,7.5,8.,10.,1.,8.,10.,0.,7.,10.,0.,3.,10.,      185P    228
8.5,7.,0.,7.5,8.,0.,8.5,3.,0.,1.,8.,0.,0.,7.,0.,0.,3.,0.;            185P    229
504,42,69,185,1,185,2,71,185,2,185,3,73,185,3,185,4,75,185,4,        187P    230
185,1,77,185,1,185,5,79,185,6,185,5,81,185,6,185,7,83,185,8,185,     187P    231
7,85,185,8,185,9,87,185,10,185,9,89,185,10,185,2,91,185,11,185,      187P    232
4,93,185,5,185,11,95,185,11,185,12,97,185,12,185,6,99,185,13,        187P    233
185,14,101,185,14,185,10,103,185,9,185,13,105,185,15,185,8,107,      187P    234
185,13,185,15,109,185,16,185,15,111,185,7,185,16,113,185,17,185,     187P    235
12,115,185,18,185,17,117,185,19,185,18,119,185,20,185,19,121,        187P    236
185,21,185,20,123,185,22,185,21,125,185,16,185,22,127,185,23,        187P    237
185,24,129,185,24,185,19,131,185,18,185,23,133,185,25,185,17,        187P    238
135,185,25,185,23,137,185,20,185,26,139,185,26,185,27,141,185,       187P    239
27,185,21,143,185,28,185,27,145,185,28,185,22,147,185,24,185,26,     187P    240
149,185,3,185,25,151,185,28,185,14;                                  187P    241
406,1,5HBody2;                                                       189P    242
314,0.,0.,0.,13HSemi-Polished;                                       191P    243
S      1G      2D    192P    243                                        T      1
