                                                                        S      1
,,6HClamp2,6HClamp2,7Hunknown,7Hunknown,32,38,7,99,15,,1.,2,2HMM,1,0.08,G      1
15H20150604.204713,0.01,10000.,7Hunknown,7Hunknown,11,0,;               G      2
     186       1                                                00000000D      1
     186            -215       1       0                               0D      2
     514       2                                                00010000D      3
     514                       2       1                               0D      4
     510       4                                                00010000D      5
     510            -215       1       1                               0D      6
     510       5                                                00010000D      7
     510            -215       1       1                               0D      8
     510       6                                                00010000D      9
     510            -215       1       1                               0D     10
     510       7                                                00010000D     11
     510            -215       1       1                               0D     12
     510       8                                                00010000D     13
     510            -215       1       1                               0D     14
     510       9                                                00010000D     15
     510            -215       1       1                               0D     16
     510      10                                                00010000D     17
     510            -215       1       1                               0D     18
     510      11                                                00010000D     19
     510            -215       1       1                               0D     20
     510      12                                                00010000D     21
     510            -215       1       1                               0D     22
     510      13                                                00010000D     23
     510            -215       1       1                               0D     24
     510      14                                                00010000D     25
     510            -215       1       1                               0D     26
     510      15                                                00010000D     27
     510            -215       1       1                               0D     28
     510      16                                                00010000D     29
     510            -215       1       1                               0D     30
     510      17                                                00010000D     31
     510            -215       1       1                               0D     32
     510      18                                                00010000D     33
     510            -215       1       1                               0D     34
     510      19                                                00010000D     35
     510            -215       1       1                               0D     36
     510      20                                                00010000D     37
     510            -215       1       1                               0D     38
     508      21                                                00010000D     39
     508                       1       1                               0D     40
     508      22                                                00010000D     41
     508                       1       1                               0D     42
     508      23                                                00010000D     43
     508                       2       1                               0D     44
     508      25                                                00010000D     45
     508                       1       1                               0D     46
     508      26                                                00010000D     47
     508                       2       1                               0D     48
     508      28                                                00010000D     49
     508                       2       1                               0D     50
     508      30                                                00010000D     51
     508                       1       1                               0D     52
     508      31                                                00010000D     53
     508                       1       1                               0D     54
     508      32                                                00010000D     55
     508                       3       1                               0D     56
     508      35                                                00010000D     57
     508                       1       1                               0D     58
     508      36                                                00010000D     59
     508                       1       1                               0D     60
     508      37                                                00010000D     61
     508                       2       1                               0D     62
     508      39                                                00010000D     63
     508                       1       1                               0D     64
     508      40                                                00010000D     65
     508                       1       1                               0D     66
     508      41                                                00010000D     67
     508                       1       1                               0D     68
     508      42                                                00010000D     69
     508                       1       1                               0D     70
     508      43                                                00010000D     71
     508                       1       1                               0D     72
     508      44                                                00010000D     73
     508                       1       1                               0D     74
     508      45                                                00010000D     75
     508                       1       1                               0D     76
     508      46                                                00010000D     77
     508                       1       1                               0D     78
     508      47                                                00010000D     79
     508                       1       1                               0D     80
     508      48                                                00010000D     81
     508                       1       1                               0D     82
     126      49                                                00010000D     83
     126       0               4       0                               0D     84
     126      53                                                00010000D     85
     126       0               2       0                               0D     86
     126      55                                                00010000D     87
     126       0               4       0                               0D     88
     126      59                                                00010000D     89
     126       0               2       0                               0D     90
     126      61                                                00010000D     91
     126       0               2       0                               0D     92
     126      63                                                00010000D     93
     126       0               2       0                               0D     94
     126      65                                                00010000D     95
     126       0               2       0                               0D     96
     126      67                                                00010000D     97
     126       0               2       0                               0D     98
     126      69                                                00010000D     99
     126       0               2       0                               0D    100
     126      71                                                00010000D    101
     126       0               2       0                               0D    102
     126      73                                                00010000D    103
     126       0               4       0                               0D    104
     126      77                                                00010000D    105
     126       0               2       0                               0D    106
     126      79                                                00010000D    107
     126       0               4       0                               0D    108
     126      83                                                00010000D    109
     126       0               2       0                               0D    110
     126      85                                                00010000D    111
     126       0               2       0                               0D    112
     126      87                                                00010000D    113
     126       0               2       0                               0D    114
     126      89                                                00010000D    115
     126       0               2       0                               0D    116
     126      91                                                00010000D    117
     126       0               2       0                               0D    118
     126      93                                                00010000D    119
     126       0               2       0                               0D    120
     126      95                                                00010000D    121
     126       0               2       0                               0D    122
     126      97                                                00010000D    123
     126       0               2       0                               0D    124
     126      99                                                00010000D    125
     126       0               2       0                               0D    126
     126     101                                                00010000D    127
     126       0               2       0                               0D    128
     126     103                                                00010000D    129
     126       0               2       0                               0D    130
     126     105                                                00010000D    131
     126       0               2       0                               0D    132
     126     107                                                00010000D    133
     126       0               2       0                               0D    134
     126     109                                                00010000D    135
     126       0               2       0                               0D    136
     126     111                                                00010000D    137
     126       0               2       0                               0D    138
     126     113                                                00010000D    139
     126       0               2       0                               0D    140
     126     115                                                00010000D    141
     126       0               2       0                               0D    142
     126     117                                                00010000D    143
     126       0               2       0                               0D    144
     126     119                                                00010000D    145
     126       0               8       0                               0D    146
     126     127                                                00010000D    147
     126       0               8       0                               0D    148
     126     135                                                00010000D    149
     126       0               2       0                               0D    150
     126     137                                                00010000D    151
     126       0               2       0                               0D    152
     126     139                                                00010000D    153
     126       0               2       0                               0D    154
     126     141                                                00010000D    155
     126       0               2       0                               0D    156
     126     143                                                00010000D    157
     126       0               2       0                               0D    158
     126     145                                                00010000D    159
     126       0               2       0                               0D    160
     126     147                                                00010000D    161
     126       0               8       0                               0D    162
     126     155                                                00010000D    163
     126       0               2       0                               0D    164
     126     157                                                00010000D    165
     126       0               9       0                               0D    166
     126     166                                                00010000D    167
     126       0               2       0                               0D    168
     126     168                                                00010000D    169
     126       0               2       0                               0D    170
     126     170                                                00010000D    171
     126       0               2       0                               0D    172
     126     172                                                00010000D    173
     126       0               2       0                               0D    174
     128     174                                                00010000D    175
     128       0    -215       7       0                               0D    176
     128     181                                                00010000D    177
     128       0    -215       4       0                               0D    178
     128     185                                                00010000D    179
     128       0    -215       4       0                               0D    180
     128     189                                                00010000D    181
     128       0    -215       6       0                               0D    182
     128     195                                                00010000D    183
     128       0    -215       3       0                               0D    184
     128     198                                                00010000D    185
     128       0    -215       3       0                               0D    186
     128     201                                                00010000D    187
     128       0    -215       2       0                               0D    188
     128     203                                                00010000D    189
     128       0    -215       2       0                               0D    190
     128     205                                                00010000D    191
     128       0    -215       4       0                               0D    192
     128     209                                                00010000D    193
     128       0    -215       3       0                               0D    194
     128     212                                                00010000D    195
     128       0    -215       2       0                               0D    196
     128     214                                                00010000D    197
     128       0    -215      12       0                               0D    198
     128     226                                                00010000D    199
     128       0    -215      13       0                               0D    200
     128     239                                                00010000D    201
     128       0    -215       2       0                               0D    202
     128     241                                                00010000D    203
     128       0    -215       4       0                               0D    204
     128     245                                                00010000D    205
     128       0    -215       2       0                               0D    206
     128     247                                                00010000D    207
     128       0    -215       4       0                               0D    208
     502     251                                                00010000D    209
     502                       6       1                               0D    210
     504     257                                                00010001D    211
     504                      13       1                               0D    212
     406     270                                                00000000D    213
     406                       1      15                               0D    214
     314     271                                                00000200D    215
     314                       2       0                               0D    216
186,3,1,0,0,1,213;                                                     1P      1
514,17,5,1,7,1,9,1,11,1,13,1,15,1,17,1,19,1,21,1,23,1,25,1,27,1,       3P      2
29,1,31,1,33,1,35,1,37,1;                                              3P      3
510,175,1,1,39;                                                        5P      4
510,177,1,1,41;                                                        7P      5
510,179,1,1,43;                                                        9P      6
510,181,1,1,45;                                                       11P      7
510,183,1,1,47;                                                       13P      8
510,185,1,1,49;                                                       15P      9
510,187,1,1,51;                                                       17P     10
510,189,1,1,53;                                                       19P     11
510,191,3,1,55,57,59;                                                 21P     12
510,193,1,1,61;                                                       23P     13
510,195,1,1,63;                                                       25P     14
510,197,1,1,65;                                                       27P     15
510,199,1,1,67;                                                       29P     16
510,201,1,1,69;                                                       31P     17
510,203,1,1,71;                                                       33P     18
510,205,1,1,73;                                                       35P     19
510,207,4,1,75,77,79,81;                                              37P     20
508,4,0,211,1,1,0,0,211,2,1,0,0,211,3,1,0,0,211,4,1,0;                39P     21
508,4,0,211,2,0,0,0,211,5,1,0,0,211,6,0,0,0,211,7,0,0;                41P     22
508,6,0,211,1,0,0,0,211,8,0,0,0,211,9,1,0,0,211,10,0,0,0,211,11,      43P     23
0,0,0,211,5,0,0;                                                      43P     24
508,4,0,211,11,1,0,0,211,12,1,0,0,211,13,1,0,0,211,6,1,0;             45P     25
508,6,0,211,3,0,0,0,211,7,1,0,0,211,13,0,0,0,211,14,0,0,0,211,        47P     26
15,0,0,0,211,16,1,0;                                                  47P     27
508,6,0,211,12,0,0,0,211,10,1,0,0,211,17,0,0,0,211,18,1,0,0,211,      49P     28
19,0,0,0,211,14,1,0;                                                  49P     29
508,4,0,211,19,1,0,0,211,20,0,0,0,211,21,0,0,0,211,22,1,0;            51P     30
508,4,0,211,17,1,0,0,211,23,1,0,0,211,24,1,0,0,211,25,0,0;            53P     31
508,10,0,211,15,1,0,0,211,22,0,0,0,211,26,0,0,0,211,23,0,0,0,         55P     32
211,9,0,0,0,211,27,0,0,0,211,28,0,0,0,211,29,0,0,0,211,30,0,0,0,      55P     33
211,31,0,0;                                                           55P     34
508,1,0,211,32,0,0;                                                   57P     35
508,1,0,211,33,0,0;                                                   59P     36
508,8,0,211,4,0,0,0,211,16,0,0,0,211,31,1,0,0,211,34,1,0,0,211,       61P     37
35,0,0,0,211,36,0,0,0,211,27,1,0,0,211,8,1,0;                         61P     38
508,4,0,211,30,1,0,0,211,37,0,0,0,211,38,0,0,0,211,34,0,0;            63P     39
508,4,0,211,33,1,0,0,211,39,1,0,0,211,40,0,0,0,211,39,0,0;            65P     40
508,4,0,211,32,1,0,0,211,41,1,0,0,211,42,0,0,0,211,41,0,0;            67P     41
508,4,0,211,26,1,0,0,211,21,1,0,0,211,43,0,0,0,211,24,0,0;            69P     42
508,4,0,211,28,1,0,0,211,36,1,0,0,211,44,0,0,0,211,45,0,0;            71P     43
508,4,0,211,29,1,0,0,211,45,1,0,0,211,46,0,0,0,211,37,1,0;            73P     44
508,4,0,211,35,1,0,0,211,38,1,0,0,211,46,1,0,0,211,44,1,0;            75P     45
508,1,0,211,40,1,0;                                                   77P     46
508,1,0,211,42,1,0;                                                   79P     47
508,4,0,211,18,0,0,0,211,25,1,0,0,211,43,1,0,0,211,20,1,0;            81P     48
126,2,2,0,0,0,0,-0.785398163397448,-0.785398163397448,                83P     49
-0.785398163397448,0.785398163397448,0.785398163397448,               83P     50
0.785398163397448,1.,0.707106781186548,1.,-5.5,11.,2.5,-5.5,11.,      83P     51
4.,-4.,11.,4.,-0.785398163397448,0.785398163397448,0.,0.,0.;          83P     52
126,1,1,0,0,1,0,0.35,0.35,1.15,1.15,1.,1.,-4.,11.,4.,-4.,19.,4.,      85P     53
0.35,1.15,0.,0.,0.;                                                   85P     54
126,2,2,0,0,0,0,-0.785398163397448,-0.785398163397448,                87P     55
-0.785398163397448,0.785398163397448,0.785398163397448,               87P     56
0.785398163397448,1.,0.707106781186548,1.,-4.,19.,4.,-5.5,19.,        87P     57
4.,-5.5,19.,2.5,-0.785398163397448,0.785398163397448,0.,0.,0.;        87P     58
126,1,1,0,0,1,0,-1.15,-1.15,-0.35,-0.35,1.,1.,-5.5,19.,2.5,-5.5,      89P     59
11.,2.5,-1.15,-0.35,0.,0.,0.;                                         89P     60
126,1,1,0,0,1,0,0.15,0.15,0.25,0.25,1.,1.,-4.,11.,4.,-3.,11.,4.,      91P     61
0.15,0.25,0.,0.,0.;                                                   91P     62
126,1,1,0,0,1,0,-0.6,-0.6,0.2,0.2,1.,1.,-3.,19.,4.,-3.,11.,4.,        93P     63
-0.6,0.2,0.,0.,0.;                                                    93P     64
126,1,1,0,0,1,0,-0.15,-0.15,-0.05,-0.05,1.,1.,-4.,19.,4.,-3.,         95P     65
19.,4.,-0.15,-0.05,0.,0.,0.;                                          95P     66
126,1,1,0,0,1,0,0.,0.,0.25,0.25,1.,1.,-5.5,11.,0.,-5.5,11.,2.5,       97P     67
0.,0.25,0.,0.,0.;                                                     97P     68
126,1,1,0,0,1,0,-0.275,-0.275,0.125,0.125,1.,1.,-5.5,11.,0.,          99P     69
-1.5,11.,0.,-0.275,0.125,0.,0.,0.;                                    99P     70
126,1,1,0,0,1,0,-0.25,-0.25,0.,0.,1.,1.,-1.5,11.,2.5,-1.5,11.,       101P     71
0.,-0.25,0.,0.,0.,0.;                                                101P     72
126,2,2,0,0,0,0,-0.785398163397448,-0.785398163397448,               103P     73
-0.785398163397448,0.785398163397448,0.785398163397448,              103P     74
0.785398163397448,1.,0.707106781186548,1.,-3.,11.,4.,-1.5,11.,       103P     75
4.,-1.5,11.,2.5,-0.785398163397448,0.785398163397448,0.,0.,0.;       103P     76
126,1,1,0,0,1,0,-0.2,-0.2,0.6,0.6,1.,1.,-1.5,11.,2.5,-1.5,19.,       105P     77
2.5,-0.2,0.6,0.,0.,0.;                                               105P     78
126,2,2,0,0,0,0,-0.785398163397448,-0.785398163397448,               107P     79
-0.785398163397448,0.785398163397448,0.785398163397448,              107P     80
0.785398163397448,1.,0.707106781186548,1.,-1.5,19.,2.5,-1.5,19.,     107P     81
4.,-3.,19.,4.,-0.785398163397448,0.785398163397448,0.,0.,0.;         107P     82
126,1,1,0,0,1,0,0.,0.,0.25,0.25,1.,1.,-1.5,19.,0.,-1.5,19.,2.5,      109P     83
0.,0.25,0.,0.,0.;                                                    109P     84
126,1,1,0,0,1,0,-0.425,-0.425,-0.025,-0.025,1.,1.,-5.5,19.,0.,       111P     85
-1.5,19.,0.,-0.425,-0.025,0.,0.,0.;                                  111P     86
126,1,1,0,0,1,0,0.,0.,0.25,0.25,1.,1.,-5.5,19.,0.,-5.5,19.,2.5,      113P     87
0.,0.25,0.,0.,0.;                                                    113P     88
126,1,1,0,0,1,0,-0.4,-0.4,0.,0.,1.,1.,-1.5,11.,-4.,-1.5,11.,0.,      115P     89
-0.4,0.,0.,0.,0.;                                                    115P     90
126,1,1,0,0,1,0,-0.8,-0.8,0.,0.,1.,1.,-1.5,11.,-4.,-1.5,19.,-4.,     117P     91
-0.8,0.,0.,0.,0.;                                                    117P     92
126,1,1,0,0,1,0,0.,0.,0.4,0.4,1.,1.,-1.5,19.,0.,-1.5,19.,-4.,0.,     119P     93
0.4,0.,0.,0.;                                                        119P     94
126,1,1,0,0,1,0,0.,0.,0.4,0.4,1.,1.,2.5,19.,-4.,-1.5,19.,-4.,0.,     121P     95
0.4,0.,0.,0.;                                                        121P     96
126,1,1,0,0,1,0,0.,0.,0.4,0.4,1.,1.,2.5,19.,0.,2.5,19.,-4.,0.,       123P     97
0.4,0.,0.,0.;                                                        123P     98
126,1,1,0,0,1,0,-0.125,-0.125,0.275,0.275,1.,1.,2.5,19.,0.,-1.5,     125P     99
19.,0.,-0.125,0.275,0.,0.,0.;                                        125P    100
126,1,1,0,0,1,0,0.125,0.125,0.525,0.525,1.,1.,-1.5,11.,0.,2.5,       127P    101
11.,0.,0.125,0.525,0.,0.,0.;                                         127P    102
126,1,1,0,0,1,0,0.,0.,0.4,0.4,1.,1.,2.5,11.,0.,2.5,11.,-4.,0.,       129P    103
0.4,0.,0.,0.;                                                        129P    104
126,1,1,0,0,1,0,0.4,0.4,0.8,0.8,1.,1.,-1.5,11.,-4.,2.5,11.,-4.,      131P    105
0.4,0.8,0.,0.,0.;                                                    131P    106
126,1,1,0,0,1,0,-0.35,-0.35,0.45,0.45,1.,1.,2.5,11.,0.,2.5,19.,      133P    107
0.,-0.35,0.45,0.,0.,0.;                                              133P    108
126,1,1,0,0,1,0,-0.9,-0.9,0.2,0.2,1.,1.,-5.5,0.,0.,-5.5,11.,0.,      135P    109
-0.9,0.2,0.,0.,0.;                                                   135P    110
126,1,1,0,0,1,0,-0.275,-0.275,0.825,0.825,1.,1.,5.5,0.,0.,-5.5,      137P    111
0.,0.,-0.275,0.825,0.,0.,0.;                                         137P    112
126,1,1,0,0,1,0,-0.9,-0.9,2.7,2.7,1.,1.,5.5,36.,0.,5.5,0.,0.,        139P    113
-0.9,2.7,0.,0.,0.;                                                   139P    114
126,1,1,0,0,1,0,-0.275,-0.275,0.825,0.825,1.,1.,-5.5,36.,0.,5.5,     141P    115
36.,0.,-0.275,0.825,0.,0.,0.;                                        141P    116
126,1,1,0,0,1,0,1.,1.,2.7,2.7,1.,1.,-5.5,19.,0.,                     143P    117
-5.50000000000001,36.,0.,1.,2.7,0.,0.,0.;                            143P    118
126,8,2,0,1,0,0,-3.14159265358979,-3.14159265358979,                 145P    119
-3.14159265358979,-1.5707963267949,-1.5707963267949,0.,0.,           145P    120
1.5707963267949,1.5707963267949,3.14159265358979,                    145P    121
3.14159265358979,3.14159265358979,1.,0.707106781186548,1.,           145P    122
0.707106781186542,1.,0.707106781186542,1.,0.707106781186548,1.,      145P    123
-2.,32.5,0.,-2.,30.5,0.,-9.87758344710421D-16,30.5,0.,2.,30.5,       145P    124
0.,2.,32.5,0.,2.,34.5,0.,-9.87758344710421D-16,34.5,0.,-2.,34.5,     145P    125
0.,-2.,32.5,0.,-3.14159265358979,3.14159265358979,0.,0.,0.;          145P    126
126,8,2,0,1,0,0,-3.14159265358979,-3.14159265358979,                 147P    127
-3.14159265358979,-1.5707963267949,-1.5707963267949,0.,0.,           147P    128
1.5707963267949,1.5707963267949,3.14159265358979,                    147P    129
3.14159265358979,3.14159265358979,1.,0.707106781186548,1.,           147P    130
0.707106781186548,1.,0.707106781186547,1.,0.707106781186548,1.,      147P    131
-2.,3.5,0.,-2.,1.5,0.,-9.87758344710421D-16,1.5,0.,2.,1.5,0.,2.,     147P    132
3.5,0.,2.,5.5,0.,-9.87758344710421D-16,5.5,0.,-2.,5.5,0.,-2.,        147P    133
3.5,0.,-3.14159265358979,3.14159265358979,0.,0.,0.;                  147P    134
126,1,1,0,0,1,0,0.,0.,0.4,0.4,1.,1.,-5.5,36.,0.,-5.5,36.,-4.,0.,     149P    135
0.4,0.,0.,0.;                                                        149P    136
126,1,1,0,0,1,0,0.,0.,3.6,3.6,1.,1.,-5.5,0.,-4.,                     151P    137
-5.50000000000001,36.,-4.,0.,3.6,0.,0.,0.;                           151P    138
126,1,1,0,0,1,0,0.,0.,0.4,0.4,1.,1.,-5.5,0.,0.,-5.5,0.,-4.,0.,       153P    139
0.4,0.,0.,0.;                                                        153P    140
126,1,1,0,0,1,0,-0.4,-0.4,0.,0.,1.,1.,5.5,36.,-4.,5.5,36.,0.,        155P    141
-0.4,0.,0.,0.,0.;                                                    155P    142
126,1,1,0,0,1,0,0.,0.,1.1,1.1,1.,1.,-5.5,36.,-4.,5.5,36.,-4.,0.,     157P    143
1.1,0.,0.,0.;                                                        157P    144
126,1,1,0,0,1,0,18.,18.,20.,20.,1.,1.,-2.,3.5,0.,-2.,3.5,-4.,        159P    145
18.,20.,0.,0.,0.;                                                    159P    146
126,8,2,0,1,0,0,-3.14159265358979,-3.14159265358979,                 161P    147
-3.14159265358979,-1.5707963267949,-1.5707963267949,0.,0.,           161P    148
1.5707963267949,1.5707963267949,3.14159265358979,                    161P    149
3.14159265358979,3.14159265358979,1.,0.707106781186548,1.,           161P    150
0.707106781186548,1.,0.707106781186547,1.,0.707106781186548,1.,      161P    151
-2.,3.5,-4.,-2.,1.5,-4.,-9.87758344710421D-16,1.5,-4.,2.,1.5,        161P    152
-4.,2.,3.5,-4.,2.,5.5,-4.,-9.87758344710421D-16,5.5,-4.,-2.,5.5,     161P    153
-4.,-2.,3.5,-4.,-3.14159265358979,3.14159265358979,0.,0.,0.;         161P    154
126,1,1,0,0,1,0,18.,18.,20.,20.,1.,1.,-2.,32.5,0.,-2.,32.5,-4.,      163P    155
18.,20.,0.,0.,0.;                                                    163P    156
126,8,2,0,1,0,0,-3.14159265358979,-3.14159265358979,                 165P    157
-3.14159265358979,-1.5707963267949,-1.5707963267949,0.,0.,           165P    158
1.5707963267949,1.5707963267949,3.14159265358979,                    165P    159
3.14159265358979,3.14159265358979,1.,0.707106781186548,1.,           165P    160
0.707106781186542,1.,0.707106781186542,1.,0.707106781186548,1.,      165P    161
-2.,32.5,-4.,-2.,30.5,-4.,-9.87758344710421D-16,30.5,-4.,2.,         165P    162
30.5,-4.,2.,32.5,-4.,2.,34.5,-4.,-9.87758344710421D-16,34.5,-4.,     165P    163
-2.,34.5,-4.,-2.,32.5,-4.,-3.14159265358979,3.14159265358979,0.,     165P    164
0.,0.;                                                               165P    165
126,1,1,0,0,1,0,0.,0.,0.8,0.8,1.,1.,2.5,11.,-4.,2.5,19.,-4.,0.,      167P    166
0.8,0.,0.,0.;                                                        167P    167
126,1,1,0,0,1,0,4.9,4.9,6.,6.,1.,1.,5.5,0.,-4.,-5.5,0.,-4.,4.9,      169P    168
6.,0.,0.,0.;                                                         169P    169
126,1,1,0,0,1,0,0.,0.,0.4,0.4,1.,1.,5.5,0.,0.,5.5,0.,-4.,0.,0.4,     171P    170
0.,0.,0.;                                                            171P    171
126,1,1,0,0,1,0,0.,0.,3.6,3.6,1.,1.,5.5,36.,-4.,5.5,0.,-4.,0.,       173P    172
3.6,0.,0.,0.;                                                        173P    173
128,1,2,1,2,0,0,0,0,0,-7.66666666666666,-7.66666666666666,           175P    174
-2.33333333333333,-2.33333333333333,-0.785398163397448,              175P    175
-0.785398163397448,-0.785398163397448,0.785398163397448,             175P    176
0.785398163397448,0.785398163397448,1.,1.,0.707106781186548,         175P    177
0.707106781186548,1.,1.,-4.,11.,4.,-4.,19.,4.,-5.5,11.,4.,-5.5,      175P    178
19.,4.,-5.5,11.,2.5,-5.5,19.,2.5,-7.66666666666666,                  175P    179
-2.33333333333333,-0.785398163397448,0.785398163397448;              175P    180
128,1,1,1,1,0,0,1,0,0,-2.22044604925031D-16,                         177P    181
-2.22044604925031D-16,0.0999999999999999,0.0999999999999999,         177P    182
-0.4,-0.4,0.4,0.4,1.,1.,1.,1.,-4.,11.,4.,-3.,11.,4.,-4.,19.,4.,      177P    183
-3.,19.,4.,-2.22044604925031D-16,0.0999999999999999,-0.4,0.4;        177P    184
128,1,1,1,1,0,0,1,0,0,-1.11022302462516D-16,                         179P    185
-1.11022302462516D-16,0.4,0.4,0.,0.,0.4,0.4,1.,1.,1.,1.,-5.5,        179P    186
11.,0.,-1.5,11.,0.,-5.5,11.,4.,-1.5,11.,4.,                          179P    187
-1.11022302462516D-16,0.4,0.,0.4;                                    179P    188
128,1,2,1,2,0,0,0,0,0,-4.,-4.,1.33333333333333,1.33333333333333,     181P    189
-0.785398163397448,-0.785398163397448,-0.785398163397448,            181P    190
0.785398163397448,0.785398163397448,0.785398163397448,1.,1.,         181P    191
0.707106781186548,0.707106781186548,1.,1.,-1.5,11.,2.5,-1.5,19.,     181P    192
2.5,-1.5,11.,4.,-1.5,19.,4.,-3.,11.,4.,-3.,19.,4.,-4.,               181P    193
1.33333333333333,-0.785398163397448,0.785398163397448;               181P    194
128,1,1,1,1,0,0,1,0,0,-0.1,-0.1,0.3,0.3,0.,0.,0.4,0.4,1.,1.,1.,      183P    195
1.,-1.5,19.,0.,-5.5,19.,0.,-1.5,19.,4.,-5.5,19.,4.,-0.1,0.3,0.,      183P    196
0.4;                                                                 183P    197
128,1,1,1,1,0,0,1,0,0,-0.25,-0.25,0.4,0.4,0.,0.,0.8,0.8,1.,1.,       185P    198
1.,1.,-1.5,11.,2.5,-1.5,11.,-4.,-1.5,19.,2.5,-1.5,19.,-4.,-0.25,     185P    199
0.4,0.,0.8;                                                          185P    200
128,1,1,1,1,0,0,1,0,0,0.,0.,0.4,0.4,0.,0.,0.4,0.4,1.,1.,1.,1.,       187P    201
2.5,19.,0.,-1.5,19.,0.,2.5,19.,-4.,-1.5,19.,-4.,0.,0.4,0.,0.4;       187P    202
128,1,1,1,1,0,0,1,0,0,0.4,0.4,0.8,0.8,0.,0.,0.4,0.4,1.,1.,1.,1.,     189P    203
-1.5,11.,0.,2.5,11.,0.,-1.5,11.,-4.,2.5,11.,-4.,0.4,0.8,0.,0.4;      189P    204
128,1,1,1,1,0,0,1,0,0,-0.550000000000001,-0.550000000000001,         191P    205
0.55,0.55,-1.8,-1.8,1.8,1.8,1.,1.,1.,1.,-5.50000000000001,0.,0.,     191P    206
5.5,0.,0.,-5.50000000000001,36.,0.,5.5,36.,0.,                       191P    207
-0.550000000000001,0.55,-1.8,1.8;                                    191P    208
128,1,1,1,1,0,0,1,0,0,0.,0.,3.6,3.6,-0.25,-0.25,0.4,0.4,1.,1.,       193P    209
1.,1.,-5.5,0.,2.5,-5.50000000000001,36.,2.5,-5.5,0.,-4.,             193P    210
-5.50000000000001,36.,-4.,0.,3.6,-0.25,0.4;                          193P    211
128,1,1,1,1,0,0,1,0,0,0.,0.,1.1,1.1,0.,0.,0.4,0.4,1.,1.,1.,1.,       195P    212
-5.5,36.,0.,5.5,36.,0.,-5.5,36.,-4.,5.5,36.,-4.,0.,1.1,0.,0.4;       195P    213
128,1,8,1,2,0,1,0,0,1,18.,18.,20.,20.,-3.14159265358979,             197P    214
-3.14159265358979,-3.14159265358979,-1.5707963267949,                197P    215
-1.5707963267949,0.,0.,1.5707963267949,1.5707963267949,              197P    216
3.14159265358979,3.14159265358979,3.14159265358979,1.,1.,            197P    217
0.707106781186548,0.707106781186548,1.,1.,0.707106781186548,         197P    218
0.707106781186548,1.,1.,0.707106781186548,0.707106781186548,1.,      197P    219
1.,0.707106781186548,0.707106781186548,1.,1.,-2.,3.5,0.,-2.,3.5,     197P    220
-4.,-2.,5.5,0.,-2.,5.5,-4.,-1.11022302462516D-15,5.5,0.,             197P    221
-1.11022302462516D-15,5.5,-4.,2.,5.5,0.,2.,5.5,-4.,2.,3.5,0.,2.,     197P    222
3.5,-4.,2.,1.5,0.,2.,1.5,-4.,-1.11022302462516D-15,1.5,0.,           197P    223
-1.11022302462516D-15,1.5,-4.,-2.,1.5,0.,-2.,1.5,-4.,-2.,3.5,0.,     197P    224
-2.,3.5,-4.,18.,20.,-3.14159265358979,3.14159265358979;              197P    225
128,1,8,1,2,0,1,0,0,1,18.,18.,20.,20.,-3.14159265358979,             199P    226
-3.14159265358979,-3.14159265358979,-1.5707963267949,                199P    227
-1.5707963267949,0.,0.,1.5707963267949,1.5707963267949,              199P    228
3.14159265358979,3.14159265358979,3.14159265358979,1.,1.,            199P    229
0.707106781186548,0.707106781186548,1.,1.,0.707106781186548,         199P    230
0.707106781186548,1.,1.,0.707106781186548,0.707106781186548,1.,      199P    231
1.,0.707106781186548,0.707106781186548,1.,1.,-2.,32.5,0.,-2.,        199P    232
32.5,-4.,-2.,34.5,0.,-2.,34.5,-4.,-1.11022302462516D-15,34.5,0.,     199P    233
-1.11022302462516D-15,34.5,-4.,2.,34.5,0.,2.,34.5,-4.,2.,32.5,       199P    234
0.,2.,32.5,-4.,2.,30.5,0.,2.,30.5,-4.,-1.11022302462516D-15,         199P    235
30.5,0.,-1.11022302462516D-15,30.5,-4.,-2.,30.5,0.,-2.,30.5,-4.,     199P    236
-2.,32.5,0.,-2.,32.5,-4.,18.,20.,-3.14159265358979,                  199P    237
3.14159265358979;                                                    199P    238
128,1,1,1,1,0,0,1,0,0,0.,0.,0.8,0.8,0.,0.,0.4,0.4,1.,1.,1.,1.,       201P    239
2.5,11.,0.,2.5,19.,0.,2.5,11.,-4.,2.5,19.,-4.,0.,0.8,0.,0.4;         201P    240
128,1,1,1,1,0,0,1,0,0,-2.22044604925031D-16,                         203P    241
-2.22044604925031D-16,1.1,1.1,0.,0.,0.4,0.4,1.,1.,1.,1.,5.5,0.,      203P    242
0.,-5.5,0.,0.,5.5,0.,-4.,-5.5,0.,-4.,-2.22044604925031D-16,1.1,      203P    243
0.,0.4;                                                              203P    244
128,1,1,1,1,0,0,1,0,0,0.,0.,3.6,3.6,0.,0.,0.4,0.4,1.,1.,1.,1.,       205P    245
5.5,36.,0.,5.5,0.,0.,5.5,36.,-4.,5.5,0.,-4.,0.,3.6,0.,0.4;           205P    246
128,1,1,1,1,0,0,1,0,0,-0.55,-0.55,0.550000000000001,                 207P    247
0.550000000000001,-1.8,-1.8,1.8,1.8,1.,1.,1.,1.,5.5,0.,-4.,          207P    248
-5.50000000000001,0.,-4.,5.5,36.,-4.,-5.50000000000001,36.,-4.,      207P    249
-0.55,0.550000000000001,-1.8,1.8;                                    207P    250
502,30,-5.5,11.,2.5,-4.,11.,4.,-4.,19.,4.,-5.5,19.,2.5,-3.,11.,      209P    251
4.,-3.,19.,4.,-5.5,11.,0.,-1.5,11.,0.,-1.5,11.,2.5,-1.5,19.,2.5,     209P    252
-1.5,19.,0.,-5.5,19.,0.,-1.5,11.,-4.,-1.5,19.,-4.,2.5,19.,-4.,       209P    253
2.5,19.,0.,2.5,11.,0.,2.5,11.,-4.,-5.5,0.,0.,5.5,0.,0.,5.5,36.,      209P    254
0.,-5.5,36.,0.,-2.,32.5,0.,-2.,3.5,0.,-5.5,36.,-4.,-5.5,0.,-4.,      209P    255
5.5,36.,-4.,-2.,3.5,-4.,-2.,32.5,-4.,5.5,0.,-4.;                     209P    256
504,46,83,209,1,209,2,85,209,2,209,3,87,209,3,209,4,89,209,4,        211P    257
209,1,91,209,2,209,5,93,209,6,209,5,95,209,3,209,6,97,209,7,209,     211P    258
1,99,209,7,209,8,101,209,9,209,8,103,209,5,209,9,105,209,9,209,      211P    259
10,107,209,10,209,6,109,209,11,209,10,111,209,12,209,11,113,209,     211P    260
12,209,4,115,209,13,209,8,117,209,13,209,14,119,209,11,209,14,       211P    261
121,209,15,209,14,123,209,16,209,15,125,209,16,209,11,127,209,8,     211P    262
209,17,129,209,17,209,18,131,209,13,209,18,133,209,17,209,16,        211P    263
135,209,19,209,7,137,209,20,209,19,139,209,21,209,20,141,209,22,     211P    264
209,21,143,209,12,209,22,145,209,23,209,23,147,209,24,209,24,        211P    265
149,209,22,209,25,151,209,26,209,25,153,209,19,209,26,155,209,       211P    266
27,209,21,157,209,25,209,27,159,209,24,209,28,161,209,28,209,28,     211P    267
163,209,23,209,29,165,209,29,209,29,167,209,18,209,15,169,209,       211P    268
30,209,26,171,209,20,209,30,173,209,27,209,30;                       211P    269
406,1,5HBody1;                                                       213P    270
314,62.7450980392157,62.7450980392157,62.7450980392157,13HSteel      215P    271
- Satin;                                                             215P    272
S      1G      2D    216P    272                                        T      1
