                                                                        S      1
,,6HClamp2,6HClamp2,7Hunknown,7Hunknown,32,38,7,99,15,,1.,2,2HMM,1,0.08,G      1
15H20150722.163645,0.01,10000.,7Hunknown,7Hunknown,11,0,;               G      2
     186       1                                                00000000D      1
     186            -191       1       0                               0D      2
     514       2                                                00010000D      3
     514                       2       1                               0D      4
     510       4                                                00010000D      5
     510            -191       1       1                               0D      6
     510       5                                                00010000D      7
     510            -191       1       1                               0D      8
     510       6                                                00010000D      9
     510            -191       1       1                               0D     10
     510       7                                                00010000D     11
     510            -191       1       1                               0D     12
     510       8                                                00010000D     13
     510            -191       1       1                               0D     14
     510       9                                                00010000D     15
     510            -191       1       1                               0D     16
     510      10                                                00010000D     17
     510            -191       1       1                               0D     18
     510      11                                                00010000D     19
     510            -191       1       1                               0D     20
     510      12                                                00010000D     21
     510            -191       1       1                               0D     22
     510      13                                                00010000D     23
     510            -191       1       1                               0D     24
     510      14                                                00010000D     25
     510            -191       1       1                               0D     26
     510      15                                                00010000D     27
     510            -191       1       1                               0D     28
     510      16                                                00010000D     29
     510            -191       1       1                               0D     30
     510      17                                                00010000D     31
     510            -191       1       1                               0D     32
     510      18                                                00010000D     33
     510            -191       1       1                               0D     34
     508      19                                                00010000D     35
     508                       1       1                               0D     36
     508      20                                                00010000D     37
     508                       1       1                               0D     38
     508      21                                                00010000D     39
     508                       1       1                               0D     40
     508      22                                                00010000D     41
     508                       1       1                               0D     42
     508      23                                                00010000D     43
     508                       2       1                               0D     44
     508      25                                                00010000D     45
     508                       2       1                               0D     46
     508      27                                                00010000D     47
     508                       1       1                               0D     48
     508      28                                                00010000D     49
     508                       1       1                               0D     50
     508      29                                                00010000D     51
     508                       1       1                               0D     52
     508      30                                                00010000D     53
     508                       1       1                               0D     54
     508      31                                                00010000D     55
     508                       1       1                               0D     56
     508      32                                                00010000D     57
     508                       3       1                               0D     58
     508      35                                                00010000D     59
     508                       1       1                               0D     60
     508      36                                                00010000D     61
     508                       1       1                               0D     62
     508      37                                                00010000D     63
     508                       1       1                               0D     64
     508      38                                                00010000D     65
     508                       1       1                               0D     66
     508      39                                                00010000D     67
     508                       1       1                               0D     68
     508      40                                                00010000D     69
     508                       1       1                               0D     70
     508      41                                                00010000D     71
     508                       1       1                               0D     72
     508      42                                                00010000D     73
     508                       1       1                               0D     74
     126      43                                                00010000D     75
     126       0               2       0                               0D     76
     126      45                                                00010000D     77
     126       0               2       0                               0D     78
     126      47                                                00010000D     79
     126       0               2       0                               0D     80
     126      49                                                00010000D     81
     126       0               2       0                               0D     82
     126      51                                                00010000D     83
     126       0               8       0                               0D     84
     126      59                                                00010000D     85
     126       0               9       0                               0D     86
     126      68                                                00010000D     87
     126       0               2       0                               0D     88
     126      70                                                00010000D     89
     126       0               2       0                               0D     90
     126      72                                                00010000D     91
     126       0               2       0                               0D     92
     126      74                                                00010000D     93
     126       0               2       0                               0D     94
     126      76                                                00010000D     95
     126       0               2       0                               0D     96
     126      78                                                00010000D     97
     126       0               2       0                               0D     98
     126      80                                                00010000D     99
     126       0               2       0                               0D    100
     126      82                                                00010000D    101
     126       0               2       0                               0D    102
     126      84                                                00010000D    103
     126       0               2       0                               0D    104
     126      86                                                00010000D    105
     126       0               2       0                               0D    106
     126      88                                                00010000D    107
     126       0               2       0                               0D    108
     126      90                                                00010000D    109
     126       0               2       0                               0D    110
     126      92                                                00010000D    111
     126       0               2       0                               0D    112
     126      94                                                00010000D    113
     126       0               2       0                               0D    114
     126      96                                                00010000D    115
     126       0               2       0                               0D    116
     126      98                                                00010000D    117
     126       0               2       0                               0D    118
     126     100                                                00010000D    119
     126       0               2       0                               0D    120
     126     102                                                00010000D    121
     126       0               2       0                               0D    122
     126     104                                                00010000D    123
     126       0               2       0                               0D    124
     126     106                                                00010000D    125
     126       0               2       0                               0D    126
     126     108                                                00010000D    127
     126       0               2       0                               0D    128
     126     110                                                00010000D    129
     126       0               2       0                               0D    130
     126     112                                                00010000D    131
     126       0               2       0                               0D    132
     126     114                                                00010000D    133
     126       0               2       0                               0D    134
     126     116                                                00010000D    135
     126       0               2       0                               0D    136
     126     118                                                00010000D    137
     126       0               2       0                               0D    138
     126     120                                                00010000D    139
     126       0               2       0                               0D    140
     126     122                                                00010000D    141
     126       0               2       0                               0D    142
     126     124                                                00010000D    143
     126       0               8       0                               0D    144
     126     132                                                00010000D    145
     126       0               8       0                               0D    146
     126     140                                                00010000D    147
     126       0               2       0                               0D    148
     126     142                                                00010000D    149
     126       0               2       0                               0D    150
     126     144                                                00010000D    151
     126       0               2       0                               0D    152
     126     146                                                00010000D    153
     126       0               2       0                               0D    154
     128     148                                                00010000D    155
     128       0    -191       4       0                               0D    156
     128     152                                                00010000D    157
     128       0    -191       3       0                               0D    158
     128     155                                                00010000D    159
     128       0    -191       3       0                               0D    160
     128     158                                                00010000D    161
     128       0    -191       3       0                               0D    162
     128     161                                                00010000D    163
     128       0    -191       3       0                               0D    164
     128     164                                                00010000D    165
     128       0    -191       3       0                               0D    166
     128     167                                                00010000D    167
     128       0    -191       2       0                               0D    168
     128     169                                                00010000D    169
     128       0    -191       2       0                               0D    170
     128     171                                                00010000D    171
     128       0    -191       4       0                               0D    172
     128     175                                                00010000D    173
     128       0    -191       3       0                               0D    174
     128     178                                                00010000D    175
     128       0    -191      12       0                               0D    176
     128     190                                                00010000D    177
     128       0    -191      13       0                               0D    178
     128     203                                                00010000D    179
     128       0    -191       2       0                               0D    180
     128     205                                                00010000D    181
     128       0    -191       4       0                               0D    182
     128     209                                                00010000D    183
     128       0    -191       2       0                               0D    184
     502     211                                                00010000D    185
     502                       5       1                               0D    186
     504     216                                                00010001D    187
     504                      11       1                               0D    188
     406     227                                                00000000D    189
     406                       1      15                               0D    190
     314     228                                                00000200D    191
     314                       2       0                               0D    192
186,3,1,0,0,1,189;                                                     1P      1
514,15,5,1,7,1,9,1,11,1,13,1,15,1,17,1,19,1,21,1,23,1,25,1,27,1,       3P      2
29,1,31,1,33,1;                                                        3P      3
510,155,4,1,35,37,39,41;                                               5P      4
510,157,1,1,43;                                                        7P      5
510,159,1,1,45;                                                        9P      6
510,161,1,1,47;                                                       11P      7
510,163,1,1,49;                                                       13P      8
510,165,1,1,51;                                                       15P      9
510,167,1,1,53;                                                       17P     10
510,169,1,1,55;                                                       19P     11
510,171,3,1,57,59,61;                                                 21P     12
510,173,1,1,63;                                                       23P     13
510,175,1,1,65;                                                       25P     14
510,177,1,1,67;                                                       27P     15
510,179,1,1,69;                                                       29P     16
510,181,1,1,71;                                                       31P     17
510,183,1,1,73;                                                       33P     18
508,4,0,187,1,1,0,0,187,2,1,0,0,187,3,1,0,0,187,4,1,0;                35P     19
508,1,0,187,5,1,0;                                                    37P     20
508,1,0,187,6,1,0;                                                    39P     21
508,4,0,187,7,1,0,0,187,8,1,0,0,187,9,1,0,0,187,10,1,0;               41P     22
508,8,0,187,11,1,0,0,187,12,1,0,0,187,13,1,0,0,187,4,0,0,0,187,       43P     23
14,0,0,0,187,15,1,0,0,187,16,1,0,0,187,17,1,0;                        43P     24
508,6,0,187,18,1,0,0,187,19,0,0,0,187,7,0,0,0,187,20,0,0,0,187,       45P     25
21,1,0,0,187,22,0,0;                                                  45P     26
508,4,0,187,22,1,0,0,187,23,1,0,0,187,17,0,0,0,187,24,1,0;            47P     27
508,4,0,187,18,0,0,0,187,24,0,0,0,187,16,0,0,0,187,25,1,0;            49P     28
508,4,0,187,21,0,0,0,187,26,0,0,0,187,11,0,0,0,187,23,0,0;            51P     29
508,4,0,187,20,1,0,0,187,10,0,0,0,187,27,0,0,0,187,28,1,0;            53P     30
508,4,0,187,19,1,0,0,187,29,1,0,0,187,30,1,0,0,187,8,0,0;             55P     31
508,10,0,187,26,1,0,0,187,28,0,0,0,187,31,0,0,0,187,29,0,0,0,         57P     32
187,25,0,0,0,187,15,0,0,0,187,32,0,0,0,187,33,0,0,0,187,34,0,0,       57P     33
0,187,12,0,0;                                                         57P     34
508,1,0,187,35,0,0;                                                   59P     35
508,1,0,187,36,0,0;                                                   61P     36
508,4,0,187,34,1,0,0,187,37,0,0,0,187,1,0,0,0,187,13,0,0;             63P     37
508,4,0,187,36,1,0,0,187,38,1,0,0,187,5,0,0,0,187,38,0,0;             65P     38
508,4,0,187,35,1,0,0,187,39,1,0,0,187,6,0,0,0,187,39,0,0;             67P     39
508,4,0,187,31,1,0,0,187,27,1,0,0,187,9,0,0,0,187,30,0,0;             69P     40
508,4,0,187,32,1,0,0,187,14,1,0,0,187,3,0,0,0,187,40,0,0;             71P     41
508,4,0,187,33,1,0,0,187,40,1,0,0,187,2,0,0,0,187,37,1,0;             73P     42
126,1,1,0,0,1,0,-0.2,-0.2,1.1,1.1,1.,1.,-7.5,36.,-6.,5.5,36.,         75P     43
-6.,-0.2,1.1,0.,0.,0.;                                                75P     44
126,1,1,0,0,1,0,0.,0.,3.6,3.6,1.,1.,5.5,36.,-6.,5.5,0.,-6.,0.,        77P     45
3.6,0.,0.,0.;                                                         77P     46
126,1,1,0,0,1,0,4.9,4.9,6.2,6.2,1.,1.,5.5,0.,-6.,-7.5,0.,-6.,         79P     47
4.9,6.2,0.,0.,0.;                                                     79P     48
126,1,1,0,0,1,0,0.,0.,3.6,3.6,1.,1.,-7.5,0.,-6.,                      81P     49
-7.50000000000001,36.,-6.,0.,3.6,0.,0.,0.;                            81P     50
126,8,2,0,1,0,0,-3.14159265358979,-3.14159265358979,                  83P     51
-3.14159265358979,-1.5707963267949,-1.5707963267949,0.,0.,            83P     52
1.5707963267949,1.5707963267949,3.14159265358979,                     83P     53
3.14159265358979,3.14159265358979,1.,0.707106781186548,1.,            83P     54
0.707106781186548,1.,0.707106781186547,1.,0.707106781186548,1.,       83P     55
-2.,3.5,-6.,-2.,1.5,-6.,-9.87758344710421D-16,1.5,-6.,2.,1.5,         83P     56
-6.,2.,3.5,-6.,2.,5.5,-6.,-9.87758344710421D-16,5.5,-6.,-2.,5.5,      83P     57
-6.,-2.,3.5,-6.,-3.14159265358979,3.14159265358979,0.,0.,0.;          83P     58
126,8,2,0,1,0,0,-3.14159265358979,-3.14159265358979,                  85P     59
-3.14159265358979,-1.5707963267949,-1.5707963267949,0.,0.,            85P     60
1.5707963267949,1.5707963267949,3.14159265358979,                     85P     61
3.14159265358979,3.14159265358979,1.,0.707106781186548,1.,            85P     62
0.707106781186542,1.,0.707106781186542,1.,0.707106781186548,1.,       85P     63
-2.,32.5,-6.,-2.,30.5,-6.,-9.87758344710421D-16,30.5,-6.,2.,          85P     64
30.5,-6.,2.,32.5,-6.,2.,34.5,-6.,-9.87758344710421D-16,34.5,-6.,      85P     65
-2.,34.5,-6.,-2.,32.5,-6.,-3.14159265358979,3.14159265358979,0.,      85P     66
0.,0.;                                                                85P     67
126,1,1,0,0,1,0,0.,0.,0.8,0.8,1.,1.,-1.5,19.,-6.,-1.5,11.,-6.,        87P     68
0.,0.8,0.,0.,0.;                                                      87P     69
126,1,1,0,0,1,0,0.4,0.4,0.8,0.8,1.,1.,-1.5,11.,-6.,2.5,11.,-6.,       89P     70
0.4,0.8,0.,0.,0.;                                                     89P     71
126,1,1,0,0,1,0,0.,0.,0.8,0.8,1.,1.,2.5,11.,-6.,2.5,19.,-6.,0.,       91P     72
0.8,0.,0.,0.;                                                         91P     73
126,1,1,0,0,1,0,0.,0.,0.4,0.4,1.,1.,2.5,19.,-6.,-1.5,19.,-6.,0.,      93P     74
0.4,0.,0.,0.;                                                         93P     75
126,1,1,0,0,1,0,-0.6,-0.6,0.,0.,1.,1.,-7.5,19.,6.,-7.5,19.,0.,        95P     76
-0.6,0.,0.,0.,0.;                                                     95P     77
126,1,1,0,0,1,0,1.,1.,2.7,2.7,1.,1.,-7.5,19.,0.,                      97P     78
-7.50000000000001,36.,0.,1.,2.7,0.,0.,0.;                             97P     79
126,1,1,0,0,1,0,0.,0.,0.6,0.6,1.,1.,-7.5,36.,0.,-7.5,36.,-6.,0.,      99P     80
0.6,0.,0.,0.;                                                         99P     81
126,1,1,0,0,1,0,-0.4,-0.4,0.2,0.2,1.,1.,-7.5,0.,0.,-7.5,0.,-6.,      101P     82
-0.4,0.2,0.,0.,0.;                                                   101P     83
126,1,1,0,0,1,0,-0.9,-0.9,0.2,0.2,1.,1.,-7.5,0.,0.,-7.5,11.,0.,      103P     84
-0.9,0.2,0.,0.,0.;                                                   103P     85
126,1,1,0,0,1,0,0.,0.,0.6,0.6,1.,1.,-7.5,11.,0.,-7.5,11.,6.,0.,      105P     86
0.6,0.,0.,0.;                                                        105P     87
126,1,1,0,0,1,0,0.35,0.35,1.15,1.15,1.,1.,-7.5,11.,6.,-7.5,19.,      107P     88
6.,0.35,1.15,0.,0.,0.;                                               107P     89
126,1,1,0,0,1,0,-0.6,-0.6,0.,0.,1.,1.,-1.5,11.,6.,-1.5,11.,0.,       109P     90
-0.6,0.,0.,0.,0.;                                                    109P     91
126,1,1,0,0,1,0,-0.6,-0.6,0.,0.,1.,1.,-1.5,11.,-6.,-1.5,11.,0.,      111P     92
-0.6,0.,0.,0.,0.;                                                    111P     93
126,1,1,0,0,1,0,0.,0.,0.6,0.6,1.,1.,-1.5,19.,0.,-1.5,19.,-6.,0.,     113P     94
0.6,0.,0.,0.;                                                        113P     95
126,1,1,0,0,1,0,-0.4,-0.4,0.2,0.2,1.,1.,-1.5,19.,0.,-1.5,19.,6.,     115P     96
-0.4,0.2,0.,0.,0.;                                                   115P     97
126,1,1,0,0,1,0,-0.2,-0.2,0.6,0.6,1.,1.,-1.5,11.,6.,-1.5,19.,6.,     117P     98
-0.2,0.6,0.,0.,0.;                                                   117P     99
126,1,1,0,0,1,0,-0.4,-0.4,0.2,0.2,1.,1.,-1.5,19.,6.,-7.5,19.,6.,     119P    100
-0.4,0.2,0.,0.,0.;                                                   119P    101
126,1,1,0,0,1,0,-0.2,-0.2,0.4,0.4,1.,1.,-7.5,11.,6.,-1.5,11.,6.,     121P    102
-0.2,0.4,0.,0.,0.;                                                   121P    103
126,1,1,0,0,1,0,-0.475,-0.475,0.125,0.125,1.,1.,-7.5,11.,0.,         123P    104
-1.5,11.,0.,-0.475,0.125,0.,0.,0.;                                   123P    105
126,1,1,0,0,1,0,-0.625,-0.625,-0.025,-0.025,1.,1.,-7.5,19.,0.,       125P    106
-1.5,19.,0.,-0.625,-0.025,0.,0.,0.;                                  125P    107
126,1,1,0,0,1,0,0.,0.,0.6,0.6,1.,1.,2.5,19.,0.,2.5,19.,-6.,0.,       127P    108
0.6,0.,0.,0.;                                                        127P    109
126,1,1,0,0,1,0,-0.125,-0.125,0.275,0.275,1.,1.,2.5,19.,0.,-1.5,     129P    110
19.,0.,-0.125,0.275,0.,0.,0.;                                        129P    111
126,1,1,0,0,1,0,0.125,0.125,0.525,0.525,1.,1.,-1.5,11.,0.,2.5,       131P    112
11.,0.,0.125,0.525,0.,0.,0.;                                         131P    113
126,1,1,0,0,1,0,0.,0.,0.6,0.6,1.,1.,2.5,11.,0.,2.5,11.,-6.,0.,       133P    114
0.6,0.,0.,0.;                                                        133P    115
126,1,1,0,0,1,0,-0.35,-0.35,0.45,0.45,1.,1.,2.5,11.,0.,2.5,19.,      135P    116
0.,-0.35,0.45,0.,0.,0.;                                              135P    117
126,1,1,0,0,1,0,-1.1,-1.1,0.2,0.2,1.,1.,5.5,0.,0.,-7.5,0.,0.,        137P    118
-1.1,0.2,0.,0.,0.;                                                   137P    119
126,1,1,0,0,1,0,-0.9,-0.9,2.7,2.7,1.,1.,5.5,36.,0.,5.5,0.,0.,        139P    120
-0.9,2.7,0.,0.,0.;                                                   139P    121
126,1,1,0,0,1,0,-0.475,-0.475,0.825,0.825,1.,1.,-7.5,36.,0.,5.5,     141P    122
36.,0.,-0.475,0.825,0.,0.,0.;                                        141P    123
126,8,2,0,1,0,0,-3.14159265358979,-3.14159265358979,                 143P    124
-3.14159265358979,-1.5707963267949,-1.5707963267949,0.,0.,           143P    125
1.5707963267949,1.5707963267949,3.14159265358979,                    143P    126
3.14159265358979,3.14159265358979,1.,0.707106781186548,1.,           143P    127
0.707106781186542,1.,0.707106781186542,1.,0.707106781186548,1.,      143P    128
-2.,32.5,0.,-2.,30.5,0.,-9.87758344710421D-16,30.5,0.,2.,30.5,       143P    129
0.,2.,32.5,0.,2.,34.5,0.,-9.87758344710421D-16,34.5,0.,-2.,34.5,     143P    130
0.,-2.,32.5,0.,-3.14159265358979,3.14159265358979,0.,0.,0.;          143P    131
126,8,2,0,1,0,0,-3.14159265358979,-3.14159265358979,                 145P    132
-3.14159265358979,-1.5707963267949,-1.5707963267949,0.,0.,           145P    133
1.5707963267949,1.5707963267949,3.14159265358979,                    145P    134
3.14159265358979,3.14159265358979,1.,0.707106781186548,1.,           145P    135
0.707106781186548,1.,0.707106781186547,1.,0.707106781186548,1.,      145P    136
-2.,3.5,0.,-2.,1.5,0.,-9.87758344710421D-16,1.5,0.,2.,1.5,0.,2.,     145P    137
3.5,0.,2.,5.5,0.,-9.87758344710421D-16,5.5,0.,-2.,5.5,0.,-2.,        145P    138
3.5,0.,-3.14159265358979,3.14159265358979,0.,0.,0.;                  145P    139
126,1,1,0,0,1,0,-0.6,-0.6,0.,0.,1.,1.,5.5,36.,-6.,5.5,36.,0.,        147P    140
-0.6,0.,0.,0.,0.;                                                    147P    141
126,1,1,0,0,1,0,18.,18.,21.,21.,1.,1.,-2.,3.5,0.,-2.,3.5,-6.,        149P    142
18.,21.,0.,0.,0.;                                                    149P    143
126,1,1,0,0,1,0,18.,18.,21.,21.,1.,1.,-2.,32.5,0.,-2.,32.5,-6.,      151P    144
18.,21.,0.,0.,0.;                                                    151P    145
126,1,1,0,0,1,0,0.,0.,0.6,0.6,1.,1.,5.5,0.,0.,5.5,0.,-6.,0.,0.6,     153P    146
0.,0.,0.;                                                            153P    147
128,1,1,1,1,0,0,1,0,0,-0.55,-0.55,0.750000000000001,                 155P    148
0.750000000000001,-1.8,-1.8,1.8,1.8,1.,1.,1.,1.,5.5,0.,-6.,          155P    149
-7.50000000000001,0.,-6.,5.5,36.,-6.,-7.50000000000001,36.,-6.,      155P    150
-0.55,0.750000000000001,-1.8,1.8;                                    155P    151
128,1,1,1,1,0,0,1,0,0,-0.6,-0.6,0.6,0.6,0.,0.,3.6,3.6,1.,1.,1.,      157P    152
1.,-7.5,0.,-6.,-7.5,0.,6.,-7.5,36.,-6.,-7.5,36.,6.,-0.6,0.6,0.,      157P    153
3.6;                                                                 157P    154
128,1,1,1,1,0,0,1,0,0,-0.6,-0.6,0.6,0.6,0.,0.,0.8,0.8,1.,1.,1.,      159P    155
1.,-1.5,11.,6.,-1.5,11.,-6.,-1.5,19.,6.,-1.5,19.,-6.,-0.6,0.6,       159P    156
0.,0.8;                                                              159P    157
128,1,1,1,1,0,0,1,0,0,-0.35,-0.35,0.25,0.25,-0.4,-0.4,0.4,0.4,       161P    158
1.,1.,1.,1.,-7.5,11.,6.,-1.5,11.,6.,-7.5,19.,6.,-1.5,19.,6.,         161P    159
-0.35,0.25,-0.4,0.4;                                                 161P    160
128,1,1,1,1,0,0,1,0,0,-0.2,-0.2,0.4,0.4,0.,0.,0.6,0.6,1.,1.,1.,      163P    161
1.,-7.5,11.,0.,-1.5,11.,0.,-7.5,11.,6.,-1.5,11.,6.,-0.2,0.4,0.,      163P    162
0.6;                                                                 163P    163
128,1,1,1,1,0,0,1,0,0,-0.1,-0.1,0.5,0.5,0.,0.,0.6,0.6,1.,1.,1.,      165P    164
1.,-1.5,19.,0.,-7.5,19.,0.,-1.5,19.,6.,-7.5,19.,6.,-0.1,0.5,0.,      165P    165
0.6;                                                                 165P    166
128,1,1,1,1,0,0,1,0,0,0.,0.,0.4,0.4,0.,0.,0.6,0.6,1.,1.,1.,1.,       167P    167
2.5,19.,0.,-1.5,19.,0.,2.5,19.,-6.,-1.5,19.,-6.,0.,0.4,0.,0.6;       167P    168
128,1,1,1,1,0,0,1,0,0,0.4,0.4,0.8,0.8,0.,0.,0.6,0.6,1.,1.,1.,1.,     169P    169
-1.5,11.,0.,2.5,11.,0.,-1.5,11.,-6.,2.5,11.,-6.,0.4,0.8,0.,0.6;      169P    170
128,1,1,1,1,0,0,1,0,0,-0.750000000000001,-0.750000000000001,         171P    171
0.55,0.55,-1.8,-1.8,1.8,1.8,1.,1.,1.,1.,-7.50000000000001,0.,0.,     171P    172
5.5,0.,0.,-7.50000000000001,36.,0.,5.5,36.,0.,                       171P    173
-0.750000000000001,0.55,-1.8,1.8;                                    171P    174
128,1,1,1,1,0,0,1,0,0,-0.2,-0.2,1.1,1.1,0.,0.,0.6,0.6,1.,1.,1.,      173P    175
1.,-7.5,36.,0.,5.5,36.,0.,-7.5,36.,-6.,5.5,36.,-6.,-0.2,1.1,0.,      173P    176
0.6;                                                                 173P    177
128,1,8,1,2,0,1,0,0,1,18.,18.,21.,21.,-3.14159265358979,             175P    178
-3.14159265358979,-3.14159265358979,-1.5707963267949,                175P    179
-1.5707963267949,0.,0.,1.5707963267949,1.5707963267949,              175P    180
3.14159265358979,3.14159265358979,3.14159265358979,1.,1.,            175P    181
0.707106781186548,0.707106781186548,1.,1.,0.707106781186548,         175P    182
0.707106781186548,1.,1.,0.707106781186548,0.707106781186548,1.,      175P    183
1.,0.707106781186548,0.707106781186548,1.,1.,-2.,3.5,0.,-2.,3.5,     175P    184
-6.,-2.,5.5,0.,-2.,5.5,-6.,-1.11022302462516D-15,5.5,0.,             175P    185
-1.11022302462516D-15,5.5,-6.,2.,5.5,0.,2.,5.5,-6.,2.,3.5,0.,2.,     175P    186
3.5,-6.,2.,1.5,0.,2.,1.5,-6.,-1.11022302462516D-15,1.5,0.,           175P    187
-1.11022302462516D-15,1.5,-6.,-2.,1.5,0.,-2.,1.5,-6.,-2.,3.5,0.,     175P    188
-2.,3.5,-6.,18.,21.,-3.14159265358979,3.14159265358979;              175P    189
128,1,8,1,2,0,1,0,0,1,18.,18.,21.,21.,-3.14159265358979,             177P    190
-3.14159265358979,-3.14159265358979,-1.5707963267949,                177P    191
-1.5707963267949,0.,0.,1.5707963267949,1.5707963267949,              177P    192
3.14159265358979,3.14159265358979,3.14159265358979,1.,1.,            177P    193
0.707106781186548,0.707106781186548,1.,1.,0.707106781186548,         177P    194
0.707106781186548,1.,1.,0.707106781186548,0.707106781186548,1.,      177P    195
1.,0.707106781186548,0.707106781186548,1.,1.,-2.,32.5,0.,-2.,        177P    196
32.5,-6.,-2.,34.5,0.,-2.,34.5,-6.,-1.11022302462516D-15,34.5,0.,     177P    197
-1.11022302462516D-15,34.5,-6.,2.,34.5,0.,2.,34.5,-6.,2.,32.5,       177P    198
0.,2.,32.5,-6.,2.,30.5,0.,2.,30.5,-6.,-1.11022302462516D-15,         177P    199
30.5,0.,-1.11022302462516D-15,30.5,-6.,-2.,30.5,0.,-2.,30.5,-6.,     177P    200
-2.,32.5,0.,-2.,32.5,-6.,18.,21.,-3.14159265358979,                  177P    201
3.14159265358979;                                                    177P    202
128,1,1,1,1,0,0,1,0,0,0.,0.,0.8,0.8,0.,0.,0.6,0.6,1.,1.,1.,1.,       179P    203
2.5,11.,0.,2.5,19.,0.,2.5,11.,-6.,2.5,19.,-6.,0.,0.8,0.,0.6;         179P    204
128,1,1,1,1,0,0,1,0,0,-2.22044604925031D-16,                         181P    205
-2.22044604925031D-16,1.3,1.3,0.,0.,0.6,0.6,1.,1.,1.,1.,5.5,0.,      181P    206
0.,-7.5,0.,0.,5.5,0.,-6.,-7.5,0.,-6.,-2.22044604925031D-16,1.3,      181P    207
0.,0.6;                                                              181P    208
128,1,1,1,1,0,0,1,0,0,0.,0.,3.6,3.6,0.,0.,0.6,0.6,1.,1.,1.,1.,       183P    209
5.5,36.,0.,5.5,0.,0.,5.5,36.,-6.,5.5,0.,-6.,0.,3.6,0.,0.6;           183P    210
502,26,-7.5,36.,-6.,5.5,36.,-6.,5.5,0.,-6.,-7.5,0.,-6.,-2.,3.5,      185P    211
-6.,-2.,32.5,-6.,-1.5,19.,-6.,-1.5,11.,-6.,2.5,11.,-6.,2.5,19.,      185P    212
-6.,-7.5,19.,6.,-7.5,19.,0.,-7.5,36.,0.,-7.5,0.,0.,-7.5,11.,0.,      185P    213
-7.5,11.,6.,-1.5,11.,6.,-1.5,11.,0.,-1.5,19.,0.,-1.5,19.,6.,2.5,     185P    214
19.,0.,2.5,11.,0.,5.5,0.,0.,5.5,36.,0.,-2.,32.5,0.,-2.,3.5,0.;       185P    215
504,40,75,185,1,185,2,77,185,2,185,3,79,185,3,185,4,81,185,4,        187P    216
185,1,83,185,5,185,5,85,185,6,185,6,87,185,7,185,8,89,185,8,185,     187P    217
9,91,185,9,185,10,93,185,10,185,7,95,185,11,185,12,97,185,12,        187P    218
185,13,99,185,13,185,1,101,185,14,185,4,103,185,14,185,15,105,       187P    219
185,15,185,16,107,185,16,185,11,109,185,17,185,18,111,185,8,185,     187P    220
18,113,185,19,185,7,115,185,19,185,20,117,185,17,185,20,119,185,     187P    221
20,185,11,121,185,16,185,17,123,185,15,185,18,125,185,12,185,19,     187P    222
127,185,21,185,10,129,185,21,185,19,131,185,18,185,22,133,185,       187P    223
22,185,9,135,185,22,185,21,137,185,23,185,14,139,185,24,185,23,      187P    224
141,185,13,185,24,143,185,25,185,25,145,185,26,185,26,147,185,2,     187P    225
185,24,149,185,26,185,5,151,185,25,185,6,153,185,23,185,3;           187P    226
406,1,5HBody1;                                                       189P    227
314,62.7450980392157,62.7450980392157,62.7450980392157,13HSteel      191P    228
- Satin;                                                             191P    229
S      1G      2D    192P    229                                        T      1
