                                                                        S      1
,,6HClamp2,6HClamp2,7Hunknown,7Hunknown,32,38,7,99,15,,1.,2,2HMM,1,0.08,G      1
15H20150720.220949,0.01,10000.,7Hunknown,7Hunknown,11,0,;               G      2
     186       1                                                00000000D      1
     186            -215       1       0                               0D      2
     514       2                                                00010000D      3
     514                       2       1                               0D      4
     510       4                                                00010000D      5
     510            -215       1       1                               0D      6
     510       5                                                00010000D      7
     510            -215       1       1                               0D      8
     510       6                                                00010000D      9
     510            -215       1       1                               0D     10
     510       7                                                00010000D     11
     510            -215       1       1                               0D     12
     510       8                                                00010000D     13
     510            -215       1       1                               0D     14
     510       9                                                00010000D     15
     510            -215       1       1                               0D     16
     510      10                                                00010000D     17
     510            -215       1       1                               0D     18
     510      11                                                00010000D     19
     510            -215       1       1                               0D     20
     510      12                                                00010000D     21
     510            -215       1       1                               0D     22
     510      13                                                00010000D     23
     510            -215       1       1                               0D     24
     510      14                                                00010000D     25
     510            -215       1       1                               0D     26
     510      15                                                00010000D     27
     510            -215       1       1                               0D     28
     510      16                                                00010000D     29
     510            -215       1       1                               0D     30
     510      17                                                00010000D     31
     510            -215       1       1                               0D     32
     510      18                                                00010000D     33
     510            -215       1       1                               0D     34
     510      19                                                00010000D     35
     510            -215       1       1                               0D     36
     510      20                                                00010000D     37
     510            -215       1       1                               0D     38
     508      21                                                00010000D     39
     508                       1       1                               0D     40
     508      22                                                00010000D     41
     508                       2       1                               0D     42
     508      24                                                00010000D     43
     508                       2       1                               0D     44
     508      26                                                00010000D     45
     508                       1       1                               0D     46
     508      27                                                00010000D     47
     508                       2       1                               0D     48
     508      29                                                00010000D     49
     508                       1       1                               0D     50
     508      30                                                00010000D     51
     508                       2       1                               0D     52
     508      32                                                00010000D     53
     508                       1       1                               0D     54
     508      33                                                00010000D     55
     508                       1       1                               0D     56
     508      34                                                00010000D     57
     508                       3       1                               0D     58
     508      37                                                00010000D     59
     508                       1       1                               0D     60
     508      38                                                00010000D     61
     508                       1       1                               0D     62
     508      39                                                00010000D     63
     508                       1       1                               0D     64
     508      40                                                00010000D     65
     508                       1       1                               0D     66
     508      41                                                00010000D     67
     508                       1       1                               0D     68
     508      42                                                00010000D     69
     508                       1       1                               0D     70
     508      43                                                00010000D     71
     508                       1       1                               0D     72
     508      44                                                00010000D     73
     508                       1       1                               0D     74
     508      45                                                00010000D     75
     508                       1       1                               0D     76
     508      46                                                00010000D     77
     508                       1       1                               0D     78
     508      47                                                00010000D     79
     508                       1       1                               0D     80
     508      48                                                00010000D     81
     508                       1       1                               0D     82
     126      49                                                00010000D     83
     126       0               4       0                               0D     84
     126      53                                                00010000D     85
     126       0               2       0                               0D     86
     126      55                                                00010000D     87
     126       0               4       0                               0D     88
     126      59                                                00010000D     89
     126       0               2       0                               0D     90
     126      61                                                00010000D     91
     126       0               2       0                               0D     92
     126      63                                                00010000D     93
     126       0               2       0                               0D     94
     126      65                                                00010000D     95
     126       0               2       0                               0D     96
     126      67                                                00010000D     97
     126       0               2       0                               0D     98
     126      69                                                00010000D     99
     126       0               2       0                               0D    100
     126      71                                                00010000D    101
     126       0               2       0                               0D    102
     126      73                                                00010000D    103
     126       0               4       0                               0D    104
     126      77                                                00010000D    105
     126       0               2       0                               0D    106
     126      79                                                00010000D    107
     126       0               2       0                               0D    108
     126      81                                                00010000D    109
     126       0               2       0                               0D    110
     126      83                                                00010000D    111
     126       0               4       0                               0D    112
     126      87                                                00010000D    113
     126       0               2       0                               0D    114
     126      89                                                00010000D    115
     126       0               2       0                               0D    116
     126      91                                                00010000D    117
     126       0               2       0                               0D    118
     126      93                                                00010000D    119
     126       0               2       0                               0D    120
     126      95                                                00010000D    121
     126       0               2       0                               0D    122
     126      97                                                00010000D    123
     126       0               2       0                               0D    124
     126      99                                                00010000D    125
     126       0               2       0                               0D    126
     126     101                                                00010000D    127
     126       0               2       0                               0D    128
     126     103                                                00010000D    129
     126       0               2       0                               0D    130
     126     105                                                00010000D    131
     126       0               2       0                               0D    132
     126     107                                                00010000D    133
     126       0               2       0                               0D    134
     126     109                                                00010000D    135
     126       0               2       0                               0D    136
     126     111                                                00010000D    137
     126       0               2       0                               0D    138
     126     113                                                00010000D    139
     126       0               2       0                               0D    140
     126     115                                                00010000D    141
     126       0               2       0                               0D    142
     126     117                                                00010000D    143
     126       0               2       0                               0D    144
     126     119                                                00010000D    145
     126       0               2       0                               0D    146
     126     121                                                00010000D    147
     126       0               2       0                               0D    148
     126     123                                                00010000D    149
     126       0               2       0                               0D    150
     126     125                                                00010000D    151
     126       0               8       0                               0D    152
     126     133                                                00010000D    153
     126       0               8       0                               0D    154
     126     141                                                00010000D    155
     126       0               2       0                               0D    156
     126     143                                                00010000D    157
     126       0               2       0                               0D    158
     126     145                                                00010000D    159
     126       0               2       0                               0D    160
     126     147                                                00010000D    161
     126       0               8       0                               0D    162
     126     155                                                00010000D    163
     126       0               2       0                               0D    164
     126     157                                                00010000D    165
     126       0               9       0                               0D    166
     126     166                                                00010000D    167
     126       0               2       0                               0D    168
     126     168                                                00010000D    169
     126       0               2       0                               0D    170
     126     170                                                00010000D    171
     126       0               2       0                               0D    172
     126     172                                                00010000D    173
     126       0               2       0                               0D    174
     128     174                                                00010000D    175
     128       0    -215       6       0                               0D    176
     128     180                                                00010000D    177
     128       0    -215       3       0                               0D    178
     128     183                                                00010000D    179
     128       0    -215       4       0                               0D    180
     128     187                                                00010000D    181
     128       0    -215       6       0                               0D    182
     128     193                                                00010000D    183
     128       0    -215       3       0                               0D    184
     128     196                                                00010000D    185
     128       0    -215       3       0                               0D    186
     128     199                                                00010000D    187
     128       0    -215       3       0                               0D    188
     128     202                                                00010000D    189
     128       0    -215       2       0                               0D    190
     128     204                                                00010000D    191
     128       0    -215       2       0                               0D    192
     128     206                                                00010000D    193
     128       0    -215       4       0                               0D    194
     128     210                                                00010000D    195
     128       0    -215       2       0                               0D    196
     128     212                                                00010000D    197
     128       0    -215      12       0                               0D    198
     128     224                                                00010000D    199
     128       0    -215      13       0                               0D    200
     128     237                                                00010000D    201
     128       0    -215       2       0                               0D    202
     128     239                                                00010000D    203
     128       0    -215       4       0                               0D    204
     128     243                                                00010000D    205
     128       0    -215       2       0                               0D    206
     128     245                                                00010000D    207
     128       0    -215       4       0                               0D    208
     502     249                                                00010000D    209
     502                       6       1                               0D    210
     504     255                                                00010001D    211
     504                      13       1                               0D    212
     406     268                                                00000000D    213
     406                       1      15                               0D    214
     314     269                                                00000200D    215
     314                       2       0                               0D    216
186,3,1,0,0,1,213;                                                     1P      1
514,17,5,1,7,1,9,1,11,1,13,1,15,1,17,1,19,1,21,1,23,1,25,1,27,1,       3P      2
29,1,31,1,33,1,35,1,37,1;                                              3P      3
510,175,1,1,39;                                                        5P      4
510,177,1,1,41;                                                        7P      5
510,179,1,1,43;                                                        9P      6
510,181,1,1,45;                                                       11P      7
510,183,1,1,47;                                                       13P      8
510,185,1,1,49;                                                       15P      9
510,187,1,1,51;                                                       17P     10
510,189,1,1,53;                                                       19P     11
510,191,1,1,55;                                                       21P     12
510,193,3,1,57,59,61;                                                 23P     13
510,195,1,1,63;                                                       25P     14
510,197,1,1,65;                                                       27P     15
510,199,1,1,67;                                                       29P     16
510,201,1,1,69;                                                       31P     17
510,203,1,1,71;                                                       33P     18
510,205,1,1,73;                                                       35P     19
510,207,4,1,75,77,79,81;                                              37P     20
508,4,0,211,1,1,0,0,211,2,1,0,0,211,3,1,0,0,211,4,1,0;                39P     21
508,6,0,211,4,0,0,0,211,5,1,0,0,211,6,0,0,0,211,7,1,0,0,211,8,0,      41P     22
0,0,211,9,1,0;                                                        41P     23
508,6,0,211,3,0,0,0,211,10,0,0,0,211,11,0,0,0,211,12,0,0,0,211,       43P     24
13,1,0,0,211,5,0,0;                                                   43P     25
508,4,0,211,11,1,0,0,211,14,1,0,0,211,15,1,0,0,211,16,1,0;            45P     26
508,8,0,211,16,0,0,0,211,17,0,0,0,211,18,1,0,0,211,19,1,0,0,211,      47P     27
20,0,0,0,211,21,0,0,0,211,22,1,0,0,211,12,1,0;                        47P     28
508,4,0,211,2,0,0,0,211,23,1,0,0,211,14,0,0,0,211,10,1,0;             49P     29
508,6,0,211,1,0,0,0,211,9,0,0,0,211,24,0,0,0,211,17,1,0,0,211,        51P     30
15,0,0,0,211,23,0,0;                                                  51P     31
508,4,0,211,8,1,0,0,211,25,0,0,0,211,26,0,0,0,211,27,1,0;             53P     32
508,4,0,211,6,1,0,0,211,28,1,0,0,211,29,1,0,0,211,30,0,0;             55P     33
508,10,0,211,24,1,0,0,211,27,0,0,0,211,31,0,0,0,211,28,0,0,0,         57P     34
211,13,0,0,0,211,22,0,0,0,211,32,0,0,0,211,33,0,0,0,211,34,0,0,       57P     35
0,211,18,0,0;                                                         57P     36
508,1,0,211,35,0,0;                                                   59P     37
508,1,0,211,36,0,0;                                                   61P     38
508,4,0,211,34,1,0,0,211,37,0,0,0,211,38,0,0,0,211,19,0,0;            63P     39
508,4,0,211,36,1,0,0,211,39,1,0,0,211,40,0,0,0,211,39,0,0;            65P     40
508,4,0,211,35,1,0,0,211,41,1,0,0,211,42,0,0,0,211,41,0,0;            67P     41
508,4,0,211,31,1,0,0,211,26,1,0,0,211,43,0,0,0,211,29,0,0;            69P     42
508,4,0,211,32,1,0,0,211,21,1,0,0,211,44,0,0,0,211,45,0,0;            71P     43
508,4,0,211,33,1,0,0,211,45,1,0,0,211,46,0,0,0,211,37,1,0;            73P     44
508,4,0,211,20,1,0,0,211,38,1,0,0,211,46,1,0,0,211,44,1,0;            75P     45
508,1,0,211,40,1,0;                                                   77P     46
508,1,0,211,42,1,0;                                                   79P     47
508,4,0,211,7,0,0,0,211,30,1,0,0,211,43,1,0,0,211,25,1,0;             81P     48
126,2,2,0,0,0,0,-0.785398163397448,-0.785398163397448,                83P     49
-0.785398163397448,0.785398163397449,0.785398163397449,               83P     50
0.785398163397449,1.,0.707106781186547,1.,-1.5,19.,5.,-1.5,19.,       83P     51
6.,-2.5,19.,6.,-0.785398163397448,0.785398163397449,0.,0.,0.;         83P     52
126,1,1,0,0,1,0,-0.6,-0.6,0.2,0.2,1.,1.,-2.5,19.,6.,-2.5,11.,6.,      85P     53
-0.6,0.2,0.,0.,0.;                                                    85P     54
126,2,2,0,0,0,0,-0.785398163397449,-0.785398163397449,                87P     55
-0.785398163397449,0.785398163397448,0.785398163397448,               87P     56
0.785398163397448,1.,0.707106781186547,1.,-2.5,11.,6.,-1.5,11.,       87P     57
6.,-1.5,11.,5.,-0.785398163397449,0.785398163397448,0.,0.,0.;         87P     58
126,1,1,0,0,1,0,-0.2,-0.2,0.6,0.6,1.,1.,-1.5,11.,5.,-1.5,19.,5.,      89P     59
-0.2,0.6,0.,0.,0.;                                                    89P     60
126,1,1,0,0,1,0,-0.5,-0.5,0.,0.,1.,1.,-1.5,11.,5.,-1.5,11.,0.,        91P     61
-0.5,0.,0.,0.,0.;                                                     91P     62
126,1,1,0,0,1,0,-0.4,-0.4,0.,0.,1.,1.,-1.5,11.,-4.,-1.5,11.,0.,       93P     63
-0.4,0.,0.,0.,0.;                                                     93P     64
126,1,1,0,0,1,0,-0.8,-0.8,0.,0.,1.,1.,-1.5,11.,-4.,-1.5,19.,-4.,      95P     65
-0.8,0.,0.,0.,0.;                                                     95P     66
126,1,1,0,0,1,0,0.,0.,0.4,0.4,1.,1.,-1.5,19.,0.,-1.5,19.,-4.,0.,      97P     67
0.4,0.,0.,0.;                                                         97P     68
126,1,1,0,0,1,0,-0.4,-0.4,0.1,0.1,1.,1.,-1.5,19.,0.,-1.5,19.,5.,      99P     69
-0.4,0.1,0.,0.,0.;                                                    99P     70
126,1,1,0,0,1,0,0.0999999999999999,0.0999999999999999,0.3,0.3,       101P     71
1.,1.,-4.5,11.,6.,-2.5,11.,6.,0.0999999999999999,0.3,0.,0.,0.;       101P     72
126,2,2,0,0,0,0,-0.785398163397448,-0.785398163397448,               103P     73
-0.785398163397448,0.785398163397449,0.785398163397449,              103P     74
0.785398163397449,1.,0.707106781186547,1.,-5.5,11.,5.,-5.5,11.,      103P     75
6.,-4.5,11.,6.,-0.785398163397448,0.785398163397449,0.,0.,0.;        103P     76
126,1,1,0,0,1,0,0.,0.,0.5,0.5,1.,1.,-5.5,11.,0.,-5.5,11.,5.,0.,      105P     77
0.5,0.,0.,0.;                                                        105P     78
126,1,1,0,0,1,0,-0.275,-0.275,0.125,0.125,1.,1.,-5.5,11.,0.,         107P     79
-1.5,11.,0.,-0.275,0.125,0.,0.,0.;                                   107P     80
126,1,1,0,0,1,0,0.35,0.35,1.15,1.15,1.,1.,-4.5,11.,6.,-4.5,19.,      109P     81
6.,0.35,1.15,0.,0.,0.;                                               109P     82
126,2,2,0,0,0,0,-0.785398163397449,-0.785398163397449,               111P     83
-0.785398163397449,0.785398163397448,0.785398163397448,              111P     84
0.785398163397448,1.,0.707106781186547,1.,-4.5,19.,6.,-5.5,19.,      111P     85
6.,-5.5,19.,5.,-0.785398163397449,0.785398163397448,0.,0.,0.;        111P     86
126,1,1,0,0,1,0,-1.15,-1.15,-0.35,-0.35,1.,1.,-5.5,19.,5.,-5.5,      113P     87
11.,5.,-1.15,-0.35,0.,0.,0.;                                         113P     88
126,1,1,0,0,1,0,0.,0.,0.5,0.5,1.,1.,-5.5,19.,0.,-5.5,19.,5.,0.,      115P     89
0.5,0.,0.,0.;                                                        115P     90
126,1,1,0,0,1,0,1.,1.,2.7,2.7,1.,1.,-5.5,19.,0.,                     117P     91
-5.50000000000001,36.,0.,1.,2.7,0.,0.,0.;                            117P     92
126,1,1,0,0,1,0,0.,0.,0.4,0.4,1.,1.,-5.5,36.,0.,-5.5,36.,-4.,0.,     119P     93
0.4,0.,0.,0.;                                                        119P     94
126,1,1,0,0,1,0,0.,0.,3.6,3.6,1.,1.,-5.5,0.,-4.,                     121P     95
-5.50000000000001,36.,-4.,0.,3.6,0.,0.,0.;                           121P     96
126,1,1,0,0,1,0,0.,0.,0.4,0.4,1.,1.,-5.5,0.,0.,-5.5,0.,-4.,0.,       123P     97
0.4,0.,0.,0.;                                                        123P     98
126,1,1,0,0,1,0,-0.9,-0.9,0.2,0.2,1.,1.,-5.5,0.,0.,-5.5,11.,0.,      125P     99
-0.9,0.2,0.,0.,0.;                                                   125P    100
126,1,1,0,0,1,0,0.,0.,0.2,0.2,1.,1.,-2.5,19.,6.,-4.5,19.,6.,0.,      127P    101
0.2,0.,0.,0.;                                                        127P    102
126,1,1,0,0,1,0,-0.425,-0.425,-0.025,-0.025,1.,1.,-5.5,19.,0.,       129P    103
-1.5,19.,0.,-0.425,-0.025,0.,0.,0.;                                  129P    104
126,1,1,0,0,1,0,0.,0.,0.4,0.4,1.,1.,2.5,19.,-4.,-1.5,19.,-4.,0.,     131P    105
0.4,0.,0.,0.;                                                        131P    106
126,1,1,0,0,1,0,0.,0.,0.4,0.4,1.,1.,2.5,19.,0.,2.5,19.,-4.,0.,       133P    107
0.4,0.,0.,0.;                                                        133P    108
126,1,1,0,0,1,0,-0.125,-0.125,0.275,0.275,1.,1.,2.5,19.,0.,-1.5,     135P    109
19.,0.,-0.125,0.275,0.,0.,0.;                                        135P    110
126,1,1,0,0,1,0,0.125,0.125,0.525,0.525,1.,1.,-1.5,11.,0.,2.5,       137P    111
11.,0.,0.125,0.525,0.,0.,0.;                                         137P    112
126,1,1,0,0,1,0,0.,0.,0.4,0.4,1.,1.,2.5,11.,0.,2.5,11.,-4.,0.,       139P    113
0.4,0.,0.,0.;                                                        139P    114
126,1,1,0,0,1,0,0.4,0.4,0.8,0.8,1.,1.,-1.5,11.,-4.,2.5,11.,-4.,      141P    115
0.4,0.8,0.,0.,0.;                                                    141P    116
126,1,1,0,0,1,0,-0.35,-0.35,0.45,0.45,1.,1.,2.5,11.,0.,2.5,19.,      143P    117
0.,-0.35,0.45,0.,0.,0.;                                              143P    118
126,1,1,0,0,1,0,-0.275,-0.275,0.825,0.825,1.,1.,5.5,0.,0.,-5.5,      145P    119
0.,0.,-0.275,0.825,0.,0.,0.;                                         145P    120
126,1,1,0,0,1,0,-0.9,-0.9,2.7,2.7,1.,1.,5.5,36.,0.,5.5,0.,0.,        147P    121
-0.9,2.7,0.,0.,0.;                                                   147P    122
126,1,1,0,0,1,0,-0.275,-0.275,0.825,0.825,1.,1.,-5.5,36.,0.,5.5,     149P    123
36.,0.,-0.275,0.825,0.,0.,0.;                                        149P    124
126,8,2,0,1,0,0,-3.14159265358979,-3.14159265358979,                 151P    125
-3.14159265358979,-1.5707963267949,-1.5707963267949,0.,0.,           151P    126
1.5707963267949,1.5707963267949,3.14159265358979,                    151P    127
3.14159265358979,3.14159265358979,1.,0.707106781186548,1.,           151P    128
0.707106781186542,1.,0.707106781186542,1.,0.707106781186548,1.,      151P    129
-2.,32.5,0.,-2.,30.5,0.,-9.87758344710421D-16,30.5,0.,2.,30.5,       151P    130
0.,2.,32.5,0.,2.,34.5,0.,-9.87758344710421D-16,34.5,0.,-2.,34.5,     151P    131
0.,-2.,32.5,0.,-3.14159265358979,3.14159265358979,0.,0.,0.;          151P    132
126,8,2,0,1,0,0,-3.14159265358979,-3.14159265358979,                 153P    133
-3.14159265358979,-1.5707963267949,-1.5707963267949,0.,0.,           153P    134
1.5707963267949,1.5707963267949,3.14159265358979,                    153P    135
3.14159265358979,3.14159265358979,1.,0.707106781186548,1.,           153P    136
0.707106781186548,1.,0.707106781186547,1.,0.707106781186548,1.,      153P    137
-2.,3.5,0.,-2.,1.5,0.,-9.87758344710421D-16,1.5,0.,2.,1.5,0.,2.,     153P    138
3.5,0.,2.,5.5,0.,-9.87758344710421D-16,5.5,0.,-2.,5.5,0.,-2.,        153P    139
3.5,0.,-3.14159265358979,3.14159265358979,0.,0.,0.;                  153P    140
126,1,1,0,0,1,0,-0.4,-0.4,0.,0.,1.,1.,5.5,36.,-4.,5.5,36.,0.,        155P    141
-0.4,0.,0.,0.,0.;                                                    155P    142
126,1,1,0,0,1,0,0.,0.,1.1,1.1,1.,1.,-5.5,36.,-4.,5.5,36.,-4.,0.,     157P    143
1.1,0.,0.,0.;                                                        157P    144
126,1,1,0,0,1,0,18.,18.,20.,20.,1.,1.,-2.,3.5,0.,-2.,3.5,-4.,        159P    145
18.,20.,0.,0.,0.;                                                    159P    146
126,8,2,0,1,0,0,-3.14159265358979,-3.14159265358979,                 161P    147
-3.14159265358979,-1.5707963267949,-1.5707963267949,0.,0.,           161P    148
1.5707963267949,1.5707963267949,3.14159265358979,                    161P    149
3.14159265358979,3.14159265358979,1.,0.707106781186548,1.,           161P    150
0.707106781186548,1.,0.707106781186547,1.,0.707106781186548,1.,      161P    151
-2.,3.5,-4.,-2.,1.5,-4.,-9.87758344710421D-16,1.5,-4.,2.,1.5,        161P    152
-4.,2.,3.5,-4.,2.,5.5,-4.,-9.87758344710421D-16,5.5,-4.,-2.,5.5,     161P    153
-4.,-2.,3.5,-4.,-3.14159265358979,3.14159265358979,0.,0.,0.;         161P    154
126,1,1,0,0,1,0,18.,18.,20.,20.,1.,1.,-2.,32.5,0.,-2.,32.5,-4.,      163P    155
18.,20.,0.,0.,0.;                                                    163P    156
126,8,2,0,1,0,0,-3.14159265358979,-3.14159265358979,                 165P    157
-3.14159265358979,-1.5707963267949,-1.5707963267949,0.,0.,           165P    158
1.5707963267949,1.5707963267949,3.14159265358979,                    165P    159
3.14159265358979,3.14159265358979,1.,0.707106781186548,1.,           165P    160
0.707106781186542,1.,0.707106781186542,1.,0.707106781186548,1.,      165P    161
-2.,32.5,-4.,-2.,30.5,-4.,-9.87758344710421D-16,30.5,-4.,2.,         165P    162
30.5,-4.,2.,32.5,-4.,2.,34.5,-4.,-9.87758344710421D-16,34.5,-4.,     165P    163
-2.,34.5,-4.,-2.,32.5,-4.,-3.14159265358979,3.14159265358979,0.,     165P    164
0.,0.;                                                               165P    165
126,1,1,0,0,1,0,0.,0.,0.8,0.8,1.,1.,2.5,11.,-4.,2.5,19.,-4.,0.,      167P    166
0.8,0.,0.,0.;                                                        167P    167
126,1,1,0,0,1,0,4.9,4.9,6.,6.,1.,1.,5.5,0.,-4.,-5.5,0.,-4.,4.9,      169P    168
6.,0.,0.,0.;                                                         169P    169
126,1,1,0,0,1,0,0.,0.,0.4,0.4,1.,1.,5.5,0.,0.,5.5,0.,-4.,0.,0.4,     171P    170
0.,0.,0.;                                                            171P    171
126,1,1,0,0,1,0,0.,0.,3.6,3.6,1.,1.,5.5,36.,-4.,5.5,0.,-4.,0.,       173P    172
3.6,0.,0.,0.;                                                        173P    173
128,1,2,1,2,0,0,0,0,0,-2.,-2.,6.,6.,-0.785398163397449,              175P    174
-0.785398163397449,-0.785398163397449,0.785398163397448,             175P    175
0.785398163397448,0.785398163397448,1.,1.,0.707106781186548,         175P    176
0.707106781186548,1.,1.,-2.5,19.,6.,-2.5,11.,6.,-1.5,19.,6.,         175P    177
-1.5,11.,6.,-1.5,19.,5.,-1.5,11.,5.,-2.,6.,-0.785398163397449,       175P    178
0.785398163397448;                                                   175P    179
128,1,1,1,1,0,0,1,0,0,-0.5,-0.5,0.4,0.4,0.,0.,0.8,0.8,1.,1.,1.,      177P    180
1.,-1.5,11.,5.,-1.5,11.,-4.,-1.5,19.,5.,-1.5,19.,-4.,-0.5,0.4,       177P    181
0.,0.8;                                                              177P    182
128,1,1,1,1,0,0,1,0,0,-1.11930601550539D-16,                         179P    183
-1.11930601550539D-16,0.4,0.4,0.,0.,0.6,0.6,1.,1.,1.,1.,-5.5,        179P    184
11.,0.,-1.5,11.,0.,-5.5,11.,6.,-1.5,11.,6.,                          179P    185
-1.11930601550539D-16,0.4,0.,0.6;                                    179P    186
128,1,2,1,2,0,0,0,0,0,-11.5,-11.5,-3.5,-3.5,-0.785398163397449,      181P    187
-0.785398163397449,-0.785398163397449,0.785398163397447,             181P    188
0.785398163397447,0.785398163397447,1.,1.,0.707106781186548,         181P    189
0.707106781186548,1.,1.,-4.5,11.,6.,-4.5,19.,6.,-5.5,11.,6.,         181P    190
-5.5,19.,6.,-5.5,11.,5.,-5.5,19.,5.,-11.5,-3.5,                      181P    191
-0.785398163397449,0.785398163397447;                                181P    192
128,1,1,1,1,0,0,1,0,0,0.,0.,3.6,3.6,-0.5,-0.5,0.4,0.4,1.,1.,1.,      183P    193
1.,-5.5,0.,5.,-5.50000000000001,36.,5.,-5.5,0.,-4.,                  183P    194
-5.50000000000001,36.,-4.,0.,3.6,-0.5,0.4;                           183P    195
128,1,1,1,1,0,0,1,0,0,-0.0500000000000003,-0.0500000000000003,       185P    196
0.15,0.15,-0.4,-0.4,0.4,0.4,1.,1.,1.,1.,-4.5,11.,6.,-2.5,11.,6.,     185P    197
-4.5,19.,6.,-2.5,19.,6.,-0.0500000000000003,0.15,-0.4,0.4;           185P    198
128,1,1,1,1,0,0,1,0,0,-0.1,-0.1,0.3,0.3,0.,0.,0.6,0.6,1.,1.,1.,      187P    199
1.,-1.5,19.,0.,-5.5,19.,0.,-1.5,19.,6.,-5.5,19.,6.,-0.1,0.3,0.,      187P    200
0.6;                                                                 187P    201
128,1,1,1,1,0,0,1,0,0,0.,0.,0.4,0.4,0.,0.,0.4,0.4,1.,1.,1.,1.,       189P    202
2.5,19.,0.,-1.5,19.,0.,2.5,19.,-4.,-1.5,19.,-4.,0.,0.4,0.,0.4;       189P    203
128,1,1,1,1,0,0,1,0,0,0.4,0.4,0.8,0.8,0.,0.,0.4,0.4,1.,1.,1.,1.,     191P    204
-1.5,11.,0.,2.5,11.,0.,-1.5,11.,-4.,2.5,11.,-4.,0.4,0.8,0.,0.4;      191P    205
128,1,1,1,1,0,0,1,0,0,-0.550000000000001,-0.550000000000001,         193P    206
0.55,0.55,-1.8,-1.8,1.8,1.8,1.,1.,1.,1.,-5.50000000000001,0.,0.,     193P    207
5.5,0.,0.,-5.50000000000001,36.,0.,5.5,36.,0.,                       193P    208
-0.550000000000001,0.55,-1.8,1.8;                                    193P    209
128,1,1,1,1,0,0,1,0,0,0.,0.,1.1,1.1,0.,0.,0.4,0.4,1.,1.,1.,1.,       195P    210
-5.5,36.,0.,5.5,36.,0.,-5.5,36.,-4.,5.5,36.,-4.,0.,1.1,0.,0.4;       195P    211
128,1,8,1,2,0,1,0,0,1,18.,18.,20.,20.,-3.14159265358979,             197P    212
-3.14159265358979,-3.14159265358979,-1.5707963267949,                197P    213
-1.5707963267949,0.,0.,1.5707963267949,1.5707963267949,              197P    214
3.14159265358979,3.14159265358979,3.14159265358979,1.,1.,            197P    215
0.707106781186548,0.707106781186548,1.,1.,0.707106781186548,         197P    216
0.707106781186548,1.,1.,0.707106781186548,0.707106781186548,1.,      197P    217
1.,0.707106781186548,0.707106781186548,1.,1.,-2.,3.5,0.,-2.,3.5,     197P    218
-4.,-2.,5.5,0.,-2.,5.5,-4.,-1.11022302462516D-15,5.5,0.,             197P    219
-1.11022302462516D-15,5.5,-4.,2.,5.5,0.,2.,5.5,-4.,2.,3.5,0.,2.,     197P    220
3.5,-4.,2.,1.5,0.,2.,1.5,-4.,-1.11022302462516D-15,1.5,0.,           197P    221
-1.11022302462516D-15,1.5,-4.,-2.,1.5,0.,-2.,1.5,-4.,-2.,3.5,0.,     197P    222
-2.,3.5,-4.,18.,20.,-3.14159265358979,3.14159265358979;              197P    223
128,1,8,1,2,0,1,0,0,1,18.,18.,20.,20.,-3.14159265358979,             199P    224
-3.14159265358979,-3.14159265358979,-1.5707963267949,                199P    225
-1.5707963267949,0.,0.,1.5707963267949,1.5707963267949,              199P    226
3.14159265358979,3.14159265358979,3.14159265358979,1.,1.,            199P    227
0.707106781186548,0.707106781186548,1.,1.,0.707106781186548,         199P    228
0.707106781186548,1.,1.,0.707106781186548,0.707106781186548,1.,      199P    229
1.,0.707106781186548,0.707106781186548,1.,1.,-2.,32.5,0.,-2.,        199P    230
32.5,-4.,-2.,34.5,0.,-2.,34.5,-4.,-1.11022302462516D-15,34.5,0.,     199P    231
-1.11022302462516D-15,34.5,-4.,2.,34.5,0.,2.,34.5,-4.,2.,32.5,       199P    232
0.,2.,32.5,-4.,2.,30.5,0.,2.,30.5,-4.,-1.11022302462516D-15,         199P    233
30.5,0.,-1.11022302462516D-15,30.5,-4.,-2.,30.5,0.,-2.,30.5,-4.,     199P    234
-2.,32.5,0.,-2.,32.5,-4.,18.,20.,-3.14159265358979,                  199P    235
3.14159265358979;                                                    199P    236
128,1,1,1,1,0,0,1,0,0,0.,0.,0.8,0.8,0.,0.,0.4,0.4,1.,1.,1.,1.,       201P    237
2.5,11.,0.,2.5,19.,0.,2.5,11.,-4.,2.5,19.,-4.,0.,0.8,0.,0.4;         201P    238
128,1,1,1,1,0,0,1,0,0,-2.22044604925031D-16,                         203P    239
-2.22044604925031D-16,1.1,1.1,0.,0.,0.4,0.4,1.,1.,1.,1.,5.5,0.,      203P    240
0.,-5.5,0.,0.,5.5,0.,-4.,-5.5,0.,-4.,-2.22044604925031D-16,1.1,      203P    241
0.,0.4;                                                              203P    242
128,1,1,1,1,0,0,1,0,0,0.,0.,3.6,3.6,0.,0.,0.4,0.4,1.,1.,1.,1.,       205P    243
5.5,36.,0.,5.5,0.,0.,5.5,36.,-4.,5.5,0.,-4.,0.,3.6,0.,0.4;           205P    244
128,1,1,1,1,0,0,1,0,0,-0.55,-0.55,0.550000000000001,                 207P    245
0.550000000000001,-1.8,-1.8,1.8,1.8,1.,1.,1.,1.,5.5,0.,-4.,          207P    246
-5.50000000000001,0.,-4.,5.5,36.,-4.,-5.50000000000001,36.,-4.,      207P    247
-0.55,0.550000000000001,-1.8,1.8;                                    207P    248
502,30,-1.5,19.,5.,-2.5,19.,6.,-2.5,11.,6.,-1.5,11.,5.,-1.5,11.,     209P    249
0.,-1.5,11.,-4.,-1.5,19.,-4.,-1.5,19.,0.,-4.5,11.,6.,-5.5,11.,       209P    250
5.,-5.5,11.,0.,-4.5,19.,6.,-5.5,19.,5.,-5.5,19.,0.,-5.5,36.,0.,      209P    251
-5.5,36.,-4.,-5.5,0.,-4.,-5.5,0.,0.,2.5,19.,-4.,2.5,19.,0.,2.5,      209P    252
11.,0.,2.5,11.,-4.,5.5,0.,0.,5.5,36.,0.,-2.,32.5,0.,-2.,3.5,0.,      209P    253
5.5,36.,-4.,-2.,3.5,-4.,-2.,32.5,-4.,5.5,0.,-4.;                     209P    254
504,46,83,209,1,209,2,85,209,2,209,3,87,209,3,209,4,89,209,4,        211P    255
209,1,91,209,4,209,5,93,209,6,209,5,95,209,6,209,7,97,209,8,209,     211P    256
7,99,209,8,209,1,101,209,9,209,3,103,209,10,209,9,105,209,11,        211P    257
209,10,107,209,11,209,5,109,209,9,209,12,111,209,12,209,13,113,      211P    258
209,13,209,10,115,209,14,209,13,117,209,14,209,15,119,209,15,        211P    259
209,16,121,209,17,209,16,123,209,18,209,17,125,209,18,209,11,        211P    260
127,209,2,209,12,129,209,14,209,8,131,209,19,209,7,133,209,20,       211P    261
209,19,135,209,20,209,8,137,209,5,209,21,139,209,21,209,22,141,      211P    262
209,6,209,22,143,209,21,209,20,145,209,23,209,18,147,209,24,209,     211P    263
23,149,209,15,209,24,151,209,25,209,25,153,209,26,209,26,155,        211P    264
209,27,209,24,157,209,16,209,27,159,209,26,209,28,161,209,28,        211P    265
209,28,163,209,25,209,29,165,209,29,209,29,167,209,22,209,19,        211P    266
169,209,30,209,17,171,209,23,209,30,173,209,27,209,30;               211P    267
406,1,5HBody1;                                                       213P    268
314,62.7450980392157,62.7450980392157,62.7450980392157,13HSteel      215P    269
- Satin;                                                             215P    270
S      1G      2D    216P    270                                        T      1
