                                                                        S      1
,,6HClamp4,6HClamp4,7Hunknown,7Hunknown,32,38,7,99,15,,1.,2,2HMM,1,0.08,G      1
15H20150604.204725,0.01,10000.,7Hunknown,7Hunknown,11,0,;               G      2
     186       1                                                00000000D      1
     186            -243       1       0                               0D      2
     514       2                                                00010000D      3
     514                       2       1                               0D      4
     510       4                                                00010000D      5
     510            -243       1       1                               0D      6
     510       5                                                00010000D      7
     510            -243       1       1                               0D      8
     510       6                                                00010000D      9
     510            -243       1       1                               0D     10
     510       7                                                00010000D     11
     510            -243       1       1                               0D     12
     510       8                                                00010000D     13
     510            -243       1       1                               0D     14
     510       9                                                00010000D     15
     510            -243       1       1                               0D     16
     510      10                                                00010000D     17
     510            -243       1       1                               0D     18
     510      11                                                00010000D     19
     510            -243       1       1                               0D     20
     510      12                                                00010000D     21
     510            -243       1       1                               0D     22
     510      13                                                00010000D     23
     510            -243       1       1                               0D     24
     510      14                                                00010000D     25
     510            -243       1       1                               0D     26
     510      15                                                00010000D     27
     510            -243       1       1                               0D     28
     510      16                                                00010000D     29
     510            -243       1       1                               0D     30
     510      17                                                00010000D     31
     510            -243       1       1                               0D     32
     510      18                                                00010000D     33
     510            -243       1       1                               0D     34
     510      19                                                00010000D     35
     510            -243       1       1                               0D     36
     510      20                                                00010000D     37
     510            -243       1       1                               0D     38
     510      21                                                00010000D     39
     510            -243       1       1                               0D     40
     510      22                                                00010000D     41
     510            -243       1       1                               0D     42
     508      23                                                00010000D     43
     508                       1       1                               0D     44
     508      24                                                00010000D     45
     508                       1       1                               0D     46
     508      25                                                00010000D     47
     508                       2       1                               0D     48
     508      27                                                00010000D     49
     508                       1       1                               0D     50
     508      28                                                00010000D     51
     508                       2       1                               0D     52
     508      30                                                00010000D     53
     508                       2       1                               0D     54
     508      32                                                00010000D     55
     508                       1       1                               0D     56
     508      33                                                00010000D     57
     508                       1       1                               0D     58
     508      34                                                00010000D     59
     508                       2       1                               0D     60
     508      36                                                00010000D     61
     508                       3       1                               0D     62
     508      39                                                00010000D     63
     508                       1       1                               0D     64
     508      40                                                00010000D     65
     508                       1       1                               0D     66
     508      41                                                00010000D     67
     508                       1       1                               0D     68
     508      42                                                00010000D     69
     508                       1       1                               0D     70
     508      43                                                00010000D     71
     508                       1       1                               0D     72
     508      44                                                00010000D     73
     508                       1       1                               0D     74
     508      45                                                00010000D     75
     508                       2       1                               0D     76
     508      47                                                00010000D     77
     508                       2       1                               0D     78
     508      49                                                00010000D     79
     508                       1       1                               0D     80
     508      50                                                00010000D     81
     508                       1       1                               0D     82
     508      51                                                00010000D     83
     508                       2       1                               0D     84
     508      53                                                00010000D     85
     508                       1       1                               0D     86
     508      54                                                00010000D     87
     508                       1       1                               0D     88
     508      55                                                00010000D     89
     508                       1       1                               0D     90
     126      56                                                00010000D     91
     126       0               4       0                               0D     92
     126      60                                                00010000D     93
     126       0               2       0                               0D     94
     126      62                                                00010000D     95
     126       0               5       0                               0D     96
     126      67                                                00010000D     97
     126       0               2       0                               0D     98
     126      69                                                00010000D     99
     126       0               3       0                               0D    100
     126      72                                                00010000D    101
     126       0               2       0                               0D    102
     126      74                                                00010000D    103
     126       0               2       0                               0D    104
     126      76                                                00010000D    105
     126       0               2       0                               0D    106
     126      78                                                00010000D    107
     126       0               3       0                               0D    108
     126      81                                                00010000D    109
     126       0               2       0                               0D    110
     126      83                                                00010000D    111
     126       0               4       0                               0D    112
     126      87                                                00010000D    113
     126       0               5       0                               0D    114
     126      92                                                00010000D    115
     126       0               2       0                               0D    116
     126      94                                                00010000D    117
     126       0               2       0                               0D    118
     126      96                                                00010000D    119
     126       0               2       0                               0D    120
     126      98                                                00010000D    121
     126       0               2       0                               0D    122
     126     100                                                00010000D    123
     126       0               2       0                               0D    124
     126     102                                                00010000D    125
     126       0               2       0                               0D    126
     126     104                                                00010000D    127
     126       0               2       0                               0D    128
     126     106                                                00010000D    129
     126       0               2       0                               0D    130
     126     108                                                00010000D    131
     126       0               2       0                               0D    132
     126     110                                                00010000D    133
     126       0               2       0                               0D    134
     126     112                                                00010000D    135
     126       0               2       0                               0D    136
     126     114                                                00010000D    137
     126       0               2       0                               0D    138
     126     116                                                00010000D    139
     126       0               2       0                               0D    140
     126     118                                                00010000D    141
     126       0               2       0                               0D    142
     126     120                                                00010000D    143
     126       0               2       0                               0D    144
     126     122                                                00010000D    145
     126       0               2       0                               0D    146
     126     124                                                00010000D    147
     126       0               2       0                               0D    148
     126     126                                                00010000D    149
     126       0               3       0                               0D    150
     126     129                                                00010000D    151
     126       0               3       0                               0D    152
     126     132                                                00010000D    153
     126       0               3       0                               0D    154
     126     135                                                00010000D    155
     126       0               2       0                               0D    156
     126     137                                                00010000D    157
     126       0               3       0                               0D    158
     126     140                                                00010000D    159
     126       0               4       0                               0D    160
     126     144                                                00010000D    161
     126       0               4       0                               0D    162
     126     148                                                00010000D    163
     126       0               7       0                               0D    164
     126     155                                                00010000D    165
     126       0               7       0                               0D    166
     126     162                                                00010000D    167
     126       0               5       0                               0D    168
     126     167                                                00010000D    169
     126       0               6       0                               0D    170
     126     173                                                00010000D    171
     126       0               2       0                               0D    172
     126     175                                                00010000D    173
     126       0               3       0                               0D    174
     126     178                                                00010000D    175
     126       0               2       0                               0D    176
     126     180                                                00010000D    177
     126       0               3       0                               0D    178
     126     183                                                00010000D    179
     126       0               3       0                               0D    180
     126     186                                                00010000D    181
     126       0               2       0                               0D    182
     126     188                                                00010000D    183
     126       0               4       0                               0D    184
     126     192                                                00010000D    185
     126       0               3       0                               0D    186
     126     195                                                00010000D    187
     126       0               8       0                               0D    188
     126     203                                                00010000D    189
     126       0               2       0                               0D    190
     126     205                                                00010000D    191
     126       0               9       0                               0D    192
     126     214                                                00010000D    193
     126       0               2       0                               0D    194
     126     216                                                00010000D    195
     126       0               2       0                               0D    196
     126     218                                                00010000D    197
     126       0               2       0                               0D    198
     128     220                                                00010000D    199
     128       0    -243       6       0                               0D    200
     128     226                                                00010000D    201
     128       0    -243       4       0                               0D    202
     128     230                                                00010000D    203
     128       0    -243       3       0                               0D    204
     128     233                                                00010000D    205
     128       0    -243       7       0                               0D    206
     128     240                                                00010000D    207
     128       0    -243       3       0                               0D    208
     128     243                                                00010000D    209
     128       0    -243       3       0                               0D    210
     128     246                                                00010000D    211
     128       0    -243       3       0                               0D    212
     128     249                                                00010000D    213
     128       0    -243       3       0                               0D    214
     128     252                                                00010000D    215
     128       0    -243       3       0                               0D    216
     128     255                                                00010000D    217
     128       0    -243       4       0                               0D    218
     128     259                                                00010000D    219
     128       0    -243       4       0                               0D    220
     128     263                                                00010000D    221
     128       0    -243       5       0                               0D    222
     128     268                                                00010000D    223
     128       0    -243       7       0                               0D    224
     128     275                                                00010000D    225
     128       0    -243       4       0                               0D    226
     128     279                                                00010000D    227
     128       0    -243      12       0                               0D    228
     128     291                                                00010000D    229
     128       0    -243      15       0                               0D    230
     128     306                                                00010000D    231
     128       0    -243       3       0                               0D    232
     128     309                                                00010000D    233
     128       0    -243       3       0                               0D    234
     128     312                                                00010000D    235
     128       0    -243       4       0                               0D    236
     502     316                                                00010000D    237
     502                      10       1                               0D    238
     504     326                                                00010001D    239
     504                      16       1                               0D    240
     406     342                                                00000000D    241
     406                       1      15                               0D    242
     314     343                                                00000200D    243
     314                       2       0                               0D    244
186,3,1,0,0,1,241;                                                     1P      1
514,19,5,1,7,1,9,1,11,1,13,1,15,1,17,1,19,1,21,1,23,1,25,1,27,1,       3P      2
29,1,31,1,33,1,35,1,37,1,39,1,41,1;                                    3P      3
510,199,1,1,43;                                                        5P      4
510,201,1,1,45;                                                        7P      5
510,203,1,1,47;                                                        9P      6
510,205,1,1,49;                                                       11P      7
510,207,1,1,51;                                                       13P      8
510,209,1,1,53;                                                       15P      9
510,211,1,1,55;                                                       17P     10
510,213,1,1,57;                                                       19P     11
510,215,1,1,59;                                                       21P     12
510,217,3,1,61,63,65;                                                 23P     13
510,219,1,1,67;                                                       25P     14
510,221,1,1,69;                                                       27P     15
510,223,1,1,71;                                                       29P     16
510,225,1,1,73;                                                       31P     17
510,227,1,1,75;                                                       33P     18
510,229,1,1,77;                                                       35P     19
510,231,1,1,79;                                                       37P     20
510,233,1,1,81;                                                       39P     21
510,235,4,1,83,85,87,89;                                              41P     22
508,4,0,239,1,1,0,0,239,2,1,0,0,239,3,1,0,0,239,4,1,0;                43P     23
508,4,0,239,4,0,0,0,239,5,0,0,0,239,6,0,0,0,239,7,1,0;                45P     24
508,6,0,239,3,0,0,0,239,8,0,0,0,239,9,0,0,0,239,10,1,0,0,239,11,      47P     25
0,0,0,239,5,1,0;                                                      47P     26
508,4,0,239,12,1,0,0,239,6,1,0,0,239,11,1,0,0,239,13,1,0;             49P     27
508,8,0,239,13,0,0,0,239,10,0,0,0,239,14,1,0,0,239,15,1,0,0,239,      51P     28
16,0,0,0,239,17,0,0,0,239,18,1,0,0,239,19,1,0;                        51P     29
508,6,0,239,2,0,0,0,239,20,1,0,0,239,21,0,0,0,239,22,1,0,0,239,       53P     30
23,0,0,0,239,8,1,0;                                                   53P     31
508,4,0,239,23,1,0,0,239,24,0,0,0,239,25,0,0,0,239,26,1,0;            55P     32
508,4,0,239,21,1,0,0,239,27,1,0,0,239,28,1,0,0,239,29,0,0;            57P     33
508,6,0,239,1,0,0,0,239,7,0,0,0,239,12,0,0,0,239,19,0,0,0,239,        59P     34
30,1,0,0,239,20,0,0;                                                  59P     35
508,12,0,239,31,0,0,0,239,32,0,0,0,239,14,0,0,0,239,9,1,0,0,239,      61P     36
26,0,0,0,239,33,0,0,0,239,27,0,0,0,239,30,0,0,0,239,18,0,0,0,         61P     37
239,34,0,0,0,239,35,0,0,0,239,36,0,0;                                 61P     38
508,2,0,239,37,0,0,0,239,38,0,0;                                      63P     39
508,2,0,239,39,0,0,0,239,40,0,0;                                      65P     40
508,4,0,239,31,1,0,0,239,41,1,0,0,239,42,0,0,0,239,43,0,0;            67P     41
508,4,0,239,36,1,0,0,239,44,1,0,0,239,45,0,0,0,239,41,0,0;            69P     42
508,4,0,239,35,1,0,0,239,46,0,0,0,239,47,0,0,0,239,44,0,0;            71P     43
508,4,0,239,34,1,0,0,239,17,1,0,0,239,48,0,0,0,239,46,1,0;            73P     44
508,5,0,239,49,0,0,0,239,50,1,0,0,239,40,1,0,0,239,39,1,0,0,239,      75P     45
50,0,0;                                                               75P     46
508,5,0,239,51,0,0,0,239,52,1,0,0,239,38,1,0,0,239,37,1,0,0,239,      77P     47
52,0,0;                                                               77P     48
508,4,0,239,32,1,0,0,239,43,1,0,0,239,53,0,0,0,239,15,0,0;            79P     49
508,4,0,239,33,1,0,0,239,25,1,0,0,239,54,0,0,0,239,28,0,0;            81P     50
508,6,0,239,45,1,0,0,239,47,1,0,0,239,48,1,0,0,239,16,1,0,0,239,      83P     51
53,1,0,0,239,42,1,0;                                                  83P     52
508,4,0,239,22,0,0,0,239,29,1,0,0,239,54,1,0,0,239,24,1,0;            85P     53
508,1,0,239,49,1,0;                                                   87P     54
508,1,0,239,51,1,0;                                                   89P     55
126,2,2,0,0,0,0,-0.785398163397448,-0.785398163397448,                91P     56
-0.785398163397448,0.785398163397448,0.785398163397448,               91P     57
0.785398163397448,1.,0.707106781186544,1.,57.,11.,28.,55.5,11.,       91P     58
28.,55.5,11.,29.5,-0.785398163397448,0.785398163397448,0.,0.,0.;      91P     59
126,1,1,0,0,1,0,-0.2,-0.2,0.6,0.6,1.,1.,55.5,11.,29.5,55.5,19.,       93P     60
29.5,-0.2,0.6,0.,0.,0.;                                               93P     61
126,2,2,0,0,0,0,-0.785398163397448,-0.785398163397448,                95P     62
-0.785398163397448,0.785398163397448,0.785398163397448,               95P     63
0.785398163397448,1.,0.707106781186544,1.,55.5,19.,29.5,55.5,         95P     64
19.,28.,57.,19.,28.,-0.785398163397448,0.785398163397448,0.,0.,       95P     65
0.;                                                                   95P     66
126,1,1,0,0,1,0,-0.6,-0.6,0.2,0.2,1.,1.,57.,19.,28.,57.,11.,28.,      97P     67
-0.6,0.2,0.,0.,0.;                                                    97P     68
126,1,1,0,0,1,0,-0.149999999999999,-0.149999999999999,                99P     69
-0.0500000000000007,-0.0500000000000007,1.,1.,58.,19.,28.,57.,        99P     70
19.,28.,-0.149999999999999,-0.0500000000000007,0.,0.,0.;              99P     71
126,1,1,0,0,1,0,0.35,0.35,1.15,1.15,1.,1.,58.,11.,28.,58.,19.,       101P     72
28.,0.35,1.15,0.,0.,0.;                                              101P     73
126,1,1,0,0,1,0,0.15,0.15,0.249999999999999,0.249999999999999,       103P     74
1.,1.,58.,11.,28.,57.,11.,28.,0.15,0.249999999999999,0.,0.,0.;       103P     75
126,1,1,0,0,1,0,0.,0.,0.25,0.25,1.,1.,55.5,19.,32.,55.5,19.,         105P     76
29.5,0.,0.25,0.,0.,0.;                                               105P     77
126,1,1,0,0,1,0,-0.425,-0.425,-0.0250000000000004,                   107P     78
-0.0250000000000004,1.,1.,59.5,19.,32.,55.5,19.,32.,-0.425,          107P     79
-0.0250000000000004,0.,0.,0.;                                        107P     80
126,1,1,0,0,1,0,0.,0.,0.25,0.25,1.,1.,59.5,19.,32.,59.5,19.,         109P     81
29.5,0.,0.25,0.,0.,0.;                                               109P     82
126,2,2,0,0,0,0,-0.785398163397448,-0.785398163397448,               111P     83
-0.785398163397448,0.785398163397448,0.785398163397448,              111P     84
0.785398163397448,1.,0.707106781186544,1.,58.,19.,28.,59.5,19.,      111P     85
28.,59.5,19.,29.5,-0.785398163397448,0.785398163397448,0.,0.,0.;     111P     86
126,2,2,0,0,0,0,-0.785398163397448,-0.785398163397448,               113P     87
-0.785398163397448,0.785398163397448,0.785398163397448,              113P     88
0.785398163397448,1.,0.707106781186544,1.,59.5,11.,29.5,59.5,        113P     89
11.,28.,58.,11.,28.,-0.785398163397448,0.785398163397448,0.,0.,      113P     90
0.;                                                                  113P     91
126,1,1,0,0,1,0,-1.15,-1.15,-0.35,-0.35,1.,1.,59.5,19.,29.5,         115P     92
59.5,11.,29.5,-1.15,-0.35,0.,0.,0.;                                  115P     93
126,1,1,0,0,1,0,1.,1.,2.7,2.7,1.,1.,59.5,19.,32.,59.5,36.,32.,       117P     94
1.,2.7,0.,0.,0.;                                                     117P     95
126,1,1,0,0,1,0,0.,0.,0.4,0.4,1.,1.,59.5,36.,32.,59.5,36.,36.,       119P     96
0.,0.4,0.,0.,0.;                                                     119P     97
126,1,1,0,0,1,0,0.,0.,3.6,3.6,1.,1.,59.5,0.,36.,59.5,36.,36.,0.,     121P     98
3.6,0.,0.,0.;                                                        121P     99
126,1,1,0,0,1,0,0.,0.,0.4,0.4,1.,1.,59.5,0.,32.,59.5,0.,36.,0.,      123P    100
0.4,0.,0.,0.;                                                        123P    101
126,1,1,0,0,1,0,-0.9,-0.9,0.2,0.2,1.,1.,59.5,0.,32.,59.5,11.,        125P    102
32.,-0.9,0.2,0.,0.,0.;                                               125P    103
126,1,1,0,0,1,0,0.,0.,0.25,0.25,1.,1.,59.5,11.,32.,59.5,11.,         127P    104
29.5,0.,0.25,0.,0.,0.;                                               127P    105
126,1,1,0,0,1,0,-0.25,-0.25,0.,0.,1.,1.,55.5,11.,29.5,55.5,11.,      129P    106
32.,-0.25,0.,0.,0.,0.;                                               129P    107
126,1,1,0,0,1,0,-0.4,-0.4,0.,0.,1.,1.,55.5,11.,36.,55.5,11.,32.,     131P    108
-0.4,0.,0.,0.,0.;                                                    131P    109
126,1,1,0,0,1,0,-0.8,-0.8,0.,0.,1.,1.,55.5,11.,36.,55.5,19.,36.,     133P    110
-0.8,0.,0.,0.,0.;                                                    133P    111
126,1,1,0,0,1,0,0.,0.,0.4,0.4,1.,1.,55.5,19.,32.,55.5,19.,36.,       135P    112
0.,0.4,0.,0.,0.;                                                     135P    113
126,1,1,0,0,1,0,0.,0.,0.4,0.4,1.,1.,51.5,19.,36.,55.5,19.,36.,       137P    114
0.,0.4,0.,0.,0.;                                                     137P    115
126,1,1,0,0,1,0,0.,0.,0.4,0.4,1.,1.,51.5,19.,32.,51.5,19.,36.,       139P    116
0.,0.4,0.,0.,0.;                                                     139P    117
126,1,1,0,0,1,0,-0.125,-0.125,0.275,0.275,1.,1.,51.5,19.,32.,        141P    118
55.5,19.,32.,-0.125,0.275,0.,0.,0.;                                  141P    119
126,1,1,0,0,1,0,0.125,0.125,0.525,0.525,1.,1.,55.5,11.,32.,51.5,     143P    120
11.,32.,0.125,0.525,0.,0.,0.;                                        143P    121
126,1,1,0,0,1,0,0.,0.,0.4,0.4,1.,1.,51.5,11.,32.,51.5,11.,36.,       145P    122
0.,0.4,0.,0.,0.;                                                     145P    123
126,1,1,0,0,1,0,0.399999999999999,0.399999999999999,0.8,0.8,1.,      147P    124
1.,55.5,11.,36.,51.5,11.,36.,0.399999999999999,0.8,0.,0.,0.;         147P    125
126,1,1,0,0,1,0,-0.274999999999999,-0.274999999999999,0.125,         149P    126
0.125,1.,1.,59.5,11.,32.,55.5,11.,32.,-0.274999999999999,0.125,      149P    127
0.,0.,0.;                                                            149P    128
126,1,1,0,0,1,0,-0.9,-0.9,1.75100087236241,1.75100087236241,1.,      151P    129
1.,48.5,36.,32.,48.5,9.48999127637589,32.,-0.9,1.75100087236241,     151P    130
0.,0.,0.;                                                            151P    131
126,1,1,0,0,1,0,-0.274999999999999,-0.274999999999999,               153P    132
0.825000000000001,0.825000000000001,1.,1.,59.5,36.,32.,48.5,36.,     153P    133
32.,-0.274999999999999,0.825000000000001,0.,0.,0.;                   153P    134
126,1,1,0,0,1,0,-0.35,-0.35,0.45,0.45,1.,1.,51.5,11.,32.,51.5,       155P    135
19.,32.,-0.35,0.45,0.,0.,0.;                                         155P    136
126,1,1,0,0,1,0,-0.229014592855636,-0.229014592855636,               157P    137
0.870968541762771,0.870968541762771,1.,1.,48.5001686538159,0.,       157P    138
32.,59.5,0.,32.,-0.229014592855636,0.870968541762771,0.,0.,0.;       157P    139
126,1,1,0,0,1,0,0.896717431390175,0.896717431390175,                 159P    140
0.897644740005476,0.897644740005476,1.,1.,48.5000751394777,          159P    141
0.00927261461884932,32.,48.5001686538159,0.,32.,                     159P    142
0.896717431390175,0.897644740005476,0.,0.,0.;                        159P    143
126,1,1,0,0,1,0,0.425500436181206,0.425500436181206,                 161P    144
1.37357230235691,1.37357230235691,1.,1.,48.5000751394777,            161P    145
9.48999127637589,32.,48.5000751394777,0.00927261461884932,32.,       161P    146
0.425500436181206,1.37357230235691,0.,0.,0.;                         161P    147
126,4,2,0,0,0,0,-2.7755575615629D-16,-2.7755575615629D-16,           163P    148
-2.7755575615629D-16,1.5707963267949,1.5707963267949,                163P    149
3.14159265358979,3.14159265358979,3.14159265358979,1.,               163P    150
0.707106781186551,1.,0.70710678118655,1.,56.,3.5,32.,56.,            163P    151
1.50000000000001,32.,54.,1.50000000000001,32.,52.,                   163P    152
1.50000000000001,32.,52.,3.5,32.,-2.7755575615629D-16,               163P    153
3.14159265358979,0.,0.,0.;                                           163P    154
126,4,2,0,0,0,0,3.14159265358979,3.14159265358979,                   165P    155
3.14159265358979,4.71238898038469,4.71238898038469,                  165P    156
6.28318530717959,6.28318530717959,6.28318530717959,1.,               165P    157
0.707106781186549,1.,0.707106781186551,1.,52.,3.5,32.,52.,           165P    158
5.49999999999999,32.,54.,5.49999999999999,32.,56.,                   165P    159
5.49999999999999,32.,56.,3.5,32.,3.14159265358979,                   165P    160
6.28318530717959,0.,0.,0.;                                           165P    161
126,4,2,0,0,0,0,0.,0.,0.,1.5707963267949,1.5707963267949,            167P    162
3.14159265358979,3.14159265358979,3.14159265358979,1.,               167P    163
0.707106781186542,1.,0.707106781186542,1.,56.,32.5,32.,56.,30.5,     167P    164
32.,54.,30.5,32.,52.,30.5,32.,52.,32.5,32.,0.,3.14159265358979,      167P    165
0.,0.,0.;                                                            167P    166
126,4,2,0,0,0,0,3.14159265358979,3.14159265358979,                   169P    167
3.14159265358979,4.71238898038469,4.71238898038469,                  169P    168
6.28318530717959,6.28318530717959,6.28318530717959,1.,               169P    169
0.707106781186542,1.,0.707106781186542,1.,52.,32.5,32.,52.,34.5,     169P    170
32.,54.,34.5,32.,56.,34.5,32.,56.,32.5,32.,3.14159265358979,         169P    171
6.28318530717959,0.,0.,0.;                                           169P    172
126,1,1,0,0,1,0,0.,0.,0.4,0.4,1.,1.,48.5,9.48999127637589,32.,       171P    173
48.5,9.48999127637589,36.,0.,0.4,0.,0.,0.;                           171P    174
126,1,1,0,0,1,0,0.,0.,2.65100087236241,2.65100087236241,1.,1.,       173P    175
48.5,36.,36.,48.5,9.48999127637589,36.,0.,2.65100087236241,0.,       173P    176
0.,0.;                                                               173P    177
126,1,1,0,0,1,0,0.,0.,0.4,0.4,1.,1.,48.5,36.,32.,48.5,36.,36.,       175P    178
0.,0.4,0.,0.,0.;                                                     175P    179
126,1,1,0,0,1,0,0.,0.,0.4,0.4,1.,1.,48.5000751394777,                177P    180
0.0092726146188471,32.,48.5000751394777,0.0092726146188471,36.,      177P    181
0.,0.4,0.,0.,0.;                                                     177P    182
126,1,1,0,0,1,0,0.,0.,0.948071866175704,0.948071866175704,1.,1.,     179P    183
48.5000751394777,9.48999127637589,36.,48.5000751394777,              179P    184
0.0092726146188471,36.,0.,0.948071866175704,0.,0.,0.;                179P    185
126,1,1,0,0,1,0,-0.4,-0.4,0.,0.,1.,1.,48.5001686538159,0.,36.,       181P    186
48.5001686538159,0.,32.,-0.4,0.,0.,0.,0.;                            181P    187
126,1,1,0,0,1,0,0.89694921602431,0.89694921602431,                   183P    188
0.897876524639611,0.897876524639611,1.,1.,48.5000751394777,          183P    189
0.0092726146188471,36.,48.5001686538159,0.,36.,0.89694921602431,     183P    190
0.897876524639611,0.,0.,0.;                                          183P    191
126,1,1,0,0,1,0,0.0919539489071353,0.0919539489071353,               185P    192
1.19193708352554,1.19193708352554,1.,1.,48.5001686538159,0.,36.,     185P    193
59.5,0.,36.,0.0919539489071353,1.19193708352554,0.,0.,0.;            185P    194
126,8,2,0,1,0,0,-3.14159265358979,-3.14159265358979,                 187P    195
-3.14159265358979,-1.5707963267949,-1.5707963267949,0.,0.,           187P    196
1.5707963267949,1.5707963267949,3.14159265358979,                    187P    197
3.14159265358979,3.14159265358979,1.,0.707106781186542,1.,           187P    198
0.707106781186542,1.,0.707106781186542,1.,0.707106781186542,1.,      187P    199
52.,32.5,36.,52.,34.5,36.,54.,34.5,36.,56.,34.5,36.,56.,32.5,        187P    200
36.,56.,30.5,36.,54.,30.5,36.,52.,30.5,36.,52.,32.5,36.,             187P    201
-3.14159265358979,3.14159265358979,0.,0.,0.;                         187P    202
126,1,1,0,0,1,0,0.,0.,2.,2.,1.,1.,52.,32.5,36.,52.,32.5,32.,0.,      189P    203
2.,0.,0.,0.;                                                         189P    204
126,8,2,0,1,0,0,-3.14159265358979,-3.14159265358979,                 191P    205
-3.14159265358979,-1.5707963267949,-1.5707963267949,0.,0.,           191P    206
1.5707963267949,1.5707963267949,3.14159265358979,                    191P    207
3.14159265358979,3.14159265358979,1.,0.70710678118655,1.,            191P    208
0.707106781186549,1.,0.70710678118655,1.,0.707106781186551,1.,       191P    209
52.,3.5,36.,52.,5.49999999999999,36.,54.,5.49999999999999,36.,       191P    210
56.,5.49999999999999,36.,56.,3.5,36.,56.,1.50000000000001,36.,       191P    211
54.,1.50000000000001,36.,52.,1.50000000000001,36.,52.,3.5,36.,       191P    212
-3.14159265358979,3.14159265358979,0.,0.,0.;                         191P    213
126,1,1,0,0,1,0,0.,0.,2.00000000000001,2.00000000000001,1.,1.,       193P    214
52.,3.5,36.,52.,3.5,32.,0.,2.00000000000001,0.,0.,0.;                193P    215
126,1,1,0,0,1,0,0.,0.,1.1,1.1,1.,1.,59.5,36.,36.,48.5,36.,36.,       195P    216
0.,1.1,0.,0.,0.;                                                     195P    217
126,1,1,0,0,1,0,0.,0.,0.8,0.8,1.,1.,51.5,11.,36.,51.5,19.,36.,       197P    218
0.,0.8,0.,0.,0.;                                                     197P    219
128,1,2,1,2,0,0,0,0,0,-4.,-4.,1.33333333333333,1.33333333333333,     199P    220
-0.785398163397448,-0.785398163397448,-0.785398163397448,            199P    221
0.785398163397448,0.785398163397448,0.785398163397448,1.,1.,         199P    222
0.707106781186548,0.707106781186548,1.,1.,55.5,11.,29.5,55.5,        199P    223
19.,29.5,55.5,11.,28.,55.5,19.,28.,57.,11.,28.,57.,19.,28.,-4.,      199P    224
1.33333333333333,-0.785398163397448,0.785398163397448;               199P    225
128,1,1,1,1,0,0,1,0,0,8.88178419700125D-16,8.88178419700125D-16,     201P    226
0.0999999999999996,0.0999999999999996,-0.4,-0.4,0.4,0.4,1.,1.,       201P    227
1.,1.,58.,11.,28.,57.,11.,28.,58.,19.,28.,57.,19.,28.,               201P    228
8.88178419700125D-16,0.0999999999999996,-0.4,0.4;                    201P    229
128,1,1,1,1,0,0,1,0,0,-0.0999999999999996,-0.0999999999999996,       203P    230
0.3,0.3,0.,0.,0.4,0.4,1.,1.,1.,1.,55.5,19.,32.,59.5,19.,32.,         203P    231
55.5,19.,28.,59.5,19.,28.,-0.0999999999999996,0.3,0.,0.4;            203P    232
128,1,2,1,2,0,0,0,0,0,-7.66666666666667,-7.66666666666667,           205P    233
-2.33333333333333,-2.33333333333333,-0.785398163397448,              205P    234
-0.785398163397448,-0.785398163397448,0.785398163397448,             205P    235
0.785398163397448,0.785398163397448,1.,1.,0.707106781186548,         205P    236
0.707106781186548,1.,1.,58.,11.,28.,58.,19.,28.,59.5,11.,28.,        205P    237
59.5,19.,28.,59.5,11.,29.5,59.5,19.,29.5,-7.66666666666667,          205P    238
-2.33333333333333,-0.785398163397448,0.785398163397448;              205P    239
128,1,1,1,1,0,0,1,0,0,0.,0.,3.6,3.6,-0.25,-0.25,0.4,0.4,1.,1.,       207P    240
1.,1.,59.5,0.,29.5,59.5,36.,29.5,59.5,0.,36.,59.5,36.,36.,0.,        207P    241
3.6,-0.25,0.4;                                                       207P    242
128,1,1,1,1,0,0,1,0,0,-0.25,-0.25,0.4,0.4,0.,0.,0.8,0.8,1.,1.,       209P    243
1.,1.,55.5,11.,29.5,55.5,11.,36.,55.5,19.,29.5,55.5,19.,36.,         209P    244
-0.25,0.4,0.,0.8;                                                    209P    245
128,1,1,1,1,0,0,1,0,0,0.,0.,0.4,0.4,0.,0.,0.4,0.4,1.,1.,1.,1.,       211P    246
51.5,19.,32.,55.5,19.,32.,51.5,19.,36.,55.5,19.,36.,0.,0.4,0.,       211P    247
0.4;                                                                 211P    248
128,1,1,1,1,0,0,1,0,0,0.399999999999999,0.399999999999999,0.8,       213P    249
0.8,0.,0.,0.4,0.4,1.,1.,1.,1.,55.5,11.,32.,51.5,11.,32.,55.5,        213P    250
11.,36.,51.5,11.,36.,0.399999999999999,0.8,0.,0.4;                   213P    251
128,1,1,1,1,0,0,1,0,0,0.,0.,0.399999999999999,0.399999999999999,     215P    252
0.,0.,0.4,0.4,1.,1.,1.,1.,59.5,11.,32.,55.5,11.,32.,59.5,11.,        215P    253
28.,55.5,11.,28.,0.,0.399999999999999,0.,0.4;                        215P    254
128,1,1,1,1,0,0,1,0,0,-0.55,-0.55,0.550000000000001,                 217P    255
0.550000000000001,-1.8,-1.8,1.8,1.8,1.,1.,1.,1.,59.5,0.,32.,         217P    256
48.5,0.,32.,59.5,36.,32.,48.5,36.,32.,-0.55,0.550000000000001,       217P    257
-1.8,1.8;                                                            217P    258
128,1,1,1,1,0,0,1,0,0,0.,0.,2.65100087236241,2.65100087236241,       219P    259
0.,0.,0.4,0.4,1.,1.,1.,1.,48.5,36.,32.,48.5,9.48999127637588,        219P    260
32.,48.5,36.,36.,48.5,9.48999127637588,36.,0.,2.65100087236241,      219P    261
0.,0.4;                                                              219P    262
128,1,1,1,1,0,0,1,0,0,0.,0.,0.948071866175704,0.948071866175704,     221P    263
0.,0.,0.4,0.4,1.,1.,1.,1.,48.5000751394777,9.48999127637589,32.,     221P    264
48.5000751394777,0.0092726146188471,32.,48.5000751394777,            221P    265
9.48999127637589,36.,48.5000751394777,0.0092726146188471,36.,0.,     221P    266
0.948071866175704,0.,0.4;                                            221P    267
128,1,1,1,1,0,0,1,0,0,0.,0.,0.4,0.4,-2.22044604925031D-16,           223P    268
-2.22044604925031D-16,0.000927308615300826,0.000927308615300826,     223P    269
1.,1.,1.,1.,48.5000751394777,0.00927261461884932,36.,                223P    270
48.5000751394777,0.00927261461884932,32.,48.5001686538159,           223P    271
-6.17995238316738D-17,36.,48.5001686538159,                          223P    272
-6.17995238316738D-17,32.,0.,0.4,-2.22044604925031D-16,              223P    273
0.000927308615300826;                                                223P    274
128,1,1,1,1,0,0,1,0,0,0.0919539489071353,0.0919539489071353,         225P    275
1.19193708352554,1.19193708352554,0.,0.,0.4,0.4,1.,1.,1.,1.,         225P    276
48.5001686538159,0.,32.,59.5,0.,32.,48.5001686538159,0.,36.,         225P    277
59.5,0.,36.,0.0919539489071353,1.19193708352554,0.,0.4;              225P    278
128,1,8,1,2,0,1,0,0,1,0.,0.,2.,2.,-3.14159265358979,                 227P    279
-3.14159265358979,-3.14159265358979,-1.5707963267949,                227P    280
-1.5707963267949,0.,0.,1.5707963267949,1.5707963267949,              227P    281
3.14159265358979,3.14159265358979,3.14159265358979,1.,1.,            227P    282
0.707106781186548,0.707106781186548,1.,1.,0.707106781186548,         227P    283
0.707106781186548,1.,1.,0.707106781186548,0.707106781186548,1.,      227P    284
1.,0.707106781186548,0.707106781186548,1.,1.,52.,32.5,36.,52.,       227P    285
32.5,32.,52.,34.5,36.,52.,34.5,32.,54.,34.5,36.,54.,34.5,32.,        227P    286
56.,34.5,36.,56.,34.5,32.,56.,32.5,36.,56.,32.5,32.,56.,30.5,        227P    287
36.,56.,30.5,32.,54.,30.5,36.,54.,30.5,32.,52.,30.5,36.,52.,         227P    288
30.5,32.,52.,32.5,36.,52.,32.5,32.,0.,2.,-3.14159265358979,          227P    289
3.14159265358979;                                                    227P    290
128,1,8,1,2,0,1,0,0,1,0.,0.,2.00000000000001,2.00000000000001,       229P    291
-3.14159265358979,-3.14159265358979,-3.14159265358979,               229P    292
-1.5707963267949,-1.5707963267949,0.,0.,1.5707963267949,             229P    293
1.5707963267949,3.14159265358979,3.14159265358979,                   229P    294
3.14159265358979,1.,1.,0.707106781186548,0.707106781186548,1.,       229P    295
1.,0.707106781186548,0.707106781186548,1.,1.,0.707106781186548,      229P    296
0.707106781186548,1.,1.,0.707106781186548,0.707106781186548,1.,      229P    297
1.,52.,3.5,36.,52.,3.5,32.,52.,5.49999999999999,36.,52.,             229P    298
5.49999999999999,32.,54.,5.49999999999999,36.,54.,                   229P    299
5.49999999999999,32.,56.,5.49999999999999,36.,56.,                   229P    300
5.49999999999999,32.,56.,3.5,36.,56.,3.5,32.,56.,                    229P    301
1.50000000000001,36.,56.,1.50000000000001,32.,54.,                   229P    302
1.50000000000001,36.,54.,1.50000000000001,32.,52.,                   229P    303
1.50000000000001,36.,52.,1.50000000000001,32.,52.,3.5,36.,52.,       229P    304
3.5,32.,0.,2.00000000000001,-3.14159265358979,3.14159265358979;      229P    305
128,1,1,1,1,0,0,1,0,0,0.,0.,1.1,1.1,0.,0.,0.4,0.4,1.,1.,1.,1.,       231P    306
59.5,36.,32.,48.5,36.,32.,59.5,36.,36.,48.5,36.,36.,0.,1.1,0.,       231P    307
0.4;                                                                 231P    308
128,1,1,1,1,0,0,1,0,0,0.,0.,0.8,0.8,0.,0.,0.4,0.4,1.,1.,1.,1.,       233P    309
51.5,11.,32.,51.5,19.,32.,51.5,11.,36.,51.5,19.,36.,0.,0.8,0.,       233P    310
0.4;                                                                 233P    311
128,1,1,1,1,0,0,1,0,0,-0.504031458237229,-0.504031458237229,         235P    312
0.595968541762771,0.595968541762771,-1.8,-1.8,1.8,1.8,1.,1.,1.,      235P    313
1.,48.5,0.,36.,59.5,0.,36.,48.5,36.,36.,59.5,36.,36.,                235P    314
-0.504031458237229,0.595968541762771,-1.8,1.8;                       235P    315
502,36,57.,11.,28.,55.5,11.,29.5,55.5,19.,29.5,57.,19.,28.,58.,      237P    316
19.,28.,58.,11.,28.,55.5,19.,32.,59.5,19.,32.,59.5,19.,29.5,         237P    317
59.5,11.,29.5,59.5,36.,32.,59.5,36.,36.,59.5,0.,36.,59.5,0.,32.,     237P    318
59.5,11.,32.,55.5,11.,32.,55.5,11.,36.,55.5,19.,36.,51.5,19.,        237P    319
36.,51.5,19.,32.,51.5,11.,32.,51.5,11.,36.,48.5,36.,32.,48.5,        237P    320
9.48999127637589,32.,48.5001686538159,0.,32.,48.5000751394777,       237P    321
0.00927261461884932,32.,56.,3.5,32.,52.,3.5,32.,56.,32.5,32.,        237P    322
52.,32.5,32.,48.5,9.48999127637589,36.,48.5,36.,36.,                 237P    323
48.5000751394777,0.0092726146188471,36.,48.5001686538159,0.,36.,     237P    324
52.,32.5,36.,52.,3.5,36.;                                            237P    325
504,54,91,237,1,237,2,93,237,2,237,3,95,237,3,237,4,97,237,4,        239P    326
237,1,99,237,5,237,4,101,237,6,237,5,103,237,6,237,1,105,237,7,      239P    327
237,3,107,237,8,237,7,109,237,8,237,9,111,237,5,237,9,113,237,       239P    328
10,237,6,115,237,9,237,10,117,237,8,237,11,119,237,11,237,12,        239P    329
121,237,13,237,12,123,237,14,237,13,125,237,14,237,15,127,237,       239P    330
15,237,10,129,237,2,237,16,131,237,17,237,16,133,237,17,237,18,      239P    331
135,237,7,237,18,137,237,19,237,18,139,237,20,237,19,141,237,20,     239P    332
237,7,143,237,16,237,21,145,237,21,237,22,147,237,17,237,22,149,     239P    333
237,15,237,16,151,237,23,237,24,153,237,11,237,23,155,237,21,        239P    334
237,20,157,237,25,237,14,159,237,26,237,25,161,237,24,237,26,        239P    335
163,237,27,237,28,165,237,28,237,27,167,237,29,237,30,169,237,       239P    336
30,237,29,171,237,24,237,31,173,237,32,237,31,175,237,23,237,32,     239P    337
177,237,26,237,33,179,237,31,237,33,181,237,34,237,25,183,237,       239P    338
33,237,34,185,237,34,237,13,187,237,35,237,35,189,237,35,237,30,     239P    339
191,237,36,237,36,193,237,36,237,28,195,237,12,237,32,197,237,       239P    340
22,237,19;                                                           239P    341
406,1,5HBody1;                                                       241P    342
314,62.7450980392157,62.7450980392157,62.7450980392157,13HSteel      243P    343
- Satin;                                                             243P    344
S      1G      2D    244P    344                                        T      1
