                                                                        S      1
,,6HClamp3,6HClamp3,7Hunknown,7Hunknown,32,38,7,99,15,,1.,2,2HMM,1,0.08,G      1
15H20150720.221000,0.01,10000.,7Hunknown,7Hunknown,11,0,;               G      2
     186       1                                                00000000D      1
     186            -219       1       0                               0D      2
     514       2                                                00010000D      3
     514                       2       1                               0D      4
     510       4                                                00010000D      5
     510            -219       1       1                               0D      6
     510       5                                                00010000D      7
     510            -219       1       1                               0D      8
     510       6                                                00010000D      9
     510            -219       1       1                               0D     10
     510       7                                                00010000D     11
     510            -219       1       1                               0D     12
     510       8                                                00010000D     13
     510            -219       1       1                               0D     14
     510       9                                                00010000D     15
     510            -219       1       1                               0D     16
     510      10                                                00010000D     17
     510            -219       1       1                               0D     18
     510      11                                                00010000D     19
     510            -219       1       1                               0D     20
     510      12                                                00010000D     21
     510            -219       1       1                               0D     22
     510      13                                                00010000D     23
     510            -219       1       1                               0D     24
     510      14                                                00010000D     25
     510            -219       1       1                               0D     26
     510      15                                                00010000D     27
     510            -219       1       1                               0D     28
     510      16                                                00010000D     29
     510            -219       1       1                               0D     30
     510      17                                                00010000D     31
     510            -219       1       1                               0D     32
     510      18                                                00010000D     33
     510            -219       1       1                               0D     34
     510      19                                                00010000D     35
     510            -219       1       1                               0D     36
     510      20                                                00010000D     37
     510            -219       1       1                               0D     38
     508      21                                                00010000D     39
     508                       1       1                               0D     40
     508      22                                                00010000D     41
     508                       2       1                               0D     42
     508      24                                                00010000D     43
     508                       2       1                               0D     44
     508      26                                                00010000D     45
     508                       1       1                               0D     46
     508      27                                                00010000D     47
     508                       2       1                               0D     48
     508      29                                                00010000D     49
     508                       1       1                               0D     50
     508      30                                                00010000D     51
     508                       2       1                               0D     52
     508      32                                                00010000D     53
     508                       1       1                               0D     54
     508      33                                                00010000D     55
     508                       1       1                               0D     56
     508      34                                                00010000D     57
     508                       3       1                               0D     58
     508      37                                                00010000D     59
     508                       1       1                               0D     60
     508      38                                                00010000D     61
     508                       1       1                               0D     62
     508      39                                                00010000D     63
     508                       1       1                               0D     64
     508      40                                                00010000D     65
     508                       1       1                               0D     66
     508      41                                                00010000D     67
     508                       2       1                               0D     68
     508      43                                                00010000D     69
     508                       2       1                               0D     70
     508      45                                                00010000D     71
     508                       1       1                               0D     72
     508      46                                                00010000D     73
     508                       1       1                               0D     74
     508      47                                                00010000D     75
     508                       1       1                               0D     76
     508      48                                                00010000D     77
     508                       1       1                               0D     78
     508      49                                                00010000D     79
     508                       1       1                               0D     80
     508      50                                                00010000D     81
     508                       1       1                               0D     82
     126      51                                                00010000D     83
     126       0               4       0                               0D     84
     126      55                                                00010000D     85
     126       0               2       0                               0D     86
     126      57                                                00010000D     87
     126       0               4       0                               0D     88
     126      61                                                00010000D     89
     126       0               3       0                               0D     90
     126      64                                                00010000D     91
     126       0               2       0                               0D     92
     126      66                                                00010000D     93
     126       0               2       0                               0D     94
     126      68                                                00010000D     95
     126       0               2       0                               0D     96
     126      70                                                00010000D     97
     126       0               2       0                               0D     98
     126      72                                                00010000D     99
     126       0               2       0                               0D    100
     126      74                                                00010000D    101
     126       0               3       0                               0D    102
     126      77                                                00010000D    103
     126       0               2       0                               0D    104
     126      79                                                00010000D    105
     126       0               2       0                               0D    106
     126      81                                                00010000D    107
     126       0               4       0                               0D    108
     126      85                                                00010000D    109
     126       0               2       0                               0D    110
     126      87                                                00010000D    111
     126       0               3       0                               0D    112
     126      90                                                00010000D    113
     126       0               2       0                               0D    114
     126      92                                                00010000D    115
     126       0               4       0                               0D    116
     126      96                                                00010000D    117
     126       0               2       0                               0D    118
     126      98                                                00010000D    119
     126       0               2       0                               0D    120
     126     100                                                00010000D    121
     126       0               2       0                               0D    122
     126     102                                                00010000D    123
     126       0               2       0                               0D    124
     126     104                                                00010000D    125
     126       0               2       0                               0D    126
     126     106                                                00010000D    127
     126       0               2       0                               0D    128
     126     108                                                00010000D    129
     126       0               2       0                               0D    130
     126     110                                                00010000D    131
     126       0               2       0                               0D    132
     126     112                                                00010000D    133
     126       0               2       0                               0D    134
     126     114                                                00010000D    135
     126       0               2       0                               0D    136
     126     116                                                00010000D    137
     126       0               2       0                               0D    138
     126     118                                                00010000D    139
     126       0               2       0                               0D    140
     126     120                                                00010000D    141
     126       0               2       0                               0D    142
     126     122                                                00010000D    143
     126       0               2       0                               0D    144
     126     124                                                00010000D    145
     126       0               2       0                               0D    146
     126     126                                                00010000D    147
     126       0               2       0                               0D    148
     126     128                                                00010000D    149
     126       0               2       0                               0D    150
     126     130                                                00010000D    151
     126       0               5       0                               0D    152
     126     135                                                00010000D    153
     126       0               6       0                               0D    154
     126     141                                                00010000D    155
     126       0               5       0                               0D    156
     126     146                                                00010000D    157
     126       0               6       0                               0D    158
     126     152                                                00010000D    159
     126       0               2       0                               0D    160
     126     154                                                00010000D    161
     126       0               2       0                               0D    162
     126     156                                                00010000D    163
     126       0               2       0                               0D    164
     126     158                                                00010000D    165
     126       0               2       0                               0D    166
     126     160                                                00010000D    167
     126       0               8       0                               0D    168
     126     168                                                00010000D    169
     126       0               2       0                               0D    170
     126     170                                                00010000D    171
     126       0               9       0                               0D    172
     126     179                                                00010000D    173
     126       0               2       0                               0D    174
     126     181                                                00010000D    175
     126       0               2       0                               0D    176
     126     183                                                00010000D    177
     126       0               2       0                               0D    178
     128     185                                                00010000D    179
     128       0    -219       7       0                               0D    180
     128     192                                                00010000D    181
     128       0    -219       3       0                               0D    182
     128     195                                                00010000D    183
     128       0    -219       3       0                               0D    184
     128     198                                                00010000D    185
     128       0    -219       6       0                               0D    186
     128     204                                                00010000D    187
     128       0    -219       3       0                               0D    188
     128     207                                                00010000D    189
     128       0    -219       3       0                               0D    190
     128     210                                                00010000D    191
     128       0    -219       4       0                               0D    192
     128     214                                                00010000D    193
     128       0    -219       4       0                               0D    194
     128     218                                                00010000D    195
     128       0    -219       3       0                               0D    196
     128     221                                                00010000D    197
     128       0    -219       3       0                               0D    198
     128     224                                                00010000D    199
     128       0    -219       2       0                               0D    200
     128     226                                                00010000D    201
     128       0    -219       2       0                               0D    202
     128     228                                                00010000D    203
     128       0    -219      12       0                               0D    204
     128     240                                                00010000D    205
     128       0    -219      13       0                               0D    206
     128     253                                                00010000D    207
     128       0    -219       2       0                               0D    208
     128     255                                                00010000D    209
     128       0    -219       2       0                               0D    210
     128     257                                                00010000D    211
     128       0    -219       3       0                               0D    212
     502     260                                                00010000D    213
     502                       7       1                               0D    214
     504     267                                                00010001D    215
     504                      14       1                               0D    216
     406     281                                                00000000D    217
     406                       1      15                               0D    218
     314     282                                                00000200D    219
     314                       2       0                               0D    220
186,3,1,0,0,1,217;                                                     1P      1
514,17,5,1,7,1,9,1,11,1,13,1,15,1,17,1,19,1,21,1,23,1,25,1,27,1,       3P      2
29,1,31,1,33,1,35,1,37,1;                                              3P      3
510,179,1,1,39;                                                        5P      4
510,181,1,1,41;                                                        7P      5
510,183,1,1,43;                                                        9P      6
510,185,1,1,45;                                                       11P      7
510,187,1,1,47;                                                       13P      8
510,189,1,1,49;                                                       15P      9
510,191,1,1,51;                                                       17P     10
510,193,1,1,53;                                                       19P     11
510,195,1,1,55;                                                       21P     12
510,197,3,1,57,59,61;                                                 23P     13
510,199,1,1,63;                                                       25P     14
510,201,1,1,65;                                                       27P     15
510,203,1,1,67;                                                       29P     16
510,205,1,1,69;                                                       31P     17
510,207,1,1,71;                                                       33P     18
510,209,1,1,73;                                                       35P     19
510,211,4,1,75,77,79,81;                                              37P     20
508,4,0,215,1,1,0,0,215,2,1,0,0,215,3,1,0,0,215,4,1,0;                39P     21
508,8,0,215,4,0,0,0,215,5,0,0,0,215,6,1,0,0,215,7,1,0,0,215,8,0,      41P     22
0,0,215,9,0,0,0,215,10,1,0,0,215,11,1,0;                              41P     23
508,6,0,215,3,0,0,0,215,12,0,0,0,215,13,0,0,0,215,14,0,0,0,215,       43P     24
15,0,0,0,215,5,1,0;                                                   43P     25
508,4,0,215,13,1,0,0,215,16,1,0,0,215,17,1,0,0,215,18,1,0;            45P     26
508,6,0,215,18,0,0,0,215,19,1,0,0,215,20,0,0,0,215,21,1,0,0,215,      47P     27
22,0,0,0,215,14,1,0;                                                  47P     28
508,4,0,215,2,0,0,0,215,23,1,0,0,215,16,0,0,0,215,12,1,0;             49P     29
508,6,0,215,1,0,0,0,215,11,0,0,0,215,24,1,0,0,215,19,0,0,0,215,       51P     30
17,0,0,0,215,23,0,0;                                                  51P     31
508,4,0,215,22,1,0,0,215,25,0,0,0,215,26,0,0,0,215,27,1,0;            53P     32
508,4,0,215,20,1,0,0,215,28,1,0,0,215,29,0,0,0,215,30,0,0;            55P     33
508,10,0,215,24,0,0,0,215,10,0,0,0,215,31,0,0,0,215,32,0,0,0,         57P     34
215,33,0,0,0,215,6,0,0,0,215,15,1,0,0,215,27,0,0,0,215,34,0,0,0,      57P     35
215,28,0,0;                                                           57P     36
508,2,0,215,35,0,0,0,215,36,0,0;                                      59P     37
508,2,0,215,37,0,0,0,215,38,0,0;                                      61P     38
508,4,0,215,33,1,0,0,215,39,1,0,0,215,40,0,0,0,215,7,0,0;             63P     39
508,4,0,215,32,1,0,0,215,41,1,0,0,215,42,0,0,0,215,39,0,0;            65P     40
508,5,0,215,43,0,0,0,215,44,1,0,0,215,36,1,0,0,215,35,1,0,0,215,      67P     41
44,0,0;                                                               67P     42
508,5,0,215,45,0,0,0,215,46,1,0,0,215,38,1,0,0,215,37,1,0,0,215,      69P     43
46,0,0;                                                               69P     44
508,4,0,215,31,1,0,0,215,9,1,0,0,215,47,0,0,0,215,41,0,0;             71P     45
508,4,0,215,34,1,0,0,215,26,1,0,0,215,48,0,0,0,215,29,1,0;            73P     46
508,4,0,215,8,1,0,0,215,40,1,0,0,215,42,1,0,0,215,47,1,0;             75P     47
508,1,0,215,43,1,0;                                                   77P     48
508,1,0,215,45,1,0;                                                   79P     49
508,4,0,215,21,0,0,0,215,30,1,0,0,215,48,1,0,0,215,25,1,0;            81P     50
126,2,2,0,0,0,0,-0.785398163397452,-0.785398163397452,                83P     51
-0.785398163397452,0.785398163397445,0.785398163397445,               83P     52
0.785398163397445,1.,0.707106781186541,1.,-5.5,29.,27.,-5.5,29.,      83P     53
26.,-4.5,29.,26.,-0.785398163397452,0.785398163397445,0.,0.,0.;       83P     54
126,1,1,0,0,1,0,0.149999999999999,0.149999999999999,0.95,0.95,        85P     55
1.,1.,-4.5,29.,26.,-4.5,21.,26.,0.149999999999999,0.95,0.,0.,0.;      85P     56
126,2,2,0,0,0,0,-0.785398163397445,-0.785398163397445,                87P     57
-0.785398163397445,0.785398163397452,0.785398163397452,               87P     58
0.785398163397452,1.,0.707106781186541,1.,-4.5,21.,26.,-5.5,21.,      87P     59
26.,-5.5,21.,27.,-0.785398163397445,0.785398163397452,0.,0.,0.;       87P     60
126,1,1,0,0,1,0,-0.949999999999999,-0.949999999999999,                89P     61
-0.149999999999999,-0.149999999999999,1.,1.,-5.5,21.,27.,-5.5,        89P     62
29.,27.,-0.949999999999999,-0.149999999999999,0.,0.,0.;               89P     63
126,1,1,0,0,1,0,0.,0.,0.5,0.5,1.,1.,-5.5,21.,32.,-5.5,21.,27.,        91P     64
0.,0.5,0.,0.,0.;                                                      91P     65
126,1,1,0,0,1,0,0.599999999999999,0.599999999999999,2.7,2.7,1.,       93P     66
1.,-5.5,21.,32.,-5.5,0.,32.,0.599999999999999,2.7,0.,0.,0.;           93P     67
126,1,1,0,0,1,0,0.,0.,0.4,0.4,1.,1.,-5.5,0.,32.,-5.5,0.,36.,0.,       95P     68
0.4,0.,0.,0.;                                                         95P     69
126,1,1,0,0,1,0,0.,0.,3.6,3.6,1.,1.,-5.5,36.,36.,-5.5,0.,36.,0.,      97P     70
3.6,0.,0.,0.;                                                         97P     71
126,1,1,0,0,1,0,0.,0.,0.4,0.4,1.,1.,-5.5,36.,32.,-5.5,36.,36.,        99P     72
0.,0.4,0.,0.,0.;                                                      99P     73
126,1,1,0,0,1,0,-0.9,-0.9,-0.200000000000001,-0.200000000000001,     101P     74
1.,1.,-5.5,36.,32.,-5.5,29.,32.,-0.9,-0.200000000000001,0.,0.,       101P     75
0.;                                                                  101P     76
126,1,1,0,0,1,0,0.,0.,0.5,0.5,1.,1.,-5.5,29.,32.,-5.5,29.,27.,       103P     77
0.,0.5,0.,0.,0.;                                                     103P     78
126,1,1,0,0,1,0,0.,0.,0.2,0.2,1.,1.,-2.5,21.,26.,-4.5,21.,26.,       105P     79
0.,0.2,0.,0.,0.;                                                     105P     80
126,2,2,0,0,0,0,-0.785398163397451,-0.785398163397451,               107P     81
-0.785398163397451,0.785398163397446,0.785398163397446,              107P     82
0.785398163397446,1.,0.707106781186541,1.,-1.5,21.,27.,-1.5,21.,     107P     83
26.,-2.5,21.,26.,-0.785398163397451,0.785398163397446,0.,0.,0.;      107P     84
126,1,1,0,0,1,0,-0.4,-0.4,0.1,0.1,1.,1.,-1.5,21.,32.,-1.5,21.,       109P     85
27.,-0.4,0.1,0.,0.,0.;                                               109P     86
126,1,1,0,0,1,0,-0.425,-0.425,-0.0250000000000001,                   111P     87
-0.0250000000000001,1.,1.,-5.5,21.,32.,-1.5,21.,32.,-0.425,          111P     88
-0.0250000000000001,0.,0.,0.;                                        111P     89
126,1,1,0,0,1,0,-0.6,-0.6,0.2,0.2,1.,1.,-2.5,21.,26.,-2.5,29.,       113P     90
26.,-0.6,0.2,0.,0.,0.;                                               113P     91
126,2,2,0,0,0,0,-0.785398163397446,-0.785398163397446,               115P     92
-0.785398163397446,0.785398163397451,0.785398163397451,              115P     93
0.785398163397451,1.,0.707106781186541,1.,-2.5,29.,26.,-1.5,29.,     115P     94
26.,-1.5,29.,27.,-0.785398163397446,0.785398163397451,0.,0.,0.;      115P     95
126,1,1,0,0,1,0,-0.2,-0.2,0.6,0.6,1.,1.,-1.5,29.,27.,-1.5,21.,       117P     96
27.,-0.2,0.6,0.,0.,0.;                                               117P     97
126,1,1,0,0,1,0,-0.5,-0.5,0.,0.,1.,1.,-1.5,29.,27.,-1.5,29.,32.,     119P     98
-0.5,0.,0.,0.,0.;                                                    119P     99
126,1,1,0,0,1,0,-0.4,-0.4,0.,0.,1.,1.,-1.5,29.,36.,-1.5,29.,32.,     121P    100
-0.4,0.,0.,0.,0.;                                                    121P    101
126,1,1,0,0,1,0,0.,0.,0.8,0.8,1.,1.,-1.5,29.,36.,-1.5,21.,36.,       123P    102
0.,0.8,0.,0.,0.;                                                     123P    103
126,1,1,0,0,1,0,0.,0.,0.4,0.4,1.,1.,-1.5,21.,32.,-1.5,21.,36.,       125P    104
0.,0.4,0.,0.,0.;                                                     125P    105
126,1,1,0,0,1,0,-0.2,-0.2,0.,0.,1.,1.,-4.5,29.,26.,-2.5,29.,26.,     127P    106
-0.2,0.,0.,0.,0.;                                                    127P    107
126,1,1,0,0,1,0,-0.275,-0.275,0.125,0.125,1.,1.,-5.5,29.,32.,        129P    108
-1.5,29.,32.,-0.275,0.125,0.,0.,0.;                                  129P    109
126,1,1,0,0,1,0,0.,0.,0.4,0.4,1.,1.,2.5,21.,36.,-1.5,21.,36.,0.,     131P    110
0.4,0.,0.,0.;                                                        131P    111
126,1,1,0,0,1,0,0.,0.,0.4,0.4,1.,1.,2.5,21.,32.,2.5,21.,36.,0.,      133P    112
0.4,0.,0.,0.;                                                        133P    113
126,1,1,0,0,1,0,-0.125,-0.125,0.275,0.275,1.,1.,2.5,21.,32.,         135P    114
-1.5,21.,32.,-0.125,0.275,0.,0.,0.;                                  135P    115
126,1,1,0,0,1,0,0.125,0.125,0.525,0.525,1.,1.,-1.5,29.,32.,2.5,      137P    116
29.,32.,0.125,0.525,0.,0.,0.;                                        137P    117
126,1,1,0,0,1,0,-0.4,-0.4,0.,0.,1.,1.,2.5,29.,36.,2.5,29.,32.,       139P    118
-0.4,0.,0.,0.,0.;                                                    139P    119
126,1,1,0,0,1,0,0.4,0.4,0.8,0.8,1.,1.,-1.5,29.,36.,2.5,29.,36.,      141P    120
0.4,0.8,0.,0.,0.;                                                    141P    121
126,1,1,0,0,1,0,-0.275,-0.275,0.825,0.825,1.,1.,5.5,36.,32.,         143P    122
-5.5,36.,32.,-0.275,0.825,0.,0.,0.;                                  143P    123
126,1,1,0,0,1,0,-0.9,-0.9,2.7,2.7,1.,1.,5.5,0.,32.,5.5,36.,32.,      145P    124
-0.9,2.7,0.,0.,0.;                                                   145P    125
126,1,1,0,0,1,0,-0.275,-0.275,0.825,0.825,1.,1.,-5.5,0.,32.,5.5,     147P    126
0.,32.,-0.275,0.825,0.,0.,0.;                                        147P    127
126,1,1,0,0,1,0,-0.55,-0.55,0.25,0.25,1.,1.,2.5,29.,32.,2.5,21.,     149P    128
32.,-0.55,0.25,0.,0.,0.;                                             149P    129
126,4,2,0,0,0,0,0.,0.,0.,1.5707963267949,1.5707963267949,            151P    130
3.14159265358979,3.14159265358979,3.14159265358979,1.,               151P    131
0.707106781186548,1.,0.707106781186548,1.,2.,3.5,32.,2.,1.5,32.,     151P    132
-9.87758344710421D-16,1.5,32.,-2.,1.5,32.,-2.,3.5,32.,0.,            151P    133
3.14159265358979,0.,0.,0.;                                           151P    134
126,4,2,0,0,0,0,3.14159265358979,3.14159265358979,                   153P    135
3.14159265358979,4.71238898038469,4.71238898038469,                  153P    136
6.28318530717959,6.28318530717959,6.28318530717959,1.,               153P    137
0.707106781186548,1.,0.707106781186548,1.,-2.,3.5,32.,-2.,5.5,       153P    138
32.,-1.47761706436936D-15,5.5,32.,2.,5.5,32.,2.,3.5,32.,             153P    139
3.14159265358979,6.28318530717959,0.,0.,0.;                          153P    140
126,4,2,0,0,0,0,0.,0.,0.,1.5707963267949,1.5707963267949,            155P    141
3.14159265358979,3.14159265358979,3.14159265358979,1.,               155P    142
0.707106781186542,1.,0.707106781186548,1.,2.,32.5,32.,2.,30.5,       155P    143
32.,-9.87758344710421D-16,30.5,32.,-2.,30.5,32.,-2.,32.5,32.,0.,     155P    144
3.14159265358979,0.,0.,0.;                                           155P    145
126,4,2,0,0,0,0,3.14159265358979,3.14159265358979,                   157P    146
3.14159265358979,4.71238898038469,4.71238898038469,                  157P    147
6.28318530717959,6.28318530717959,6.28318530717959,1.,               157P    148
0.707106781186542,1.,0.707106781186548,1.,-2.,32.5,32.,-2.,34.5,     157P    149
32.,-1.47761706436936D-15,34.5,32.,2.,34.5,32.,2.,32.5,32.,          157P    150
3.14159265358979,6.28318530717959,0.,0.,0.;                          157P    151
126,1,1,0,0,1,0,0.,0.,0.4,0.4,1.,1.,5.5,0.,32.,5.5,0.,36.,0.,        159P    152
0.4,0.,0.,0.;                                                        159P    153
126,1,1,0,0,1,0,0.,0.,1.1,1.1,1.,1.,-5.5,0.,36.,5.5,0.,36.,0.,       161P    154
1.1,0.,0.,0.;                                                        161P    155
126,1,1,0,0,1,0,0.,0.,0.4,0.4,1.,1.,5.5,36.,32.,5.5,36.,36.,0.,      163P    156
0.4,0.,0.,0.;                                                        163P    157
126,1,1,0,0,1,0,0.,0.,3.6,3.6,1.,1.,5.5,0.,36.,5.5,36.,36.,0.,       165P    158
3.6,0.,0.,0.;                                                        165P    159
126,8,2,0,1,0,0,-3.14159265358979,-3.14159265358979,                 167P    160
-3.14159265358979,-1.5707963267949,-1.5707963267949,0.,0.,           167P    161
1.5707963267949,1.5707963267949,3.14159265358979,                    167P    162
3.14159265358979,3.14159265358979,1.,0.707106781186548,1.,           167P    163
0.707106781186547,1.,0.707106781186548,1.,0.707106781186548,1.,      167P    164
-2.,3.5,36.,-2.,5.5,36.,-9.87758344710421D-16,5.5,36.,2.,5.5,        167P    165
36.,2.,3.5,36.,2.,1.5,36.,-9.87758344710421D-16,1.5,36.,-2.,1.5,     167P    166
36.,-2.,3.5,36.,-3.14159265358979,3.14159265358979,0.,0.,0.;         167P    167
126,1,1,0,0,1,0,0.,0.,2.,2.,1.,1.,-2.,3.5,36.,-2.,3.5,32.,0.,2.,     169P    168
0.,0.,0.;                                                            169P    169
126,8,2,0,1,0,0,-3.14159265358979,-3.14159265358979,                 171P    170
-3.14159265358979,-1.5707963267949,-1.5707963267949,0.,0.,           171P    171
1.5707963267949,1.5707963267949,3.14159265358979,                    171P    172
3.14159265358979,3.14159265358979,1.,0.707106781186548,1.,           171P    173
0.707106781186542,1.,0.707106781186542,1.,0.707106781186548,1.,      171P    174
-2.,32.5,36.,-2.,34.5,36.,-9.87758344710421D-16,34.5,36.,2.,         171P    175
34.5,36.,2.,32.5,36.,2.,30.5,36.,-9.87758344710421D-16,30.5,36.,     171P    176
-2.,30.5,36.,-2.,32.5,36.,-3.14159265358979,3.14159265358979,0.,     171P    177
0.,0.;                                                               171P    178
126,1,1,0,0,1,0,0.,0.,2.,2.,1.,1.,-2.,32.5,36.,-2.,32.5,32.,0.,      173P    179
2.,0.,0.,0.;                                                         173P    180
126,1,1,0,0,1,0,0.,0.,1.1,1.1,1.,1.,5.5,36.,36.,-5.5,36.,36.,0.,     175P    181
1.1,0.,0.,0.;                                                        175P    182
126,1,1,0,0,1,0,0.,0.,0.8,0.8,1.,1.,2.5,29.,36.,2.5,21.,36.,0.,      177P    183
0.8,0.,0.,0.;                                                        177P    184
128,1,2,1,2,0,0,0,0,0,-9.5,-9.5,-1.49999999999999,                   179P    185
-1.49999999999999,-0.785398163397445,-0.785398163397445,             179P    186
-0.785398163397445,0.785398163397452,0.785398163397452,              179P    187
0.785398163397452,1.,1.,0.707106781186548,0.707106781186548,1.,      179P    188
1.,-4.5,29.,26.,-4.5,21.,26.,-5.5,29.,26.,-5.5,21.,26.,-5.5,29.,     179P    189
27.,-5.5,21.,27.,-9.5,-1.49999999999999,-0.785398163397445,          179P    190
0.785398163397452;                                                   179P    191
128,1,1,1,1,0,0,1,0,0,0.,0.,3.6,3.6,-0.5,-0.5,0.4,0.4,1.,1.,1.,      181P    192
1.,-5.5,36.,27.,-5.5,0.,27.,-5.5,36.,36.,-5.5,0.,36.,0.,3.6,         181P    193
-0.5,0.4;                                                            181P    194
128,1,1,1,1,0,0,1,0,0,-0.1,-0.1,0.3,0.3,0.,0.,0.6,0.6,1.,1.,1.,      183P    195
1.,-1.5,21.,32.,-5.5,21.,32.,-1.5,21.,26.,-5.5,21.,26.,-0.1,0.3,     183P    196
0.,0.6;                                                              183P    197
128,1,2,1,2,0,0,0,0,0,-2.,-2.,6.,6.,-0.785398163397446,              185P    198
-0.785398163397446,-0.785398163397446,0.785398163397451,             185P    199
0.785398163397451,0.785398163397451,1.,1.,0.707106781186548,         185P    200
0.707106781186548,1.,1.,-2.5,21.,26.,-2.5,29.,26.,-1.5,21.,26.,      185P    201
-1.5,29.,26.,-1.5,21.,27.,-1.5,29.,27.,-2.,6.,                       185P    202
-0.785398163397446,0.785398163397451;                                185P    203
128,1,1,1,1,0,0,1,0,0,-0.4,-0.4,0.5,0.5,-0.8,-0.8,0.,0.,1.,1.,       187P    204
1.,1.,-1.5,21.,36.,-1.5,21.,27.,-1.5,29.,36.,-1.5,29.,27.,-0.4,      187P    205
0.5,-0.8,0.;                                                         187P    206
128,1,1,1,1,0,0,1,0,0,-0.15,-0.15,0.05,0.05,-0.4,-0.4,0.4,0.4,       189P    207
1.,1.,1.,1.,-2.5,21.,26.,-4.5,21.,26.,-2.5,29.,26.,-4.5,29.,26.,     189P    208
-0.15,0.05,-0.4,0.4;                                                 189P    209
128,1,1,1,1,0,0,1,0,0,-9.08299088023081D-19,                         191P    210
-9.08299088023081D-19,0.4,0.4,0.,0.,0.6,0.6,1.,1.,1.,1.,-5.5,        191P    211
29.,32.,-1.5,29.,32.,-5.5,29.,26.,-1.5,29.,26.,                      191P    212
-9.08299088023081D-19,0.4,0.,0.6;                                    191P    213
128,1,1,1,1,0,0,1,0,0,-2.77555756156289D-17,                         193P    214
-2.77555756156289D-17,0.4,0.4,0.,0.,0.4,0.4,1.,1.,1.,1.,2.5,21.,     193P    215
32.,-1.5,21.,32.,2.5,21.,36.,-1.5,21.,36.,-2.77555756156289D-17,     193P    216
0.4,0.,0.4;                                                          193P    217
128,1,1,1,1,0,0,1,0,0,0.4,0.4,0.8,0.8,0.,0.,0.4,0.4,1.,1.,1.,1.,     195P    218
-1.5,29.,32.,2.5,29.,32.,-1.5,29.,36.,2.5,29.,36.,0.4,0.8,0.,        195P    219
0.4;                                                                 195P    220
128,1,1,1,1,0,0,1,0,0,-0.55,-0.55,0.55,0.55,-1.8,-1.8,1.8,1.8,       197P    221
1.,1.,1.,1.,5.5,0.,32.,-5.5,0.,32.,5.5,36.,32.,-5.5,36.,32.,         197P    222
-0.55,0.55,-1.8,1.8;                                                 197P    223
128,1,1,1,1,0,0,1,0,0,0.,0.,1.1,1.1,0.,0.,0.4,0.4,1.,1.,1.,1.,       199P    224
-5.5,0.,32.,5.5,0.,32.,-5.5,0.,36.,5.5,0.,36.,0.,1.1,0.,0.4;         199P    225
128,1,1,1,1,0,0,1,0,0,0.,0.,3.6,3.6,0.,0.,0.4,0.4,1.,1.,1.,1.,       201P    226
5.5,0.,32.,5.5,36.,32.,5.5,0.,36.,5.5,36.,36.,0.,3.6,0.,0.4;         201P    227
128,1,8,1,2,0,1,0,0,1,0.,0.,2.,2.,-3.14159265358979,                 203P    228
-3.14159265358979,-3.14159265358979,-1.5707963267949,                203P    229
-1.5707963267949,0.,0.,1.5707963267949,1.5707963267949,              203P    230
3.14159265358979,3.14159265358979,3.14159265358979,1.,1.,            203P    231
0.707106781186548,0.707106781186548,1.,1.,0.707106781186548,         203P    232
0.707106781186548,1.,1.,0.707106781186548,0.707106781186548,1.,      203P    233
1.,0.707106781186548,0.707106781186548,1.,1.,-2.,3.5,36.,-2.,        203P    234
3.5,32.,-2.,5.5,36.,-2.,5.5,32.,-1.11022302462516D-15,5.5,36.,       203P    235
-1.11022302462516D-15,5.5,32.,2.,5.5,36.,2.,5.5,32.,2.,3.5,36.,      203P    236
2.,3.5,32.,2.,1.5,36.,2.,1.5,32.,-1.11022302462516D-15,1.5,36.,      203P    237
-1.11022302462516D-15,1.5,32.,-2.,1.5,36.,-2.,1.5,32.,-2.,3.5,       203P    238
36.,-2.,3.5,32.,0.,2.,-3.14159265358979,3.14159265358979;            203P    239
128,1,8,1,2,0,1,0,0,1,0.,0.,2.,2.,-3.14159265358979,                 205P    240
-3.14159265358979,-3.14159265358979,-1.5707963267949,                205P    241
-1.5707963267949,0.,0.,1.5707963267949,1.5707963267949,              205P    242
3.14159265358979,3.14159265358979,3.14159265358979,1.,1.,            205P    243
0.707106781186548,0.707106781186548,1.,1.,0.707106781186548,         205P    244
0.707106781186548,1.,1.,0.707106781186548,0.707106781186548,1.,      205P    245
1.,0.707106781186548,0.707106781186548,1.,1.,-2.,32.5,36.,-2.,       205P    246
32.5,32.,-2.,34.5,36.,-2.,34.5,32.,-1.11022302462516D-15,34.5,       205P    247
36.,-1.11022302462516D-15,34.5,32.,2.,34.5,36.,2.,34.5,32.,2.,       205P    248
32.5,36.,2.,32.5,32.,2.,30.5,36.,2.,30.5,32.,                        205P    249
-1.11022302462516D-15,30.5,36.,-1.11022302462516D-15,30.5,32.,       205P    250
-2.,30.5,36.,-2.,30.5,32.,-2.,32.5,36.,-2.,32.5,32.,0.,2.,           205P    251
-3.14159265358979,3.14159265358979;                                  205P    252
128,1,1,1,1,0,0,1,0,0,0.,0.,1.1,1.1,0.,0.,0.4,0.4,1.,1.,1.,1.,       207P    253
5.5,36.,32.,-5.5,36.,32.,5.5,36.,36.,-5.5,36.,36.,0.,1.1,0.,0.4;     207P    254
128,1,1,1,1,0,0,1,0,0,0.,0.,0.8,0.8,0.,0.,0.4,0.4,1.,1.,1.,1.,       209P    255
2.5,29.,32.,2.5,21.,32.,2.5,29.,36.,2.5,21.,36.,0.,0.8,0.,0.4;       209P    256
128,1,1,1,1,0,0,1,0,0,-0.55,-0.55,0.55,0.55,-1.8,-1.8,1.8,1.8,       211P    257
1.,1.,1.,1.,-5.5,0.,36.,5.5,0.,36.,-5.5,36.,36.,5.5,36.,36.,         211P    258
-0.55,0.55,-1.8,1.8;                                                 211P    259
502,32,-5.5,29.,27.,-4.5,29.,26.,-4.5,21.,26.,-5.5,21.,27.,-5.5,     213P    260
21.,32.,-5.5,0.,32.,-5.5,0.,36.,-5.5,36.,36.,-5.5,36.,32.,-5.5,      213P    261
29.,32.,-2.5,21.,26.,-1.5,21.,27.,-1.5,21.,32.,-2.5,29.,26.,         213P    262
-1.5,29.,27.,-1.5,29.,32.,-1.5,29.,36.,-1.5,21.,36.,2.5,21.,36.,     213P    263
2.5,21.,32.,2.5,29.,32.,2.5,29.,36.,5.5,36.,32.,5.5,0.,32.,2.,       213P    264
3.5,32.,-2.,3.5,32.,2.,32.5,32.,-2.,32.5,32.,5.5,0.,36.,5.5,36.,     213P    265
36.,-2.,3.5,36.,-2.,32.5,36.;                                        213P    266
504,48,83,213,1,213,2,85,213,2,213,3,87,213,3,213,4,89,213,4,        215P    267
213,1,91,213,5,213,4,93,213,5,213,6,95,213,6,213,7,97,213,8,213,     215P    268
7,99,213,9,213,8,101,213,9,213,10,103,213,10,213,1,105,213,11,       215P    269
213,3,107,213,12,213,11,109,213,13,213,12,111,213,5,213,13,113,      215P    270
213,11,213,14,115,213,14,213,15,117,213,15,213,12,119,213,15,        215P    271
213,16,121,213,17,213,16,123,213,17,213,18,125,213,13,213,18,        215P    272
127,213,2,213,14,129,213,10,213,16,131,213,19,213,18,133,213,20,     215P    273
213,19,135,213,20,213,13,137,213,16,213,21,139,213,22,213,21,        215P    274
141,213,17,213,22,143,213,23,213,9,145,213,24,213,23,147,213,6,      215P    275
213,24,149,213,21,213,20,151,213,25,213,26,153,213,26,213,25,        215P    276
155,213,27,213,28,157,213,28,213,27,159,213,24,213,29,161,213,7,     215P    277
213,29,163,213,23,213,30,165,213,29,213,30,167,213,31,213,31,        215P    278
169,213,31,213,26,171,213,32,213,32,173,213,32,213,28,175,213,       215P    279
30,213,8,177,213,22,213,19;                                          215P    280
406,1,5HBody1;                                                       217P    281
314,62.7450980392157,62.7450980392157,62.7450980392157,13HSteel      219P    282
- Satin;                                                             219P    283
S      1G      2D    220P    283                                        T      1
