                                                                        S      1
,,6HClamp1,6HClamp1,7Hunknown,7Hunknown,32,38,7,99,15,,1.,2,2HMM,1,0.08,G      1
15H20150604.204708,0.01,10000.,7Hunknown,7Hunknown,11,0,;               G      2
     186       1                                                00000000D      1
     186            -227       1       0                               0D      2
     514       2                                                00010000D      3
     514                       2       1                               0D      4
     510       4                                                00010000D      5
     510            -227       1       1                               0D      6
     510       5                                                00010000D      7
     510            -227       1       1                               0D      8
     510       6                                                00010000D      9
     510            -227       1       1                               0D     10
     510       7                                                00010000D     11
     510            -227       1       1                               0D     12
     510       8                                                00010000D     13
     510            -227       1       1                               0D     14
     510       9                                                00010000D     15
     510            -227       1       1                               0D     16
     510      10                                                00010000D     17
     510            -227       1       1                               0D     18
     510      11                                                00010000D     19
     510            -227       1       1                               0D     20
     510      12                                                00010000D     21
     510            -227       1       1                               0D     22
     510      13                                                00010000D     23
     510            -227       1       1                               0D     24
     510      14                                                00010000D     25
     510            -227       1       1                               0D     26
     510      15                                                00010000D     27
     510            -227       1       1                               0D     28
     510      16                                                00010000D     29
     510            -227       1       1                               0D     30
     510      17                                                00010000D     31
     510            -227       1       1                               0D     32
     510      18                                                00010000D     33
     510            -227       1       1                               0D     34
     510      19                                                00010000D     35
     510            -227       1       1                               0D     36
     510      20                                                00010000D     37
     510            -227       1       1                               0D     38
     510      21                                                00010000D     39
     510            -227       1       1                               0D     40
     508      22                                                00010000D     41
     508                       1       1                               0D     42
     508      23                                                00010000D     43
     508                       1       1                               0D     44
     508      24                                                00010000D     45
     508                       2       1                               0D     46
     508      26                                                00010000D     47
     508                       1       1                               0D     48
     508      27                                                00010000D     49
     508                       2       1                               0D     50
     508      29                                                00010000D     51
     508                       2       1                               0D     52
     508      31                                                00010000D     53
     508                       1       1                               0D     54
     508      32                                                00010000D     55
     508                       1       1                               0D     56
     508      33                                                00010000D     57
     508                       2       1                               0D     58
     508      35                                                00010000D     59
     508                       3       1                               0D     60
     508      38                                                00010000D     61
     508                       1       1                               0D     62
     508      39                                                00010000D     63
     508                       1       1                               0D     64
     508      40                                                00010000D     65
     508                       1       1                               0D     66
     508      41                                                00010000D     67
     508                       1       1                               0D     68
     508      42                                                00010000D     69
     508                       1       1                               0D     70
     508      43                                                00010000D     71
     508                       1       1                               0D     72
     508      44                                                00010000D     73
     508                       1       1                               0D     74
     508      45                                                00010000D     75
     508                       1       1                               0D     76
     508      46                                                00010000D     77
     508                       1       1                               0D     78
     508      47                                                00010000D     79
     508                       1       1                               0D     80
     508      48                                                00010000D     81
     508                       1       1                               0D     82
     508      49                                                00010000D     83
     508                       1       1                               0D     84
     508      50                                                00010000D     85
     508                       2       1                               0D     86
     126      52                                                00010000D     87
     126       0               4       0                               0D     88
     126      56                                                00010000D     89
     126       0               2       0                               0D     90
     126      58                                                00010000D     91
     126       0               4       0                               0D     92
     126      62                                                00010000D     93
     126       0               2       0                               0D     94
     126      64                                                00010000D     95
     126       0               3       0                               0D     96
     126      67                                                00010000D     97
     126       0               2       0                               0D     98
     126      69                                                00010000D     99
     126       0               3       0                               0D    100
     126      72                                                00010000D    101
     126       0               2       0                               0D    102
     126      74                                                00010000D    103
     126       0               3       0                               0D    104
     126      77                                                00010000D    105
     126       0               2       0                               0D    106
     126      79                                                00010000D    107
     126       0               4       0                               0D    108
     126      83                                                00010000D    109
     126       0               4       0                               0D    110
     126      87                                                00010000D    111
     126       0               3       0                               0D    112
     126      90                                                00010000D    113
     126       0               2       0                               0D    114
     126      92                                                00010000D    115
     126       0               2       0                               0D    116
     126      94                                                00010000D    117
     126       0               2       0                               0D    118
     126      96                                                00010000D    119
     126       0               2       0                               0D    120
     126      98                                                00010000D    121
     126       0               2       0                               0D    122
     126     100                                                00010000D    123
     126       0               2       0                               0D    124
     126     102                                                00010000D    125
     126       0               2       0                               0D    126
     126     104                                                00010000D    127
     126       0               2       0                               0D    128
     126     106                                                00010000D    129
     126       0               2       0                               0D    130
     126     108                                                00010000D    131
     126       0               2       0                               0D    132
     126     110                                                00010000D    133
     126       0               2       0                               0D    134
     126     112                                                00010000D    135
     126       0               2       0                               0D    136
     126     114                                                00010000D    137
     126       0               3       0                               0D    138
     126     117                                                00010000D    139
     126       0               2       0                               0D    140
     126     119                                                00010000D    141
     126       0               2       0                               0D    142
     126     121                                                00010000D    143
     126       0               3       0                               0D    144
     126     124                                                00010000D    145
     126       0               3       0                               0D    146
     126     127                                                00010000D    147
     126       0               2       0                               0D    148
     126     129                                                00010000D    149
     126       0               2       0                               0D    150
     126     131                                                00010000D    151
     126       0               3       0                               0D    152
     126     134                                                00010000D    153
     126       0               3       0                               0D    154
     126     137                                                00010000D    155
     126       0               3       0                               0D    156
     126     140                                                00010000D    157
     126       0               8       0                               0D    158
     126     148                                                00010000D    159
     126       0               9       0                               0D    160
     126     157                                                00010000D    161
     126       0               2       0                               0D    162
     126     159                                                00010000D    163
     126       0               2       0                               0D    164
     126     161                                                00010000D    165
     126       0               2       0                               0D    166
     126     163                                                00010000D    167
     126       0               2       0                               0D    168
     126     165                                                00010000D    169
     126       0               2       0                               0D    170
     126     167                                                00010000D    171
     126       0               8       0                               0D    172
     126     175                                                00010000D    173
     126       0               3       0                               0D    174
     126     178                                                00010000D    175
     126       0               9       0                               0D    176
     126     187                                                00010000D    177
     126       0               3       0                               0D    178
     126     190                                                00010000D    179
     126       0               2       0                               0D    180
     126     192                                                00010000D    181
     126       0               3       0                               0D    182
     126     195                                                00010000D    183
     126       0               2       0                               0D    184
     128     197                                                00010000D    185
     128       0    -227       6       0                               0D    186
     128     203                                                00010000D    187
     128       0    -227       4       0                               0D    188
     128     207                                                00010000D    189
     128       0    -227       3       0                               0D    190
     128     210                                                00010000D    191
     128       0    -227       7       0                               0D    192
     128     217                                                00010000D    193
     128       0    -227       3       0                               0D    194
     128     220                                                00010000D    195
     128       0    -227       3       0                               0D    196
     128     223                                                00010000D    197
     128       0    -227       3       0                               0D    198
     128     226                                                00010000D    199
     128       0    -227       4       0                               0D    200
     128     230                                                00010000D    201
     128       0    -227       3       0                               0D    202
     128     233                                                00010000D    203
     128       0    -227       3       0                               0D    204
     128     236                                                00010000D    205
     128       0    -227       3       0                               0D    206
     128     239                                                00010000D    207
     128       0    -227       2       0                               0D    208
     128     241                                                00010000D    209
     128       0    -227      17       0                               0D    210
     128     258                                                00010000D    211
     128       0    -227      16       0                               0D    212
     128     274                                                00010000D    213
     128       0    -227       4       0                               0D    214
     128     278                                                00010000D    215
     128       0    -227       4       0                               0D    216
     128     282                                                00010000D    217
     128       0    -227       2       0                               0D    218
     128     284                                                00010000D    219
     128       0    -227       4       0                               0D    220
     502     288                                                00010000D    221
     502                       7       1                               0D    222
     504     295                                                00010001D    223
     504                      14       1                               0D    224
     406     309                                                00000000D    225
     406                       1      15                               0D    226
     314     310                                                00000200D    227
     314                       2       0                               0D    228
186,3,1,0,0,1,225;                                                     1P      1
514,18,5,1,7,1,9,1,11,1,13,1,15,1,17,1,19,1,21,1,23,1,25,1,27,1,       3P      2
29,1,31,1,33,1,35,1,37,1,39,1;                                         3P      3
510,185,1,1,41;                                                        5P      4
510,187,1,1,43;                                                        7P      5
510,189,1,1,45;                                                        9P      6
510,191,1,1,47;                                                       11P      7
510,193,1,1,49;                                                       13P      8
510,195,1,1,51;                                                       15P      9
510,197,1,1,53;                                                       17P     10
510,199,1,1,55;                                                       19P     11
510,201,1,1,57;                                                       21P     12
510,203,3,1,59,61,63;                                                 23P     13
510,205,1,1,65;                                                       25P     14
510,207,1,1,67;                                                       27P     15
510,209,1,1,69;                                                       29P     16
510,211,1,1,71;                                                       31P     17
510,213,1,1,73;                                                       33P     18
510,215,1,1,75;                                                       35P     19
510,217,1,1,77;                                                       37P     20
510,219,4,1,79,81,83,85;                                              39P     21
508,4,0,223,1,1,0,0,223,2,1,0,0,223,3,1,0,0,223,4,1,0;                41P     22
508,4,0,223,4,0,0,0,223,5,0,0,0,223,6,0,0,0,223,7,1,0;                43P     23
508,6,0,223,3,0,0,0,223,8,0,0,0,223,9,0,0,0,223,10,1,0,0,223,11,      45P     24
0,0,0,223,5,1,0;                                                      45P     25
508,4,0,223,12,1,0,0,223,6,1,0,0,223,11,1,0,0,223,13,1,0;             47P     26
508,8,0,223,13,0,0,0,223,10,0,0,0,223,14,1,0,0,223,15,0,0,0,223,      49P     27
16,1,0,0,223,17,0,0,0,223,18,1,0,0,223,19,1,0;                        49P     28
508,6,0,223,2,0,0,0,223,20,1,0,0,223,21,0,0,0,223,22,1,0,0,223,       51P     29
23,0,0,0,223,8,1,0;                                                   51P     30
508,4,0,223,23,1,0,0,223,24,0,0,0,223,25,0,0,0,223,26,1,0;            53P     31
508,4,0,223,21,1,0,0,223,27,1,0,0,223,28,1,0,0,223,29,0,0;            55P     32
508,6,0,223,1,0,0,0,223,7,0,0,0,223,12,0,0,0,223,19,0,0,0,223,        57P     33
30,1,0,0,223,20,0,0;                                                  57P     34
508,11,0,223,30,0,0,0,223,18,0,0,0,223,31,0,0,0,223,32,0,0,0,         59P     35
223,33,0,0,0,223,14,0,0,0,223,9,1,0,0,223,26,0,0,0,223,34,0,0,0,      59P     36
223,35,0,0,0,223,27,0,0;                                              59P     37
508,1,0,223,36,0,0;                                                   61P     38
508,1,0,223,37,0,0;                                                   63P     39
508,4,0,223,33,1,0,0,223,38,0,0,0,223,39,1,0,0,223,15,1,0;            65P     40
508,4,0,223,32,1,0,0,223,40,1,0,0,223,41,0,0,0,223,38,1,0;            67P     41
508,4,0,223,36,1,0,0,223,42,1,0,0,223,43,0,0,0,223,42,0,0;            69P     42
508,4,0,223,37,1,0,0,223,44,1,0,0,223,45,0,0,0,223,44,0,0;            71P     43
508,4,0,223,34,1,0,0,223,25,1,0,0,223,46,0,0,0,223,47,0,0;            73P     44
508,4,0,223,35,1,0,0,223,47,1,0,0,223,48,0,0,0,223,28,0,0;            75P     45
508,4,0,223,31,1,0,0,223,17,1,0,0,223,49,0,0,0,223,40,0,0;            77P     46
508,4,0,223,16,0,0,0,223,39,0,0,0,223,41,1,0,0,223,49,1,0;            79P     47
508,1,0,223,43,1,0;                                                   81P     48
508,1,0,223,45,1,0;                                                   83P     49
508,5,0,223,22,0,0,0,223,29,1,0,0,223,48,1,0,0,223,46,1,0,0,223,      85P     50
24,1,0;                                                               85P     51
126,2,2,0,0,0,0,-0.785398163397449,-0.785398163397449,                87P     52
-0.785398163397449,0.785398163397447,0.785398163397447,               87P     53
0.785398163397447,1.,0.707106781186539,1.,57.,29.,4.,55.5,29.,        87P     54
4.,55.5,29.,2.5,-0.785398163397449,0.785398163397447,0.,0.,0.;        87P     55
126,1,1,0,0,1,0,-0.2,-0.2,0.6,0.6,1.,1.,55.5,29.,2.5,55.5,21.,        89P     56
2.5,-0.2,0.6,0.,0.,0.;                                                89P     57
126,2,2,0,0,0,0,-0.785398163397447,-0.785398163397447,                91P     58
-0.785398163397447,0.785398163397449,0.785398163397449,               91P     59
0.785398163397449,1.,0.707106781186539,1.,55.5,21.,2.5,55.5,21.,      91P     60
4.,57.,21.,4.,-0.785398163397447,0.785398163397449,0.,0.,0.;          91P     61
126,1,1,0,0,1,0,-0.6,-0.6,0.2,0.2,1.,1.,57.,21.,4.,57.,29.,4.,        93P     62
-0.6,0.2,0.,0.,0.;                                                    93P     63
126,1,1,0,0,1,0,-0.149999999999999,-0.149999999999999,                95P     64
-0.0500000000000007,-0.0500000000000007,1.,1.,58.,21.,4.,57.,         95P     65
21.,4.,-0.149999999999999,-0.0500000000000007,0.,0.,0.;               95P     66
126,1,1,0,0,1,0,0.149999999999999,0.149999999999999,0.95,0.95,        97P     67
1.,1.,58.,29.,4.,58.,21.,4.,0.149999999999999,0.95,0.,0.,0.;          97P     68
126,1,1,0,0,1,0,-0.149999999999999,-0.149999999999999,                99P     69
-0.0500000000000007,-0.0500000000000007,1.,1.,58.,29.,4.,57.,         99P     70
29.,4.,-0.149999999999999,-0.0500000000000007,0.,0.,0.;               99P     71
126,1,1,0,0,1,0,0.2,0.2,0.45,0.45,1.,1.,55.5,21.,0.,55.5,21.,        101P     72
2.5,0.2,0.45,0.,0.,0.;                                               101P     73
126,1,1,0,0,1,0,-0.425,-0.425,-0.0250000000000004,                   103P     74
-0.0250000000000004,1.,1.,59.5,21.,0.,55.5,21.,0.,-0.425,            103P     75
-0.0250000000000004,0.,0.,0.;                                        103P     76
126,1,1,0,0,1,0,0.,0.,0.25,0.25,1.,1.,59.5,21.,0.,59.5,21.,2.5,      105P     77
0.,0.25,0.,0.,0.;                                                    105P     78
126,2,2,0,0,0,0,-0.785398163397449,-0.785398163397449,               107P     79
-0.785398163397449,0.785398163397447,0.785398163397447,              107P     80
0.785398163397447,1.,0.707106781186539,1.,58.,21.,4.,59.5,21.,       107P     81
4.,59.5,21.,2.5,-0.785398163397449,0.785398163397447,0.,0.,0.;       107P     82
126,2,2,0,0,0,0,-0.785398163397447,-0.785398163397447,               109P     83
-0.785398163397447,0.785398163397449,0.785398163397449,              109P     84
0.785398163397449,1.,0.707106781186539,1.,59.5,29.,2.5,59.5,29.,     109P     85
4.,58.,29.,4.,-0.785398163397447,0.785398163397449,0.,0.,0.;         109P     86
126,1,1,0,0,1,0,-0.949999999999999,-0.949999999999999,               111P     87
-0.149999999999999,-0.149999999999999,1.,1.,59.5,21.,2.5,59.5,       111P     88
29.,2.5,-0.949999999999999,-0.149999999999999,0.,0.,0.;              111P     89
126,1,1,0,0,1,0,0.599999999999999,0.599999999999999,2.7,2.7,1.,      113P     90
1.,59.5,21.,0.,59.5,0.,0.,0.599999999999999,2.7,0.,0.,0.;            113P     91
126,1,1,0,0,1,0,-0.4,-0.4,0.,0.,1.,1.,59.5,0.,-4.,59.5,0.,0.,        115P     92
-0.4,0.,0.,0.,0.;                                                    115P     93
126,1,1,0,0,1,0,-2.1,-2.1,1.5,1.5,1.,1.,59.5,0.,-4.,59.5,36.,        117P     94
-4.,-2.1,1.5,0.,0.,0.;                                               117P     95
126,1,1,0,0,1,0,0.,0.,0.4,0.4,1.,1.,59.5,36.,0.,59.5,36.,-4.,0.,     119P     96
0.4,0.,0.,0.;                                                        119P     97
126,1,1,0,0,1,0,-0.9,-0.9,-0.200000000000001,-0.200000000000001,     121P     98
1.,1.,59.5,36.,0.,59.5,29.,0.,-0.9,-0.200000000000001,0.,0.,0.;      121P     99
126,1,1,0,0,1,0,0.,0.,0.25,0.25,1.,1.,59.5,29.,0.,59.5,29.,2.5,      123P    100
0.,0.25,0.,0.,0.;                                                    123P    101
126,1,1,0,0,1,0,-0.25,-0.25,0.,0.,1.,1.,55.5,29.,2.5,55.5,29.,       125P    102
0.,-0.25,0.,0.,0.,0.;                                                125P    103
126,1,1,0,0,1,0,-0.4,-0.4,0.,0.,1.,1.,55.5,29.,-4.,55.5,29.,0.,      127P    104
-0.4,0.,0.,0.,0.;                                                    127P    105
126,1,1,0,0,1,0,0.,0.,0.8,0.8,1.,1.,55.5,29.,-4.,55.5,21.,-4.,       129P    106
0.,0.8,0.,0.,0.;                                                     129P    107
126,1,1,0,0,1,0,-0.2,-0.2,0.2,0.2,1.,1.,55.5,21.,0.,55.5,21.,        131P    108
-4.,-0.2,0.2,0.,0.,0.;                                               131P    109
126,1,1,0,0,1,0,0.,0.,0.100000000000001,0.100000000000001,1.,1.,     133P    110
54.5,21.,-4.,55.5,21.,-4.,0.,0.100000000000001,0.,0.,0.;             133P    111
126,1,1,0,0,1,0,0.,0.,0.4,0.4,1.,1.,54.5,21.,0.,54.5,21.,-4.,0.,     135P    112
0.4,0.,0.,0.;                                                        135P    113
126,1,1,0,0,1,0,0.0249999999999995,0.0249999999999995,0.125,         137P    114
0.125,1.,1.,54.5,21.,0.,55.5,21.,0.,0.0249999999999995,0.125,0.,     137P    115
0.,0.;                                                               137P    116
126,1,1,0,0,1,0,0.125,0.125,0.525000000000001,0.525000000000001,     139P    117
1.,1.,55.5,29.,0.,51.5,29.,0.,0.125,0.525000000000001,0.,0.,0.;      139P    118
126,1,1,0,0,1,0,0.,0.,0.4,0.4,1.,1.,51.5,29.,0.,51.5,29.,-4.,0.,     141P    119
0.4,0.,0.,0.;                                                        141P    120
126,1,1,0,0,1,0,0.399999999999999,0.399999999999999,                 143P    121
0.800000000000001,0.800000000000001,1.,1.,55.5,29.,-4.,51.5,29.,     143P    122
-4.,0.399999999999999,0.800000000000001,0.,0.,0.;                    143P    123
126,1,1,0,0,1,0,-0.274999999999999,-0.274999999999999,0.125,         145P    124
0.125,1.,1.,59.5,29.,0.,55.5,29.,0.,-0.274999999999999,0.125,0.,     145P    125
0.,0.;                                                               145P    126
126,1,1,0,0,1,0,-0.275,-0.275,0.825,0.825,1.,1.,48.5,36.,0.,         147P    127
59.5,36.,0.,-0.275,0.825,0.,0.,0.;                                   147P    128
126,1,1,0,0,1,0,-0.9,-0.9,2.7,2.7,1.,1.,48.5,0.,0.,48.5,36.,0.,      149P    129
-0.9,2.7,0.,0.,0.;                                                   149P    130
126,1,1,0,0,1,0,-0.524999999999999,-0.524999999999999,0.575,         151P    131
0.575,1.,1.,59.5,0.,0.,48.5,0.,0.,-0.524999999999999,0.575,0.,       151P    132
0.,0.;                                                               151P    133
126,1,1,0,0,1,0,-0.125000015646221,-0.125000015646221,               153P    134
0.174999984353781,0.174999984353781,1.,1.,51.5,21.0000003129244,     153P    135
0.,54.5,21.,0.,-0.125000015646221,0.174999984353781,0.,0.,0.;        153P    136
126,1,1,0,0,1,0,-0.55,-0.55,0.249999968707562,0.249999968707562,     155P    137
1.,1.,51.5,29.,0.,51.5,21.0000003129244,0.,-0.55,                    155P    138
0.249999968707562,0.,0.,0.;                                          155P    139
126,8,2,0,1,0,0,-3.14159265358979,-3.14159265358979,                 157P    140
-3.14159265358979,-1.5707963267949,-1.5707963267949,0.,0.,           157P    141
1.5707963267949,1.5707963267949,3.14159265358979,                    157P    142
3.14159265358979,3.14159265358979,1.,0.707106781186542,1.,           157P    143
0.707106781186542,1.,0.707106781186542,1.,0.707106781186542,1.,      157P    144
52.,32.5,0.,52.,30.5,0.,54.,30.5,0.,56.,30.5,0.,56.,32.5,0.,56.,     157P    145
34.5,0.,54.,34.5,0.,52.,34.5,0.,52.,32.5,0.,-3.14159265358979,       157P    146
3.14159265358979,0.,0.,0.;                                           157P    147
126,8,2,0,1,0,0,-3.14159265358979,-3.14159265358979,                 159P    148
-3.14159265358979,-1.5707963267949,-1.5707963267949,0.,0.,           159P    149
1.5707963267949,1.5707963267949,3.14159265358979,                    159P    150
3.14159265358979,3.14159265358979,1.,0.707106781186551,1.,           159P    151
0.70710678118655,1.,0.707106781186549,1.,0.70710678118655,1.,        159P    152
52.,3.5,0.,52.,1.50000000000001,0.,54.,1.50000000000001,0.,56.,      159P    153
1.50000000000001,0.,56.,3.5,0.,56.,5.49999999999999,0.,54.,          159P    154
5.49999999999999,0.,52.,5.49999999999999,0.,52.,3.5,0.,              159P    155
-3.14159265358979,3.14159265358979,0.,0.,0.;                         159P    156
126,1,1,0,0,1,0,-0.4,-0.4,0.,0.,1.,1.,48.5,0.,-4.,48.5,0.,0.,        161P    157
-0.4,0.,0.,0.,0.;                                                    161P    158
126,1,1,0,0,1,0,-0.6,-0.6,0.5,0.5,1.,1.,48.5,0.,-4.,59.5,0.,-4.,     163P    159
-0.6,0.5,0.,0.,0.;                                                   163P    160
126,1,1,0,0,1,0,0.,0.,0.4,0.4,1.,1.,48.5,36.,0.,48.5,36.,-4.,0.,     165P    161
0.4,0.,0.,0.;                                                        165P    162
126,1,1,0,0,1,0,-0.4,-0.4,3.2,3.2,1.,1.,48.5,0.,-4.,48.5,36.,        167P    163
-4.,-0.4,3.2,0.,0.,0.;                                               167P    164
126,1,1,0,0,1,0,18.,18.,20.,20.,1.,1.,52.,32.5,                      169P    165
-4.44089209850063D-15,52.,32.5,-4.,18.,20.,0.,0.,0.;                 169P    166
126,8,2,0,1,0,0,-3.14159265358979,-3.14159265358979,                 171P    167
-3.14159265358979,-1.5707963267949,-1.5707963267949,0.,0.,           171P    168
1.5707963267949,1.5707963267949,3.14159265358979,                    171P    169
3.14159265358979,3.14159265358979,1.,0.707106781186542,1.,           171P    170
0.707106781186542,1.,0.707106781186542,1.,0.707106781186542,1.,      171P    171
52.,32.5,-4.,52.,30.5,-4.,54.,30.5,-4.,56.,30.5,-4.,56.,32.5,        171P    172
-4.,56.,34.5,-4.,54.,34.5,-4.,52.,34.5,-4.,52.,32.5,-4.,             171P    173
-3.14159265358979,3.14159265358979,0.,0.,0.;                         171P    174
126,1,1,0,0,1,0,18.0000000000001,18.0000000000001,                   173P    175
20.0000000000001,20.0000000000001,1.,1.,52.,3.5,0.,52.,3.5,-4.,      173P    176
18.0000000000001,20.0000000000001,0.,0.,0.;                          173P    177
126,8,2,0,1,0,0,-3.14159265358979,-3.14159265358979,                 175P    178
-3.14159265358979,-1.5707963267949,-1.5707963267949,0.,0.,           175P    179
1.5707963267949,1.5707963267949,3.14159265358979,                    175P    180
3.14159265358979,3.14159265358979,1.,0.707106781186551,1.,           175P    181
0.70710678118655,1.,0.707106781186549,1.,0.70710678118655,1.,        175P    182
52.,3.5,-4.,52.,1.50000000000001,-4.,54.,1.50000000000001,-4.,       175P    183
56.,1.50000000000001,-4.,56.,3.5,-4.,56.,5.49999999999999,-4.,       175P    184
54.,5.49999999999999,-4.,52.,5.49999999999999,-4.,52.,3.5,-4.,       175P    185
-3.14159265358979,3.14159265358979,0.,0.,0.;                         175P    186
126,1,1,0,0,1,0,0.,0.,0.300000000000002,0.300000000000002,1.,1.,     177P    187
51.5,21.0000003129244,-4.,54.5,21.,-4.,0.,0.300000000000002,0.,      177P    188
0.,0.;                                                               177P    189
126,1,1,0,0,1,0,0.,0.,0.4,0.4,1.,1.,51.5,21.0000003129244,0.,        179P    190
51.5,21.0000003129244,-4.,0.,0.4,0.,0.,0.;                           179P    191
126,1,1,0,0,1,0,0.,0.,0.799999968707562,0.799999968707562,1.,1.,     181P    192
51.5,29.,-4.,51.5,21.0000003129244,-4.,0.,0.799999968707562,0.,      181P    193
0.,0.;                                                               181P    194
126,1,1,0,0,1,0,0.,0.,1.1,1.1,1.,1.,48.5,36.,-4.,59.5,36.,-4.,       183P    195
0.,1.1,0.,0.,0.;                                                     183P    196
128,1,2,1,2,0,0,0,0,0,-4.,-4.,1.33333333333333,1.33333333333333,     185P    197
-0.785398163397447,-0.785398163397447,-0.785398163397447,            185P    198
0.785398163397449,0.785398163397449,0.785398163397449,1.,1.,         185P    199
0.707106781186548,0.707106781186548,1.,1.,55.5,29.,2.5,55.5,21.,     185P    200
2.5,55.5,29.,4.,55.5,21.,4.,57.,29.,4.,57.,21.,4.,-4.,               185P    201
1.33333333333333,-0.785398163397447,0.785398163397449;               185P    202
128,1,1,1,1,0,0,1,0,0,-0.0999999999999996,-0.0999999999999996,       187P    203
-8.88178419700125D-16,-8.88178419700125D-16,-0.4,-0.4,0.4,0.4,       187P    204
1.,1.,1.,1.,57.,21.,4.,58.,21.,4.,57.,29.,4.,58.,29.,4.,             187P    205
-0.0999999999999996,-8.88178419700125D-16,-0.4,0.4;                  187P    206
128,1,1,1,1,0,0,1,0,0,-0.0999999999999996,-0.0999999999999996,       189P    207
0.3,0.3,0.,0.,0.4,0.4,1.,1.,1.,1.,55.5,21.,0.,59.5,21.,0.,55.5,      189P    208
21.,4.,59.5,21.,4.,-0.0999999999999996,0.3,0.,0.4;                   189P    209
128,1,2,1,2,0,0,0,0,0,-6.33333333333333,-6.33333333333333,           191P    210
-0.999999999999996,-0.999999999999996,-0.785398163397449,            191P    211
-0.785398163397449,-0.785398163397449,0.785398163397447,             191P    212
0.785398163397447,0.785398163397447,1.,1.,0.707106781186548,         191P    213
0.707106781186548,1.,1.,58.,29.,4.,58.,21.,4.,59.5,29.,4.,59.5,      191P    214
21.,4.,59.5,29.,2.5,59.5,21.,2.5,-6.33333333333333,                  191P    215
-0.999999999999996,-0.785398163397449,0.785398163397447;             191P    216
128,1,1,1,1,0,0,1,0,0,0.,0.,3.6,3.6,-0.25,-0.25,0.4,0.4,1.,1.,       193P    217
1.,1.,59.5,36.,2.5,59.5,0.,2.5,59.5,36.,-4.,59.5,0.,-4.,0.,3.6,      193P    218
-0.25,0.4;                                                           193P    219
128,1,1,1,1,0,0,1,0,0,-0.4,-0.4,0.25,0.25,-0.8,-0.8,0.,0.,1.,1.,     195P    220
1.,1.,55.5,21.,-4.,55.5,21.,2.5,55.5,29.,-4.,55.5,29.,2.5,-0.4,      195P    221
0.25,-0.8,0.;                                                        195P    222
128,1,1,1,1,0,0,1,0,0,0.,0.,0.4,0.4,0.,0.,0.100000000000001,         197P    223
0.100000000000001,1.,1.,1.,1.,54.5,21.,-4.,54.5,21.,0.,55.5,21.,     197P    224
-4.,55.5,21.,0.,0.,0.4,0.,0.100000000000001;                         197P    225
128,1,1,1,1,0,0,1,0,0,0.399999999999999,0.399999999999999,           199P    226
0.800000000000001,0.800000000000001,0.,0.,0.4,0.4,1.,1.,1.,1.,       199P    227
55.5,29.,0.,51.5,29.,0.,55.5,29.,-4.,51.5,29.,-4.,                   199P    228
0.399999999999999,0.800000000000001,0.,0.4;                          199P    229
128,1,1,1,1,0,0,1,0,0,0.,0.,0.399999999999999,0.399999999999999,     201P    230
0.,0.,0.4,0.4,1.,1.,1.,1.,59.5,29.,0.,55.5,29.,0.,59.5,29.,4.,       201P    231
55.5,29.,4.,0.,0.399999999999999,0.,0.4;                             201P    232
128,1,1,1,1,0,0,1,0,0,-0.550000000000001,-0.550000000000001,         203P    233
0.55,0.55,-1.8,-1.8,1.8,1.8,1.,1.,1.,1.,48.5,0.,0.,59.5,0.,0.,       203P    234
48.5,36.,0.,59.5,36.,0.,-0.550000000000001,0.55,-1.8,1.8;            203P    235
128,1,1,1,1,0,0,1,0,0,-0.5,-0.5,0.6,0.6,0.,0.,0.4,0.4,1.,1.,1.,      205P    236
1.,59.5,0.,0.,48.5,0.,0.,59.5,0.,-4.,48.5,0.,-4.,-0.5,0.6,0.,        205P    237
0.4;                                                                 205P    238
128,1,1,1,1,0,0,1,0,0,0.,0.,3.6,3.6,0.,0.,0.4,0.4,1.,1.,1.,1.,       207P    239
48.5,0.,0.,48.5,36.,0.,48.5,0.,-4.,48.5,36.,-4.,0.,3.6,0.,0.4;       207P    240
128,1,8,1,2,0,1,0,0,1,18.,18.,20.,20.,-3.14159265358979,             209P    241
-3.14159265358979,-3.14159265358979,-1.5707963267949,                209P    242
-1.5707963267949,0.,0.,1.5707963267949,1.5707963267949,              209P    243
3.14159265358979,3.14159265358979,3.14159265358979,1.,1.,            209P    244
0.707106781186548,0.707106781186548,1.,1.,0.707106781186548,         209P    245
0.707106781186548,1.,1.,0.707106781186548,0.707106781186548,1.,      209P    246
1.,0.707106781186548,0.707106781186548,1.,1.,52.,32.5,               209P    247
-4.44089209850063D-15,52.,32.5,-4.,52.,34.5,                         209P    248
-4.44089209850063D-15,52.,34.5,-4.,54.,34.5,                         209P    249
-4.44089209850063D-15,54.,34.5,-4.,56.,34.5,                         209P    250
-4.44089209850063D-15,56.,34.5,-4.,56.,32.5,                         209P    251
-4.44089209850063D-15,56.,32.5,-4.,56.,30.5,                         209P    252
-4.44089209850063D-15,56.,30.5,-4.,54.,30.5,                         209P    253
-4.44089209850063D-15,54.,30.5,-4.,52.,30.5,                         209P    254
-4.44089209850063D-15,52.,30.5,-4.,52.,32.5,                         209P    255
-4.44089209850063D-15,52.,32.5,-4.,18.,20.,-3.14159265358979,        209P    256
3.14159265358979;                                                    209P    257
128,1,8,1,2,0,1,0,0,1,18.0000000000001,18.0000000000001,             211P    258
20.0000000000001,20.0000000000001,-3.14159265358979,                 211P    259
-3.14159265358979,-3.14159265358979,-1.5707963267949,                211P    260
-1.5707963267949,0.,0.,1.5707963267949,1.5707963267949,              211P    261
3.14159265358979,3.14159265358979,3.14159265358979,1.,1.,            211P    262
0.707106781186548,0.707106781186548,1.,1.,0.707106781186548,         211P    263
0.707106781186548,1.,1.,0.707106781186548,0.707106781186548,1.,      211P    264
1.,0.707106781186548,0.707106781186548,1.,1.,52.,3.5,0.,52.,3.5,     211P    265
-4.,52.,5.49999999999999,0.,52.,5.49999999999999,-4.,54.,            211P    266
5.49999999999999,0.,54.,5.49999999999999,-4.,56.,                    211P    267
5.49999999999999,0.,56.,5.49999999999999,-4.,56.,3.5,0.,56.,3.5,     211P    268
-4.,56.,1.50000000000001,0.,56.,1.50000000000001,-4.,54.,            211P    269
1.50000000000001,0.,54.,1.50000000000001,-4.,52.,                    211P    270
1.50000000000001,0.,52.,1.50000000000001,-4.,52.,3.5,0.,52.,3.5,     211P    271
-4.,18.0000000000001,20.0000000000001,-3.14159265358979,             211P    272
3.14159265358979;                                                    211P    273
128,1,1,1,1,0,0,1,0,0,0.,0.,0.300000000000003,0.300000000000003,     213P    274
0.,0.,0.4,0.4,1.,1.,1.,1.,51.5,21.0000003129244,0.,54.5,21.,0.,      213P    275
51.5,21.0000003129244,-4.,54.5,21.,-4.,0.,0.300000000000003,0.,      213P    276
0.4;                                                                 213P    277
128,1,1,1,1,0,0,1,0,0,0.,0.,0.799999968707562,0.799999968707562,     215P    278
0.,0.,0.4,0.4,1.,1.,1.,1.,51.5,29.,0.,51.5,21.0000003129244,0.,      215P    279
51.5,29.,-4.,51.5,21.0000003129244,-4.,0.,0.799999968707562,0.,      215P    280
0.4;                                                                 215P    281
128,1,1,1,1,0,0,1,0,0,0.,0.,1.1,1.1,0.,0.,0.4,0.4,1.,1.,1.,1.,       217P    282
48.5,36.,0.,59.5,36.,0.,48.5,36.,-4.,59.5,36.,-4.,0.,1.1,0.,0.4;     217P    283
128,1,1,1,1,0,0,1,0,0,-0.55,-0.55,0.550000000000001,                 219P    284
0.550000000000001,-1.8,-1.8,1.8,1.8,1.,1.,1.,1.,59.5,0.,-4.,         219P    285
48.5,0.,-4.,59.5,36.,-4.,48.5,36.,-4.,-0.55,0.550000000000001,       219P    286
-1.8,1.8;                                                            219P    287
502,32,57.,29.,4.,55.5,29.,2.5,55.5,21.,2.5,57.,21.,4.,58.,21.,      221P    288
4.,58.,29.,4.,55.5,21.,0.,59.5,21.,0.,59.5,21.,2.5,59.5,29.,2.5,     221P    289
59.5,0.,0.,59.5,0.,-4.,59.5,36.,-4.,59.5,36.,0.,59.5,29.,0.,         221P    290
55.5,29.,0.,55.5,29.,-4.,55.5,21.,-4.,54.5,21.,-4.,54.5,21.,0.,      221P    291
51.5,29.,0.,51.5,29.,-4.,48.5,36.,0.,48.5,0.,0.,51.5,                221P    292
21.0000003129244,0.,52.,32.5,0.,52.,3.5,0.,48.5,0.,-4.,48.5,36.,     221P    293
-4.,52.,32.5,-4.,52.,3.5,-4.,51.5,21.0000003129244,-4.;              221P    294
504,49,87,221,1,221,2,89,221,2,221,3,91,221,3,221,4,93,221,4,        223P    295
221,1,95,221,5,221,4,97,221,6,221,5,99,221,6,221,1,101,221,7,        223P    296
221,3,103,221,8,221,7,105,221,8,221,9,107,221,5,221,9,109,221,       223P    297
10,221,6,111,221,9,221,10,113,221,8,221,11,115,221,12,221,11,        223P    298
117,221,12,221,13,119,221,14,221,13,121,221,14,221,15,123,221,       223P    299
15,221,10,125,221,2,221,16,127,221,17,221,16,129,221,17,221,18,      223P    300
131,221,7,221,18,133,221,19,221,18,135,221,20,221,19,137,221,20,     223P    301
221,7,139,221,16,221,21,141,221,21,221,22,143,221,17,221,22,145,     223P    302
221,15,221,16,147,221,23,221,14,149,221,24,221,23,151,221,11,        223P    303
221,24,153,221,25,221,20,155,221,21,221,25,157,221,26,221,26,        223P    304
159,221,27,221,27,161,221,28,221,24,163,221,28,221,12,165,221,       223P    305
23,221,29,167,221,28,221,29,169,221,26,221,30,171,221,30,221,30,     223P    306
173,221,27,221,31,175,221,31,221,31,177,221,32,221,19,179,221,       223P    307
25,221,32,181,221,22,221,32,183,221,29,221,13;                       223P    308
406,1,5HBody1;                                                       225P    309
314,62.7450980392157,62.7450980392157,62.7450980392157,13HSteel      227P    310
- Satin;                                                             227P    311
S      1G      2D    228P    311                                        T      1
