                                                                        S      1
,,6HClamp3,6HClamp3,7Hunknown,7Hunknown,32,38,7,99,15,,1.,2,2HMM,1,0.08,G      1
15H20150722.163655,0.01,10000.,7Hunknown,7Hunknown,11,0,;               G      2
     186       1                                                00000000D      1
     186            -195       1       0                               0D      2
     514       2                                                00010000D      3
     514                       2       1                               0D      4
     510       4                                                00010000D      5
     510            -195       1       1                               0D      6
     510       5                                                00010000D      7
     510            -195       1       1                               0D      8
     510       6                                                00010000D      9
     510            -195       1       1                               0D     10
     510       7                                                00010000D     11
     510            -195       1       1                               0D     12
     510       8                                                00010000D     13
     510            -195       1       1                               0D     14
     510       9                                                00010000D     15
     510            -195       1       1                               0D     16
     510      10                                                00010000D     17
     510            -195       1       1                               0D     18
     510      11                                                00010000D     19
     510            -195       1       1                               0D     20
     510      12                                                00010000D     21
     510            -195       1       1                               0D     22
     510      13                                                00010000D     23
     510            -195       1       1                               0D     24
     510      14                                                00010000D     25
     510            -195       1       1                               0D     26
     510      15                                                00010000D     27
     510            -195       1       1                               0D     28
     510      16                                                00010000D     29
     510            -195       1       1                               0D     30
     510      17                                                00010000D     31
     510            -195       1       1                               0D     32
     510      18                                                00010000D     33
     510            -195       1       1                               0D     34
     508      19                                                00010000D     35
     508                       1       1                               0D     36
     508      20                                                00010000D     37
     508                       1       1                               0D     38
     508      21                                                00010000D     39
     508                       1       1                               0D     40
     508      22                                                00010000D     41
     508                       1       1                               0D     42
     508      23                                                00010000D     43
     508                       2       1                               0D     44
     508      25                                                00010000D     45
     508                       1       1                               0D     46
     508      26                                                00010000D     47
     508                       2       1                               0D     48
     508      28                                                00010000D     49
     508                       1       1                               0D     50
     508      29                                                00010000D     51
     508                       1       1                               0D     52
     508      30                                                00010000D     53
     508                       1       1                               0D     54
     508      31                                                00010000D     55
     508                       1       1                               0D     56
     508      32                                                00010000D     57
     508                       3       1                               0D     58
     508      35                                                00010000D     59
     508                       1       1                               0D     60
     508      36                                                00010000D     61
     508                       1       1                               0D     62
     508      37                                                00010000D     63
     508                       1       1                               0D     64
     508      38                                                00010000D     65
     508                       1       1                               0D     66
     508      39                                                00010000D     67
     508                       2       1                               0D     68
     508      41                                                00010000D     69
     508                       2       1                               0D     70
     508      43                                                00010000D     71
     508                       1       1                               0D     72
     508      44                                                00010000D     73
     508                       1       1                               0D     74
     126      45                                                00010000D     75
     126       0               2       0                               0D     76
     126      47                                                00010000D     77
     126       0               2       0                               0D     78
     126      49                                                00010000D     79
     126       0               2       0                               0D     80
     126      51                                                00010000D     81
     126       0               2       0                               0D     82
     126      53                                                00010000D     83
     126       0               8       0                               0D     84
     126      61                                                00010000D     85
     126       0               9       0                               0D     86
     126      70                                                00010000D     87
     126       0               2       0                               0D     88
     126      72                                                00010000D     89
     126       0               2       0                               0D     90
     126      74                                                00010000D     91
     126       0               2       0                               0D     92
     126      76                                                00010000D     93
     126       0               2       0                               0D     94
     126      78                                                00010000D     95
     126       0               2       0                               0D     96
     126      80                                                00010000D     97
     126       0               2       0                               0D     98
     126      82                                                00010000D     99
     126       0               2       0                               0D    100
     126      84                                                00010000D    101
     126       0               2       0                               0D    102
     126      86                                                00010000D    103
     126       0               3       0                               0D    104
     126      89                                                00010000D    105
     126       0               2       0                               0D    106
     126      91                                                00010000D    107
     126       0               3       0                               0D    108
     126      94                                                00010000D    109
     126       0               2       0                               0D    110
     126      96                                                00010000D    111
     126       0               2       0                               0D    112
     126      98                                                00010000D    113
     126       0               2       0                               0D    114
     126     100                                                00010000D    115
     126       0               2       0                               0D    116
     126     102                                                00010000D    117
     126       0               2       0                               0D    118
     126     104                                                00010000D    119
     126       0               2       0                               0D    120
     126     106                                                00010000D    121
     126       0               2       0                               0D    122
     126     108                                                00010000D    123
     126       0               3       0                               0D    124
     126     111                                                00010000D    125
     126       0               2       0                               0D    126
     126     113                                                00010000D    127
     126       0               2       0                               0D    128
     126     115                                                00010000D    129
     126       0               2       0                               0D    130
     126     117                                                00010000D    131
     126       0               2       0                               0D    132
     126     119                                                00010000D    133
     126       0               2       0                               0D    134
     126     121                                                00010000D    135
     126       0               2       0                               0D    136
     126     123                                                00010000D    137
     126       0               2       0                               0D    138
     126     125                                                00010000D    139
     126       0               2       0                               0D    140
     126     127                                                00010000D    141
     126       0               2       0                               0D    142
     126     129                                                00010000D    143
     126       0               5       0                               0D    144
     126     134                                                00010000D    145
     126       0               6       0                               0D    146
     126     140                                                00010000D    147
     126       0               5       0                               0D    148
     126     145                                                00010000D    149
     126       0               6       0                               0D    150
     126     151                                                00010000D    151
     126       0               2       0                               0D    152
     126     153                                                00010000D    153
     126       0               2       0                               0D    154
     126     155                                                00010000D    155
     126       0               2       0                               0D    156
     126     157                                                00010000D    157
     126       0               2       0                               0D    158
     128     159                                                00010000D    159
     128       0    -195       3       0                               0D    160
     128     162                                                00010000D    161
     128       0    -195       3       0                               0D    162
     128     165                                                00010000D    163
     128       0    -195       3       0                               0D    164
     128     168                                                00010000D    165
     128       0    -195       4       0                               0D    166
     128     172                                                00010000D    167
     128       0    -195       3       0                               0D    168
     128     175                                                00010000D    169
     128       0    -195       3       0                               0D    170
     128     178                                                00010000D    171
     128       0    -195       4       0                               0D    172
     128     182                                                00010000D    173
     128       0    -195       3       0                               0D    174
     128     185                                                00010000D    175
     128       0    -195       3       0                               0D    176
     128     188                                                00010000D    177
     128       0    -195       3       0                               0D    178
     128     191                                                00010000D    179
     128       0    -195       2       0                               0D    180
     128     193                                                00010000D    181
     128       0    -195      12       0                               0D    182
     128     205                                                00010000D    183
     128       0    -195      13       0                               0D    184
     128     218                                                00010000D    185
     128       0    -195       2       0                               0D    186
     128     220                                                00010000D    187
     128       0    -195       2       0                               0D    188
     502     222                                                00010000D    189
     502                       6       1                               0D    190
     504     228                                                00010001D    191
     504                      12       1                               0D    192
     406     240                                                00000000D    193
     406                       1      15                               0D    194
     314     241                                                00000200D    195
     314                       2       0                               0D    196
186,3,1,0,0,1,193;                                                     1P      1
514,15,5,1,7,1,9,1,11,1,13,1,15,1,17,1,19,1,21,1,23,1,25,1,27,1,       3P      2
29,1,31,1,33,1;                                                        3P      3
510,159,4,1,35,37,39,41;                                               5P      4
510,161,1,1,43;                                                        7P      5
510,163,1,1,45;                                                        9P      6
510,165,1,1,47;                                                       11P      7
510,167,1,1,49;                                                       13P      8
510,169,1,1,51;                                                       15P      9
510,171,1,1,53;                                                       17P     10
510,173,1,1,55;                                                       19P     11
510,175,3,1,57,59,61;                                                 21P     12
510,177,1,1,63;                                                       23P     13
510,179,1,1,65;                                                       25P     14
510,181,1,1,67;                                                       27P     15
510,183,1,1,69;                                                       29P     16
510,185,1,1,71;                                                       31P     17
510,187,1,1,73;                                                       33P     18
508,4,0,191,1,1,0,0,191,2,1,0,0,191,3,1,0,0,191,4,1,0;                35P     19
508,1,0,191,5,1,0;                                                    37P     20
508,1,0,191,6,1,0;                                                    39P     21
508,4,0,191,7,1,0,0,191,8,1,0,0,191,9,1,0,0,191,10,1,0;               41P     22
508,8,0,191,11,1,0,0,191,12,1,0,0,191,13,1,0,0,191,4,0,0,0,191,       43P     23
14,0,0,0,191,15,1,0,0,191,16,1,0,0,191,17,1,0;                        43P     24
508,4,0,191,18,1,0,0,191,19,1,0,0,191,20,1,0,0,191,17,0,0;            45P     25
508,6,0,191,21,1,0,0,191,22,0,0,0,191,7,0,0,0,191,23,0,0,0,191,       47P     26
24,1,0,0,191,19,0,0;                                                  47P     27
508,4,0,191,20,0,0,0,191,24,0,0,0,191,25,0,0,0,191,11,0,0;            49P     28
508,4,0,191,26,1,0,0,191,21,0,0,0,191,18,0,0,0,191,16,0,0;            51P     29
508,4,0,191,23,1,0,0,191,10,0,0,0,191,27,0,0,0,191,28,1,0;            53P     30
508,4,0,191,22,1,0,0,191,29,1,0,0,191,30,0,0,0,191,8,0,0;             55P     31
508,10,0,191,26,0,0,0,191,15,0,0,0,191,31,0,0,0,191,32,0,0,0,         57P     32
191,33,0,0,0,191,12,0,0,0,191,25,1,0,0,191,28,0,0,0,191,34,0,0,       57P     33
0,191,29,0,0;                                                         57P     34
508,2,0,191,35,0,0,0,191,36,0,0;                                      59P     35
508,2,0,191,37,0,0,0,191,38,0,0;                                      61P     36
508,4,0,191,33,1,0,0,191,39,1,0,0,191,1,0,0,0,191,13,0,0;             63P     37
508,4,0,191,32,1,0,0,191,40,1,0,0,191,2,0,0,0,191,39,0,0;             65P     38
508,5,0,191,5,0,0,0,191,41,1,0,0,191,36,1,0,0,191,35,1,0,0,191,       67P     39
41,0,0;                                                               67P     40
508,5,0,191,6,0,0,0,191,42,1,0,0,191,38,1,0,0,191,37,1,0,0,191,       69P     41
42,0,0;                                                               69P     42
508,4,0,191,31,1,0,0,191,14,1,0,0,191,3,0,0,0,191,40,0,0;             71P     43
508,4,0,191,34,1,0,0,191,27,1,0,0,191,9,0,0,0,191,30,1,0;             73P     44
126,1,1,0,0,1,0,-0.2,-0.2,1.1,1.1,1.,1.,-7.5,0.,38.,5.5,0.,38.,       75P     45
-0.2,1.1,0.,0.,0.;                                                    75P     46
126,1,1,0,0,1,0,0.,0.,3.6,3.6,1.,1.,5.5,0.,38.,5.5,36.,38.,0.,        77P     47
3.6,0.,0.,0.;                                                         77P     48
126,1,1,0,0,1,0,0.,0.,1.3,1.3,1.,1.,5.5,36.,38.,-7.5,36.,38.,0.,      79P     49
1.3,0.,0.,0.;                                                         79P     50
126,1,1,0,0,1,0,0.,0.,3.6,3.6,1.,1.,-7.5,36.,38.,-7.5,0.,38.,0.,      81P     51
3.6,0.,0.,0.;                                                         81P     52
126,8,2,0,1,0,0,-3.14159265358979,-3.14159265358979,                  83P     53
-3.14159265358979,-1.5707963267949,-1.5707963267949,0.,0.,            83P     54
1.5707963267949,1.5707963267949,3.14159265358979,                     83P     55
3.14159265358979,3.14159265358979,1.,0.707106781186548,1.,            83P     56
0.707106781186547,1.,0.707106781186548,1.,0.707106781186548,1.,       83P     57
-2.,3.5,38.,-2.,5.5,38.,-9.87758344710421D-16,5.5,38.,2.,5.5,         83P     58
38.,2.,3.5,38.,2.,1.5,38.,-9.87758344710421D-16,1.5,38.,-2.,1.5,      83P     59
38.,-2.,3.5,38.,-3.14159265358979,3.14159265358979,0.,0.,0.;          83P     60
126,8,2,0,1,0,0,-3.14159265358979,-3.14159265358979,                  85P     61
-3.14159265358979,-1.5707963267949,-1.5707963267949,0.,0.,            85P     62
1.5707963267949,1.5707963267949,3.14159265358979,                     85P     63
3.14159265358979,3.14159265358979,1.,0.707106781186548,1.,            85P     64
0.707106781186542,1.,0.707106781186542,1.,0.707106781186548,1.,       85P     65
-2.,32.5,38.,-2.,34.5,38.,-9.87758344710421D-16,34.5,38.,2.,          85P     66
34.5,38.,2.,32.5,38.,2.,30.5,38.,-9.87758344710421D-16,30.5,38.,      85P     67
-2.,30.5,38.,-2.,32.5,38.,-3.14159265358979,3.14159265358979,0.,      85P     68
0.,0.;                                                                85P     69
126,1,1,0,0,1,0,-0.8,-0.8,0.,0.,1.,1.,-1.5,21.,38.,-1.5,29.,38.,      87P     70
-0.8,0.,0.,0.,0.;                                                     87P     71
126,1,1,0,0,1,0,0.4,0.4,0.8,0.8,1.,1.,-1.5,29.,38.,2.5,29.,38.,       89P     72
0.4,0.8,0.,0.,0.;                                                     89P     73
126,1,1,0,0,1,0,0.,0.,0.8,0.8,1.,1.,2.5,29.,38.,2.5,21.,38.,0.,       91P     74
0.8,0.,0.,0.;                                                         91P     75
126,1,1,0,0,1,0,0.,0.,0.4,0.4,1.,1.,2.5,21.,38.,-1.5,21.,38.,0.,      93P     76
0.4,0.,0.,0.;                                                         93P     77
126,1,1,0,0,1,0,-0.600000000000001,-0.600000000000001,0.,0.,1.,       95P     78
1.,-7.5,21.,26.,-7.5,21.,32.,-0.600000000000001,0.,0.,0.,0.;          95P     79
126,1,1,0,0,1,0,0.599999999999999,0.599999999999999,2.7,2.7,1.,       97P     80
1.,-7.5,21.,32.,-7.5,0.,32.,0.599999999999999,2.7,0.,0.,0.;           97P     81
126,1,1,0,0,1,0,0.,0.,0.6,0.6,1.,1.,-7.5,0.,32.,-7.5,0.,38.,0.,       99P     82
0.6,0.,0.,0.;                                                         99P     83
126,1,1,0,0,1,0,-0.4,-0.4,0.2,0.2,1.,1.,-7.5,36.,32.,-7.5,36.,       101P     84
38.,-0.4,0.2,0.,0.,0.;                                               101P     85
126,1,1,0,0,1,0,-0.9,-0.9,-0.200000000000001,-0.200000000000001,     103P     86
1.,1.,-7.5,36.,32.,-7.5,29.,32.,-0.9,-0.200000000000001,0.,0.,       103P     87
0.;                                                                  103P     88
126,1,1,0,0,1,0,0.,0.,0.600000000000001,0.600000000000001,1.,1.,     105P     89
-7.5,29.,32.,-7.5,29.,26.,0.,0.600000000000001,0.,0.,0.;             105P     90
126,1,1,0,0,1,0,0.149999999999999,0.149999999999999,                 107P     91
0.949999999999999,0.949999999999999,1.,1.,-7.5,29.,26.,-7.5,21.,     107P     92
26.,0.149999999999999,0.949999999999999,0.,0.,0.;                    107P     93
126,1,1,0,0,1,0,-0.5,-0.5,0.1,0.1,1.,1.,-7.5,29.,26.,-1.5,29.,       109P     94
26.,-0.5,0.1,0.,0.,0.;                                               109P     95
126,1,1,0,0,1,0,-0.2,-0.2,0.600000000000001,0.600000000000001,       111P     96
1.,1.,-1.5,29.,26.,-1.5,21.,26.,-0.2,0.600000000000001,0.,0.,0.;     111P     97
126,1,1,0,0,1,0,-0.4,-0.4,0.2,0.2,1.,1.,-1.5,21.,26.,-7.5,21.,       113P     98
26.,-0.4,0.2,0.,0.,0.;                                               113P     99
126,1,1,0,0,1,0,-0.600000000000001,-0.600000000000001,0.,0.,1.,      115P    100
1.,-1.5,29.,26.,-1.5,29.,32.,-0.600000000000001,0.,0.,0.,0.;         115P    101
126,1,1,0,0,1,0,-0.6,-0.6,0.,0.,1.,1.,-1.5,29.,38.,-1.5,29.,32.,     117P    102
-0.6,0.,0.,0.,0.;                                                    117P    103
126,1,1,0,0,1,0,0.,0.,0.6,0.6,1.,1.,-1.5,21.,32.,-1.5,21.,38.,       119P    104
0.,0.6,0.,0.,0.;                                                     119P    105
126,1,1,0,0,1,0,-0.4,-0.4,0.200000000000001,0.200000000000001,       121P    106
1.,1.,-1.5,21.,32.,-1.5,21.,26.,-0.4,0.200000000000001,0.,0.,0.;     121P    107
126,1,1,0,0,1,0,-0.625,-0.625,-0.0250000000000001,                   123P    108
-0.0250000000000001,1.,1.,-7.5,21.,32.,-1.5,21.,32.,-0.625,          123P    109
-0.0250000000000001,0.,0.,0.;                                        123P    110
126,1,1,0,0,1,0,-0.475,-0.475,0.125,0.125,1.,1.,-7.5,29.,32.,        125P    111
-1.5,29.,32.,-0.475,0.125,0.,0.,0.;                                  125P    112
126,1,1,0,0,1,0,0.,0.,0.6,0.6,1.,1.,2.5,21.,32.,2.5,21.,38.,0.,      127P    113
0.6,0.,0.,0.;                                                        127P    114
126,1,1,0,0,1,0,-0.125,-0.125,0.275,0.275,1.,1.,2.5,21.,32.,         129P    115
-1.5,21.,32.,-0.125,0.275,0.,0.,0.;                                  129P    116
126,1,1,0,0,1,0,0.125,0.125,0.525,0.525,1.,1.,-1.5,29.,32.,2.5,      131P    117
29.,32.,0.125,0.525,0.,0.,0.;                                        131P    118
126,1,1,0,0,1,0,-0.6,-0.6,0.,0.,1.,1.,2.5,29.,38.,2.5,29.,32.,       133P    119
-0.6,0.,0.,0.,0.;                                                    133P    120
126,1,1,0,0,1,0,-1.1,-1.1,0.2,0.2,1.,1.,5.5,36.,32.,-7.5,36.,        135P    121
32.,-1.1,0.2,0.,0.,0.;                                               135P    122
126,1,1,0,0,1,0,-0.9,-0.9,2.7,2.7,1.,1.,5.5,0.,32.,5.5,36.,32.,      137P    123
-0.9,2.7,0.,0.,0.;                                                   137P    124
126,1,1,0,0,1,0,-0.475,-0.475,0.825,0.825,1.,1.,-7.5,0.,32.,5.5,     139P    125
0.,32.,-0.475,0.825,0.,0.,0.;                                        139P    126
126,1,1,0,0,1,0,-0.55,-0.55,0.25,0.25,1.,1.,2.5,29.,32.,2.5,21.,     141P    127
32.,-0.55,0.25,0.,0.,0.;                                             141P    128
126,4,2,0,0,0,0,0.,0.,0.,1.5707963267949,1.5707963267949,            143P    129
3.14159265358979,3.14159265358979,3.14159265358979,1.,               143P    130
0.707106781186548,1.,0.707106781186548,1.,2.,3.5,32.,2.,1.5,32.,     143P    131
-9.87758344710421D-16,1.5,32.,-2.,1.5,32.,-2.,3.5,32.,0.,            143P    132
3.14159265358979,0.,0.,0.;                                           143P    133
126,4,2,0,0,0,0,3.14159265358979,3.14159265358979,                   145P    134
3.14159265358979,4.71238898038469,4.71238898038469,                  145P    135
6.28318530717959,6.28318530717959,6.28318530717959,1.,               145P    136
0.707106781186548,1.,0.707106781186548,1.,-2.,3.5,32.,-2.,5.5,       145P    137
32.,-1.47761706436936D-15,5.5,32.,2.,5.5,32.,2.,3.5,32.,             145P    138
3.14159265358979,6.28318530717959,0.,0.,0.;                          145P    139
126,4,2,0,0,0,0,0.,0.,0.,1.5707963267949,1.5707963267949,            147P    140
3.14159265358979,3.14159265358979,3.14159265358979,1.,               147P    141
0.707106781186542,1.,0.707106781186548,1.,2.,32.5,32.,2.,30.5,       147P    142
32.,-9.87758344710421D-16,30.5,32.,-2.,30.5,32.,-2.,32.5,32.,0.,     147P    143
3.14159265358979,0.,0.,0.;                                           147P    144
126,4,2,0,0,0,0,3.14159265358979,3.14159265358979,                   149P    145
3.14159265358979,4.71238898038469,4.71238898038469,                  149P    146
6.28318530717959,6.28318530717959,6.28318530717959,1.,               149P    147
0.707106781186542,1.,0.707106781186548,1.,-2.,32.5,32.,-2.,34.5,     149P    148
32.,-1.47761706436936D-15,34.5,32.,2.,34.5,32.,2.,32.5,32.,          149P    149
3.14159265358979,6.28318530717959,0.,0.,0.;                          149P    150
126,1,1,0,0,1,0,0.,0.,0.6,0.6,1.,1.,5.5,0.,32.,5.5,0.,38.,0.,        151P    151
0.6,0.,0.,0.;                                                        151P    152
126,1,1,0,0,1,0,0.,0.,0.6,0.6,1.,1.,5.5,36.,32.,5.5,36.,38.,0.,      153P    153
0.6,0.,0.,0.;                                                        153P    154
126,1,1,0,0,1,0,-1.,-1.,2.,2.,1.,1.,-2.,3.5,38.,-2.,3.5,32.,-1.,     155P    155
2.,0.,0.,0.;                                                         155P    156
126,1,1,0,0,1,0,-1.,-1.,2.,2.,1.,1.,-2.,32.5,38.,-2.,32.5,32.,       157P    157
-1.,2.,0.,0.,0.;                                                     157P    158
128,1,1,1,1,0,0,1,0,0,-0.75,-0.75,0.55,0.55,-1.8,-1.8,1.8,1.8,       159P    159
1.,1.,1.,1.,-7.5,0.,38.,5.5,0.,38.,-7.5,36.,38.,5.5,36.,38.,         159P    160
-0.75,0.55,-1.8,1.8;                                                 159P    161
128,1,1,1,1,0,0,1,0,0,-0.600000000000001,-0.600000000000001,0.6,     161P    162
0.6,-3.6,-3.6,0.,0.,1.,1.,1.,1.,-7.5,0.,26.,-7.5,0.,38.,-7.5,        161P    163
36.,26.,-7.5,36.,38.,-0.600000000000001,0.6,-3.6,0.;                 161P    164
128,1,1,1,1,0,0,1,0,0,-0.25,-0.25,0.35,0.35,-0.4,-0.4,0.4,0.4,       163P    165
1.,1.,1.,1.,-1.5,21.,26.,-7.5,21.,26.,-1.5,29.,26.,-7.5,29.,26.,     163P    166
-0.25,0.35,-0.4,0.4;                                                 163P    167
128,1,1,1,1,0,0,1,0,0,-0.6,-0.6,0.600000000000001,                   165P    168
0.600000000000001,-0.800000000000001,-0.800000000000001,0.,0.,       165P    169
1.,1.,1.,1.,-1.5,21.,38.,-1.5,21.,26.,-1.5,29.,38.,-1.5,29.,26.,     165P    170
-0.6,0.600000000000001,-0.800000000000001,0.;                        165P    171
128,1,1,1,1,0,0,1,0,0,-0.1,-0.1,0.5,0.5,0.,0.,0.600000000000001,     167P    172
0.600000000000001,1.,1.,1.,1.,-1.5,21.,32.,-7.5,21.,32.,-1.5,        167P    173
21.,26.,-7.5,21.,26.,-0.1,0.5,0.,0.600000000000001;                  167P    174
128,1,1,1,1,0,0,1,0,0,-0.2,-0.2,0.4,0.4,0.,0.,0.600000000000001,     169P    175
0.600000000000001,1.,1.,1.,1.,-7.5,29.,32.,-1.5,29.,32.,-7.5,        169P    176
29.,26.,-1.5,29.,26.,-0.2,0.4,0.,0.600000000000001;                  169P    177
128,1,1,1,1,0,0,1,0,0,-2.77555756156289D-17,                         171P    178
-2.77555756156289D-17,0.4,0.4,0.,0.,0.6,0.6,1.,1.,1.,1.,2.5,21.,     171P    179
32.,-1.5,21.,32.,2.5,21.,38.,-1.5,21.,38.,-2.77555756156289D-17,     171P    180
0.4,0.,0.6;                                                          171P    181
128,1,1,1,1,0,0,1,0,0,0.4,0.4,0.8,0.8,0.,0.,0.6,0.6,1.,1.,1.,1.,     173P    182
-1.5,29.,32.,2.5,29.,32.,-1.5,29.,38.,2.5,29.,38.,0.4,0.8,0.,        173P    183
0.6;                                                                 173P    184
128,1,1,1,1,0,0,1,0,0,-0.55,-0.55,0.75,0.75,-1.8,-1.8,1.8,1.8,       175P    185
1.,1.,1.,1.,5.5,0.,32.,-7.5,0.,32.,5.5,36.,32.,-7.5,36.,32.,         175P    186
-0.55,0.75,-1.8,1.8;                                                 175P    187
128,1,1,1,1,0,0,1,0,0,-0.2,-0.2,1.1,1.1,0.,0.,0.6,0.6,1.,1.,1.,      177P    188
1.,-7.5,0.,32.,5.5,0.,32.,-7.5,0.,38.,5.5,0.,38.,-0.2,1.1,0.,        177P    189
0.6;                                                                 177P    190
128,1,1,1,1,0,0,1,0,0,0.,0.,3.6,3.6,0.,0.,0.6,0.6,1.,1.,1.,1.,       179P    191
5.5,0.,32.,5.5,36.,32.,5.5,0.,38.,5.5,36.,38.,0.,3.6,0.,0.6;         179P    192
128,1,8,1,2,0,1,0,0,1,-1.,-1.,2.,2.,-3.14159265358979,               181P    193
-3.14159265358979,-3.14159265358979,-1.5707963267949,                181P    194
-1.5707963267949,0.,0.,1.5707963267949,1.5707963267949,              181P    195
3.14159265358979,3.14159265358979,3.14159265358979,1.,1.,            181P    196
0.707106781186548,0.707106781186548,1.,1.,0.707106781186548,         181P    197
0.707106781186548,1.,1.,0.707106781186548,0.707106781186548,1.,      181P    198
1.,0.707106781186548,0.707106781186548,1.,1.,-2.,3.5,38.,-2.,        181P    199
3.5,32.,-2.,5.5,38.,-2.,5.5,32.,-1.11022302462516D-15,5.5,38.,       181P    200
-1.11022302462516D-15,5.5,32.,2.,5.5,38.,2.,5.5,32.,2.,3.5,38.,      181P    201
2.,3.5,32.,2.,1.5,38.,2.,1.5,32.,-1.11022302462516D-15,1.5,38.,      181P    202
-1.11022302462516D-15,1.5,32.,-2.,1.5,38.,-2.,1.5,32.,-2.,3.5,       181P    203
38.,-2.,3.5,32.,-1.,2.,-3.14159265358979,3.14159265358979;           181P    204
128,1,8,1,2,0,1,0,0,1,-1.,-1.,2.,2.,-3.14159265358979,               183P    205
-3.14159265358979,-3.14159265358979,-1.5707963267949,                183P    206
-1.5707963267949,0.,0.,1.5707963267949,1.5707963267949,              183P    207
3.14159265358979,3.14159265358979,3.14159265358979,1.,1.,            183P    208
0.707106781186548,0.707106781186548,1.,1.,0.707106781186548,         183P    209
0.707106781186548,1.,1.,0.707106781186548,0.707106781186548,1.,      183P    210
1.,0.707106781186548,0.707106781186548,1.,1.,-2.,32.5,38.,-2.,       183P    211
32.5,32.,-2.,34.5,38.,-2.,34.5,32.,-1.11022302462516D-15,34.5,       183P    212
38.,-1.11022302462516D-15,34.5,32.,2.,34.5,38.,2.,34.5,32.,2.,       183P    213
32.5,38.,2.,32.5,32.,2.,30.5,38.,2.,30.5,32.,                        183P    214
-1.11022302462516D-15,30.5,38.,-1.11022302462516D-15,30.5,32.,       183P    215
-2.,30.5,38.,-2.,30.5,32.,-2.,32.5,38.,-2.,32.5,32.,-1.,2.,          183P    216
-3.14159265358979,3.14159265358979;                                  183P    217
128,1,1,1,1,0,0,1,0,0,0.,0.,1.3,1.3,0.,0.,0.6,0.6,1.,1.,1.,1.,       185P    218
5.5,36.,32.,-7.5,36.,32.,5.5,36.,38.,-7.5,36.,38.,0.,1.3,0.,0.6;     185P    219
128,1,1,1,1,0,0,1,0,0,0.,0.,0.8,0.8,0.,0.,0.6,0.6,1.,1.,1.,1.,       187P    220
2.5,29.,32.,2.5,21.,32.,2.5,29.,38.,2.5,21.,38.,0.,0.8,0.,0.6;       187P    221
502,28,-7.5,0.,38.,5.5,0.,38.,5.5,36.,38.,-7.5,36.,38.,-2.,3.5,      189P    222
38.,-2.,32.5,38.,-1.5,21.,38.,-1.5,29.,38.,2.5,29.,38.,2.5,21.,      189P    223
38.,-7.5,21.,26.,-7.5,21.,32.,-7.5,0.,32.,-7.5,36.,32.,-7.5,29.,     189P    224
32.,-7.5,29.,26.,-1.5,29.,26.,-1.5,21.,26.,-1.5,29.,32.,-1.5,        189P    225
21.,32.,2.5,21.,32.,2.5,29.,32.,5.5,36.,32.,5.5,0.,32.,2.,3.5,       189P    226
32.,-2.,3.5,32.,2.,32.5,32.,-2.,32.5,32.;                            189P    227
504,42,75,189,1,189,2,77,189,2,189,3,79,189,3,189,4,81,189,4,        191P    228
189,1,83,189,5,189,5,85,189,6,189,6,87,189,7,189,8,89,189,8,189,     191P    229
9,91,189,9,189,10,93,189,10,189,7,95,189,11,189,12,97,189,12,        191P    230
189,13,99,189,13,189,1,101,189,14,189,4,103,189,14,189,15,105,       191P    231
189,15,189,16,107,189,16,189,11,109,189,16,189,17,111,189,17,        191P    232
189,18,113,189,18,189,11,115,189,17,189,19,117,189,8,189,19,119,     191P    233
189,20,189,7,121,189,20,189,18,123,189,12,189,20,125,189,15,189,     191P    234
19,127,189,21,189,10,129,189,21,189,20,131,189,19,189,22,133,        191P    235
189,9,189,22,135,189,23,189,14,137,189,24,189,23,139,189,13,189,     191P    236
24,141,189,22,189,21,143,189,25,189,26,145,189,26,189,25,147,        191P    237
189,27,189,28,149,189,28,189,27,151,189,24,189,2,153,189,23,189,     191P    238
3,155,189,5,189,26,157,189,6,189,28;                                 191P    239
406,1,5HBody1;                                                       193P    240
314,62.7450980392157,62.7450980392157,62.7450980392157,13HSteel      195P    241
- Satin;                                                             195P    242
S      1G      2D    196P    242                                        T      1
