                                                                        S      1
,,6HClamp4,6HClamp4,7Hunknown,7Hunknown,32,38,7,99,15,,1.,2,2HMM,1,0.08,G      1
15H20150720.221011,0.01,10000.,7Hunknown,7Hunknown,11,0,;               G      2
     186       1                                                00000000D      1
     186            -291       1       0                               0D      2
     514       2                                                00010000D      3
     514                       2       1                               0D      4
     510       4                                                00010000D      5
     510            -291       1       1                               0D      6
     510       5                                                00010000D      7
     510            -291       1       1                               0D      8
     510       6                                                00010000D      9
     510            -291       1       1                               0D     10
     510       7                                                00010000D     11
     510            -291       1       1                               0D     12
     510       8                                                00010000D     13
     510            -291       1       1                               0D     14
     510       9                                                00010000D     15
     510            -291       1       1                               0D     16
     510      10                                                00010000D     17
     510            -291       1       1                               0D     18
     510      11                                                00010000D     19
     510            -291       1       1                               0D     20
     510      12                                                00010000D     21
     510            -291       1       1                               0D     22
     510      13                                                00010000D     23
     510            -291       1       1                               0D     24
     510      14                                                00010000D     25
     510            -291       1       1                               0D     26
     510      15                                                00010000D     27
     510            -291       1       1                               0D     28
     510      16                                                00010000D     29
     510            -291       1       1                               0D     30
     510      17                                                00010000D     31
     510            -291       1       1                               0D     32
     510      18                                                00010000D     33
     510            -291       1       1                               0D     34
     510      19                                                00010000D     35
     510            -291       1       1                               0D     36
     510      20                                                00010000D     37
     510            -291       1       1                               0D     38
     510      21                                                00010000D     39
     510            -291       1       1                               0D     40
     510      22                                                00010000D     41
     510            -291       1       1                               0D     42
     510      23                                                00010000D     43
     510            -291       1       1                               0D     44
     510      24                                                00010000D     45
     510            -291       1       1                               0D     46
     510      25                                                00010000D     47
     510            -291       1       1                               0D     48
     510      26                                                00010000D     49
     510            -291       1       1                               0D     50
     508      27                                                00010000D     51
     508                       1       1                               0D     52
     508      28                                                00010000D     53
     508                       2       1                               0D     54
     508      30                                                00010000D     55
     508                       2       1                               0D     56
     508      32                                                00010000D     57
     508                       1       1                               0D     58
     508      33                                                00010000D     59
     508                       3       1                               0D     60
     508      36                                                00010000D     61
     508                       1       1                               0D     62
     508      37                                                00010000D     63
     508                       1       1                               0D     64
     508      38                                                00010000D     65
     508                       1       1                               0D     66
     508      39                                                00010000D     67
     508                       1       1                               0D     68
     508      40                                                00010000D     69
     508                       2       1                               0D     70
     508      42                                                00010000D     71
     508                       1       1                               0D     72
     508      43                                                00010000D     73
     508                       1       1                               0D     74
     508      44                                                00010000D     75
     508                       1       1                               0D     76
     508      45                                                00010000D     77
     508                       1       1                               0D     78
     508      46                                                00010000D     79
     508                       2       1                               0D     80
     508      48                                                00010000D     81
     508                       2       1                               0D     82
     508      50                                                00010000D     83
     508                       1       1                               0D     84
     508      51                                                00010000D     85
     508                       1       1                               0D     86
     508      52                                                00010000D     87
     508                       3       1                               0D     88
     508      55                                                00010000D     89
     508                       1       1                               0D     90
     508      56                                                00010000D     91
     508                       1       1                               0D     92
     508      57                                                00010000D     93
     508                       1       1                               0D     94
     508      58                                                00010000D     95
     508                       1       1                               0D     96
     508      59                                                00010000D     97
     508                       1       1                               0D     98
     508      60                                                00010000D     99
     508                       2       1                               0D    100
     508      62                                                00010000D    101
     508                       2       1                               0D    102
     508      64                                                00010000D    103
     508                       1       1                               0D    104
     508      65                                                00010000D    105
     508                       1       1                               0D    106
     126      66                                                00010000D    107
     126       0               4       0                               0D    108
     126      70                                                00010000D    109
     126       0               2       0                               0D    110
     126      72                                                00010000D    111
     126       0               4       0                               0D    112
     126      76                                                00010000D    113
     126       0               2       0                               0D    114
     126      78                                                00010000D    115
     126       0               2       0                               0D    116
     126      80                                                00010000D    117
     126       0               2       0                               0D    118
     126      82                                                00010000D    119
     126       0               2       0                               0D    120
     126      84                                                00010000D    121
     126       0               2       0                               0D    122
     126      86                                                00010000D    123
     126       0               2       0                               0D    124
     126      88                                                00010000D    125
     126       0               2       0                               0D    126
     126      90                                                00010000D    127
     126       0               4       0                               0D    128
     126      94                                                00010000D    129
     126       0               2       0                               0D    130
     126      96                                                00010000D    131
     126       0               3       0                               0D    132
     126      99                                                00010000D    133
     126       0               2       0                               0D    134
     126     101                                                00010000D    135
     126       0               4       0                               0D    136
     126     105                                                00010000D    137
     126       0               2       0                               0D    138
     126     107                                                00010000D    139
     126       0               2       0                               0D    140
     126     109                                                00010000D    141
     126       0               2       0                               0D    142
     126     111                                                00010000D    143
     126       0               2       0                               0D    144
     126     113                                                00010000D    145
     126       0               2       0                               0D    146
     126     115                                                00010000D    147
     126       0               2       0                               0D    148
     126     117                                                00010000D    149
     126       0               2       0                               0D    150
     126     119                                                00010000D    151
     126       0               2       0                               0D    152
     126     121                                                00010000D    153
     126       0               2       0                               0D    154
     126     123                                                00010000D    155
     126       0               2       0                               0D    156
     126     125                                                00010000D    157
     126       0               2       0                               0D    158
     126     127                                                00010000D    159
     126       0               2       0                               0D    160
     126     129                                                00010000D    161
     126       0               2       0                               0D    162
     126     131                                                00010000D    163
     126       0               2       0                               0D    164
     126     133                                                00010000D    165
     126       0               3       0                               0D    166
     126     136                                                00010000D    167
     126       0               2       0                               0D    168
     126     138                                                00010000D    169
     126       0               2       0                               0D    170
     126     140                                                00010000D    171
     126       0               3       0                               0D    172
     126     143                                                00010000D    173
     126       0               4       0                               0D    174
     126     147                                                00010000D    175
     126       0               2       0                               0D    176
     126     149                                                00010000D    177
     126       0               4       0                               0D    178
     126     153                                                00010000D    179
     126       0               2       0                               0D    180
     126     155                                                00010000D    181
     126       0               3       0                               0D    182
     126     158                                                00010000D    183
     126       0               9       0                               0D    184
     126     167                                                00010000D    185
     126       0               8       0                               0D    186
     126     175                                                00010000D    187
     126       0               2       0                               0D    188
     126     177                                                00010000D    189
     126       0               2       0                               0D    190
     126     179                                                00010000D    191
     126       0               2       0                               0D    192
     126     181                                                00010000D    193
     126       0               2       0                               0D    194
     126     183                                                00010000D    195
     126       0               2       0                               0D    196
     126     185                                                00010000D    197
     126       0               2       0                               0D    198
     126     187                                                00010000D    199
     126       0               3       0                               0D    200
     126     190                                                00010000D    201
     126       0               3       0                               0D    202
     126     193                                                00010000D    203
     126       0               2       0                               0D    204
     126     195                                                00010000D    205
     126       0               2       0                               0D    206
     126     197                                                00010000D    207
     126       0               2       0                               0D    208
     126     199                                                00010000D    209
     126       0               2       0                               0D    210
     126     201                                                00010000D    211
     126       0               3       0                               0D    212
     126     204                                                00010000D    213
     126       0               3       0                               0D    214
     126     207                                                00010000D    215
     126       0               2       0                               0D    216
     126     209                                                00010000D    217
     126       0               4       0                               0D    218
     126     213                                                00010000D    219
     126       0               4       0                               0D    220
     126     217                                                00010000D    221
     126       0               7       0                               0D    222
     126     224                                                00010000D    223
     126       0               7       0                               0D    224
     126     231                                                00010000D    225
     126       0               5       0                               0D    226
     126     236                                                00010000D    227
     126       0               6       0                               0D    228
     126     242                                                00010000D    229
     126       0               2       0                               0D    230
     126     244                                                00010000D    231
     126       0               2       0                               0D    232
     126     246                                                00010000D    233
     126       0               3       0                               0D    234
     126     249                                                00010000D    235
     126       0               2       0                               0D    236
     126     251                                                00010000D    237
     126       0               2       0                               0D    238
     128     253                                                00010000D    239
     128       0    -291       6       0                               0D    240
     128     259                                                00010000D    241
     128       0    -291       3       0                               0D    242
     128     262                                                00010000D    243
     128       0    -291       4       0                               0D    244
     128     266                                                00010000D    245
     128       0    -291       6       0                               0D    246
     128     272                                                00010000D    247
     128       0    -291       3       0                               0D    248
     128     275                                                00010000D    249
     128       0    -291       3       0                               0D    250
     128     278                                                00010000D    251
     128       0    -291       3       0                               0D    252
     128     281                                                00010000D    253
     128       0    -291       3       0                               0D    254
     128     284                                                00010000D    255
     128       0    -291       3       0                               0D    256
     128     287                                                00010000D    257
     128       0    -291       4       0                               0D    258
     128     291                                                00010000D    259
     128       0    -291       4       0                               0D    260
     128     295                                                00010000D    261
     128       0    -291       5       0                               0D    262
     128     300                                                00010000D    263
     128       0    -291       3       0                               0D    264
     128     303                                                00010000D    265
     128       0    -291       3       0                               0D    266
     128     306                                                00010000D    267
     128       0    -291       3       0                               0D    268
     128     309                                                00010000D    269
     128       0    -291       4       0                               0D    270
     128     313                                                00010000D    271
     128       0    -291       4       0                               0D    272
     128     317                                                00010000D    273
     128       0    -291       5       0                               0D    274
     128     322                                                00010000D    275
     128       0    -291       7       0                               0D    276
     128     329                                                00010000D    277
     128       0    -291      12       0                               0D    278
     128     341                                                00010000D    279
     128       0    -291      15       0                               0D    280
     128     356                                                00010000D    281
     128       0    -291       3       0                               0D    282
     128     359                                                00010000D    283
     128       0    -291       3       0                               0D    284
     502     362                                                00010000D    285
     502                      12       1                               0D    286
     504     374                                                00010001D    287
     504                      19       1                               0D    288
     406     393                                                00000000D    289
     406                       1      15                               0D    290
     314     394                                                00000200D    291
     314                       2       0                               0D    292
186,3,1,0,0,1,289;                                                     1P      1
514,23,5,1,7,1,9,1,11,1,13,1,15,1,17,1,19,1,21,1,23,1,25,1,27,1,       3P      2
29,1,31,1,33,1,35,1,37,1,39,1,41,1,43,1,45,1,47,1,49,1;                3P      3
510,239,1,1,51;                                                        5P      4
510,241,1,1,53;                                                        7P      5
510,243,1,1,55;                                                        9P      6
510,245,1,1,57;                                                       11P      7
510,247,1,1,59;                                                       13P      8
510,249,1,1,61;                                                       15P      9
510,251,1,1,63;                                                       17P     10
510,253,1,1,65;                                                       19P     11
510,255,1,1,67;                                                       21P     12
510,257,4,1,69,71,73,75;                                              23P     13
510,259,1,1,77;                                                       25P     14
510,261,1,1,79;                                                       27P     15
510,263,1,1,81;                                                       29P     16
510,265,1,1,83;                                                       31P     17
510,267,1,1,85;                                                       33P     18
510,269,3,1,87,89,91;                                                 35P     19
510,271,1,1,93;                                                       37P     20
510,273,1,1,95;                                                       39P     21
510,275,1,1,97;                                                       41P     22
510,277,1,1,99;                                                       43P     23
510,279,1,1,101;                                                      45P     24
510,281,1,1,103;                                                      47P     25
510,283,1,1,105;                                                      49P     26
508,4,0,287,1,1,0,0,287,2,1,0,0,287,3,1,0,0,287,4,1,0;                51P     27
508,6,0,287,4,0,0,0,287,5,1,0,0,287,6,0,0,0,287,7,1,0,0,287,8,0,      53P     28
0,0,287,9,1,0;                                                        53P     29
508,6,0,287,3,0,0,0,287,10,0,0,0,287,11,0,0,0,287,12,0,0,0,287,       55P     30
13,1,0,0,287,5,0,0;                                                   55P     31
508,4,0,287,11,1,0,0,287,14,1,0,0,287,15,1,0,0,287,16,1,0;            57P     32
508,10,0,287,16,0,0,0,287,17,0,0,0,287,18,1,0,0,287,19,1,0,0,         59P     33
287,20,1,0,0,287,21,1,0,0,287,22,0,0,0,287,23,0,0,0,287,24,1,0,       59P     34
0,287,12,1,0;                                                         59P     35
508,4,0,287,2,0,0,0,287,25,1,0,0,287,14,0,0,0,287,10,1,0;             61P     36
508,4,0,287,26,0,0,0,287,27,1,0,0,287,28,0,0,0,287,29,0,0;            63P     37
508,4,0,287,30,0,0,0,287,29,1,0,0,287,31,0,0,0,287,21,0,0;            65P     38
508,4,0,287,31,1,0,0,287,28,1,0,0,287,32,1,0,0,287,22,1,0;            67P     39
508,9,0,287,33,1,0,0,287,34,1,0,0,287,35,1,0,0,287,36,0,0,0,287,      69P     40
26,1,0,0,287,30,1,0,0,287,20,0,0,0,287,37,1,0,0,287,38,1,0;           69P     41
508,1,0,287,39,1,0;                                                   71P     42
508,1,0,287,40,1,0;                                                   73P     43
508,4,0,287,7,0,0,0,287,41,1,0,0,287,42,1,0,0,287,43,1,0;             75P     44
508,4,0,287,44,1,0,0,287,45,1,0,0,287,46,0,0,0,287,35,0,0;            77P     45
508,6,0,287,47,1,0,0,287,23,1,0,0,287,32,0,0,0,287,27,0,0,0,287,      79P     46
36,1,0,0,287,46,1,0;                                                  79P     47
508,6,0,287,1,0,0,0,287,9,0,0,0,287,48,0,0,0,287,17,1,0,0,287,        81P     48
15,0,0,0,287,25,0,0;                                                  81P     49
508,4,0,287,8,1,0,0,287,43,0,0,0,287,49,0,0,0,287,50,1,0;             83P     50
508,4,0,287,6,1,0,0,287,51,1,0,0,287,52,1,0,0,287,41,0,0;             85P     51
508,13,0,287,53,0,0,0,287,54,0,0,0,287,18,0,0,0,287,48,1,0,0,         87P     52
287,50,0,0,0,287,55,0,0,0,287,51,0,0,0,287,13,0,0,0,287,24,0,0,       87P     53
0,287,47,0,0,0,287,45,0,0,0,287,56,0,0,0,287,57,0,0;                  87P     54
508,2,0,287,58,0,0,0,287,59,0,0;                                      89P     55
508,2,0,287,60,0,0,0,287,61,0,0;                                      91P     56
508,4,0,287,53,1,0,0,287,62,1,0,0,287,38,0,0,0,287,63,0,0;            93P     57
508,4,0,287,57,1,0,0,287,64,1,0,0,287,33,0,0,0,287,62,0,0;            95P     58
508,4,0,287,56,1,0,0,287,44,0,0,0,287,34,0,0,0,287,64,0,0;            97P     59
508,5,0,287,40,0,0,0,287,65,1,0,0,287,61,1,0,0,287,60,1,0,0,287,      99P     60
65,0,0;                                                               99P     61
508,5,0,287,39,0,0,0,287,66,1,0,0,287,59,1,0,0,287,58,1,0,0,287,     101P     62
66,0,0;                                                              101P     63
508,4,0,287,54,1,0,0,287,63,1,0,0,287,37,0,0,0,287,19,0,0;           103P     64
508,4,0,287,55,1,0,0,287,49,1,0,0,287,42,0,0,0,287,52,0,0;           105P     65
126,2,2,0,0,0,0,-0.785398163397453,-0.785398163397453,               107P     66
-0.785398163397453,0.785398163397444,0.785398163397444,              107P     67
0.785398163397444,1.,0.707106781186545,1.,55.5,19.,27.,55.5,19.,     107P     68
26.,56.5,19.,26.,-0.785398163397453,0.785398163397444,0.,0.,0.;      107P     69
126,1,1,0,0,1,0,-0.6,-0.6,0.2,0.2,1.,1.,56.5,19.,26.,56.5,11.,       109P     70
26.,-0.6,0.2,0.,0.,0.;                                               109P     71
126,2,2,0,0,0,0,-0.785398163397444,-0.785398163397444,               111P     72
-0.785398163397444,0.785398163397453,0.785398163397453,              111P     73
0.785398163397453,1.,0.707106781186545,1.,56.5,11.,26.,55.5,11.,     111P     74
26.,55.5,11.,27.,-0.785398163397444,0.785398163397453,0.,0.,0.;      111P     75
126,1,1,0,0,1,0,-0.2,-0.2,0.6,0.6,1.,1.,55.5,11.,27.,55.5,19.,       113P     76
27.,-0.2,0.6,0.,0.,0.;                                               113P     77
126,1,1,0,0,1,0,-0.5,-0.5,0.,0.,1.,1.,55.5,11.,27.,55.5,11.,32.,     115P     78
-0.5,0.,0.,0.,0.;                                                    115P     79
126,1,1,0,0,1,0,-0.4,-0.4,0.,0.,1.,1.,55.5,11.,36.,55.5,11.,32.,     117P     80
-0.4,0.,0.,0.,0.;                                                    117P     81
126,1,1,0,0,1,0,-0.8,-0.8,0.,0.,1.,1.,55.5,11.,36.,55.5,19.,36.,     119P     82
-0.8,0.,0.,0.,0.;                                                    119P     83
126,1,1,0,0,1,0,0.,0.,0.4,0.4,1.,1.,55.5,19.,32.,55.5,19.,36.,       121P     84
0.,0.4,0.,0.,0.;                                                     121P     85
126,1,1,0,0,1,0,-0.4,-0.4,0.1,0.1,1.,1.,55.5,19.,32.,55.5,19.,       123P     86
27.,-0.4,0.1,0.,0.,0.;                                               123P     87
126,1,1,0,0,1,0,0.0999999999999996,0.0999999999999996,0.3,0.3,       125P     88
1.,1.,58.5,11.,26.,56.5,11.,26.,0.0999999999999996,0.3,0.,0.,0.;     125P     89
126,2,2,0,0,0,0,-0.785398163397453,-0.785398163397453,               127P     90
-0.785398163397453,0.785398163397444,0.785398163397444,              127P     91
0.785398163397444,1.,0.707106781186545,1.,59.5,11.,27.,59.5,11.,     127P     92
26.,58.5,11.,26.,-0.785398163397453,0.785398163397444,0.,0.,0.;      127P     93
126,1,1,0,0,1,0,0.,0.,0.5,0.5,1.,1.,59.5,11.,32.,59.5,11.,27.,       129P     94
0.,0.5,0.,0.,0.;                                                     129P     95
126,1,1,0,0,1,0,-0.274999999999999,-0.274999999999999,0.125,         131P     96
0.125,1.,1.,59.5,11.,32.,55.5,11.,32.,-0.274999999999999,0.125,      131P     97
0.,0.,0.;                                                            131P     98
126,1,1,0,0,1,0,0.35,0.35,1.15,1.15,1.,1.,58.5,11.,26.,58.5,19.,     133P     99
26.,0.35,1.15,0.,0.,0.;                                              133P    100
126,2,2,0,0,0,0,-0.785398163397444,-0.785398163397444,               135P    101
-0.785398163397444,0.785398163397453,0.785398163397453,              135P    102
0.785398163397453,1.,0.707106781186545,1.,58.5,19.,26.,59.5,19.,     135P    103
26.,59.5,19.,27.,-0.785398163397444,0.785398163397453,0.,0.,0.;      135P    104
126,1,1,0,0,1,0,-1.15,-1.15,-0.35,-0.35,1.,1.,59.5,19.,27.,59.5,     137P    105
11.,27.,-1.15,-0.35,0.,0.,0.;                                        137P    106
126,1,1,0,0,1,0,0.,0.,0.5,0.5,1.,1.,59.5,19.,32.,59.5,19.,27.,       139P    107
0.,0.5,0.,0.,0.;                                                     139P    108
126,1,1,0,0,1,0,1.,1.,2.7,2.7,1.,1.,59.5,19.,32.,59.5,36.,32.,       141P    109
1.,2.7,0.,0.,0.;                                                     141P    110
126,1,1,0,0,1,0,0.,0.,0.4,0.4,1.,1.,59.5,36.,32.,59.5,36.,36.,       143P    111
0.,0.4,0.,0.,0.;                                                     143P    112
126,1,1,0,0,1,0,-3.6,-3.6,0.1,0.1,1.,1.,59.5,36.,36.,59.5,-1.,       145P    113
36.,-3.6,0.1,0.,0.,0.;                                               145P    114
126,1,1,0,0,1,0,0.,0.,1.,1.,1.,1.,59.5,-1.,36.,59.5,-1.,46.,0.,      147P    115
1.,0.,0.,0.;                                                         147P    116
126,1,1,0,0,1,0,-1.5,-1.5,0.,0.,1.,1.,59.5,-16.,46.,59.5,-1.,        149P    117
46.,-1.5,0.,0.,0.,0.;                                                149P    118
126,1,1,0,0,1,0,0.,0.,1.4,1.4,1.,1.,59.5,-16.,32.,59.5,-16.,46.,     151P    119
0.,1.4,0.,0.,0.;                                                     151P    120
126,1,1,0,0,1,0,-2.5,-2.5,0.2,0.2,1.,1.,59.5,-16.,32.,59.5,11.,      153P    121
32.,-2.5,0.2,0.,0.,0.;                                               153P    122
126,1,1,0,0,1,0,0.,0.,0.2,0.2,1.,1.,56.5,19.,26.,58.5,19.,26.,       155P    123
0.,0.2,0.,0.,0.;                                                     155P    124
126,1,1,0,0,1,0,-2.45,-2.45,-0.95,-0.95,1.,1.,54.5,-16.,36.,         157P    125
54.5,-1.,36.,-2.45,-0.95,0.,0.,0.;                                   157P    126
126,1,1,0,0,1,0,0.,0.,1.,1.,1.,1.,54.5,-16.,36.,54.5,-16.,46.,       159P    127
0.,1.,0.,0.,0.;                                                      159P    128
126,1,1,0,0,1,0,-1.5,-1.5,0.,0.,1.,1.,54.5,-1.,46.,54.5,-16.,        161P    129
46.,-1.5,0.,0.,0.,0.;                                                161P    130
126,1,1,0,0,1,0,0.,0.,1.,1.,1.,1.,54.5,-1.,36.,54.5,-1.,46.,0.,      163P    131
1.,0.,0.,0.;                                                         163P    132
126,1,1,0,0,1,0,-0.202015729118615,-0.202015729118615,               165P    133
0.297984270881385,0.297984270881385,1.,1.,54.5,-1.,36.,59.5,-1.,     165P    134
36.,-0.202015729118615,0.297984270881385,0.,0.,0.;                   165P    135
126,1,1,0,0,1,0,-0.5,-0.5,0.,0.,1.,1.,59.5,-1.,46.,54.5,-1.,46.,     167P    136
-0.5,0.,0.,0.,0.;                                                    167P    137
126,1,1,0,0,1,0,-0.5,-0.5,0.,0.,1.,1.,54.5,-16.,46.,59.5,-16.,       169P    138
46.,-0.5,0.,0.,0.,0.;                                                169P    139
126,1,1,0,0,1,0,0.,0.,0.948071866175704,0.948071866175704,1.,1.,     171P    140
48.5000751394777,9.48999127637589,36.,48.5000751394777,              171P    141
0.0092726146188471,36.,0.,0.948071866175704,0.,0.,0.;                171P    142
126,1,1,0,0,1,0,0.89694921602431,0.89694921602431,                   173P    143
0.897876524639611,0.897876524639611,1.,1.,48.5000751394777,          173P    144
0.0092726146188471,36.,48.5001686538159,0.,36.,0.89694921602431,     173P    145
0.897876524639611,0.,0.,0.;                                          173P    146
126,1,1,0,0,1,0,0.,0.,1.6,1.6,1.,1.,48.5001686538159,0.,36.,         175P    147
48.5001686538159,-16.,36.,0.,1.6,0.,0.,0.;                           175P    148
126,1,1,0,0,1,0,-0.691937083525542,-0.691937083525542,               177P    149
-0.0919539489071353,-0.0919539489071353,1.,1.,54.5,-16.,36.,         177P    150
48.5001686538159,-16.,36.,-0.691937083525542,                        177P    151
-0.0919539489071353,0.,0.,0.;                                        177P    152
126,1,1,0,0,1,0,0.,0.,1.1,1.1,1.,1.,59.5,36.,36.,48.5,36.,36.,       179P    153
0.,1.1,0.,0.,0.;                                                     179P    154
126,1,1,0,0,1,0,0.,0.,2.65100087236241,2.65100087236241,1.,1.,       181P    155
48.5,36.,36.,48.5,9.48999127637589,36.,0.,2.65100087236241,0.,       181P    156
0.,0.;                                                               181P    157
126,8,2,0,1,0,0,-3.14159265358979,-3.14159265358979,                 183P    158
-3.14159265358979,-1.5707963267949,-1.5707963267949,0.,0.,           183P    159
1.5707963267949,1.5707963267949,3.14159265358979,                    183P    160
3.14159265358979,3.14159265358979,1.,0.70710678118655,1.,            183P    161
0.707106781186549,1.,0.70710678118655,1.,0.707106781186551,1.,       183P    162
52.,3.5,36.,52.,5.49999999999999,36.,54.,5.49999999999999,36.,       183P    163
56.,5.49999999999999,36.,56.,3.5,36.,56.,1.50000000000001,36.,       183P    164
54.,1.50000000000001,36.,52.,1.50000000000001,36.,52.,3.5,36.,       183P    165
-3.14159265358979,3.14159265358979,0.,0.,0.;                         183P    166
126,8,2,0,1,0,0,-3.14159265358979,-3.14159265358979,                 185P    167
-3.14159265358979,-1.5707963267949,-1.5707963267949,0.,0.,           185P    168
1.5707963267949,1.5707963267949,3.14159265358979,                    185P    169
3.14159265358979,3.14159265358979,1.,0.707106781186542,1.,           185P    170
0.707106781186542,1.,0.707106781186542,1.,0.707106781186542,1.,      185P    171
52.,32.5,36.,52.,34.5,36.,54.,34.5,36.,56.,34.5,36.,56.,32.5,        185P    172
36.,56.,30.5,36.,54.,30.5,36.,52.,30.5,36.,52.,32.5,36.,             185P    173
-3.14159265358979,3.14159265358979,0.,0.,0.;                         185P    174
126,1,1,0,0,1,0,0.399999999999999,0.399999999999999,0.8,0.8,1.,      187P    175
1.,55.5,11.,36.,51.5,11.,36.,0.399999999999999,0.8,0.,0.,0.;         187P    176
126,1,1,0,0,1,0,0.,0.,0.8,0.8,1.,1.,51.5,11.,36.,51.5,19.,36.,       189P    177
0.,0.8,0.,0.,0.;                                                     189P    178
126,1,1,0,0,1,0,0.,0.,0.4,0.4,1.,1.,51.5,19.,36.,55.5,19.,36.,       191P    179
0.,0.4,0.,0.,0.;                                                     191P    180
126,1,1,0,0,1,0,-0.4,-0.4,0.,0.,1.,1.,48.5001686538159,0.,36.,       193P    181
48.5001686538159,0.,32.,-0.4,0.,0.,0.,0.;                            193P    182
126,1,1,0,0,1,0,0.,0.,1.6,1.6,1.,1.,48.5001686538159,0.,32.,         195P    183
48.5001686538159,-16.,32.,0.,1.6,0.,0.,0.;                           195P    184
126,1,1,0,0,1,0,-0.4,-0.4,0.,0.,1.,1.,48.5001686538159,-16.,36.,     197P    185
48.5001686538159,-16.,32.,-0.4,0.,0.,0.,0.;                          197P    186
126,1,1,0,0,1,0,-0.229014592855636,-0.229014592855636,               199P    187
0.870968541762771,0.870968541762771,1.,1.,48.5001686538159,-16.,     199P    188
32.,59.5,-16.,32.,-0.229014592855636,0.870968541762771,0.,0.,0.;     199P    189
126,1,1,0,0,1,0,-0.425,-0.425,-0.0250000000000004,                   201P    190
-0.0250000000000004,1.,1.,59.5,19.,32.,55.5,19.,32.,-0.425,          201P    191
-0.0250000000000004,0.,0.,0.;                                        201P    192
126,1,1,0,0,1,0,0.,0.,0.4,0.4,1.,1.,51.5,19.,32.,51.5,19.,36.,       203P    193
0.,0.4,0.,0.,0.;                                                     203P    194
126,1,1,0,0,1,0,-0.125,-0.125,0.275,0.275,1.,1.,51.5,19.,32.,        205P    195
55.5,19.,32.,-0.125,0.275,0.,0.,0.;                                  205P    196
126,1,1,0,0,1,0,0.125,0.125,0.525,0.525,1.,1.,55.5,11.,32.,51.5,     207P    197
11.,32.,0.125,0.525,0.,0.,0.;                                        207P    198
126,1,1,0,0,1,0,0.,0.,0.4,0.4,1.,1.,51.5,11.,32.,51.5,11.,36.,       209P    199
0.,0.4,0.,0.,0.;                                                     209P    200
126,1,1,0,0,1,0,-0.9,-0.9,1.75100087236241,1.75100087236241,1.,      211P    201
1.,48.5,36.,32.,48.5,9.48999127637589,32.,-0.9,1.75100087236241,     211P    202
0.,0.,0.;                                                            211P    203
126,1,1,0,0,1,0,-0.274999999999999,-0.274999999999999,               213P    204
0.825000000000001,0.825000000000001,1.,1.,59.5,36.,32.,48.5,36.,     213P    205
32.,-0.274999999999999,0.825000000000001,0.,0.,0.;                   213P    206
126,1,1,0,0,1,0,-0.35,-0.35,0.45,0.45,1.,1.,51.5,11.,32.,51.5,       215P    207
19.,32.,-0.35,0.45,0.,0.,0.;                                         215P    208
126,1,1,0,0,1,0,0.896717431390175,0.896717431390175,                 217P    209
0.897644740005476,0.897644740005476,1.,1.,48.5000751394777,          217P    210
0.00927261461884932,32.,48.5001686538159,0.,32.,                     217P    211
0.896717431390175,0.897644740005476,0.,0.,0.;                        217P    212
126,1,1,0,0,1,0,0.425500436181206,0.425500436181206,                 219P    213
1.37357230235691,1.37357230235691,1.,1.,48.5000751394777,            219P    214
9.48999127637589,32.,48.5000751394777,0.00927261461884932,32.,       219P    215
0.425500436181206,1.37357230235691,0.,0.,0.;                         219P    216
126,4,2,0,0,0,0,-2.7755575615629D-16,-2.7755575615629D-16,           221P    217
-2.7755575615629D-16,1.5707963267949,1.5707963267949,                221P    218
3.14159265358979,3.14159265358979,3.14159265358979,1.,               221P    219
0.707106781186551,1.,0.70710678118655,1.,56.,3.5,32.,56.,            221P    220
1.50000000000001,32.,54.,1.50000000000001,32.,52.,                   221P    221
1.50000000000001,32.,52.,3.5,32.,-2.7755575615629D-16,               221P    222
3.14159265358979,0.,0.,0.;                                           221P    223
126,4,2,0,0,0,0,3.14159265358979,3.14159265358979,                   223P    224
3.14159265358979,4.71238898038469,4.71238898038469,                  223P    225
6.28318530717959,6.28318530717959,6.28318530717959,1.,               223P    226
0.707106781186549,1.,0.707106781186551,1.,52.,3.5,32.,52.,           223P    227
5.49999999999999,32.,54.,5.49999999999999,32.,56.,                   223P    228
5.49999999999999,32.,56.,3.5,32.,3.14159265358979,                   223P    229
6.28318530717959,0.,0.,0.;                                           223P    230
126,4,2,0,0,0,0,0.,0.,0.,1.5707963267949,1.5707963267949,            225P    231
3.14159265358979,3.14159265358979,3.14159265358979,1.,               225P    232
0.707106781186542,1.,0.707106781186542,1.,56.,32.5,32.,56.,30.5,     225P    233
32.,54.,30.5,32.,52.,30.5,32.,52.,32.5,32.,0.,3.14159265358979,      225P    234
0.,0.,0.;                                                            225P    235
126,4,2,0,0,0,0,3.14159265358979,3.14159265358979,                   227P    236
3.14159265358979,4.71238898038469,4.71238898038469,                  227P    237
6.28318530717959,6.28318530717959,6.28318530717959,1.,               227P    238
0.707106781186542,1.,0.707106781186542,1.,52.,32.5,32.,52.,34.5,     227P    239
32.,54.,34.5,32.,56.,34.5,32.,56.,32.5,32.,3.14159265358979,         227P    240
6.28318530717959,0.,0.,0.;                                           227P    241
126,1,1,0,0,1,0,0.,0.,0.4,0.4,1.,1.,48.5,9.48999127637589,32.,       229P    242
48.5,9.48999127637589,36.,0.,0.4,0.,0.,0.;                           229P    243
126,1,1,0,0,1,0,0.,0.,0.4,0.4,1.,1.,48.5,36.,32.,48.5,36.,36.,       231P    244
0.,0.4,0.,0.,0.;                                                     231P    245
126,1,1,0,0,1,0,0.,0.,0.4,0.4,1.,1.,48.5000751394777,                233P    246
0.0092726146188471,32.,48.5000751394777,0.0092726146188471,36.,      233P    247
0.,0.4,0.,0.,0.;                                                     233P    248
126,1,1,0,0,1,0,0.,0.,2.,2.,1.,1.,52.,32.5,36.,52.,32.5,32.,0.,      235P    249
2.,0.,0.,0.;                                                         235P    250
126,1,1,0,0,1,0,0.,0.,2.00000000000001,2.00000000000001,1.,1.,       237P    251
52.,3.5,36.,52.,3.5,32.,0.,2.00000000000001,0.,0.,0.;                237P    252
128,1,2,1,2,0,0,0,0,0,-2.,-2.,6.,6.,-0.785398163397444,              239P    253
-0.785398163397444,-0.785398163397444,0.785398163397453,             239P    254
0.785398163397453,0.785398163397453,1.,1.,0.707106781186547,         239P    255
0.707106781186547,1.,1.,56.5,19.,26.,56.5,11.,26.,55.5,19.,26.,      239P    256
55.5,11.,26.,55.5,19.,27.,55.5,11.,27.,-2.,6.,                       239P    257
-0.785398163397444,0.785398163397453;                                239P    258
128,1,1,1,1,0,0,1,0,0,-0.5,-0.5,0.4,0.4,0.,0.,0.8,0.8,1.,1.,1.,      241P    259
1.,55.5,11.,27.,55.5,11.,36.,55.5,19.,27.,55.5,19.,36.,-0.5,0.4,     241P    260
0.,0.8;                                                              241P    261
128,1,1,1,1,0,0,1,0,0,-9.08299088023077D-19,                         243P    262
-9.08299088023077D-19,0.399999999999999,0.399999999999999,0.,0.,     243P    263
0.6,0.6,1.,1.,1.,1.,59.5,11.,32.,55.5,11.,32.,59.5,11.,26.,55.5,     243P    264
11.,26.,-9.08299088023077D-19,0.399999999999999,0.,0.6;              243P    265
128,1,2,1,2,0,0,0,0,0,-11.5,-11.5,-3.5,-3.5,-0.785398163397444,      245P    266
-0.785398163397444,-0.785398163397444,0.785398163397453,             245P    267
0.785398163397453,0.785398163397453,1.,1.,0.707106781186547,         245P    268
0.707106781186547,1.,1.,58.5,11.,26.,58.5,19.,26.,59.5,11.,26.,      245P    269
59.5,19.,26.,59.5,11.,27.,59.5,19.,27.,-11.5,-3.5,                   245P    270
-0.785398163397444,0.785398163397453;                                245P    271
128,1,1,1,1,0,0,1,0,0,-1.6,-1.6,3.6,3.6,-0.5,-0.5,1.4,1.4,1.,1.,     247P    272
1.,1.,59.5,-16.,27.,59.5,36.,27.,59.5,-16.,46.,59.5,36.,46.,         247P    273
-1.6,3.6,-0.5,1.4;                                                   247P    274
128,1,1,1,1,0,0,1,0,0,-0.0499999999999998,-0.0499999999999998,       249P    275
0.15,0.15,-0.4,-0.4,0.4,0.4,1.,1.,1.,1.,58.5,11.,26.,56.5,11.,       249P    276
26.,58.5,19.,26.,56.5,19.,26.,-0.0499999999999998,0.15,-0.4,0.4;     249P    277
128,1,1,1,1,0,0,1,0,0,0.,0.,1.5,1.5,0.,0.,1.,1.,1.,1.,1.,1.,         251P    278
54.5,-1.,36.,54.5,-16.,36.,54.5,-1.,46.,54.5,-16.,46.,0.,1.5,0.,     251P    279
1.;                                                                  251P    280
128,1,1,1,1,0,0,1,0,0,0.,0.,0.5,0.5,0.,0.,1.,1.,1.,1.,1.,1.,         253P    281
59.5,-1.,36.,54.5,-1.,36.,59.5,-1.,46.,54.5,-1.,46.,0.,0.5,0.,       253P    282
1.;                                                                  253P    283
128,1,1,1,1,0,0,1,0,0,-0.25,-0.25,0.25,0.25,-0.75,-0.75,0.75,        255P    284
0.75,1.,1.,1.,1.,54.5,-16.,46.,59.5,-16.,46.,54.5,-1.,46.,59.5,      255P    285
-1.,46.,-0.25,0.25,-0.75,0.75;                                       255P    286
128,1,1,1,1,0,0,1,0,0,-0.504031458237229,-0.504031458237229,         257P    287
0.595968541762771,0.595968541762771,-3.4,-3.4,1.8,1.8,1.,1.,1.,      257P    288
1.,48.5,-16.,36.,59.5,-16.,36.,48.5,36.,36.,59.5,36.,36.,            257P    289
-0.504031458237229,0.595968541762771,-3.4,1.8;                       257P    290
128,1,1,1,1,0,0,1,0,0,0.,0.,0.4,0.4,0.,0.,1.6,1.6,1.,1.,1.,1.,       259P    291
48.5001686538159,0.,36.,48.5001686538159,0.,32.,                     259P    292
48.5001686538159,-16.,36.,48.5001686538159,-16.,32.,0.,0.4,0.,       259P    293
1.6;                                                                 259P    294
128,1,1,1,1,0,0,1,0,0,-1.4,-1.4,0.,0.,0.0919539489071353,            261P    295
0.0919539489071353,1.19193708352554,1.19193708352554,1.,1.,1.,       261P    296
1.,48.5001686538159,-16.,46.,48.5001686538159,-16.,32.,59.5,         261P    297
-16.,46.,59.5,-16.,32.,-1.4,0.,0.0919539489071353,                   261P    298
1.19193708352554;                                                    261P    299
128,1,1,1,1,0,0,1,0,0,-0.0999999999999996,-0.0999999999999996,       263P    300
0.3,0.3,0.,0.,0.6,0.6,1.,1.,1.,1.,55.5,19.,32.,59.5,19.,32.,         263P    301
55.5,19.,26.,59.5,19.,26.,-0.0999999999999996,0.3,0.,0.6;            263P    302
128,1,1,1,1,0,0,1,0,0,0.,0.,0.4,0.4,0.,0.,0.4,0.4,1.,1.,1.,1.,       265P    303
51.5,19.,32.,55.5,19.,32.,51.5,19.,36.,55.5,19.,36.,0.,0.4,0.,       265P    304
0.4;                                                                 265P    305
128,1,1,1,1,0,0,1,0,0,0.399999999999999,0.399999999999999,0.8,       267P    306
0.8,0.,0.,0.4,0.4,1.,1.,1.,1.,55.5,11.,32.,51.5,11.,32.,55.5,        267P    307
11.,36.,51.5,11.,36.,0.399999999999999,0.8,0.,0.4;                   267P    308
128,1,1,1,1,0,0,1,0,0,-0.55,-0.55,0.550000000000001,                 269P    309
0.550000000000001,-3.4,-3.4,1.8,1.8,1.,1.,1.,1.,59.5,-16.,32.,       269P    310
48.5,-16.,32.,59.5,36.,32.,48.5,36.,32.,-0.55,0.550000000000001,     269P    311
-3.4,1.8;                                                            269P    312
128,1,1,1,1,0,0,1,0,0,0.,0.,2.65100087236241,2.65100087236241,       271P    313
0.,0.,0.4,0.4,1.,1.,1.,1.,48.5,36.,32.,48.5,9.48999127637588,        271P    314
32.,48.5,36.,36.,48.5,9.48999127637588,36.,0.,2.65100087236241,      271P    315
0.,0.4;                                                              271P    316
128,1,1,1,1,0,0,1,0,0,0.,0.,0.948071866175704,0.948071866175704,     273P    317
0.,0.,0.4,0.4,1.,1.,1.,1.,48.5000751394777,9.48999127637589,32.,     273P    318
48.5000751394777,0.0092726146188471,32.,48.5000751394777,            273P    319
9.48999127637589,36.,48.5000751394777,0.0092726146188471,36.,0.,     273P    320
0.948071866175704,0.,0.4;                                            273P    321
128,1,1,1,1,0,0,1,0,0,0.,0.,0.4,0.4,-2.22044604925031D-16,           275P    322
-2.22044604925031D-16,0.000927308615300826,0.000927308615300826,     275P    323
1.,1.,1.,1.,48.5000751394777,0.00927261461884932,36.,                275P    324
48.5000751394777,0.00927261461884932,32.,48.5001686538159,           275P    325
-6.17995238316738D-17,36.,48.5001686538159,                          275P    326
-6.17995238316738D-17,32.,0.,0.4,-2.22044604925031D-16,              275P    327
0.000927308615300826;                                                275P    328
128,1,8,1,2,0,1,0,0,1,0.,0.,2.,2.,-3.14159265358979,                 277P    329
-3.14159265358979,-3.14159265358979,-1.5707963267949,                277P    330
-1.5707963267949,0.,0.,1.5707963267949,1.5707963267949,              277P    331
3.14159265358979,3.14159265358979,3.14159265358979,1.,1.,            277P    332
0.707106781186548,0.707106781186548,1.,1.,0.707106781186548,         277P    333
0.707106781186548,1.,1.,0.707106781186548,0.707106781186548,1.,      277P    334
1.,0.707106781186548,0.707106781186548,1.,1.,52.,32.5,36.,52.,       277P    335
32.5,32.,52.,34.5,36.,52.,34.5,32.,54.,34.5,36.,54.,34.5,32.,        277P    336
56.,34.5,36.,56.,34.5,32.,56.,32.5,36.,56.,32.5,32.,56.,30.5,        277P    337
36.,56.,30.5,32.,54.,30.5,36.,54.,30.5,32.,52.,30.5,36.,52.,         277P    338
30.5,32.,52.,32.5,36.,52.,32.5,32.,0.,2.,-3.14159265358979,          277P    339
3.14159265358979;                                                    277P    340
128,1,8,1,2,0,1,0,0,1,0.,0.,2.00000000000001,2.00000000000001,       279P    341
-3.14159265358979,-3.14159265358979,-3.14159265358979,               279P    342
-1.5707963267949,-1.5707963267949,0.,0.,1.5707963267949,             279P    343
1.5707963267949,3.14159265358979,3.14159265358979,                   279P    344
3.14159265358979,1.,1.,0.707106781186548,0.707106781186548,1.,       279P    345
1.,0.707106781186548,0.707106781186548,1.,1.,0.707106781186548,      279P    346
0.707106781186548,1.,1.,0.707106781186548,0.707106781186548,1.,      279P    347
1.,52.,3.5,36.,52.,3.5,32.,52.,5.49999999999999,36.,52.,             279P    348
5.49999999999999,32.,54.,5.49999999999999,36.,54.,                   279P    349
5.49999999999999,32.,56.,5.49999999999999,36.,56.,                   279P    350
5.49999999999999,32.,56.,3.5,36.,56.,3.5,32.,56.,                    279P    351
1.50000000000001,36.,56.,1.50000000000001,32.,54.,                   279P    352
1.50000000000001,36.,54.,1.50000000000001,32.,52.,                   279P    353
1.50000000000001,36.,52.,1.50000000000001,32.,52.,3.5,36.,52.,       279P    354
3.5,32.,0.,2.00000000000001,-3.14159265358979,3.14159265358979;      279P    355
128,1,1,1,1,0,0,1,0,0,0.,0.,1.1,1.1,0.,0.,0.4,0.4,1.,1.,1.,1.,       281P    356
59.5,36.,32.,48.5,36.,32.,59.5,36.,36.,48.5,36.,36.,0.,1.1,0.,       281P    357
0.4;                                                                 281P    358
128,1,1,1,1,0,0,1,0,0,0.,0.,0.8,0.8,0.,0.,0.4,0.4,1.,1.,1.,1.,       283P    359
51.5,11.,32.,51.5,19.,32.,51.5,11.,36.,51.5,19.,36.,0.,0.8,0.,       283P    360
0.4;                                                                 283P    361
502,44,55.5,19.,27.,56.5,19.,26.,56.5,11.,26.,55.5,11.,27.,55.5,     285P    362
11.,32.,55.5,11.,36.,55.5,19.,36.,55.5,19.,32.,58.5,11.,26.,         285P    363
59.5,11.,27.,59.5,11.,32.,58.5,19.,26.,59.5,19.,27.,59.5,19.,        285P    364
32.,59.5,36.,32.,59.5,36.,36.,59.5,-1.,36.,59.5,-1.,46.,59.5,        285P    365
-16.,46.,59.5,-16.,32.,54.5,-16.,36.,54.5,-1.,36.,54.5,-16.,46.,     285P    366
54.5,-1.,46.,48.5,9.48999127637589,36.,48.5000751394777,             285P    367
0.0092726146188471,36.,48.5001686538159,0.,36.,48.5001686538159,     285P    368
-16.,36.,48.5,36.,36.,52.,3.5,36.,52.,32.5,36.,51.5,11.,36.,         285P    369
51.5,19.,36.,48.5001686538159,0.,32.,48.5001686538159,-16.,32.,      285P    370
51.5,19.,32.,51.5,11.,32.,48.5,36.,32.,48.5,9.48999127637589,        285P    371
32.,48.5000751394777,0.00927261461884932,32.,56.,3.5,32.,52.,        285P    372
3.5,32.,56.,32.5,32.,52.,32.5,32.;                                   285P    373
504,66,107,285,1,285,2,109,285,2,285,3,111,285,3,285,4,113,285,      287P    374
4,285,1,115,285,4,285,5,117,285,6,285,5,119,285,6,285,7,121,285,     287P    375
8,285,7,123,285,8,285,1,125,285,9,285,3,127,285,10,285,9,129,        287P    376
285,11,285,10,131,285,11,285,5,133,285,9,285,12,135,285,12,285,      287P    377
13,137,285,13,285,10,139,285,14,285,13,141,285,14,285,15,143,        287P    378
285,15,285,16,145,285,16,285,17,147,285,17,285,18,149,285,19,        287P    379
285,18,151,285,20,285,19,153,285,20,285,11,155,285,2,285,12,157,     287P    380
285,21,285,22,159,285,21,285,23,161,285,24,285,23,163,285,22,        287P    381
285,24,165,285,22,285,17,167,285,18,285,24,169,285,23,285,19,        287P    382
171,285,25,285,26,173,285,26,285,27,175,285,27,285,28,177,285,       287P    383
21,285,28,179,285,16,285,29,181,285,29,285,25,183,285,30,285,30,     287P    384
185,285,31,285,31,187,285,6,285,32,189,285,32,285,33,191,285,33,     287P    385
285,7,193,285,27,285,34,195,285,34,285,35,197,285,28,285,35,199,     287P    386
285,35,285,20,201,285,14,285,8,203,285,36,285,33,205,285,36,285,     287P    387
8,207,285,5,285,37,209,285,37,285,32,211,285,38,285,39,213,285,      287P    388
15,285,38,215,285,37,285,36,217,285,40,285,34,219,285,39,285,40,     287P    389
221,285,41,285,42,223,285,42,285,41,225,285,43,285,44,227,285,       287P    390
44,285,43,229,285,39,285,25,231,285,38,285,29,233,285,40,285,26,     287P    391
235,285,31,285,44,237,285,30,285,42;                                 287P    392
406,1,5HBody1;                                                       289P    393
314,62.7450980392157,62.7450980392157,62.7450980392157,13HSteel      291P    394
- Satin;                                                             291P    395
S      1G      2D    292P    395                                        T      1
