                                                                        S      1
,,6HClamp4,6HClamp4,7Hunknown,7Hunknown,32,38,7,99,15,,1.,2,2HMM,1,0.08,G      1
15H20150722.163705,0.01,10000.,7Hunknown,7Hunknown,11,0,;               G      2
     186       1                                                00000000D      1
     186            -267       1       0                               0D      2
     514       2                                                00010000D      3
     514                       2       1                               0D      4
     510       4                                                00010000D      5
     510            -267       1       1                               0D      6
     510       5                                                00010000D      7
     510            -267       1       1                               0D      8
     510       6                                                00010000D      9
     510            -267       1       1                               0D     10
     510       7                                                00010000D     11
     510            -267       1       1                               0D     12
     510       8                                                00010000D     13
     510            -267       1       1                               0D     14
     510       9                                                00010000D     15
     510            -267       1       1                               0D     16
     510      10                                                00010000D     17
     510            -267       1       1                               0D     18
     510      11                                                00010000D     19
     510            -267       1       1                               0D     20
     510      12                                                00010000D     21
     510            -267       1       1                               0D     22
     510      13                                                00010000D     23
     510            -267       1       1                               0D     24
     510      14                                                00010000D     25
     510            -267       1       1                               0D     26
     510      15                                                00010000D     27
     510            -267       1       1                               0D     28
     510      16                                                00010000D     29
     510            -267       1       1                               0D     30
     510      17                                                00010000D     31
     510            -267       1       1                               0D     32
     510      18                                                00010000D     33
     510            -267       1       1                               0D     34
     510      19                                                00010000D     35
     510            -267       1       1                               0D     36
     510      20                                                00010000D     37
     510            -267       1       1                               0D     38
     510      21                                                00010000D     39
     510            -267       1       1                               0D     40
     510      22                                                00010000D     41
     510            -267       1       1                               0D     42
     510      23                                                00010000D     43
     510            -267       1       1                               0D     44
     510      24                                                00010000D     45
     510            -267       1       1                               0D     46
     508      25                                                00010000D     47
     508                       2       1                               0D     48
     508      27                                                00010000D     49
     508                       1       1                               0D     50
     508      28                                                00010000D     51
     508                       1       1                               0D     52
     508      29                                                00010000D     53
     508                       1       1                               0D     54
     508      30                                                00010000D     55
     508                       1       1                               0D     56
     508      31                                                00010000D     57
     508                       1       1                               0D     58
     508      32                                                00010000D     59
     508                       3       1                               0D     60
     508      35                                                00010000D     61
     508                       2       1                               0D     62
     508      37                                                00010000D     63
     508                       1       1                               0D     64
     508      38                                                00010000D     65
     508                       1       1                               0D     66
     508      39                                                00010000D     67
     508                       1       1                               0D     68
     508      40                                                00010000D     69
     508                       1       1                               0D     70
     508      41                                                00010000D     71
     508                       1       1                               0D     72
     508      42                                                00010000D     73
     508                       2       1                               0D     74
     508      44                                                00010000D     75
     508                       1       1                               0D     76
     508      45                                                00010000D     77
     508                       1       1                               0D     78
     508      46                                                00010000D     79
     508                       3       1                               0D     80
     508      49                                                00010000D     81
     508                       1       1                               0D     82
     508      50                                                00010000D     83
     508                       1       1                               0D     84
     508      51                                                00010000D     85
     508                       1       1                               0D     86
     508      52                                                00010000D     87
     508                       1       1                               0D     88
     508      53                                                00010000D     89
     508                       1       1                               0D     90
     508      54                                                00010000D     91
     508                       2       1                               0D     92
     508      56                                                00010000D     93
     508                       2       1                               0D     94
     508      58                                                00010000D     95
     508                       1       1                               0D     96
     508      59                                                00010000D     97
     508                       1       1                               0D     98
     126      60                                                00010000D     99
     126       0               3       0                               0D    100
     126      63                                                00010000D    101
     126       0               4       0                               0D    102
     126      67                                                00010000D    103
     126       0               2       0                               0D    104
     126      69                                                00010000D    105
     126       0               3       0                               0D    106
     126      72                                                00010000D    107
     126       0               2       0                               0D    108
     126      74                                                00010000D    109
     126       0               3       0                               0D    110
     126      77                                                00010000D    111
     126       0               2       0                               0D    112
     126      79                                                00010000D    113
     126       0               2       0                               0D    114
     126      81                                                00010000D    115
     126       0               3       0                               0D    116
     126      84                                                00010000D    117
     126       0               9       0                               0D    118
     126      93                                                00010000D    119
     126       0               8       0                               0D    120
     126     101                                                00010000D    121
     126       0               2       0                               0D    122
     126     103                                                00010000D    123
     126       0               2       0                               0D    124
     126     105                                                00010000D    125
     126       0               2       0                               0D    126
     126     107                                                00010000D    127
     126       0               2       0                               0D    128
     126     109                                                00010000D    129
     126       0               2       0                               0D    130
     126     111                                                00010000D    131
     126       0               2       0                               0D    132
     126     113                                                00010000D    133
     126       0               2       0                               0D    134
     126     115                                                00010000D    135
     126       0               2       0                               0D    136
     126     117                                                00010000D    137
     126       0               2       0                               0D    138
     126     119                                                00010000D    139
     126       0               2       0                               0D    140
     126     121                                                00010000D    141
     126       0               2       0                               0D    142
     126     123                                                00010000D    143
     126       0               2       0                               0D    144
     126     125                                                00010000D    145
     126       0               2       0                               0D    146
     126     127                                                00010000D    147
     126       0               2       0                               0D    148
     126     129                                                00010000D    149
     126       0               2       0                               0D    150
     126     131                                                00010000D    151
     126       0               2       0                               0D    152
     126     133                                                00010000D    153
     126       0               2       0                               0D    154
     126     135                                                00010000D    155
     126       0               2       0                               0D    156
     126     137                                                00010000D    157
     126       0               2       0                               0D    158
     126     139                                                00010000D    159
     126       0               2       0                               0D    160
     126     141                                                00010000D    161
     126       0               2       0                               0D    162
     126     143                                                00010000D    163
     126       0               2       0                               0D    164
     126     145                                                00010000D    165
     126       0               3       0                               0D    166
     126     148                                                00010000D    167
     126       0               2       0                               0D    168
     126     150                                                00010000D    169
     126       0               2       0                               0D    170
     126     152                                                00010000D    171
     126       0               2       0                               0D    172
     126     154                                                00010000D    173
     126       0               2       0                               0D    174
     126     156                                                00010000D    175
     126       0               2       0                               0D    176
     126     158                                                00010000D    177
     126       0               2       0                               0D    178
     126     160                                                00010000D    179
     126       0               2       0                               0D    180
     126     162                                                00010000D    181
     126       0               3       0                               0D    182
     126     165                                                00010000D    183
     126       0               2       0                               0D    184
     126     167                                                00010000D    185
     126       0               2       0                               0D    186
     126     169                                                00010000D    187
     126       0               2       0                               0D    188
     126     171                                                00010000D    189
     126       0               2       0                               0D    190
     126     173                                                00010000D    191
     126       0               3       0                               0D    192
     126     176                                                00010000D    193
     126       0               3       0                               0D    194
     126     179                                                00010000D    195
     126       0               2       0                               0D    196
     126     181                                                00010000D    197
     126       0               4       0                               0D    198
     126     185                                                00010000D    199
     126       0               4       0                               0D    200
     126     189                                                00010000D    201
     126       0               7       0                               0D    202
     126     196                                                00010000D    203
     126       0               7       0                               0D    204
     126     203                                                00010000D    205
     126       0               5       0                               0D    206
     126     208                                                00010000D    207
     126       0               6       0                               0D    208
     126     214                                                00010000D    209
     126       0               2       0                               0D    210
     126     216                                                00010000D    211
     126       0               2       0                               0D    212
     126     218                                                00010000D    213
     126       0               3       0                               0D    214
     126     221                                                00010000D    215
     126       0               2       0                               0D    216
     126     223                                                00010000D    217
     126       0               2       0                               0D    218
     128     225                                                00010000D    219
     128       0    -267       4       0                               0D    220
     128     229                                                00010000D    221
     128       0    -267       3       0                               0D    222
     128     232                                                00010000D    223
     128       0    -267       3       0                               0D    224
     128     235                                                00010000D    225
     128       0    -267       4       0                               0D    226
     128     239                                                00010000D    227
     128       0    -267       3       0                               0D    228
     128     242                                                00010000D    229
     128       0    -267       4       0                               0D    230
     128     246                                                00010000D    231
     128       0    -267       4       0                               0D    232
     128     250                                                00010000D    233
     128       0    -267       3       0                               0D    234
     128     253                                                00010000D    235
     128       0    -267       3       0                               0D    236
     128     256                                                00010000D    237
     128       0    -267       4       0                               0D    238
     128     260                                                00010000D    239
     128       0    -267       5       0                               0D    240
     128     265                                                00010000D    241
     128       0    -267       3       0                               0D    242
     128     268                                                00010000D    243
     128       0    -267       3       0                               0D    244
     128     271                                                00010000D    245
     128       0    -267       4       0                               0D    246
     128     275                                                00010000D    247
     128       0    -267       4       0                               0D    248
     128     279                                                00010000D    249
     128       0    -267       5       0                               0D    250
     128     284                                                00010000D    251
     128       0    -267       7       0                               0D    252
     128     291                                                00010000D    253
     128       0    -267      12       0                               0D    254
     128     303                                                00010000D    255
     128       0    -267      15       0                               0D    256
     128     318                                                00010000D    257
     128       0    -267       3       0                               0D    258
     128     321                                                00010000D    259
     128       0    -267       3       0                               0D    260
     502     324                                                00010000D    261
     502                      12       1                               0D    262
     504     336                                                00010001D    263
     504                      17       1                               0D    264
     406     353                                                00000000D    265
     406                       1      15                               0D    266
     314     354                                                00000200D    267
     314                       2       0                               0D    268
186,3,1,0,0,1,265;                                                     1P      1
514,21,5,1,7,1,9,1,11,1,13,1,15,1,17,1,19,1,21,1,23,1,25,1,27,1,       3P      2
29,1,31,1,33,1,35,1,37,1,39,1,41,1,43,1,45,1;                          3P      3
510,219,4,1,47,49,51,53;                                               5P      4
510,221,1,1,55;                                                        7P      5
510,223,1,1,57;                                                        9P      6
510,225,1,1,59;                                                       11P      7
510,227,1,1,61;                                                       13P      8
510,229,1,1,63;                                                       15P      9
510,231,1,1,65;                                                       17P     10
510,233,1,1,67;                                                       19P     11
510,235,1,1,69;                                                       21P     12
510,237,1,1,71;                                                       23P     13
510,239,1,1,73;                                                       25P     14
510,241,1,1,75;                                                       27P     15
510,243,1,1,77;                                                       29P     16
510,245,3,1,79,81,83;                                                 31P     17
510,247,1,1,85;                                                       33P     18
510,249,1,1,87;                                                       35P     19
510,251,1,1,89;                                                       37P     20
510,253,1,1,91;                                                       39P     21
510,255,1,1,93;                                                       41P     22
510,257,1,1,95;                                                       43P     23
510,259,1,1,97;                                                       45P     24
508,9,0,263,1,1,0,0,263,2,1,0,0,263,3,1,0,0,263,4,1,0,0,263,5,0,      47P     25
0,0,263,6,0,0,0,263,7,1,0,0,263,8,1,0,0,263,9,1,0;                    47P     26
508,1,0,263,10,1,0;                                                   49P     27
508,1,0,263,11,1,0;                                                   51P     28
508,4,0,263,12,1,0,0,263,13,1,0,0,263,14,1,0,0,263,15,1,0;            53P     29
508,4,0,263,6,1,0,0,263,16,1,0,0,263,17,1,0,0,263,18,0,0;             55P     30
508,4,0,263,19,1,0,0,263,20,1,0,0,263,21,1,0,0,263,22,0,0;            57P     31
508,10,0,263,22,1,0,0,263,23,1,0,0,263,24,1,0,0,263,25,1,0,0,         59P     32
263,7,0,0,0,263,18,1,0,0,263,26,1,0,0,263,27,1,0,0,263,28,1,0,0,      59P     33
263,29,1,0;                                                           59P     34
508,6,0,263,30,1,0,0,263,31,0,0,0,263,12,0,0,0,263,32,0,0,0,263,      61P     35
33,1,0,0,263,20,0,0;                                                  61P     36
508,4,0,263,21,0,0,0,263,33,0,0,0,263,34,0,0,0,263,23,0,0;            63P     37
508,4,0,263,19,0,0,0,263,29,0,0,0,263,35,1,0,0,263,30,0,0;            65P     38
508,4,0,263,5,1,0,0,263,36,1,0,0,263,37,0,0,0,263,16,0,0;             67P     39
508,4,0,263,17,0,0,0,263,37,1,0,0,263,38,1,0,0,263,26,0,0;            69P     40
508,4,0,263,39,1,0,0,263,40,1,0,0,263,41,1,0,0,263,3,0,0;             71P     41
508,6,0,263,42,1,0,0,263,27,0,0,0,263,38,0,0,0,263,36,0,0,0,263,      73P     42
4,0,0,0,263,41,0,0;                                                   73P     43
508,4,0,263,32,1,0,0,263,15,0,0,0,263,43,0,0,0,263,44,1,0;            75P     44
508,4,0,263,31,1,0,0,263,45,1,0,0,263,46,1,0,0,263,13,0,0;            77P     45
508,13,0,263,47,0,0,0,263,48,0,0,0,263,24,0,0,0,263,34,1,0,0,         79P     46
263,44,0,0,0,263,49,0,0,0,263,45,0,0,0,263,35,0,0,0,263,28,0,0,       79P     47
0,263,42,0,0,0,263,40,0,0,0,263,50,0,0,0,263,51,0,0;                  79P     48
508,2,0,263,52,0,0,0,263,53,0,0;                                      81P     49
508,2,0,263,54,0,0,0,263,55,0,0;                                      83P     50
508,4,0,263,47,1,0,0,263,56,1,0,0,263,9,0,0,0,263,57,0,0;             85P     51
508,4,0,263,51,1,0,0,263,58,1,0,0,263,1,0,0,0,263,56,0,0;             87P     52
508,4,0,263,50,1,0,0,263,39,0,0,0,263,2,0,0,0,263,58,0,0;             89P     53
508,5,0,263,11,0,0,0,263,59,1,0,0,263,55,1,0,0,263,54,1,0,0,263,      91P     54
59,0,0;                                                               91P     55
508,5,0,263,10,0,0,0,263,60,1,0,0,263,53,1,0,0,263,52,1,0,0,263,      93P     56
60,0,0;                                                               93P     57
508,4,0,263,48,1,0,0,263,57,1,0,0,263,8,0,0,0,263,25,0,0;             95P     58
508,4,0,263,49,1,0,0,263,43,1,0,0,263,14,0,0,0,263,46,0,0;            97P     59
126,1,1,0,0,1,0,0.,0.,0.948071866175704,0.948071866175704,1.,1.,      99P     60
48.5000751394777,9.48999127637589,38.,48.5000751394777,               99P     61
0.0092726146188471,38.,0.,0.948071866175704,0.,0.,0.;                 99P     62
126,1,1,0,0,1,0,0.89694921602431,0.89694921602431,                   101P     63
0.897876524639611,0.897876524639611,1.,1.,48.5000751394777,          101P     64
0.0092726146188471,38.,48.5001686538159,0.,38.,0.89694921602431,     101P     65
0.897876524639611,0.,0.,0.;                                          101P     66
126,1,1,0,0,1,0,0.,0.,1.6,1.6,1.,1.,48.5001686538159,0.,38.,         103P     67
48.5001686538159,-16.,38.,0.,1.6,0.,0.,0.;                           103P     68
126,1,1,0,0,1,0,0.0919539489071353,0.0919539489071353,               105P     69
0.691937083525542,0.691937083525542,1.,1.,48.5001686538159,-16.,     105P     70
38.,54.5,-16.,38.,0.0919539489071353,0.691937083525542,0.,0.,0.;     105P     71
126,1,1,0,0,1,0,0.95,0.95,2.45,2.45,1.,1.,54.5,-1.,38.,54.5,         107P     72
-16.,38.,0.95,2.45,0.,0.,0.;                                         107P     73
126,1,1,0,0,1,0,-0.497984270881386,-0.497984270881386,               109P     74
0.202015729118615,0.202015729118615,1.,1.,61.5,-1.,38.,54.5,-1.,     109P     75
38.,-0.497984270881386,0.202015729118615,0.,0.,0.;                   109P     76
126,1,1,0,0,1,0,-0.1,-0.1,3.6,3.6,1.,1.,61.5,-1.,38.,61.5,36.,       111P     77
38.,-0.1,3.6,0.,0.,0.;                                               111P     78
126,1,1,0,0,1,0,-0.2,-0.2,1.1,1.1,1.,1.,61.5,36.,38.,48.5,36.,       113P     79
38.,-0.2,1.1,0.,0.,0.;                                               113P     80
126,1,1,0,0,1,0,0.,0.,2.65100087236241,2.65100087236241,1.,1.,       115P     81
48.5,36.,38.,48.5,9.48999127637589,38.,0.,2.65100087236241,0.,       115P     82
0.,0.;                                                               115P     83
126,8,2,0,1,0,0,-3.14159265358979,-3.14159265358979,                 117P     84
-3.14159265358979,-1.5707963267949,-1.5707963267949,0.,0.,           117P     85
1.5707963267949,1.5707963267949,3.14159265358979,                    117P     86
3.14159265358979,3.14159265358979,1.,0.70710678118655,1.,            117P     87
0.707106781186549,1.,0.70710678118655,1.,0.707106781186551,1.,       117P     88
52.,3.5,38.,52.,5.49999999999999,38.,54.,5.49999999999999,38.,       117P     89
56.,5.49999999999999,38.,56.,3.5,38.,56.,1.50000000000001,38.,       117P     90
54.,1.50000000000001,38.,52.,1.50000000000001,38.,52.,3.5,38.,       117P     91
-3.14159265358979,3.14159265358979,0.,0.,0.;                         117P     92
126,8,2,0,1,0,0,-3.14159265358979,-3.14159265358979,                 119P     93
-3.14159265358979,-1.5707963267949,-1.5707963267949,0.,0.,           119P     94
1.5707963267949,1.5707963267949,3.14159265358979,                    119P     95
3.14159265358979,3.14159265358979,1.,0.707106781186542,1.,           119P     96
0.707106781186542,1.,0.707106781186542,1.,0.707106781186542,1.,      119P     97
52.,32.5,38.,52.,34.5,38.,54.,34.5,38.,56.,34.5,38.,56.,32.5,        119P     98
38.,56.,30.5,38.,54.,30.5,38.,52.,30.5,38.,52.,32.5,38.,             119P     99
-3.14159265358979,3.14159265358979,0.,0.,0.;                         119P    100
126,1,1,0,0,1,0,0.,0.,0.8,0.8,1.,1.,55.5,19.,38.,55.5,11.,38.,       121P    101
0.,0.8,0.,0.,0.;                                                     121P    102
126,1,1,0,0,1,0,0.399999999999999,0.399999999999999,0.8,0.8,1.,      123P    103
1.,55.5,11.,38.,51.5,11.,38.,0.399999999999999,0.8,0.,0.,0.;         123P    104
126,1,1,0,0,1,0,0.,0.,0.8,0.8,1.,1.,51.5,11.,38.,51.5,19.,38.,       125P    105
0.,0.8,0.,0.,0.;                                                     125P    106
126,1,1,0,0,1,0,0.,0.,0.4,0.4,1.,1.,51.5,19.,38.,55.5,19.,38.,       127P    107
0.,0.4,0.,0.,0.;                                                     127P    108
126,1,1,0,0,1,0,0.2,0.2,1.,1.,1.,1.,54.5,-1.,38.,54.5,-1.,46.,       129P    109
0.2,1.,0.,0.,0.;                                                     129P    110
126,1,1,0,0,1,0,-0.5,-0.5,0.2,0.2,1.,1.,54.5,-1.,46.,61.5,-1.,       131P    111
46.,-0.5,0.2,0.,0.,0.;                                               131P    112
126,1,1,0,0,1,0,0.2,0.2,1.,1.,1.,1.,61.5,-1.,38.,61.5,-1.,46.,       133P    113
0.2,1.,0.,0.,0.;                                                     133P    114
126,1,1,0,0,1,0,-0.2,-0.2,0.399999999999999,0.399999999999999,       135P    115
1.,1.,61.5,11.,26.,55.5,11.,26.,-0.2,0.399999999999999,0.,0.,0.;     135P    116
126,1,1,0,0,1,0,-0.2,-0.2,0.6,0.6,1.,1.,55.5,11.,26.,55.5,19.,       137P    117
26.,-0.2,0.6,0.,0.,0.;                                               137P    118
126,1,1,0,0,1,0,-0.399999999999999,-0.399999999999999,0.2,0.2,       139P    119
1.,1.,55.5,19.,26.,61.5,19.,26.,-0.399999999999999,0.2,0.,0.,0.;     139P    120
126,1,1,0,0,1,0,0.35,0.35,1.15,1.15,1.,1.,61.5,11.,26.,61.5,19.,     141P    121
26.,0.35,1.15,0.,0.,0.;                                              141P    122
126,1,1,0,0,1,0,-0.600000000000001,-0.600000000000001,0.,0.,1.,      143P    123
1.,61.5,19.,26.,61.5,19.,32.,-0.600000000000001,0.,0.,0.,0.;         143P    124
126,1,1,0,0,1,0,1.,1.,2.7,2.7,1.,1.,61.5,19.,32.,61.5,36.,32.,       145P    125
1.,2.7,0.,0.,0.;                                                     145P    126
126,1,1,0,0,1,0,0.,0.,0.6,0.6,1.,1.,61.5,36.,32.,61.5,36.,38.,       147P    127
0.,0.6,0.,0.,0.;                                                     147P    128
126,1,1,0,0,1,0,0.,0.,1.5,1.5,1.,1.,61.5,-1.,46.,61.5,-16.,46.,      149P    129
0.,1.5,0.,0.,0.;                                                     149P    130
126,1,1,0,0,1,0,-1.4,-1.4,0.,0.,1.,1.,61.5,-16.,46.,61.5,-16.,       151P    131
32.,-1.4,0.,0.,0.,0.;                                                151P    132
126,1,1,0,0,1,0,-2.5,-2.5,0.2,0.2,1.,1.,61.5,-16.,32.,61.5,11.,      153P    133
32.,-2.5,0.2,0.,0.,0.;                                               153P    134
126,1,1,0,0,1,0,0.,0.,0.600000000000001,0.600000000000001,1.,1.,     155P    135
61.5,11.,32.,61.5,11.,26.,0.,0.600000000000001,0.,0.,0.;             155P    136
126,1,1,0,0,1,0,-0.600000000000001,-0.600000000000001,0.,0.,1.,      157P    137
1.,55.5,11.,26.,55.5,11.,32.,-0.600000000000001,0.,0.,0.,0.;         157P    138
126,1,1,0,0,1,0,-0.6,-0.6,0.,0.,1.,1.,55.5,11.,38.,55.5,11.,32.,     159P    139
-0.6,0.,0.,0.,0.;                                                    159P    140
126,1,1,0,0,1,0,0.,0.,0.6,0.6,1.,1.,55.5,19.,32.,55.5,19.,38.,       161P    141
0.,0.6,0.,0.,0.;                                                     161P    142
126,1,1,0,0,1,0,-0.4,-0.4,0.200000000000001,0.200000000000001,       163P    143
1.,1.,55.5,19.,32.,55.5,19.,26.,-0.4,0.200000000000001,0.,0.,0.;     163P    144
126,1,1,0,0,1,0,-0.625,-0.625,-0.0250000000000004,                   165P    145
-0.0250000000000004,1.,1.,61.5,19.,32.,55.5,19.,32.,-0.625,          165P    146
-0.0250000000000004,0.,0.,0.;                                        165P    147
126,1,1,0,0,1,0,-0.475,-0.475,0.125,0.125,1.,1.,61.5,11.,32.,        167P    148
55.5,11.,32.,-0.475,0.125,0.,0.,0.;                                  167P    149
126,1,1,0,0,1,0,0.2,0.2,1.,1.,1.,1.,54.5,-16.,38.,54.5,-16.,46.,     169P    150
0.2,1.,0.,0.,0.;                                                     169P    151
126,1,1,0,0,1,0,-1.5,-1.5,0.,0.,1.,1.,54.5,-1.,46.,54.5,-16.,        171P    152
46.,-1.5,0.,0.,0.,0.;                                                171P    153
126,1,1,0,0,1,0,-0.5,-0.5,0.2,0.2,1.,1.,54.5,-16.,46.,61.5,-16.,     173P    154
46.,-0.5,0.2,0.,0.,0.;                                               173P    155
126,1,1,0,0,1,0,-0.6,-0.6,0.,0.,1.,1.,48.5001686538159,0.,38.,       175P    156
48.5001686538159,0.,32.,-0.6,0.,0.,0.,0.;                            175P    157
126,1,1,0,0,1,0,0.,0.,1.6,1.6,1.,1.,48.5001686538159,0.,32.,         177P    158
48.5001686538159,-16.,32.,0.,1.6,0.,0.,0.;                           177P    159
126,1,1,0,0,1,0,-0.4,-0.4,0.2,0.2,1.,1.,48.5001686538159,-16.,       179P    160
32.,48.5001686538159,-16.,38.,-0.4,0.2,0.,0.,0.;                     179P    161
126,1,1,0,0,1,0,-0.229014592855636,-0.229014592855636,               181P    162
1.07096854176277,1.07096854176277,1.,1.,48.5001686538159,-16.,       181P    163
32.,61.5,-16.,32.,-0.229014592855636,1.07096854176277,0.,0.,0.;      181P    164
126,1,1,0,0,1,0,0.,0.,0.6,0.6,1.,1.,51.5,19.,32.,51.5,19.,38.,       183P    165
0.,0.6,0.,0.,0.;                                                     183P    166
126,1,1,0,0,1,0,-0.125,-0.125,0.275,0.275,1.,1.,51.5,19.,32.,        185P    167
55.5,19.,32.,-0.125,0.275,0.,0.,0.;                                  185P    168
126,1,1,0,0,1,0,0.125,0.125,0.525,0.525,1.,1.,55.5,11.,32.,51.5,     187P    169
11.,32.,0.125,0.525,0.,0.,0.;                                        187P    170
126,1,1,0,0,1,0,0.,0.,0.6,0.6,1.,1.,51.5,11.,32.,51.5,11.,38.,       189P    171
0.,0.6,0.,0.,0.;                                                     189P    172
126,1,1,0,0,1,0,-0.9,-0.9,1.75100087236241,1.75100087236241,1.,      191P    173
1.,48.5,36.,32.,48.5,9.48999127637589,32.,-0.9,1.75100087236241,     191P    174
0.,0.,0.;                                                            191P    175
126,1,1,0,0,1,0,-0.475,-0.475,0.825000000000001,                     193P    176
0.825000000000001,1.,1.,61.5,36.,32.,48.5,36.,32.,-0.475,            193P    177
0.825000000000001,0.,0.,0.;                                          193P    178
126,1,1,0,0,1,0,-0.35,-0.35,0.45,0.45,1.,1.,51.5,11.,32.,51.5,       195P    179
19.,32.,-0.35,0.45,0.,0.,0.;                                         195P    180
126,1,1,0,0,1,0,0.896717431390175,0.896717431390175,                 197P    181
0.897644740005476,0.897644740005476,1.,1.,48.5000751394777,          197P    182
0.00927261461884932,32.,48.5001686538159,0.,32.,                     197P    183
0.896717431390175,0.897644740005476,0.,0.,0.;                        197P    184
126,1,1,0,0,1,0,0.425500436181206,0.425500436181206,                 199P    185
1.37357230235691,1.37357230235691,1.,1.,48.5000751394777,            199P    186
9.48999127637589,32.,48.5000751394777,0.00927261461884932,32.,       199P    187
0.425500436181206,1.37357230235691,0.,0.,0.;                         199P    188
126,4,2,0,0,0,0,-2.7755575615629D-16,-2.7755575615629D-16,           201P    189
-2.7755575615629D-16,1.5707963267949,1.5707963267949,                201P    190
3.14159265358979,3.14159265358979,3.14159265358979,1.,               201P    191
0.707106781186551,1.,0.70710678118655,1.,56.,3.5,32.,56.,            201P    192
1.50000000000001,32.,54.,1.50000000000001,32.,52.,                   201P    193
1.50000000000001,32.,52.,3.5,32.,-2.7755575615629D-16,               201P    194
3.14159265358979,0.,0.,0.;                                           201P    195
126,4,2,0,0,0,0,3.14159265358979,3.14159265358979,                   203P    196
3.14159265358979,4.71238898038469,4.71238898038469,                  203P    197
6.28318530717959,6.28318530717959,6.28318530717959,1.,               203P    198
0.707106781186549,1.,0.707106781186551,1.,52.,3.5,32.,52.,           203P    199
5.49999999999999,32.,54.,5.49999999999999,32.,56.,                   203P    200
5.49999999999999,32.,56.,3.5,32.,3.14159265358979,                   203P    201
6.28318530717959,0.,0.,0.;                                           203P    202
126,4,2,0,0,0,0,0.,0.,0.,1.5707963267949,1.5707963267949,            205P    203
3.14159265358979,3.14159265358979,3.14159265358979,1.,               205P    204
0.707106781186542,1.,0.707106781186542,1.,56.,32.5,32.,56.,30.5,     205P    205
32.,54.,30.5,32.,52.,30.5,32.,52.,32.5,32.,0.,3.14159265358979,      205P    206
0.,0.,0.;                                                            205P    207
126,4,2,0,0,0,0,3.14159265358979,3.14159265358979,                   207P    208
3.14159265358979,4.71238898038469,4.71238898038469,                  207P    209
6.28318530717959,6.28318530717959,6.28318530717959,1.,               207P    210
0.707106781186542,1.,0.707106781186542,1.,52.,32.5,32.,52.,34.5,     207P    211
32.,54.,34.5,32.,56.,34.5,32.,56.,32.5,32.,3.14159265358979,         207P    212
6.28318530717959,0.,0.,0.;                                           207P    213
126,1,1,0,0,1,0,0.,0.,0.6,0.6,1.,1.,48.5,9.48999127637589,32.,       209P    214
48.5,9.48999127637589,38.,0.,0.6,0.,0.,0.;                           209P    215
126,1,1,0,0,1,0,0.,0.,0.6,0.6,1.,1.,48.5,36.,32.,48.5,36.,38.,       211P    216
0.,0.6,0.,0.,0.;                                                     211P    217
126,1,1,0,0,1,0,0.,0.,0.6,0.6,1.,1.,48.5000751394777,                213P    218
0.0092726146188471,32.,48.5000751394777,0.0092726146188471,38.,      213P    219
0.,0.6,0.,0.,0.;                                                     213P    220
126,1,1,0,0,1,0,-1.,-1.,2.,2.,1.,1.,52.,32.5,38.,52.,32.5,32.,       215P    221
-1.,2.,0.,0.,0.;                                                     215P    222
126,1,1,0,0,1,0,-1.,-1.,2.00000000000001,2.00000000000001,1.,1.,     217P    223
52.,3.5,38.,52.,3.5,32.,-1.,2.00000000000001,0.,0.,0.;               217P    224
128,1,1,1,1,0,0,1,0,0,-0.504031458237229,-0.504031458237229,         219P    225
0.795968541762772,0.795968541762772,-3.4,-3.4,1.8,1.8,1.,1.,1.,      219P    226
1.,48.5,-16.,38.,61.5,-16.,38.,48.5,36.,38.,61.5,36.,38.,            219P    227
-0.504031458237229,0.795968541762772,-3.4,1.8;                       219P    228
128,1,1,1,1,0,0,1,0,0,-0.2,-0.2,0.5,0.5,0.2,0.2,1.,1.,1.,1.,1.,      221P    229
1.,61.5,-1.,38.,54.5,-1.,38.,61.5,-1.,46.,54.5,-1.,46.,-0.2,0.5,     221P    230
0.2,1.;                                                              221P    231
128,1,1,1,1,0,0,1,0,0,-0.35,-0.35,0.25,0.25,-0.4,-0.4,0.4,0.4,       223P    232
1.,1.,1.,1.,61.5,11.,26.,55.5,11.,26.,61.5,19.,26.,55.5,19.,26.,     223P    233
-0.35,0.25,-0.4,0.4;                                                 223P    234
128,1,1,1,1,0,0,1,0,0,-1.4,-1.4,0.600000000000001,                   225P    235
0.600000000000001,-1.6,-1.6,3.6,3.6,1.,1.,1.,1.,61.5,-16.,46.,       225P    236
61.5,-16.,26.,61.5,36.,46.,61.5,36.,26.,-1.4,0.600000000000001,      225P    237
-1.6,3.6;                                                            225P    238
128,1,1,1,1,0,0,1,0,0,-0.600000000000001,-0.600000000000001,0.6,     227P    239
0.6,0.,0.,0.8,0.8,1.,1.,1.,1.,55.5,11.,26.,55.5,11.,38.,55.5,        227P    240
19.,26.,55.5,19.,38.,-0.600000000000001,0.6,0.,0.8;                  227P    241
128,1,1,1,1,0,0,1,0,0,-0.0999999999999996,-0.0999999999999996,       229P    242
0.5,0.5,0.,0.,0.600000000000001,0.600000000000001,1.,1.,1.,1.,       229P    243
55.5,19.,32.,61.5,19.,32.,55.5,19.,26.,61.5,19.,26.,                 229P    244
-0.0999999999999996,0.5,0.,0.600000000000001;                        229P    245
128,1,1,1,1,0,0,1,0,0,-0.2,-0.2,0.399999999999999,                   231P    246
0.399999999999999,0.,0.,0.600000000000001,0.600000000000001,1.,      231P    247
1.,1.,1.,61.5,11.,32.,55.5,11.,32.,61.5,11.,26.,55.5,11.,26.,        231P    248
-0.2,0.399999999999999,0.,0.600000000000001;                         231P    249
128,1,1,1,1,0,0,1,0,0,0.,0.,1.5,1.5,0.2,0.2,1.,1.,1.,1.,1.,1.,       233P    250
54.5,-1.,38.,54.5,-16.,38.,54.5,-1.,46.,54.5,-16.,46.,0.,1.5,        233P    251
0.2,1.;                                                              233P    252
128,1,1,1,1,0,0,1,0,0,-0.25,-0.25,0.45,0.45,-0.75,-0.75,0.75,        235P    253
0.75,1.,1.,1.,1.,54.5,-16.,46.,61.5,-16.,46.,54.5,-1.,46.,61.5,      235P    254
-1.,46.,-0.25,0.45,-0.75,0.75;                                       235P    255
128,1,1,1,1,0,0,1,0,0,-0.2,-0.2,0.4,0.4,0.,0.,1.6,1.6,1.,1.,1.,      237P    256
1.,48.5001686538159,0.,38.,48.5001686538159,0.,32.,                  237P    257
48.5001686538159,-16.,38.,48.5001686538159,-16.,32.,-0.2,0.4,0.,     237P    258
1.6;                                                                 237P    259
128,1,1,1,1,0,0,1,0,0,-1.4,-1.4,0.,0.,0.0919539489071353,            239P    260
0.0919539489071353,1.39193708352554,1.39193708352554,1.,1.,1.,       239P    261
1.,48.5001686538159,-16.,46.,48.5001686538159,-16.,32.,61.5,         239P    262
-16.,46.,61.5,-16.,32.,-1.4,0.,0.0919539489071353,                   239P    263
1.39193708352554;                                                    239P    264
128,1,1,1,1,0,0,1,0,0,0.,0.,0.4,0.4,0.,0.,0.6,0.6,1.,1.,1.,1.,       241P    265
51.5,19.,32.,55.5,19.,32.,51.5,19.,38.,55.5,19.,38.,0.,0.4,0.,       241P    266
0.6;                                                                 241P    267
128,1,1,1,1,0,0,1,0,0,0.399999999999999,0.399999999999999,0.8,       243P    268
0.8,0.,0.,0.6,0.6,1.,1.,1.,1.,55.5,11.,32.,51.5,11.,32.,55.5,        243P    269
11.,38.,51.5,11.,38.,0.399999999999999,0.8,0.,0.6;                   243P    270
128,1,1,1,1,0,0,1,0,0,-0.75,-0.75,0.550000000000001,                 245P    271
0.550000000000001,-3.4,-3.4,1.8,1.8,1.,1.,1.,1.,61.5,-16.,32.,       245P    272
48.5,-16.,32.,61.5,36.,32.,48.5,36.,32.,-0.75,0.550000000000001,     245P    273
-3.4,1.8;                                                            245P    274
128,1,1,1,1,0,0,1,0,0,0.,0.,2.65100087236241,2.65100087236241,       247P    275
0.,0.,0.6,0.6,1.,1.,1.,1.,48.5,36.,32.,48.5,9.48999127637588,        247P    276
32.,48.5,36.,38.,48.5,9.48999127637588,38.,0.,2.65100087236241,      247P    277
0.,0.6;                                                              247P    278
128,1,1,1,1,0,0,1,0,0,0.,0.,0.948071866175704,0.948071866175704,     249P    279
0.,0.,0.6,0.6,1.,1.,1.,1.,48.5000751394777,9.48999127637589,32.,     249P    280
48.5000751394777,0.0092726146188471,32.,48.5000751394777,            249P    281
9.48999127637589,38.,48.5000751394777,0.0092726146188471,38.,0.,     249P    282
0.948071866175704,0.,0.6;                                            249P    283
128,1,1,1,1,0,0,1,0,0,0.,0.,0.6,0.6,-2.22044604925031D-16,           251P    284
-2.22044604925031D-16,0.000927308615300826,0.000927308615300826,     251P    285
1.,1.,1.,1.,48.5000751394777,0.00927261461884932,38.,                251P    286
48.5000751394777,0.00927261461884932,32.,48.5001686538159,           251P    287
-6.17995238316738D-17,38.,48.5001686538159,                          251P    288
-6.17995238316738D-17,32.,0.,0.6,-2.22044604925031D-16,              251P    289
0.000927308615300826;                                                251P    290
128,1,8,1,2,0,1,0,0,1,-1.,-1.,2.,2.,-3.14159265358979,               253P    291
-3.14159265358979,-3.14159265358979,-1.5707963267949,                253P    292
-1.5707963267949,0.,0.,1.5707963267949,1.5707963267949,              253P    293
3.14159265358979,3.14159265358979,3.14159265358979,1.,1.,            253P    294
0.707106781186548,0.707106781186548,1.,1.,0.707106781186548,         253P    295
0.707106781186548,1.,1.,0.707106781186548,0.707106781186548,1.,      253P    296
1.,0.707106781186548,0.707106781186548,1.,1.,52.,32.5,38.,52.,       253P    297
32.5,32.,52.,34.5,38.,52.,34.5,32.,54.,34.5,38.,54.,34.5,32.,        253P    298
56.,34.5,38.,56.,34.5,32.,56.,32.5,38.,56.,32.5,32.,56.,30.5,        253P    299
38.,56.,30.5,32.,54.,30.5,38.,54.,30.5,32.,52.,30.5,38.,52.,         253P    300
30.5,32.,52.,32.5,38.,52.,32.5,32.,-1.,2.,-3.14159265358979,         253P    301
3.14159265358979;                                                    253P    302
128,1,8,1,2,0,1,0,0,1,-1.,-1.,2.00000000000001,2.00000000000001,     255P    303
-3.14159265358979,-3.14159265358979,-3.14159265358979,               255P    304
-1.5707963267949,-1.5707963267949,0.,0.,1.5707963267949,             255P    305
1.5707963267949,3.14159265358979,3.14159265358979,                   255P    306
3.14159265358979,1.,1.,0.707106781186548,0.707106781186548,1.,       255P    307
1.,0.707106781186548,0.707106781186548,1.,1.,0.707106781186548,      255P    308
0.707106781186548,1.,1.,0.707106781186548,0.707106781186548,1.,      255P    309
1.,52.,3.5,38.,52.,3.5,32.,52.,5.49999999999999,38.,52.,             255P    310
5.49999999999999,32.,54.,5.49999999999999,38.,54.,                   255P    311
5.49999999999999,32.,56.,5.49999999999999,38.,56.,                   255P    312
5.49999999999999,32.,56.,3.5,38.,56.,3.5,32.,56.,                    255P    313
1.50000000000001,38.,56.,1.50000000000001,32.,54.,                   255P    314
1.50000000000001,38.,54.,1.50000000000001,32.,52.,                   255P    315
1.50000000000001,38.,52.,1.50000000000001,32.,52.,3.5,38.,52.,       255P    316
3.5,32.,-1.,2.00000000000001,-3.14159265358979,3.14159265358979;     255P    317
128,1,1,1,1,0,0,1,0,0,-0.2,-0.2,1.1,1.1,0.,0.,0.6,0.6,1.,1.,1.,      257P    318
1.,61.5,36.,32.,48.5,36.,32.,61.5,36.,38.,48.5,36.,38.,-0.2,1.1,     257P    319
0.,0.6;                                                              257P    320
128,1,1,1,1,0,0,1,0,0,0.,0.,0.8,0.8,0.,0.,0.6,0.6,1.,1.,1.,1.,       259P    321
51.5,11.,32.,51.5,19.,32.,51.5,11.,38.,51.5,19.,38.,0.,0.8,0.,       259P    322
0.6;                                                                 259P    323
502,40,48.5,9.48999127637589,38.,48.5000751394777,                   261P    324
0.0092726146188471,38.,48.5001686538159,0.,38.,48.5001686538159,     261P    325
-16.,38.,54.5,-16.,38.,54.5,-1.,38.,61.5,-1.,38.,61.5,36.,38.,       261P    326
48.5,36.,38.,52.,3.5,38.,52.,32.5,38.,55.5,19.,38.,55.5,11.,38.,     261P    327
51.5,11.,38.,51.5,19.,38.,54.5,-1.,46.,61.5,-1.,46.,61.5,11.,        261P    328
26.,55.5,11.,26.,55.5,19.,26.,61.5,19.,26.,61.5,19.,32.,61.5,        261P    329
36.,32.,61.5,-16.,46.,61.5,-16.,32.,61.5,11.,32.,55.5,11.,32.,       261P    330
55.5,19.,32.,54.5,-16.,46.,48.5001686538159,0.,32.,                  261P    331
48.5001686538159,-16.,32.,51.5,19.,32.,51.5,11.,32.,48.5,36.,        261P    332
32.,48.5,9.48999127637589,32.,48.5000751394777,                      261P    333
0.00927261461884932,32.,56.,3.5,32.,52.,3.5,32.,56.,32.5,32.,        261P    334
52.,32.5,32.;                                                        261P    335
504,60,99,261,1,261,2,101,261,2,261,3,103,261,3,261,4,105,261,4,     263P    336
261,5,107,261,6,261,5,109,261,7,261,6,111,261,7,261,8,113,261,8,     263P    337
261,9,115,261,9,261,1,117,261,10,261,10,119,261,11,261,11,121,       263P    338
261,12,261,13,123,261,13,261,14,125,261,14,261,15,127,261,15,        263P    339
261,12,129,261,6,261,16,131,261,16,261,17,133,261,7,261,17,135,      263P    340
261,18,261,19,137,261,19,261,20,139,261,20,261,21,141,261,18,        263P    341
261,21,143,261,21,261,22,145,261,22,261,23,147,261,23,261,8,149,     263P    342
261,17,261,24,151,261,24,261,25,153,261,25,261,26,155,261,26,        263P    343
261,18,157,261,19,261,27,159,261,13,261,27,161,261,28,261,12,        263P    344
163,261,28,261,20,165,261,22,261,28,167,261,26,261,27,169,261,5,     263P    345
261,29,171,261,16,261,29,173,261,29,261,24,175,261,3,261,30,177,     263P    346
261,30,261,31,179,261,31,261,4,181,261,31,261,25,183,261,32,261,     263P    347
15,185,261,32,261,28,187,261,27,261,33,189,261,33,261,14,191,        263P    348
261,34,261,35,193,261,23,261,34,195,261,33,261,32,197,261,36,        263P    349
261,30,199,261,35,261,36,201,261,37,261,38,203,261,38,261,37,        263P    350
205,261,39,261,40,207,261,40,261,39,209,261,35,261,1,211,261,34,     263P    351
261,9,213,261,36,261,2,215,261,11,261,40,217,261,10,261,38;          263P    352
406,1,5HBody1;                                                       265P    353
314,62.7450980392157,62.7450980392157,62.7450980392157,13HSteel      267P    354
- Satin;                                                             267P    355
S      1G      2D    268P    355                                        T      1
