                                                                        S      1
,,6HClamp1,6HClamp1,7Hunknown,7Hunknown,32,38,7,99,15,,1.,2,2HMM,1,0.08,G      1
15H20150722.163636,0.01,10000.,7Hunknown,7Hunknown,11,0,;               G      2
     186       1                                                00000000D      1
     186            -203       1       0                               0D      2
     514       2                                                00010000D      3
     514                       2       1                               0D      4
     510       4                                                00010000D      5
     510            -203       1       1                               0D      6
     510       5                                                00010000D      7
     510            -203       1       1                               0D      8
     510       6                                                00010000D      9
     510            -203       1       1                               0D     10
     510       7                                                00010000D     11
     510            -203       1       1                               0D     12
     510       8                                                00010000D     13
     510            -203       1       1                               0D     14
     510       9                                                00010000D     15
     510            -203       1       1                               0D     16
     510      10                                                00010000D     17
     510            -203       1       1                               0D     18
     510      11                                                00010000D     19
     510            -203       1       1                               0D     20
     510      12                                                00010000D     21
     510            -203       1       1                               0D     22
     510      13                                                00010000D     23
     510            -203       1       1                               0D     24
     510      14                                                00010000D     25
     510            -203       1       1                               0D     26
     510      15                                                00010000D     27
     510            -203       1       1                               0D     28
     510      16                                                00010000D     29
     510            -203       1       1                               0D     30
     510      17                                                00010000D     31
     510            -203       1       1                               0D     32
     510      18                                                00010000D     33
     510            -203       1       1                               0D     34
     510      19                                                00010000D     35
     510            -203       1       1                               0D     36
     508      20                                                00010000D     37
     508                       1       1                               0D     38
     508      21                                                00010000D     39
     508                       1       1                               0D     40
     508      22                                                00010000D     41
     508                       1       1                               0D     42
     508      23                                                00010000D     43
     508                       2       1                               0D     44
     508      25                                                00010000D     45
     508                       2       1                               0D     46
     508      27                                                00010000D     47
     508                       1       1                               0D     48
     508      28                                                00010000D     49
     508                       2       1                               0D     50
     508      30                                                00010000D     51
     508                       1       1                               0D     52
     508      31                                                00010000D     53
     508                       1       1                               0D     54
     508      32                                                00010000D     55
     508                       1       1                               0D     56
     508      33                                                00010000D     57
     508                       1       1                               0D     58
     508      34                                                00010000D     59
     508                       3       1                               0D     60
     508      37                                                00010000D     61
     508                       1       1                               0D     62
     508      38                                                00010000D     63
     508                       1       1                               0D     64
     508      39                                                00010000D     65
     508                       1       1                               0D     66
     508      40                                                00010000D     67
     508                       1       1                               0D     68
     508      41                                                00010000D     69
     508                       1       1                               0D     70
     508      42                                                00010000D     71
     508                       1       1                               0D     72
     508      43                                                00010000D     73
     508                       1       1                               0D     74
     508      44                                                00010000D     75
     508                       1       1                               0D     76
     508      45                                                00010000D     77
     508                       1       1                               0D     78
     126      46                                                00010000D     79
     126       0               2       0                               0D     80
     126      48                                                00010000D     81
     126       0               2       0                               0D     82
     126      50                                                00010000D     83
     126       0               2       0                               0D     84
     126      52                                                00010000D     85
     126       0               2       0                               0D     86
     126      54                                                00010000D     87
     126       0               8       0                               0D     88
     126      62                                                00010000D     89
     126       0               9       0                               0D     90
     126      71                                                00010000D     91
     126       0               2       0                               0D     92
     126      73                                                00010000D     93
     126       0               3       0                               0D     94
     126      76                                                00010000D     95
     126       0               3       0                               0D     96
     126      79                                                00010000D     97
     126       0               3       0                               0D     98
     126      82                                                00010000D     99
     126       0               2       0                               0D    100
     126      84                                                00010000D    101
     126       0               2       0                               0D    102
     126      86                                                00010000D    103
     126       0               2       0                               0D    104
     126      88                                                00010000D    105
     126       0               2       0                               0D    106
     126      90                                                00010000D    107
     126       0               2       0                               0D    108
     126      92                                                00010000D    109
     126       0               2       0                               0D    110
     126      94                                                00010000D    111
     126       0               2       0                               0D    112
     126      96                                                00010000D    113
     126       0               3       0                               0D    114
     126      99                                                00010000D    115
     126       0               2       0                               0D    116
     126     101                                                00010000D    117
     126       0               2       0                               0D    118
     126     103                                                00010000D    119
     126       0               2       0                               0D    120
     126     105                                                00010000D    121
     126       0               2       0                               0D    122
     126     107                                                00010000D    123
     126       0               2       0                               0D    124
     126     109                                                00010000D    125
     126       0               2       0                               0D    126
     126     111                                                00010000D    127
     126       0               2       0                               0D    128
     126     113                                                00010000D    129
     126       0               2       0                               0D    130
     126     115                                                00010000D    131
     126       0               3       0                               0D    132
     126     118                                                00010000D    133
     126       0               2       0                               0D    134
     126     120                                                00010000D    135
     126       0               3       0                               0D    136
     126     123                                                00010000D    137
     126       0               2       0                               0D    138
     126     125                                                00010000D    139
     126       0               2       0                               0D    140
     126     127                                                00010000D    141
     126       0               2       0                               0D    142
     126     129                                                00010000D    143
     126       0               2       0                               0D    144
     126     131                                                00010000D    145
     126       0               2       0                               0D    146
     126     133                                                00010000D    147
     126       0               3       0                               0D    148
     126     136                                                00010000D    149
     126       0               3       0                               0D    150
     126     139                                                00010000D    151
     126       0               8       0                               0D    152
     126     147                                                00010000D    153
     126       0               9       0                               0D    154
     126     156                                                00010000D    155
     126       0               2       0                               0D    156
     126     158                                                00010000D    157
     126       0               2       0                               0D    158
     126     160                                                00010000D    159
     126       0               2       0                               0D    160
     126     162                                                00010000D    161
     126       0               3       0                               0D    162
     126     165                                                00010000D    163
     126       0               2       0                               0D    164
     128     167                                                00010000D    165
     128       0    -203       4       0                               0D    166
     128     171                                                00010000D    167
     128       0    -203       3       0                               0D    168
     128     174                                                00010000D    169
     128       0    -203       3       0                               0D    170
     128     177                                                00010000D    171
     128       0    -203       3       0                               0D    172
     128     180                                                00010000D    173
     128       0    -203       3       0                               0D    174
     128     183                                                00010000D    175
     128       0    -203       3       0                               0D    176
     128     186                                                00010000D    177
     128       0    -203       3       0                               0D    178
     128     189                                                00010000D    179
     128       0    -203       4       0                               0D    180
     128     193                                                00010000D    181
     128       0    -203       3       0                               0D    182
     128     196                                                00010000D    183
     128       0    -203       3       0                               0D    184
     128     199                                                00010000D    185
     128       0    -203       2       0                               0D    186
     128     201                                                00010000D    187
     128       0    -203      17       0                               0D    188
     128     218                                                00010000D    189
     128       0    -203      16       0                               0D    190
     128     234                                                00010000D    191
     128       0    -203       4       0                               0D    192
     128     238                                                00010000D    193
     128       0    -203       4       0                               0D    194
     128     242                                                00010000D    195
     128       0    -203       2       0                               0D    196
     502     244                                                00010000D    197
     502                       7       1                               0D    198
     504     251                                                00010001D    199
     504                      12       1                               0D    200
     406     263                                                00000000D    201
     406                       1      15                               0D    202
     314     264                                                00000200D    203
     314                       2       0                               0D    204
186,3,1,0,0,1,201;                                                     1P      1
514,16,5,1,7,1,9,1,11,1,13,1,15,1,17,1,19,1,21,1,23,1,25,1,27,1,       3P      2
29,1,31,1,33,1,35,1;                                                   3P      3
510,165,4,1,37,39,41,43;                                               5P      4
510,167,1,1,45;                                                        7P      5
510,169,1,1,47;                                                        9P      6
510,171,1,1,49;                                                       11P      7
510,173,1,1,51;                                                       13P      8
510,175,1,1,53;                                                       15P      9
510,177,1,1,55;                                                       17P     10
510,179,1,1,57;                                                       19P     11
510,181,3,1,59,61,63;                                                 21P     12
510,183,1,1,65;                                                       23P     13
510,185,1,1,67;                                                       25P     14
510,187,1,1,69;                                                       27P     15
510,189,1,1,71;                                                       29P     16
510,191,1,1,73;                                                       31P     17
510,193,1,1,75;                                                       33P     18
510,195,1,1,77;                                                       35P     19
508,4,0,199,1,1,0,0,199,2,1,0,0,199,3,1,0,0,199,4,1,0;                37P     20
508,1,0,199,5,1,0;                                                    39P     21
508,1,0,199,6,1,0;                                                    41P     22
508,5,0,199,7,1,0,0,199,8,1,0,0,199,9,1,0,0,199,10,1,0,0,199,11,      43P     23
1,0;                                                                  43P     24
508,6,0,199,12,1,0,0,199,13,0,0,0,199,7,0,0,0,199,14,0,0,0,199,       45P     25
15,1,0,0,199,16,0,0;                                                  45P     26
508,4,0,199,16,1,0,0,199,17,1,0,0,199,18,0,0,0,199,19,1,0;            47P     27
508,8,0,199,20,1,0,0,199,21,1,0,0,199,22,1,0,0,199,4,0,0,0,199,       49P     28
23,0,0,0,199,24,1,0,0,199,25,1,0,0,199,18,1,0;                        49P     29
508,4,0,199,12,0,0,0,199,19,0,0,0,199,25,0,0,0,199,26,1,0;            51P     30
508,4,0,199,15,0,0,0,199,27,0,0,0,199,20,0,0,0,199,17,0,0;            53P     31
508,4,0,199,14,1,0,0,199,11,0,0,0,199,28,0,0,0,199,29,1,0;            55P     32
508,4,0,199,13,1,0,0,199,30,1,0,0,199,31,1,0,0,199,8,0,0;             57P     33
508,11,0,199,26,0,0,0,199,24,0,0,0,199,32,0,0,0,199,33,0,0,0,         59P     34
199,34,1,0,0,199,21,0,0,0,199,27,1,0,0,199,29,0,0,0,199,35,0,0,       59P     35
0,199,36,0,0,0,199,30,0,0;                                            59P     36
508,1,0,199,37,0,0;                                                   61P     37
508,1,0,199,38,0,0;                                                   63P     38
508,4,0,199,34,0,0,0,199,39,0,0,0,199,1,0,0,0,199,22,0,0;             65P     39
508,4,0,199,33,1,0,0,199,40,1,0,0,199,2,0,0,0,199,39,1,0;             67P     40
508,4,0,199,37,1,0,0,199,41,1,0,0,199,5,0,0,0,199,41,0,0;             69P     41
508,4,0,199,38,1,0,0,199,42,1,0,0,199,6,0,0,0,199,42,0,0;             71P     42
508,4,0,199,35,1,0,0,199,28,1,0,0,199,10,0,0,0,199,43,0,0;            73P     43
508,4,0,199,36,1,0,0,199,43,1,0,0,199,9,0,0,0,199,31,0,0;             75P     44
508,4,0,199,32,1,0,0,199,23,1,0,0,199,3,0,0,0,199,40,0,0;             77P     45
126,1,1,0,0,1,0,-0.7,-0.7,0.6,0.6,1.,1.,61.5,0.,-6.,48.5,0.,-6.,      79P     46
-0.7,0.6,0.,0.,0.;                                                    79P     47
126,1,1,0,0,1,0,-0.4,-0.4,3.2,3.2,1.,1.,48.5,0.,-6.,48.5,36.,         81P     48
-6.,-0.4,3.2,0.,0.,0.;                                                81P     49
126,1,1,0,0,1,0,0.,0.,1.3,1.3,1.,1.,48.5,36.,-6.,61.5,36.,-6.,        83P     50
0.,1.3,0.,0.,0.;                                                      83P     51
126,1,1,0,0,1,0,-1.5,-1.5,2.1,2.1,1.,1.,61.5,36.,-6.,61.5,0.,         85P     52
-6.,-1.5,2.1,0.,0.,0.;                                                85P     53
126,8,2,0,1,0,0,-3.14159265358979,-3.14159265358979,                  87P     54
-3.14159265358979,-1.5707963267949,-1.5707963267949,0.,0.,            87P     55
1.5707963267949,1.5707963267949,3.14159265358979,                     87P     56
3.14159265358979,3.14159265358979,1.,0.707106781186542,1.,            87P     57
0.707106781186542,1.,0.707106781186542,1.,0.707106781186542,1.,       87P     58
52.,32.5,-6.,52.,30.5,-6.,54.,30.5,-6.,56.,30.5,-6.,56.,32.5,         87P     59
-6.,56.,34.5,-6.,54.,34.5,-6.,52.,34.5,-6.,52.,32.5,-6.,              87P     60
-3.14159265358979,3.14159265358979,0.,0.,0.;                          87P     61
126,8,2,0,1,0,0,-3.14159265358979,-3.14159265358979,                  89P     62
-3.14159265358979,-1.5707963267949,-1.5707963267949,0.,0.,            89P     63
1.5707963267949,1.5707963267949,3.14159265358979,                     89P     64
3.14159265358979,3.14159265358979,1.,0.707106781186551,1.,            89P     65
0.70710678118655,1.,0.707106781186549,1.,0.70710678118655,1.,         89P     66
52.,3.5,-6.,52.,1.50000000000001,-6.,54.,1.50000000000001,-6.,        89P     67
56.,1.50000000000001,-6.,56.,3.5,-6.,56.,5.49999999999999,-6.,        89P     68
54.,5.49999999999999,-6.,52.,5.49999999999999,-6.,52.,3.5,-6.,        89P     69
-3.14159265358979,3.14159265358979,0.,0.,0.;                          89P     70
126,1,1,0,0,1,0,-0.8,-0.8,0.,0.,1.,1.,55.5,21.,-6.,55.5,29.,-6.,      91P     71
-0.8,0.,0.,0.,0.;                                                     91P     72
126,1,1,0,0,1,0,0.399999999999999,0.399999999999999,                  93P     73
0.800000000000001,0.800000000000001,1.,1.,55.5,29.,-6.,51.5,29.,      93P     74
-6.,0.399999999999999,0.800000000000001,0.,0.,0.;                     93P     75
126,1,1,0,0,1,0,0.,0.,0.799999968707562,0.799999968707562,1.,1.,      95P     76
51.5,29.,-6.,51.5,21.0000003129244,-6.,0.,0.799999968707562,0.,       95P     77
0.,0.;                                                                95P     78
126,1,1,0,0,1,0,0.,0.,0.300000000000002,0.300000000000002,1.,1.,      97P     79
51.5,21.0000003129244,-6.,54.5,21.,-6.,0.,0.300000000000002,0.,       97P     80
0.,0.;                                                                97P     81
126,1,1,0,0,1,0,0.,0.,0.100000000000001,0.100000000000001,1.,1.,      99P     82
54.5,21.,-6.,55.5,21.,-6.,0.,0.100000000000001,0.,0.,0.;              99P     83
126,1,1,0,0,1,0,-0.6,-0.6,0.,0.,1.,1.,55.5,29.,6.,55.5,29.,0.,       101P     84
-0.6,0.,0.,0.,0.;                                                    101P     85
126,1,1,0,0,1,0,-0.6,-0.6,0.,0.,1.,1.,55.5,29.,-6.,55.5,29.,0.,      103P     86
-0.6,0.,0.,0.,0.;                                                    103P     87
126,1,1,0,0,1,0,-0.2,-0.2,0.4,0.4,1.,1.,55.5,21.,0.,55.5,21.,        105P     88
-6.,-0.2,0.4,0.,0.,0.;                                               105P     89
126,1,1,0,0,1,0,-0.4,-0.4,0.2,0.2,1.,1.,55.5,21.,0.,55.5,21.,6.,     107P     90
-0.4,0.2,0.,0.,0.;                                                   107P     91
126,1,1,0,0,1,0,-0.2,-0.2,0.600000000000001,0.600000000000001,       109P     92
1.,1.,55.5,29.,6.,55.5,21.,6.,-0.2,0.600000000000001,0.,0.,0.;       109P     93
126,1,1,0,0,1,0,-0.399999999999999,-0.399999999999999,0.2,0.2,       111P     94
1.,1.,55.5,21.,6.,61.5,21.,6.,-0.399999999999999,0.2,0.,0.,0.;       111P     95
126,1,1,0,0,1,0,0.149999999999999,0.149999999999999,                 113P     96
0.949999999999999,0.949999999999999,1.,1.,61.5,29.,6.,61.5,21.,      113P     97
6.,0.149999999999999,0.949999999999999,0.,0.,0.;                     113P     98
126,1,1,0,0,1,0,-0.5,-0.5,0.0999999999999996,0.0999999999999996,     115P     99
1.,1.,61.5,29.,6.,55.5,29.,6.,-0.5,0.0999999999999996,0.,0.,0.;      115P    100
126,1,1,0,0,1,0,-0.6,-0.6,0.,0.,1.,1.,61.5,21.,6.,61.5,21.,0.,       117P    101
-0.6,0.,0.,0.,0.;                                                    117P    102
126,1,1,0,0,1,0,0.599999999999999,0.599999999999999,2.7,2.7,1.,      119P    103
1.,61.5,21.,0.,61.5,0.,0.,0.599999999999999,2.7,0.,0.,0.;            119P    104
126,1,1,0,0,1,0,0.,0.,0.6,0.6,1.,1.,61.5,0.,0.,61.5,0.,-6.,0.,       121P    105
0.6,0.,0.,0.;                                                        121P    106
126,1,1,0,0,1,0,-0.4,-0.4,0.2,0.2,1.,1.,61.5,36.,0.,61.5,36.,        123P    107
-6.,-0.4,0.2,0.,0.,0.;                                               123P    108
126,1,1,0,0,1,0,-0.9,-0.9,-0.200000000000001,-0.200000000000001,     125P    109
1.,1.,61.5,36.,0.,61.5,29.,0.,-0.9,-0.200000000000001,0.,0.,0.;      125P    110
126,1,1,0,0,1,0,0.,0.,0.6,0.6,1.,1.,61.5,29.,0.,61.5,29.,6.,0.,      127P    111
0.6,0.,0.,0.;                                                        127P    112
126,1,1,0,0,1,0,-0.475,-0.475,0.125,0.125,1.,1.,61.5,29.,0.,         129P    113
55.5,29.,0.,-0.475,0.125,0.,0.,0.;                                   129P    114
126,1,1,0,0,1,0,-0.625,-0.625,-0.0250000000000004,                   131P    115
-0.0250000000000004,1.,1.,61.5,21.,0.,55.5,21.,0.,-0.625,            131P    116
-0.0250000000000004,0.,0.,0.;                                        131P    117
126,1,1,0,0,1,0,0.,0.,0.6,0.6,1.,1.,54.5,21.,0.,54.5,21.,-6.,0.,     133P    118
0.6,0.,0.,0.;                                                        133P    119
126,1,1,0,0,1,0,0.0249999999999995,0.0249999999999995,0.125,         135P    120
0.125,1.,1.,54.5,21.,0.,55.5,21.,0.,0.0249999999999995,0.125,0.,     135P    121
0.,0.;                                                               135P    122
126,1,1,0,0,1,0,0.125,0.125,0.525000000000001,0.525000000000001,     137P    123
1.,1.,55.5,29.,0.,51.5,29.,0.,0.125,0.525000000000001,0.,0.,0.;      137P    124
126,1,1,0,0,1,0,0.,0.,0.6,0.6,1.,1.,51.5,29.,0.,51.5,29.,-6.,0.,     139P    125
0.6,0.,0.,0.;                                                        139P    126
126,1,1,0,0,1,0,-1.1,-1.1,0.2,0.2,1.,1.,48.5,36.,0.,61.5,36.,0.,     141P    127
-1.1,0.2,0.,0.,0.;                                                   141P    128
126,1,1,0,0,1,0,-0.9,-0.9,2.7,2.7,1.,1.,48.5,0.,0.,48.5,36.,0.,      143P    129
-0.9,2.7,0.,0.,0.;                                                   143P    130
126,1,1,0,0,1,0,-1.1,-1.1,0.2,0.2,1.,1.,48.5,0.,0.,61.5,0.,0.,       145P    131
-1.1,0.2,0.,0.,0.;                                                   145P    132
126,1,1,0,0,1,0,-0.125000015646221,-0.125000015646221,               147P    133
0.174999984353781,0.174999984353781,1.,1.,51.5,21.0000003129244,     147P    134
0.,54.5,21.,0.,-0.125000015646221,0.174999984353781,0.,0.,0.;        147P    135
126,1,1,0,0,1,0,-0.55,-0.55,0.249999968707562,0.249999968707562,     149P    136
1.,1.,51.5,29.,0.,51.5,21.0000003129244,0.,-0.55,                    149P    137
0.249999968707562,0.,0.,0.;                                          149P    138
126,8,2,0,1,0,0,-3.14159265358979,-3.14159265358979,                 151P    139
-3.14159265358979,-1.5707963267949,-1.5707963267949,0.,0.,           151P    140
1.5707963267949,1.5707963267949,3.14159265358979,                    151P    141
3.14159265358979,3.14159265358979,1.,0.707106781186542,1.,           151P    142
0.707106781186542,1.,0.707106781186542,1.,0.707106781186542,1.,      151P    143
52.,32.5,0.,52.,30.5,0.,54.,30.5,0.,56.,30.5,0.,56.,32.5,0.,56.,     151P    144
34.5,0.,54.,34.5,0.,52.,34.5,0.,52.,32.5,0.,-3.14159265358979,       151P    145
3.14159265358979,0.,0.,0.;                                           151P    146
126,8,2,0,1,0,0,-3.14159265358979,-3.14159265358979,                 153P    147
-3.14159265358979,-1.5707963267949,-1.5707963267949,0.,0.,           153P    148
1.5707963267949,1.5707963267949,3.14159265358979,                    153P    149
3.14159265358979,3.14159265358979,1.,0.707106781186551,1.,           153P    150
0.70710678118655,1.,0.707106781186549,1.,0.70710678118655,1.,        153P    151
52.,3.5,0.,52.,1.50000000000001,0.,54.,1.50000000000001,0.,56.,      153P    152
1.50000000000001,0.,56.,3.5,0.,56.,5.49999999999999,0.,54.,          153P    153
5.49999999999999,0.,52.,5.49999999999999,0.,52.,3.5,0.,              153P    154
-3.14159265358979,3.14159265358979,0.,0.,0.;                         153P    155
126,1,1,0,0,1,0,-0.6,-0.6,0.,0.,1.,1.,48.5,0.,-6.,48.5,0.,0.,        155P    156
-0.6,0.,0.,0.,0.;                                                    155P    157
126,1,1,0,0,1,0,0.,0.,0.6,0.6,1.,1.,48.5,36.,0.,48.5,36.,-6.,0.,     157P    158
0.6,0.,0.,0.;                                                        157P    159
126,1,1,0,0,1,0,18.,18.,21.,21.,1.,1.,52.,32.5,                      159P    160
-4.44089209850063D-15,52.,32.5,-6.,18.,21.,0.,0.,0.;                 159P    161
126,1,1,0,0,1,0,18.0000000000001,18.0000000000001,                   161P    162
21.0000000000001,21.0000000000001,1.,1.,52.,3.5,0.,52.,3.5,-6.,      161P    163
18.0000000000001,21.0000000000001,0.,0.,0.;                          161P    164
126,1,1,0,0,1,0,0.,0.,0.6,0.6,1.,1.,51.5,21.0000003129244,0.,        163P    165
51.5,21.0000003129244,-6.,0.,0.6,0.,0.,0.;                           163P    166
128,1,1,1,1,0,0,1,0,0,-0.75,-0.75,0.550000000000001,                 165P    167
0.550000000000001,-1.8,-1.8,1.8,1.8,1.,1.,1.,1.,61.5,0.,-6.,         165P    168
48.5,0.,-6.,61.5,36.,-6.,48.5,36.,-6.,-0.75,0.550000000000001,       165P    169
-1.8,1.8;                                                            165P    170
128,1,1,1,1,0,0,1,0,0,-0.6,-0.6,0.6,0.6,-0.800000000000001,          167P    171
-0.800000000000001,0.,0.,1.,1.,1.,1.,55.5,21.,-6.,55.5,21.,6.,       167P    172
55.5,29.,-6.,55.5,29.,6.,-0.6,0.6,-0.800000000000001,0.;             167P    173
128,1,1,1,1,0,0,1,0,0,-0.25,-0.25,0.35,0.35,-0.4,-0.4,0.4,0.4,       169P    174
1.,1.,1.,1.,55.5,21.,6.,61.5,21.,6.,55.5,29.,6.,61.5,29.,6.,         169P    175
-0.25,0.35,-0.4,0.4;                                                 169P    176
128,1,1,1,1,0,0,1,0,0,-0.6,-0.6,0.6,0.6,-3.6,-3.6,0.,0.,1.,1.,       171P    177
1.,1.,61.5,0.,6.,61.5,0.,-6.,61.5,36.,6.,61.5,36.,-6.,-0.6,0.6,      171P    178
-3.6,0.;                                                             171P    179
128,1,1,1,1,0,0,1,0,0,-0.2,-0.2,0.399999999999999,                   173P    180
0.399999999999999,0.,0.,0.6,0.6,1.,1.,1.,1.,61.5,29.,0.,55.5,        173P    181
29.,0.,61.5,29.,6.,55.5,29.,6.,-0.2,0.399999999999999,0.,0.6;        173P    182
128,1,1,1,1,0,0,1,0,0,-0.0999999999999996,-0.0999999999999996,       175P    183
0.5,0.5,0.,0.,0.6,0.6,1.,1.,1.,1.,55.5,21.,0.,61.5,21.,0.,55.5,      175P    184
21.,6.,61.5,21.,6.,-0.0999999999999996,0.5,0.,0.6;                   175P    185
128,1,1,1,1,0,0,1,0,0,-0.2,-0.2,0.4,0.4,0.,0.,0.100000000000001,     177P    186
0.100000000000001,1.,1.,1.,1.,54.5,21.,-6.,54.5,21.,0.,55.5,21.,     177P    187
-6.,55.5,21.,0.,-0.2,0.4,0.,0.100000000000001;                       177P    188
128,1,1,1,1,0,0,1,0,0,0.399999999999999,0.399999999999999,           179P    189
0.800000000000001,0.800000000000001,0.,0.,0.6,0.6,1.,1.,1.,1.,       179P    190
55.5,29.,0.,51.5,29.,0.,55.5,29.,-6.,51.5,29.,-6.,                   179P    191
0.399999999999999,0.800000000000001,0.,0.6;                          179P    192
128,1,1,1,1,0,0,1,0,0,-0.550000000000001,-0.550000000000001,         181P    193
0.75,0.75,-1.8,-1.8,1.8,1.8,1.,1.,1.,1.,48.5,0.,0.,61.5,0.,0.,       181P    194
48.5,36.,0.,61.5,36.,0.,-0.550000000000001,0.75,-1.8,1.8;            181P    195
128,1,1,1,1,0,0,1,0,0,-0.7,-0.7,0.6,0.6,0.,0.,0.6,0.6,1.,1.,1.,      183P    196
1.,61.5,0.,0.,48.5,0.,0.,61.5,0.,-6.,48.5,0.,-6.,-0.7,0.6,0.,        183P    197
0.6;                                                                 183P    198
128,1,1,1,1,0,0,1,0,0,0.,0.,3.6,3.6,0.,0.,0.6,0.6,1.,1.,1.,1.,       185P    199
48.5,0.,0.,48.5,36.,0.,48.5,0.,-6.,48.5,36.,-6.,0.,3.6,0.,0.6;       185P    200
128,1,8,1,2,0,1,0,0,1,18.,18.,21.,21.,-3.14159265358979,             187P    201
-3.14159265358979,-3.14159265358979,-1.5707963267949,                187P    202
-1.5707963267949,0.,0.,1.5707963267949,1.5707963267949,              187P    203
3.14159265358979,3.14159265358979,3.14159265358979,1.,1.,            187P    204
0.707106781186548,0.707106781186548,1.,1.,0.707106781186548,         187P    205
0.707106781186548,1.,1.,0.707106781186548,0.707106781186548,1.,      187P    206
1.,0.707106781186548,0.707106781186548,1.,1.,52.,32.5,               187P    207
-4.44089209850063D-15,52.,32.5,-6.,52.,34.5,                         187P    208
-4.44089209850063D-15,52.,34.5,-6.,54.,34.5,                         187P    209
-4.44089209850063D-15,54.,34.5,-6.,56.,34.5,                         187P    210
-4.44089209850063D-15,56.,34.5,-6.,56.,32.5,                         187P    211
-4.44089209850063D-15,56.,32.5,-6.,56.,30.5,                         187P    212
-4.44089209850063D-15,56.,30.5,-6.,54.,30.5,                         187P    213
-4.44089209850063D-15,54.,30.5,-6.,52.,30.5,                         187P    214
-4.44089209850063D-15,52.,30.5,-6.,52.,32.5,                         187P    215
-4.44089209850063D-15,52.,32.5,-6.,18.,21.,-3.14159265358979,        187P    216
3.14159265358979;                                                    187P    217
128,1,8,1,2,0,1,0,0,1,18.0000000000001,18.0000000000001,             189P    218
21.0000000000001,21.0000000000001,-3.14159265358979,                 189P    219
-3.14159265358979,-3.14159265358979,-1.5707963267949,                189P    220
-1.5707963267949,0.,0.,1.5707963267949,1.5707963267949,              189P    221
3.14159265358979,3.14159265358979,3.14159265358979,1.,1.,            189P    222
0.707106781186548,0.707106781186548,1.,1.,0.707106781186548,         189P    223
0.707106781186548,1.,1.,0.707106781186548,0.707106781186548,1.,      189P    224
1.,0.707106781186548,0.707106781186548,1.,1.,52.,3.5,0.,52.,3.5,     189P    225
-6.,52.,5.49999999999999,0.,52.,5.49999999999999,-6.,54.,            189P    226
5.49999999999999,0.,54.,5.49999999999999,-6.,56.,                    189P    227
5.49999999999999,0.,56.,5.49999999999999,-6.,56.,3.5,0.,56.,3.5,     189P    228
-6.,56.,1.50000000000001,0.,56.,1.50000000000001,-6.,54.,            189P    229
1.50000000000001,0.,54.,1.50000000000001,-6.,52.,                    189P    230
1.50000000000001,0.,52.,1.50000000000001,-6.,52.,3.5,0.,52.,3.5,     189P    231
-6.,18.0000000000001,21.0000000000001,-3.14159265358979,             189P    232
3.14159265358979;                                                    189P    233
128,1,1,1,1,0,0,1,0,0,0.,0.,0.300000000000003,0.300000000000003,     191P    234
0.,0.,0.6,0.6,1.,1.,1.,1.,51.5,21.0000003129244,0.,54.5,21.,0.,      191P    235
51.5,21.0000003129244,-6.,54.5,21.,-6.,0.,0.300000000000003,0.,      191P    236
0.6;                                                                 191P    237
128,1,1,1,1,0,0,1,0,0,0.,0.,0.799999968707562,0.799999968707562,     193P    238
0.,0.,0.6,0.6,1.,1.,1.,1.,51.5,29.,0.,51.5,21.0000003129244,0.,      193P    239
51.5,29.,-6.,51.5,21.0000003129244,-6.,0.,0.799999968707562,0.,      193P    240
0.6;                                                                 193P    241
128,1,1,1,1,0,0,1,0,0,0.,0.,1.3,1.3,0.,0.,0.6,0.6,1.,1.,1.,1.,       195P    242
48.5,36.,0.,61.5,36.,0.,48.5,36.,-6.,61.5,36.,-6.,0.,1.3,0.,0.6;     195P    243
502,28,61.5,0.,-6.,48.5,0.,-6.,48.5,36.,-6.,61.5,36.,-6.,52.,        197P    244
32.5,-6.,52.,3.5,-6.,55.5,21.,-6.,55.5,29.,-6.,51.5,29.,-6.,         197P    245
51.5,21.0000003129244,-6.,54.5,21.,-6.,55.5,29.,6.,55.5,29.,0.,      197P    246
55.5,21.,0.,55.5,21.,6.,61.5,21.,6.,61.5,29.,6.,61.5,21.,0.,         197P    247
61.5,0.,0.,61.5,36.,0.,61.5,29.,0.,54.5,21.,0.,51.5,29.,0.,48.5,     197P    248
36.,0.,48.5,0.,0.,51.5,21.0000003129244,0.,52.,32.5,0.,52.,3.5,      197P    249
0.;                                                                  197P    250
504,43,79,197,1,197,2,81,197,2,197,3,83,197,3,197,4,85,197,4,        199P    251
197,1,87,197,5,197,5,89,197,6,197,6,91,197,7,197,8,93,197,8,197,     199P    252
9,95,197,9,197,10,97,197,10,197,11,99,197,11,197,7,101,197,12,       199P    253
197,13,103,197,8,197,13,105,197,14,197,7,107,197,14,197,15,109,      199P    254
197,12,197,15,111,197,15,197,16,113,197,17,197,16,115,197,17,        199P    255
197,12,117,197,16,197,18,119,197,18,197,19,121,197,19,197,1,123,     199P    256
197,20,197,4,125,197,20,197,21,127,197,21,197,17,129,197,21,197,     199P    257
13,131,197,18,197,14,133,197,22,197,11,135,197,22,197,14,137,        199P    258
197,13,197,23,139,197,23,197,9,141,197,24,197,20,143,197,25,197,     199P    259
24,145,197,25,197,19,147,197,26,197,22,149,197,23,197,26,151,        199P    260
197,27,197,27,153,197,28,197,28,155,197,2,197,25,157,197,24,197,     199P    261
3,159,197,27,197,5,161,197,28,197,6,163,197,26,197,10;               199P    262
406,1,5HBody1;                                                       201P    263
314,62.7450980392157,62.7450980392157,62.7450980392157,13HSteel      203P    264
- Satin;                                                             203P    265
S      1G      2D    204P    265                                        T      1
