                                                                        S      1
,,6HClamp3,6HClamp3,7Hunknown,7Hunknown,32,38,7,99,15,,1.,2,2HMM,1,0.08,G      1
15H20150604.204718,0.01,10000.,7Hunknown,7Hunknown,11,0,;               G      2
     186       1                                                00000000D      1
     186            -219       1       0                               0D      2
     514       2                                                00010000D      3
     514                       2       1                               0D      4
     510       4                                                00010000D      5
     510            -219       1       1                               0D      6
     510       5                                                00010000D      7
     510            -219       1       1                               0D      8
     510       6                                                00010000D      9
     510            -219       1       1                               0D     10
     510       7                                                00010000D     11
     510            -219       1       1                               0D     12
     510       8                                                00010000D     13
     510            -219       1       1                               0D     14
     510       9                                                00010000D     15
     510            -219       1       1                               0D     16
     510      10                                                00010000D     17
     510            -219       1       1                               0D     18
     510      11                                                00010000D     19
     510            -219       1       1                               0D     20
     510      12                                                00010000D     21
     510            -219       1       1                               0D     22
     510      13                                                00010000D     23
     510            -219       1       1                               0D     24
     510      14                                                00010000D     25
     510            -219       1       1                               0D     26
     510      15                                                00010000D     27
     510            -219       1       1                               0D     28
     510      16                                                00010000D     29
     510            -219       1       1                               0D     30
     510      17                                                00010000D     31
     510            -219       1       1                               0D     32
     510      18                                                00010000D     33
     510            -219       1       1                               0D     34
     510      19                                                00010000D     35
     510            -219       1       1                               0D     36
     510      20                                                00010000D     37
     510            -219       1       1                               0D     38
     508      21                                                00010000D     39
     508                       1       1                               0D     40
     508      22                                                00010000D     41
     508                       1       1                               0D     42
     508      23                                                00010000D     43
     508                       2       1                               0D     44
     508      25                                                00010000D     45
     508                       1       1                               0D     46
     508      26                                                00010000D     47
     508                       2       1                               0D     48
     508      28                                                00010000D     49
     508                       2       1                               0D     50
     508      30                                                00010000D     51
     508                       1       1                               0D     52
     508      31                                                00010000D     53
     508                       1       1                               0D     54
     508      32                                                00010000D     55
     508                       3       1                               0D     56
     508      35                                                00010000D     57
     508                       1       1                               0D     58
     508      36                                                00010000D     59
     508                       1       1                               0D     60
     508      37                                                00010000D     61
     508                       1       1                               0D     62
     508      38                                                00010000D     63
     508                       1       1                               0D     64
     508      39                                                00010000D     65
     508                       2       1                               0D     66
     508      41                                                00010000D     67
     508                       2       1                               0D     68
     508      43                                                00010000D     69
     508                       2       1                               0D     70
     508      45                                                00010000D     71
     508                       1       1                               0D     72
     508      46                                                00010000D     73
     508                       1       1                               0D     74
     508      47                                                00010000D     75
     508                       1       1                               0D     76
     508      48                                                00010000D     77
     508                       1       1                               0D     78
     508      49                                                00010000D     79
     508                       1       1                               0D     80
     508      50                                                00010000D     81
     508                       1       1                               0D     82
     126      51                                                00010000D     83
     126       0               5       0                               0D     84
     126      56                                                00010000D     85
     126       0               2       0                               0D     86
     126      58                                                00010000D     87
     126       0               4       0                               0D     88
     126      62                                                00010000D     89
     126       0               3       0                               0D     90
     126      65                                                00010000D     91
     126       0               2       0                               0D     92
     126      67                                                00010000D     93
     126       0               2       0                               0D     94
     126      69                                                00010000D     95
     126       0               2       0                               0D     96
     126      71                                                00010000D     97
     126       0               2       0                               0D     98
     126      73                                                00010000D     99
     126       0               2       0                               0D    100
     126      75                                                00010000D    101
     126       0               2       0                               0D    102
     126      77                                                00010000D    103
     126       0               4       0                               0D    104
     126      81                                                00010000D    105
     126       0               2       0                               0D    106
     126      83                                                00010000D    107
     126       0               5       0                               0D    108
     126      88                                                00010000D    109
     126       0               2       0                               0D    110
     126      90                                                00010000D    111
     126       0               3       0                               0D    112
     126      93                                                00010000D    113
     126       0               2       0                               0D    114
     126      95                                                00010000D    115
     126       0               2       0                               0D    116
     126      97                                                00010000D    117
     126       0               2       0                               0D    118
     126      99                                                00010000D    119
     126       0               2       0                               0D    120
     126     101                                                00010000D    121
     126       0               2       0                               0D    122
     126     103                                                00010000D    123
     126       0               2       0                               0D    124
     126     105                                                00010000D    125
     126       0               2       0                               0D    126
     126     107                                                00010000D    127
     126       0               2       0                               0D    128
     126     109                                                00010000D    129
     126       0               2       0                               0D    130
     126     111                                                00010000D    131
     126       0               2       0                               0D    132
     126     113                                                00010000D    133
     126       0               3       0                               0D    134
     126     116                                                00010000D    135
     126       0               2       0                               0D    136
     126     118                                                00010000D    137
     126       0               2       0                               0D    138
     126     120                                                00010000D    139
     126       0               2       0                               0D    140
     126     122                                                00010000D    141
     126       0               2       0                               0D    142
     126     124                                                00010000D    143
     126       0               2       0                               0D    144
     126     126                                                00010000D    145
     126       0               5       0                               0D    146
     126     131                                                00010000D    147
     126       0               6       0                               0D    148
     126     137                                                00010000D    149
     126       0               5       0                               0D    150
     126     142                                                00010000D    151
     126       0               6       0                               0D    152
     126     148                                                00010000D    153
     126       0               2       0                               0D    154
     126     150                                                00010000D    155
     126       0               2       0                               0D    156
     126     152                                                00010000D    157
     126       0               2       0                               0D    158
     126     154                                                00010000D    159
     126       0               2       0                               0D    160
     126     156                                                00010000D    161
     126       0               2       0                               0D    162
     126     158                                                00010000D    163
     126       0               8       0                               0D    164
     126     166                                                00010000D    165
     126       0               2       0                               0D    166
     126     168                                                00010000D    167
     126       0               9       0                               0D    168
     126     177                                                00010000D    169
     126       0               2       0                               0D    170
     126     179                                                00010000D    171
     126       0               2       0                               0D    172
     126     181                                                00010000D    173
     126       0               2       0                               0D    174
     126     183                                                00010000D    175
     126       0               2       0                               0D    176
     126     185                                                00010000D    177
     126       0               2       0                               0D    178
     128     187                                                00010000D    179
     128       0    -219       7       0                               0D    180
     128     194                                                00010000D    181
     128       0    -219       3       0                               0D    182
     128     197                                                00010000D    183
     128       0    -219       3       0                               0D    184
     128     200                                                00010000D    185
     128       0    -219       6       0                               0D    186
     128     206                                                00010000D    187
     128       0    -219       3       0                               0D    188
     128     209                                                00010000D    189
     128       0    -219       3       0                               0D    190
     128     212                                                00010000D    191
     128       0    -219       4       0                               0D    192
     128     216                                                00010000D    193
     128       0    -219       3       0                               0D    194
     128     219                                                00010000D    195
     128       0    -219       3       0                               0D    196
     128     222                                                00010000D    197
     128       0    -219       2       0                               0D    198
     128     224                                                00010000D    199
     128       0    -219       2       0                               0D    200
     128     226                                                00010000D    201
     128       0    -219      12       0                               0D    202
     128     238                                                00010000D    203
     128       0    -219      13       0                               0D    204
     128     251                                                00010000D    205
     128       0    -219       3       0                               0D    206
     128     254                                                00010000D    207
     128       0    -219       2       0                               0D    208
     128     256                                                00010000D    209
     128       0    -219       2       0                               0D    210
     128     258                                                00010000D    211
     128       0    -219       3       0                               0D    212
     502     261                                                00010000D    213
     502                       7       1                               0D    214
     504     268                                                00010001D    215
     504                      14       1                               0D    216
     406     282                                                00000000D    217
     406                       1      15                               0D    218
     314     283                                                00000200D    219
     314                       2       0                               0D    220
186,3,1,0,0,1,217;                                                     1P      1
514,17,5,1,7,1,9,1,11,1,13,1,15,1,17,1,19,1,21,1,23,1,25,1,27,1,       3P      2
29,1,31,1,33,1,35,1,37,1;                                              3P      3
510,179,1,1,39;                                                        5P      4
510,181,1,1,41;                                                        7P      5
510,183,1,1,43;                                                        9P      6
510,185,1,1,45;                                                       11P      7
510,187,1,1,47;                                                       13P      8
510,189,1,1,49;                                                       15P      9
510,191,1,1,51;                                                       17P     10
510,193,1,1,53;                                                       19P     11
510,195,3,1,55,57,59;                                                 21P     12
510,197,1,1,61;                                                       23P     13
510,199,1,1,63;                                                       25P     14
510,201,1,1,65;                                                       27P     15
510,203,1,1,67;                                                       29P     16
510,205,1,1,69;                                                       31P     17
510,207,1,1,71;                                                       33P     18
510,209,1,1,73;                                                       35P     19
510,211,4,1,75,77,79,81;                                              37P     20
508,4,0,215,1,1,0,0,215,2,1,0,0,215,3,1,0,0,215,4,1,0;                39P     21
508,4,0,215,2,0,0,0,215,5,1,0,0,215,6,0,0,0,215,7,0,0;                41P     22
508,6,0,215,1,0,0,0,215,8,0,0,0,215,9,1,0,0,215,10,0,0,0,215,11,      43P     23
0,0,0,215,5,0,0;                                                      43P     24
508,4,0,215,11,1,0,0,215,12,1,0,0,215,13,1,0,0,215,6,1,0;             45P     25
508,6,0,215,3,0,0,0,215,7,1,0,0,215,13,0,0,0,215,14,0,0,0,215,        47P     26
15,0,0,0,215,16,1,0;                                                  47P     27
508,6,0,215,12,0,0,0,215,10,1,0,0,215,17,0,0,0,215,18,1,0,0,215,      49P     28
19,0,0,0,215,14,1,0;                                                  49P     29
508,4,0,215,19,1,0,0,215,20,0,0,0,215,21,0,0,0,215,22,1,0;            51P     30
508,4,0,215,17,1,0,0,215,23,1,0,0,215,24,0,0,0,215,25,0,0;            53P     31
508,10,0,215,9,0,0,0,215,26,0,0,0,215,27,0,0,0,215,28,0,0,0,215,      55P     32
29,0,0,0,215,30,0,0,0,215,15,1,0,0,215,22,0,0,0,215,31,0,0,0,         55P     33
215,23,0,0;                                                           55P     34
508,2,0,215,32,0,0,0,215,33,0,0;                                      57P     35
508,2,0,215,34,0,0,0,215,35,0,0;                                      59P     36
508,4,0,215,29,1,0,0,215,36,1,0,0,215,37,0,0,0,215,38,0,0;            61P     37
508,4,0,215,28,1,0,0,215,39,1,0,0,215,40,0,0,0,215,36,0,0;            63P     38
508,5,0,215,41,0,0,0,215,42,1,0,0,215,33,1,0,0,215,32,1,0,0,215,      65P     39
42,0,0;                                                               65P     40
508,5,0,215,43,0,0,0,215,44,1,0,0,215,35,1,0,0,215,34,1,0,0,215,      67P     41
44,0,0;                                                               67P     42
508,8,0,215,4,0,0,0,215,16,0,0,0,215,30,1,0,0,215,38,1,0,0,215,       69P     43
45,0,0,0,215,46,0,0,0,215,26,1,0,0,215,8,1,0;                         69P     44
508,4,0,215,27,1,0,0,215,46,1,0,0,215,47,0,0,0,215,39,0,0;            71P     45
508,4,0,215,31,1,0,0,215,21,1,0,0,215,48,0,0,0,215,24,1,0;            73P     46
508,4,0,215,45,1,0,0,215,37,1,0,0,215,40,1,0,0,215,47,1,0;            75P     47
508,1,0,215,41,1,0;                                                   77P     48
508,1,0,215,43,1,0;                                                   79P     49
508,4,0,215,18,0,0,0,215,25,1,0,0,215,48,1,0,0,215,20,1,0;            81P     50
126,2,2,0,0,0,0,-0.785398163397449,-0.785398163397449,                83P     51
-0.785398163397449,0.785398163397447,0.785398163397447,               83P     52
0.785398163397447,1.,0.707106781186553,1.,-5.5,29.,29.5,-5.5,         83P     53
29.,28.,-4.,29.,28.,-0.785398163397449,0.785398163397447,0.,0.,       83P     54
0.;                                                                   83P     55
126,1,1,0,0,1,0,0.149999999999999,0.149999999999999,0.95,0.95,        85P     56
1.,1.,-4.,29.,28.,-4.,21.,28.,0.149999999999999,0.95,0.,0.,0.;        85P     57
126,2,2,0,0,0,0,-0.785398163397447,-0.785398163397447,                87P     58
-0.785398163397447,0.785398163397449,0.785398163397449,               87P     59
0.785398163397449,1.,0.707106781186553,1.,-4.,21.,28.,-5.5,21.,       87P     60
28.,-5.5,21.,29.5,-0.785398163397447,0.785398163397449,0.,0.,0.;      87P     61
126,1,1,0,0,1,0,-0.949999999999999,-0.949999999999999,                89P     62
-0.149999999999999,-0.149999999999999,1.,1.,-5.5,21.,29.5,-5.5,       89P     63
29.,29.5,-0.949999999999999,-0.149999999999999,0.,0.,0.;              89P     64
126,1,1,0,0,1,0,-0.15,-0.15,-0.05,-0.05,1.,1.,-4.,29.,28.,-3.,        91P     65
29.,28.,-0.15,-0.05,0.,0.,0.;                                         91P     66
126,1,1,0,0,1,0,-0.6,-0.6,0.2,0.2,1.,1.,-3.,21.,28.,-3.,29.,28.,      93P     67
-0.6,0.2,0.,0.,0.;                                                    93P     68
126,1,1,0,0,1,0,-0.15,-0.15,-0.05,-0.05,1.,1.,-4.,21.,28.,-3.,        95P     69
21.,28.,-0.15,-0.05,0.,0.,0.;                                         95P     70
126,1,1,0,0,1,0,0.,0.,0.25,0.25,1.,1.,-5.5,29.,32.,-5.5,29.,          97P     71
29.5,0.,0.25,0.,0.,0.;                                                97P     72
126,1,1,0,0,1,0,-0.275,-0.275,0.125,0.125,1.,1.,-5.5,29.,32.,         99P     73
-1.5,29.,32.,-0.275,0.125,0.,0.,0.;                                   99P     74
126,1,1,0,0,1,0,-0.25,-0.25,0.,0.,1.,1.,-1.5,29.,29.5,-1.5,29.,      101P     75
32.,-0.25,0.,0.,0.,0.;                                               101P     76
126,2,2,0,0,0,0,-0.785398163397447,-0.785398163397447,               103P     77
-0.785398163397447,0.785398163397449,0.785398163397449,              103P     78
0.785398163397449,1.,0.707106781186553,1.,-3.,29.,28.,-1.5,29.,      103P     79
28.,-1.5,29.,29.5,-0.785398163397447,0.785398163397449,0.,0.,0.;     103P     80
126,1,1,0,0,1,0,-0.2,-0.2,0.6,0.6,1.,1.,-1.5,29.,29.5,-1.5,21.,      105P     81
29.5,-0.2,0.6,0.,0.,0.;                                              105P     82
126,2,2,0,0,0,0,-0.785398163397449,-0.785398163397449,               107P     83
-0.785398163397449,0.785398163397447,0.785398163397447,              107P     84
0.785398163397447,1.,0.707106781186553,1.,-1.5,21.,29.5,-1.5,        107P     85
21.,28.,-3.,21.,28.,-0.785398163397449,0.785398163397447,0.,0.,      107P     86
0.;                                                                  107P     87
126,1,1,0,0,1,0,0.,0.,0.25,0.25,1.,1.,-1.5,21.,32.,-1.5,21.,         109P     88
29.5,0.,0.25,0.,0.,0.;                                               109P     89
126,1,1,0,0,1,0,-0.425,-0.425,-0.0250000000000001,                   111P     90
-0.0250000000000001,1.,1.,-5.5,21.,32.,-1.5,21.,32.,-0.425,          111P     91
-0.0250000000000001,0.,0.,0.;                                        111P     92
126,1,1,0,0,1,0,0.,0.,0.25,0.25,1.,1.,-5.5,21.,32.,-5.5,21.,         113P     93
29.5,0.,0.25,0.,0.,0.;                                               113P     94
126,1,1,0,0,1,0,-0.4,-0.4,0.,0.,1.,1.,-1.5,29.,36.,-1.5,29.,32.,     115P     95
-0.4,0.,0.,0.,0.;                                                    115P     96
126,1,1,0,0,1,0,0.,0.,0.8,0.8,1.,1.,-1.5,29.,36.,-1.5,21.,36.,       117P     97
0.,0.8,0.,0.,0.;                                                     117P     98
126,1,1,0,0,1,0,0.,0.,0.4,0.4,1.,1.,-1.5,21.,32.,-1.5,21.,36.,       119P     99
0.,0.4,0.,0.,0.;                                                     119P    100
126,1,1,0,0,1,0,0.,0.,0.4,0.4,1.,1.,2.5,21.,36.,-1.5,21.,36.,0.,     121P    101
0.4,0.,0.,0.;                                                        121P    102
126,1,1,0,0,1,0,0.,0.,0.4,0.4,1.,1.,2.5,21.,32.,2.5,21.,36.,0.,      123P    103
0.4,0.,0.,0.;                                                        123P    104
126,1,1,0,0,1,0,-0.125,-0.125,0.275,0.275,1.,1.,2.5,21.,32.,         125P    105
-1.5,21.,32.,-0.125,0.275,0.,0.,0.;                                  125P    106
126,1,1,0,0,1,0,0.125,0.125,0.525,0.525,1.,1.,-1.5,29.,32.,2.5,      127P    107
29.,32.,0.125,0.525,0.,0.,0.;                                        127P    108
126,1,1,0,0,1,0,-0.4,-0.4,0.,0.,1.,1.,2.5,29.,36.,2.5,29.,32.,       129P    109
-0.4,0.,0.,0.,0.;                                                    129P    110
126,1,1,0,0,1,0,0.4,0.4,0.8,0.8,1.,1.,-1.5,29.,36.,2.5,29.,36.,      131P    111
0.4,0.8,0.,0.,0.;                                                    131P    112
126,1,1,0,0,1,0,-0.9,-0.9,-0.200000000000001,-0.200000000000001,     133P    113
1.,1.,-5.5,36.,32.,-5.5,29.,32.,-0.9,-0.200000000000001,0.,0.,       133P    114
0.;                                                                  133P    115
126,1,1,0,0,1,0,-0.275,-0.275,0.825,0.825,1.,1.,5.5,36.,32.,         135P    116
-5.5,36.,32.,-0.275,0.825,0.,0.,0.;                                  135P    117
126,1,1,0,0,1,0,-0.9,-0.9,2.7,2.7,1.,1.,5.5,0.,32.,5.5,36.,32.,      137P    118
-0.9,2.7,0.,0.,0.;                                                   137P    119
126,1,1,0,0,1,0,-0.275,-0.275,0.825,0.825,1.,1.,-5.5,0.,32.,5.5,     139P    120
0.,32.,-0.275,0.825,0.,0.,0.;                                        139P    121
126,1,1,0,0,1,0,0.599999999999999,0.599999999999999,2.7,2.7,1.,      141P    122
1.,-5.5,21.,32.,-5.5,0.,32.,0.599999999999999,2.7,0.,0.,0.;          141P    123
126,1,1,0,0,1,0,-0.55,-0.55,0.25,0.25,1.,1.,2.5,29.,32.,2.5,21.,     143P    124
32.,-0.55,0.25,0.,0.,0.;                                             143P    125
126,4,2,0,0,0,0,0.,0.,0.,1.5707963267949,1.5707963267949,            145P    126
3.14159265358979,3.14159265358979,3.14159265358979,1.,               145P    127
0.707106781186548,1.,0.707106781186548,1.,2.,3.5,32.,2.,1.5,32.,     145P    128
-9.87758344710421D-16,1.5,32.,-2.,1.5,32.,-2.,3.5,32.,0.,            145P    129
3.14159265358979,0.,0.,0.;                                           145P    130
126,4,2,0,0,0,0,3.14159265358979,3.14159265358979,                   147P    131
3.14159265358979,4.71238898038469,4.71238898038469,                  147P    132
6.28318530717959,6.28318530717959,6.28318530717959,1.,               147P    133
0.707106781186548,1.,0.707106781186548,1.,-2.,3.5,32.,-2.,5.5,       147P    134
32.,-1.47761706436936D-15,5.5,32.,2.,5.5,32.,2.,3.5,32.,             147P    135
3.14159265358979,6.28318530717959,0.,0.,0.;                          147P    136
126,4,2,0,0,0,0,0.,0.,0.,1.5707963267949,1.5707963267949,            149P    137
3.14159265358979,3.14159265358979,3.14159265358979,1.,               149P    138
0.707106781186542,1.,0.707106781186548,1.,2.,32.5,32.,2.,30.5,       149P    139
32.,-9.87758344710421D-16,30.5,32.,-2.,30.5,32.,-2.,32.5,32.,0.,     149P    140
3.14159265358979,0.,0.,0.;                                           149P    141
126,4,2,0,0,0,0,3.14159265358979,3.14159265358979,                   151P    142
3.14159265358979,4.71238898038469,4.71238898038469,                  151P    143
6.28318530717959,6.28318530717959,6.28318530717959,1.,               151P    144
0.707106781186542,1.,0.707106781186548,1.,-2.,32.5,32.,-2.,34.5,     151P    145
32.,-1.47761706436936D-15,34.5,32.,2.,34.5,32.,2.,32.5,32.,          151P    146
3.14159265358979,6.28318530717959,0.,0.,0.;                          151P    147
126,1,1,0,0,1,0,0.,0.,0.4,0.4,1.,1.,5.5,0.,32.,5.5,0.,36.,0.,        153P    148
0.4,0.,0.,0.;                                                        153P    149
126,1,1,0,0,1,0,0.,0.,1.1,1.1,1.,1.,-5.5,0.,36.,5.5,0.,36.,0.,       155P    150
1.1,0.,0.,0.;                                                        155P    151
126,1,1,0,0,1,0,0.,0.,0.4,0.4,1.,1.,-5.5,0.,32.,-5.5,0.,36.,0.,      157P    152
0.4,0.,0.,0.;                                                        157P    153
126,1,1,0,0,1,0,0.,0.,0.4,0.4,1.,1.,5.5,36.,32.,5.5,36.,36.,0.,      159P    154
0.4,0.,0.,0.;                                                        159P    155
126,1,1,0,0,1,0,0.,0.,3.6,3.6,1.,1.,5.5,0.,36.,5.5,36.,36.,0.,       161P    156
3.6,0.,0.,0.;                                                        161P    157
126,8,2,0,1,0,0,-3.14159265358979,-3.14159265358979,                 163P    158
-3.14159265358979,-1.5707963267949,-1.5707963267949,0.,0.,           163P    159
1.5707963267949,1.5707963267949,3.14159265358979,                    163P    160
3.14159265358979,3.14159265358979,1.,0.707106781186548,1.,           163P    161
0.707106781186547,1.,0.707106781186548,1.,0.707106781186548,1.,      163P    162
-2.,3.5,36.,-2.,5.5,36.,-9.87758344710421D-16,5.5,36.,2.,5.5,        163P    163
36.,2.,3.5,36.,2.,1.5,36.,-9.87758344710421D-16,1.5,36.,-2.,1.5,     163P    164
36.,-2.,3.5,36.,-3.14159265358979,3.14159265358979,0.,0.,0.;         163P    165
126,1,1,0,0,1,0,0.,0.,2.,2.,1.,1.,-2.,3.5,36.,-2.,3.5,32.,0.,2.,     165P    166
0.,0.,0.;                                                            165P    167
126,8,2,0,1,0,0,-3.14159265358979,-3.14159265358979,                 167P    168
-3.14159265358979,-1.5707963267949,-1.5707963267949,0.,0.,           167P    169
1.5707963267949,1.5707963267949,3.14159265358979,                    167P    170
3.14159265358979,3.14159265358979,1.,0.707106781186548,1.,           167P    171
0.707106781186542,1.,0.707106781186542,1.,0.707106781186548,1.,      167P    172
-2.,32.5,36.,-2.,34.5,36.,-9.87758344710421D-16,34.5,36.,2.,         167P    173
34.5,36.,2.,32.5,36.,2.,30.5,36.,-9.87758344710421D-16,30.5,36.,     167P    174
-2.,30.5,36.,-2.,32.5,36.,-3.14159265358979,3.14159265358979,0.,     167P    175
0.,0.;                                                               167P    176
126,1,1,0,0,1,0,0.,0.,2.,2.,1.,1.,-2.,32.5,36.,-2.,32.5,32.,0.,      169P    177
2.,0.,0.,0.;                                                         169P    178
126,1,1,0,0,1,0,0.,0.,3.6,3.6,1.,1.,-5.5,36.,36.,-5.5,0.,36.,0.,     171P    179
3.6,0.,0.,0.;                                                        171P    180
126,1,1,0,0,1,0,0.,0.,0.4,0.4,1.,1.,-5.5,36.,32.,-5.5,36.,36.,       173P    181
0.,0.4,0.,0.,0.;                                                     173P    182
126,1,1,0,0,1,0,0.,0.,1.1,1.1,1.,1.,5.5,36.,36.,-5.5,36.,36.,0.,     175P    183
1.1,0.,0.,0.;                                                        175P    184
126,1,1,0,0,1,0,0.,0.,0.8,0.8,1.,1.,2.5,29.,36.,2.5,21.,36.,0.,      177P    185
0.8,0.,0.,0.;                                                        177P    186
128,1,2,1,2,0,0,0,0,0,-6.33333333333333,-6.33333333333333,           179P    187
-0.999999999999996,-0.999999999999996,-0.785398163397447,            179P    188
-0.785398163397447,-0.785398163397447,0.785398163397449,             179P    189
0.785398163397449,0.785398163397449,1.,1.,0.707106781186548,         179P    190
0.707106781186548,1.,1.,-4.,29.,28.,-4.,21.,28.,-5.5,29.,28.,        179P    191
-5.5,21.,28.,-5.5,29.,29.5,-5.5,21.,29.5,-6.33333333333333,          179P    192
-0.999999999999996,-0.785398163397447,0.785398163397449;             179P    193
128,1,1,1,1,0,0,1,0,0,-0.1,-0.1,0.,0.,-0.4,-0.4,0.4,0.4,1.,1.,       181P    194
1.,1.,-3.,21.,28.,-4.,21.,28.,-3.,29.,28.,-4.,29.,28.,-0.1,0.,       181P    195
-0.4,0.4;                                                            181P    196
128,1,1,1,1,0,0,1,0,0,0.,0.,0.4,0.4,0.,0.,0.4,0.4,1.,1.,1.,1.,       183P    197
-5.5,29.,32.,-1.5,29.,32.,-5.5,29.,28.,-1.5,29.,28.,0.,0.4,0.,       183P    198
0.4;                                                                 183P    199
128,1,2,1,2,0,0,0,0,0,-4.,-4.,1.33333333333333,1.33333333333333,     185P    200
-0.785398163397449,-0.785398163397449,-0.785398163397449,            185P    201
0.785398163397447,0.785398163397447,0.785398163397447,1.,1.,         185P    202
0.707106781186548,0.707106781186548,1.,1.,-1.5,29.,29.5,-1.5,        185P    203
21.,29.5,-1.5,29.,28.,-1.5,21.,28.,-3.,29.,28.,-3.,21.,28.,-4.,      185P    204
1.33333333333333,-0.785398163397449,0.785398163397447;               185P    205
128,1,1,1,1,0,0,1,0,0,-0.1,-0.1,0.3,0.3,0.,0.,0.4,0.4,1.,1.,1.,      187P    206
1.,-1.5,21.,32.,-5.5,21.,32.,-1.5,21.,28.,-5.5,21.,28.,-0.1,0.3,     187P    207
0.,0.4;                                                              187P    208
128,1,1,1,1,0,0,1,0,0,-0.4,-0.4,0.25,0.25,-0.8,-0.8,0.,0.,1.,1.,     189P    209
1.,1.,-1.5,21.,36.,-1.5,21.,29.5,-1.5,29.,36.,-1.5,29.,29.5,         189P    210
-0.4,0.25,-0.8,0.;                                                   189P    211
128,1,1,1,1,0,0,1,0,0,-2.77555756156289D-17,                         191P    212
-2.77555756156289D-17,0.4,0.4,0.,0.,0.4,0.4,1.,1.,1.,1.,2.5,21.,     191P    213
32.,-1.5,21.,32.,2.5,21.,36.,-1.5,21.,36.,-2.77555756156289D-17,     191P    214
0.4,0.,0.4;                                                          191P    215
128,1,1,1,1,0,0,1,0,0,0.4,0.4,0.8,0.8,0.,0.,0.4,0.4,1.,1.,1.,1.,     193P    216
-1.5,29.,32.,2.5,29.,32.,-1.5,29.,36.,2.5,29.,36.,0.4,0.8,0.,        193P    217
0.4;                                                                 193P    218
128,1,1,1,1,0,0,1,0,0,-0.55,-0.55,0.55,0.55,-1.8,-1.8,1.8,1.8,       195P    219
1.,1.,1.,1.,5.5,0.,32.,-5.5,0.,32.,5.5,36.,32.,-5.5,36.,32.,         195P    220
-0.55,0.55,-1.8,1.8;                                                 195P    221
128,1,1,1,1,0,0,1,0,0,0.,0.,1.1,1.1,0.,0.,0.4,0.4,1.,1.,1.,1.,       197P    222
-5.5,0.,32.,5.5,0.,32.,-5.5,0.,36.,5.5,0.,36.,0.,1.1,0.,0.4;         197P    223
128,1,1,1,1,0,0,1,0,0,0.,0.,3.6,3.6,0.,0.,0.4,0.4,1.,1.,1.,1.,       199P    224
5.5,0.,32.,5.5,36.,32.,5.5,0.,36.,5.5,36.,36.,0.,3.6,0.,0.4;         199P    225
128,1,8,1,2,0,1,0,0,1,0.,0.,2.,2.,-3.14159265358979,                 201P    226
-3.14159265358979,-3.14159265358979,-1.5707963267949,                201P    227
-1.5707963267949,0.,0.,1.5707963267949,1.5707963267949,              201P    228
3.14159265358979,3.14159265358979,3.14159265358979,1.,1.,            201P    229
0.707106781186548,0.707106781186548,1.,1.,0.707106781186548,         201P    230
0.707106781186548,1.,1.,0.707106781186548,0.707106781186548,1.,      201P    231
1.,0.707106781186548,0.707106781186548,1.,1.,-2.,3.5,36.,-2.,        201P    232
3.5,32.,-2.,5.5,36.,-2.,5.5,32.,-1.11022302462516D-15,5.5,36.,       201P    233
-1.11022302462516D-15,5.5,32.,2.,5.5,36.,2.,5.5,32.,2.,3.5,36.,      201P    234
2.,3.5,32.,2.,1.5,36.,2.,1.5,32.,-1.11022302462516D-15,1.5,36.,      201P    235
-1.11022302462516D-15,1.5,32.,-2.,1.5,36.,-2.,1.5,32.,-2.,3.5,       201P    236
36.,-2.,3.5,32.,0.,2.,-3.14159265358979,3.14159265358979;            201P    237
128,1,8,1,2,0,1,0,0,1,0.,0.,2.,2.,-3.14159265358979,                 203P    238
-3.14159265358979,-3.14159265358979,-1.5707963267949,                203P    239
-1.5707963267949,0.,0.,1.5707963267949,1.5707963267949,              203P    240
3.14159265358979,3.14159265358979,3.14159265358979,1.,1.,            203P    241
0.707106781186548,0.707106781186548,1.,1.,0.707106781186548,         203P    242
0.707106781186548,1.,1.,0.707106781186548,0.707106781186548,1.,      203P    243
1.,0.707106781186548,0.707106781186548,1.,1.,-2.,32.5,36.,-2.,       203P    244
32.5,32.,-2.,34.5,36.,-2.,34.5,32.,-1.11022302462516D-15,34.5,       203P    245
36.,-1.11022302462516D-15,34.5,32.,2.,34.5,36.,2.,34.5,32.,2.,       203P    246
32.5,36.,2.,32.5,32.,2.,30.5,36.,2.,30.5,32.,                        203P    247
-1.11022302462516D-15,30.5,36.,-1.11022302462516D-15,30.5,32.,       203P    248
-2.,30.5,36.,-2.,30.5,32.,-2.,32.5,36.,-2.,32.5,32.,0.,2.,           203P    249
-3.14159265358979,3.14159265358979;                                  203P    250
128,1,1,1,1,0,0,1,0,0,0.,0.,3.6,3.6,-0.25,-0.25,0.4,0.4,1.,1.,       205P    251
1.,1.,-5.5,36.,29.5,-5.5,0.,29.5,-5.5,36.,36.,-5.5,0.,36.,0.,        205P    252
3.6,-0.25,0.4;                                                       205P    253
128,1,1,1,1,0,0,1,0,0,0.,0.,1.1,1.1,0.,0.,0.4,0.4,1.,1.,1.,1.,       207P    254
5.5,36.,32.,-5.5,36.,32.,5.5,36.,36.,-5.5,36.,36.,0.,1.1,0.,0.4;     207P    255
128,1,1,1,1,0,0,1,0,0,0.,0.,0.8,0.8,0.,0.,0.4,0.4,1.,1.,1.,1.,       209P    256
2.5,29.,32.,2.5,21.,32.,2.5,29.,36.,2.5,21.,36.,0.,0.8,0.,0.4;       209P    257
128,1,1,1,1,0,0,1,0,0,-0.55,-0.55,0.55,0.55,-1.8,-1.8,1.8,1.8,       211P    258
1.,1.,1.,1.,-5.5,0.,36.,5.5,0.,36.,-5.5,36.,36.,5.5,36.,36.,         211P    259
-0.55,0.55,-1.8,1.8;                                                 211P    260
502,32,-5.5,29.,29.5,-4.,29.,28.,-4.,21.,28.,-5.5,21.,29.5,-3.,      213P    261
29.,28.,-3.,21.,28.,-5.5,29.,32.,-1.5,29.,32.,-1.5,29.,29.5,         213P    262
-1.5,21.,29.5,-1.5,21.,32.,-5.5,21.,32.,-1.5,29.,36.,-1.5,21.,       213P    263
36.,2.5,21.,36.,2.5,21.,32.,2.5,29.,32.,2.5,29.,36.,-5.5,36.,        213P    264
32.,5.5,36.,32.,5.5,0.,32.,-5.5,0.,32.,2.,3.5,32.,-2.,3.5,32.,       213P    265
2.,32.5,32.,-2.,32.5,32.,5.5,0.,36.,-5.5,0.,36.,5.5,36.,36.,-2.,     213P    266
3.5,36.,-2.,32.5,36.,-5.5,36.,36.;                                   213P    267
504,48,83,213,1,213,2,85,213,2,213,3,87,213,3,213,4,89,213,4,        215P    268
213,1,91,213,2,213,5,93,213,6,213,5,95,213,3,213,6,97,213,7,213,     215P    269
1,99,213,7,213,8,101,213,9,213,8,103,213,5,213,9,105,213,9,213,      215P    270
10,107,213,10,213,6,109,213,11,213,10,111,213,12,213,11,113,213,     215P    271
12,213,4,115,213,13,213,8,117,213,13,213,14,119,213,11,213,14,       215P    272
121,213,15,213,14,123,213,16,213,15,125,213,16,213,11,127,213,8,     215P    273
213,17,129,213,18,213,17,131,213,13,213,18,133,213,19,213,7,135,     215P    274
213,20,213,19,137,213,21,213,20,139,213,22,213,21,141,213,12,        215P    275
213,22,143,213,17,213,16,145,213,23,213,24,147,213,24,213,23,        215P    276
149,213,25,213,26,151,213,26,213,25,153,213,21,213,27,155,213,       215P    277
28,213,27,157,213,22,213,28,159,213,20,213,29,161,213,27,213,29,     215P    278
163,213,30,213,30,165,213,30,213,24,167,213,31,213,31,169,213,       215P    279
31,213,26,171,213,32,213,28,173,213,19,213,32,175,213,29,213,32,     215P    280
177,213,18,213,15;                                                   215P    281
406,1,5HBody1;                                                       217P    282
314,62.7450980392157,62.7450980392157,62.7450980392157,13HSteel      219P    283
- Satin;                                                             219P    284
S      1G      2D    220P    284                                        T      1
