                                                                        S      1
,,6HClamp4,6HClamp4,7Hunknown,7Hunknown,32,38,7,99,15,,1.,2,2HMM,1,0.08,G      1
15H20150604.232044,0.01,10000.,7Hunknown,7Hunknown,11,0,;               G      2
     186       1                                                00000000D      1
     186            -291       1       0                               0D      2
     514       2                                                00010000D      3
     514                       2       1                               0D      4
     510       4                                                00010000D      5
     510            -291       1       1                               0D      6
     510       5                                                00010000D      7
     510            -291       1       1                               0D      8
     510       6                                                00010000D      9
     510            -291       1       1                               0D     10
     510       7                                                00010000D     11
     510            -291       1       1                               0D     12
     510       8                                                00010000D     13
     510            -291       1       1                               0D     14
     510       9                                                00010000D     15
     510            -291       1       1                               0D     16
     510      10                                                00010000D     17
     510            -291       1       1                               0D     18
     510      11                                                00010000D     19
     510            -291       1       1                               0D     20
     510      12                                                00010000D     21
     510            -291       1       1                               0D     22
     510      13                                                00010000D     23
     510            -291       1       1                               0D     24
     510      14                                                00010000D     25
     510            -291       1       1                               0D     26
     510      15                                                00010000D     27
     510            -291       1       1                               0D     28
     510      16                                                00010000D     29
     510            -291       1       1                               0D     30
     510      17                                                00010000D     31
     510            -291       1       1                               0D     32
     510      18                                                00010000D     33
     510            -291       1       1                               0D     34
     510      19                                                00010000D     35
     510            -291       1       1                               0D     36
     510      20                                                00010000D     37
     510            -291       1       1                               0D     38
     510      21                                                00010000D     39
     510            -291       1       1                               0D     40
     510      22                                                00010000D     41
     510            -291       1       1                               0D     42
     510      23                                                00010000D     43
     510            -291       1       1                               0D     44
     510      24                                                00010000D     45
     510            -291       1       1                               0D     46
     510      25                                                00010000D     47
     510            -291       1       1                               0D     48
     510      26                                                00010000D     49
     510            -291       1       1                               0D     50
     508      27                                                00010000D     51
     508                       1       1                               0D     52
     508      28                                                00010000D     53
     508                       1       1                               0D     54
     508      29                                                00010000D     55
     508                       1       1                               0D     56
     508      30                                                00010000D     57
     508                       2       1                               0D     58
     508      32                                                00010000D     59
     508                       1       1                               0D     60
     508      33                                                00010000D     61
     508                       1       1                               0D     62
     508      34                                                00010000D     63
     508                       1       1                               0D     64
     508      35                                                00010000D     65
     508                       1       1                               0D     66
     508      36                                                00010000D     67
     508                       2       1                               0D     68
     508      38                                                00010000D     69
     508                       1       1                               0D     70
     508      39                                                00010000D     71
     508                       1       1                               0D     72
     508      40                                                00010000D     73
     508                       2       1                               0D     74
     508      42                                                00010000D     75
     508                       1       1                               0D     76
     508      43                                                00010000D     77
     508                       3       1                               0D     78
     508      46                                                00010000D     79
     508                       2       1                               0D     80
     508      48                                                00010000D     81
     508                       1       1                               0D     82
     508      49                                                00010000D     83
     508                       1       1                               0D     84
     508      50                                                00010000D     85
     508                       2       1                               0D     86
     508      52                                                00010000D     87
     508                       3       1                               0D     88
     508      55                                                00010000D     89
     508                       1       1                               0D     90
     508      56                                                00010000D     91
     508                       1       1                               0D     92
     508      57                                                00010000D     93
     508                       1       1                               0D     94
     508      58                                                00010000D     95
     508                       1       1                               0D     96
     508      59                                                00010000D     97
     508                       1       1                               0D     98
     508      60                                                00010000D     99
     508                       2       1                               0D    100
     508      62                                                00010000D    101
     508                       2       1                               0D    102
     508      64                                                00010000D    103
     508                       1       1                               0D    104
     508      65                                                00010000D    105
     508                       1       1                               0D    106
     126      66                                                00010000D    107
     126       0               2       0                               0D    108
     126      68                                                00010000D    109
     126       0               2       0                               0D    110
     126      70                                                00010000D    111
     126       0               2       0                               0D    112
     126      72                                                00010000D    113
     126       0               2       0                               0D    114
     126      74                                                00010000D    115
     126       0               3       0                               0D    116
     126      77                                                00010000D    117
     126       0               2       0                               0D    118
     126      79                                                00010000D    119
     126       0               2       0                               0D    120
     126      81                                                00010000D    121
     126       0               2       0                               0D    122
     126      83                                                00010000D    123
     126       0               2       0                               0D    124
     126      85                                                00010000D    125
     126       0               3       0                               0D    126
     126      88                                                00010000D    127
     126       0               4       0                               0D    128
     126      92                                                00010000D    129
     126       0               2       0                               0D    130
     126      94                                                00010000D    131
     126       0               4       0                               0D    132
     126      98                                                00010000D    133
     126       0               2       0                               0D    134
     126     100                                                00010000D    135
     126       0               2       0                               0D    136
     126     102                                                00010000D    137
     126       0               3       0                               0D    138
     126     105                                                00010000D    139
     126       0               9       0                               0D    140
     126     114                                                00010000D    141
     126       0               8       0                               0D    142
     126     122                                                00010000D    143
     126       0               2       0                               0D    144
     126     124                                                00010000D    145
     126       0               2       0                               0D    146
     126     126                                                00010000D    147
     126       0               2       0                               0D    148
     126     128                                                00010000D    149
     126       0               2       0                               0D    150
     126     130                                                00010000D    151
     126       0               2       0                               0D    152
     126     132                                                00010000D    153
     126       0               2       0                               0D    154
     126     134                                                00010000D    155
     126       0               2       0                               0D    156
     126     136                                                00010000D    157
     126       0               3       0                               0D    158
     126     139                                                00010000D    159
     126       0               2       0                               0D    160
     126     141                                                00010000D    161
     126       0               4       0                               0D    162
     126     145                                                00010000D    163
     126       0               2       0                               0D    164
     126     147                                                00010000D    165
     126       0               5       0                               0D    166
     126     152                                                00010000D    167
     126       0               2       0                               0D    168
     126     154                                                00010000D    169
     126       0               3       0                               0D    170
     126     157                                                00010000D    171
     126       0               2       0                               0D    172
     126     159                                                00010000D    173
     126       0               2       0                               0D    174
     126     161                                                00010000D    175
     126       0               2       0                               0D    176
     126     163                                                00010000D    177
     126       0               3       0                               0D    178
     126     166                                                00010000D    179
     126       0               2       0                               0D    180
     126     168                                                00010000D    181
     126       0               4       0                               0D    182
     126     172                                                00010000D    183
     126       0               5       0                               0D    184
     126     177                                                00010000D    185
     126       0               2       0                               0D    186
     126     179                                                00010000D    187
     126       0               2       0                               0D    188
     126     181                                                00010000D    189
     126       0               2       0                               0D    190
     126     183                                                00010000D    191
     126       0               2       0                               0D    192
     126     185                                                00010000D    193
     126       0               2       0                               0D    194
     126     187                                                00010000D    195
     126       0               2       0                               0D    196
     126     189                                                00010000D    197
     126       0               2       0                               0D    198
     126     191                                                00010000D    199
     126       0               2       0                               0D    200
     126     193                                                00010000D    201
     126       0               2       0                               0D    202
     126     195                                                00010000D    203
     126       0               2       0                               0D    204
     126     197                                                00010000D    205
     126       0               2       0                               0D    206
     126     199                                                00010000D    207
     126       0               2       0                               0D    208
     126     201                                                00010000D    209
     126       0               3       0                               0D    210
     126     204                                                00010000D    211
     126       0               3       0                               0D    212
     126     207                                                00010000D    213
     126       0               3       0                               0D    214
     126     210                                                00010000D    215
     126       0               2       0                               0D    216
     126     212                                                00010000D    217
     126       0               4       0                               0D    218
     126     216                                                00010000D    219
     126       0               4       0                               0D    220
     126     220                                                00010000D    221
     126       0               7       0                               0D    222
     126     227                                                00010000D    223
     126       0               7       0                               0D    224
     126     234                                                00010000D    225
     126       0               5       0                               0D    226
     126     239                                                00010000D    227
     126       0               6       0                               0D    228
     126     245                                                00010000D    229
     126       0               2       0                               0D    230
     126     247                                                00010000D    231
     126       0               2       0                               0D    232
     126     249                                                00010000D    233
     126       0               3       0                               0D    234
     126     252                                                00010000D    235
     126       0               2       0                               0D    236
     126     254                                                00010000D    237
     126       0               2       0                               0D    238
     128     256                                                00010000D    239
     128       0    -291       3       0                               0D    240
     128     259                                                00010000D    241
     128       0    -291       3       0                               0D    242
     128     262                                                00010000D    243
     128       0    -291       3       0                               0D    244
     128     265                                                00010000D    245
     128       0    -291       4       0                               0D    246
     128     269                                                00010000D    247
     128       0    -291       4       0                               0D    248
     128     273                                                00010000D    249
     128       0    -291       5       0                               0D    250
     128     278                                                00010000D    251
     128       0    -291       6       0                               0D    252
     128     284                                                00010000D    253
     128       0    -291       4       0                               0D    254
     128     288                                                00010000D    255
     128       0    -291       3       0                               0D    256
     128     291                                                00010000D    257
     128       0    -291       7       0                               0D    258
     128     298                                                00010000D    259
     128       0    -291       3       0                               0D    260
     128     301                                                00010000D    261
     128       0    -291       3       0                               0D    262
     128     304                                                00010000D    263
     128       0    -291       3       0                               0D    264
     128     307                                                00010000D    265
     128       0    -291       3       0                               0D    266
     128     310                                                00010000D    267
     128       0    -291       3       0                               0D    268
     128     313                                                00010000D    269
     128       0    -291       4       0                               0D    270
     128     317                                                00010000D    271
     128       0    -291       4       0                               0D    272
     128     321                                                00010000D    273
     128       0    -291       5       0                               0D    274
     128     326                                                00010000D    275
     128       0    -291       7       0                               0D    276
     128     333                                                00010000D    277
     128       0    -291      12       0                               0D    278
     128     345                                                00010000D    279
     128       0    -291      15       0                               0D    280
     128     360                                                00010000D    281
     128       0    -291       3       0                               0D    282
     128     363                                                00010000D    283
     128       0    -291       3       0                               0D    284
     502     366                                                00010000D    285
     502                      12       1                               0D    286
     504     378                                                00010001D    287
     504                      19       1                               0D    288
     406     397                                                00000000D    289
     406                       1      15                               0D    290
     314     398                                                00000200D    291
     314                       2       0                               0D    292
186,3,1,0,0,1,289;                                                     1P      1
514,23,5,1,7,1,9,1,11,1,13,1,15,1,17,1,19,1,21,1,23,1,25,1,27,1,       3P      2
29,1,31,1,33,1,35,1,37,1,39,1,41,1,43,1,45,1,47,1,49,1;                3P      3
510,239,1,1,51;                                                        5P      4
510,241,1,1,53;                                                        7P      5
510,243,1,1,55;                                                        9P      6
510,245,4,1,57,59,61,63;                                              11P      7
510,247,1,1,65;                                                       13P      8
510,249,1,1,67;                                                       15P      9
510,251,1,1,69;                                                       17P     10
510,253,1,1,71;                                                       19P     11
510,255,1,1,73;                                                       21P     12
510,257,1,1,75;                                                       23P     13
510,259,1,1,77;                                                       25P     14
510,261,1,1,79;                                                       27P     15
510,263,1,1,81;                                                       29P     16
510,265,1,1,83;                                                       31P     17
510,267,1,1,85;                                                       33P     18
510,269,3,1,87,89,91;                                                 35P     19
510,271,1,1,93;                                                       37P     20
510,273,1,1,95;                                                       39P     21
510,275,1,1,97;                                                       41P     22
510,277,1,1,99;                                                       43P     23
510,279,1,1,101;                                                      45P     24
510,281,1,1,103;                                                      47P     25
510,283,1,1,105;                                                      49P     26
508,4,0,287,1,0,0,0,287,2,1,0,0,287,3,0,0,0,287,4,0,0;                51P     27
508,4,0,287,5,0,0,0,287,4,1,0,0,287,6,0,0,0,287,7,0,0;                53P     28
508,4,0,287,6,1,0,0,287,3,1,0,0,287,8,1,0,0,287,9,1,0;                55P     29
508,9,0,287,10,1,0,0,287,11,1,0,0,287,12,1,0,0,287,13,0,0,0,287,      57P     30
1,1,0,0,287,5,1,0,0,287,14,0,0,0,287,15,1,0,0,287,16,1,0;             57P     31
508,1,0,287,17,1,0;                                                   59P     32
508,1,0,287,18,1,0;                                                   61P     33
508,4,0,287,19,0,0,0,287,20,1,0,0,287,21,1,0,0,287,22,1,0;            63P     34
508,4,0,287,23,1,0,0,287,24,1,0,0,287,25,0,0,0,287,12,0,0;            65P     35
508,6,0,287,26,1,0,0,287,27,1,0,0,287,8,0,0,0,287,2,0,0,0,287,        67P     36
13,1,0,0,287,25,1,0;                                                  67P     37
508,4,0,287,28,1,0,0,287,29,1,0,0,287,30,1,0,0,287,31,1,0;            69P     38
508,4,0,287,31,0,0,0,287,32,0,0,0,287,33,0,0,0,287,34,1,0;            71P     39
508,6,0,287,30,0,0,0,287,35,0,0,0,287,36,0,0,0,287,37,1,0,0,287,      73P     40
38,0,0,0,287,32,1,0;                                                  73P     41
508,4,0,287,39,1,0,0,287,33,1,0,0,287,38,1,0,0,287,40,1,0;            75P     42
508,10,0,287,40,0,0,0,287,37,0,0,0,287,41,1,0,0,287,42,1,0,0,         77P     43
287,14,1,0,0,287,7,1,0,0,287,9,0,0,0,287,27,0,0,0,287,43,1,0,0,       77P     44
287,44,1,0;                                                           77P     45
508,6,0,287,29,0,0,0,287,45,1,0,0,287,46,0,0,0,287,19,1,0,0,287,      79P     46
47,0,0,0,287,35,1,0;                                                  79P     47
508,4,0,287,47,1,0,0,287,22,0,0,0,287,48,0,0,0,287,49,1,0;            81P     48
508,4,0,287,46,1,0,0,287,50,1,0,0,287,51,1,0,0,287,20,0,0;            83P     49
508,6,0,287,28,0,0,0,287,34,0,0,0,287,39,0,0,0,287,44,0,0,0,287,      85P     50
52,1,0,0,287,45,0,0;                                                  85P     51
508,13,0,287,53,0,0,0,287,54,0,0,0,287,41,0,0,0,287,36,1,0,0,         87P     52
287,49,0,0,0,287,55,0,0,0,287,50,0,0,0,287,52,0,0,0,287,43,0,0,       87P     53
0,287,26,0,0,0,287,24,0,0,0,287,56,0,0,0,287,57,0,0;                  87P     54
508,2,0,287,58,0,0,0,287,59,0,0;                                      89P     55
508,2,0,287,60,0,0,0,287,61,0,0;                                      91P     56
508,4,0,287,53,1,0,0,287,62,1,0,0,287,16,0,0,0,287,63,0,0;            93P     57
508,4,0,287,57,1,0,0,287,64,1,0,0,287,10,0,0,0,287,62,0,0;            95P     58
508,4,0,287,56,1,0,0,287,23,0,0,0,287,11,0,0,0,287,64,0,0;            97P     59
508,5,0,287,18,0,0,0,287,65,1,0,0,287,61,1,0,0,287,60,1,0,0,287,      99P     60
65,0,0;                                                               99P     61
508,5,0,287,17,0,0,0,287,66,1,0,0,287,59,1,0,0,287,58,1,0,0,287,     101P     62
66,0,0;                                                              101P     63
508,4,0,287,54,1,0,0,287,63,1,0,0,287,15,0,0,0,287,42,0,0;           103P     64
508,4,0,287,55,1,0,0,287,48,1,0,0,287,21,0,0,0,287,51,0,0;           105P     65
126,1,1,0,0,1,0,-2.45,-2.45,-0.95,-0.95,1.,1.,54.5,-16.,36.,         107P     66
54.5,-1.,36.,-2.45,-0.95,0.,0.,0.;                                   107P     67
126,1,1,0,0,1,0,0.,0.,1.,1.,1.,1.,54.5,-16.,36.,54.5,-16.,46.,       109P     68
0.,1.,0.,0.,0.;                                                      109P     69
126,1,1,0,0,1,0,-1.5,-1.5,0.,0.,1.,1.,54.5,-1.,46.,54.5,-16.,        111P     70
46.,-1.5,0.,0.,0.,0.;                                                111P     71
126,1,1,0,0,1,0,0.,0.,1.,1.,1.,1.,54.5,-1.,36.,54.5,-1.,46.,0.,      113P     72
1.,0.,0.,0.;                                                         113P     73
126,1,1,0,0,1,0,-0.202015729118615,-0.202015729118615,               115P     74
0.297984270881385,0.297984270881385,1.,1.,54.5,-1.,36.,59.5,-1.,     115P     75
36.,-0.202015729118615,0.297984270881385,0.,0.,0.;                   115P     76
126,1,1,0,0,1,0,-0.5,-0.5,0.,0.,1.,1.,59.5,-1.,46.,54.5,-1.,46.,     117P     77
-0.5,0.,0.,0.,0.;                                                    117P     78
126,1,1,0,0,1,0,0.,0.,1.,1.,1.,1.,59.5,-1.,36.,59.5,-1.,46.,0.,      119P     79
1.,0.,0.,0.;                                                         119P     80
126,1,1,0,0,1,0,-0.5,-0.5,0.,0.,1.,1.,54.5,-16.,46.,59.5,-16.,       121P     81
46.,-0.5,0.,0.,0.,0.;                                                121P     82
126,1,1,0,0,1,0,-1.5,-1.5,0.,0.,1.,1.,59.5,-16.,46.,59.5,-1.,        123P     83
46.,-1.5,0.,0.,0.,0.;                                                123P     84
126,1,1,0,0,1,0,0.,0.,0.948071866175704,0.948071866175704,1.,1.,     125P     85
48.5000751394777,9.48999127637589,36.,48.5000751394777,              125P     86
0.0092726146188471,36.,0.,0.948071866175704,0.,0.,0.;                125P     87
126,1,1,0,0,1,0,0.89694921602431,0.89694921602431,                   127P     88
0.897876524639611,0.897876524639611,1.,1.,48.5000751394777,          127P     89
0.0092726146188471,36.,48.5001686538159,0.,36.,0.89694921602431,     127P     90
0.897876524639611,0.,0.,0.;                                          127P     91
126,1,1,0,0,1,0,0.,0.,1.6,1.6,1.,1.,48.5001686538159,0.,36.,         129P     92
48.5001686538159,-16.,36.,0.,1.6,0.,0.,0.;                           129P     93
126,1,1,0,0,1,0,-0.691937083525542,-0.691937083525542,               131P     94
-0.0919539489071353,-0.0919539489071353,1.,1.,54.5,-16.,36.,         131P     95
48.5001686538159,-16.,36.,-0.691937083525542,                        131P     96
-0.0919539489071353,0.,0.,0.;                                        131P     97
126,1,1,0,0,1,0,-3.6,-3.6,0.1,0.1,1.,1.,59.5,36.,36.,59.5,-1.,       133P     98
36.,-3.6,0.1,0.,0.,0.;                                               133P     99
126,1,1,0,0,1,0,0.,0.,1.1,1.1,1.,1.,59.5,36.,36.,48.5,36.,36.,       135P    100
0.,1.1,0.,0.,0.;                                                     135P    101
126,1,1,0,0,1,0,0.,0.,2.65100087236241,2.65100087236241,1.,1.,       137P    102
48.5,36.,36.,48.5,9.48999127637589,36.,0.,2.65100087236241,0.,       137P    103
0.,0.;                                                               137P    104
126,8,2,0,1,0,0,-3.14159265358979,-3.14159265358979,                 139P    105
-3.14159265358979,-1.5707963267949,-1.5707963267949,0.,0.,           139P    106
1.5707963267949,1.5707963267949,3.14159265358979,                    139P    107
3.14159265358979,3.14159265358979,1.,0.70710678118655,1.,            139P    108
0.707106781186549,1.,0.70710678118655,1.,0.707106781186551,1.,       139P    109
52.,3.5,36.,52.,5.49999999999999,36.,54.,5.49999999999999,36.,       139P    110
56.,5.49999999999999,36.,56.,3.5,36.,56.,1.50000000000001,36.,       139P    111
54.,1.50000000000001,36.,52.,1.50000000000001,36.,52.,3.5,36.,       139P    112
-3.14159265358979,3.14159265358979,0.,0.,0.;                         139P    113
126,8,2,0,1,0,0,-3.14159265358979,-3.14159265358979,                 141P    114
-3.14159265358979,-1.5707963267949,-1.5707963267949,0.,0.,           141P    115
1.5707963267949,1.5707963267949,3.14159265358979,                    141P    116
3.14159265358979,3.14159265358979,1.,0.707106781186542,1.,           141P    117
0.707106781186542,1.,0.707106781186542,1.,0.707106781186542,1.,      141P    118
52.,32.5,36.,52.,34.5,36.,54.,34.5,36.,56.,34.5,36.,56.,32.5,        141P    119
36.,56.,30.5,36.,54.,30.5,36.,52.,30.5,36.,52.,32.5,36.,             141P    120
-3.14159265358979,3.14159265358979,0.,0.,0.;                         141P    121
126,1,1,0,0,1,0,-0.8,-0.8,0.,0.,1.,1.,55.5,11.,36.,55.5,19.,36.,     143P    122
-0.8,0.,0.,0.,0.;                                                    143P    123
126,1,1,0,0,1,0,0.399999999999999,0.399999999999999,0.8,0.8,1.,      145P    124
1.,55.5,11.,36.,51.5,11.,36.,0.399999999999999,0.8,0.,0.,0.;         145P    125
126,1,1,0,0,1,0,0.,0.,0.8,0.8,1.,1.,51.5,11.,36.,51.5,19.,36.,       147P    126
0.,0.8,0.,0.,0.;                                                     147P    127
126,1,1,0,0,1,0,0.,0.,0.4,0.4,1.,1.,51.5,19.,36.,55.5,19.,36.,       149P    128
0.,0.4,0.,0.,0.;                                                     149P    129
126,1,1,0,0,1,0,-0.4,-0.4,0.,0.,1.,1.,48.5001686538159,0.,36.,       151P    130
48.5001686538159,0.,32.,-0.4,0.,0.,0.,0.;                            151P    131
126,1,1,0,0,1,0,0.,0.,1.6,1.6,1.,1.,48.5001686538159,0.,32.,         153P    132
48.5001686538159,-16.,32.,0.,1.6,0.,0.,0.;                           153P    133
126,1,1,0,0,1,0,-0.4,-0.4,0.,0.,1.,1.,48.5001686538159,-16.,36.,     155P    134
48.5001686538159,-16.,32.,-0.4,0.,0.,0.,0.;                          155P    135
126,1,1,0,0,1,0,-0.229014592855636,-0.229014592855636,               157P    136
0.870968541762771,0.870968541762771,1.,1.,48.5001686538159,-16.,     157P    137
32.,59.5,-16.,32.,-0.229014592855636,0.870968541762771,0.,0.,0.;     157P    138
126,1,1,0,0,1,0,0.,0.,1.4,1.4,1.,1.,59.5,-16.,32.,59.5,-16.,46.,     159P    139
0.,1.4,0.,0.,0.;                                                     159P    140
126,2,2,0,0,0,0,-0.785398163397448,-0.785398163397448,               161P    141
-0.785398163397448,0.785398163397448,0.785398163397448,              161P    142
0.785398163397448,1.,0.707106781186544,1.,57.,11.,28.,55.5,11.,      161P    143
28.,55.5,11.,29.5,-0.785398163397448,0.785398163397448,0.,0.,0.;     161P    144
126,1,1,0,0,1,0,-0.2,-0.2,0.6,0.6,1.,1.,55.5,11.,29.5,55.5,19.,      163P    145
29.5,-0.2,0.6,0.,0.,0.;                                              163P    146
126,2,2,0,0,0,0,-0.785398163397448,-0.785398163397448,               165P    147
-0.785398163397448,0.785398163397448,0.785398163397448,              165P    148
0.785398163397448,1.,0.707106781186544,1.,55.5,19.,29.5,55.5,        165P    149
19.,28.,57.,19.,28.,-0.785398163397448,0.785398163397448,0.,0.,      165P    150
0.;                                                                  165P    151
126,1,1,0,0,1,0,-0.6,-0.6,0.2,0.2,1.,1.,57.,19.,28.,57.,11.,28.,     167P    152
-0.6,0.2,0.,0.,0.;                                                   167P    153
126,1,1,0,0,1,0,-0.149999999999999,-0.149999999999999,               169P    154
-0.0500000000000007,-0.0500000000000007,1.,1.,58.,19.,28.,57.,       169P    155
19.,28.,-0.149999999999999,-0.0500000000000007,0.,0.,0.;             169P    156
126,1,1,0,0,1,0,0.35,0.35,1.15,1.15,1.,1.,58.,11.,28.,58.,19.,       171P    157
28.,0.35,1.15,0.,0.,0.;                                              171P    158
126,1,1,0,0,1,0,0.15,0.15,0.249999999999999,0.249999999999999,       173P    159
1.,1.,58.,11.,28.,57.,11.,28.,0.15,0.249999999999999,0.,0.,0.;       173P    160
126,1,1,0,0,1,0,0.,0.,0.25,0.25,1.,1.,55.5,19.,32.,55.5,19.,         175P    161
29.5,0.,0.25,0.,0.,0.;                                               175P    162
126,1,1,0,0,1,0,-0.425,-0.425,-0.0250000000000004,                   177P    163
-0.0250000000000004,1.,1.,59.5,19.,32.,55.5,19.,32.,-0.425,          177P    164
-0.0250000000000004,0.,0.,0.;                                        177P    165
126,1,1,0,0,1,0,0.,0.,0.25,0.25,1.,1.,59.5,19.,32.,59.5,19.,         179P    166
29.5,0.,0.25,0.,0.,0.;                                               179P    167
126,2,2,0,0,0,0,-0.785398163397448,-0.785398163397448,               181P    168
-0.785398163397448,0.785398163397448,0.785398163397448,              181P    169
0.785398163397448,1.,0.707106781186544,1.,58.,19.,28.,59.5,19.,      181P    170
28.,59.5,19.,29.5,-0.785398163397448,0.785398163397448,0.,0.,0.;     181P    171
126,2,2,0,0,0,0,-0.785398163397448,-0.785398163397448,               183P    172
-0.785398163397448,0.785398163397448,0.785398163397448,              183P    173
0.785398163397448,1.,0.707106781186544,1.,59.5,11.,29.5,59.5,        183P    174
11.,28.,58.,11.,28.,-0.785398163397448,0.785398163397448,0.,0.,      183P    175
0.;                                                                  183P    176
126,1,1,0,0,1,0,-1.15,-1.15,-0.35,-0.35,1.,1.,59.5,19.,29.5,         185P    177
59.5,11.,29.5,-1.15,-0.35,0.,0.,0.;                                  185P    178
126,1,1,0,0,1,0,1.,1.,2.7,2.7,1.,1.,59.5,19.,32.,59.5,36.,32.,       187P    179
1.,2.7,0.,0.,0.;                                                     187P    180
126,1,1,0,0,1,0,0.,0.,0.4,0.4,1.,1.,59.5,36.,32.,59.5,36.,36.,       189P    181
0.,0.4,0.,0.,0.;                                                     189P    182
126,1,1,0,0,1,0,-2.5,-2.5,0.2,0.2,1.,1.,59.5,-16.,32.,59.5,11.,      191P    183
32.,-2.5,0.2,0.,0.,0.;                                               191P    184
126,1,1,0,0,1,0,0.,0.,0.25,0.25,1.,1.,59.5,11.,32.,59.5,11.,         193P    185
29.5,0.,0.25,0.,0.,0.;                                               193P    186
126,1,1,0,0,1,0,-0.25,-0.25,0.,0.,1.,1.,55.5,11.,29.5,55.5,11.,      195P    187
32.,-0.25,0.,0.,0.,0.;                                               195P    188
126,1,1,0,0,1,0,-0.4,-0.4,0.,0.,1.,1.,55.5,11.,36.,55.5,11.,32.,     197P    189
-0.4,0.,0.,0.,0.;                                                    197P    190
126,1,1,0,0,1,0,0.,0.,0.4,0.4,1.,1.,55.5,19.,32.,55.5,19.,36.,       199P    191
0.,0.4,0.,0.,0.;                                                     199P    192
126,1,1,0,0,1,0,0.,0.,0.4,0.4,1.,1.,51.5,19.,32.,51.5,19.,36.,       201P    193
0.,0.4,0.,0.,0.;                                                     201P    194
126,1,1,0,0,1,0,-0.125,-0.125,0.275,0.275,1.,1.,51.5,19.,32.,        203P    195
55.5,19.,32.,-0.125,0.275,0.,0.,0.;                                  203P    196
126,1,1,0,0,1,0,0.125,0.125,0.525,0.525,1.,1.,55.5,11.,32.,51.5,     205P    197
11.,32.,0.125,0.525,0.,0.,0.;                                        205P    198
126,1,1,0,0,1,0,0.,0.,0.4,0.4,1.,1.,51.5,11.,32.,51.5,11.,36.,       207P    199
0.,0.4,0.,0.,0.;                                                     207P    200
126,1,1,0,0,1,0,-0.274999999999999,-0.274999999999999,0.125,         209P    201
0.125,1.,1.,59.5,11.,32.,55.5,11.,32.,-0.274999999999999,0.125,      209P    202
0.,0.,0.;                                                            209P    203
126,1,1,0,0,1,0,-0.9,-0.9,1.75100087236241,1.75100087236241,1.,      211P    204
1.,48.5,36.,32.,48.5,9.48999127637589,32.,-0.9,1.75100087236241,     211P    205
0.,0.,0.;                                                            211P    206
126,1,1,0,0,1,0,-0.274999999999999,-0.274999999999999,               213P    207
0.825000000000001,0.825000000000001,1.,1.,59.5,36.,32.,48.5,36.,     213P    208
32.,-0.274999999999999,0.825000000000001,0.,0.,0.;                   213P    209
126,1,1,0,0,1,0,-0.35,-0.35,0.45,0.45,1.,1.,51.5,11.,32.,51.5,       215P    210
19.,32.,-0.35,0.45,0.,0.,0.;                                         215P    211
126,1,1,0,0,1,0,0.896717431390175,0.896717431390175,                 217P    212
0.897644740005476,0.897644740005476,1.,1.,48.5000751394777,          217P    213
0.00927261461884932,32.,48.5001686538159,0.,32.,                     217P    214
0.896717431390175,0.897644740005476,0.,0.,0.;                        217P    215
126,1,1,0,0,1,0,0.425500436181206,0.425500436181206,                 219P    216
1.37357230235691,1.37357230235691,1.,1.,48.5000751394777,            219P    217
9.48999127637589,32.,48.5000751394777,0.00927261461884932,32.,       219P    218
0.425500436181206,1.37357230235691,0.,0.,0.;                         219P    219
126,4,2,0,0,0,0,-2.7755575615629D-16,-2.7755575615629D-16,           221P    220
-2.7755575615629D-16,1.5707963267949,1.5707963267949,                221P    221
3.14159265358979,3.14159265358979,3.14159265358979,1.,               221P    222
0.707106781186551,1.,0.70710678118655,1.,56.,3.5,32.,56.,            221P    223
1.50000000000001,32.,54.,1.50000000000001,32.,52.,                   221P    224
1.50000000000001,32.,52.,3.5,32.,-2.7755575615629D-16,               221P    225
3.14159265358979,0.,0.,0.;                                           221P    226
126,4,2,0,0,0,0,3.14159265358979,3.14159265358979,                   223P    227
3.14159265358979,4.71238898038469,4.71238898038469,                  223P    228
6.28318530717959,6.28318530717959,6.28318530717959,1.,               223P    229
0.707106781186549,1.,0.707106781186551,1.,52.,3.5,32.,52.,           223P    230
5.49999999999999,32.,54.,5.49999999999999,32.,56.,                   223P    231
5.49999999999999,32.,56.,3.5,32.,3.14159265358979,                   223P    232
6.28318530717959,0.,0.,0.;                                           223P    233
126,4,2,0,0,0,0,0.,0.,0.,1.5707963267949,1.5707963267949,            225P    234
3.14159265358979,3.14159265358979,3.14159265358979,1.,               225P    235
0.707106781186542,1.,0.707106781186542,1.,56.,32.5,32.,56.,30.5,     225P    236
32.,54.,30.5,32.,52.,30.5,32.,52.,32.5,32.,0.,3.14159265358979,      225P    237
0.,0.,0.;                                                            225P    238
126,4,2,0,0,0,0,3.14159265358979,3.14159265358979,                   227P    239
3.14159265358979,4.71238898038469,4.71238898038469,                  227P    240
6.28318530717959,6.28318530717959,6.28318530717959,1.,               227P    241
0.707106781186542,1.,0.707106781186542,1.,52.,32.5,32.,52.,34.5,     227P    242
32.,54.,34.5,32.,56.,34.5,32.,56.,32.5,32.,3.14159265358979,         227P    243
6.28318530717959,0.,0.,0.;                                           227P    244
126,1,1,0,0,1,0,0.,0.,0.4,0.4,1.,1.,48.5,9.48999127637589,32.,       229P    245
48.5,9.48999127637589,36.,0.,0.4,0.,0.,0.;                           229P    246
126,1,1,0,0,1,0,0.,0.,0.4,0.4,1.,1.,48.5,36.,32.,48.5,36.,36.,       231P    247
0.,0.4,0.,0.,0.;                                                     231P    248
126,1,1,0,0,1,0,0.,0.,0.4,0.4,1.,1.,48.5000751394777,                233P    249
0.0092726146188471,32.,48.5000751394777,0.0092726146188471,36.,      233P    250
0.,0.4,0.,0.,0.;                                                     233P    251
126,1,1,0,0,1,0,0.,0.,2.,2.,1.,1.,52.,32.5,36.,52.,32.5,32.,0.,      235P    252
2.,0.,0.,0.;                                                         235P    253
126,1,1,0,0,1,0,0.,0.,2.00000000000001,2.00000000000001,1.,1.,       237P    254
52.,3.5,36.,52.,3.5,32.,0.,2.00000000000001,0.,0.,0.;                237P    255
128,1,1,1,1,0,0,1,0,0,0.,0.,1.5,1.5,0.,0.,1.,1.,1.,1.,1.,1.,         239P    256
54.5,-1.,36.,54.5,-16.,36.,54.5,-1.,46.,54.5,-16.,46.,0.,1.5,0.,     239P    257
1.;                                                                  239P    258
128,1,1,1,1,0,0,1,0,0,0.,0.,0.5,0.5,0.,0.,1.,1.,1.,1.,1.,1.,         241P    259
59.5,-1.,36.,54.5,-1.,36.,59.5,-1.,46.,54.5,-1.,46.,0.,0.5,0.,       241P    260
1.;                                                                  241P    261
128,1,1,1,1,0,0,1,0,0,-0.25,-0.25,0.25,0.25,-0.75,-0.75,0.75,        243P    262
0.75,1.,1.,1.,1.,54.5,-16.,46.,59.5,-16.,46.,54.5,-1.,46.,59.5,      243P    263
-1.,46.,-0.25,0.25,-0.75,0.75;                                       243P    264
128,1,1,1,1,0,0,1,0,0,-0.504031458237229,-0.504031458237229,         245P    265
0.595968541762771,0.595968541762771,-3.4,-3.4,1.8,1.8,1.,1.,1.,      245P    266
1.,48.5,-16.,36.,59.5,-16.,36.,48.5,36.,36.,59.5,36.,36.,            245P    267
-0.504031458237229,0.595968541762771,-3.4,1.8;                       245P    268
128,1,1,1,1,0,0,1,0,0,0.,0.,0.4,0.4,0.,0.,1.6,1.6,1.,1.,1.,1.,       247P    269
48.5001686538159,0.,36.,48.5001686538159,0.,32.,                     247P    270
48.5001686538159,-16.,36.,48.5001686538159,-16.,32.,0.,0.4,0.,       247P    271
1.6;                                                                 247P    272
128,1,1,1,1,0,0,1,0,0,-1.4,-1.4,0.,0.,0.0919539489071353,            249P    273
0.0919539489071353,1.19193708352554,1.19193708352554,1.,1.,1.,       249P    274
1.,48.5001686538159,-16.,46.,48.5001686538159,-16.,32.,59.5,         249P    275
-16.,46.,59.5,-16.,32.,-1.4,0.,0.0919539489071353,                   249P    276
1.19193708352554;                                                    249P    277
128,1,2,1,2,0,0,0,0,0,-4.,-4.,1.33333333333333,1.33333333333333,     251P    278
-0.785398163397448,-0.785398163397448,-0.785398163397448,            251P    279
0.785398163397448,0.785398163397448,0.785398163397448,1.,1.,         251P    280
0.707106781186548,0.707106781186548,1.,1.,55.5,11.,29.5,55.5,        251P    281
19.,29.5,55.5,11.,28.,55.5,19.,28.,57.,11.,28.,57.,19.,28.,-4.,      251P    282
1.33333333333333,-0.785398163397448,0.785398163397448;               251P    283
128,1,1,1,1,0,0,1,0,0,8.88178419700125D-16,8.88178419700125D-16,     253P    284
0.0999999999999996,0.0999999999999996,-0.4,-0.4,0.4,0.4,1.,1.,       253P    285
1.,1.,58.,11.,28.,57.,11.,28.,58.,19.,28.,57.,19.,28.,               253P    286
8.88178419700125D-16,0.0999999999999996,-0.4,0.4;                    253P    287
128,1,1,1,1,0,0,1,0,0,-0.0999999999999996,-0.0999999999999996,       255P    288
0.3,0.3,0.,0.,0.4,0.4,1.,1.,1.,1.,55.5,19.,32.,59.5,19.,32.,         255P    289
55.5,19.,28.,59.5,19.,28.,-0.0999999999999996,0.3,0.,0.4;            255P    290
128,1,2,1,2,0,0,0,0,0,-7.66666666666667,-7.66666666666667,           257P    291
-2.33333333333333,-2.33333333333333,-0.785398163397448,              257P    292
-0.785398163397448,-0.785398163397448,0.785398163397448,             257P    293
0.785398163397448,0.785398163397448,1.,1.,0.707106781186548,         257P    294
0.707106781186548,1.,1.,58.,11.,28.,58.,19.,28.,59.5,11.,28.,        257P    295
59.5,19.,28.,59.5,11.,29.5,59.5,19.,29.5,-7.66666666666667,          257P    296
-2.33333333333333,-0.785398163397448,0.785398163397448;              257P    297
128,1,1,1,1,0,0,1,0,0,-1.6,-1.6,3.6,3.6,-0.25,-0.25,1.4,1.4,1.,      259P    298
1.,1.,1.,59.5,-16.,29.5,59.5,36.,29.5,59.5,-16.,46.,59.5,36.,        259P    299
46.,-1.6,3.6,-0.25,1.4;                                              259P    300
128,1,1,1,1,0,0,1,0,0,-0.25,-0.25,0.4,0.4,0.,0.,0.8,0.8,1.,1.,       261P    301
1.,1.,55.5,11.,29.5,55.5,11.,36.,55.5,19.,29.5,55.5,19.,36.,         261P    302
-0.25,0.4,0.,0.8;                                                    261P    303
128,1,1,1,1,0,0,1,0,0,0.,0.,0.4,0.4,0.,0.,0.4,0.4,1.,1.,1.,1.,       263P    304
51.5,19.,32.,55.5,19.,32.,51.5,19.,36.,55.5,19.,36.,0.,0.4,0.,       263P    305
0.4;                                                                 263P    306
128,1,1,1,1,0,0,1,0,0,0.399999999999999,0.399999999999999,0.8,       265P    307
0.8,0.,0.,0.4,0.4,1.,1.,1.,1.,55.5,11.,32.,51.5,11.,32.,55.5,        265P    308
11.,36.,51.5,11.,36.,0.399999999999999,0.8,0.,0.4;                   265P    309
128,1,1,1,1,0,0,1,0,0,0.,0.,0.399999999999999,0.399999999999999,     267P    310
0.,0.,0.4,0.4,1.,1.,1.,1.,59.5,11.,32.,55.5,11.,32.,59.5,11.,        267P    311
28.,55.5,11.,28.,0.,0.399999999999999,0.,0.4;                        267P    312
128,1,1,1,1,0,0,1,0,0,-0.55,-0.55,0.550000000000001,                 269P    313
0.550000000000001,-3.4,-3.4,1.8,1.8,1.,1.,1.,1.,59.5,-16.,32.,       269P    314
48.5,-16.,32.,59.5,36.,32.,48.5,36.,32.,-0.55,0.550000000000001,     269P    315
-3.4,1.8;                                                            269P    316
128,1,1,1,1,0,0,1,0,0,0.,0.,2.65100087236241,2.65100087236241,       271P    317
0.,0.,0.4,0.4,1.,1.,1.,1.,48.5,36.,32.,48.5,9.48999127637588,        271P    318
32.,48.5,36.,36.,48.5,9.48999127637588,36.,0.,2.65100087236241,      271P    319
0.,0.4;                                                              271P    320
128,1,1,1,1,0,0,1,0,0,0.,0.,0.948071866175704,0.948071866175704,     273P    321
0.,0.,0.4,0.4,1.,1.,1.,1.,48.5000751394777,9.48999127637589,32.,     273P    322
48.5000751394777,0.0092726146188471,32.,48.5000751394777,            273P    323
9.48999127637589,36.,48.5000751394777,0.0092726146188471,36.,0.,     273P    324
0.948071866175704,0.,0.4;                                            273P    325
128,1,1,1,1,0,0,1,0,0,0.,0.,0.4,0.4,-2.22044604925031D-16,           275P    326
-2.22044604925031D-16,0.000927308615300826,0.000927308615300826,     275P    327
1.,1.,1.,1.,48.5000751394777,0.00927261461884932,36.,                275P    328
48.5000751394777,0.00927261461884932,32.,48.5001686538159,           275P    329
-6.17995238316738D-17,36.,48.5001686538159,                          275P    330
-6.17995238316738D-17,32.,0.,0.4,-2.22044604925031D-16,              275P    331
0.000927308615300826;                                                275P    332
128,1,8,1,2,0,1,0,0,1,0.,0.,2.,2.,-3.14159265358979,                 277P    333
-3.14159265358979,-3.14159265358979,-1.5707963267949,                277P    334
-1.5707963267949,0.,0.,1.5707963267949,1.5707963267949,              277P    335
3.14159265358979,3.14159265358979,3.14159265358979,1.,1.,            277P    336
0.707106781186548,0.707106781186548,1.,1.,0.707106781186548,         277P    337
0.707106781186548,1.,1.,0.707106781186548,0.707106781186548,1.,      277P    338
1.,0.707106781186548,0.707106781186548,1.,1.,52.,32.5,36.,52.,       277P    339
32.5,32.,52.,34.5,36.,52.,34.5,32.,54.,34.5,36.,54.,34.5,32.,        277P    340
56.,34.5,36.,56.,34.5,32.,56.,32.5,36.,56.,32.5,32.,56.,30.5,        277P    341
36.,56.,30.5,32.,54.,30.5,36.,54.,30.5,32.,52.,30.5,36.,52.,         277P    342
30.5,32.,52.,32.5,36.,52.,32.5,32.,0.,2.,-3.14159265358979,          277P    343
3.14159265358979;                                                    277P    344
128,1,8,1,2,0,1,0,0,1,0.,0.,2.00000000000001,2.00000000000001,       279P    345
-3.14159265358979,-3.14159265358979,-3.14159265358979,               279P    346
-1.5707963267949,-1.5707963267949,0.,0.,1.5707963267949,             279P    347
1.5707963267949,3.14159265358979,3.14159265358979,                   279P    348
3.14159265358979,1.,1.,0.707106781186548,0.707106781186548,1.,       279P    349
1.,0.707106781186548,0.707106781186548,1.,1.,0.707106781186548,      279P    350
0.707106781186548,1.,1.,0.707106781186548,0.707106781186548,1.,      279P    351
1.,52.,3.5,36.,52.,3.5,32.,52.,5.49999999999999,36.,52.,             279P    352
5.49999999999999,32.,54.,5.49999999999999,36.,54.,                   279P    353
5.49999999999999,32.,56.,5.49999999999999,36.,56.,                   279P    354
5.49999999999999,32.,56.,3.5,36.,56.,3.5,32.,56.,                    279P    355
1.50000000000001,36.,56.,1.50000000000001,32.,54.,                   279P    356
1.50000000000001,36.,54.,1.50000000000001,32.,52.,                   279P    357
1.50000000000001,36.,52.,1.50000000000001,32.,52.,3.5,36.,52.,       279P    358
3.5,32.,0.,2.00000000000001,-3.14159265358979,3.14159265358979;      279P    359
128,1,1,1,1,0,0,1,0,0,0.,0.,1.1,1.1,0.,0.,0.4,0.4,1.,1.,1.,1.,       281P    360
59.5,36.,32.,48.5,36.,32.,59.5,36.,36.,48.5,36.,36.,0.,1.1,0.,       281P    361
0.4;                                                                 281P    362
128,1,1,1,1,0,0,1,0,0,0.,0.,0.8,0.8,0.,0.,0.4,0.4,1.,1.,1.,1.,       283P    363
51.5,11.,32.,51.5,19.,32.,51.5,11.,36.,51.5,19.,36.,0.,0.8,0.,       283P    364
0.4;                                                                 283P    365
502,44,54.5,-16.,36.,54.5,-1.,36.,54.5,-16.,46.,54.5,-1.,46.,        285P    366
59.5,-1.,36.,59.5,-1.,46.,59.5,-16.,46.,48.5,9.48999127637589,       285P    367
36.,48.5000751394777,0.0092726146188471,36.,48.5001686538159,0.,     285P    368
36.,48.5001686538159,-16.,36.,59.5,36.,36.,48.5,36.,36.,52.,3.5,     285P    369
36.,52.,32.5,36.,55.5,11.,36.,55.5,19.,36.,51.5,11.,36.,51.5,        285P    370
19.,36.,48.5001686538159,0.,32.,48.5001686538159,-16.,32.,59.5,      285P    371
-16.,32.,57.,11.,28.,55.5,11.,29.5,55.5,19.,29.5,57.,19.,28.,        285P    372
58.,19.,28.,58.,11.,28.,55.5,19.,32.,59.5,19.,32.,59.5,19.,29.5,     285P    373
59.5,11.,29.5,59.5,36.,32.,59.5,11.,32.,55.5,11.,32.,51.5,19.,       285P    374
32.,51.5,11.,32.,48.5,36.,32.,48.5,9.48999127637589,32.,             285P    375
48.5000751394777,0.00927261461884932,32.,56.,3.5,32.,52.,3.5,        285P    376
32.,56.,32.5,32.,52.,32.5,32.;                                       285P    377
504,66,107,285,1,285,2,109,285,1,285,3,111,285,4,285,3,113,285,      287P    378
2,285,4,115,285,2,285,5,117,285,6,285,4,119,285,5,285,6,121,285,     287P    379
3,285,7,123,285,7,285,6,125,285,8,285,9,127,285,9,285,10,129,        287P    380
285,10,285,11,131,285,1,285,11,133,285,12,285,5,135,285,12,285,      287P    381
13,137,285,13,285,8,139,285,14,285,14,141,285,15,285,15,143,285,     287P    382
16,285,17,145,285,16,285,18,147,285,18,285,19,149,285,19,285,17,     287P    383
151,285,10,285,20,153,285,20,285,21,155,285,11,285,21,157,285,       287P    384
21,285,22,159,285,22,285,7,161,285,23,285,24,163,285,24,285,25,      287P    385
165,285,25,285,26,167,285,26,285,23,169,285,27,285,26,171,285,       287P    386
28,285,27,173,285,28,285,23,175,285,29,285,25,177,285,30,285,29,     287P    387
179,285,30,285,31,181,285,27,285,31,183,285,32,285,28,185,285,       287P    388
31,285,32,187,285,30,285,33,189,285,33,285,12,191,285,22,285,34,     287P    389
193,285,34,285,32,195,285,24,285,35,197,285,16,285,35,199,285,       287P    390
29,285,17,201,285,36,285,19,203,285,36,285,29,205,285,35,285,37,     287P    391
207,285,37,285,18,209,285,34,285,35,211,285,38,285,39,213,285,       287P    392
33,285,38,215,285,37,285,36,217,285,40,285,20,219,285,39,285,40,     287P    393
221,285,41,285,42,223,285,42,285,41,225,285,43,285,44,227,285,       287P    394
44,285,43,229,285,39,285,8,231,285,38,285,13,233,285,40,285,9,       287P    395
235,285,15,285,44,237,285,14,285,42;                                 287P    396
406,1,5HBody1;                                                       289P    397
314,62.7450980392157,62.7450980392157,62.7450980392157,13HSteel      291P    398
- Satin;                                                             291P    399
S      1G      2D    292P    399                                        T      1
