                                                                        S      1
,,12HNylon_Washer,12HNylon_Washer,7Hunknown,7Hunknown,32,38,7,99,15,,1.,G      1
2,2HMM,1,0.08,15H20150531.182948,0.01,10000.,7Hunknown,7Hunknown,11,0,; G      2
     186       1                                                00000000D      1
     186             -71       1       0                               0D      2
     514       2                                                00010000D      3
     514                       1       1                               0D      4
     510       3                                                00010000D      5
     510             -71       1       1                               0D      6
     510       4                                                00010000D      7
     510             -71       1       1                               0D      8
     510       5                                                00010000D      9
     510             -71       1       1                               0D     10
     510       6                                                00010000D     11
     510             -71       1       1                               0D     12
     510       7                                                00010000D     13
     510             -71       1       1                               0D     14
     510       8                                                00010000D     15
     510             -71       1       1                               0D     16
     508       9                                                00010000D     17
     508                       1       1                               0D     18
     508      10                                                00010000D     19
     508                       1       1                               0D     20
     508      11                                                00010000D     21
     508                       1       1                               0D     22
     508      12                                                00010000D     23
     508                       1       1                               0D     24
     508      13                                                00010000D     25
     508                       1       1                               0D     26
     508      14                                                00010000D     27
     508                       1       1                               0D     28
     508      15                                                00010000D     29
     508                       1       1                               0D     30
     508      16                                                00010000D     31
     508                       1       1                               0D     32
     508      17                                                00010000D     33
     508                       1       1                               0D     34
     126      18                                                00010000D     35
     126       0               9       0                               0D     36
     126      27                                                00010000D     37
     126       0               2       0                               0D     38
     126      29                                                00010000D     39
     126       0              10       0                               0D     40
     126      39                                                00010000D     41
     126       0              10       0                               0D     42
     126      49                                                00010000D     43
     126       0               9       0                               0D     44
     126      58                                                00010000D     45
     126       0               2       0                               0D     46
     126      60                                                00010000D     47
     126       0               9       0                               0D     48
     126      69                                                00010000D     49
     126       0              10       0                               0D     50
     126      79                                                00010000D     51
     126       0               3       0                               0D     52
     128      82                                                00010000D     53
     128       0     -71      12       0                               0D     54
     128      94                                                00010000D     55
     128       0     -71       3       0                               0D     56
     128      97                                                00010000D     57
     128       0     -71      12       0                               0D     58
     128     109                                                00010000D     59
     128       0     -71       2       0                               0D     60
     128     111                                                00010000D     61
     128       0     -71       3       0                               0D     62
     128     114                                                00010000D     63
     128       0     -71      13       0                               0D     64
     502     127                                                00010000D     65
     502                       4       1                               0D     66
     504     131                                                00010001D     67
     504                       2       1                               0D     68
     406     133                                                00000000D     69
     406                       1      15                               0D     70
     314     134                                                00000200D     71
     314                       2       0                               0D     72
186,3,1,0,0,1,69;                                                      1P      1
514,6,5,1,7,1,9,1,11,1,13,1,15,1;                                      3P      2
510,53,1,1,17;                                                         5P      3
510,55,2,1,19,21;                                                      7P      4
510,57,1,1,23;                                                         9P      5
510,59,2,1,25,27;                                                     11P      6
510,61,2,1,29,31;                                                     13P      7
510,63,1,1,33;                                                        15P      8
508,4,0,67,1,0,0,0,67,2,1,0,0,67,3,0,0,0,67,2,0,0;                    17P      9
508,1,0,67,4,1,0;                                                     19P     10
508,1,0,67,3,1,0;                                                     21P     11
508,4,0,67,5,0,0,0,67,6,1,0,0,67,7,0,0,0,67,6,0,0;                    23P     12
508,1,0,67,5,1,0;                                                     25P     13
508,1,0,67,1,1,0;                                                     27P     14
508,1,0,67,8,0,0;                                                     29P     15
508,1,0,67,7,1,0;                                                     31P     16
508,4,0,67,8,1,0,0,67,9,1,0,0,67,4,0,0,0,67,9,0,0;                    33P     17
126,8,2,0,1,0,0,-3.14159265358979,-3.14159265358979,                  35P     18
-3.14159265358979,-1.5707963267949,-1.5707963267949,0.,0.,            35P     19
1.5707963267949,1.5707963267949,3.14159265358979,                     35P     20
3.14159265358979,3.14159265358979,1.,0.707106781186548,1.,            35P     21
0.707106781186547,1.,0.707106781186547,1.,0.707106781186548,1.,       35P     22
4.5,1.,5.51091059616309D-16,4.5,1.,4.5,-2.75545529808154D-16,1.,      35P     23
4.5,-4.5,1.,4.5,-4.5,1.,0.,-4.5,1.,-4.5,-2.75545529808154D-16,        35P     24
1.,-4.5,4.5,1.,-4.5,4.5,1.,-5.51091059616309D-16,                     35P     25
-3.14159265358979,3.14159265358979,0.,0.,0.;                          35P     26
126,1,1,0,0,1,0,0.,0.,0.333333333333333,0.333333333333333,1.,1.,      37P     27
4.5,1.,0.,4.5,-0.5,0.,0.,0.333333333333333,0.,0.,0.;                  37P     28
126,8,2,0,1,0,0,-3.14159265358979,-3.14159265358979,                  39P     29
-3.14159265358979,-1.5707963267949,-1.5707963267949,0.,0.,            39P     30
1.5707963267949,1.5707963267949,3.14159265358979,                     39P     31
3.14159265358979,3.14159265358979,1.,0.707106781186548,1.,            39P     32
0.707106781186547,1.,0.707106781186547,1.,0.707106781186548,1.,       39P     33
4.5,-0.5,-5.51091059616309D-16,4.5,-0.5,-4.5,                         39P     34
-2.75545529808154D-16,-0.5,-4.5,-4.5,-0.5,-4.5,-4.5,-0.5,0.,          39P     35
-4.5,-0.5,4.5,-2.75545529808154D-16,-0.5,4.5,4.5,-0.5,4.5,4.5,        39P     36
-0.5,5.51091059616309D-16,-3.14159265358979,3.14159265358979,0.,      39P     37
0.,0.;                                                                39P     38
126,8,2,0,1,0,0,-3.14159265358979,-3.14159265358979,                  41P     39
-3.14159265358979,-1.5707963267949,-1.5707963267949,0.,0.,            41P     40
1.5707963267949,1.5707963267949,3.14159265358979,                     41P     41
3.14159265358979,3.14159265358979,1.,0.707106781186548,1.,            41P     42
0.707106781186548,1.,0.707106781186548,1.,0.707106781186548,1.,       41P     43
-15.,-0.5,-1.83697019872103D-15,-15.,-0.5,-15.,                       41P     44
9.18485099360515D-16,-0.5,-15.,15.,-0.5,-15.,15.,-0.5,0.,15.,         41P     45
-0.5,15.,9.18485099360515D-16,-0.5,15.,-15.,-0.5,15.,-15.,-0.5,       41P     46
1.83697019872103D-15,-3.14159265358979,3.14159265358979,0.,0.,        41P     47
0.;                                                                   41P     48
126,8,2,0,1,0,0,-3.14159265358979,-3.14159265358979,                  43P     49
-3.14159265358979,-1.5707963267949,-1.5707963267949,0.,0.,            43P     50
1.5707963267949,1.5707963267949,3.14159265358979,                     43P     51
3.14159265358979,3.14159265358979,1.,0.707106781186548,1.,            43P     52
0.707106781186548,1.,0.707106781186548,1.,0.707106781186548,1.,       43P     53
6.,1.,-7.34788079488412D-16,6.,1.,-6.,-3.67394039744206D-16,1.,       43P     54
-6.,-6.,1.,-6.,-6.,1.,0.,-6.,1.,6.,-3.67394039744206D-16,1.,6.,       43P     55
6.,1.,6.,6.,1.,7.34788079488412D-16,-3.14159265358979,                43P     56
3.14159265358979,0.,0.,0.;                                            43P     57
126,1,1,0,0,1,0,-0.0833333333333333,-0.0833333333333333,0.,0.,        45P     58
1.,1.,6.,1.,0.,6.,0.5,0.,-0.0833333333333333,0.,0.,0.,0.;             45P     59
126,8,2,0,1,0,0,-3.14159265358979,-3.14159265358979,                  47P     60
-3.14159265358979,-1.5707963267949,-1.5707963267949,0.,0.,            47P     61
1.5707963267949,1.5707963267949,3.14159265358979,                     47P     62
3.14159265358979,3.14159265358979,1.,0.707106781186548,1.,            47P     63
0.707106781186548,1.,0.707106781186548,1.,0.707106781186548,1.,       47P     64
6.,0.5,7.34788079488412D-16,6.,0.5,6.,-3.67394039744206D-16,0.5,      47P     65
6.,-6.,0.5,6.,-6.,0.5,0.,-6.,0.5,-6.,-3.67394039744206D-16,0.5,       47P     66
-6.,6.,0.5,-6.,6.,0.5,-7.34788079488412D-16,-3.14159265358979,        47P     67
3.14159265358979,0.,0.,0.;                                            47P     68
126,8,2,0,1,0,0,-3.14159265358979,-3.14159265358979,                  49P     69
-3.14159265358979,-1.5707963267949,-1.5707963267949,0.,0.,            49P     70
1.5707963267949,1.5707963267949,3.14159265358979,                     49P     71
3.14159265358979,3.14159265358979,1.,0.707106781186548,1.,            49P     72
0.707106781186548,1.,0.707106781186548,1.,0.707106781186548,1.,       49P     73
-15.,0.5,-1.83697019872103D-15,-15.,0.5,-15.,                         49P     74
9.18485099360515D-16,0.5,-15.,15.,0.5,-15.,15.,0.5,0.,15.,0.5,        49P     75
15.,9.18485099360515D-16,0.5,15.,-15.,0.5,15.,-15.,0.5,               49P     76
1.83697019872103D-15,-3.14159265358979,3.14159265358979,0.,0.,        49P     77
0.;                                                                   49P     78
126,1,1,0,0,1,0,-0.0333333333333333,-0.0333333333333333,              51P     79
0.0333333333333333,0.0333333333333333,1.,1.,-15.,0.5,0.,-15.,         51P     80
-0.5,0.,-0.0333333333333333,0.0333333333333333,0.,0.,0.;              51P     81
128,1,8,1,2,0,1,0,0,1,0.,0.,0.333333333333333,0.333333333333333,      53P     82
-3.14159265358979,-3.14159265358979,-3.14159265358979,                53P     83
-1.5707963267949,-1.5707963267949,0.,0.,1.5707963267949,              53P     84
1.5707963267949,3.14159265358979,3.14159265358979,                    53P     85
3.14159265358979,1.,1.,0.707106781186548,0.707106781186548,1.,        53P     86
1.,0.707106781186548,0.707106781186548,1.,1.,0.707106781186548,       53P     87
0.707106781186548,1.,1.,0.707106781186548,0.707106781186548,1.,       53P     88
1.,4.5,1.,0.,4.5,-0.5,0.,4.5,1.,4.5,4.5,-0.5,4.5,0.,1.,4.5,0.,        53P     89
-0.5,4.5,-4.5,1.,4.5,-4.5,-0.5,4.5,-4.5,1.,0.,-4.5,-0.5,0.,-4.5,      53P     90
1.,-4.5,-4.5,-0.5,-4.5,0.,1.,-4.5,0.,-0.5,-4.5,4.5,1.,-4.5,4.5,       53P     91
-0.5,-4.5,4.5,1.,0.,4.5,-0.5,0.,0.,0.333333333333333,                 53P     92
-3.14159265358979,3.14159265358979;                                   53P     93
128,1,1,1,1,0,0,1,0,0,-1.5,-1.5,1.5,1.5,-1.5,-1.5,1.5,1.5,1.,1.,      55P     94
1.,1.,15.,-0.5,15.,-15.,-0.5,15.,15.,-0.5,-15.,-15.,-0.5,-15.,        55P     95
-1.5,1.5,-1.5,1.5;                                                    55P     96
128,1,8,1,2,0,1,0,0,1,0.,0.,0.0833333333333333,                       57P     97
0.0833333333333333,-3.14159265358979,-3.14159265358979,               57P     98
-3.14159265358979,-1.5707963267949,-1.5707963267949,0.,0.,            57P     99
1.5707963267949,1.5707963267949,3.14159265358979,                     57P    100
3.14159265358979,3.14159265358979,1.,1.,0.707106781186548,            57P    101
0.707106781186548,1.,1.,0.707106781186548,0.707106781186548,1.,       57P    102
1.,0.707106781186548,0.707106781186548,1.,1.,0.707106781186548,       57P    103
0.707106781186548,1.,1.,6.,1.,0.,6.,0.5,0.,6.,1.,-6.,6.,0.5,-6.,      57P    104
0.,1.,-6.,0.,0.5,-6.,-6.,1.,-6.,-6.,0.5,-6.,-6.,1.,0.,-6.,0.5,        57P    105
0.,-6.,1.,6.,-6.,0.5,6.,0.,1.,6.,0.,0.5,6.,6.,1.,6.,6.,0.5,6.,        57P    106
6.,1.,0.,6.,0.5,0.,0.,0.0833333333333333,-3.14159265358979,           57P    107
3.14159265358979;                                                     57P    108
128,1,1,1,1,0,0,1,0,0,-0.6,-0.6,0.6,0.6,-0.6,-0.6,0.6,0.6,1.,1.,      59P    109
1.,1.,6.,1.,-6.,-6.,1.,-6.,6.,1.,6.,-6.,1.,6.,-0.6,0.6,-0.6,0.6;      59P    110
128,1,1,1,1,0,0,1,0,0,-1.5,-1.5,1.5,1.5,-1.5,-1.5,1.5,1.5,1.,1.,      61P    111
1.,1.,-15.,0.5,15.,15.,0.5,15.,-15.,0.5,-15.,15.,0.5,-15.,-1.5,       61P    112
1.5,-1.5,1.5;                                                         61P    113
128,1,8,1,2,0,1,0,0,1,-0.0333333333333333,-0.0333333333333333,        63P    114
0.0333333333333333,0.0333333333333333,-3.14159265358979,              63P    115
-3.14159265358979,-3.14159265358979,-1.5707963267949,                 63P    116
-1.5707963267949,0.,0.,1.5707963267949,1.5707963267949,               63P    117
3.14159265358979,3.14159265358979,3.14159265358979,1.,1.,             63P    118
0.707106781186548,0.707106781186548,1.,1.,0.707106781186548,          63P    119
0.707106781186548,1.,1.,0.707106781186548,0.707106781186548,1.,       63P    120
1.,0.707106781186548,0.707106781186548,1.,1.,-15.,0.5,0.,-15.,        63P    121
-0.5,0.,-15.,0.5,15.,-15.,-0.5,15.,0.,0.5,15.,0.,-0.5,15.,15.,        63P    122
0.5,15.,15.,-0.5,15.,15.,0.5,0.,15.,-0.5,0.,15.,0.5,-15.,15.,         63P    123
-0.5,-15.,0.,0.5,-15.,0.,-0.5,-15.,-15.,0.5,-15.,-15.,-0.5,-15.,      63P    124
-15.,0.5,0.,-15.,-0.5,0.,-0.0333333333333333,0.0333333333333333,      63P    125
-3.14159265358979,3.14159265358979;                                   63P    126
502,6,4.5,1.,-5.51091059616309D-16,4.5,-0.5,                          65P    127
-5.51091059616309D-16,-15.,-0.5,1.83697019872103D-15,6.,1.,           65P    128
-7.34788079488412D-16,6.,0.5,-7.34788079488412D-16,-15.,0.5,          65P    129
1.83697019872103D-15;                                                 65P    130
504,9,35,65,1,65,1,37,65,1,65,2,39,65,2,65,2,41,65,3,65,3,43,65,      67P    131
4,65,4,45,65,4,65,5,47,65,5,65,5,49,65,6,65,6,51,65,6,65,3;           67P    132
406,1,5HBody1;                                                        69P    133
314,62.7450980392157,62.7450980392157,62.7450980392157,13HSteel       71P    134
- Satin;                                                              71P    135
S      1G      2D     72P    135                                        T      1
