                                                                        S      1
,,12HPCB_Standoff,12HPCB_Standoff,7Hunknown,7Hunknown,32,38,7,99,15,,1.,G      1
2,2HMM,1,0.08,15H20150615.210806,0.01,10000.,7Hunknown,7Hunknown,11,0,; G      2
     186       1                                                00000000D      1
     186             -51       1       0                               0D      2
     514       2                                                00010000D      3
     514                       1       1                               0D      4
     510       3                                                00010000D      5
     510             -51       1       1                               0D      6
     510       4                                                00010000D      7
     510             -51       1       1                               0D      8
     510       5                                                00010000D      9
     510             -51       1       1                               0D     10
     510       6                                                00010000D     11
     510             -51       1       1                               0D     12
     508       7                                                00010000D     13
     508                       1       1                               0D     14
     508       8                                                00010000D     15
     508                       1       1                               0D     16
     508       9                                                00010000D     17
     508                       1       1                               0D     18
     508      10                                                00010000D     19
     508                       1       1                               0D     20
     508      11                                                00010000D     21
     508                       1       1                               0D     22
     508      12                                                00010000D     23
     508                       1       1                               0D     24
     126      13                                                00010000D     25
     126       0              10       0                               0D     26
     126      23                                                00010000D     27
     126       0               2       0                               0D     28
     126      25                                                00010000D     29
     126       0               9       0                               0D     30
     126      34                                                00010000D     31
     126       0               9       0                               0D     32
     126      43                                                00010000D     33
     126       0               2       0                               0D     34
     126      45                                                00010000D     35
     126       0               9       0                               0D     36
     128      54                                                00010000D     37
     128       0     -51      11       0                               0D     38
     128      65                                                00010000D     39
     128       0     -51      11       0                               0D     40
     128      76                                                00010000D     41
     128       0     -51       3       0                               0D     42
     128      79                                                00010000D     43
     128       0     -51       2       0                               0D     44
     502      81                                                00010000D     45
     502                       3       1                               0D     46
     504      84                                                00010001D     47
     504                       2       1                               0D     48
     406      86                                                00000000D     49
     406                       1      15                               0D     50
     314      87                                                00000200D     51
     314                       2       0                               0D     52
186,3,1,0,0,1,49;                                                      1P      1
514,4,5,1,7,1,9,1,11,1;                                                3P      2
510,37,1,1,13;                                                         5P      3
510,39,1,1,15;                                                         7P      4
510,41,2,1,17,19;                                                      9P      5
510,43,2,1,21,23;                                                     11P      6
508,4,0,47,1,0,0,0,47,2,1,0,0,47,3,1,0,0,47,2,0,0;                    13P      7
508,4,0,47,4,0,0,0,47,5,1,0,0,47,6,1,0,0,47,5,0,0;                    15P      8
508,1,0,47,4,1,0;                                                     17P      9
508,1,0,47,1,1,0;                                                     19P     10
508,1,0,47,6,0,0;                                                     21P     11
508,1,0,47,3,0,0;                                                     23P     12
126,8,2,0,1,0,0,-3.14159265358979,-3.14159265358979,                  25P     13
-3.14159265358979,-1.5707963267949,-1.5707963267949,0.,0.,            25P     14
1.5707963267949,1.5707963267949,3.14159265358979,                     25P     15
3.14159265358979,3.14159265358979,1.,0.707106781186548,1.,            25P     16
0.707106781186547,1.,0.707106781186547,1.,0.707106781186548,1.,       25P     17
-2.5,12.,-3.06161699786838D-16,-2.5,12.,-2.5,                         25P     18
1.53080849893419D-16,12.,-2.5,2.5,12.,-2.5,2.5,12.,0.,2.5,12.,        25P     19
2.5,1.53080849893419D-16,12.,2.5,-2.5,12.,2.5,-2.5,12.,               25P     20
3.06161699786838D-16,-3.14159265358979,3.14159265358979,0.,0.,        25P     21
0.;                                                                   25P     22
126,1,1,0,0,1,0,-4.8,-4.8,0.,0.,1.,1.,-2.5,12.,0.,-2.5,0.,0.,         27P     23
-4.8,0.,0.,0.,0.;                                                     27P     24
126,8,2,0,1,0,0,-3.14159265358979,-3.14159265358979,                  29P     25
-3.14159265358979,-1.5707963267949,-1.5707963267949,0.,0.,            29P     26
1.5707963267949,1.5707963267949,3.14159265358979,                     29P     27
3.14159265358979,3.14159265358979,1.,0.707106781186548,1.,            29P     28
0.707106781186547,1.,0.707106781186547,1.,0.707106781186548,1.,       29P     29
-2.5,0.,-3.06161699786838D-16,-2.5,0.,-2.5,1.53080849893419D-16,      29P     30
0.,-2.5,2.5,0.,-2.5,2.5,0.,0.,2.5,0.,2.5,1.53080849893419D-16,        29P     31
0.,2.5,-2.5,0.,2.5,-2.5,0.,3.06161699786838D-16,                      29P     32
-3.14159265358979,3.14159265358979,0.,0.,0.;                          29P     33
126,8,2,0,1,0,0,-3.14159265358979,-3.14159265358979,                  31P     34
-3.14159265358979,-1.5707963267949,-1.5707963267949,0.,0.,            31P     35
1.5707963267949,1.5707963267949,3.14159265358979,                     31P     36
3.14159265358979,3.14159265358979,1.,0.707106781186548,1.,            31P     37
0.707106781186547,1.,0.707106781186547,1.,0.707106781186548,1.,       31P     38
-5.,12.,6.12323399573677D-16,-5.,12.,5.,3.06161699786838D-16,         31P     39
12.,5.,5.,12.,5.,5.,12.,0.,5.,12.,-5.,3.06161699786838D-16,12.,       31P     40
-5.,-5.,12.,-5.,-5.,12.,-6.12323399573677D-16,-3.14159265358979,      31P     41
3.14159265358979,0.,0.,0.;                                            31P     42
126,1,1,0,0,1,0,-2.4,-2.4,0.,0.,1.,1.,-5.,12.,0.,-5.,0.,0.,-2.4,      33P     43
0.,0.,0.,0.;                                                          33P     44
126,8,2,0,1,0,0,-3.14159265358979,-3.14159265358979,                  35P     45
-3.14159265358979,-1.5707963267949,-1.5707963267949,0.,0.,            35P     46
1.5707963267949,1.5707963267949,3.14159265358979,                     35P     47
3.14159265358979,3.14159265358979,1.,0.707106781186548,1.,            35P     48
0.707106781186547,1.,0.707106781186547,1.,0.707106781186548,1.,       35P     49
-5.,0.,6.12323399573677D-16,-5.,0.,5.,3.06161699786838D-16,0.,        35P     50
5.,5.,0.,5.,5.,0.,0.,5.,0.,-5.,3.06161699786838D-16,0.,-5.,-5.,       35P     51
0.,-5.,-5.,0.,-6.12323399573677D-16,-3.14159265358979,                35P     52
3.14159265358979,0.,0.,0.;                                            35P     53
128,1,8,1,2,0,1,0,0,1,0.,0.,4.8,4.8,-3.14159265358979,                37P     54
-3.14159265358979,-3.14159265358979,-1.5707963267949,                 37P     55
-1.5707963267949,0.,0.,1.5707963267949,1.5707963267949,               37P     56
3.14159265358979,3.14159265358979,3.14159265358979,1.,1.,             37P     57
0.707106781186548,0.707106781186548,1.,1.,0.707106781186548,          37P     58
0.707106781186548,1.,1.,0.707106781186548,0.707106781186548,1.,       37P     59
1.,0.707106781186548,0.707106781186548,1.,1.,-2.5,0.,0.,-2.5,         37P     60
12.,0.,-2.5,0.,2.5,-2.5,12.,2.5,0.,0.,2.5,0.,12.,2.5,2.5,0.,2.5,      37P     61
2.5,12.,2.5,2.5,0.,0.,2.5,12.,0.,2.5,0.,-2.5,2.5,12.,-2.5,0.,0.,      37P     62
-2.5,0.,12.,-2.5,-2.5,0.,-2.5,-2.5,12.,-2.5,-2.5,0.,0.,-2.5,12.,      37P     63
0.,0.,4.8,-3.14159265358979,3.14159265358979;                         37P     64
128,1,8,1,2,0,1,0,0,1,0.,0.,2.4,2.4,-3.14159265358979,                39P     65
-3.14159265358979,-3.14159265358979,-1.5707963267949,                 39P     66
-1.5707963267949,0.,0.,1.5707963267949,1.5707963267949,               39P     67
3.14159265358979,3.14159265358979,3.14159265358979,1.,1.,             39P     68
0.707106781186548,0.707106781186548,1.,1.,0.707106781186548,          39P     69
0.707106781186548,1.,1.,0.707106781186548,0.707106781186548,1.,       39P     70
1.,0.707106781186548,0.707106781186548,1.,1.,-5.,12.,0.,-5.,0.,       39P     71
0.,-5.,12.,5.,-5.,0.,5.,0.,12.,5.,0.,0.,5.,5.,12.,5.,5.,0.,5.,        39P     72
5.,12.,0.,5.,0.,0.,5.,12.,-5.,5.,0.,-5.,0.,12.,-5.,0.,0.,-5.,         39P     73
-5.,12.,-5.,-5.,0.,-5.,-5.,12.,0.,-5.,0.,0.,0.,2.4,                   39P     74
-3.14159265358979,3.14159265358979;                                   39P     75
128,1,1,1,1,0,0,1,0,0,-0.5,-0.5,0.5,0.5,-0.5,-0.5,0.5,0.5,1.,1.,      41P     76
1.,1.,-5.,12.,5.,5.,12.,5.,-5.,12.,-5.,5.,12.,-5.,-0.5,0.5,-0.5,      41P     77
0.5;                                                                  41P     78
128,1,1,1,1,0,0,1,0,0,-0.5,-0.5,0.5,0.5,-0.5,-0.5,0.5,0.5,1.,1.,      43P     79
1.,1.,5.,0.,5.,-5.,0.,5.,5.,0.,-5.,-5.,0.,-5.,-0.5,0.5,-0.5,0.5;      43P     80
502,4,-2.5,12.,3.06161699786838D-16,-2.5,0.,                          45P     81
3.06161699786838D-16,-5.,12.,6.12323399573677D-16,-5.,0.,             45P     82
6.12323399573677D-16;                                                 45P     83
504,6,25,45,1,45,1,27,45,1,45,2,29,45,2,45,2,31,45,3,45,3,33,45,      47P     84
3,45,4,35,45,4,45,4;                                                  47P     85
406,1,5HBody1;                                                        49P     86
314,62.7450980392157,62.7450980392157,62.7450980392157,13HSteel       51P     87
- Satin;                                                              51P     88
S      1G      2D     52P     88                                        T      1
