                                                                        S      1
,,12HRail_Bracket,12HRail_Bracket,7Hunknown,7Hunknown,32,38,7,99,15,,1.,G      1
2,2HMM,1,0.08,15H20150612.182130,0.01,10000.,7Hunknown,7Hunknown,11,0,; G      2
     186       1                                                00000000D      1
     186            -155       1       0                               0D      2
     514       2                                                00010000D      3
     514                       1       1                               0D      4
     510       3                                                00010000D      5
     510            -155       1       1                               0D      6
     510       4                                                00010000D      7
     510            -155       1       1                               0D      8
     510       5                                                00010000D      9
     510            -155       1       1                               0D     10
     510       6                                                00010000D     11
     510            -155       1       1                               0D     12
     510       7                                                00010000D     13
     510            -155       1       1                               0D     14
     510       8                                                00010000D     15
     510            -155       1       1                               0D     16
     510       9                                                00010000D     17
     510            -155       1       1                               0D     18
     510      10                                                00010000D     19
     510            -155       1       1                               0D     20
     510      11                                                00010000D     21
     510            -155       1       1                               0D     22
     510      12                                                00010000D     23
     510            -155       1       1                               0D     24
     510      13                                                00010000D     25
     510            -155       1       1                               0D     26
     510      14                                                00010000D     27
     510            -155       1       1                               0D     28
     508      15                                                00010000D     29
     508                       1       1                               0D     30
     508      16                                                00010000D     31
     508                       2       1                               0D     32
     508      18                                                00010000D     33
     508                       1       1                               0D     34
     508      19                                                00010000D     35
     508                       1       1                               0D     36
     508      20                                                00010000D     37
     508                       1       1                               0D     38
     508      21                                                00010000D     39
     508                       1       1                               0D     40
     508      22                                                00010000D     41
     508                       1       1                               0D     42
     508      23                                                00010000D     43
     508                       1       1                               0D     44
     508      24                                                00010000D     45
     508                       1       1                               0D     46
     508      25                                                00010000D     47
     508                       1       1                               0D     48
     508      26                                                00010000D     49
     508                       2       1                               0D     50
     508      28                                                00010000D     51
     508                       1       1                               0D     52
     508      29                                                00010000D     53
     508                       1       1                               0D     54
     508      30                                                00010000D     55
     508                       2       1                               0D     56
     508      32                                                00010000D     57
     508                       2       1                               0D     58
     508      34                                                00010000D     59
     508                       1       1                               0D     60
     126      35                                                00010000D     61
     126       0               5       0                               0D     62
     126      40                                                00010000D     63
     126       0               2       0                               0D     64
     126      42                                                00010000D     65
     126       0               5       0                               0D     66
     126      47                                                00010000D     67
     126       0               2       0                               0D     68
     126      49                                                00010000D     69
     126       0               2       0                               0D     70
     126      51                                                00010000D     71
     126       0               4       0                               0D     72
     126      55                                                00010000D     73
     126       0               2       0                               0D     74
     126      57                                                00010000D     75
     126       0               5       0                               0D     76
     126      62                                                00010000D     77
     126       0               2       0                               0D     78
     126      64                                                00010000D     79
     126       0               5       0                               0D     80
     126      69                                                00010000D     81
     126       0               2       0                               0D     82
     126      71                                                00010000D     83
     126       0               8       0                               0D     84
     126      79                                                00010000D     85
     126       0               8       0                               0D     86
     126      87                                                00010000D     87
     126       0               2       0                               0D     88
     126      89                                                00010000D     89
     126       0               2       0                               0D     90
     126      91                                                00010000D     91
     126       0               4       0                               0D     92
     126      95                                                00010000D     93
     126       0               2       0                               0D     94
     126      97                                                00010000D     95
     126       0               5       0                               0D     96
     126     102                                                00010000D     97
     126       0               2       0                               0D     98
     126     104                                                00010000D     99
     126       0               2       0                               0D    100
     126     106                                                00010000D    101
     126       0               2       0                               0D    102
     126     108                                                00010000D    103
     126       0               2       0                               0D    104
     126     110                                                00010000D    105
     126       0               2       0                               0D    106
     126     112                                                00010000D    107
     126       0               5       0                               0D    108
     126     117                                                00010000D    109
     126       0               2       0                               0D    110
     126     119                                                00010000D    111
     126       0               2       0                               0D    112
     126     121                                                00010000D    113
     126       0               5       0                               0D    114
     126     126                                                00010000D    115
     126       0               6       0                               0D    116
     126     132                                                00010000D    117
     126       0               4       0                               0D    118
     126     136                                                00010000D    119
     126       0               7       0                               0D    120
     126     143                                                00010000D    121
     126       0               2       0                               0D    122
     126     145                                                00010000D    123
     126       0               2       0                               0D    124
     128     147                                                00010000D    125
     128       0    -155       7       0                               0D    126
     128     154                                                00010000D    127
     128       0    -155       2       0                               0D    128
     128     156                                                00010000D    129
     128       0    -155       3       0                               0D    130
     128     159                                                00010000D    131
     128       0    -155       6       0                               0D    132
     128     165                                                00010000D    133
     128       0    -155       7       0                               0D    134
     128     172                                                00010000D    135
     128       0    -155       2       0                               0D    136
     128     174                                                00010000D    137
     128       0    -155       6       0                               0D    138
     128     180                                                00010000D    139
     128       0    -155       2       0                               0D    140
     128     182                                                00010000D    141
     128       0    -155       2       0                               0D    142
     128     184                                                00010000D    143
     128       0    -155      12       0                               0D    144
     128     196                                                00010000D    145
     128       0    -155      12       0                               0D    146
     128     208                                                00010000D    147
     128       0    -155       2       0                               0D    148
     502     210                                                00010000D    149
     502                       4       1                               0D    150
     504     214                                                00010001D    151
     504                       9       1                               0D    152
     406     223                                                00000000D    153
     406                       1      15                               0D    154
     314     224                                                00000200D    155
     314                       2       0                               0D    156
186,3,1,0,0,1,153;                                                     1P      1
514,12,5,1,7,1,9,1,11,1,13,1,15,1,17,1,19,1,21,1,23,1,25,1,27,1;       3P      2
510,125,1,1,29;                                                        5P      3
510,127,3,1,31,33,35;                                                  7P      4
510,129,1,1,37;                                                        9P      5
510,131,1,1,39;                                                       11P      6
510,133,1,1,41;                                                       13P      7
510,135,1,1,43;                                                       15P      8
510,137,1,1,45;                                                       17P      9
510,139,1,1,47;                                                       19P     10
510,141,3,1,49,51,53;                                                 21P     11
510,143,1,1,55;                                                       23P     12
510,145,1,1,57;                                                       25P     13
510,147,1,1,59;                                                       27P     14
508,4,0,151,1,1,0,0,151,2,1,0,0,151,3,1,0,0,151,4,1,0;                29P     15
508,8,0,151,1,0,0,0,151,5,1,0,0,151,6,0,0,0,151,7,1,0,0,151,8,0,      31P     16
0,0,151,9,1,0,0,151,10,0,0,0,151,11,1,0;                              31P     17
508,1,0,151,12,1,0;                                                   33P     18
508,1,0,151,13,1,0;                                                   35P     19
508,4,0,151,4,0,0,0,151,14,0,0,0,151,15,0,0,0,151,5,0,0;              37P     20
508,4,0,151,16,1,0,0,151,17,1,0,0,151,6,1,0,0,151,15,1,0;             39P     21
508,4,0,151,18,1,0,0,151,19,1,0,0,151,10,1,0,0,151,20,1,0;            41P     22
508,4,0,151,20,0,0,0,151,9,0,0,0,151,21,0,0,0,151,22,0,0;             43P     23
508,4,0,151,8,1,0,0,151,23,1,0,0,151,24,1,0,0,151,21,1,0;             45P     24
508,4,0,151,2,0,0,0,151,11,0,0,0,151,19,0,0,0,151,25,0,0;             47P     25
508,8,0,151,3,0,0,0,151,25,1,0,0,151,18,0,0,0,151,22,1,0,0,151,       49P     26
24,0,0,0,151,26,1,0,0,151,16,0,0,0,151,14,1,0;                        49P     27
508,2,0,151,27,1,0,0,151,28,1,0;                                      51P     28
508,2,0,151,29,1,0,0,151,30,1,0;                                      53P     29
508,5,0,151,29,0,0,0,151,30,0,0,0,151,31,1,0,0,151,13,0,0,0,151,      55P     30
31,0,0;                                                               55P     31
508,5,0,151,27,0,0,0,151,28,0,0,0,151,32,1,0,0,151,12,0,0,0,151,      57P     32
32,0,0;                                                               57P     33
508,4,0,151,17,0,0,0,151,26,0,0,0,151,23,0,0,0,151,7,0,0;             59P     34
126,2,2,0,0,0,0,-0.785398163397448,-0.785398163397448,                61P     35
-0.785398163397448,0.785398163397448,0.785398163397448,               61P     36
0.785398163397448,1.,0.707106781186547,1.,17.,0.,4.,17.,0.,           61P     37
3.46944695195361D-15,13.,0.,3.33066907387547D-15,                     61P     38
-0.785398163397448,0.785398163397448,0.,0.,0.;                        61P     39
126,1,1,0,0,1,0,0.,0.,0.4,0.4,1.,1.,13.,0.,0.,13.,4.,0.,0.,0.4,       63P     40
0.,0.,0.;                                                             63P     41
126,2,2,0,0,0,0,-0.785398163397448,-0.785398163397448,                65P     42
-0.785398163397448,0.785398163397448,0.785398163397448,               65P     43
0.785398163397448,1.,0.707106781186547,1.,13.,4.,                     65P     44
3.33066907387547D-15,17.,4.,3.46944695195361D-15,17.,4.,4.,           65P     45
-0.785398163397448,0.785398163397448,0.,0.,0.;                        65P     46
126,1,1,0,0,1,0,-0.4,-0.4,0.,0.,1.,1.,17.,4.,4.,17.,0.,4.,-0.4,       67P     47
0.,0.,0.,0.;                                                          67P     48
126,1,1,0,0,1,0,-4.1,-4.1,1.1,1.1,1.,1.,17.,0.,4.,17.,0.,56.,         69P     49
-4.1,1.1,0.,0.,0.;                                                    69P     50
126,2,2,0,0,0,0,-0.785398163397448,-0.785398163397448,                71P     51
-0.785398163397448,0.785398163397448,0.785398163397448,               71P     52
0.785398163397448,1.,0.707106781186548,1.,13.,0.,60.,17.,0.,60.,      71P     53
17.,0.,56.,-0.785398163397448,0.785398163397448,0.,0.,0.;             71P     54
126,1,1,0,0,1,0,0.5,0.5,1.3,1.3,1.,1.,13.,0.,60.,5.,0.,60.,0.5,       73P     55
1.3,0.,0.,0.;                                                         73P     56
126,2,2,0,0,0,0,-0.785398163397449,-0.785398163397449,                75P     57
-0.785398163397449,0.785398163397448,0.785398163397448,               75P     58
0.785398163397448,1.,0.707106781186548,1.,1.,0.,56.,                  75P     59
0.999999999999999,0.,60.,5.,0.,60.,-0.785398163397449,                75P     60
0.785398163397448,0.,0.,0.;                                           75P     61
126,1,1,0,0,1,0,-4.1,-4.1,1.1,1.1,1.,1.,1.,0.,56.,1.,0.,4.,-4.1,      77P     62
1.1,0.,0.,0.;                                                         77P     63
126,2,2,0,0,0,0,-0.785398163397448,-0.785398163397448,                79P     64
-0.785398163397448,0.785398163397448,0.785398163397448,               79P     65
0.785398163397448,1.,0.707106781186547,1.,5.,0.,0.,1.,0.,             79P     66
1.38777878078145D-16,1.,0.,4.,-0.785398163397448,                     79P     67
0.785398163397448,0.,0.,0.;                                           79P     68
126,1,1,0,0,1,0,0.5,0.5,1.3,1.3,1.,1.,5.,0.,0.,13.,0.,0.,0.5,         81P     69
1.3,0.,0.,0.;                                                         81P     70
126,8,2,0,1,0,0,-3.14159265358979,-3.14159265358979,                  83P     71
-3.14159265358979,-1.5707963267949,-1.5707963267949,0.,0.,            83P     72
1.5707963267949,1.5707963267949,3.14159265358979,                     83P     73
3.14159265358979,3.14159265358979,1.,0.707106781186541,1.,            83P     74
0.707106781186539,1.,0.707106781186539,1.,0.707106781186541,1.,       83P     75
10.5,0.,50.,10.5,0.,48.5,9.,0.,48.5,7.5,0.,48.5,7.5,0.,50.,7.5,       83P     76
0.,51.5,9.,0.,51.5,10.5,0.,51.5,10.5,0.,50.,-3.14159265358979,        83P     77
3.14159265358979,0.,0.,0.;                                            83P     78
126,8,2,0,1,0,0,-3.14159265358979,-3.14159265358979,                  85P     79
-3.14159265358979,-1.5707963267949,-1.5707963267949,0.,0.,            85P     80
1.5707963267949,1.5707963267949,3.14159265358979,                     85P     81
3.14159265358979,3.14159265358979,1.,0.70710678118655,1.,             85P     82
0.707106781186548,1.,0.707106781186549,1.,0.707106781186551,1.,       85P     83
10.5,0.,10.,10.5,0.,8.5,9.,0.,8.5,7.5,0.,8.5,7.5,0.,10.,7.5,0.,       85P     84
11.5,9.,0.,11.5,10.5,0.,11.5,10.5,0.,10.,-3.14159265358979,           85P     85
3.14159265358979,0.,0.,0.;                                            85P     86
126,1,1,0,0,1,0,-1.1,-1.1,4.1,4.1,1.,1.,17.,4.,56.,17.,4.,4.,         87P     87
-1.1,4.1,0.,0.,0.;                                                    87P     88
126,1,1,0,0,1,0,0.,0.,0.4,0.4,1.,1.,17.,0.,56.,17.,4.,56.,0.,         89P     89
0.4,0.,0.,0.;                                                         89P     90
126,2,2,0,0,0,0,-0.785398163397448,-0.785398163397448,                91P     91
-0.785398163397448,0.785398163397448,0.785398163397448,               91P     92
0.785398163397448,1.,0.707106781186548,1.,17.,4.,56.,17.,4.,60.,      91P     93
13.,4.,60.,-0.785398163397448,0.785398163397448,0.,0.,0.;             91P     94
126,1,1,0,0,1,0,-0.4,-0.4,0.,0.,1.,1.,13.,4.,60.,13.,0.,60.,          93P     95
-0.4,0.,0.,0.,0.;                                                     93P     96
126,2,2,0,0,0,0,-0.785398163397448,-0.785398163397448,                95P     97
-0.785398163397448,0.785398163397448,0.785398163397448,               95P     98
0.785398163397448,1.,0.707106781186547,1.,1.,4.,4.,1.,4.,             95P     99
1.38777878078145D-16,5.,4.,0.,-0.785398163397448,                     95P    100
0.785398163397448,0.,0.,0.;                                           95P    101
126,1,1,0,0,1,0,-0.4,-0.4,0.,0.,1.,1.,5.,4.,0.,5.,0.,0.,-0.4,0.,      97P    102
0.,0.,0.;                                                             97P    103
126,1,1,0,0,1,0,0.,0.,0.4,0.4,1.,1.,1.,0.,4.,1.,4.,4.,0.,0.4,0.,      99P    104
0.,0.;                                                                99P    105
126,1,1,0,0,1,0,-0.4,-0.4,0.,0.,1.,1.,1.,4.,56.,1.,0.,56.,-0.4,      101P    106
0.,0.,0.,0.;                                                         101P    107
126,1,1,0,0,1,0,-1.1,-1.1,4.1,4.1,1.,1.,1.,4.,4.,1.,4.,56.,-1.1,     103P    108
4.1,0.,0.,0.;                                                        103P    109
126,1,1,0,0,1,0,0.,0.,0.4,0.4,1.,1.,5.,0.,60.,5.,4.,60.,0.,0.4,      105P    110
0.,0.,0.;                                                            105P    111
126,2,2,0,0,0,0,-0.785398163397448,-0.785398163397448,               107P    112
-0.785398163397448,0.785398163397449,0.785398163397449,              107P    113
0.785398163397449,1.,0.707106781186548,1.,5.,4.,60.,                 107P    114
0.999999999999999,4.,60.,1.,4.,56.,-0.785398163397448,               107P    115
0.785398163397449,0.,0.,0.;                                          107P    116
126,1,1,0,0,1,0,-1.3,-1.3,-0.5,-0.5,1.,1.,13.,4.,0.,5.,4.,0.,        109P    117
-1.3,-0.5,0.,0.,0.;                                                  109P    118
126,1,1,0,0,1,0,-1.3,-1.3,-0.5,-0.5,1.,1.,5.,4.,60.,13.,4.,60.,      111P    119
-1.3,-0.5,0.,0.,0.;                                                  111P    120
126,4,2,0,0,0,0,0.,0.,0.,1.5707963267949,1.5707963267949,            113P    121
3.14159265358979,3.14159265358979,3.14159265358979,1.,               113P    122
0.707106781186539,1.,0.707106781186541,1.,7.5,4.,50.,7.5,4.,         113P    123
48.5,9.,4.,48.5,10.5,4.,48.5,10.5,4.,50.,0.,3.14159265358979,0.,     113P    124
0.,0.;                                                               113P    125
126,4,2,0,0,0,0,3.14159265358979,3.14159265358979,                   115P    126
3.14159265358979,4.71238898038469,4.71238898038469,                  115P    127
6.28318530717959,6.28318530717959,6.28318530717959,1.,               115P    128
0.707106781186541,1.,0.707106781186539,1.,10.5,4.,50.,10.5,4.,       115P    129
51.5,9.,4.,51.5,7.5,4.,51.5,7.5,4.,50.,3.14159265358979,             115P    130
6.28318530717959,0.,0.,0.;                                           115P    131
126,2,2,0,0,0,0,1.5707963267949,1.5707963267949,1.5707963267949,     117P    132
3.14159265358979,3.14159265358979,3.14159265358979,1.,               117P    133
0.70710678118655,1.,9.,4.,8.5,10.5,4.,8.5,10.5,4.,10.,               117P    134
1.5707963267949,3.14159265358979,0.,0.,0.;                           117P    135
126,6,2,0,0,0,0,3.14159265358979,3.14159265358979,                   119P    136
3.14159265358979,4.71238898038469,4.71238898038469,                  119P    137
6.28318530717959,6.28318530717959,7.85398163397448,                  119P    138
7.85398163397448,7.85398163397448,1.,0.707106781186551,1.,           119P    139
0.707106781186549,1.,0.707106781186548,1.,10.5,4.,10.,10.5,4.,       119P    140
11.5,9.,4.,11.5,7.5,4.,11.5,7.5,4.,10.,7.5,4.,8.5,9.,4.,8.5,         119P    141
3.14159265358979,7.85398163397448,0.,0.,0.;                          119P    142
126,1,1,0,0,1,0,0.,0.,2.66666666666667,2.66666666666667,1.,1.,       121P    143
10.5,4.,10.,10.5,0.,10.,0.,2.66666666666667,0.,0.,0.;                121P    144
126,1,1,0,0,1,0,0.,0.,2.66666666666667,2.66666666666667,1.,1.,       123P    145
10.5,4.,50.,10.5,0.,50.,0.,2.66666666666667,0.,0.,0.;                123P    146
128,1,2,1,2,0,0,0,0,0,-1.,-1.,0.,0.,-0.785398163397448,              125P    147
-0.785398163397448,-0.785398163397448,0.785398163397448,             125P    148
0.785398163397448,0.785398163397448,1.,1.,0.707106781186548,         125P    149
0.707106781186548,1.,1.,13.,0.,4.44089209850063D-15,13.,4.,          125P    150
4.44089209850063D-15,17.,0.,3.88578058618805D-15,17.,4.,             125P    151
3.88578058618805D-15,17.,0.,4.,17.,4.,4.,-1.,0.,                     125P    152
-0.785398163397448,0.785398163397448;                                125P    153
128,1,1,1,1,0,0,1,0,0,-0.8,-0.8,0.8,0.8,-3.,-3.,3.,3.,1.,1.,1.,      127P    154
1.,17.,0.,60.,1.,0.,60.,17.,0.,0.,1.,0.,0.,-0.8,0.8,-3.,3.;          127P    155
128,1,1,1,1,0,0,1,0,0,-5.6,-5.6,-0.4,-0.4,0.,0.,0.4,0.4,1.,1.,       129P    156
1.,1.,17.,0.,56.,17.,0.,4.,17.,4.,56.,17.,4.,4.,-5.6,-0.4,0.,        129P    157
0.4;                                                                 129P    158
128,1,2,1,2,0,0,0,0,0,0.,0.,1.,1.,-0.785398163397448,                131P    159
-0.785398163397448,-0.785398163397448,0.785398163397448,             131P    160
0.785398163397448,0.785398163397448,1.,1.,0.707106781186548,         131P    161
0.707106781186548,1.,1.,13.,4.,60.,13.,0.,60.,17.,4.,60.,17.,0.,     131P    162
60.,17.,4.,56.,17.,0.,56.,0.,1.,-0.785398163397448,                  131P    163
0.785398163397448;                                                   131P    164
128,1,2,1,2,0,0,0,0,0,0.,0.,1.,1.,-0.785398163397448,                133P    165
-0.785398163397448,-0.785398163397448,0.785398163397448,             133P    166
0.785398163397448,0.785398163397448,1.,1.,0.707106781186548,         133P    167
0.707106781186548,1.,1.,5.,4.,2.77555756156289D-16,5.,0.,            133P    168
2.77555756156289D-16,1.,4.,5.55111512312578D-16,1.,0.,               133P    169
5.55111512312578D-16,1.,4.,4.,1.,0.,4.,0.,1.,-0.785398163397448,     133P    170
0.785398163397448;                                                   133P    171
128,1,1,1,1,0,0,1,0,0,-5.6,-5.6,-0.4,-0.4,0.,0.,0.4,0.4,1.,1.,       135P    172
1.,1.,1.,0.,4.,1.,0.,56.,1.,4.,4.,1.,4.,56.,-5.6,-0.4,0.,0.4;        135P    173
128,1,2,1,2,0,0,0,0,0,-1.,-1.,0.,0.,-0.785398163397448,              137P    174
-0.785398163397448,-0.785398163397448,0.785398163397449,             137P    175
0.785398163397449,0.785398163397449,1.,1.,0.707106781186547,         137P    176
0.707106781186547,1.,1.,5.,0.,60.,5.,4.,60.,1.,0.,60.,1.,4.,60.,     137P    177
0.999999999999998,0.,56.,0.999999999999998,4.,56.,-1.,0.,            137P    178
-0.785398163397448,0.785398163397449;                                137P    179
128,1,1,1,1,0,0,1,0,0,0.5,0.5,1.3,1.3,0.,0.,0.4,0.4,1.,1.,1.,1.,     139P    180
13.,0.,0.,5.,0.,0.,13.,4.,0.,5.,4.,0.,0.5,1.3,0.,0.4;                139P    181
128,1,1,1,1,0,0,1,0,0,-3.,-3.,3.,3.,-0.8,-0.8,0.8,0.8,1.,1.,1.,      141P    182
1.,1.,4.,0.,1.,4.,60.,17.,4.,0.,17.,4.,60.,-3.,3.,-0.8,0.8;          141P    183
128,1,8,1,2,0,1,0,0,1,0.,0.,2.66666666666667,2.66666666666667,       143P    184
-3.14159265358979,-3.14159265358979,-3.14159265358979,               143P    185
-1.5707963267949,-1.5707963267949,0.,0.,1.5707963267949,             143P    186
1.5707963267949,3.14159265358979,3.14159265358979,                   143P    187
3.14159265358979,1.,1.,0.707106781186548,0.707106781186548,1.,       143P    188
1.,0.707106781186548,0.707106781186548,1.,1.,0.707106781186548,      143P    189
0.707106781186548,1.,1.,0.707106781186548,0.707106781186548,1.,      143P    190
1.,10.5,4.,10.,10.5,0.,10.,10.5,4.,11.5,10.5,0.,11.5,9.,4.,11.5,     143P    191
9.,0.,11.5,7.5,4.,11.5,7.5,0.,11.5,7.5,4.,10.,7.5,0.,10.,7.5,4.,     143P    192
8.5,7.5,0.,8.5,9.,4.,8.5,9.,0.,8.5,10.5,4.,8.5,10.5,0.,8.5,10.5,     143P    193
4.,10.,10.5,0.,10.,0.,2.66666666666667,-3.14159265358979,            143P    194
3.14159265358979;                                                    143P    195
128,1,8,1,2,0,1,0,0,1,0.,0.,2.66666666666667,2.66666666666667,       145P    196
-3.14159265358979,-3.14159265358979,-3.14159265358979,               145P    197
-1.5707963267949,-1.5707963267949,0.,0.,1.5707963267949,             145P    198
1.5707963267949,3.14159265358979,3.14159265358979,                   145P    199
3.14159265358979,1.,1.,0.707106781186548,0.707106781186548,1.,       145P    200
1.,0.707106781186548,0.707106781186548,1.,1.,0.707106781186548,      145P    201
0.707106781186548,1.,1.,0.707106781186548,0.707106781186548,1.,      145P    202
1.,10.5,4.,50.,10.5,0.,50.,10.5,4.,51.5,10.5,0.,51.5,9.,4.,51.5,     145P    203
9.,0.,51.5,7.5,4.,51.5,7.5,0.,51.5,7.5,4.,50.,7.5,0.,50.,7.5,4.,     145P    204
48.5,7.5,0.,48.5,9.,4.,48.5,9.,0.,48.5,10.5,4.,48.5,10.5,0.,         145P    205
48.5,10.5,4.,50.,10.5,0.,50.,0.,2.66666666666667,                    145P    206
-3.14159265358979,3.14159265358979;                                  145P    207
128,1,1,1,1,0,0,1,0,0,0.5,0.5,1.3,1.3,0.,0.,0.4,0.4,1.,1.,1.,1.,     147P    208
5.,0.,60.,13.,0.,60.,5.,4.,60.,13.,4.,60.,0.5,1.3,0.,0.4;            147P    209
502,22,17.,0.,4.,13.,0.,0.,13.,4.,0.,17.,4.,4.,17.,0.,56.,13.,       149P    210
0.,60.,5.,0.,60.,1.,0.,56.,1.,0.,4.,5.,0.,0.,10.5,0.,50.,10.5,       149P    211
0.,10.,17.,4.,56.,13.,4.,60.,1.,4.,4.,5.,4.,0.,1.,4.,56.,5.,4.,      149P    212
60.,7.5,4.,50.,10.5,4.,50.,9.,4.,8.5,10.5,4.,10.;                    149P    213
504,32,61,149,1,149,2,63,149,2,149,3,65,149,3,149,4,67,149,4,        151P    214
149,1,69,149,1,149,5,71,149,6,149,5,73,149,6,149,7,75,149,8,149,     151P    215
7,77,149,8,149,9,79,149,10,149,9,81,149,10,149,2,83,149,11,149,      151P    216
11,85,149,12,149,12,87,149,13,149,4,89,149,5,149,13,91,149,13,       151P    217
149,14,93,149,14,149,6,95,149,15,149,16,97,149,16,149,10,99,149,     151P    218
9,149,15,101,149,17,149,8,103,149,15,149,17,105,149,7,149,18,        151P    219
107,149,18,149,17,109,149,3,149,16,111,149,18,149,14,113,149,19,     151P    220
149,20,115,149,20,149,19,117,149,21,149,22,119,149,22,149,21,        151P    221
121,149,22,149,12,123,149,20,149,11;                                 151P    222
406,1,5HBody1;                                                       153P    223
314,62.7450980392157,62.7450980392157,62.7450980392157,13HSteel      155P    224
- Satin;                                                             155P    225
S      1G      2D    156P    225                                        T      1
