                                                                        S      1
,,7HSpacer1,7HSpacer1,7Hunknown,7Hunknown,32,38,7,99,15,,1.,2,2HMM,1,   G      1
0.08,15H20150531.222311,0.01,10000.,7Hunknown,7Hunknown,11,0,;          G      2
     186       1                                                00000000D      1
     186             -51       1       0                               0D      2
     514       2                                                00010000D      3
     514                       1       1                               0D      4
     510       3                                                00010000D      5
     510             -51       1       1                               0D      6
     510       4                                                00010000D      7
     510             -51       1       1                               0D      8
     510       5                                                00010000D      9
     510             -51       1       1                               0D     10
     510       6                                                00010000D     11
     510             -51       1       1                               0D     12
     508       7                                                00010000D     13
     508                       1       1                               0D     14
     508       8                                                00010000D     15
     508                       1       1                               0D     16
     508       9                                                00010000D     17
     508                       1       1                               0D     18
     508      10                                                00010000D     19
     508                       1       1                               0D     20
     508      11                                                00010000D     21
     508                       1       1                               0D     22
     508      12                                                00010000D     23
     508                       1       1                               0D     24
     126      13                                                00010000D     25
     126       0              15       0                               0D     26
     126      28                                                00010000D     27
     126       0               4       0                               0D     28
     126      32                                                00010000D     29
     126       0              15       0                               0D     30
     126      47                                                00010000D     31
     126       0              15       0                               0D     32
     126      62                                                00010000D     33
     126       0               5       0                               0D     34
     126      67                                                00010000D     35
     126       0              15       0                               0D     36
     128      82                                                00010000D     37
     128       0     -51      27       0                               0D     38
     128     109                                                00010000D     39
     128       0     -51      28       0                               0D     40
     128     137                                                00010000D     41
     128       0     -51       6       0                               0D     42
     128     143                                                00010000D     43
     128       0     -51       6       0                               0D     44
     502     149                                                00010000D     45
     502                       4       1                               0D     46
     504     153                                                00010001D     47
     504                       2       1                               0D     48
     406     155                                                00000000D     49
     406                       1      15                               0D     50
     314     156                                                00000200D     51
     314                       2       0                               0D     52
186,3,1,0,0,1,49;                                                      1P      1
514,4,5,1,7,1,9,1,11,1;                                                3P      2
510,37,1,1,13;                                                         5P      3
510,39,1,1,15;                                                         7P      4
510,41,2,1,17,19;                                                      9P      5
510,43,2,1,21,23;                                                     11P      6
508,4,0,47,1,0,0,0,47,2,1,0,0,47,3,1,0,0,47,2,0,0;                    13P      7
508,4,0,47,4,0,0,0,47,5,1,0,0,47,6,1,0,0,47,5,0,0;                    15P      8
508,1,0,47,4,1,0;                                                     17P      9
508,1,0,47,1,1,0;                                                     19P     10
508,1,0,47,6,0,0;                                                     21P     11
508,1,0,47,3,0,0;                                                     23P     12
126,8,2,0,1,0,0,-3.14159265358979,-3.14159265358979,                  25P     13
-3.14159265358979,-1.5707963267949,-1.5707963267949,0.,0.,            25P     14
1.5707963267949,1.5707963267949,3.14159265358979,                     25P     15
3.14159265358979,3.14159265358979,1.,0.707106781186549,1.,            25P     16
0.707106781186549,1.,0.707106781186549,1.,0.707106781186549,1.,       25P     17
76.8591888150006,22.1883184574946,-3.54750655723971,                  25P     18
76.8591888150006,26.1883184574946,-3.54750655723971,                  25P     19
72.8591888150006,26.1883184574946,-3.54750655723971,                  25P     20
68.8591888150006,26.1883184574946,-3.54750655723971,                  25P     21
68.8591888150006,22.1883184574946,-3.54750655723971,                  25P     22
68.8591888150006,18.1883184574946,-3.54750655723971,                  25P     23
72.8591888150006,18.1883184574946,-3.54750655723971,                  25P     24
76.8591888150006,18.1883184574946,-3.54750655723971,                  25P     25
76.8591888150006,22.1883184574946,-3.54750655723971,                  25P     26
-3.14159265358979,3.14159265358979,0.,0.,0.;                          25P     27
126,1,1,0,0,1,0,-2.75,-2.75,3.30328431946836D-17,                     27P     28
3.30328431946836D-17,1.,1.,76.8591888150006,22.1883184574946,         27P     29
-3.54750655723971,76.8591888150006,22.1883184574946,                  27P     30
7.45249344276029,-2.75,3.30328431946836D-17,0.,0.,0.;                 27P     31
126,8,2,0,1,0,0,-3.14159265358979,-3.14159265358979,                  29P     32
-3.14159265358979,-1.5707963267949,-1.5707963267949,0.,0.,            29P     33
1.5707963267949,1.5707963267949,3.14159265358979,                     29P     34
3.14159265358979,3.14159265358979,1.,0.707106781186549,1.,            29P     35
0.707106781186549,1.,0.707106781186549,1.,0.707106781186549,1.,       29P     36
76.8591888150006,22.1883184574946,7.45249344276029,                   29P     37
76.8591888150006,26.1883184574946,7.45249344276029,                   29P     38
72.8591888150006,26.1883184574946,7.45249344276029,                   29P     39
68.8591888150006,26.1883184574946,7.45249344276029,                   29P     40
68.8591888150006,22.1883184574946,7.45249344276029,                   29P     41
68.8591888150006,18.1883184574946,7.45249344276029,                   29P     42
72.8591888150006,18.1883184574946,7.45249344276029,                   29P     43
76.8591888150006,18.1883184574946,7.45249344276029,                   29P     44
76.8591888150006,22.1883184574946,7.45249344276029,                   29P     45
-3.14159265358979,3.14159265358979,0.,0.,0.;                          29P     46
126,8,2,0,1,0,0,-3.14159265358979,-3.14159265358979,                  31P     47
-3.14159265358979,-1.5707963267949,-1.5707963267949,0.,0.,            31P     48
1.5707963267949,1.5707963267949,3.14159265358979,                     31P     49
3.14159265358979,3.14159265358979,1.,0.707106781186549,1.,            31P     50
0.707106781186548,1.,0.707106781186548,1.,0.707106781186548,1.,       31P     51
78.8591888150006,22.1883184574946,-3.54750655723971,                  31P     52
78.8591888150006,16.1883184574946,-3.54750655723971,                  31P     53
72.8591888150006,16.1883184574946,-3.54750655723971,                  31P     54
66.8591888150006,16.1883184574946,-3.54750655723971,                  31P     55
66.8591888150006,22.1883184574946,-3.54750655723971,                  31P     56
66.8591888150006,28.1883184574946,-3.54750655723971,                  31P     57
72.8591888150006,28.1883184574946,-3.54750655723971,                  31P     58
78.8591888150006,28.1883184574946,-3.54750655723971,                  31P     59
78.8591888150006,22.1883184574946,-3.54750655723971,                  31P     60
-3.14159265358979,3.14159265358979,0.,0.,0.;                          31P     61
126,1,1,0,0,1,0,-1.83333333333333,-1.83333333333333,                  33P     62
3.30328431946836D-17,3.30328431946836D-17,1.,1.,                      33P     63
78.8591888150006,22.1883184574946,-3.54750655723971,                  33P     64
78.8591888150006,22.1883184574946,7.45249344276029,                   33P     65
-1.83333333333333,3.30328431946836D-17,0.,0.,0.;                      33P     66
126,8,2,0,1,0,0,-3.14159265358979,-3.14159265358979,                  35P     67
-3.14159265358979,-1.5707963267949,-1.5707963267949,0.,0.,            35P     68
1.5707963267949,1.5707963267949,3.14159265358979,                     35P     69
3.14159265358979,3.14159265358979,1.,0.707106781186549,1.,            35P     70
0.707106781186548,1.,0.707106781186548,1.,0.707106781186548,1.,       35P     71
78.8591888150006,22.1883184574946,7.45249344276029,                   35P     72
78.8591888150006,16.1883184574946,7.45249344276029,                   35P     73
72.8591888150006,16.1883184574946,7.45249344276029,                   35P     74
66.8591888150006,16.1883184574946,7.45249344276029,                   35P     75
66.8591888150006,22.1883184574946,7.45249344276029,                   35P     76
66.8591888150006,28.1883184574946,7.45249344276029,                   35P     77
72.8591888150006,28.1883184574946,7.45249344276029,                   35P     78
78.8591888150006,28.1883184574946,7.45249344276029,                   35P     79
78.8591888150006,22.1883184574946,7.45249344276029,                   35P     80
-3.14159265358979,3.14159265358979,0.,0.,0.;                          35P     81
128,1,8,1,2,0,1,0,0,1,-3.30328431946836D-17,                          37P     82
-3.30328431946836D-17,2.75,2.75,-3.14159265358979,                    37P     83
-3.14159265358979,-3.14159265358979,-1.5707963267949,                 37P     84
-1.5707963267949,0.,0.,1.5707963267949,1.5707963267949,               37P     85
3.14159265358979,3.14159265358979,3.14159265358979,1.,1.,             37P     86
0.707106781186548,0.707106781186548,1.,1.,0.707106781186548,          37P     87
0.707106781186548,1.,1.,0.707106781186548,0.707106781186548,1.,       37P     88
1.,0.707106781186548,0.707106781186548,1.,1.,76.8591888150006,        37P     89
22.1883184574946,7.45249344276029,76.8591888150006,                   37P     90
22.1883184574946,-3.54750655723971,76.8591888150006,                  37P     91
18.1883184574946,7.45249344276029,76.8591888150006,                   37P     92
18.1883184574946,-3.54750655723971,72.8591888150006,                  37P     93
18.1883184574946,7.45249344276029,72.8591888150006,                   37P     94
18.1883184574946,-3.54750655723971,68.8591888150006,                  37P     95
18.1883184574946,7.45249344276029,68.8591888150006,                   37P     96
18.1883184574946,-3.54750655723971,68.8591888150006,                  37P     97
22.1883184574946,7.45249344276029,68.8591888150006,                   37P     98
22.1883184574946,-3.54750655723971,68.8591888150006,                  37P     99
26.1883184574946,7.45249344276029,68.8591888150006,                   37P    100
26.1883184574946,-3.54750655723971,72.8591888150006,                  37P    101
26.1883184574946,7.45249344276029,72.8591888150006,                   37P    102
26.1883184574946,-3.54750655723971,76.8591888150006,                  37P    103
26.1883184574946,7.45249344276029,76.8591888150006,                   37P    104
26.1883184574946,-3.54750655723971,76.8591888150006,                  37P    105
22.1883184574946,7.45249344276029,76.8591888150006,                   37P    106
22.1883184574946,-3.54750655723971,-3.30328431946836D-17,2.75,        37P    107
-3.14159265358979,3.14159265358979;                                   37P    108
128,1,8,1,2,0,1,0,0,1,-3.30328431946836D-17,                          39P    109
-3.30328431946836D-17,1.83333333333333,1.83333333333333,              39P    110
-3.14159265358979,-3.14159265358979,-3.14159265358979,                39P    111
-1.5707963267949,-1.5707963267949,0.,0.,1.5707963267949,              39P    112
1.5707963267949,3.14159265358979,3.14159265358979,                    39P    113
3.14159265358979,1.,1.,0.707106781186548,0.707106781186548,1.,        39P    114
1.,0.707106781186548,0.707106781186548,1.,1.,0.707106781186548,       39P    115
0.707106781186548,1.,1.,0.707106781186548,0.707106781186548,1.,       39P    116
1.,78.8591888150006,22.1883184574946,-3.54750655723971,               39P    117
78.8591888150006,22.1883184574946,7.45249344276029,                   39P    118
78.8591888150006,16.1883184574946,-3.54750655723971,                  39P    119
78.8591888150006,16.1883184574946,7.45249344276029,                   39P    120
72.8591888150006,16.1883184574946,-3.54750655723971,                  39P    121
72.8591888150006,16.1883184574946,7.45249344276029,                   39P    122
66.8591888150006,16.1883184574946,-3.54750655723971,                  39P    123
66.8591888150006,16.1883184574946,7.45249344276029,                   39P    124
66.8591888150006,22.1883184574946,-3.54750655723971,                  39P    125
66.8591888150006,22.1883184574946,7.45249344276029,                   39P    126
66.8591888150006,28.1883184574946,-3.54750655723971,                  39P    127
66.8591888150006,28.1883184574946,7.45249344276029,                   39P    128
72.8591888150006,28.1883184574946,-3.54750655723971,                  39P    129
72.8591888150006,28.1883184574946,7.45249344276029,                   39P    130
78.8591888150006,28.1883184574946,-3.54750655723971,                  39P    131
78.8591888150006,28.1883184574946,7.45249344276029,                   39P    132
78.8591888150006,22.1883184574946,-3.54750655723971,                  39P    133
78.8591888150006,22.1883184574946,7.45249344276029,                   39P    134
-3.30328431946836D-17,1.83333333333333,-3.14159265358979,             39P    135
3.14159265358979;                                                     39P    136
128,1,1,1,1,0,0,1,0,0,-0.6,-0.6,0.6,0.6,-0.6,-0.6,0.6,0.6,1.,1.,      41P    137
1.,1.,78.8591888150006,16.1883184574946,-3.54750655723971,            41P    138
66.8591888150006,16.1883184574946,-3.54750655723971,                  41P    139
78.8591888150006,28.1883184574946,-3.54750655723971,                  41P    140
66.8591888150006,28.1883184574946,-3.54750655723971,-0.6,0.6,         41P    141
-0.6,0.6;                                                             41P    142
128,1,1,1,1,0,0,1,0,0,-0.6,-0.6,0.6,0.6,-0.6,-0.6,0.6,0.6,1.,1.,      43P    143
1.,1.,66.8591888150006,16.1883184574946,7.45249344276029,             43P    144
78.8591888150006,16.1883184574946,7.45249344276029,                   43P    145
66.8591888150006,28.1883184574946,7.45249344276029,                   43P    146
78.8591888150006,28.1883184574946,7.45249344276029,-0.6,0.6,          43P    147
-0.6,0.6;                                                             43P    148
502,4,76.8591888150006,22.1883184574946,-3.54750655723971,            45P    149
76.8591888150006,22.1883184574946,7.45249344276029,                   45P    150
78.8591888150006,22.1883184574946,-3.54750655723971,                  45P    151
78.8591888150006,22.1883184574946,7.45249344276029;                   45P    152
504,6,25,45,1,45,1,27,45,1,45,2,29,45,2,45,2,31,45,3,45,3,33,45,      47P    153
3,45,4,35,45,4,45,4;                                                  47P    154
406,1,5HBody1;                                                        49P    155
314,62.7450980392157,62.7450980392157,62.7450980392157,13HSteel       51P    156
- Satin;                                                              51P    157
S      1G      2D     52P    157                                        T      1
