                                                                        S      1
,,7HSpacer1,7HSpacer1,7Hunknown,7Hunknown,32,38,7,99,15,,1.,2,2HMM,1,   G      1
0.08,15H20150602.205048,0.01,10000.,7Hunknown,7Hunknown,11,0,;          G      2
     186       1                                                00000000D      1
     186             -51       1       0                               0D      2
     514       2                                                00010000D      3
     514                       1       1                               0D      4
     510       3                                                00010000D      5
     510             -51       1       1                               0D      6
     510       4                                                00010000D      7
     510             -51       1       1                               0D      8
     510       5                                                00010000D      9
     510             -51       1       1                               0D     10
     510       6                                                00010000D     11
     510             -51       1       1                               0D     12
     508       7                                                00010000D     13
     508                       1       1                               0D     14
     508       8                                                00010000D     15
     508                       1       1                               0D     16
     508       9                                                00010000D     17
     508                       1       1                               0D     18
     508      10                                                00010000D     19
     508                       1       1                               0D     20
     508      11                                                00010000D     21
     508                       1       1                               0D     22
     508      12                                                00010000D     23
     508                       1       1                               0D     24
     126      13                                                00010000D     25
     126       0              15       0                               0D     26
     126      28                                                00010000D     27
     126       0              15       0                               0D     28
     126      43                                                00010000D     29
     126       0              15       0                               0D     30
     126      58                                                00010000D     31
     126       0               5       0                               0D     32
     126      63                                                00010000D     33
     126       0               5       0                               0D     34
     126      68                                                00010000D     35
     126       0              15       0                               0D     36
     128      83                                                00010000D     37
     128       0     -51       9       0                               0D     38
     128      92                                                00010000D     39
     128       0     -51      27       0                               0D     40
     128     119                                                00010000D     41
     128       0     -51      27       0                               0D     42
     128     146                                                00010000D     43
     128       0     -51       9       0                               0D     44
     502     155                                                00010000D     45
     502                       4       1                               0D     46
     504     159                                                00010001D     47
     504                       2       1                               0D     48
     406     161                                                00000000D     49
     406                       1      15                               0D     50
     314     162                                                00000200D     51
     314                       2       0                               0D     52
186,3,1,0,0,1,49;                                                      1P      1
514,4,5,1,7,1,9,1,11,1;                                                3P      2
510,37,2,1,13,15;                                                      5P      3
510,39,1,1,17;                                                         7P      4
510,41,1,1,19;                                                         9P      5
510,43,2,1,21,23;                                                     11P      6
508,1,0,47,1,0,0;                                                     13P      7
508,1,0,47,2,0,0;                                                     15P      8
508,4,0,47,3,0,0,0,47,4,1,0,0,47,1,1,0,0,47,4,0,0;                    17P      9
508,4,0,47,2,1,0,0,47,5,1,0,0,47,6,0,0,0,47,5,0,0;                    19P     10
508,1,0,47,3,1,0;                                                     21P     11
508,1,0,47,6,1,0;                                                     23P     12
126,8,2,0,1,0,0,-3.14159265358979,-3.14159265358979,                  25P     13
-3.14159265358979,-1.5707963267949,-1.5707963267949,0.,0.,            25P     14
1.5707963267949,1.5707963267949,3.14159265358979,                     25P     15
3.14159265358979,3.14159265358979,1.,0.707106781186549,1.,            25P     16
0.707106781186549,1.,0.707106781186549,1.,0.707106781186549,1.,       25P     17
66.3591888150006,22.1883184574946,5.95249344276029,                   25P     18
66.3591888150006,28.6883184574946,5.95249344276029,                   25P     19
72.8591888150006,28.6883184574946,5.95249344276029,                   25P     20
79.3591888150006,28.6883184574946,5.95249344276029,                   25P     21
79.3591888150006,22.1883184574946,5.95249344276029,                   25P     22
79.3591888150006,15.6883184574946,5.95249344276029,                   25P     23
72.8591888150006,15.6883184574946,5.95249344276029,                   25P     24
66.3591888150006,15.6883184574946,5.95249344276029,                   25P     25
66.3591888150006,22.1883184574946,5.95249344276029,                   25P     26
-3.14159265358979,3.14159265358979,0.,0.,0.;                          25P     27
126,8,2,0,1,0,0,-3.14159265358979,-3.14159265358979,                  27P     28
-3.14159265358979,-1.5707963267949,-1.5707963267949,0.,0.,            27P     29
1.5707963267949,1.5707963267949,3.14159265358979,                     27P     30
3.14159265358979,3.14159265358979,1.,0.707106781186549,1.,            27P     31
0.707106781186548,1.,0.707106781186549,1.,0.707106781186549,1.,       27P     32
68.3591888150006,22.1883184574946,5.95249344276029,                   27P     33
68.3591888150006,17.6883184574946,5.95249344276029,                   27P     34
72.8591888150006,17.6883184574946,5.95249344276029,                   27P     35
77.3591888150006,17.6883184574946,5.95249344276029,                   27P     36
77.3591888150006,22.1883184574946,5.95249344276029,                   27P     37
77.3591888150006,26.6883184574946,5.95249344276029,                   27P     38
72.8591888150006,26.6883184574946,5.95249344276029,                   27P     39
68.3591888150006,26.6883184574946,5.95249344276029,                   27P     40
68.3591888150006,22.1883184574946,5.95249344276029,                   27P     41
-3.14159265358979,3.14159265358979,0.,0.,0.;                          27P     42
126,8,2,0,1,0,0,-3.14159265358979,-3.14159265358979,                  29P     43
-3.14159265358979,-1.5707963267949,-1.5707963267949,0.,0.,            29P     44
1.5707963267949,1.5707963267949,3.14159265358979,                     29P     45
3.14159265358979,3.14159265358979,1.,0.707106781186549,1.,            29P     46
0.707106781186549,1.,0.707106781186549,1.,0.707106781186549,1.,       29P     47
66.3591888150006,22.1883184574946,-3.54750655723971,                  29P     48
66.3591888150006,28.6883184574946,-3.54750655723971,                  29P     49
72.8591888150006,28.6883184574946,-3.54750655723971,                  29P     50
79.3591888150006,28.6883184574946,-3.54750655723971,                  29P     51
79.3591888150006,22.1883184574946,-3.54750655723971,                  29P     52
79.3591888150006,15.6883184574946,-3.54750655723971,                  29P     53
72.8591888150006,15.6883184574946,-3.54750655723971,                  29P     54
66.3591888150006,15.6883184574946,-3.54750655723971,                  29P     55
66.3591888150006,22.1883184574946,-3.54750655723971,                  29P     56
-3.14159265358979,3.14159265358979,0.,0.,0.;                          29P     57
126,1,1,0,0,1,0,-1.69230769230769,-1.69230769230769,                  31P     58
-0.230769230769231,-0.230769230769231,1.,1.,66.3591888150006,         31P     59
22.1883184574946,-3.54750655723971,66.3591888150006,                  31P     60
22.1883184574946,5.95249344276029,-1.69230769230769,                  31P     61
-0.230769230769231,0.,0.,0.;                                          31P     62
126,1,1,0,0,1,0,0.333333333333333,0.333333333333333,                  33P     63
2.44444444444444,2.44444444444444,1.,1.,68.3591888150006,             33P     64
22.1883184574946,5.95249344276029,68.3591888150006,                   33P     65
22.1883184574946,-3.54750655723971,0.333333333333333,                 33P     66
2.44444444444444,0.,0.,0.;                                            33P     67
126,8,2,0,1,0,0,-3.14159265358979,-3.14159265358979,                  35P     68
-3.14159265358979,-1.5707963267949,-1.5707963267949,0.,0.,            35P     69
1.5707963267949,1.5707963267949,3.14159265358979,                     35P     70
3.14159265358979,3.14159265358979,1.,0.707106781186549,1.,            35P     71
0.707106781186548,1.,0.707106781186549,1.,0.707106781186549,1.,       35P     72
68.3591888150006,22.1883184574946,-3.54750655723971,                  35P     73
68.3591888150006,17.6883184574946,-3.54750655723971,                  35P     74
72.8591888150006,17.6883184574946,-3.54750655723971,                  35P     75
77.3591888150006,17.6883184574946,-3.54750655723971,                  35P     76
77.3591888150006,22.1883184574946,-3.54750655723971,                  35P     77
77.3591888150006,26.6883184574946,-3.54750655723971,                  35P     78
72.8591888150006,26.6883184574946,-3.54750655723971,                  35P     79
68.3591888150006,26.6883184574946,-3.54750655723971,                  35P     80
68.3591888150006,22.1883184574946,-3.54750655723971,                  35P     81
-3.14159265358979,3.14159265358979,0.,0.,0.;                          35P     82
128,1,1,1,1,0,0,1,0,0,-0.649999999999999,-0.649999999999999,          37P     83
0.649999999999999,0.649999999999999,-0.649999999999999,               37P     84
-0.649999999999999,0.649999999999999,0.649999999999999,1.,1.,1.,      37P     85
1.,66.3591888150006,15.6883184574946,5.95249344276029,                37P     86
79.3591888150006,15.6883184574946,5.95249344276029,                   37P     87
66.3591888150006,28.6883184574946,5.95249344276029,                   37P     88
79.3591888150006,28.6883184574946,5.95249344276029,                   37P     89
-0.649999999999999,0.649999999999999,-0.649999999999999,              37P     90
0.649999999999999;                                                    37P     91
128,1,8,1,2,0,1,0,0,1,0.230769230769231,0.230769230769231,            39P     92
1.69230769230769,1.69230769230769,-3.14159265358979,                  39P     93
-3.14159265358979,-3.14159265358979,-1.5707963267949,                 39P     94
-1.5707963267949,0.,0.,1.5707963267949,1.5707963267949,               39P     95
3.14159265358979,3.14159265358979,3.14159265358979,1.,1.,             39P     96
0.707106781186548,0.707106781186548,1.,1.,0.707106781186548,          39P     97
0.707106781186548,1.,1.,0.707106781186548,0.707106781186548,1.,       39P     98
1.,0.707106781186548,0.707106781186548,1.,1.,66.3591888150006,        39P     99
22.1883184574946,-3.54750655723971,66.3591888150006,                  39P    100
22.1883184574946,5.95249344276029,66.3591888150006,                   39P    101
28.6883184574946,-3.54750655723971,66.3591888150006,                  39P    102
28.6883184574946,5.95249344276029,72.8591888150006,                   39P    103
28.6883184574946,-3.54750655723971,72.8591888150006,                  39P    104
28.6883184574946,5.95249344276029,79.3591888150006,                   39P    105
28.6883184574946,-3.54750655723971,79.3591888150006,                  39P    106
28.6883184574946,5.95249344276029,79.3591888150006,                   39P    107
22.1883184574946,-3.54750655723971,79.3591888150006,                  39P    108
22.1883184574946,5.95249344276029,79.3591888150006,                   39P    109
15.6883184574946,-3.54750655723971,79.3591888150006,                  39P    110
15.6883184574946,5.95249344276029,72.8591888150006,                   39P    111
15.6883184574946,-3.54750655723971,72.8591888150006,                  39P    112
15.6883184574946,5.95249344276029,66.3591888150006,                   39P    113
15.6883184574946,-3.54750655723971,66.3591888150006,                  39P    114
15.6883184574946,5.95249344276029,66.3591888150006,                   39P    115
22.1883184574946,-3.54750655723971,66.3591888150006,                  39P    116
22.1883184574946,5.95249344276029,0.230769230769231,                  39P    117
1.69230769230769,-3.14159265358979,3.14159265358979;                  39P    118
128,1,8,1,2,0,1,0,0,1,0.333333333333333,0.333333333333333,            41P    119
2.44444444444444,2.44444444444444,-3.14159265358979,                  41P    120
-3.14159265358979,-3.14159265358979,-1.5707963267949,                 41P    121
-1.5707963267949,0.,0.,1.5707963267949,1.5707963267949,               41P    122
3.14159265358979,3.14159265358979,3.14159265358979,1.,1.,             41P    123
0.707106781186548,0.707106781186548,1.,1.,0.707106781186548,          41P    124
0.707106781186548,1.,1.,0.707106781186548,0.707106781186548,1.,       41P    125
1.,0.707106781186548,0.707106781186548,1.,1.,68.3591888150006,        41P    126
22.1883184574946,5.95249344276029,68.3591888150006,                   41P    127
22.1883184574946,-3.54750655723971,68.3591888150006,                  41P    128
26.6883184574946,5.95249344276029,68.3591888150006,                   41P    129
26.6883184574946,-3.54750655723971,72.8591888150006,                  41P    130
26.6883184574946,5.95249344276029,72.8591888150006,                   41P    131
26.6883184574946,-3.54750655723971,77.3591888150006,                  41P    132
26.6883184574946,5.95249344276029,77.3591888150006,                   41P    133
26.6883184574946,-3.54750655723971,77.3591888150006,                  41P    134
22.1883184574946,5.95249344276029,77.3591888150006,                   41P    135
22.1883184574946,-3.54750655723971,77.3591888150006,                  41P    136
17.6883184574946,5.95249344276029,77.3591888150006,                   41P    137
17.6883184574946,-3.54750655723971,72.8591888150006,                  41P    138
17.6883184574946,5.95249344276029,72.8591888150006,                   41P    139
17.6883184574946,-3.54750655723971,68.3591888150006,                  41P    140
17.6883184574946,5.95249344276029,68.3591888150006,                   41P    141
17.6883184574946,-3.54750655723971,68.3591888150006,                  41P    142
22.1883184574946,5.95249344276029,68.3591888150006,                   41P    143
22.1883184574946,-3.54750655723971,0.333333333333333,                 41P    144
2.44444444444444,-3.14159265358979,3.14159265358979;                  41P    145
128,1,1,1,1,0,0,1,0,0,-0.649999999999999,-0.649999999999999,          43P    146
0.649999999999999,0.649999999999999,-0.649999999999999,               43P    147
-0.649999999999999,0.649999999999999,0.649999999999999,1.,1.,1.,      43P    148
1.,79.3591888150006,15.6883184574946,-3.54750655723971,               43P    149
66.3591888150006,15.6883184574946,-3.54750655723971,                  43P    150
79.3591888150006,28.6883184574946,-3.54750655723971,                  43P    151
66.3591888150006,28.6883184574946,-3.54750655723971,                  43P    152
-0.649999999999999,0.649999999999999,-0.649999999999999,              43P    153
0.649999999999999;                                                    43P    154
502,4,66.3591888150006,22.1883184574946,5.95249344276029,             45P    155
68.3591888150006,22.1883184574946,5.95249344276029,                   45P    156
66.3591888150006,22.1883184574946,-3.54750655723971,                  45P    157
68.3591888150006,22.1883184574946,-3.54750655723971;                  45P    158
504,6,25,45,1,45,1,27,45,2,45,2,29,45,3,45,3,31,45,3,45,1,33,45,      47P    159
2,45,4,35,45,4,45,4;                                                  47P    160
406,1,5HBody1;                                                        49P    161
314,62.7450980392157,62.7450980392157,62.7450980392157,13HSteel       51P    162
- Satin;                                                              51P    163
S      1G      2D     52P    163                                        T      1
