                                                                        S      1
,,7HWasher2,7HWasher2,7Hunknown,7Hunknown,32,38,7,99,15,,1.,2,2HMM,1,   G      1
0.08,15H20150601.222258,0.01,10000.,7Hunknown,7Hunknown,11,0,;          G      2
     186       1                                                00000000D      1
     186             -79       1       0                               0D      2
     514       2                                                00010000D      3
     514                       1       1                               0D      4
     510       3                                                00010000D      5
     510             -79       1       1                               0D      6
     510       4                                                00010000D      7
     510             -79       1       1                               0D      8
     510       5                                                00010000D      9
     510             -79       1       1                               0D     10
     510       6                                                00010000D     11
     510             -79       1       1                               0D     12
     510       7                                                00010000D     13
     510             -79       1       1                               0D     14
     510       8                                                00010000D     15
     510             -79       1       1                               0D     16
     508       9                                                00010000D     17
     508                       1       1                               0D     18
     508      10                                                00010000D     19
     508                       1       1                               0D     20
     508      11                                                00010000D     21
     508                       1       1                               0D     22
     508      12                                                00010000D     23
     508                       1       1                               0D     24
     508      13                                                00010000D     25
     508                       1       1                               0D     26
     508      14                                                00010000D     27
     508                       1       1                               0D     28
     508      15                                                00010000D     29
     508                       1       1                               0D     30
     508      16                                                00010000D     31
     508                       1       1                               0D     32
     508      17                                                00010000D     33
     508                       1       1                               0D     34
     508      18                                                00010000D     35
     508                       1       1                               0D     36
     126      19                                                00010000D     37
     126       0              15       0                               0D     38
     126      34                                                00010000D     39
     126       0               5       0                               0D     40
     126      39                                                00010000D     41
     126       0              15       0                               0D     42
     126      54                                                00010000D     43
     126       0              15       0                               0D     44
     126      69                                                00010000D     45
     126       0               5       0                               0D     46
     126      74                                                00010000D     47
     126       0              15       0                               0D     48
     126      89                                                00010000D     49
     126       0              16       0                               0D     50
     126     105                                                00010000D     51
     126       0              16       0                               0D     52
     126     121                                                00010000D     53
     126       0              16       0                               0D     54
     126     137                                                00010000D     55
     126       0               3       0                               0D     56
     126     140                                                00010000D     57
     126       0               3       0                               0D     58
     126     143                                                00010000D     59
     126       0              16       0                               0D     60
     128     159                                                00010000D     61
     128       0     -79      28       0                               0D     62
     128     187                                                00010000D     63
     128       0     -79      28       0                               0D     64
     128     215                                                00010000D     65
     128       0     -79       9       0                               0D     66
     128     224                                                00010000D     67
     128       0     -79      28       0                               0D     68
     128     252                                                00010000D     69
     128       0     -79      28       0                               0D     70
     128     280                                                00010000D     71
     128       0     -79       9       0                               0D     72
     502     289                                                00010000D     73
     502                       8       1                               0D     74
     504     297                                                00010001D     75
     504                       3       1                               0D     76
     406     300                                                00000000D     77
     406                       1      15                               0D     78
     314     301                                                00000200D     79
     314                       2       0                               0D     80
186,3,1,0,0,1,77;                                                      1P      1
514,6,5,1,7,1,9,1,11,1,13,1,15,1;                                      3P      2
510,61,1,1,17;                                                         5P      3
510,63,1,1,19;                                                         7P      4
510,65,3,1,21,23,25;                                                   9P      5
510,67,1,1,27;                                                        11P      6
510,69,1,1,29;                                                        13P      7
510,71,3,1,31,33,35;                                                  15P      8
508,4,0,75,1,0,0,0,75,2,1,0,0,75,3,0,0,0,75,2,0,0;                    17P      9
508,4,0,75,4,0,0,0,75,5,1,0,0,75,6,0,0,0,75,5,0,0;                    19P     10
508,2,0,75,7,1,0,0,75,8,1,0;                                          21P     11
508,1,0,75,1,1,0;                                                     23P     12
508,1,0,75,4,1,0;                                                     25P     13
508,4,0,75,9,0,0,0,75,10,1,0,0,75,7,0,0,0,75,11,0,0;                  27P     14
508,4,0,75,12,0,0,0,75,11,1,0,0,75,8,0,0,0,75,10,0,0;                 29P     15
508,2,0,75,9,1,0,0,75,12,1,0;                                         31P     16
508,1,0,75,3,1,0;                                                     33P     17
508,1,0,75,6,1,0;                                                     35P     18
126,8,2,0,1,0,0,-3.14159265358979,-3.14159265358979,                  37P     19
-3.14159265358979,-1.5707963267949,-1.5707963267949,0.,0.,            37P     20
1.5707963267949,1.5707963267949,3.14159265358979,                     37P     21
3.14159265358979,3.14159265358979,1.,0.707106781186549,1.,            37P     22
0.707106781186548,1.,0.707106781186548,1.,0.707106781186548,1.,       37P     23
51.3591888150006,2.1883184574946,-6.54750655723971,                   37P     24
51.3591888150006,6.6883184574946,-6.54750655723971,                   37P     25
55.8591888150006,6.6883184574946,-6.54750655723971,                   37P     26
60.3591888150006,6.6883184574946,-6.54750655723971,                   37P     27
60.3591888150006,2.1883184574946,-6.54750655723971,                   37P     28
60.3591888150006,-2.3116815425054,-6.54750655723971,                  37P     29
55.8591888150006,-2.3116815425054,-6.54750655723971,                  37P     30
51.3591888150006,-2.3116815425054,-6.54750655723971,                  37P     31
51.3591888150006,2.1883184574946,-6.54750655723971,                   37P     32
-3.14159265358979,3.14159265358979,0.,0.,0.;                          37P     33
126,1,1,0,0,1,0,-1.66548672026257D-18,-1.66548672026257D-18,          39P     34
0.222222222222222,0.222222222222222,1.,1.,51.3591888150006,           39P     35
2.1883184574946,-6.54750655723971,51.3591888150006,                   39P     36
2.1883184574946,-7.54750655723971,-1.66548672026257D-18,              39P     37
0.222222222222222,0.,0.,0.;                                           39P     38
126,8,2,0,1,0,0,-3.14159265358979,-3.14159265358979,                  41P     39
-3.14159265358979,-1.5707963267949,-1.5707963267949,0.,0.,            41P     40
1.5707963267949,1.5707963267949,3.14159265358979,                     41P     41
3.14159265358979,3.14159265358979,1.,0.707106781186548,1.,            41P     42
0.707106781186548,1.,0.707106781186548,1.,0.707106781186549,1.,       41P     43
51.3591888150006,2.1883184574946,-7.54750655723971,                   41P     44
51.3591888150006,-2.3116815425054,-7.54750655723971,                  41P     45
55.8591888150006,-2.3116815425054,-7.54750655723971,                  41P     46
60.3591888150006,-2.3116815425054,-7.54750655723971,                  41P     47
60.3591888150006,2.1883184574946,-7.54750655723971,                   41P     48
60.3591888150006,6.6883184574946,-7.54750655723971,                   41P     49
55.8591888150006,6.6883184574946,-7.54750655723971,                   41P     50
51.3591888150006,6.6883184574946,-7.54750655723971,                   41P     51
51.3591888150006,2.1883184574946,-7.54750655723971,                   41P     52
-3.14159265358979,3.14159265358979,0.,0.,0.;                          41P     53
126,8,2,0,1,0,0,-3.14159265358979,-3.14159265358979,                  43P     54
-3.14159265358979,-1.5707963267949,-1.5707963267949,0.,0.,            43P     55
1.5707963267949,1.5707963267949,3.14159265358979,                     43P     56
3.14159265358979,3.14159265358979,1.,0.707106781186549,1.,            43P     57
0.707106781186549,1.,0.707106781186548,1.,0.707106781186549,1.,       43P     58
68.3591888150006,22.1883184574946,-6.54750655723971,                  43P     59
68.3591888150006,26.6883184574946,-6.54750655723971,                  43P     60
72.8591888150006,26.6883184574946,-6.54750655723971,                  43P     61
77.3591888150006,26.6883184574946,-6.54750655723971,                  43P     62
77.3591888150006,22.1883184574946,-6.54750655723971,                  43P     63
77.3591888150006,17.6883184574946,-6.54750655723971,                  43P     64
72.8591888150006,17.6883184574946,-6.54750655723971,                  43P     65
68.3591888150006,17.6883184574946,-6.54750655723971,                  43P     66
68.3591888150006,22.1883184574946,-6.54750655723971,                  43P     67
-3.14159265358979,3.14159265358979,0.,0.,0.;                          43P     68
126,1,1,0,0,1,0,-1.66548672026257D-18,-1.66548672026257D-18,          45P     69
0.222222222222222,0.222222222222222,1.,1.,68.3591888150006,           45P     70
22.1883184574946,-6.54750655723971,68.3591888150006,                  45P     71
22.1883184574946,-7.54750655723971,-1.66548672026257D-18,             45P     72
0.222222222222222,0.,0.,0.;                                           45P     73
126,8,2,0,1,0,0,-3.14159265358979,-3.14159265358979,                  47P     74
-3.14159265358979,-1.5707963267949,-1.5707963267949,0.,0.,            47P     75
1.5707963267949,1.5707963267949,3.14159265358979,                     47P     76
3.14159265358979,3.14159265358979,1.,0.707106781186549,1.,            47P     77
0.707106781186548,1.,0.707106781186549,1.,0.707106781186549,1.,       47P     78
68.3591888150006,22.1883184574946,-7.54750655723971,                  47P     79
68.3591888150006,17.6883184574946,-7.54750655723971,                  47P     80
72.8591888150006,17.6883184574946,-7.54750655723971,                  47P     81
77.3591888150006,17.6883184574946,-7.54750655723971,                  47P     82
77.3591888150006,22.1883184574946,-7.54750655723971,                  47P     83
77.3591888150006,26.6883184574946,-7.54750655723971,                  47P     84
72.8591888150006,26.6883184574946,-7.54750655723971,                  47P     85
68.3591888150006,26.6883184574946,-7.54750655723971,                  47P     86
68.3591888150006,22.1883184574946,-7.54750655723971,                  47P     87
-3.14159265358979,3.14159265358979,0.,0.,0.;                          47P     88
126,8,2,0,0,0,0,-1.76984791706367,-1.76984791706367,                  49P     89
-1.76984791706367,-0.451772827255494,-0.451772827255494,              49P     90
0.866302262552679,0.866302262552679,2.18437735236085,                 49P     91
2.18437735236085,3.50245244216902,3.50245244216902,                   49P     92
3.50245244216902,1.,0.790581962952137,1.,0.790581962952139,1.,        49P     93
0.790581962952135,1.,0.790581962952139,1.,58.8252848685769,           49P     94
16.8921368119547,-6.54750655723971,47.4362382101086,                  49P     95
19.1895676923786,-6.54750655723971,42.3640702801823,                  49P     96
8.736736261148,-6.54750655723971,37.2919023502561,                    49P     97
-1.71609517008261,-6.54750655723971,46.1444625135675,                 49P     98
-9.24077130889729,-6.54750655723971,54.9970226768788,                 49P     99
-16.765447447712,-6.54750655723971,64.4961732327787,                  49P    100
-10.0755512485589,-6.54750655723971,73.9953237886785,                 49P    101
-3.38565504940591,-6.54750655723971,69.8930927614242,                 49P    102
7.4845001030345,-6.54750655723971,-1.76984791706367,                  49P    103
3.50245244216902,0.,0.,0.;                                            49P    104
126,8,2,0,0,0,0,1.37174473652613,1.37174473652613,                    51P    105
1.37174473652613,2.6898198263343,2.6898198263343,                     51P    106
4.00789491614247,4.00789491614247,5.32597000595064,                   51P    107
5.32597000595064,6.64404509575882,6.64404509575882,                   51P    108
6.64404509575882,1.,0.790581962952134,1.,0.790581962952136,1.,        51P    109
0.790581962952135,1.,0.790581962952138,1.,69.8930927614242,           51P    110
7.4845001030345,-6.54750655723971,81.2821394198926,                   51P    111
5.18706922261064,-6.54750655723971,86.3543073498188,                  51P    112
15.6399006538412,-6.54750655723971,91.4264752797451,                  51P    113
26.0927320850719,-6.54750655723971,82.5739151164337,                  51P    114
33.6174082238865,-6.54750655723971,73.7213549531223,                  51P    115
41.1420843627012,-6.54750655723971,64.2222043972225,                  51P    116
34.4521881635482,-6.54750655723971,54.7230538413226,                  51P    117
27.7622919643952,-6.54750655723971,58.8252848685769,                  51P    118
16.8921368119547,-6.54750655723971,1.37174473652613,                  51P    119
6.64404509575882,0.,0.,0.;                                            51P    120
126,8,2,0,0,0,0,-3.50245244216902,-3.50245244216902,                  53P    121
-3.50245244216902,-2.18437735236085,-2.18437735236085,                53P    122
-0.866302262552679,-0.866302262552679,0.451772827255494,              53P    123
0.451772827255494,1.76984791706367,1.76984791706367,                  53P    124
1.76984791706367,1.,0.790581962952139,1.,0.790581962952134,1.,        53P    125
0.790581962952138,1.,0.790581962952136,1.,69.8930927614242,           53P    126
7.4845001030345,-7.54750655723971,73.9953237886785,                   53P    127
-3.38565504940591,-7.54750655723971,64.4961732327787,                 53P    128
-10.0755512485589,-7.54750655723971,54.9970226768788,                 53P    129
-16.765447447712,-7.54750655723971,46.1444625135675,                  53P    130
-9.24077130889729,-7.54750655723971,37.2919023502561,                 53P    131
-1.71609517008261,-7.54750655723971,42.3640702801823,                 53P    132
8.736736261148,-7.54750655723971,47.4362382101086,                    53P    133
19.1895676923786,-7.54750655723971,58.8252848685769,                  53P    134
16.8921368119547,-7.54750655723971,-3.50245244216902,                 53P    135
1.76984791706367,0.,0.,0.;                                            53P    136
126,1,1,0,0,1,0,0.,0.,0.1,0.1,1.,1.,69.8930927614242,                 55P    137
7.4845001030345,-7.54750655723971,69.8930927614242,                   55P    138
7.4845001030345,-6.54750655723971,0.,0.1,0.,0.,0.;                    55P    139
126,1,1,0,0,1,0,0.,0.,0.1,0.1,1.,1.,58.8252848685769,                 57P    140
16.8921368119547,-7.54750655723971,58.8252848685769,                  57P    141
16.8921368119547,-6.54750655723971,0.,0.1,0.,0.,0.;                   57P    142
126,8,2,0,0,0,0,-6.64404509575882,-6.64404509575882,                  59P    143
-6.64404509575882,-5.32597000595064,-5.32597000595064,                59P    144
-4.00789491614247,-4.00789491614247,-2.6898198263343,                 59P    145
-2.6898198263343,-1.37174473652613,-1.37174473652613,                 59P    146
-1.37174473652613,1.,0.790581962952138,1.,0.790581962952135,1.,       59P    147
0.790581962952136,1.,0.790581962952134,1.,58.8252848685769,           59P    148
16.8921368119547,-7.54750655723971,54.7230538413226,                  59P    149
27.7622919643952,-7.54750655723971,64.2222043972225,                  59P    150
34.4521881635482,-7.54750655723971,73.7213549531223,                  59P    151
41.1420843627012,-7.54750655723971,82.5739151164337,                  59P    152
33.6174082238865,-7.54750655723971,91.4264752797451,                  59P    153
26.0927320850719,-7.54750655723971,86.3543073498188,                  59P    154
15.6399006538412,-7.54750655723971,81.2821394198926,                  59P    155
5.18706922261064,-7.54750655723971,69.8930927614242,                  59P    156
7.4845001030345,-7.54750655723971,-6.64404509575882,                  59P    157
-1.37174473652613,0.,0.,0.;                                           59P    158
128,1,8,1,2,0,1,0,0,1,-1.66548672026257D-18,                          61P    159
-1.66548672026257D-18,0.222222222222222,0.222222222222222,            61P    160
-3.14159265358979,-3.14159265358979,-3.14159265358979,                61P    161
-1.5707963267949,-1.5707963267949,0.,0.,1.5707963267949,              61P    162
1.5707963267949,3.14159265358979,3.14159265358979,                    61P    163
3.14159265358979,1.,1.,0.707106781186548,0.707106781186548,1.,        61P    164
1.,0.707106781186548,0.707106781186548,1.,1.,0.707106781186548,       61P    165
0.707106781186548,1.,1.,0.707106781186548,0.707106781186548,1.,       61P    166
1.,51.3591888150006,2.1883184574946,-6.54750655723971,                61P    167
51.3591888150006,2.1883184574946,-7.54750655723971,                   61P    168
51.3591888150006,6.6883184574946,-6.54750655723971,                   61P    169
51.3591888150006,6.6883184574946,-7.54750655723971,                   61P    170
55.8591888150006,6.6883184574946,-6.54750655723971,                   61P    171
55.8591888150006,6.6883184574946,-7.54750655723971,                   61P    172
60.3591888150006,6.6883184574946,-6.54750655723971,                   61P    173
60.3591888150006,6.6883184574946,-7.54750655723971,                   61P    174
60.3591888150006,2.1883184574946,-6.54750655723971,                   61P    175
60.3591888150006,2.1883184574946,-7.54750655723971,                   61P    176
60.3591888150006,-2.3116815425054,-6.54750655723971,                  61P    177
60.3591888150006,-2.3116815425054,-7.54750655723971,                  61P    178
55.8591888150006,-2.3116815425054,-6.54750655723971,                  61P    179
55.8591888150006,-2.3116815425054,-7.54750655723971,                  61P    180
51.3591888150006,-2.3116815425054,-6.54750655723971,                  61P    181
51.3591888150006,-2.3116815425054,-7.54750655723971,                  61P    182
51.3591888150006,2.1883184574946,-6.54750655723971,                   61P    183
51.3591888150006,2.1883184574946,-7.54750655723971,                   61P    184
-1.66548672026257D-18,0.222222222222222,-3.14159265358979,            61P    185
3.14159265358979;                                                     61P    186
128,1,8,1,2,0,1,0,0,1,-1.66548672026257D-18,                          63P    187
-1.66548672026257D-18,0.222222222222222,0.222222222222222,            63P    188
-3.14159265358979,-3.14159265358979,-3.14159265358979,                63P    189
-1.5707963267949,-1.5707963267949,0.,0.,1.5707963267949,              63P    190
1.5707963267949,3.14159265358979,3.14159265358979,                    63P    191
3.14159265358979,1.,1.,0.707106781186548,0.707106781186548,1.,        63P    192
1.,0.707106781186548,0.707106781186548,1.,1.,0.707106781186548,       63P    193
0.707106781186548,1.,1.,0.707106781186548,0.707106781186548,1.,       63P    194
1.,68.3591888150006,22.1883184574946,-6.54750655723971,               63P    195
68.3591888150006,22.1883184574946,-7.54750655723971,                  63P    196
68.3591888150006,26.6883184574946,-6.54750655723971,                  63P    197
68.3591888150006,26.6883184574946,-7.54750655723971,                  63P    198
72.8591888150006,26.6883184574946,-6.54750655723971,                  63P    199
72.8591888150006,26.6883184574946,-7.54750655723971,                  63P    200
77.3591888150006,26.6883184574946,-6.54750655723971,                  63P    201
77.3591888150006,26.6883184574946,-7.54750655723971,                  63P    202
77.3591888150006,22.1883184574946,-6.54750655723971,                  63P    203
77.3591888150006,22.1883184574946,-7.54750655723971,                  63P    204
77.3591888150006,17.6883184574946,-6.54750655723971,                  63P    205
77.3591888150006,17.6883184574946,-7.54750655723971,                  63P    206
72.8591888150006,17.6883184574946,-6.54750655723971,                  63P    207
72.8591888150006,17.6883184574946,-7.54750655723971,                  63P    208
68.3591888150006,17.6883184574946,-6.54750655723971,                  63P    209
68.3591888150006,17.6883184574946,-7.54750655723971,                  63P    210
68.3591888150006,22.1883184574946,-6.54750655723971,                  63P    211
68.3591888150006,22.1883184574946,-7.54750655723971,                  63P    212
-1.66548672026257D-18,0.222222222222222,-3.14159265358979,            63P    213
3.14159265358979;                                                     63P    214
128,1,1,1,1,0,0,1,0,0,-2.23172864647444,-2.23172864647444,            65P    215
3.18172864647446,3.18172864647446,-3.54537659052066,                  65P    216
-3.54537659052066,2.24537659052066,2.24537659052066,1.,1.,1.,1.,      65P    217
37.2919023502561,-16.765447447712,-6.54750655723971,                  65P    218
91.4264752797451,-16.765447447712,-6.54750655723971,                  65P    219
37.2919023502561,41.1420843627012,-6.54750655723971,                  65P    220
91.4264752797451,41.1420843627012,-6.54750655723971,                  65P    221
-2.23172864647444,3.18172864647446,-3.54537659052066,                 65P    222
2.24537659052066;                                                     65P    223
128,1,8,1,2,0,0,0,0,0,-8.1000141523511D-17,-8.1000141523511D-17,      67P    224
0.0666666666666667,0.0666666666666667,-1.76984791706367,              67P    225
-1.76984791706367,-1.76984791706367,-0.451772827255494,               67P    226
-0.451772827255494,0.866302262552679,0.866302262552679,               67P    227
2.18437735236085,2.18437735236085,3.50245244216902,                   67P    228
3.50245244216902,3.50245244216902,1.,1.,0.790581962952135,            67P    229
0.790581962952135,1.,1.,0.790581962952135,0.790581962952135,1.,       67P    230
1.,0.790581962952135,0.790581962952135,1.,1.,0.790581962952135,       67P    231
0.790581962952135,1.,1.,58.8252848685769,16.8921368119547,            67P    232
-6.54750655723971,58.8252848685769,16.8921368119547,                  67P    233
-7.54750655723971,47.4362382101085,19.1895676923786,                  67P    234
-6.54750655723971,47.4362382101085,19.1895676923786,                  67P    235
-7.54750655723971,42.3640702801823,8.736736261148,                    67P    236
-6.54750655723971,42.3640702801823,8.736736261148,                    67P    237
-7.54750655723971,37.2919023502561,-1.71609517008261,                 67P    238
-6.54750655723971,37.2919023502561,-1.71609517008261,                 67P    239
-7.54750655723971,46.1444625135675,-9.24077130889728,                 67P    240
-6.54750655723971,46.1444625135675,-9.24077130889728,                 67P    241
-7.54750655723971,54.9970226768788,-16.765447447712,                  67P    242
-6.54750655723971,54.9970226768788,-16.765447447712,                  67P    243
-7.54750655723971,64.4961732327787,-10.0755512485589,                 67P    244
-6.54750655723971,64.4961732327787,-10.0755512485589,                 67P    245
-7.54750655723971,73.9953237886785,-3.38565504940592,                 67P    246
-6.54750655723971,73.9953237886785,-3.38565504940592,                 67P    247
-7.54750655723971,69.8930927614242,7.48450010303449,                  67P    248
-6.54750655723971,69.8930927614242,7.48450010303449,                  67P    249
-7.54750655723971,-8.1000141523511D-17,0.0666666666666667,            67P    250
-1.76984791706367,3.50245244216902;                                   67P    251
128,1,8,1,2,0,0,0,0,0,-1.3888196827493D-18,-1.3888196827493D-18,      69P    252
0.0666666666666667,0.0666666666666667,1.37174473652613,               69P    253
1.37174473652613,1.37174473652613,2.6898198263343,                    69P    254
2.6898198263343,4.00789491614247,4.00789491614247,                    69P    255
5.32597000595064,5.32597000595064,6.64404509575882,                   69P    256
6.64404509575882,6.64404509575882,1.,1.,0.790581962952135,            69P    257
0.790581962952135,1.,1.,0.790581962952135,0.790581962952135,1.,       69P    258
1.,0.790581962952135,0.790581962952135,1.,1.,0.790581962952135,       69P    259
0.790581962952135,1.,1.,69.8930927614242,7.4845001030345,             69P    260
-6.54750655723971,69.8930927614242,7.4845001030345,                   69P    261
-7.54750655723971,81.2821394198926,5.18706922261064,                  69P    262
-6.54750655723971,81.2821394198926,5.18706922261064,                  69P    263
-7.54750655723971,86.3543073498188,15.6399006538412,                  69P    264
-6.54750655723971,86.3543073498188,15.6399006538412,                  69P    265
-7.54750655723971,91.4264752797451,26.0927320850719,                  69P    266
-6.54750655723971,91.4264752797451,26.0927320850719,                  69P    267
-7.54750655723971,82.5739151164337,33.6174082238865,                  69P    268
-6.54750655723971,82.5739151164337,33.6174082238865,                  69P    269
-7.54750655723971,73.7213549531223,41.1420843627012,                  69P    270
-6.54750655723971,73.7213549531223,41.1420843627012,                  69P    271
-7.54750655723971,64.2222043972225,34.4521881635482,                  69P    272
-6.54750655723971,64.2222043972225,34.4521881635482,                  69P    273
-7.54750655723971,54.7230538413226,27.7622919643951,                  69P    274
-6.54750655723971,54.7230538413226,27.7622919643951,                  69P    275
-7.54750655723971,58.8252848685769,16.8921368119547,                  69P    276
-6.54750655723971,58.8252848685769,16.8921368119547,                  69P    277
-7.54750655723971,-1.3888196827493D-18,0.0666666666666667,            69P    278
1.37174473652613,6.64404509575882;                                    69P    279
128,1,1,1,1,0,0,1,0,0,-2.23172864647444,-2.23172864647444,            71P    280
3.18172864647446,3.18172864647446,-3.54537659052066,                  71P    281
-3.54537659052066,2.24537659052066,2.24537659052066,1.,1.,1.,1.,      71P    282
91.4264752797451,-16.765447447712,-7.54750655723971,                  71P    283
37.2919023502561,-16.765447447712,-7.54750655723971,                  71P    284
91.4264752797451,41.1420843627012,-7.54750655723971,                  71P    285
37.2919023502561,41.1420843627012,-7.54750655723971,                  71P    286
-2.23172864647444,3.18172864647446,-3.54537659052066,                 71P    287
2.24537659052066;                                                     71P    288
502,8,51.3591888150006,2.1883184574946,-6.54750655723971,             73P    289
51.3591888150006,2.1883184574946,-7.54750655723971,                   73P    290
68.3591888150006,22.1883184574946,-6.54750655723971,                  73P    291
68.3591888150006,22.1883184574946,-7.54750655723971,                  73P    292
58.8252848685769,16.8921368119547,-6.54750655723971,                  73P    293
69.8930927614242,7.4845001030345,-6.54750655723971,                   73P    294
69.8930927614242,7.4845001030345,-7.54750655723971,                   73P    295
58.8252848685769,16.8921368119547,-7.54750655723971;                  73P    296
504,12,37,73,1,73,1,39,73,1,73,2,41,73,2,73,2,43,73,3,73,3,45,        75P    297
73,3,73,4,47,73,4,73,4,49,73,5,73,6,51,73,6,73,5,53,73,7,73,8,        75P    298
55,73,7,73,6,57,73,8,73,5,59,73,8,73,7;                               75P    299
406,1,5HBody1;                                                        77P    300
314,62.7450980392157,62.7450980392157,62.7450980392157,13HSteel       79P    301
- Satin;                                                              79P    302
S      1G      2D     80P    302                                        T      1
