                                                                        S      1
,,7HWasher3,7HWasher3,7Hunknown,7Hunknown,32,38,7,99,15,,1.,2,2HMM,1,   G      1
0.08,15H20150601.222521,0.01,10000.,7Hunknown,7Hunknown,11,0,;          G      2
     186       1                                                00000000D      1
     186             -51       1       0                               0D      2
     514       2                                                00010000D      3
     514                       1       1                               0D      4
     510       3                                                00010000D      5
     510             -51       1       1                               0D      6
     510       4                                                00010000D      7
     510             -51       1       1                               0D      8
     510       5                                                00010000D      9
     510             -51       1       1                               0D     10
     510       6                                                00010000D     11
     510             -51       1       1                               0D     12
     508       7                                                00010000D     13
     508                       1       1                               0D     14
     508       8                                                00010000D     15
     508                       1       1                               0D     16
     508       9                                                00010000D     17
     508                       1       1                               0D     18
     508      10                                                00010000D     19
     508                       1       1                               0D     20
     508      11                                                00010000D     21
     508                       1       1                               0D     22
     508      12                                                00010000D     23
     508                       1       1                               0D     24
     126      13                                                00010000D     25
     126       0              15       0                               0D     26
     126      28                                                00010000D     27
     126       0               5       0                               0D     28
     126      33                                                00010000D     29
     126       0              15       0                               0D     30
     126      48                                                00010000D     31
     126       0              15       0                               0D     32
     126      63                                                00010000D     33
     126       0               5       0                               0D     34
     126      68                                                00010000D     35
     126       0              15       0                               0D     36
     128      83                                                00010000D     37
     128       0     -51      28       0                               0D     38
     128     111                                                00010000D     39
     128       0     -51      28       0                               0D     40
     128     139                                                00010000D     41
     128       0     -51       9       0                               0D     42
     128     148                                                00010000D     43
     128       0     -51       9       0                               0D     44
     502     157                                                00010000D     45
     502                       4       1                               0D     46
     504     161                                                00010001D     47
     504                       2       1                               0D     48
     406     163                                                00000000D     49
     406                       1      15                               0D     50
     314     164                                                00000200D     51
     314                       2       0                               0D     52
186,3,1,0,0,1,49;                                                      1P      1
514,4,5,1,7,1,9,1,11,1;                                                3P      2
510,37,1,1,13;                                                         5P      3
510,39,1,1,15;                                                         7P      4
510,41,2,1,17,19;                                                      9P      5
510,43,2,1,21,23;                                                     11P      6
508,4,0,47,1,0,0,0,47,2,1,0,0,47,3,0,0,0,47,2,0,0;                    13P      7
508,4,0,47,4,0,0,0,47,5,1,0,0,47,6,1,0,0,47,5,0,0;                    15P      8
508,1,0,47,4,1,0;                                                     17P      9
508,1,0,47,3,1,0;                                                     19P     10
508,1,0,47,6,0,0;                                                     21P     11
508,1,0,47,1,1,0;                                                     23P     12
126,8,2,0,1,0,0,-3.14159265358979,-3.14159265358979,                  25P     13
-3.14159265358979,-1.5707963267949,-1.5707963267949,0.,0.,            25P     14
1.5707963267949,1.5707963267949,3.14159265358979,                     25P     15
3.14159265358979,3.14159265358979,1.,0.707106781186549,1.,            25P     16
0.707106781186549,1.,0.707106781186548,1.,0.707106781186549,1.,       25P     17
68.3591888150006,22.1883184574946,-7.54750655723971,                  25P     18
68.3591888150006,26.6883184574946,-7.54750655723971,                  25P     19
72.8591888150006,26.6883184574946,-7.54750655723971,                  25P     20
77.3591888150006,26.6883184574946,-7.54750655723971,                  25P     21
77.3591888150006,22.1883184574946,-7.54750655723971,                  25P     22
77.3591888150006,17.6883184574946,-7.54750655723971,                  25P     23
72.8591888150006,17.6883184574946,-7.54750655723971,                  25P     24
68.3591888150006,17.6883184574946,-7.54750655723971,                  25P     25
68.3591888150006,22.1883184574946,-7.54750655723971,                  25P     26
-3.14159265358979,3.14159265358979,0.,0.,0.;                          25P     27
126,1,1,0,0,1,0,-1.66548672026257D-18,-1.66548672026257D-18,          27P     28
0.111111111111111,0.111111111111111,1.,1.,68.3591888150006,           27P     29
22.1883184574946,-7.54750655723971,68.3591888150006,                  27P     30
22.1883184574946,-8.04750655723971,-1.66548672026257D-18,             27P     31
0.111111111111111,0.,0.,0.;                                           27P     32
126,8,2,0,1,0,0,-3.14159265358979,-3.14159265358979,                  29P     33
-3.14159265358979,-1.5707963267949,-1.5707963267949,0.,0.,            29P     34
1.5707963267949,1.5707963267949,3.14159265358979,                     29P     35
3.14159265358979,3.14159265358979,1.,0.707106781186549,1.,            29P     36
0.707106781186548,1.,0.707106781186549,1.,0.707106781186549,1.,       29P     37
68.3591888150006,22.1883184574946,-8.04750655723971,                  29P     38
68.3591888150006,17.6883184574946,-8.04750655723971,                  29P     39
72.8591888150006,17.6883184574946,-8.04750655723971,                  29P     40
77.3591888150006,17.6883184574946,-8.04750655723971,                  29P     41
77.3591888150006,22.1883184574946,-8.04750655723971,                  29P     42
77.3591888150006,26.6883184574946,-8.04750655723971,                  29P     43
72.8591888150006,26.6883184574946,-8.04750655723971,                  29P     44
68.3591888150006,26.6883184574946,-8.04750655723971,                  29P     45
68.3591888150006,22.1883184574946,-8.04750655723971,                  29P     46
-3.14159265358979,3.14159265358979,0.,0.,0.;                          29P     47
126,8,2,0,1,0,0,-3.14159265358979,-3.14159265358979,                  31P     48
-3.14159265358979,-1.5707963267949,-1.5707963267949,0.,0.,            31P     49
1.5707963267949,1.5707963267949,3.14159265358979,                     31P     50
3.14159265358979,3.14159265358979,1.,0.707106781186547,1.,            31P     51
0.707106781186545,1.,0.707106781186547,1.,0.707106781186547,1.,       31P     52
78.8591888150006,22.1883184574946,-8.04750655723971,                  31P     53
78.8591888150006,16.1883184574946,-8.04750655723971,                  31P     54
72.8591888150006,16.1883184574946,-8.04750655723971,                  31P     55
66.8591888150006,16.1883184574946,-8.04750655723971,                  31P     56
66.8591888150006,22.1883184574946,-8.04750655723971,                  31P     57
66.8591888150006,28.1883184574946,-8.04750655723971,                  31P     58
72.8591888150006,28.1883184574946,-8.04750655723971,                  31P     59
78.8591888150006,28.1883184574946,-8.04750655723971,                  31P     60
78.8591888150006,22.1883184574946,-8.04750655723971,                  31P     61
-3.14159265358979,3.14159265358979,0.,0.,0.;                          31P     62
126,1,1,0,0,1,0,-0.0833333333333334,-0.0833333333333334,              33P     63
3.30328431946836D-17,3.30328431946836D-17,1.,1.,                      33P     64
78.8591888150006,22.1883184574946,-8.04750655723971,                  33P     65
78.8591888150006,22.1883184574946,-7.54750655723971,                  33P     66
-0.0833333333333334,3.30328431946836D-17,0.,0.,0.;                    33P     67
126,8,2,0,1,0,0,-3.14159265358979,-3.14159265358979,                  35P     68
-3.14159265358979,-1.5707963267949,-1.5707963267949,0.,0.,            35P     69
1.5707963267949,1.5707963267949,3.14159265358979,                     35P     70
3.14159265358979,3.14159265358979,1.,0.707106781186547,1.,            35P     71
0.707106781186545,1.,0.707106781186547,1.,0.707106781186547,1.,       35P     72
78.8591888150006,22.1883184574946,-7.54750655723971,                  35P     73
78.8591888150006,16.1883184574946,-7.54750655723971,                  35P     74
72.8591888150006,16.1883184574946,-7.54750655723971,                  35P     75
66.8591888150006,16.1883184574946,-7.54750655723971,                  35P     76
66.8591888150006,22.1883184574946,-7.54750655723971,                  35P     77
66.8591888150006,28.1883184574946,-7.54750655723971,                  35P     78
72.8591888150006,28.1883184574946,-7.54750655723971,                  35P     79
78.8591888150006,28.1883184574946,-7.54750655723971,                  35P     80
78.8591888150006,22.1883184574946,-7.54750655723971,                  35P     81
-3.14159265358979,3.14159265358979,0.,0.,0.;                          35P     82
128,1,8,1,2,0,1,0,0,1,-1.66548672026257D-18,                          37P     83
-1.66548672026257D-18,0.111111111111111,0.111111111111111,            37P     84
-3.14159265358979,-3.14159265358979,-3.14159265358979,                37P     85
-1.5707963267949,-1.5707963267949,0.,0.,1.5707963267949,              37P     86
1.5707963267949,3.14159265358979,3.14159265358979,                    37P     87
3.14159265358979,1.,1.,0.707106781186548,0.707106781186548,1.,        37P     88
1.,0.707106781186548,0.707106781186548,1.,1.,0.707106781186548,       37P     89
0.707106781186548,1.,1.,0.707106781186548,0.707106781186548,1.,       37P     90
1.,68.3591888150006,22.1883184574946,-7.54750655723971,               37P     91
68.3591888150006,22.1883184574946,-8.04750655723971,                  37P     92
68.3591888150006,26.6883184574946,-7.54750655723971,                  37P     93
68.3591888150006,26.6883184574946,-8.04750655723971,                  37P     94
72.8591888150006,26.6883184574946,-7.54750655723971,                  37P     95
72.8591888150006,26.6883184574946,-8.04750655723971,                  37P     96
77.3591888150006,26.6883184574946,-7.54750655723971,                  37P     97
77.3591888150006,26.6883184574946,-8.04750655723971,                  37P     98
77.3591888150006,22.1883184574946,-7.54750655723971,                  37P     99
77.3591888150006,22.1883184574946,-8.04750655723971,                  37P    100
77.3591888150006,17.6883184574946,-7.54750655723971,                  37P    101
77.3591888150006,17.6883184574946,-8.04750655723971,                  37P    102
72.8591888150006,17.6883184574946,-7.54750655723971,                  37P    103
72.8591888150006,17.6883184574946,-8.04750655723971,                  37P    104
68.3591888150006,17.6883184574946,-7.54750655723971,                  37P    105
68.3591888150006,17.6883184574946,-8.04750655723971,                  37P    106
68.3591888150006,22.1883184574946,-7.54750655723971,                  37P    107
68.3591888150006,22.1883184574946,-8.04750655723971,                  37P    108
-1.66548672026257D-18,0.111111111111111,-3.14159265358979,            37P    109
3.14159265358979;                                                     37P    110
128,1,8,1,2,0,1,0,0,1,-3.30328431946836D-17,                          39P    111
-3.30328431946836D-17,0.0833333333333334,0.0833333333333334,          39P    112
-3.14159265358979,-3.14159265358979,-3.14159265358979,                39P    113
-1.5707963267949,-1.5707963267949,0.,0.,1.5707963267949,              39P    114
1.5707963267949,3.14159265358979,3.14159265358979,                    39P    115
3.14159265358979,1.,1.,0.707106781186548,0.707106781186548,1.,        39P    116
1.,0.707106781186548,0.707106781186548,1.,1.,0.707106781186548,       39P    117
0.707106781186548,1.,1.,0.707106781186548,0.707106781186548,1.,       39P    118
1.,78.8591888150006,22.1883184574946,-8.04750655723971,               39P    119
78.8591888150006,22.1883184574946,-7.54750655723971,                  39P    120
78.8591888150006,16.1883184574946,-8.04750655723971,                  39P    121
78.8591888150006,16.1883184574946,-7.54750655723971,                  39P    122
72.8591888150006,16.1883184574946,-8.04750655723971,                  39P    123
72.8591888150006,16.1883184574946,-7.54750655723971,                  39P    124
66.8591888150006,16.1883184574946,-8.04750655723971,                  39P    125
66.8591888150006,16.1883184574946,-7.54750655723971,                  39P    126
66.8591888150006,22.1883184574946,-8.04750655723971,                  39P    127
66.8591888150006,22.1883184574946,-7.54750655723971,                  39P    128
66.8591888150006,28.1883184574946,-8.04750655723971,                  39P    129
66.8591888150006,28.1883184574946,-7.54750655723971,                  39P    130
72.8591888150006,28.1883184574946,-8.04750655723971,                  39P    131
72.8591888150006,28.1883184574946,-7.54750655723971,                  39P    132
78.8591888150006,28.1883184574946,-8.04750655723971,                  39P    133
78.8591888150006,28.1883184574946,-7.54750655723971,                  39P    134
78.8591888150006,22.1883184574946,-8.04750655723971,                  39P    135
78.8591888150006,22.1883184574946,-7.54750655723971,                  39P    136
-3.30328431946836D-17,0.0833333333333334,-3.14159265358979,           39P    137
3.14159265358979;                                                     39P    138
128,1,1,1,1,0,0,1,0,0,-0.600000000000001,-0.600000000000001,          41P    139
0.600000000000001,0.600000000000001,-0.600000000000001,               41P    140
-0.600000000000001,0.600000000000001,0.600000000000001,1.,1.,1.,      41P    141
1.,78.8591888150006,16.1883184574946,-8.04750655723971,               41P    142
66.8591888150006,16.1883184574946,-8.04750655723971,                  41P    143
78.8591888150006,28.1883184574946,-8.04750655723971,                  41P    144
66.8591888150006,28.1883184574946,-8.04750655723971,                  41P    145
-0.600000000000001,0.600000000000001,-0.600000000000001,              41P    146
0.600000000000001;                                                    41P    147
128,1,1,1,1,0,0,1,0,0,-0.600000000000001,-0.600000000000001,          43P    148
0.600000000000001,0.600000000000001,-0.600000000000001,               43P    149
-0.600000000000001,0.600000000000001,0.600000000000001,1.,1.,1.,      43P    150
1.,66.8591888150006,16.1883184574946,-7.54750655723971,               43P    151
78.8591888150006,16.1883184574946,-7.54750655723971,                  43P    152
66.8591888150006,28.1883184574946,-7.54750655723971,                  43P    153
78.8591888150006,28.1883184574946,-7.54750655723971,                  43P    154
-0.600000000000001,0.600000000000001,-0.600000000000001,              43P    155
0.600000000000001;                                                    43P    156
502,4,68.3591888150006,22.1883184574946,-7.54750655723971,            45P    157
68.3591888150006,22.1883184574946,-8.04750655723971,                  45P    158
78.8591888150006,22.1883184574946,-8.04750655723971,                  45P    159
78.8591888150006,22.1883184574946,-7.54750655723971;                  45P    160
504,6,25,45,1,45,1,27,45,1,45,2,29,45,2,45,2,31,45,3,45,3,33,45,      47P    161
3,45,4,35,45,4,45,4;                                                  47P    162
406,1,5HBody1;                                                        49P    163
314,62.7450980392157,62.7450980392157,62.7450980392157,13HSteel       51P    164
- Satin;                                                              51P    165
S      1G      2D     52P    165                                        T      1
