                                                                        S      1
,,7HWasher2,7HWasher2,7Hunknown,7Hunknown,32,38,7,99,15,,1.,2,2HMM,1,   G      1
0.08,15H20150531.222501,0.01,10000.,7Hunknown,7Hunknown,11,0,;          G      2
     186       1                                                00000000D      1
     186             -79       1       0                               0D      2
     514       2                                                00010000D      3
     514                       1       1                               0D      4
     510       3                                                00010000D      5
     510             -79       1       1                               0D      6
     510       4                                                00010000D      7
     510             -79       1       1                               0D      8
     510       5                                                00010000D      9
     510             -79       1       1                               0D     10
     510       6                                                00010000D     11
     510             -79       1       1                               0D     12
     510       7                                                00010000D     13
     510             -79       1       1                               0D     14
     510       8                                                00010000D     15
     510             -79       1       1                               0D     16
     508       9                                                00010000D     17
     508                       1       1                               0D     18
     508      10                                                00010000D     19
     508                       1       1                               0D     20
     508      11                                                00010000D     21
     508                       1       1                               0D     22
     508      12                                                00010000D     23
     508                       1       1                               0D     24
     508      13                                                00010000D     25
     508                       1       1                               0D     26
     508      14                                                00010000D     27
     508                       1       1                               0D     28
     508      15                                                00010000D     29
     508                       1       1                               0D     30
     508      16                                                00010000D     31
     508                       1       1                               0D     32
     508      17                                                00010000D     33
     508                       1       1                               0D     34
     508      18                                                00010000D     35
     508                       1       1                               0D     36
     126      19                                                00010000D     37
     126       0              16       0                               0D     38
     126      35                                                00010000D     39
     126       0              16       0                               0D     40
     126      51                                                00010000D     41
     126       0              16       0                               0D     42
     126      67                                                00010000D     43
     126       0              15       0                               0D     44
     126      82                                                00010000D     45
     126       0              16       0                               0D     46
     126      98                                                00010000D     47
     126       0               3       0                               0D     48
     126     101                                                00010000D     49
     126       0               3       0                               0D     50
     126     104                                                00010000D     51
     126       0              16       0                               0D     52
     126     120                                                00010000D     53
     126       0              15       0                               0D     54
     126     135                                                00010000D     55
     126       0               3       0                               0D     56
     126     138                                                00010000D     57
     126       0              15       0                               0D     58
     126     153                                                00010000D     59
     126       0               3       0                               0D     60
     128     156                                                00010000D     61
     128       0     -79       9       0                               0D     62
     128     165                                                00010000D     63
     128       0     -79      28       0                               0D     64
     128     193                                                00010000D     65
     128       0     -79      28       0                               0D     66
     128     221                                                00010000D     67
     128       0     -79      26       0                               0D     68
     128     247                                                00010000D     69
     128       0     -79      26       0                               0D     70
     128     273                                                00010000D     71
     128       0     -79       9       0                               0D     72
     502     282                                                00010000D     73
     502                       8       1                               0D     74
     504     290                                                00010001D     75
     504                       3       1                               0D     76
     406     293                                                00000000D     77
     406                       1      15                               0D     78
     314     294                                                00000200D     79
     314                       2       0                               0D     80
186,3,1,0,0,1,77;                                                      1P      1
514,6,5,1,7,1,9,1,11,1,13,1,15,1;                                      3P      2
510,61,3,1,17,19,21;                                                   5P      3
510,63,1,1,23;                                                         7P      4
510,65,1,1,25;                                                         9P      5
510,67,1,1,27;                                                        11P      6
510,69,1,1,29;                                                        13P      7
510,71,3,1,31,33,35;                                                  15P      8
508,2,0,75,1,1,0,0,75,2,1,0;                                          17P      9
508,1,0,75,3,0,0;                                                     19P     10
508,1,0,75,4,0,0;                                                     21P     11
508,4,0,75,5,0,0,0,75,6,1,0,0,75,1,0,0,0,75,7,0,0;                    23P     12
508,4,0,75,8,0,0,0,75,7,1,0,0,75,2,0,0,0,75,6,0,0;                    25P     13
508,4,0,75,9,0,0,0,75,10,1,0,0,75,3,1,0,0,75,10,0,0;                  27P     14
508,4,0,75,11,0,0,0,75,12,1,0,0,75,4,1,0,0,75,12,0,0;                 29P     15
508,2,0,75,5,1,0,0,75,8,1,0;                                          31P     16
508,1,0,75,11,1,0;                                                    33P     17
508,1,0,75,9,1,0;                                                     35P     18
126,8,2,0,0,0,0,-1.76984791706367,-1.76984791706367,                  37P     19
-1.76984791706367,-0.451772827255494,-0.451772827255494,              37P     20
0.866302262552679,0.866302262552679,2.18437735236085,                 37P     21
2.18437735236085,3.50245244216902,3.50245244216902,                   37P     22
3.50245244216902,1.,0.790581962952137,1.,0.790581962952139,1.,        37P     23
0.790581962952135,1.,0.790581962952139,1.,58.8252848685769,           37P     24
16.8921368119547,-6.54750655723971,47.4362382101086,                  37P     25
19.1895676923786,-6.54750655723971,42.3640702801823,                  37P     26
8.736736261148,-6.54750655723971,37.2919023502561,                    37P     27
-1.71609517008261,-6.54750655723971,46.1444625135675,                 37P     28
-9.24077130889729,-6.54750655723971,54.9970226768788,                 37P     29
-16.765447447712,-6.54750655723971,64.4961732327787,                  37P     30
-10.0755512485589,-6.54750655723971,73.9953237886785,                 37P     31
-3.38565504940591,-6.54750655723971,69.8930927614242,                 37P     32
7.4845001030345,-6.54750655723971,-1.76984791706367,                  37P     33
3.50245244216902,0.,0.,0.;                                            37P     34
126,8,2,0,0,0,0,1.37174473652613,1.37174473652613,                    39P     35
1.37174473652613,2.6898198263343,2.6898198263343,                     39P     36
4.00789491614247,4.00789491614247,5.32597000595064,                   39P     37
5.32597000595064,6.64404509575882,6.64404509575882,                   39P     38
6.64404509575882,1.,0.790581962952134,1.,0.790581962952136,1.,        39P     39
0.790581962952135,1.,0.790581962952138,1.,69.8930927614242,           39P     40
7.4845001030345,-6.54750655723971,81.2821394198926,                   39P     41
5.18706922261064,-6.54750655723971,86.3543073498188,                  39P     42
15.6399006538412,-6.54750655723971,91.4264752797451,                  39P     43
26.0927320850719,-6.54750655723971,82.5739151164337,                  39P     44
33.6174082238865,-6.54750655723971,73.7213549531223,                  39P     45
41.1420843627012,-6.54750655723971,64.2222043972225,                  39P     46
34.4521881635482,-6.54750655723971,54.7230538413226,                  39P     47
27.7622919643952,-6.54750655723971,58.8252848685769,                  39P     48
16.8921368119547,-6.54750655723971,1.37174473652613,                  39P     49
6.64404509575882,0.,0.,0.;                                            39P     50
126,8,2,0,1,0,0,-3.14159265358979,-3.14159265358979,                  41P     51
-3.14159265358979,-1.5707963267949,-1.5707963267949,                  41P     52
8.88178419700125D-16,8.88178419700125D-16,1.5707963267949,            41P     53
1.5707963267949,3.14159265358979,3.14159265358979,                    41P     54
3.14159265358979,1.,0.707106781186551,1.,0.707106781186546,1.,        41P     55
0.707106781186548,1.,0.707106781186549,1.,76.8591888150006,           41P     56
22.1883184574946,-6.54750655723971,76.8591888150006,                  41P     57
26.1883184574946,-6.54750655723971,72.8591888150006,                  41P     58
26.1883184574946,-6.54750655723971,68.8591888150006,                  41P     59
26.1883184574946,-6.54750655723971,68.8591888150006,                  41P     60
22.1883184574946,-6.54750655723971,68.8591888150006,                  41P     61
18.1883184574946,-6.54750655723971,72.8591888150006,                  41P     62
18.1883184574946,-6.54750655723971,76.8591888150006,                  41P     63
18.1883184574946,-6.54750655723971,76.8591888150006,                  41P     64
22.1883184574946,-6.54750655723971,-3.14159265358979,                 41P     65
3.14159265358979,0.,0.,0.;                                            41P     66
126,8,2,0,1,0,0,-3.14159265358979,-3.14159265358979,                  43P     67
-3.14159265358979,-1.5707963267949,-1.5707963267949,0.,0.,            43P     68
1.5707963267949,1.5707963267949,3.14159265358979,                     43P     69
3.14159265358979,3.14159265358979,1.,0.707106781186548,1.,            43P     70
0.707106781186549,1.,0.707106781186548,1.,0.707106781186548,1.,       43P     71
59.8591888150006,2.1883184574946,-6.54750655723971,                   43P     72
59.8591888150006,6.18831845749461,-6.54750655723971,                  43P     73
55.8591888150006,6.18831845749461,-6.54750655723971,                  43P     74
51.8591888150006,6.18831845749461,-6.54750655723971,                  43P     75
51.8591888150006,2.1883184574946,-6.54750655723971,                   43P     76
51.8591888150006,-1.8116815425054,-6.54750655723971,                  43P     77
55.8591888150006,-1.8116815425054,-6.54750655723971,                  43P     78
59.8591888150006,-1.8116815425054,-6.54750655723971,                  43P     79
59.8591888150006,2.1883184574946,-6.54750655723971,                   43P     80
-3.14159265358979,3.14159265358979,0.,0.,0.;                          43P     81
126,8,2,0,0,0,0,-3.50245244216902,-3.50245244216902,                  45P     82
-3.50245244216902,-2.18437735236085,-2.18437735236085,                45P     83
-0.866302262552679,-0.866302262552679,0.451772827255494,              45P     84
0.451772827255494,1.76984791706367,1.76984791706367,                  45P     85
1.76984791706367,1.,0.790581962952139,1.,0.790581962952134,1.,        45P     86
0.790581962952138,1.,0.790581962952136,1.,69.8930927614242,           45P     87
7.4845001030345,-7.54750655723971,73.9953237886785,                   45P     88
-3.38565504940591,-7.54750655723971,64.4961732327787,                 45P     89
-10.0755512485589,-7.54750655723971,54.9970226768788,                 45P     90
-16.765447447712,-7.54750655723971,46.1444625135675,                  45P     91
-9.24077130889729,-7.54750655723971,37.2919023502561,                 45P     92
-1.71609517008261,-7.54750655723971,42.3640702801823,                 45P     93
8.736736261148,-7.54750655723971,47.4362382101086,                    45P     94
19.1895676923786,-7.54750655723971,58.8252848685769,                  45P     95
16.8921368119547,-7.54750655723971,-3.50245244216902,                 45P     96
1.76984791706367,0.,0.,0.;                                            45P     97
126,1,1,0,0,1,0,0.,0.,0.1,0.1,1.,1.,69.8930927614242,                 47P     98
7.4845001030345,-7.54750655723971,69.8930927614242,                   47P     99
7.4845001030345,-6.54750655723971,0.,0.1,0.,0.,0.;                    47P    100
126,1,1,0,0,1,0,0.,0.,0.1,0.1,1.,1.,58.8252848685769,                 49P    101
16.8921368119547,-7.54750655723971,58.8252848685769,                  49P    102
16.8921368119547,-6.54750655723971,0.,0.1,0.,0.,0.;                   49P    103
126,8,2,0,0,0,0,-6.64404509575882,-6.64404509575882,                  51P    104
-6.64404509575882,-5.32597000595064,-5.32597000595064,                51P    105
-4.00789491614247,-4.00789491614247,-2.6898198263343,                 51P    106
-2.6898198263343,-1.37174473652613,-1.37174473652613,                 51P    107
-1.37174473652613,1.,0.790581962952138,1.,0.790581962952135,1.,       51P    108
0.790581962952136,1.,0.790581962952134,1.,58.8252848685769,           51P    109
16.8921368119547,-7.54750655723971,54.7230538413226,                  51P    110
27.7622919643952,-7.54750655723971,64.2222043972225,                  51P    111
34.4521881635482,-7.54750655723971,73.7213549531223,                  51P    112
41.1420843627012,-7.54750655723971,82.5739151164337,                  51P    113
33.6174082238865,-7.54750655723971,91.4264752797451,                  51P    114
26.0927320850719,-7.54750655723971,86.3543073498188,                  51P    115
15.6399006538412,-7.54750655723971,81.2821394198926,                  51P    116
5.18706922261064,-7.54750655723971,69.8930927614242,                  51P    117
7.4845001030345,-7.54750655723971,-6.64404509575882,                  51P    118
-1.37174473652613,0.,0.,0.;                                           51P    119
126,8,2,0,1,0,0,-3.14159265358979,-3.14159265358979,                  53P    120
-3.14159265358979,-1.5707963267949,-1.5707963267949,0.,0.,            53P    121
1.5707963267949,1.5707963267949,3.14159265358979,                     53P    122
3.14159265358979,3.14159265358979,1.,0.707106781186549,1.,            53P    123
0.707106781186549,1.,0.707106781186549,1.,0.707106781186549,1.,       53P    124
76.8591888150006,22.1883184574946,-7.54750655723971,                  53P    125
76.8591888150006,26.1883184574946,-7.54750655723971,                  53P    126
72.8591888150006,26.1883184574946,-7.54750655723971,                  53P    127
68.8591888150006,26.1883184574946,-7.54750655723971,                  53P    128
68.8591888150006,22.1883184574946,-7.54750655723971,                  53P    129
68.8591888150006,18.1883184574946,-7.54750655723971,                  53P    130
72.8591888150006,18.1883184574946,-7.54750655723971,                  53P    131
76.8591888150006,18.1883184574946,-7.54750655723971,                  53P    132
76.8591888150006,22.1883184574946,-7.54750655723971,                  53P    133
-3.14159265358979,3.14159265358979,0.,0.,0.;                          53P    134
126,1,1,0,0,1,0,-3.75,-3.75,-3.5,-3.5,1.,1.,76.8591888150006,         55P    135
22.1883184574946,-7.54750655723971,76.8591888150006,                  55P    136
22.1883184574946,-6.54750655723971,-3.75,-3.5,0.,0.,0.;               55P    137
126,8,2,0,1,0,0,-3.14159265358979,-3.14159265358979,                  57P    138
-3.14159265358979,-1.5707963267949,-1.5707963267949,0.,0.,            57P    139
1.5707963267949,1.5707963267949,3.14159265358979,                     57P    140
3.14159265358979,3.14159265358979,1.,0.707106781186548,1.,            57P    141
0.707106781186549,1.,0.707106781186548,1.,0.707106781186548,1.,       57P    142
59.8591888150006,2.1883184574946,-7.54750655723971,                   57P    143
59.8591888150006,6.18831845749461,-7.54750655723971,                  57P    144
55.8591888150006,6.18831845749461,-7.54750655723971,                  57P    145
51.8591888150006,6.18831845749461,-7.54750655723971,                  57P    146
51.8591888150006,2.1883184574946,-7.54750655723971,                   57P    147
51.8591888150006,-1.8116815425054,-7.54750655723971,                  57P    148
55.8591888150006,-1.8116815425054,-7.54750655723971,                  57P    149
59.8591888150006,-1.8116815425054,-7.54750655723971,                  57P    150
59.8591888150006,2.1883184574946,-7.54750655723971,                   57P    151
-3.14159265358979,3.14159265358979,0.,0.,0.;                          57P    152
126,1,1,0,0,1,0,-3.75,-3.75,-3.5,-3.5,1.,1.,59.8591888150006,         59P    153
2.1883184574946,-7.54750655723971,59.8591888150006,                   59P    154
2.1883184574946,-6.54750655723971,-3.75,-3.5,0.,0.,0.;                59P    155
128,1,1,1,1,0,0,1,0,0,-2.23172864647444,-2.23172864647444,            61P    156
3.18172864647446,3.18172864647446,-3.54537659052066,                  61P    157
-3.54537659052066,2.24537659052066,2.24537659052066,1.,1.,1.,1.,      61P    158
37.2919023502561,-16.765447447712,-6.54750655723971,                  61P    159
91.4264752797451,-16.765447447712,-6.54750655723971,                  61P    160
37.2919023502561,41.1420843627012,-6.54750655723971,                  61P    161
91.4264752797451,41.1420843627012,-6.54750655723971,                  61P    162
-2.23172864647444,3.18172864647446,-3.54537659052066,                 61P    163
2.24537659052066;                                                     61P    164
128,1,8,1,2,0,0,0,0,0,-8.1000141523511D-17,-8.1000141523511D-17,      63P    165
0.0666666666666667,0.0666666666666667,-1.76984791706367,              63P    166
-1.76984791706367,-1.76984791706367,-0.451772827255494,               63P    167
-0.451772827255494,0.866302262552679,0.866302262552679,               63P    168
2.18437735236085,2.18437735236085,3.50245244216902,                   63P    169
3.50245244216902,3.50245244216902,1.,1.,0.790581962952135,            63P    170
0.790581962952135,1.,1.,0.790581962952135,0.790581962952135,1.,       63P    171
1.,0.790581962952135,0.790581962952135,1.,1.,0.790581962952135,       63P    172
0.790581962952135,1.,1.,58.8252848685769,16.8921368119547,            63P    173
-6.54750655723971,58.8252848685769,16.8921368119547,                  63P    174
-7.54750655723971,47.4362382101085,19.1895676923786,                  63P    175
-6.54750655723971,47.4362382101085,19.1895676923786,                  63P    176
-7.54750655723971,42.3640702801823,8.736736261148,                    63P    177
-6.54750655723971,42.3640702801823,8.736736261148,                    63P    178
-7.54750655723971,37.2919023502561,-1.71609517008261,                 63P    179
-6.54750655723971,37.2919023502561,-1.71609517008261,                 63P    180
-7.54750655723971,46.1444625135675,-9.24077130889728,                 63P    181
-6.54750655723971,46.1444625135675,-9.24077130889728,                 63P    182
-7.54750655723971,54.9970226768788,-16.765447447712,                  63P    183
-6.54750655723971,54.9970226768788,-16.765447447712,                  63P    184
-7.54750655723971,64.4961732327787,-10.0755512485589,                 63P    185
-6.54750655723971,64.4961732327787,-10.0755512485589,                 63P    186
-7.54750655723971,73.9953237886785,-3.38565504940592,                 63P    187
-6.54750655723971,73.9953237886785,-3.38565504940592,                 63P    188
-7.54750655723971,69.8930927614242,7.48450010303449,                  63P    189
-6.54750655723971,69.8930927614242,7.48450010303449,                  63P    190
-7.54750655723971,-8.1000141523511D-17,0.0666666666666667,            63P    191
-1.76984791706367,3.50245244216902;                                   63P    192
128,1,8,1,2,0,0,0,0,0,-1.3888196827493D-18,-1.3888196827493D-18,      65P    193
0.0666666666666667,0.0666666666666667,1.37174473652613,               65P    194
1.37174473652613,1.37174473652613,2.6898198263343,                    65P    195
2.6898198263343,4.00789491614247,4.00789491614247,                    65P    196
5.32597000595064,5.32597000595064,6.64404509575882,                   65P    197
6.64404509575882,6.64404509575882,1.,1.,0.790581962952135,            65P    198
0.790581962952135,1.,1.,0.790581962952135,0.790581962952135,1.,       65P    199
1.,0.790581962952135,0.790581962952135,1.,1.,0.790581962952135,       65P    200
0.790581962952135,1.,1.,69.8930927614242,7.4845001030345,             65P    201
-6.54750655723971,69.8930927614242,7.4845001030345,                   65P    202
-7.54750655723971,81.2821394198926,5.18706922261064,                  65P    203
-6.54750655723971,81.2821394198926,5.18706922261064,                  65P    204
-7.54750655723971,86.3543073498188,15.6399006538412,                  65P    205
-6.54750655723971,86.3543073498188,15.6399006538412,                  65P    206
-7.54750655723971,91.4264752797451,26.0927320850719,                  65P    207
-6.54750655723971,91.4264752797451,26.0927320850719,                  65P    208
-7.54750655723971,82.5739151164337,33.6174082238865,                  65P    209
-6.54750655723971,82.5739151164337,33.6174082238865,                  65P    210
-7.54750655723971,73.7213549531223,41.1420843627012,                  65P    211
-6.54750655723971,73.7213549531223,41.1420843627012,                  65P    212
-7.54750655723971,64.2222043972225,34.4521881635482,                  65P    213
-6.54750655723971,64.2222043972225,34.4521881635482,                  65P    214
-7.54750655723971,54.7230538413226,27.7622919643951,                  65P    215
-6.54750655723971,54.7230538413226,27.7622919643951,                  65P    216
-7.54750655723971,58.8252848685769,16.8921368119547,                  65P    217
-6.54750655723971,58.8252848685769,16.8921368119547,                  65P    218
-7.54750655723971,-1.3888196827493D-18,0.0666666666666667,            65P    219
1.37174473652613,6.64404509575882;                                    65P    220
128,1,8,1,2,0,1,0,0,1,3.5,3.5,3.75,3.75,-3.14159265358979,            67P    221
-3.14159265358979,-3.14159265358979,-1.5707963267949,                 67P    222
-1.5707963267949,0.,0.,1.5707963267949,1.5707963267949,               67P    223
3.14159265358979,3.14159265358979,3.14159265358979,1.,1.,             67P    224
0.707106781186548,0.707106781186548,1.,1.,0.707106781186548,          67P    225
0.707106781186548,1.,1.,0.707106781186548,0.707106781186548,1.,       67P    226
1.,0.707106781186548,0.707106781186548,1.,1.,76.8591888150006,        67P    227
22.1883184574946,-6.54750655723971,76.8591888150006,                  67P    228
22.1883184574946,-7.54750655723971,76.8591888150006,                  67P    229
18.1883184574946,-6.54750655723971,76.8591888150006,                  67P    230
18.1883184574946,-7.54750655723971,72.8591888150006,                  67P    231
18.1883184574946,-6.54750655723971,72.8591888150006,                  67P    232
18.1883184574946,-7.54750655723971,68.8591888150006,                  67P    233
18.1883184574946,-6.54750655723971,68.8591888150006,                  67P    234
18.1883184574946,-7.54750655723971,68.8591888150006,                  67P    235
22.1883184574946,-6.54750655723971,68.8591888150006,                  67P    236
22.1883184574946,-7.54750655723971,68.8591888150006,                  67P    237
26.1883184574946,-6.54750655723971,68.8591888150006,                  67P    238
26.1883184574946,-7.54750655723971,72.8591888150006,                  67P    239
26.1883184574946,-6.54750655723971,72.8591888150006,                  67P    240
26.1883184574946,-7.54750655723971,76.8591888150006,                  67P    241
26.1883184574946,-6.54750655723971,76.8591888150006,                  67P    242
26.1883184574946,-7.54750655723971,76.8591888150006,                  67P    243
22.1883184574946,-6.54750655723971,76.8591888150006,                  67P    244
22.1883184574946,-7.54750655723971,3.5,3.75,-3.14159265358979,        67P    245
3.14159265358979;                                                     67P    246
128,1,8,1,2,0,1,0,0,1,3.5,3.5,3.75,3.75,-3.14159265358979,            69P    247
-3.14159265358979,-3.14159265358979,-1.5707963267949,                 69P    248
-1.5707963267949,0.,0.,1.5707963267949,1.5707963267949,               69P    249
3.14159265358979,3.14159265358979,3.14159265358979,1.,1.,             69P    250
0.707106781186548,0.707106781186548,1.,1.,0.707106781186548,          69P    251
0.707106781186548,1.,1.,0.707106781186548,0.707106781186548,1.,       69P    252
1.,0.707106781186548,0.707106781186548,1.,1.,59.8591888150006,        69P    253
2.1883184574946,-6.54750655723971,59.8591888150006,                   69P    254
2.1883184574946,-7.54750655723971,59.8591888150006,                   69P    255
-1.8116815425054,-6.54750655723971,59.8591888150006,                  69P    256
-1.8116815425054,-7.54750655723971,55.8591888150006,                  69P    257
-1.8116815425054,-6.54750655723971,55.8591888150006,                  69P    258
-1.8116815425054,-7.54750655723971,51.8591888150006,                  69P    259
-1.8116815425054,-6.54750655723971,51.8591888150006,                  69P    260
-1.8116815425054,-7.54750655723971,51.8591888150006,                  69P    261
2.1883184574946,-6.54750655723971,51.8591888150006,                   69P    262
2.1883184574946,-7.54750655723971,51.8591888150006,                   69P    263
6.18831845749461,-6.54750655723971,51.8591888150006,                  69P    264
6.18831845749461,-7.54750655723971,55.8591888150006,                  69P    265
6.18831845749461,-6.54750655723971,55.8591888150006,                  69P    266
6.18831845749461,-7.54750655723971,59.8591888150006,                  69P    267
6.18831845749461,-6.54750655723971,59.8591888150006,                  69P    268
6.18831845749461,-7.54750655723971,59.8591888150006,                  69P    269
2.1883184574946,-6.54750655723971,59.8591888150006,                   69P    270
2.1883184574946,-7.54750655723971,3.5,3.75,-3.14159265358979,         69P    271
3.14159265358979;                                                     69P    272
128,1,1,1,1,0,0,1,0,0,-2.23172864647444,-2.23172864647444,            71P    273
3.18172864647446,3.18172864647446,-3.54537659052066,                  71P    274
-3.54537659052066,2.24537659052066,2.24537659052066,1.,1.,1.,1.,      71P    275
91.4264752797451,-16.765447447712,-7.54750655723971,                  71P    276
37.2919023502561,-16.765447447712,-7.54750655723971,                  71P    277
91.4264752797451,41.1420843627012,-7.54750655723971,                  71P    278
37.2919023502561,41.1420843627012,-7.54750655723971,                  71P    279
-2.23172864647444,3.18172864647446,-3.54537659052066,                 71P    280
2.24537659052066;                                                     71P    281
502,8,58.8252848685769,16.8921368119547,-6.54750655723971,            73P    282
69.8930927614242,7.4845001030345,-6.54750655723971,                   73P    283
76.8591888150006,22.1883184574946,-6.54750655723971,                  73P    284
59.8591888150006,2.1883184574946,-6.54750655723971,                   73P    285
69.8930927614242,7.4845001030345,-7.54750655723971,                   73P    286
58.8252848685769,16.8921368119547,-7.54750655723971,                  73P    287
76.8591888150006,22.1883184574946,-7.54750655723971,                  73P    288
59.8591888150006,2.1883184574946,-7.54750655723971;                   73P    289
504,12,37,73,1,73,2,39,73,2,73,1,41,73,3,73,3,43,73,4,73,4,45,        75P    290
73,5,73,6,47,73,5,73,2,49,73,6,73,1,51,73,6,73,5,53,73,7,73,7,        75P    291
55,73,7,73,3,57,73,8,73,8,59,73,8,73,4;                               75P    292
406,1,5HBody1;                                                        77P    293
314,62.7450980392157,62.7450980392157,62.7450980392157,13HSteel       79P    294
- Satin;                                                              79P    295
S      1G      2D     80P    295                                        T      1
