                                                                        S      1
,,23HX-Towing-Chain-Standoff,23HX-Towing-Chain-Standoff,7Hunknown,7HunknG      1
own,32,38,7,99,15,,1.,2,2HMM,1,0.08,15H20150628.165651,0.01,10000.,7HunkG      2
nown,7Hunknown,11,0,;                                                   G      3
     186       1                                                00000000D      1
     186            -203       1       0                               0D      2
     514       2                                                00010000D      3
     514                       2       1                               0D      4
     510       4                                                00010000D      5
     510            -203       1       1                               0D      6
     510       5                                                00010000D      7
     510            -203       1       1                               0D      8
     510       6                                                00010000D      9
     510            -203       1       1                               0D     10
     510       7                                                00010000D     11
     510            -203       1       1                               0D     12
     510       8                                                00010000D     13
     510            -203       1       1                               0D     14
     510       9                                                00010000D     15
     510            -203       1       1                               0D     16
     510      10                                                00010000D     17
     510            -203       1       1                               0D     18
     510      11                                                00010000D     19
     510            -203       1       1                               0D     20
     510      12                                                00010000D     21
     510            -203       1       1                               0D     22
     510      13                                                00010000D     23
     510            -203       1       1                               0D     24
     510      14                                                00010000D     25
     510            -203       1       1                               0D     26
     510      15                                                00010000D     27
     510            -203       1       1                               0D     28
     510      16                                                00010000D     29
     510            -203       1       1                               0D     30
     510      17                                                00010000D     31
     510            -203       1       1                               0D     32
     510      18                                                00010000D     33
     510            -203       1       1                               0D     34
     510      19                                                00010000D     35
     510            -203       1       1                               0D     36
     510      20                                                00010000D     37
     510            -203       1       1                               0D     38
     508      21                                                00010000D     39
     508                       1       1                               0D     40
     508      22                                                00010000D     41
     508                       1       1                               0D     42
     508      23                                                00010000D     43
     508                       1       1                               0D     44
     508      24                                                00010000D     45
     508                       1       1                               0D     46
     508      25                                                00010000D     47
     508                       1       1                               0D     48
     508      26                                                00010000D     49
     508                       1       1                               0D     50
     508      27                                                00010000D     51
     508                       2       1                               0D     52
     508      29                                                00010000D     53
     508                       1       1                               0D     54
     508      30                                                00010000D     55
     508                       1       1                               0D     56
     508      31                                                00010000D     57
     508                       2       1                               0D     58
     508      33                                                00010000D     59
     508                       1       1                               0D     60
     508      34                                                00010000D     61
     508                       1       1                               0D     62
     508      35                                                00010000D     63
     508                       1       1                               0D     64
     508      36                                                00010000D     65
     508                       1       1                               0D     66
     508      37                                                00010000D     67
     508                       1       1                               0D     68
     508      38                                                00010000D     69
     508                       2       1                               0D     70
     508      40                                                00010000D     71
     508                       1       1                               0D     72
     508      41                                                00010000D     73
     508                       2       1                               0D     74
     508      43                                                00010000D     75
     508                       2       1                               0D     76
     508      45                                                00010000D     77
     508                       1       1                               0D     78
     508      46                                                00010000D     79
     508                       2       1                               0D     80
     508      48                                                00010000D     81
     508                       1       1                               0D     82
     508      49                                                00010000D     83
     508                       1       1                               0D     84
     126      50                                                00010000D     85
     126       0              12       0                               0D     86
     126      62                                                00010000D     87
     126       0               3       0                               0D     88
     126      65                                                00010000D     89
     126       0              12       0                               0D     90
     126      77                                                00010000D     91
     126       0              12       0                               0D     92
     126      89                                                00010000D     93
     126       0               3       0                               0D     94
     126      92                                                00010000D     95
     126       0              12       0                               0D     96
     126     104                                                00010000D     97
     126       0              11       0                               0D     98
     126     115                                                00010000D     99
     126       0              11       0                               0D    100
     126     126                                                00010000D    101
     126       0               3       0                               0D    102
     126     129                                                00010000D    103
     126       0               2       0                               0D    104
     126     131                                                00010000D    105
     126       0               3       0                               0D    106
     126     134                                                00010000D    107
     126       0               3       0                               0D    108
     126     137                                                00010000D    109
     126       0               3       0                               0D    110
     126     140                                                00010000D    111
     126       0               3       0                               0D    112
     126     143                                                00010000D    113
     126       0               4       0                               0D    114
     126     147                                                00010000D    115
     126       0               2       0                               0D    116
     126     149                                                00010000D    117
     126       0               5       0                               0D    118
     126     154                                                00010000D    119
     126       0               3       0                               0D    120
     126     157                                                00010000D    121
     126       0               3       0                               0D    122
     126     160                                                00010000D    123
     126       0               5       0                               0D    124
     126     165                                                00010000D    125
     126       0               3       0                               0D    126
     126     168                                                00010000D    127
     126       0               3       0                               0D    128
     126     171                                                00010000D    129
     126       0               3       0                               0D    130
     126     174                                                00010000D    131
     126       0               3       0                               0D    132
     126     177                                                00010000D    133
     126       0              11       0                               0D    134
     126     188                                                00010000D    135
     126       0               3       0                               0D    136
     126     191                                                00010000D    137
     126       0              11       0                               0D    138
     126     202                                                00010000D    139
     126       0               3       0                               0D    140
     126     205                                                00010000D    141
     126       0               3       0                               0D    142
     126     208                                                00010000D    143
     126       0               3       0                               0D    144
     126     211                                                00010000D    145
     126       0               3       0                               0D    146
     126     214                                                00010000D    147
     126       0               3       0                               0D    148
     126     217                                                00010000D    149
     126       0               3       0                               0D    150
     126     220                                                00010000D    151
     126       0               2       0                               0D    152
     126     222                                                00010000D    153
     126       0               4       0                               0D    154
     126     226                                                00010000D    155
     126       0               3       0                               0D    156
     126     229                                                00010000D    157
     126       0               2       0                               0D    158
     126     231                                                00010000D    159
     126       0               2       0                               0D    160
     126     233                                                00010000D    161
     126       0               5       0                               0D    162
     128     238                                                00010000D    163
     128       0    -203      20       0                               0D    164
     128     258                                                00010000D    165
     128       0    -203      20       0                               0D    166
     128     278                                                00010000D    167
     128       0    -203       4       0                               0D    168
     128     282                                                00010000D    169
     128       0    -203       4       0                               0D    170
     128     286                                                00010000D    171
     128       0    -203       5       0                               0D    172
     128     291                                                00010000D    173
     128       0    -203       5       0                               0D    174
     128     296                                                00010000D    175
     128       0    -203       5       0                               0D    176
     128     301                                                00010000D    177
     128       0    -203       7       0                               0D    178
     128     308                                                00010000D    179
     128       0    -203      17       0                               0D    180
     128     325                                                00010000D    181
     128       0    -203      17       0                               0D    182
     128     342                                                00010000D    183
     128       0    -203       5       0                               0D    184
     128     347                                                00010000D    185
     128       0    -203       4       0                               0D    186
     128     351                                                00010000D    187
     128       0    -203       5       0                               0D    188
     128     356                                                00010000D    189
     128       0    -203       7       0                               0D    190
     128     363                                                00010000D    191
     128       0    -203       4       0                               0D    192
     128     367                                                00010000D    193
     128       0    -203       8       0                               0D    194
     128     375                                                00010000D    195
     128       0    -203       7       0                               0D    196
     502     382                                                00010000D    197
     502                      15       1                               0D    198
     504     397                                                00010001D    199
     504                      11       1                               0D    200
     406     408                                                00000000D    201
     406                       1      15                               0D    202
     314     409                                                00000200D    203
     314                       2       0                               0D    204
186,3,1,0,0,1,201;                                                     1P      1
514,17,5,1,7,1,9,1,11,1,13,1,15,1,17,1,19,1,21,1,23,1,25,1,27,1,       3P      2
29,1,31,1,33,1,35,1,37,1;                                              3P      3
510,163,1,1,39;                                                        5P      4
510,165,1,1,41;                                                        7P      5
510,167,1,1,43;                                                        9P      6
510,169,1,1,45;                                                       11P      7
510,171,1,1,47;                                                       13P      8
510,173,1,1,49;                                                       15P      9
510,175,3,1,51,53,55;                                                 17P     10
510,177,3,1,57,59,61;                                                 19P     11
510,179,1,1,63;                                                       21P     12
510,181,1,1,65;                                                       23P     13
510,183,1,1,67;                                                       25P     14
510,185,1,1,69;                                                       27P     15
510,187,1,1,71;                                                       29P     16
510,189,1,1,73;                                                       31P     17
510,191,1,1,75;                                                       33P     18
510,193,1,1,77;                                                       35P     19
510,195,3,1,79,81,83;                                                 37P     20
508,4,0,199,1,0,0,0,199,2,1,0,0,199,3,0,0,0,199,2,0,0;                39P     21
508,4,0,199,4,0,0,0,199,5,1,0,0,199,6,0,0,0,199,5,0,0;                41P     22
508,1,0,199,7,0,0;                                                    43P     23
508,1,0,199,8,0,0;                                                    45P     24
508,4,0,199,9,1,0,0,199,10,1,0,0,199,11,0,0,0,199,12,0,0;             47P     25
508,4,0,199,13,1,0,0,199,14,1,0,0,199,15,0,0,0,199,16,0,0;            49P     26
508,5,0,199,17,1,0,0,199,15,1,0,0,199,18,1,0,0,199,11,1,0,0,199,      51P     27
19,1,0;                                                               51P     28
508,1,0,199,1,1,0;                                                    53P     29
508,1,0,199,4,1,0;                                                    55P     30
508,5,0,199,20,1,0,0,199,21,0,0,0,199,9,0,0,0,199,22,0,0,0,199,       57P     31
23,1,0;                                                               57P     32
508,1,0,199,3,1,0;                                                    59P     33
508,1,0,199,6,1,0;                                                    61P     34
508,4,0,199,7,1,0,0,199,24,1,0,0,199,25,1,0,0,199,24,0,0;             63P     35
508,4,0,199,8,1,0,0,199,26,1,0,0,199,27,1,0,0,199,26,0,0;             65P     36
508,4,0,199,28,0,0,0,199,29,1,0,0,199,23,0,0,0,199,30,0,0;            67P     37
508,7,0,199,31,1,0,0,199,30,1,0,0,199,22,1,0,0,199,12,1,0,0,199,      69P     38
18,0,0,0,199,14,0,0,0,199,32,0,0;                                     69P     39
508,4,0,199,33,0,0,0,199,32,1,0,0,199,13,0,0,0,199,34,0,0;            71P     40
508,5,0,199,35,1,0,0,199,34,1,0,0,199,16,1,0,0,199,17,0,0,0,199,      73P     41
36,0,0;                                                               73P     42
508,6,0,199,37,1,0,0,199,36,1,0,0,199,19,0,0,0,199,10,0,0,0,199,      75P     43
21,1,0,0,199,38,0,0;                                                  75P     44
508,4,0,199,39,1,0,0,199,38,1,0,0,199,20,0,0,0,199,29,0,0;            77P     45
508,6,0,199,39,0,0,0,199,28,1,0,0,199,31,0,0,0,199,33,1,0,0,199,      79P     46
35,0,0,0,199,37,0,0;                                                  79P     47
508,1,0,199,27,0,0;                                                   81P     48
508,1,0,199,25,0,0;                                                   83P     49
126,8,2,0,1,0,0,-3.14159265358979,-3.14159265358979,                  85P     50
-3.14159265358979,-1.5707963267949,-1.5707963267949,0.,0.,            85P     51
1.5707963267949,1.5707963267949,3.14159265358979,                     85P     52
3.14159265358979,3.14159265358979,1.,0.707106781186542,1.,            85P     53
0.707106781186542,1.,0.707106781186542,1.,0.707106781186542,1.,       85P     54
53.0000000289757,63.,-21.7229213467648,53.0000000289757,63.,          85P     55
-19.7229213467648,51.0000000289757,63.,-19.7229213467648,             85P     56
49.0000000289757,63.,-19.7229213467648,49.0000000289757,63.,          85P     57
-21.7229213467648,49.0000000289757,63.,-23.7229213467648,             85P     58
51.0000000289757,63.,-23.7229213467648,53.0000000289757,63.,          85P     59
-23.7229213467648,53.0000000289757,63.,-21.7229213467648,             85P     60
-3.14159265358979,3.14159265358979,0.,0.,0.;                          85P     61
126,1,1,0,0,1,0,0.,0.,2.,2.,1.,1.,53.0000000289757,63.,               87P     62
-21.7229213467648,53.0000000289757,59.,-21.7229213467648,0.,2.,       87P     63
0.,0.,0.;                                                             87P     64
126,8,2,0,1,0,0,-3.14159265358979,-3.14159265358979,                  89P     65
-3.14159265358979,-1.5707963267949,-1.5707963267949,0.,0.,            89P     66
1.5707963267949,1.5707963267949,3.14159265358979,                     89P     67
3.14159265358979,3.14159265358979,1.,0.707106781186542,1.,            89P     68
0.707106781186542,1.,0.707106781186542,1.,0.707106781186542,1.,       89P     69
53.0000000289757,59.,-21.7229213467648,53.0000000289757,59.,          89P     70
-23.7229213467648,51.0000000289757,59.,-23.7229213467648,             89P     71
49.0000000289757,59.,-23.7229213467648,49.0000000289757,59.,          89P     72
-21.7229213467648,49.0000000289757,59.,-19.7229213467648,             89P     73
51.0000000289757,59.,-19.7229213467648,53.0000000289757,59.,          89P     74
-19.7229213467648,53.0000000289757,59.,-21.7229213467648,             89P     75
-3.14159265358979,3.14159265358979,0.,0.,0.;                          89P     76
126,8,2,0,1,0,0,-3.14159265358979,-3.14159265358979,                  91P     77
-3.14159265358979,-1.5707963267949,-1.5707963267949,0.,0.,            91P     78
1.5707963267949,1.5707963267949,3.14159265358979,                     91P     79
3.14159265358979,3.14159265358979,1.,0.707106781186542,1.,            91P     80
0.707106781186549,1.,0.707106781186549,1.,0.707106781186542,1.,       91P     81
43.0000000289757,63.,-21.7229213467648,43.0000000289757,63.,          91P     82
-19.7229213467648,41.0000000289757,63.,-19.7229213467648,             91P     83
39.0000000289757,63.,-19.7229213467648,39.0000000289757,63.,          91P     84
-21.7229213467648,39.0000000289757,63.,-23.7229213467648,             91P     85
41.0000000289757,63.,-23.7229213467648,43.0000000289757,63.,          91P     86
-23.7229213467648,43.0000000289757,63.,-21.7229213467648,             91P     87
-3.14159265358979,3.14159265358979,0.,0.,0.;                          91P     88
126,1,1,0,0,1,0,0.,0.,2.,2.,1.,1.,43.0000000289757,63.,               93P     89
-21.7229213467648,43.0000000289757,59.,-21.7229213467648,0.,2.,       93P     90
0.,0.,0.;                                                             93P     91
126,8,2,0,1,0,0,-3.14159265358979,-3.14159265358979,                  95P     92
-3.14159265358979,-1.5707963267949,-1.5707963267949,0.,0.,            95P     93
1.5707963267949,1.5707963267949,3.14159265358979,                     95P     94
3.14159265358979,3.14159265358979,1.,0.707106781186542,1.,            95P     95
0.707106781186549,1.,0.707106781186549,1.,0.707106781186542,1.,       95P     96
43.0000000289757,59.,-21.7229213467648,43.0000000289757,59.,          95P     97
-23.7229213467648,41.0000000289757,59.,-23.7229213467648,             95P     98
39.0000000289757,59.,-23.7229213467648,39.0000000289757,59.,          95P     99
-21.7229213467648,39.0000000289757,59.,-19.7229213467648,             95P    100
41.0000000289757,59.,-19.7229213467648,43.0000000289757,59.,          95P    101
-19.7229213467648,43.0000000289757,59.,-21.7229213467648,             95P    102
-3.14159265358979,3.14159265358979,0.,0.,0.;                          95P    103
126,8,2,0,1,0,0,-3.14159265358979,-3.14159265358979,                  97P    104
-3.14159265358979,-1.5707963267949,-1.5707963267949,0.,0.,            97P    105
1.5707963267949,1.5707963267949,3.14159265358979,                     97P    106
3.14159265358979,3.14159265358979,1.,0.707106781186542,1.,            97P    107
0.707106781186542,1.,0.707106781186542,1.,0.707106781186542,1.,       97P    108
33.0000003129244,23.,-22.,33.0000003129244,23.,-23.5,                 97P    109
31.5000003129244,23.,-23.5,30.0000003129244,23.,-23.5,                97P    110
30.0000003129244,23.,-22.,30.0000003129244,23.,-20.5,                 97P    111
31.5000003129244,23.,-20.5,33.0000003129244,23.,-20.5,                97P    112
33.0000003129244,23.,-22.,-3.14159265358979,3.14159265358979,0.,      97P    113
0.,0.;                                                                97P    114
126,8,2,0,1,0,0,-3.14159265358979,-3.14159265358979,                  99P    115
-3.14159265358979,-1.5707963267949,-1.5707963267949,0.,0.,            99P    116
1.5707963267949,1.5707963267949,3.14159265358979,                     99P    117
3.14159265358979,3.14159265358979,1.,0.707106781186542,1.,            99P    118
0.707106781186542,1.,0.707106781186542,1.,0.707106781186542,1.,       99P    119
24.0000003129244,23.,-22.,24.0000003129244,23.,-23.5,                 99P    120
22.5000003129244,23.,-23.5,21.0000003129244,23.,-23.5,                99P    121
21.0000003129244,23.,-22.,21.0000003129244,23.,-20.5,                 99P    122
22.5000003129244,23.,-20.5,24.0000003129244,23.,-20.5,                99P    123
24.0000003129244,23.,-22.,-3.14159265358979,3.14159265358979,0.,      99P    124
0.,0.;                                                                99P    125
126,1,1,0,0,1,0,0.,0.,1.02770786532352,1.02770786532352,1.,1.,       101P    126
56.0000000289757,59.,-16.7229213467648,56.0000000289757,59.,         101P    127
-27.,0.,1.02770786532352,0.,0.,0.;                                   101P    128
126,1,1,0,0,1,0,0.,0.,0.4,0.4,1.,1.,56.0000000289757,59.,-27.,       103P    129
56.0000000289757,63.,-27.,0.,0.4,0.,0.,0.;                           103P    130
126,1,1,0,0,1,0,0.,0.,1.02770786532352,1.02770786532352,1.,1.,       105P    131
56.0000000289757,63.,-16.7229213467648,56.0000000289757,63.,         105P    132
-27.,0.,1.02770786532352,0.,0.,0.;                                   105P    133
126,1,1,0,0,1,0,0.,0.,0.4,0.4,1.,1.,56.0000000289757,59.,            107P    134
-16.7229213467648,56.0000000289757,63.,-16.7229213467648,0.,0.4,     107P    135
0.,0.,0.;                                                            107P    136
126,1,1,0,0,1,0,-2.4,-2.4,-1.67229213467648,-1.67229213467648,       109P    137
1.,1.,18.0000000415846,59.,-24.,18.0000000289757,59.,                109P    138
-16.7229213467648,-2.4,-1.67229213467648,0.,0.,0.;                   109P    139
126,1,1,0,0,1,0,0.,0.,0.4,0.4,1.,1.,18.0000000289757,59.,            111P    140
-16.7229213467648,18.0000000289757,63.,-16.7229213467648,0.,0.4,     111P    141
0.,0.,0.;                                                            111P    142
126,1,1,0,0,1,0,0.300000000000001,0.300000000000001,                 113P    143
1.02770786532352,1.02770786532352,1.,1.,18.0000000289757,63.,        113P    144
-24.,18.0000000289757,63.,-16.7229213467648,0.300000000000001,       113P    145
1.02770786532352,0.,0.,0.;                                           113P    146
126,1,1,0,0,1,0,0.,0.,0.4,0.4,1.,1.,18.0000000289757,59.,-24.,       115P    147
18.0000000289757,63.,-24.,0.,0.4,0.,0.,0.;                           115P    148
126,2,2,0,0,0,0,3.0022210087863D-18,3.0022210087863D-18,             117P    149
3.0022210087863D-18,1.57079632679489,1.57079632679489,               117P    150
1.57079632679489,1.,0.707106781186548,1.,21.0000000467827,63.,       117P    151
-26.9999999948019,18.0000000467827,63.,-27.,18.0000000415846,        117P    152
63.,-24.,3.0022210087863D-18,1.57079632679489,0.,0.,0.;              117P    153
126,1,1,0,0,1,0,0.,0.,3.8,3.8,1.,1.,18.0000000289757,63.,            119P    154
-16.7229213467648,56.0000000289757,63.,-16.7229213467648,0.,3.8,     119P    155
0.,0.,0.;                                                            119P    156
126,1,1,0,0,1,0,0.,0.,3.4999999982193,3.4999999982193,1.,1.,         121P    157
56.0000000289757,63.,-27.,21.0000000467827,63.,-27.,0.,              121P    158
3.4999999982193,0.,0.,0.;                                            121P    159
126,2,2,0,0,0,0,0.,0.,0.,1.5707963267949,1.5707963267949,            123P    160
1.5707963267949,1.,0.707106781186546,1.,36.0000000415846,59.,        123P    161
-23.9999999688115,36.0000000467827,59.,-26.9999999688115,            123P    162
33.0000000467827,59.,-26.9999999740096,0.,1.5707963267949,0.,0.,     123P    163
0.;                                                                  123P    164
126,1,1,0,0,1,0,0.,0.,2.2999999982193,2.2999999982193,1.,1.,         125P    165
56.0000000289757,59.,-27.,33.0000000467827,59.,-27.,0.,              125P    166
2.2999999982193,0.,0.,0.;                                            125P    167
126,1,1,0,0,1,0,1.8,1.8,3.8,3.8,1.,1.,36.0000000289757,59.,          127P    168
-16.7229213467648,56.0000000289757,59.,-16.7229213467648,1.8,        127P    169
3.8,0.,0.,0.;                                                        127P    170
126,1,1,0,0,1,0,-0.727707862234463,-0.727707862234463,0.,0.,1.,      129P    171
1.,36.0000000289757,59.,-16.7229213464669,36.0000000415846,59.,      129P    172
-23.9999999688115,-0.727707862234463,0.,0.,0.,0.;                    129P    173
126,1,1,0,0,1,0,-12.6666666666667,-12.6666666666667,0.,0.,1.,1.,     131P    174
33.0000003129244,23.,-22.,33.0000003129244,4.,-22.,                  131P    175
-12.6666666666667,0.,0.,0.,0.;                                       131P    176
126,8,2,0,1,0,0,-3.14159265358979,-3.14159265358979,                 133P    177
-3.14159265358979,-1.5707963267949,-1.5707963267949,0.,0.,           133P    178
1.5707963267949,1.5707963267949,3.14159265358979,                    133P    179
3.14159265358979,3.14159265358979,1.,0.707106781186542,1.,           133P    180
0.707106781186542,1.,0.707106781186542,1.,0.707106781186542,1.,      133P    181
33.0000003129244,4.,-22.,33.0000003129244,4.,-20.5,                  133P    182
31.5000003129244,4.,-20.5,30.0000003129244,4.,-20.5,                 133P    183
30.0000003129244,4.,-22.,30.0000003129244,4.,-23.5,                  133P    184
31.5000003129244,4.,-23.5,33.0000003129244,4.,-23.5,                 133P    185
33.0000003129244,4.,-22.,-3.14159265358979,3.14159265358979,0.,      133P    186
0.,0.;                                                               133P    187
126,1,1,0,0,1,0,-12.6666666666667,-12.6666666666667,0.,0.,1.,1.,     135P    188
24.0000003129244,23.,-22.,24.0000003129244,4.,-22.,                  135P    189
-12.6666666666667,0.,0.,0.,0.;                                       135P    190
126,8,2,0,1,0,0,-3.14159265358979,-3.14159265358979,                 137P    191
-3.14159265358979,-1.5707963267949,-1.5707963267949,0.,0.,           137P    192
1.5707963267949,1.5707963267949,3.14159265358979,                    137P    193
3.14159265358979,3.14159265358979,1.,0.707106781186542,1.,           137P    194
0.707106781186542,1.,0.707106781186542,1.,0.707106781186542,1.,      137P    195
24.0000003129244,4.,-22.,24.0000003129244,4.,-20.5,                  137P    196
22.5000003129244,4.,-20.5,21.0000003129244,4.,-20.5,                 137P    197
21.0000003129244,4.,-22.,21.0000003129244,4.,-23.5,                  137P    198
22.5000003129244,4.,-23.5,24.0000003129244,4.,-23.5,                 137P    199
24.0000003129244,4.,-22.,-3.14159265358979,3.14159265358979,0.,      137P    200
0.,0.;                                                               137P    201
126,1,1,0,0,1,0,0.,0.,0.727707862234463,0.727707862234463,1.,1.,     139P    202
36.0000000415846,4.,-23.9999999688115,36.0000000289757,4.,           139P    203
-16.7229213464669,0.,0.727707862234463,0.,0.,0.;                     139P    204
126,1,1,0,0,1,0,0.,0.,5.5,5.5,1.,1.,36.0000000415846,4.,             141P    205
-23.9999999688115,36.0000000415846,59.,-23.9999999688115,0.,5.5,     141P    206
0.,0.,0.;                                                            141P    207
126,1,1,0,0,1,0,0.,0.,5.5,5.5,1.,1.,36.0000000289757,4.,             143P    208
-16.7229213464669,36.0000000289757,59.,-16.7229213464669,0.,5.5,     143P    209
0.,0.,0.;                                                            143P    210
126,1,1,0,0,1,0,0.,0.,1.8,1.8,1.,1.,18.0000000289757,4.,             145P    211
-16.7229213467648,36.0000000289757,4.,-16.7229213464669,0.,1.8,      145P    212
0.,0.,0.;                                                            145P    213
126,1,1,0,0,1,0,0.,0.,5.5,5.5,1.,1.,18.0000000289757,4.,             147P    214
-16.7229213467648,18.0000000289757,59.,-16.7229213467648,0.,5.5,     147P    215
0.,0.,0.;                                                            147P    216
126,1,1,0,0,1,0,1.67229213467648,1.67229213467648,2.4,2.4,1.,1.,     149P    217
18.0000000289757,4.,-16.7229213467648,18.0000000415846,4.,-24.,      149P    218
1.67229213467648,2.4,0.,0.,0.;                                       149P    219
126,1,1,0,0,1,0,0.,0.,5.5,5.5,1.,1.,18.0000000415846,4.,-24.,        151P    220
18.0000000415846,59.,-24.,0.,5.5,0.,0.,0.;                           151P    221
126,2,2,0,0,0,0,0.,0.,0.,1.57079632679489,1.57079632679489,          153P    222
1.57079632679489,1.,0.707106781186548,1.,21.0000000467827,4.,        153P    223
-26.9999999948019,18.0000000467827,4.,-27.,18.0000000415846,4.,      153P    224
-24.,0.,1.57079632679489,0.,0.,0.;                                   153P    225
126,1,1,0,0,1,0,0.,0.,5.9,5.9,1.,1.,21.0000000467827,4.,             155P    226
-26.9999999948019,21.0000000467827,63.,-26.9999999948019,0.,5.9,     155P    227
0.,0.,0.;                                                            155P    228
126,1,1,0,0,1,0,0.,0.,1.2,1.2,1.,1.,33.0000000467827,4.,-27.,        157P    229
21.0000000467827,4.,-27.,0.,1.2,0.,0.,0.;                            157P    230
126,1,1,0,0,1,0,0.,0.,5.5,5.5,1.,1.,33.0000000467827,4.,-27.,        159P    231
33.0000000467827,59.,-27.,0.,5.5,0.,0.,0.;                           159P    232
126,2,2,0,0,0,0,0.,0.,0.,1.5707963267949,1.5707963267949,            161P    233
1.5707963267949,1.,0.707106781186546,1.,36.0000000415846,4.,         161P    234
-23.9999999688115,36.0000000467827,4.,-26.9999999688115,             161P    235
33.0000000467827,4.,-26.9999999740096,0.,1.5707963267949,0.,0.,      161P    236
0.;                                                                  161P    237
128,1,8,1,2,0,1,0,0,1,0.,0.,2.,2.,-3.14159265358979,                 163P    238
-3.14159265358979,-3.14159265358979,-1.5707963267949,                163P    239
-1.5707963267949,0.,0.,1.5707963267949,1.5707963267949,              163P    240
3.14159265358979,3.14159265358979,3.14159265358979,1.,1.,            163P    241
0.707106781186548,0.707106781186548,1.,1.,0.707106781186548,         163P    242
0.707106781186548,1.,1.,0.707106781186548,0.707106781186548,1.,      163P    243
1.,0.707106781186548,0.707106781186548,1.,1.,53.0000000289757,       163P    244
63.,-21.7229213467648,53.0000000289757,59.,-21.7229213467648,        163P    245
53.0000000289757,63.,-19.7229213467648,53.0000000289757,59.,         163P    246
-19.7229213467648,51.0000000289757,63.,-19.7229213467648,            163P    247
51.0000000289757,59.,-19.7229213467648,49.0000000289757,63.,         163P    248
-19.7229213467648,49.0000000289757,59.,-19.7229213467648,            163P    249
49.0000000289757,63.,-21.7229213467648,49.0000000289757,59.,         163P    250
-21.7229213467648,49.0000000289757,63.,-23.7229213467648,            163P    251
49.0000000289757,59.,-23.7229213467648,51.0000000289757,63.,         163P    252
-23.7229213467648,51.0000000289757,59.,-23.7229213467648,            163P    253
53.0000000289757,63.,-23.7229213467648,53.0000000289757,59.,         163P    254
-23.7229213467648,53.0000000289757,63.,-21.7229213467648,            163P    255
53.0000000289757,59.,-21.7229213467648,0.,2.,-3.14159265358979,      163P    256
3.14159265358979;                                                    163P    257
128,1,8,1,2,0,1,0,0,1,0.,0.,2.,2.,-3.14159265358979,                 165P    258
-3.14159265358979,-3.14159265358979,-1.5707963267949,                165P    259
-1.5707963267949,0.,0.,1.5707963267949,1.5707963267949,              165P    260
3.14159265358979,3.14159265358979,3.14159265358979,1.,1.,            165P    261
0.707106781186548,0.707106781186548,1.,1.,0.707106781186548,         165P    262
0.707106781186548,1.,1.,0.707106781186548,0.707106781186548,1.,      165P    263
1.,0.707106781186548,0.707106781186548,1.,1.,43.0000000289757,       165P    264
63.,-21.7229213467648,43.0000000289757,59.,-21.7229213467648,        165P    265
43.0000000289757,63.,-19.7229213467648,43.0000000289757,59.,         165P    266
-19.7229213467648,41.0000000289757,63.,-19.7229213467648,            165P    267
41.0000000289757,59.,-19.7229213467648,39.0000000289757,63.,         165P    268
-19.7229213467648,39.0000000289757,59.,-19.7229213467648,            165P    269
39.0000000289757,63.,-21.7229213467648,39.0000000289757,59.,         165P    270
-21.7229213467648,39.0000000289757,63.,-23.7229213467648,            165P    271
39.0000000289757,59.,-23.7229213467648,41.0000000289757,63.,         165P    272
-23.7229213467648,41.0000000289757,59.,-23.7229213467648,            165P    273
43.0000000289757,63.,-23.7229213467648,43.0000000289757,59.,         165P    274
-23.7229213467648,43.0000000289757,63.,-21.7229213467648,            165P    275
43.0000000289757,59.,-21.7229213467648,0.,2.,-3.14159265358979,      165P    276
3.14159265358979;                                                    165P    277
128,1,1,1,1,0,0,1,0,0,-0.15,-0.15,0.15,0.15,-0.15,-0.15,0.15,        167P    278
0.15,1.,1.,1.,1.,30.0000003129244,23.,-23.5,33.0000003129244,        167P    279
23.,-23.5,30.0000003129244,23.,-20.5,33.0000003129244,23.,-20.5,     167P    280
-0.15,0.15,-0.15,0.15;                                               167P    281
128,1,1,1,1,0,0,1,0,0,-0.15,-0.15,0.15,0.15,-0.15,-0.15,0.15,        169P    282
0.15,1.,1.,1.,1.,21.0000003129244,23.,-23.5,24.0000003129244,        169P    283
23.,-23.5,21.0000003129244,23.,-20.5,24.0000003129244,23.,-20.5,     169P    284
-0.15,0.15,-0.15,0.15;                                               169P    285
128,1,1,1,1,0,0,1,0,0,0.,0.,1.02770786532352,1.02770786532352,       171P    286
0.,0.,0.4,0.4,1.,1.,1.,1.,56.0000000289757,59.,                      171P    287
-16.7229213467648,56.0000000289757,59.,-27.,56.0000000289757,        171P    288
63.,-16.7229213467648,56.0000000289757,63.,-27.,0.,                  171P    289
1.02770786532352,0.,0.4;                                             171P    290
128,1,1,1,1,0,0,1,0,0,0.,0.,0.727707865323524,0.727707865323524,     173P    291
0.,0.,0.4,0.4,1.,1.,1.,1.,18.0000000289757,59.,-24.,                 173P    292
18.0000000289757,59.,-16.7229213467648,18.0000000289757,63.,         173P    293
-24.,18.0000000289757,63.,-16.7229213467648,0.,                      173P    294
0.727707865323524,0.,0.4;                                            173P    295
128,1,1,1,1,0,0,1,0,0,-1.9,-1.9,1.9,1.9,-0.513853932661762,          175P    296
-0.513853932661762,0.513853932661762,0.513853932661762,1.,1.,1.,     175P    297
1.,56.0000000289757,63.,-27.,18.0000000289757,63.,-27.,              175P    298
56.0000000289757,63.,-16.7229213467648,18.0000000289757,63.,         175P    299
-16.7229213467648,-1.9,1.9,-0.513853932661762,0.513853932661762;     175P    300
128,1,1,1,1,0,0,1,0,0,-1.9,-1.9,0.399999998219298,                   177P    301
0.399999998219298,-0.513853932661762,-0.513853932661762,             177P    302
0.513853932691548,0.513853932691548,1.,1.,1.,1.,                     177P    303
33.0000000467827,59.,-27.,56.0000000289757,59.,-27.,                 177P    304
33.0000000467827,59.,-16.7229213464669,56.0000000289757,59.,         177P    305
-16.7229213464669,-1.9,0.399999998219298,-0.513853932661762,         177P    306
0.513853932691548;                                                   177P    307
128,1,8,1,2,0,1,0,0,1,0.,0.,12.6666666666667,12.6666666666667,       179P    308
-3.14159265358979,-3.14159265358979,-3.14159265358979,               179P    309
-1.5707963267949,-1.5707963267949,0.,0.,1.5707963267949,             179P    310
1.5707963267949,3.14159265358979,3.14159265358979,                   179P    311
3.14159265358979,1.,1.,0.707106781186548,0.707106781186548,1.,       179P    312
1.,0.707106781186548,0.707106781186548,1.,1.,0.707106781186548,      179P    313
0.707106781186548,1.,1.,0.707106781186548,0.707106781186548,1.,      179P    314
1.,33.0000003129244,4.,-22.,33.0000003129244,23.,-22.,               179P    315
33.0000003129244,4.,-23.5,33.0000003129244,23.,-23.5,                179P    316
31.5000003129244,4.,-23.5,31.5000003129244,23.,-23.5,                179P    317
30.0000003129244,4.,-23.5,30.0000003129244,23.,-23.5,                179P    318
30.0000003129244,4.,-22.,30.0000003129244,23.,-22.,                  179P    319
30.0000003129244,4.,-20.5,30.0000003129244,23.,-20.5,                179P    320
31.5000003129244,4.,-20.5,31.5000003129244,23.,-20.5,                179P    321
33.0000003129244,4.,-20.5,33.0000003129244,23.,-20.5,                179P    322
33.0000003129244,4.,-22.,33.0000003129244,23.,-22.,0.,               179P    323
12.6666666666667,-3.14159265358979,3.14159265358979;                 179P    324
128,1,8,1,2,0,1,0,0,1,0.,0.,12.6666666666667,12.6666666666667,       181P    325
-3.14159265358979,-3.14159265358979,-3.14159265358979,               181P    326
-1.5707963267949,-1.5707963267949,0.,0.,1.5707963267949,             181P    327
1.5707963267949,3.14159265358979,3.14159265358979,                   181P    328
3.14159265358979,1.,1.,0.707106781186548,0.707106781186548,1.,       181P    329
1.,0.707106781186548,0.707106781186548,1.,1.,0.707106781186548,      181P    330
0.707106781186548,1.,1.,0.707106781186548,0.707106781186548,1.,      181P    331
1.,24.0000003129244,4.,-22.,24.0000003129244,23.,-22.,               181P    332
24.0000003129244,4.,-23.5,24.0000003129244,23.,-23.5,                181P    333
22.5000003129244,4.,-23.5,22.5000003129244,23.,-23.5,                181P    334
21.0000003129244,4.,-23.5,21.0000003129244,23.,-23.5,                181P    335
21.0000003129244,4.,-22.,21.0000003129244,23.,-22.,                  181P    336
21.0000003129244,4.,-20.5,21.0000003129244,23.,-20.5,                181P    337
22.5000003129244,4.,-20.5,22.5000003129244,23.,-20.5,                181P    338
24.0000003129244,4.,-20.5,24.0000003129244,23.,-20.5,                181P    339
24.0000003129244,4.,-22.,24.0000003129244,23.,-22.,0.,               181P    340
12.6666666666667,-3.14159265358979,3.14159265358979;                 181P    341
128,1,1,1,1,0,0,1,0,0,0.,0.,0.727707862234463,0.727707862234463,     183P    342
0.,0.,5.5,5.5,1.,1.,1.,1.,36.0000000289757,4.,-16.7229213464669,     183P    343
36.0000000415846,4.,-23.9999999688115,36.0000000289757,59.,          183P    344
-16.7229213464669,36.0000000415846,59.,-23.9999999688115,0.,         183P    345
0.727707862234463,0.,5.5;                                            183P    346
128,1,1,1,1,0,0,1,0,0,0.,0.,3.8,3.8,0.,0.,5.9,5.9,1.,1.,1.,1.,       185P    347
18.0000000289757,4.,-16.7229213467648,56.0000000289757,4.,           185P    348
-16.7229213461359,18.0000000289757,63.,-16.7229213467648,            185P    349
56.0000000289757,63.,-16.7229213461359,0.,3.8,0.,5.9;                185P    350
128,1,1,1,1,0,0,1,0,0,0.,0.,0.727707865323524,0.727707865323524,     187P    351
0.,0.,5.5,5.5,1.,1.,1.,1.,18.0000000415846,4.,-24.,                  187P    352
18.0000000289757,4.,-16.7229213467648,18.0000000415846,59.,-24.,     187P    353
18.0000000289757,59.,-16.7229213467648,0.,0.727707865323524,0.,      187P    354
5.5;                                                                 187P    355
128,1,2,1,2,0,0,0,0,0,0.,0.,19.6666666666666,19.6666666666666,       189P    356
0.,0.,0.,1.57079632679489,1.57079632679489,1.57079632679489,1.,      189P    357
1.,0.707106781186549,0.707106781186549,1.,1.,21.0000000467827,       189P    358
63.,-26.9999999948019,21.0000000467827,4.,-26.9999999948019,         189P    359
18.0000000467827,63.,-27.,18.0000000467827,4.,-27.,                  189P    360
18.0000000415846,63.,-24.,18.0000000415846,4.,-24.,0.,               189P    361
19.6666666666666,0.,1.57079632679489;                                189P    362
128,1,1,1,1,0,0,1,0,0,-2.2999999982193,-2.2999999982193,1.2,1.2,     191P    363
0.,0.,5.9,5.9,1.,1.,1.,1.,56.0000000289757,4.,-27.,                  191P    364
21.0000000467827,4.,-27.,56.0000000289757,63.,-27.,                  191P    365
21.0000000467827,63.,-27.,-2.2999999982193,1.2,0.,5.9;               191P    366
128,1,2,1,2,0,0,0,0,0,0.,0.,18.3333333333334,18.3333333333334,       193P    367
0.,0.,0.,1.5707963267949,1.5707963267949,1.5707963267949,1.,1.,      193P    368
0.707106781186545,0.707106781186545,1.,1.,36.0000000415846,59.,      193P    369
-23.9999999688115,36.0000000415846,4.,-23.9999999688115,             193P    370
36.0000000467827,59.,-26.9999999688115,36.0000000467827,4.,          193P    371
-26.9999999688115,33.0000000467827,59.,-26.9999999740096,            193P    372
33.0000000467827,4.,-26.9999999740096,0.,18.3333333333334,0.,        193P    373
1.5707963267949;                                                     193P    374
128,1,1,1,1,0,0,1,0,0,-0.900000001150256,-0.900000001150256,         195P    375
0.900000000630447,0.900000000630447,-0.513853932676655,              195P    376
-0.513853932676655,0.513853932676655,0.513853932676655,1.,1.,1.,     195P    377
1.,18.0000000289757,4.,-27.,36.0000000467827,4.,-27.,                195P    378
18.0000000289757,4.,-16.7229213464669,36.0000000467827,4.,           195P    379
-16.7229213464669,-0.900000001150256,0.900000000630447,              195P    380
-0.513853932676655,0.513853932676655;                                195P    381
502,26,53.0000000289757,63.,-21.7229213467648,53.0000000289757,      197P    382
59.,-21.7229213467648,43.0000000289757,63.,-21.7229213467648,        197P    383
43.0000000289757,59.,-21.7229213467648,33.0000003129244,23.,         197P    384
-22.,24.0000003129244,23.,-22.,56.0000000289757,59.,                 197P    385
-16.7229213467648,56.0000000289757,59.,-27.,56.0000000289757,        197P    386
63.,-27.,56.0000000289757,63.,-16.7229213467648,                     197P    387
18.0000000415846,59.,-24.,18.0000000289757,59.,                      197P    388
-16.7229213467648,18.0000000289757,63.,-16.7229213467648,            197P    389
18.0000000289757,63.,-24.,21.0000000467827,63.,-27.,                 197P    390
36.0000000415846,59.,-23.9999999688115,33.0000000467827,59.,         197P    391
-27.,36.0000000289757,59.,-16.7229213464669,33.0000003129244,4.,     197P    392
-22.,24.0000003129244,4.,-22.,36.0000000415846,4.,                   197P    393
-23.9999999688115,36.0000000289757,4.,-16.7229213464669,             197P    394
18.0000000289757,4.,-16.7229213467648,18.0000000415846,4.,-24.,      197P    395
21.0000000467827,4.,-26.9999999948019,33.0000000467827,4.,-27.;      197P    396
504,39,85,197,1,197,1,87,197,1,197,2,89,197,2,197,2,91,197,3,        199P    397
197,3,93,197,3,197,4,95,197,4,197,4,97,197,5,197,5,99,197,6,197,     199P    398
6,101,197,7,197,8,103,197,8,197,9,105,197,10,197,9,107,197,7,        199P    399
197,10,109,197,11,197,12,111,197,12,197,13,113,197,14,197,13,        199P    400
115,197,11,197,14,117,197,15,197,14,119,197,13,197,10,121,197,9,     199P    401
197,15,123,197,16,197,17,125,197,8,197,17,127,197,18,197,7,129,      199P    402
197,18,197,16,131,197,5,197,19,133,197,19,197,19,135,197,6,197,      199P    403
20,137,197,20,197,20,139,197,21,197,22,141,197,21,197,16,143,        199P    404
197,22,197,18,145,197,23,197,22,147,197,23,197,12,149,197,23,        199P    405
197,24,151,197,24,197,11,153,197,25,197,24,155,197,25,197,15,        199P    406
157,197,26,197,25,159,197,26,197,17,161,197,21,197,26;               199P    407
406,1,5HBody1;                                                       201P    408
314,62.7450980392157,62.7450980392157,62.7450980392157,13HSteel      203P    409
- Satin;                                                             203P    410
S      1G      3D    204P    410                                        T      1
