                                                                        S      1
,,22HX-Towing-Chain-Support,22HX-Towing-Chain-Support,7Hunknown,7HunknowG      1
n,32,38,7,99,15,,1.,2,2HMM,1,0.08,15H20150531.182845,0.01,10000.,7HunknoG      2
wn,7Hunknown,11,0,;                                                     G      3
     186       1                                                00000000D      1
     186            -251       1       0                               0D      2
     514       2                                                00010000D      3
     514                       2       1                               0D      4
     510       4                                                00010000D      5
     510            -251       1       1                               0D      6
     510       5                                                00010000D      7
     510            -251       1       1                               0D      8
     510       6                                                00010000D      9
     510            -251       1       1                               0D     10
     510       7                                                00010000D     11
     510            -251       1       1                               0D     12
     510       8                                                00010000D     13
     510            -251       1       1                               0D     14
     510       9                                                00010000D     15
     510            -251       1       1                               0D     16
     510      10                                                00010000D     17
     510            -251       1       1                               0D     18
     510      11                                                00010000D     19
     510            -251       1       1                               0D     20
     510      12                                                00010000D     21
     510            -251       1       1                               0D     22
     510      13                                                00010000D     23
     510            -251       1       1                               0D     24
     510      14                                                00010000D     25
     510            -251       1       1                               0D     26
     510      15                                                00010000D     27
     510            -251       1       1                               0D     28
     510      16                                                00010000D     29
     510            -251       1       1                               0D     30
     510      17                                                00010000D     31
     510            -251       1       1                               0D     32
     510      18                                                00010000D     33
     510            -251       1       1                               0D     34
     510      19                                                00010000D     35
     510            -251       1       1                               0D     36
     510      20                                                00010000D     37
     510            -251       1       1                               0D     38
     510      21                                                00010000D     39
     510            -251       1       1                               0D     40
     510      22                                                00010000D     41
     510            -251       1       1                               0D     42
     510      23                                                00010000D     43
     510            -251       1       1                               0D     44
     508      24                                                00010000D     45
     508                       1       1                               0D     46
     508      25                                                00010000D     47
     508                       1       1                               0D     48
     508      26                                                00010000D     49
     508                       1       1                               0D     50
     508      27                                                00010000D     51
     508                       1       1                               0D     52
     508      28                                                00010000D     53
     508                       1       1                               0D     54
     508      29                                                00010000D     55
     508                       4       1                               0D     56
     508      33                                                00010000D     57
     508                       1       1                               0D     58
     508      34                                                00010000D     59
     508                       1       1                               0D     60
     508      35                                                00010000D     61
     508                       1       1                               0D     62
     508      36                                                00010000D     63
     508                       1       1                               0D     64
     508      37                                                00010000D     65
     508                       1       1                               0D     66
     508      38                                                00010000D     67
     508                       1       1                               0D     68
     508      39                                                00010000D     69
     508                       1       1                               0D     70
     508      40                                                00010000D     71
     508                       1       1                               0D     72
     508      41                                                00010000D     73
     508                       1       1                               0D     74
     508      42                                                00010000D     75
     508                       1       1                               0D     76
     508      43                                                00010000D     77
     508                       1       1                               0D     78
     508      44                                                00010000D     79
     508                       1       1                               0D     80
     508      45                                                00010000D     81
     508                       1       1                               0D     82
     508      46                                                00010000D     83
     508                       4       1                               0D     84
     508      50                                                00010000D     85
     508                       1       1                               0D     86
     508      51                                                00010000D     87
     508                       1       1                               0D     88
     508      52                                                00010000D     89
     508                       2       1                               0D     90
     508      54                                                00010000D     91
     508                       2       1                               0D     92
     126      56                                                00010000D     93
     126       0               4       0                               0D     94
     126      60                                                00010000D     95
     126       0               2       0                               0D     96
     126      62                                                00010000D     97
     126       0               4       0                               0D     98
     126      66                                                00010000D     99
     126       0               2       0                               0D    100
     126      68                                                00010000D    101
     126       0               2       0                               0D    102
     126      70                                                00010000D    103
     126       0               2       0                               0D    104
     126      72                                                00010000D    105
     126       0               2       0                               0D    106
     126      74                                                00010000D    107
     126       0               4       0                               0D    108
     126      78                                                00010000D    109
     126       0               2       0                               0D    110
     126      80                                                00010000D    111
     126       0               4       0                               0D    112
     126      84                                                00010000D    113
     126       0               2       0                               0D    114
     126      86                                                00010000D    115
     126       0               2       0                               0D    116
     126      88                                                00010000D    117
     126       0               2       0                               0D    118
     126      90                                                00010000D    119
     126       0               5       0                               0D    120
     126      95                                                00010000D    121
     126       0               2       0                               0D    122
     126      97                                                00010000D    123
     126       0               6       0                               0D    124
     126     103                                                00010000D    125
     126       0               2       0                               0D    126
     126     105                                                00010000D    127
     126       0               2       0                               0D    128
     126     107                                                00010000D    129
     126       0               4       0                               0D    130
     126     111                                                00010000D    131
     126       0               2       0                               0D    132
     126     113                                                00010000D    133
     126       0               4       0                               0D    134
     126     117                                                00010000D    135
     126       0               2       0                               0D    136
     126     119                                                00010000D    137
     126       0               4       0                               0D    138
     126     123                                                00010000D    139
     126       0               2       0                               0D    140
     126     125                                                00010000D    141
     126       0               5       0                               0D    142
     126     130                                                00010000D    143
     126       0               2       0                               0D    144
     126     132                                                00010000D    145
     126       0               5       0                               0D    146
     126     137                                                00010000D    147
     126       0               2       0                               0D    148
     126     139                                                00010000D    149
     126       0               8       0                               0D    150
     126     147                                                00010000D    151
     126       0               8       0                               0D    152
     126     155                                                00010000D    153
     126       0               2       0                               0D    154
     126     157                                                00010000D    155
     126       0               2       0                               0D    156
     126     159                                                00010000D    157
     126       0               4       0                               0D    158
     126     163                                                00010000D    159
     126       0               2       0                               0D    160
     126     165                                                00010000D    161
     126       0               4       0                               0D    162
     126     169                                                00010000D    163
     126       0               2       0                               0D    164
     126     171                                                00010000D    165
     126       0               2       0                               0D    166
     126     173                                                00010000D    167
     126       0               2       0                               0D    168
     126     175                                                00010000D    169
     126       0               4       0                               0D    170
     126     179                                                00010000D    171
     126       0               2       0                               0D    172
     126     181                                                00010000D    173
     126       0               2       0                               0D    174
     126     183                                                00010000D    175
     126       0               2       0                               0D    176
     126     185                                                00010000D    177
     126       0               2       0                               0D    178
     126     187                                                00010000D    179
     126       0               2       0                               0D    180
     126     189                                                00010000D    181
     126       0               2       0                               0D    182
     126     191                                                00010000D    183
     126       0               5       0                               0D    184
     126     196                                                00010000D    185
     126       0               2       0                               0D    186
     126     198                                                00010000D    187
     126       0               2       0                               0D    188
     126     200                                                00010000D    189
     126       0               2       0                               0D    190
     126     202                                                00010000D    191
     126       0               5       0                               0D    192
     126     207                                                00010000D    193
     126       0               5       0                               0D    194
     126     212                                                00010000D    195
     126       0               6       0                               0D    196
     126     218                                                00010000D    197
     126       0               4       0                               0D    198
     126     222                                                00010000D    199
     126       0               7       0                               0D    200
     126     229                                                00010000D    201
     126       0               2       0                               0D    202
     126     231                                                00010000D    203
     126       0               2       0                               0D    204
     128     233                                                00010000D    205
     128       0    -251       6       0                               0D    206
     128     239                                                00010000D    207
     128       0    -251       2       0                               0D    208
     128     241                                                00010000D    209
     128       0    -251       6       0                               0D    210
     128     247                                                00010000D    211
     128       0    -251       2       0                               0D    212
     128     249                                                00010000D    213
     128       0    -251       7       0                               0D    214
     128     256                                                00010000D    215
     128       0    -251       2       0                               0D    216
     128     258                                                00010000D    217
     128       0    -251       3       0                               0D    218
     128     261                                                00010000D    219
     128       0    -251       7       0                               0D    220
     128     268                                                00010000D    221
     128       0    -251       7       0                               0D    222
     128     275                                                00010000D    223
     128       0    -251       2       0                               0D    224
     128     277                                                00010000D    225
     128       0    -251       6       0                               0D    226
     128     283                                                00010000D    227
     128       0    -251       2       0                               0D    228
     128     285                                                00010000D    229
     128       0    -251       2       0                               0D    230
     128     287                                                00010000D    231
     128       0    -251       2       0                               0D    232
     128     289                                                00010000D    233
     128       0    -251       7       0                               0D    234
     128     296                                                00010000D    235
     128       0    -251       2       0                               0D    236
     128     298                                                00010000D    237
     128       0    -251       6       0                               0D    238
     128     304                                                00010000D    239
     128       0    -251       2       0                               0D    240
     128     306                                                00010000D    241
     128       0    -251      12       0                               0D    242
     128     318                                                00010000D    243
     128       0    -251      12       0                               0D    244
     502     330                                                00010000D    245
     502                       8       1                               0D    246
     504     338                                                00010001D    247
     504                      16       1                               0D    248
     406     354                                                00000000D    249
     406                       1      15                               0D    250
     314     355                                                00000200D    251
     314                       2       0                               0D    252
186,3,1,0,0,1,249;                                                     1P      1
514,20,5,1,7,1,9,1,11,1,13,1,15,1,17,1,19,1,21,1,23,1,25,1,27,1,       3P      2
29,1,31,1,33,1,35,1,37,1,39,1,41,1,43,1;                               3P      3
510,205,1,1,45;                                                        5P      4
510,207,1,1,47;                                                        7P      5
510,209,1,1,49;                                                        9P      6
510,211,1,1,51;                                                       11P      7
510,213,1,1,53;                                                       13P      8
510,215,3,1,55,57,59;                                                 15P      9
510,217,1,1,61;                                                       17P     10
510,219,1,1,63;                                                       19P     11
510,221,1,1,65;                                                       21P     12
510,223,1,1,67;                                                       23P     13
510,225,1,1,69;                                                       25P     14
510,227,1,1,71;                                                       27P     15
510,229,1,1,73;                                                       29P     16
510,231,1,1,75;                                                       31P     17
510,233,1,1,77;                                                       33P     18
510,235,1,1,79;                                                       35P     19
510,237,1,1,81;                                                       37P     20
510,239,3,1,83,85,87;                                                 39P     21
510,241,1,1,89;                                                       41P     22
510,243,1,1,91;                                                       43P     23
508,4,0,247,1,1,0,0,247,2,1,0,0,247,3,1,0,0,247,4,1,0;                45P     24
508,4,0,247,2,0,0,0,247,5,0,0,0,247,6,0,0,0,247,7,0,0;                47P     25
508,4,0,247,8,1,0,0,247,9,1,0,0,247,10,1,0,0,247,11,1,0;              49P     26
508,4,0,247,4,0,0,0,247,12,0,0,0,247,9,0,0,0,247,13,0,0;              51P     27
508,4,0,247,14,1,0,0,247,15,1,0,0,247,16,1,0,0,247,17,1,0;            53P     28
508,16,0,247,16,0,0,0,247,18,0,0,0,247,19,0,0,0,247,20,1,0,0,         55P     29
247,10,0,0,0,247,12,1,0,0,247,3,0,0,0,247,7,1,0,0,247,21,0,0,0,       55P     30
247,22,0,0,0,247,23,0,0,0,247,24,0,0,0,247,25,0,0,0,247,26,1,0,       55P     31
0,247,27,0,0,0,247,28,1,0;                                            55P     32
508,1,0,247,29,1,0;                                                   57P     33
508,1,0,247,30,1,0;                                                   59P     34
508,4,0,247,15,0,0,0,247,31,1,0,0,247,32,0,0,0,247,18,1,0;            61P     35
508,4,0,247,19,1,0,0,247,32,1,0,0,247,33,1,0,0,247,34,1,0;            63P     36
508,4,0,247,35,1,0,0,247,36,1,0,0,247,21,1,0,0,247,6,1,0;             65P     37
508,4,0,247,36,0,0,0,247,37,1,0,0,247,38,0,0,0,247,22,1,0;            67P     38
508,4,0,247,23,1,0,0,247,38,1,0,0,247,39,1,0,0,247,40,1,0;            69P     39
508,4,0,247,11,0,0,0,247,20,0,0,0,247,34,0,0,0,247,41,0,0;            71P     40
508,4,0,247,17,0,0,0,247,28,0,0,0,247,42,0,0,0,247,43,1,0;            73P     41
508,4,0,247,40,0,0,0,247,44,0,0,0,247,45,0,0,0,247,24,1,0;            75P     42
508,4,0,247,46,1,0,0,247,42,1,0,0,247,27,1,0,0,247,47,1,0;            77P     43
508,4,0,247,47,0,0,0,247,26,0,0,0,247,48,0,0,0,247,49,0,0;            79P     44
508,4,0,247,25,1,0,0,247,45,1,0,0,247,50,1,0,0,247,48,1,0;            81P     45
508,16,0,247,14,0,0,0,247,43,0,0,0,247,46,0,0,0,247,49,1,0,0,         83P     46
247,50,0,0,0,247,44,1,0,0,247,39,0,0,0,247,37,0,0,0,247,35,0,0,       83P     47
0,247,5,1,0,0,247,1,0,0,0,247,13,1,0,0,247,8,0,0,0,247,41,1,0,0,      83P     48
247,33,0,0,0,247,31,0,0;                                              83P     49
508,2,0,247,51,1,0,0,247,52,1,0;                                      85P     50
508,2,0,247,53,1,0,0,247,54,1,0;                                      87P     51
508,5,0,247,53,0,0,0,247,54,0,0,0,247,55,1,0,0,247,29,0,0,0,247,      89P     52
55,0,0;                                                               89P     53
508,5,0,247,51,0,0,0,247,52,0,0,0,247,56,1,0,0,247,30,0,0,0,247,      91P     54
56,0,0;                                                               91P     55
126,2,2,0,0,0,0,-0.785398163397447,-0.785398163397447,                93P     56
-0.785398163397447,0.78539816339745,0.78539816339745,                 93P     57
0.78539816339745,1.,0.707106781186553,1.,17.,4.,42.,17.,4.,45.,       93P     58
20.,4.,45.,-0.785398163397447,0.78539816339745,0.,0.,0.;              93P     59
126,1,1,0,0,1,0,0.,0.,0.4,0.4,1.,1.,20.,4.,45.,20.,0.,45.,0.,         95P     60
0.4,0.,0.,0.;                                                         95P     61
126,2,2,0,0,0,0,-0.78539816339745,-0.78539816339745,                  97P     62
-0.78539816339745,0.785398163397447,0.785398163397447,                97P     63
0.785398163397447,1.,0.707106781186553,1.,20.,0.,45.,17.,0.,45.,      97P     64
17.,0.,42.,-0.78539816339745,0.785398163397447,0.,0.,0.;              97P     65
126,1,1,0,0,1,0,-0.4,-0.4,0.,0.,1.,1.,17.,0.,42.,17.,4.,42.,          99P     66
-0.4,0.,0.,0.,0.;                                                     99P     67
126,1,1,0,0,1,0,-1.85,-1.85,1.05,1.05,1.,1.,49.,4.,45.,20.,4.,       101P     68
45.,-1.85,1.05,0.,0.,0.;                                             101P     69
126,1,1,0,0,1,0,-0.2,-0.2,0.2,0.2,1.,1.,49.,0.,45.,49.,4.,45.,       103P     70
-0.2,0.2,0.,0.,0.;                                                   103P     71
126,1,1,0,0,1,0,-1.05,-1.05,1.85,1.85,1.,1.,20.,0.,45.,49.,0.,       105P     72
45.,-1.05,1.85,0.,0.,0.;                                             105P     73
126,2,2,0,0,0,0,-0.785398163397448,-0.785398163397448,               107P     74
-0.785398163397448,0.785398163397448,0.785398163397448,              107P     75
0.785398163397448,1.,0.707106781186548,1.,20.,4.,15.,17.,4.,15.,     107P     76
17.,4.,18.,-0.785398163397448,0.785398163397448,0.,0.,0.;            107P     77
126,1,1,0,0,1,0,0.,0.,0.4,0.4,1.,1.,17.,4.,18.,17.,0.,18.,0.,        109P     78
0.4,0.,0.,0.;                                                        109P     79
126,2,2,0,0,0,0,-0.785398163397448,-0.785398163397448,               111P     80
-0.785398163397448,0.785398163397448,0.785398163397448,              111P     81
0.785398163397448,1.,0.707106781186548,1.,17.,0.,18.,17.,0.,15.,     111P     82
20.,0.,15.,-0.785398163397448,0.785398163397448,0.,0.,0.;            111P     83
126,1,1,0,0,1,0,-0.4,-0.4,0.,0.,1.,1.,20.,0.,15.,20.,4.,15.,         113P     84
-0.4,0.,0.,0.,0.;                                                    113P     85
126,1,1,0,0,1,0,-1.95,-1.95,0.45,0.45,1.,1.,17.,0.,18.,17.,0.,       115P     86
42.,-1.95,0.45,0.,0.,0.;                                             115P     87
126,1,1,0,0,1,0,-0.45,-0.45,1.95,1.95,1.,1.,17.,4.,42.,17.,4.,       117P     88
18.,-0.45,1.95,0.,0.,0.;                                             117P     89
126,2,2,0,0,0,0,-0.785398163397449,-0.785398163397449,               119P     90
-0.785398163397449,0.785398163397449,0.785398163397449,              119P     91
0.785398163397449,1.,0.707106781186549,1.,49.,4.,                    119P     92
2.22044604925031D-15,52.,4.,2.22044604925031D-15,52.,4.,             119P     93
3.00000000000001,-0.785398163397449,0.785398163397449,0.,0.,0.;      119P     94
126,1,1,0,0,1,0,-0.4,-0.4,0.,0.,1.,1.,52.,4.,3.,52.,0.,3.,-0.4,      121P     95
0.,0.,0.,0.;                                                         121P     96
126,2,2,0,0,0,0,-0.785398163397449,-0.785398163397449,               123P     97
-0.785398163397449,0.785398163397449,0.785398163397449,              123P     98
0.785398163397449,1.,0.707106781186549,1.,52.,0.,                    123P     99
3.00000000000001,52.,0.,2.22044604925031D-15,49.,0.,                 123P    100
2.22044604925031D-15,-0.785398163397449,0.785398163397449,0.,0.,     123P    101
0.;                                                                  123P    102
126,1,1,0,0,1,0,0.,0.,0.4,0.4,1.,1.,49.,0.,0.,49.,4.,0.,0.,0.4,      125P    103
0.,0.,0.;                                                            125P    104
126,1,1,0,0,1,0,3.3,3.3,4.2,4.2,1.,1.,52.,0.,12.,52.,0.,             127P    105
3.00000000000001,3.3,4.2,0.,0.,0.;                                   127P    106
126,2,2,0,0,0,0,-0.785398163397449,-0.785398163397449,               129P    107
-0.785398163397449,0.785398163397447,0.785398163397447,              129P    108
0.785398163397447,1.,0.707106781186544,1.,49.,0.,15.,52.,0.,15.,     129P    109
52.,0.,12.,-0.785398163397449,0.785398163397447,0.,0.,0.;            129P    110
126,1,1,0,0,1,0,-3.6,-3.6,-0.7,-0.7,1.,1.,49.,0.,15.,20.,0.,15.,     131P    111
-3.6,-0.7,0.,0.,0.;                                                  131P    112
126,2,2,0,0,0,0,-0.785398163397445,-0.785398163397445,               133P    113
-0.785398163397445,0.785398163397451,0.785398163397451,              133P    114
0.785398163397451,1.,0.707106781186559,1.,52.,0.,48.,52.,0.,45.,     133P    115
49.,0.,45.,-0.785398163397445,0.785398163397451,0.,0.,0.;            133P    116
126,1,1,0,0,1,0,-1.2,-1.2,-0.3,-0.3,1.,1.,52.,0.,57.,52.,0.,48.,     135P    117
-1.2,-0.3,0.,0.,0.;                                                  135P    118
126,2,2,0,0,0,0,-0.785398163397451,-0.785398163397451,               137P    119
-0.785398163397451,0.785398163397445,0.785398163397445,              137P    120
0.785398163397445,1.,0.707106781186559,1.,49.,0.,60.,52.,0.,60.,     137P    121
52.,0.,57.,-0.785398163397451,0.785398163397445,0.,0.,0.;            137P    122
126,1,1,0,0,1,0,-1.2,-1.2,3.2,3.2,1.,1.,5.,0.,60.,49.,0.,60.,        139P    123
-1.2,3.2,0.,0.,0.;                                                   139P    124
126,2,2,0,0,0,0,-0.785398163397449,-0.785398163397449,               141P    125
-0.785398163397449,0.785398163397448,0.785398163397448,              141P    126
0.785398163397448,1.,0.707106781186548,1.,1.,0.,56.,                 141P    127
0.999999999999999,0.,60.,5.,0.,60.,-0.785398163397449,               141P    128
0.785398163397448,0.,0.,0.;                                          141P    129
126,1,1,0,0,1,0,-4.1,-4.1,1.1,1.1,1.,1.,1.,0.,56.,1.,0.,4.,-4.1,     143P    130
1.1,0.,0.,0.;                                                        143P    131
126,2,2,0,0,0,0,-0.785398163397448,-0.785398163397448,               145P    132
-0.785398163397448,0.785398163397448,0.785398163397448,              145P    133
0.785398163397448,1.,0.707106781186547,1.,5.,0.,0.,1.,0.,            145P    134
1.38777878078145D-16,1.,0.,4.,-0.785398163397448,                    145P    135
0.785398163397448,0.,0.,0.;                                          145P    136
126,1,1,0,0,1,0,0.5,0.5,4.9,4.9,1.,1.,5.,0.,0.,49.,0.,0.,0.5,        147P    137
4.9,0.,0.,0.;                                                        147P    138
126,8,2,0,1,0,0,-3.14159265358979,-3.14159265358979,                 149P    139
-3.14159265358979,-1.5707963267949,-1.5707963267949,0.,0.,           149P    140
1.5707963267949,1.5707963267949,3.14159265358979,                    149P    141
3.14159265358979,3.14159265358979,1.,0.70710678118655,1.,            149P    142
0.707106781186548,1.,0.707106781186549,1.,0.707106781186551,1.,      149P    143
10.5,0.,10.,10.5,0.,8.5,9.,0.,8.5,7.5,0.,8.5,7.5,0.,10.,7.5,0.,      149P    144
11.5,9.,0.,11.5,10.5,0.,11.5,10.5,0.,10.,-3.14159265358979,          149P    145
3.14159265358979,0.,0.,0.;                                           149P    146
126,8,2,0,1,0,0,-3.14159265358979,-3.14159265358979,                 151P    147
-3.14159265358979,-1.5707963267949,-1.5707963267949,0.,0.,           151P    148
1.5707963267949,1.5707963267949,3.14159265358979,                    151P    149
3.14159265358979,3.14159265358979,1.,0.707106781186541,1.,           151P    150
0.707106781186539,1.,0.707106781186539,1.,0.707106781186541,1.,      151P    151
10.5,0.,50.,10.5,0.,48.5,9.,0.,48.5,7.5,0.,48.5,7.5,0.,50.,7.5,      151P    152
0.,51.5,9.,0.,51.5,10.5,0.,51.5,10.5,0.,50.,-3.14159265358979,       151P    153
3.14159265358979,0.,0.,0.;                                           151P    154
126,1,1,0,0,1,0,-4.2,-4.2,-3.3,-3.3,1.,1.,52.,4.,                    153P    155
3.00000000000001,52.,4.,12.,-4.2,-3.3,0.,0.,0.;                      153P    156
126,1,1,0,0,1,0,-0.2,-0.2,0.2,0.2,1.,1.,52.,0.,12.,52.,4.,12.,       155P    157
-0.2,0.2,0.,0.,0.;                                                   155P    158
126,2,2,0,0,0,0,-0.785398163397447,-0.785398163397447,               157P    159
-0.785398163397447,0.785398163397449,0.785398163397449,              157P    160
0.785398163397449,1.,0.707106781186544,1.,52.,4.,12.,52.,4.,15.,     157P    161
49.,4.,15.,-0.785398163397447,0.785398163397449,0.,0.,0.;            157P    162
126,1,1,0,0,1,0,-0.2,-0.2,0.2,0.2,1.,1.,49.,4.,15.,49.,0.,15.,       159P    163
-0.2,0.2,0.,0.,0.;                                                   159P    164
126,2,2,0,0,0,0,-0.785398163397451,-0.785398163397451,               161P    165
-0.785398163397451,0.785398163397445,0.785398163397445,              161P    166
0.785398163397445,1.,0.707106781186559,1.,49.,4.,45.,52.,4.,45.,     161P    167
52.,4.,48.,-0.785398163397451,0.785398163397445,0.,0.,0.;            161P    168
126,1,1,0,0,1,0,-0.2,-0.2,0.2,0.2,1.,1.,52.,4.,48.,52.,0.,48.,       163P    169
-0.2,0.2,0.,0.,0.;                                                   163P    170
126,1,1,0,0,1,0,0.3,0.3,1.2,1.2,1.,1.,52.,4.,48.,52.,4.,57.,0.3,     165P    171
1.2,0.,0.,0.;                                                        165P    172
126,1,1,0,0,1,0,0.,0.,0.4,0.4,1.,1.,52.,0.,57.,52.,4.,57.,0.,        167P    173
0.4,0.,0.,0.;                                                        167P    174
126,2,2,0,0,0,0,-0.785398163397445,-0.785398163397445,               169P    175
-0.785398163397445,0.785398163397451,0.785398163397451,              169P    176
0.785398163397451,1.,0.707106781186559,1.,52.,4.,57.,52.,4.,60.,     169P    177
49.,4.,60.,-0.785398163397445,0.785398163397451,0.,0.,0.;            169P    178
126,1,1,0,0,1,0,-0.4,-0.4,0.,0.,1.,1.,49.,4.,60.,49.,0.,60.,         171P    179
-0.4,0.,0.,0.,0.;                                                    171P    180
126,1,1,0,0,1,0,0.7,0.7,3.6,3.6,1.,1.,20.,4.,15.,49.,4.,15.,0.7,     173P    181
3.6,0.,0.,0.;                                                        173P    182
126,1,1,0,0,1,0,-0.4,-0.4,0.,0.,1.,1.,5.,4.,0.,5.,0.,0.,-0.4,0.,     175P    183
0.,0.,0.;                                                            175P    184
126,1,1,0,0,1,0,-1.2,-1.2,3.2,3.2,1.,1.,5.,4.,0.,49.,4.,0.,-1.2,     177P    185
3.2,0.,0.,0.;                                                        177P    186
126,1,1,0,0,1,0,-1.3,-1.3,3.1,3.1,1.,1.,5.,4.,60.,49.,4.,60.,        179P    187
-1.3,3.1,0.,0.,0.;                                                   179P    188
126,1,1,0,0,1,0,0.,0.,0.4,0.4,1.,1.,5.,0.,60.,5.,4.,60.,0.,0.4,      181P    189
0.,0.,0.;                                                            181P    190
126,2,2,0,0,0,0,-0.785398163397448,-0.785398163397448,               183P    191
-0.785398163397448,0.785398163397448,0.785398163397448,              183P    192
0.785398163397448,1.,0.707106781186547,1.,1.,4.,4.,1.,4.,            183P    193
1.38777878078145D-16,5.,4.,0.,-0.785398163397448,                    183P    194
0.785398163397448,0.,0.,0.;                                          183P    195
126,1,1,0,0,1,0,0.,0.,0.4,0.4,1.,1.,1.,0.,4.,1.,4.,4.,0.,0.4,0.,     185P    196
0.,0.;                                                               185P    197
126,1,1,0,0,1,0,-0.4,-0.4,0.,0.,1.,1.,1.,4.,56.,1.,0.,56.,-0.4,      187P    198
0.,0.,0.,0.;                                                         187P    199
126,1,1,0,0,1,0,-1.1,-1.1,4.1,4.1,1.,1.,1.,4.,4.,1.,4.,56.,-1.1,     189P    200
4.1,0.,0.,0.;                                                        189P    201
126,2,2,0,0,0,0,-0.785398163397448,-0.785398163397448,               191P    202
-0.785398163397448,0.785398163397449,0.785398163397449,              191P    203
0.785398163397449,1.,0.707106781186548,1.,5.,4.,60.,                 191P    204
0.999999999999999,4.,60.,1.,4.,56.,-0.785398163397448,               191P    205
0.785398163397449,0.,0.,0.;                                          191P    206
126,4,2,0,0,0,0,0.,0.,0.,1.5707963267949,1.5707963267949,            193P    207
3.14159265358979,3.14159265358979,3.14159265358979,1.,               193P    208
0.707106781186539,1.,0.707106781186541,1.,7.5,4.,50.,7.5,4.,         193P    209
48.5,9.,4.,48.5,10.5,4.,48.5,10.5,4.,50.,0.,3.14159265358979,0.,     193P    210
0.,0.;                                                               193P    211
126,4,2,0,0,0,0,3.14159265358979,3.14159265358979,                   195P    212
3.14159265358979,4.71238898038469,4.71238898038469,                  195P    213
6.28318530717959,6.28318530717959,6.28318530717959,1.,               195P    214
0.707106781186541,1.,0.707106781186539,1.,10.5,4.,50.,10.5,4.,       195P    215
51.5,9.,4.,51.5,7.5,4.,51.5,7.5,4.,50.,3.14159265358979,             195P    216
6.28318530717959,0.,0.,0.;                                           195P    217
126,2,2,0,0,0,0,1.5707963267949,1.5707963267949,1.5707963267949,     197P    218
3.14159265358979,3.14159265358979,3.14159265358979,1.,               197P    219
0.70710678118655,1.,9.,4.,8.5,10.5,4.,8.5,10.5,4.,10.,               197P    220
1.5707963267949,3.14159265358979,0.,0.,0.;                           197P    221
126,6,2,0,0,0,0,3.14159265358979,3.14159265358979,                   199P    222
3.14159265358979,4.71238898038469,4.71238898038469,                  199P    223
6.28318530717959,6.28318530717959,7.85398163397448,                  199P    224
7.85398163397448,7.85398163397448,1.,0.707106781186551,1.,           199P    225
0.707106781186549,1.,0.707106781186548,1.,10.5,4.,10.,10.5,4.,       199P    226
11.5,9.,4.,11.5,7.5,4.,11.5,7.5,4.,10.,7.5,4.,8.5,9.,4.,8.5,         199P    227
3.14159265358979,7.85398163397448,0.,0.,0.;                          199P    228
126,1,1,0,0,1,0,0.,0.,2.66666666666667,2.66666666666667,1.,1.,       201P    229
10.5,4.,10.,10.5,0.,10.,0.,2.66666666666667,0.,0.,0.;                201P    230
126,1,1,0,0,1,0,0.,0.,2.66666666666667,2.66666666666667,1.,1.,       203P    231
10.5,4.,50.,10.5,0.,50.,0.,2.66666666666667,0.,0.,0.;                203P    232
128,1,2,1,2,0,0,0,0,0,0.,0.,1.33333333333333,1.33333333333333,       205P    233
-0.78539816339745,-0.78539816339745,-0.78539816339745,               205P    234
0.785398163397447,0.785398163397447,0.785398163397447,1.,1.,         205P    235
0.707106781186548,0.707106781186548,1.,1.,20.,4.,45.,20.,0.,45.,     205P    236
17.,4.,45.,17.,0.,45.,17.,4.,42.,17.,0.,42.,0.,1.33333333333333,     205P    237
-0.78539816339745,0.785398163397447;                                 205P    238
128,1,1,1,1,0,0,1,0,0,0.3,0.3,3.2,3.2,0.,0.,0.4,0.4,1.,1.,1.,1.,     207P    239
20.,4.,45.,49.,4.,45.,20.,0.,45.,49.,0.,45.,0.3,3.2,0.,0.4;          207P    240
128,1,2,1,2,0,0,0,0,0,0.,0.,1.33333333333333,1.33333333333333,       209P    241
-0.785398163397448,-0.785398163397448,-0.785398163397448,            209P    242
0.785398163397448,0.785398163397448,0.785398163397448,1.,1.,         209P    243
0.707106781186548,0.707106781186548,1.,1.,17.,4.,18.,17.,0.,18.,     209P    244
17.,4.,15.,17.,0.,15.,20.,4.,15.,20.,0.,15.,0.,1.33333333333333,     209P    245
-0.785398163397448,0.785398163397448;                                209P    246
128,1,1,1,1,0,0,1,0,0,0.3,0.3,2.7,2.7,0.,0.,0.4,0.4,1.,1.,1.,1.,     211P    247
17.,4.,18.,17.,4.,42.,17.,0.,18.,17.,0.,42.,0.3,2.7,0.,0.4;          211P    248
128,1,2,1,2,0,0,0,0,0,0.,0.,1.33333333333333,1.33333333333333,       213P    249
-0.785398163397449,-0.785398163397449,-0.785398163397449,            213P    250
0.785398163397449,0.785398163397449,0.785398163397449,1.,1.,         213P    251
0.707106781186547,0.707106781186547,1.,1.,52.,4.,                    213P    252
3.00000000000001,52.,0.,3.00000000000001,52.,4.,                     213P    253
2.77555756156289D-15,52.,0.,2.77555756156289D-15,49.,4.,0.,49.,      213P    254
0.,0.,0.,1.33333333333333,-0.785398163397449,0.785398163397449;      213P    255
128,1,1,1,1,0,0,1,0,0,-0.8,-0.8,4.3,4.3,-3.,-3.,3.,3.,1.,1.,1.,      215P    256
1.,52.,0.,60.,1.,0.,60.,52.,0.,0.,1.,0.,0.,-0.8,4.3,-3.,3.;          215P    257
128,1,1,1,1,0,0,1,0,0,4.8,4.8,5.7,5.7,0.,0.,0.4,0.4,1.,1.,1.,1.,     217P    258
52.,0.,12.,52.,0.,3.00000000000001,52.,4.,12.,52.,4.,                217P    259
3.00000000000001,4.8,5.7,0.,0.4;                                     217P    260
128,1,2,1,2,0,0,0,0,0,-0.666666666666667,-0.666666666666667,         219P    261
0.666666666666667,0.666666666666667,-0.785398163397448,              219P    262
-0.785398163397448,-0.785398163397448,0.785398163397449,             219P    263
0.785398163397449,0.785398163397449,1.,1.,0.707106781186548,         219P    264
0.707106781186548,1.,1.,52.,0.,12.,52.,4.,12.,52.,0.,15.,52.,4.,     219P    265
15.,49.,0.,15.,49.,4.,15.,-0.666666666666667,0.666666666666667,      219P    266
-0.785398163397448,0.785398163397449;                                219P    267
128,1,2,1,2,0,0,0,0,0,-0.666666666666667,-0.666666666666667,         221P    268
0.666666666666667,0.666666666666667,-0.785398163397445,              221P    269
-0.785398163397445,-0.785398163397445,0.785398163397451,             221P    270
0.785398163397451,0.785398163397451,1.,1.,0.707106781186548,         221P    271
0.707106781186548,1.,1.,52.,4.,48.,52.,0.,48.,52.,4.,45.,52.,0.,     221P    272
45.,49.,4.,45.,49.,0.,45.,-0.666666666666667,0.666666666666667,      221P    273
-0.785398163397445,0.785398163397451;                                221P    274
128,1,1,1,1,0,0,1,0,0,0.3,0.3,1.2,1.2,0.,0.,0.4,0.4,1.,1.,1.,1.,     223P    275
52.,0.,57.,52.,0.,48.,52.,4.,57.,52.,4.,48.,0.3,1.2,0.,0.4;          223P    276
128,1,2,1,2,0,0,0,0,0,-1.33333333333333,-1.33333333333333,0.,0.,     225P    277
-0.785398163397445,-0.785398163397445,-0.785398163397445,            225P    278
0.785398163397451,0.785398163397451,0.785398163397451,1.,1.,         225P    279
0.707106781186548,0.707106781186548,1.,1.,52.,0.,57.,52.,4.,57.,     225P    280
52.,0.,60.,52.,4.,60.,49.,0.,60.,49.,4.,60.,-1.33333333333333,       225P    281
0.,-0.785398163397445,0.785398163397451;                             225P    282
128,1,1,1,1,0,0,1,0,0,0.3,0.3,3.2,3.2,0.,0.,0.4,0.4,1.,1.,1.,1.,     227P    283
49.,4.,15.,20.,4.,15.,49.,0.,15.,20.,0.,15.,0.3,3.2,0.,0.4;          227P    284
128,1,1,1,1,0,0,1,0,0,-3.1,-3.1,1.3,1.3,0.,0.,0.4,0.4,1.,1.,1.,      229P    285
1.,49.,0.,0.,5.,0.,0.,49.,4.,0.,5.,4.,0.,-3.1,1.3,0.,0.4;            229P    286
128,1,1,1,1,0,0,1,0,0,0.5,0.5,4.9,4.9,0.,0.,0.4,0.4,1.,1.,1.,1.,     231P    287
5.,0.,60.,49.,0.,60.,5.,4.,60.,49.,4.,60.,0.5,4.9,0.,0.4;            231P    288
128,1,2,1,2,0,0,0,0,0,0.,0.,1.,1.,-0.785398163397448,                233P    289
-0.785398163397448,-0.785398163397448,0.785398163397448,             233P    290
0.785398163397448,0.785398163397448,1.,1.,0.707106781186548,         233P    291
0.707106781186548,1.,1.,5.,4.,2.77555756156289D-16,5.,0.,            233P    292
2.77555756156289D-16,1.,4.,5.55111512312578D-16,1.,0.,               233P    293
5.55111512312578D-16,1.,4.,4.,1.,0.,4.,0.,1.,-0.785398163397448,     233P    294
0.785398163397448;                                                   233P    295
128,1,1,1,1,0,0,1,0,0,-5.6,-5.6,-0.4,-0.4,0.,0.,0.4,0.4,1.,1.,       235P    296
1.,1.,1.,0.,4.,1.,0.,56.,1.,4.,4.,1.,4.,56.,-5.6,-0.4,0.,0.4;        235P    297
128,1,2,1,2,0,0,0,0,0,-1.,-1.,0.,0.,-0.785398163397448,              237P    298
-0.785398163397448,-0.785398163397448,0.785398163397449,             237P    299
0.785398163397449,0.785398163397449,1.,1.,0.707106781186547,         237P    300
0.707106781186547,1.,1.,5.,0.,60.,5.,4.,60.,1.,0.,60.,1.,4.,60.,     237P    301
0.999999999999998,0.,56.,0.999999999999998,4.,56.,-1.,0.,            237P    302
-0.785398163397448,0.785398163397449;                                237P    303
128,1,1,1,1,0,0,1,0,0,-3.,-3.,3.,3.,-0.8,-0.8,4.3,4.3,1.,1.,1.,      239P    304
1.,1.,4.,0.,1.,4.,60.,52.,4.,0.,52.,4.,60.,-3.,3.,-0.8,4.3;          239P    305
128,1,8,1,2,0,1,0,0,1,0.,0.,2.66666666666667,2.66666666666667,       241P    306
-3.14159265358979,-3.14159265358979,-3.14159265358979,               241P    307
-1.5707963267949,-1.5707963267949,0.,0.,1.5707963267949,             241P    308
1.5707963267949,3.14159265358979,3.14159265358979,                   241P    309
3.14159265358979,1.,1.,0.707106781186548,0.707106781186548,1.,       241P    310
1.,0.707106781186548,0.707106781186548,1.,1.,0.707106781186548,      241P    311
0.707106781186548,1.,1.,0.707106781186548,0.707106781186548,1.,      241P    312
1.,10.5,4.,10.,10.5,0.,10.,10.5,4.,11.5,10.5,0.,11.5,9.,4.,11.5,     241P    313
9.,0.,11.5,7.5,4.,11.5,7.5,0.,11.5,7.5,4.,10.,7.5,0.,10.,7.5,4.,     241P    314
8.5,7.5,0.,8.5,9.,4.,8.5,9.,0.,8.5,10.5,4.,8.5,10.5,0.,8.5,10.5,     241P    315
4.,10.,10.5,0.,10.,0.,2.66666666666667,-3.14159265358979,            241P    316
3.14159265358979;                                                    241P    317
128,1,8,1,2,0,1,0,0,1,0.,0.,2.66666666666667,2.66666666666667,       243P    318
-3.14159265358979,-3.14159265358979,-3.14159265358979,               243P    319
-1.5707963267949,-1.5707963267949,0.,0.,1.5707963267949,             243P    320
1.5707963267949,3.14159265358979,3.14159265358979,                   243P    321
3.14159265358979,1.,1.,0.707106781186548,0.707106781186548,1.,       243P    322
1.,0.707106781186548,0.707106781186548,1.,1.,0.707106781186548,      243P    323
0.707106781186548,1.,1.,0.707106781186548,0.707106781186548,1.,      243P    324
1.,10.5,4.,50.,10.5,0.,50.,10.5,4.,51.5,10.5,0.,51.5,9.,4.,51.5,     243P    325
9.,0.,51.5,7.5,4.,51.5,7.5,0.,51.5,7.5,4.,50.,7.5,0.,50.,7.5,4.,     243P    326
48.5,7.5,0.,48.5,9.,4.,48.5,9.,0.,48.5,10.5,4.,48.5,10.5,0.,         243P    327
48.5,10.5,4.,50.,10.5,0.,50.,0.,2.66666666666667,                    243P    328
-3.14159265358979,3.14159265358979;                                  243P    329
502,38,17.,4.,42.,20.,4.,45.,20.,0.,45.,17.,0.,42.,49.,4.,45.,       245P    330
49.,0.,45.,20.,4.,15.,17.,4.,18.,17.,0.,18.,20.,0.,15.,49.,4.,       245P    331
0.,52.,4.,3.00000000000001,52.,0.,3.00000000000001,49.,0.,0.,        245P    332
52.,0.,12.,49.,0.,15.,52.,0.,48.,52.,0.,57.,49.,0.,60.,5.,0.,        245P    333
60.,1.,0.,56.,1.,0.,4.,5.,0.,0.,10.5,0.,10.,10.5,0.,50.,52.,4.,      245P    334
12.,49.,4.,15.,52.,4.,48.,52.,4.,57.,49.,4.,60.,5.,4.,0.,5.,4.,      245P    335
60.,1.,4.,4.,1.,4.,56.,7.5,4.,50.,10.5,4.,50.,9.,4.,8.5,10.5,4.,     245P    336
10.;                                                                 245P    337
504,56,93,245,1,245,2,95,245,2,245,3,97,245,3,245,4,99,245,4,        247P    338
245,1,101,245,5,245,2,103,245,6,245,5,105,245,3,245,6,107,245,7,     247P    339
245,8,109,245,8,245,9,111,245,9,245,10,113,245,10,245,7,115,245,     247P    340
9,245,4,117,245,1,245,8,119,245,11,245,12,121,245,12,245,13,123,     247P    341
245,13,245,14,125,245,14,245,11,127,245,15,245,13,129,245,16,        247P    342
245,15,131,245,16,245,10,133,245,17,245,6,135,245,18,245,17,137,     247P    343
245,19,245,18,139,245,20,245,19,141,245,21,245,20,143,245,21,        247P    344
245,22,145,245,23,245,22,147,245,23,245,14,149,245,24,245,24,        247P    345
151,245,25,245,25,153,245,12,245,26,155,245,15,245,26,157,245,       247P    346
26,245,27,159,245,27,245,16,161,245,5,245,28,163,245,28,245,17,      247P    347
165,245,28,245,29,167,245,18,245,29,169,245,29,245,30,171,245,       247P    348
30,245,19,173,245,7,245,27,175,245,31,245,23,177,245,31,245,11,      247P    349
179,245,32,245,30,181,245,20,245,32,183,245,33,245,31,185,245,       247P    350
22,245,33,187,245,34,245,21,189,245,33,245,34,191,245,32,245,34,     247P    351
193,245,35,245,36,195,245,36,245,35,197,245,37,245,38,199,245,       247P    352
38,245,37,201,245,38,245,24,203,245,36,245,25;                       247P    353
406,1,5HBody1;                                                       249P    354
314,62.7450980392157,62.7450980392157,62.7450980392157,13HSteel      251P    355
- Satin;                                                             251P    356
S      1G      3D    252P    356                                        T      1
