                                                                        S      1
,,8HY-Idler3,8HY-Idler3,7Hunknown,7Hunknown,32,38,7,99,15,,1.,2,2HMM,1, G      1
0.08,15H20150605.222246,0.01,10000.,7Hunknown,7Hunknown,11,0,;          G      2
     186       1                                                00000000D      1
     186            -241       1       0                               0D      2
     514       2                                                00010000D      3
     514                       2       1                               0D      4
     510       4                                                00010000D      5
     510            -241       1       1                               0D      6
     510       5                                                00010000D      7
     510            -241       1       1                               0D      8
     510       6                                                00010000D      9
     510            -241       1       1                               0D     10
     510       7                                                00010000D     11
     510            -241       1       1                               0D     12
     510       8                                                00010000D     13
     510            -241       1       1                               0D     14
     510       9                                                00010000D     15
     510            -241       1       1                               0D     16
     510      10                                                00010000D     17
     510            -241       1       1                               0D     18
     510      11                                                00010000D     19
     510            -241       1       1                               0D     20
     510      12                                                00010000D     21
     510            -241       1       1                               0D     22
     510      13                                                00010000D     23
     510            -241       1       1                               0D     24
     510      14                                                00010000D     25
     510            -241       1       1                               0D     26
     510      15                                                00010000D     27
     510            -241       1       1                               0D     28
     510      16                                                00010000D     29
     510            -241       1       1                               0D     30
     510      17                                                00010000D     31
     510            -241       1       1                               0D     32
     510      18                                                00010000D     33
     510            -241       1       1                               0D     34
     510      19                                                00010000D     35
     510            -241       1       1                               0D     36
     510      20                                                00010000D     37
     510            -241       1       1                               0D     38
     510      21                                                00010000D     39
     510            -241       1       1                               0D     40
     508      22                                                00010000D     41
     508                       1       1                               0D     42
     508      23                                                00010000D     43
     508                       2       1                               0D     44
     508      25                                                00010000D     45
     508                       2       1                               0D     46
     508      27                                                00010000D     47
     508                       1       1                               0D     48
     508      28                                                00010000D     49
     508                       1       1                               0D     50
     508      29                                                00010000D     51
     508                       1       1                               0D     52
     508      30                                                00010000D     53
     508                       1       1                               0D     54
     508      31                                                00010000D     55
     508                       1       1                               0D     56
     508      32                                                00010000D     57
     508                       2       1                               0D     58
     508      34                                                00010000D     59
     508                       1       1                               0D     60
     508      35                                                00010000D     61
     508                       2       1                               0D     62
     508      37                                                00010000D     63
     508                       1       1                               0D     64
     508      38                                                00010000D     65
     508                       1       1                               0D     66
     508      39                                                00010000D     67
     508                       1       1                               0D     68
     508      40                                                00010000D     69
     508                       1       1                               0D     70
     508      41                                                00010000D     71
     508                       1       1                               0D     72
     508      42                                                00010000D     73
     508                       1       1                               0D     74
     508      43                                                00010000D     75
     508                       1       1                               0D     76
     508      44                                                00010000D     77
     508                       1       1                               0D     78
     508      45                                                00010000D     79
     508                       1       1                               0D     80
     508      46                                                00010000D     81
     508                       1       1                               0D     82
     508      47                                                00010000D     83
     508                       2       1                               0D     84
     508      49                                                00010000D     85
     508                       1       1                               0D     86
     508      50                                                00010000D     87
     508                       1       1                               0D     88
     508      51                                                00010000D     89
     508                       1       1                               0D     90
     508      52                                                00010000D     91
     508                       1       1                               0D     92
     508      53                                                00010000D     93
     508                       1       1                               0D     94
     508      54                                                00010000D     95
     508                       1       1                               0D     96
     508      55                                                00010000D     97
     508                       1       1                               0D     98
     508      56                                                00010000D     99
     508                       1       1                               0D    100
     126      57                                                00010000D    101
     126       0               5       0                               0D    102
     126      62                                                00010000D    103
     126       0               3       0                               0D    104
     126      65                                                00010000D    105
     126       0               5       0                               0D    106
     126      70                                                00010000D    107
     126       0               2       0                               0D    108
     126      72                                                00010000D    109
     126       0               3       0                               0D    110
     126      75                                                00010000D    111
     126       0               2       0                               0D    112
     126      77                                                00010000D    113
     126       0               2       0                               0D    114
     126      79                                                00010000D    115
     126       0               2       0                               0D    116
     126      81                                                00010000D    117
     126       0               3       0                               0D    118
     126      84                                                00010000D    119
     126       0               2       0                               0D    120
     126      86                                                00010000D    121
     126       0               2       0                               0D    122
     126      88                                                00010000D    123
     126       0               4       0                               0D    124
     126      92                                                00010000D    125
     126       0               6       0                               0D    126
     126      98                                                00010000D    127
     126       0               3       0                               0D    128
     126     101                                                00010000D    129
     126       0               4       0                               0D    130
     126     105                                                00010000D    131
     126       0              10       0                               0D    132
     126     115                                                00010000D    133
     126       0              10       0                               0D    134
     126     125                                                00010000D    135
     126       0               9       0                               0D    136
     126     134                                                00010000D    137
     126       0               9       0                               0D    138
     126     143                                                00010000D    139
     126       0               3       0                               0D    140
     126     146                                                00010000D    141
     126       0               5       0                               0D    142
     126     151                                                00010000D    143
     126       0               3       0                               0D    144
     126     154                                                00010000D    145
     126       0               3       0                               0D    146
     126     157                                                00010000D    147
     126       0               2       0                               0D    148
     126     159                                                00010000D    149
     126       0               3       0                               0D    150
     126     162                                                00010000D    151
     126       0               3       0                               0D    152
     126     165                                                00010000D    153
     126       0               2       0                               0D    154
     126     167                                                00010000D    155
     126       0               2       0                               0D    156
     126     169                                                00010000D    157
     126       0              11       0                               0D    158
     126     180                                                00010000D    159
     126       0               3       0                               0D    160
     126     183                                                00010000D    161
     126       0              11       0                               0D    162
     126     194                                                00010000D    163
     126       0               5       0                               0D    164
     126     199                                                00010000D    165
     126       0              11       0                               0D    166
     126     210                                                00010000D    167
     126       0               3       0                               0D    168
     126     213                                                00010000D    169
     126       0              12       0                               0D    170
     126     225                                                00010000D    171
     126       0               4       0                               0D    172
     126     229                                                00010000D    173
     126       0               3       0                               0D    174
     126     232                                                00010000D    175
     126       0               3       0                               0D    176
     126     235                                                00010000D    177
     126       0               3       0                               0D    178
     126     238                                                00010000D    179
     126       0               3       0                               0D    180
     126     241                                                00010000D    181
     126       0               3       0                               0D    182
     126     244                                                00010000D    183
     126       0               9       0                               0D    184
     126     253                                                00010000D    185
     126       0               9       0                               0D    186
     126     262                                                00010000D    187
     126       0              10       0                               0D    188
     126     272                                                00010000D    189
     126       0              10       0                               0D    190
     126     282                                                00010000D    191
     126       0               3       0                               0D    192
     126     285                                                00010000D    193
     126       0               3       0                               0D    194
     126     288                                                00010000D    195
     126       0               3       0                               0D    196
     126     291                                                00010000D    197
     126       0               3       0                               0D    198
     128     294                                                00010000D    199
     128       0    -241       7       0                               0D    200
     128     301                                                00010000D    201
     128       0    -241       4       0                               0D    202
     128     305                                                00010000D    203
     128       0    -241       4       0                               0D    204
     128     309                                                00010000D    205
     128       0    -241       9       0                               0D    206
     128     318                                                00010000D    207
     128       0    -241       5       0                               0D    208
     128     323                                                00010000D    209
     128       0    -241      17       0                               0D    210
     128     340                                                00010000D    211
     128       0    -241      20       0                               0D    212
     128     360                                                00010000D    213
     128       0    -241       4       0                               0D    214
     128     364                                                00010000D    215
     128       0    -241       6       0                               0D    216
     128     370                                                00010000D    217
     128       0    -241       4       0                               0D    218
     128     374                                                00010000D    219
     128       0    -241       5       0                               0D    220
     128     379                                                00010000D    221
     128       0    -241       6       0                               0D    222
     128     385                                                00010000D    223
     128       0    -241       5       0                               0D    224
     128     390                                                00010000D    225
     128       0    -241       4       0                               0D    226
     128     394                                                00010000D    227
     128       0    -241      15       0                               0D    228
     128     409                                                00010000D    229
     128       0    -241      15       0                               0D    230
     128     424                                                00010000D    231
     128       0    -241      17       0                               0D    232
     128     441                                                00010000D    233
     128       0    -241      17       0                               0D    234
     502     458                                                00010000D    235
     502                      15       1                               0D    236
     504     473                                                00010001D    237
     504                      14       1                               0D    238
     406     487                                                00000000D    239
     406                       1      15                               0D    240
     314     488                                                00000200D    241
     314                       2       0                               0D    242
186,3,1,0,0,1,239;                                                     1P      1
514,18,5,1,7,1,9,1,11,1,13,1,15,1,17,1,19,1,21,1,23,1,25,1,27,1,       3P      2
29,1,31,1,33,1,35,1,37,1,39,1;                                         3P      3
510,199,1,1,41;                                                        5P      4
510,201,1,1,43;                                                        7P      5
510,203,5,1,45,47,49,51,53;                                            9P      6
510,205,1,1,55;                                                       11P      7
510,207,1,1,57;                                                       13P      8
510,209,1,1,59;                                                       15P      9
510,211,1,1,61;                                                       17P     10
510,213,2,1,63,65;                                                    19P     11
510,215,1,1,67;                                                       21P     12
510,217,2,1,69,71;                                                    23P     13
510,219,1,1,73;                                                       25P     14
510,221,3,1,75,77,79;                                                 27P     15
510,223,1,1,81;                                                       29P     16
510,225,5,1,83,85,87,89,91;                                           31P     17
510,227,1,1,93;                                                       33P     18
510,229,1,1,95;                                                       35P     19
510,231,1,1,97;                                                       37P     20
510,233,1,1,99;                                                       39P     21
508,4,0,237,1,1,0,0,237,2,1,0,0,237,3,1,0,0,237,4,1,0;                41P     22
508,8,0,237,4,0,0,0,237,5,1,0,0,237,6,1,0,0,237,7,0,0,0,237,8,1,      43P     23
0,0,237,9,0,0,0,237,10,0,0,0,237,11,1,0;                              43P     24
508,6,0,237,3,0,0,0,237,12,0,0,0,237,13,0,0,0,237,14,1,0,0,237,       45P     25
15,1,0,0,237,5,0,0;                                                   45P     26
508,1,0,237,16,0,0;                                                   47P     27
508,1,0,237,17,0,0;                                                   49P     28
508,1,0,237,18,1,0;                                                   51P     29
508,1,0,237,19,1,0;                                                   53P     30
508,4,0,237,13,1,0,0,237,20,1,0,0,237,21,1,0,0,237,22,1,0;            55P     31
508,8,0,237,22,0,0,0,237,23,1,0,0,237,24,1,0,0,237,25,0,0,0,237,      57P     32
26,1,0,0,237,27,0,0,0,237,28,0,0,0,237,14,0,0;                        57P     33
508,4,0,237,29,0,0,0,237,30,1,0,0,237,31,0,0,0,237,30,0,0;            59P     34
508,5,0,237,32,0,0,0,237,33,0,0,0,237,34,1,0,0,237,35,0,0,0,237,      61P     35
34,0,0;                                                               61P     36
508,4,0,237,36,0,0,0,237,10,1,0,0,237,37,0,0,0,237,24,0,0;            63P     37
508,1,0,237,35,1,0;                                                   65P     38
508,4,0,237,9,1,0,0,237,38,1,0,0,237,25,1,0,0,237,37,1,0;             67P     39
508,4,0,237,15,0,0,0,237,28,1,0,0,237,39,0,0,0,237,6,0,0;             69P     40
508,1,0,237,31,1,0;                                                   71P     41
508,4,0,237,27,1,0,0,237,40,1,0,0,237,7,1,0,0,237,39,1,0;             73P     42
508,4,0,237,26,0,0,0,237,38,0,0,0,237,8,0,0,0,237,40,0,0;             75P     43
508,1,0,237,29,1,0;                                                   77P     44
508,2,0,237,32,1,0,0,237,33,1,0;                                      79P     45
508,4,0,237,2,0,0,0,237,41,1,0,0,237,20,0,0,0,237,12,1,0;             81P     46
508,6,0,237,1,0,0,0,237,11,0,0,0,237,36,1,0,0,237,23,0,0,0,237,       83P     47
21,0,0,0,237,41,0,0;                                                  83P     48
508,1,0,237,42,1,0;                                                   85P     49
508,1,0,237,43,1,0;                                                   87P     50
508,1,0,237,44,1,0;                                                   89P     51
508,1,0,237,45,1,0;                                                   91P     52
508,4,0,237,19,0,0,0,237,46,1,0,0,237,42,0,0,0,237,46,0,0;            93P     53
508,4,0,237,18,0,0,0,237,47,1,0,0,237,43,0,0,0,237,47,0,0;            95P     54
508,4,0,237,45,0,0,0,237,48,1,0,0,237,16,1,0,0,237,48,0,0;            97P     55
508,4,0,237,44,0,0,0,237,49,1,0,0,237,17,1,0,0,237,49,0,0;            99P     56
126,2,2,0,0,0,0,-0.785398163397446,-0.785398163397446,               101P     57
-0.785398163397446,0.785398163397451,0.785398163397451,              101P     58
0.785398163397451,1.,0.707106781186541,1.,-41.,-11.5,-2.,-41.,       101P     59
-11.5,-4.,-39.,-11.5,-4.,-0.785398163397446,0.785398163397451,       101P     60
0.,0.,0.;                                                            101P     61
126,1,1,0,0,1,0,-0.500000005960464,-0.500000005960464,0.,0.,1.,      103P     62
1.,-39.,-11.4999999403954,-4.,-39.,-16.5,-4.,-0.500000005960464,     103P     63
0.,0.,0.,0.;                                                         103P     64
126,2,2,0,0,0,0,-0.785398163397451,-0.785398163397451,               105P     65
-0.785398163397451,0.785398163397447,0.785398163397447,              105P     66
0.785398163397447,1.,0.707106781186541,1.,-39.,-16.5,-4.,-41.,       105P     67
-16.5,-4.,-41.,-16.5,-2.,-0.785398163397451,0.785398163397447,       105P     68
0.,0.,0.;                                                            105P     69
126,1,1,0,0,1,0,0.,0.,0.5,0.5,1.,1.,-41.,-16.5,-2.,-41.,-11.5,       107P     70
-2.,0.,0.5,0.,0.,0.;                                                 107P     71
126,1,1,0,0,1,0,-3.1,-3.1,0.100000000000002,0.100000000000002,       109P     72
1.,1.,-41.,-16.5,-2.,-41.,-16.5,30.,-3.1,0.100000000000002,0.,       109P     73
0.,0.;                                                               109P     74
126,1,1,0,0,1,0,0.,0.,1.4,1.4,1.,1.,-41.,-16.5,30.,-41.,-30.5,       111P     75
30.,0.,1.4,0.,0.,0.;                                                 111P     76
126,1,1,0,0,1,0,0.,0.,0.799999999999998,0.799999999999998,1.,1.,     113P     77
-41.,-30.5,38.,-41.,-30.5,30.,0.,0.799999999999998,0.,0.,0.;         113P     78
126,1,1,0,0,1,0,-1.9,-1.9,1.,1.,1.,1.,-41.,-30.5,38.,-41.,           115P     79
-1.50000000000001,38.,-1.9,1.,0.,0.,0.;                              115P     80
126,1,1,0,0,1,0,0.,0.,0.799999999999998,0.799999999999998,1.,1.,     117P     81
-41.,-1.50000000000001,30.,-41.,-1.50000000000001,38.,0.,            117P     82
0.799999999999998,0.,0.,0.;                                          117P     83
126,1,1,0,0,1,0,0.,0.,1.,1.,1.,1.,-41.,-11.5,30.,-41.,               119P     84
-1.50000000000001,30.,0.,1.,0.,0.,0.;                                119P     85
126,1,1,0,0,1,0,-2.525,-2.525,0.675,0.675,1.,1.,-41.,-11.5,30.,      121P     86
-41.,-11.5,-2.,-2.525,0.675,0.,0.,0.;                                121P     87
126,1,1,0,0,1,0,-2.39999996423722,-2.39999996423722,                 123P     88
-0.0999999999999996,-0.0999999999999996,1.,1.,-16.0000003576278,     123P     89
-16.5,-4.,-39.,-16.5,-4.,-2.39999996423722,-0.0999999999999996,      123P     90
0.,0.,0.;                                                            123P     91
126,2,2,0,0,0,0,-0.78539816339745,-0.78539816339745,                 125P     92
-0.78539816339745,0.785398163397446,0.785398163397446,               125P     93
0.785398163397446,1.,0.70710678118655,1.,-14.0000003576278,          125P     94
-16.5,-2.,-14.0000003576278,-16.5,-3.99999999999999,                 125P     95
-16.0000003576278,-16.5,-4.,-0.78539816339745,0.785398163397446,     125P     96
0.,0.,0.;                                                            125P     97
126,1,1,0,0,1,0,-2.225,-2.225,0.975000000000002,                     127P     98
0.975000000000002,1.,1.,-14.0000003576278,-16.5,-2.,                 127P     99
-14.0000003576278,-16.5,30.,-2.225,0.975000000000002,0.,0.,0.;       127P    100
126,1,1,0,0,1,0,-2.02499996423722,-2.02499996423722,                 129P    101
0.675000000000001,0.675000000000001,1.,1.,-14.0000003576278,         129P    102
-16.5,30.,-41.,-16.5,30.,-2.02499996423722,0.675000000000001,0.,     129P    103
0.,0.;                                                               129P    104
126,8,2,0,1,0,0,-3.14159265358979,-3.14159265358979,                 131P    105
-3.14159265358979,-1.5707963267949,-1.5707963267949,0.,0.,           131P    106
1.5707963267949,1.5707963267949,3.14159265358979,                    131P    107
3.14159265358979,3.14159265358979,1.,0.707106781186544,1.,           131P    108
0.707106781186544,1.,0.707106781186544,1.,0.707106781186545,1.,      131P    109
-37.75,-16.5,0.750000000000001,-37.75,-16.5,-0.749999999999998,      131P    110
-36.25,-16.5,-0.749999999999998,-34.75,-16.5,-0.749999999999998,     131P    111
-34.75,-16.5,0.750000000000001,-34.75,-16.5,2.25,-36.25,-16.5,       131P    112
2.25,-37.75,-16.5,2.25,-37.75,-16.5,0.750000000000001,               131P    113
-3.14159265358979,3.14159265358979,0.,0.,0.;                         131P    114
126,8,2,0,1,0,0,-3.14159265358979,-3.14159265358979,                 133P    115
-3.14159265358979,-1.5707963267949,-1.5707963267949,0.,0.,           133P    116
1.5707963267949,1.5707963267949,3.14159265358979,                    133P    117
3.14159265358979,3.14159265358979,1.,0.707106781186549,1.,           133P    118
0.707106781186549,1.,0.707106781186549,1.,0.707106781186549,1.,      133P    119
-20.25,-16.5,0.750000000000001,-20.25,-16.5,-0.749999999999999,      133P    120
-18.75,-16.5,-0.749999999999998,-17.25,-16.5,-0.749999999999998,     133P    121
-17.25,-16.5,0.750000000000001,-17.25,-16.5,2.25,-18.75,-16.5,       133P    122
2.25,-20.25,-16.5,2.25,-20.25,-16.5,0.750000000000001,               133P    123
-3.14159265358979,3.14159265358979,0.,0.,0.;                         133P    124
126,8,2,0,1,0,0,-3.14159265358979,-3.14159265358979,                 135P    125
-3.14159265358979,-1.5707963267949,-1.5707963267949,0.,0.,           135P    126
1.5707963267949,1.5707963267949,3.14159265358979,                    135P    127
3.14159265358979,3.14159265358979,1.,0.707106781186549,1.,           135P    128
0.707106781186546,1.,0.707106781186546,1.,0.707106781186549,1.,      135P    129
-20.25,-16.5,24.25,-20.25,-16.5,25.75,-18.75,-16.5,25.75,-17.25,     135P    130
-16.5,25.75,-17.25,-16.5,24.25,-17.25,-16.5,22.75,-18.75,-16.5,      135P    131
22.75,-20.25,-16.5,22.75,-20.25,-16.5,24.25,-3.14159265358979,       135P    132
3.14159265358979,0.,0.,0.;                                           135P    133
126,8,2,0,1,0,0,-3.14159265358979,-3.14159265358979,                 137P    134
-3.14159265358979,-1.5707963267949,-1.5707963267949,0.,0.,           137P    135
1.5707963267949,1.5707963267949,3.14159265358979,                    137P    136
3.14159265358979,3.14159265358979,1.,0.707106781186542,1.,           137P    137
0.707106781186542,1.,0.707106781186542,1.,0.707106781186542,1.,      137P    138
-37.75,-16.5,24.25,-37.75,-16.5,25.75,-36.25,-16.5,25.75,-34.75,     137P    139
-16.5,25.75,-34.75,-16.5,24.25,-34.75,-16.5,22.75,-36.25,-16.5,      137P    140
22.75,-37.75,-16.5,22.75,-37.75,-16.5,24.25,-3.14159265358979,       137P    141
3.14159265358979,0.,0.,0.;                                           137P    142
126,1,1,0,0,1,0,0.,0.,0.500000005960464,0.500000005960464,1.,1.,     139P    143
-16.0000003576278,-16.5,-4.,-16.0000003576278,-11.4999999403954,     139P    144
-4.,0.,0.500000005960464,0.,0.,0.;                                   139P    145
126,2,2,0,0,0,0,-0.785398163397447,-0.785398163397447,               141P    146
-0.785398163397447,0.78539816339745,0.78539816339745,                141P    147
0.78539816339745,1.,0.707106781186548,1.,-16.0000003576278,          141P    148
-11.5,-4.,-14.0000003576278,-11.5,-4.,-14.0000003576278,-11.5,       141P    149
-2.,-0.785398163397447,0.78539816339745,0.,0.,0.;                    141P    150
126,1,1,0,0,1,0,-0.500000005960464,-0.500000005960464,0.,0.,1.,      143P    151
1.,-14.0000003576278,-11.4999999403954,-2.,-14.0000003576278,        143P    152
-16.5,-2.,-0.500000005960464,0.,0.,0.,0.;                            143P    153
126,1,1,0,0,1,0,-3.1,-3.1,0.100000000000002,0.100000000000002,       145P    154
1.,1.,-14.0000003576278,-11.4999999403954,-2.,-14.0000003576278,     145P    155
-11.4999999403954,30.,-3.1,0.100000000000002,0.,0.,0.;               145P    156
126,1,1,0,0,1,0,0.,0.,1.,1.,1.,1.,-14.0000003576278,-11.5,30.,       147P    157
-14.0000003576278,-1.50000000000001,30.,0.,1.,0.,0.,0.;              147P    158
126,1,1,0,0,1,0,0.,0.,0.799999999999998,0.799999999999998,1.,1.,     149P    159
-14.0000003576278,-1.50000000000001,38.,-14.0000003576278,           149P    160
-1.50000000000001,30.,0.,0.799999999999998,0.,0.,0.;                 149P    161
126,1,1,0,0,1,0,-1.50000005364418,-1.50000005364418,1.4,1.4,1.,      151P    162
1.,-14.0000003576278,-1.50000000000001,38.,-14.0000003576278,        151P    163
-30.5,38.,-1.50000005364418,1.4,0.,0.,0.;                            151P    164
126,1,1,0,0,1,0,0.,0.,0.8,0.8,1.,1.,-14.0000003576278,-30.5,30.,     153P    165
-14.0000003576278,-30.5,38.,0.,0.8,0.,0.,0.;                         153P    166
126,1,1,0,0,1,0,0.,0.,1.4,1.4,1.,1.,-14.0000003576278,-16.5,30.,     155P    167
-14.0000003576278,-30.5,30.,0.,1.4,0.,0.,0.;                         155P    168
126,8,2,0,1,0,0,-3.14159265358979,-3.14159265358979,                 157P    169
-3.14159265358979,-1.5707963267949,-1.5707963267949,0.,0.,           157P    170
1.5707963267949,1.5707963267949,3.14159265358979,                    157P    171
3.14159265358979,3.14159265358979,1.,0.707106781186546,1.,           157P    172
0.707106781186546,1.,0.707106781186546,1.,0.707106781186546,1.,      157P    173
-18.5000001639128,-26.5,38.,-18.5000001639128,-25.,38.,              157P    174
-17.0000001639128,-25.,38.,-15.5000001639128,-25.,38.,               157P    175
-15.5000001639128,-26.5,38.,-15.5000001639128,-28.,38.,              157P    176
-17.0000001639128,-28.,38.,-18.5000001639128,-28.,38.,               157P    177
-18.5000001639128,-26.5,38.,-3.14159265358979,3.14159265358979,      157P    178
0.,0.,0.;                                                            157P    179
126,1,1,0,0,1,0,0.,0.,5.33333333333332,5.33333333333332,1.,1.,       159P    180
-18.5000001639128,-26.5,38.,-18.5000001639128,-26.5,30.,0.,          159P    181
5.33333333333332,0.,0.,0.;                                           159P    182
126,8,2,0,1,0,0,-3.14159265358979,-3.14159265358979,                 161P    183
-3.14159265358979,-1.5707963267949,-1.5707963267949,0.,0.,           161P    184
1.5707963267949,1.5707963267949,3.14159265358979,                    161P    185
3.14159265358979,3.14159265358979,1.,0.707106781186546,1.,           161P    186
0.707106781186546,1.,0.707106781186546,1.,0.707106781186546,1.,      161P    187
-18.5000001639128,-26.5,30.,-18.5000001639128,-28.,30.,              161P    188
-17.0000001639128,-28.,30.,-15.5000001639128,-28.,30.,               161P    189
-15.5000001639128,-26.5,30.,-15.5000001639128,-25.,30.,              161P    190
-17.0000001639128,-25.,30.,-18.5000001639128,-25.,30.,               161P    191
-18.5000001639128,-26.5,30.,-3.14159265358979,3.14159265358979,      161P    192
0.,0.,0.;                                                            161P    193
126,2,2,0,0,0,0,1.5707963267949,1.5707963267949,1.5707963267949,     163P    194
3.14159265358979,3.14159265358979,3.14159265358979,1.,               163P    195
0.707106781186549,1.,-17.0000001639128,-9.00000000000001,38.,        163P    196
-18.5000001639128,-9.00000000000001,38.,-18.5000001639128,           163P    197
-7.50000000000001,38.,1.5707963267949,3.14159265358979,0.,0.,0.;     163P    198
126,6,2,0,0,0,0,3.14159265358979,3.14159265358979,                   165P    199
3.14159265358979,4.71238898038469,4.71238898038469,                  165P    200
6.28318530717959,6.28318530717959,7.85398163397448,                  165P    201
7.85398163397448,7.85398163397448,1.,0.707106781186549,1.,           165P    202
0.707106781186549,1.,0.70710678118655,1.,-18.5000001639128,          165P    203
-7.50000000000001,38.,-18.5000001639128,-6.00000000000001,38.,       165P    204
-17.0000001639128,-6.00000000000001,38.,-15.5000001639128,           165P    205
-6.00000000000001,38.,-15.5000001639128,-7.50000000000001,38.,       165P    206
-15.5000001639128,-9.00000000000001,38.,-17.0000001639128,           165P    207
-9.00000000000001,38.,3.14159265358979,7.85398163397448,0.,0.,       165P    208
0.;                                                                  165P    209
126,1,1,0,0,1,0,0.,0.,5.33333333333332,5.33333333333332,1.,1.,       167P    210
-18.5000001639128,-7.50000000000001,38.,-18.5000001639128,           167P    211
-7.50000000000001,30.,0.,5.33333333333332,0.,0.,0.;                  167P    212
126,8,2,0,1,0,0,-3.14159265358979,-3.14159265358979,                 169P    213
-3.14159265358979,-1.5707963267949,-1.5707963267949,0.,0.,           169P    214
1.5707963267949,1.5707963267949,3.14159265358979,                    169P    215
3.14159265358979,3.14159265358979,1.,0.707106781186549,1.,           169P    216
0.707106781186549,1.,0.707106781186549,1.,0.707106781186549,1.,      169P    217
-18.5000001639128,-7.50000000000001,30.,-18.5000001639128,           169P    218
-9.00000000000001,30.,-17.0000001639128,-9.00000000000001,30.,       169P    219
-15.5000001639128,-9.00000000000001,30.,-15.5000001639128,           169P    220
-7.50000000000001,30.,-15.5000001639128,-6.00000000000001,30.,       169P    221
-17.0000001639128,-6.00000000000001,30.,-18.5000001639128,           169P    222
-6.00000000000001,30.,-18.5000001639128,-7.50000000000001,30.,       169P    223
-3.14159265358979,3.14159265358979,0.,0.,0.;                         169P    224
126,1,1,0,0,1,0,-2.02499998211861,-2.02499998211861,                 171P    225
0.674999982118608,0.674999982118608,1.,1.,-41.,-11.5,30.,            171P    226
-14.0000003576278,-11.5,30.,-2.02499998211861,0.674999982118608,     171P    227
0.,0.,0.;                                                            171P    228
126,1,1,0,0,1,0,0.,0.,2.69999996423722,2.69999996423722,1.,1.,       173P    229
-14.0000003576278,-1.50000000000001,30.,-41.,-1.50000000000001,      173P    230
30.,0.,2.69999996423722,0.,0.,0.;                                    173P    231
126,1,1,0,0,1,0,0.,0.,2.69999996423722,2.69999996423722,1.,1.,       175P    232
-41.,-1.50000000000001,38.,-14.0000003576278,-1.50000000000001,      175P    233
38.,0.,2.69999996423722,0.,0.,0.;                                    175P    234
126,1,1,0,0,1,0,0.,0.,2.69999996423722,2.69999996423722,1.,1.,       177P    235
-41.,-30.5,30.,-14.0000003576278,-30.5,30.,0.,2.69999996423722,      177P    236
0.,0.,0.;                                                            177P    237
126,1,1,0,0,1,0,0.,0.,2.69999996423722,2.69999996423722,1.,1.,       179P    238
-14.0000003576278,-30.5,38.,-41.,-30.5,38.,0.,2.69999996423722,      179P    239
0.,0.,0.;                                                            179P    240
126,1,1,0,0,1,0,-2.,-2.,0.299999964237217,0.299999964237217,1.,      181P    241
1.,-39.,-11.4999999403954,-4.,-16.0000003576278,                     181P    242
-11.4999999403954,-4.,-2.,0.299999964237217,0.,0.,0.;                181P    243
126,8,2,0,1,0,0,-3.14159265358979,-3.14159265358979,                 183P    244
-3.14159265358979,-1.5707963267949,-1.5707963267949,0.,0.,           183P    245
1.5707963267949,1.5707963267949,3.14159265358979,                    183P    246
3.14159265358979,3.14159265358979,1.,0.707106781186542,1.,           183P    247
0.707106781186542,1.,0.707106781186542,1.,0.707106781186542,1.,      183P    248
-37.75,-11.5,24.25,-37.75,-11.5,22.75,-36.25,-11.5,22.75,-34.75,     183P    249
-11.5,22.75,-34.75,-11.5,24.25,-34.75,-11.5,25.75,-36.25,-11.5,      183P    250
25.75,-37.75,-11.5,25.75,-37.75,-11.5,24.25,-3.14159265358979,       183P    251
3.14159265358979,0.,0.,0.;                                           183P    252
126,8,2,0,1,0,0,-3.14159265358979,-3.14159265358979,                 185P    253
-3.14159265358979,-1.5707963267949,-1.5707963267949,0.,0.,           185P    254
1.5707963267949,1.5707963267949,3.14159265358979,                    185P    255
3.14159265358979,3.14159265358979,1.,0.707106781186549,1.,           185P    256
0.707106781186546,1.,0.707106781186546,1.,0.707106781186549,1.,      185P    257
-20.25,-11.5,24.25,-20.25,-11.5,22.75,-18.75,-11.5,22.75,-17.25,     185P    258
-11.5,22.75,-17.25,-11.5,24.25,-17.25,-11.5,25.75,-18.75,-11.5,      185P    259
25.75,-20.25,-11.5,25.75,-20.25,-11.5,24.25,-3.14159265358979,       185P    260
3.14159265358979,0.,0.,0.;                                           185P    261
126,8,2,0,1,0,0,-3.14159265358979,-3.14159265358979,                 187P    262
-3.14159265358979,-1.5707963267949,-1.5707963267949,0.,0.,           187P    263
1.5707963267949,1.5707963267949,3.14159265358979,                    187P    264
3.14159265358979,3.14159265358979,1.,0.707106781186549,1.,           187P    265
0.707106781186549,1.,0.707106781186549,1.,0.707106781186549,1.,      187P    266
-20.25,-11.5,0.750000000000001,-20.25,-11.5,-0.749999999999999,      187P    267
-18.75,-11.5,-0.749999999999998,-17.25,-11.5,-0.749999999999998,     187P    268
-17.25,-11.5,0.750000000000001,-17.25,-11.5,2.25,-18.75,-11.5,       187P    269
2.25,-20.25,-11.5,2.25,-20.25,-11.5,0.750000000000001,               187P    270
-3.14159265358979,3.14159265358979,0.,0.,0.;                         187P    271
126,8,2,0,1,0,0,-3.14159265358979,-3.14159265358979,                 189P    272
-3.14159265358979,-1.5707963267949,-1.5707963267949,0.,0.,           189P    273
1.5707963267949,1.5707963267949,3.14159265358979,                    189P    274
3.14159265358979,3.14159265358979,1.,0.707106781186544,1.,           189P    275
0.707106781186544,1.,0.707106781186544,1.,0.707106781186545,1.,      189P    276
-37.75,-11.5,0.750000000000001,-37.75,-11.5,-0.749999999999998,      189P    277
-36.25,-11.5,-0.749999999999998,-34.75,-11.5,-0.749999999999998,     189P    278
-34.75,-11.5,0.750000000000001,-34.75,-11.5,2.25,-36.25,-11.5,       189P    279
2.25,-37.75,-11.5,2.25,-37.75,-11.5,0.750000000000001,               189P    280
-3.14159265358979,3.14159265358979,0.,0.,0.;                         189P    281
126,1,1,0,0,1,0,16.3333333333333,16.3333333333333,                   191P    282
19.6666666666667,19.6666666666667,1.,1.,-37.75,-16.5,24.25,          191P    283
-37.75,-11.5,24.25,16.3333333333333,19.6666666666667,0.,0.,0.;       191P    284
126,1,1,0,0,1,0,16.3333333333333,16.3333333333333,                   193P    285
19.6666666666667,19.6666666666667,1.,1.,-20.25,-16.5,24.25,          193P    286
-20.25,-11.5,24.25,16.3333333333333,19.6666666666667,0.,0.,0.;       193P    287
126,1,1,0,0,1,0,-3.33333333333334,-3.33333333333334,0.,0.,1.,1.,     195P    288
-37.75,-11.5,0.750000000000001,-37.75,-16.5,0.750000000000001,       195P    289
-3.33333333333334,0.,0.,0.,0.;                                       195P    290
126,1,1,0,0,1,0,-3.33333333333334,-3.33333333333334,0.,0.,1.,1.,     197P    291
-20.25,-11.5,0.750000000000001,-20.25,-16.5,0.750000000000001,       197P    292
-3.33333333333334,0.,0.,0.,0.;                                       197P    293
128,1,2,1,2,0,0,0,0,0,0.,0.,2.50000002980232,2.50000002980232,       199P    294
-0.785398163397453,-0.785398163397453,-0.785398163397453,            199P    295
0.785398163397447,0.785398163397447,0.785398163397447,1.,1.,         199P    296
0.707106781186547,0.707106781186547,1.,1.,-39.,                      199P    297
-11.4999999403954,-4.,-39.,-16.5,-4.,-41.,-11.4999999403954,-4.,     199P    298
-41.,-16.5,-4.,-41.,-11.4999999403954,-2.,-41.,-16.5,-2.,0.,         199P    299
2.50000002980232,-0.785398163397453,0.785398163397447;               199P    300
128,1,1,1,1,0,0,1,0,0,0.0999999999999996,0.0999999999999996,4.1,     201P    301
4.1,-1.4,-1.4,1.5,1.5,1.,1.,1.,1.,-41.,-30.5,-2.,-41.,-30.5,38.,     201P    302
-41.,-1.50000000000001,-2.,-41.,-1.50000000000001,38.,               201P    303
0.0999999999999996,4.1,-1.4,1.5;                                     201P    304
128,1,1,1,1,0,0,1,0,0,-1.34999996423722,-1.34999996423722,1.35,      203P    305
1.35,-1.65,-1.65,1.75,1.75,1.,1.,1.,1.,-41.,-16.5,-4.,               203P    306
-14.0000003576278,-16.5,-4.,-41.,-16.5,30.,-14.0000003576278,        203P    307
-16.5,30.,-1.34999996423722,1.35,-1.65,1.75;                         203P    308
128,1,2,1,2,0,0,0,0,0,-2.50000002980232,-2.50000002980232,0.,0.,     205P    309
-0.785398163397447,-0.785398163397447,-0.785398163397447,            205P    310
0.78539816339745,0.78539816339745,0.78539816339745,1.,1.,            205P    311
0.707106781186548,0.707106781186548,1.,1.,-16.0000003576278,         205P    312
-16.5,-4.,-16.0000003576278,-11.4999999403954,-4.,                   205P    313
-14.0000003576278,-16.5,-4.,-14.0000003576278,-11.4999999403954,     205P    314
-4.,-14.0000003576278,-16.5,-2.,-14.0000003576278,                   205P    315
-11.4999999403954,-2.,-2.50000002980232,0.,-0.785398163397447,       205P    316
0.78539816339745;                                                    205P    317
128,1,1,1,1,0,0,1,0,0,-3.,-3.,1.,1.,-1.4,-1.4,1.50000005364418,      207P    318
1.50000005364418,1.,1.,1.,1.,-14.0000003576278,-30.5,38.,            207P    319
-14.0000003576278,-30.5,-2.,-14.0000003576278,-1.49999946355821,     207P    320
38.,-14.0000003576278,-1.49999946355821,-2.,-3.,1.,-1.4,             207P    321
1.50000005364418;                                                    207P    322
128,1,8,1,2,0,1,0,0,1,0.,0.,5.33333333333332,5.33333333333332,       209P    323
-3.14159265358979,-3.14159265358979,-3.14159265358979,               209P    324
-1.5707963267949,-1.5707963267949,0.,0.,1.5707963267949,             209P    325
1.5707963267949,3.14159265358979,3.14159265358979,                   209P    326
3.14159265358979,1.,1.,0.707106781186548,0.707106781186548,1.,       209P    327
1.,0.707106781186548,0.707106781186548,1.,1.,0.707106781186548,      209P    328
0.707106781186548,1.,1.,0.707106781186548,0.707106781186548,1.,      209P    329
1.,-18.5000001639128,-26.5,38.,-18.5000001639128,-26.5,30.,          209P    330
-18.5000001639128,-25.,38.,-18.5000001639128,-25.,30.,               209P    331
-17.0000001639128,-25.,38.,-17.0000001639128,-25.,30.,               209P    332
-15.5000001639128,-25.,38.,-15.5000001639128,-25.,30.,               209P    333
-15.5000001639128,-26.5,38.,-15.5000001639128,-26.5,30.,             209P    334
-15.5000001639128,-28.,38.,-15.5000001639128,-28.,30.,               209P    335
-17.0000001639128,-28.,38.,-17.0000001639128,-28.,30.,               209P    336
-18.5000001639128,-28.,38.,-18.5000001639128,-28.,30.,               209P    337
-18.5000001639128,-26.5,38.,-18.5000001639128,-26.5,30.,0.,          209P    338
5.33333333333332,-3.14159265358979,3.14159265358979;                 209P    339
128,1,8,1,2,0,1,0,0,1,0.,0.,5.33333333333332,5.33333333333332,       211P    340
-3.14159265358979,-3.14159265358979,-3.14159265358979,               211P    341
-1.5707963267949,-1.5707963267949,0.,0.,1.5707963267949,             211P    342
1.5707963267949,3.14159265358979,3.14159265358979,                   211P    343
3.14159265358979,1.,1.,0.707106781186548,0.707106781186548,1.,       211P    344
1.,0.707106781186548,0.707106781186548,1.,1.,0.707106781186548,      211P    345
0.707106781186548,1.,1.,0.707106781186548,0.707106781186548,1.,      211P    346
1.,-18.5000001639128,-7.50000000000001,38.,-18.5000001639128,        211P    347
-7.50000000000001,30.,-18.5000001639128,-6.00000000000001,38.,       211P    348
-18.5000001639128,-6.00000000000001,30.,-17.0000001639128,           211P    349
-6.00000000000001,38.,-17.0000001639128,-6.00000000000001,30.,       211P    350
-15.5000001639128,-6.00000000000001,38.,-15.5000001639128,           211P    351
-6.00000000000001,30.,-15.5000001639128,-7.50000000000001,38.,       211P    352
-15.5000001639128,-7.50000000000001,30.,-15.5000001639128,           211P    353
-9.00000000000001,38.,-15.5000001639128,-9.00000000000001,30.,       211P    354
-17.0000001639128,-9.00000000000001,38.,-17.0000001639128,           211P    355
-9.00000000000001,30.,-18.5000001639128,-9.00000000000001,38.,       211P    356
-18.5000001639128,-9.00000000000001,30.,-18.5000001639128,           211P    357
-7.50000000000001,38.,-18.5000001639128,-7.50000000000001,30.,       211P    358
0.,5.33333333333332,-3.14159265358979,3.14159265358979;              211P    359
128,1,1,1,1,0,0,1,0,0,0.,0.,2.69999996423722,2.69999996423722,       213P    360
0.,0.,1.,1.,1.,1.,1.,1.,-14.0000003576278,-11.5,30.,-41.,-11.5,      213P    361
30.,-14.0000003576278,-1.50000000000001,30.,-41.,                    213P    362
-1.50000000000001,30.,0.,2.69999996423722,0.,1.;                     213P    363
128,1,1,1,1,0,0,1,0,0,1.3,1.3,2.1,2.1,-1.34999998211861,             215P    364
-1.34999998211861,1.34999998211861,1.34999998211861,1.,1.,1.,1.,     215P    365
-41.,-1.50000000000001,30.,-41.,-1.50000000000001,38.,               215P    366
-14.0000003576278,-1.50000000000001,30.,-14.0000003576278,           215P    367
-1.50000000000001,38.,1.3,2.1,-1.34999998211861,                     215P    368
1.34999998211861;                                                    215P    369
128,1,1,1,1,0,0,1,0,0,0.,0.,2.69999996423722,2.69999996423722,       217P    370
0.,0.,1.4,1.4,1.,1.,1.,1.,-41.,-16.5,30.,-14.0000003576278,          217P    371
-16.5,30.,-41.,-30.5,30.,-14.0000003576278,-30.5,30.,0.,             217P    372
2.69999996423722,0.,1.4;                                             217P    373
128,1,1,1,1,0,0,1,0,0,-2.1,-2.1,-1.3,-1.3,-1.34999998211861,         219P    374
-1.34999998211861,1.34999998211861,1.34999998211861,1.,1.,1.,1.,     219P    375
-41.,-30.5,38.,-41.,-30.5,30.,-14.0000003576278,-30.5,38.,           219P    376
-14.0000003576278,-30.5,30.,-2.1,-1.3,-1.34999998211861,             219P    377
1.34999998211861;                                                    219P    378
128,1,1,1,1,0,0,1,0,0,-0.100000000000001,-0.100000000000001,         221P    379
2.59999996423722,2.59999996423722,-1.4,-1.4,1.50000005364418,        221P    380
1.50000005364418,1.,1.,1.,1.,-41.,-30.5,38.,-14.0000003576278,       221P    381
-30.5,38.,-41.,-1.49999946355821,38.,-14.0000003576278,              221P    382
-1.49999946355821,38.,-0.100000000000001,2.59999996423722,-1.4,      221P    383
1.50000005364418;                                                    221P    384
128,1,1,1,1,0,0,1,0,0,0.100000035762783,0.100000035762783,2.4,       223P    385
2.4,0.,0.,0.500000005960464,0.500000005960464,1.,1.,1.,1.,           223P    386
-16.0000003576278,-16.5,-4.,-39.,-16.5,-4.,-16.0000003576278,        223P    387
-11.4999999403954,-4.,-39.,-11.4999999403954,-4.,                    223P    388
0.100000035762783,2.4,0.,0.500000005960464;                          223P    389
128,1,1,1,1,0,0,1,0,0,-1.34999996423722,-1.34999996423722,1.35,      225P    390
1.35,-1.65,-1.65,1.75,1.75,1.,1.,1.,1.,-14.0000003576278,-11.5,      225P    391
-4.,-41.,-11.5,-4.,-14.0000003576278,-11.5,30.,-41.,-11.5,30.,       225P    392
-1.34999996423722,1.35,-1.65,1.75;                                   225P    393
128,1,8,1,2,0,1,0,0,1,16.3333333333333,16.3333333333333,             227P    394
19.6666666666667,19.6666666666667,-3.14159265358979,                 227P    395
-3.14159265358979,-3.14159265358979,-1.5707963267949,                227P    396
-1.5707963267949,0.,0.,1.5707963267949,1.5707963267949,              227P    397
3.14159265358979,3.14159265358979,3.14159265358979,1.,1.,            227P    398
0.707106781186548,0.707106781186548,1.,1.,0.707106781186548,         227P    399
0.707106781186548,1.,1.,0.707106781186548,0.707106781186548,1.,      227P    400
1.,0.707106781186548,0.707106781186548,1.,1.,-37.75,-16.5,24.25,     227P    401
-37.75,-11.5,24.25,-37.75,-16.5,25.75,-37.75,-11.5,25.75,-36.25,     227P    402
-16.5,25.75,-36.25,-11.5,25.75,-34.75,-16.5,25.75,-34.75,-11.5,      227P    403
25.75,-34.75,-16.5,24.25,-34.75,-11.5,24.25,-34.75,-16.5,22.75,      227P    404
-34.75,-11.5,22.75,-36.25,-16.5,22.75,-36.25,-11.5,22.75,-37.75,     227P    405
-16.5,22.75,-37.75,-11.5,22.75,-37.75,-16.5,24.25,-37.75,-11.5,      227P    406
24.25,16.3333333333333,19.6666666666667,-3.14159265358979,           227P    407
3.14159265358979;                                                    227P    408
128,1,8,1,2,0,1,0,0,1,16.3333333333333,16.3333333333333,             229P    409
19.6666666666667,19.6666666666667,-3.14159265358979,                 229P    410
-3.14159265358979,-3.14159265358979,-1.5707963267949,                229P    411
-1.5707963267949,0.,0.,1.5707963267949,1.5707963267949,              229P    412
3.14159265358979,3.14159265358979,3.14159265358979,1.,1.,            229P    413
0.707106781186548,0.707106781186548,1.,1.,0.707106781186548,         229P    414
0.707106781186548,1.,1.,0.707106781186548,0.707106781186548,1.,      229P    415
1.,0.707106781186548,0.707106781186548,1.,1.,-20.25,-16.5,24.25,     229P    416
-20.25,-11.5,24.25,-20.25,-16.5,25.75,-20.25,-11.5,25.75,-18.75,     229P    417
-16.5,25.75,-18.75,-11.5,25.75,-17.25,-16.5,25.75,-17.25,-11.5,      229P    418
25.75,-17.25,-16.5,24.25,-17.25,-11.5,24.25,-17.25,-16.5,22.75,      229P    419
-17.25,-11.5,22.75,-18.75,-16.5,22.75,-18.75,-11.5,22.75,-20.25,     229P    420
-16.5,22.75,-20.25,-11.5,22.75,-20.25,-16.5,24.25,-20.25,-11.5,      229P    421
24.25,16.3333333333333,19.6666666666667,-3.14159265358979,           229P    422
3.14159265358979;                                                    229P    423
128,1,8,1,2,0,1,0,0,1,0.,0.,3.33333333333334,3.33333333333334,       231P    424
-3.14159265358979,-3.14159265358979,-3.14159265358979,               231P    425
-1.5707963267949,-1.5707963267949,0.,0.,1.5707963267949,             231P    426
1.5707963267949,3.14159265358979,3.14159265358979,                   231P    427
3.14159265358979,1.,1.,0.707106781186548,0.707106781186548,1.,       231P    428
1.,0.707106781186548,0.707106781186548,1.,1.,0.707106781186548,      231P    429
0.707106781186548,1.,1.,0.707106781186548,0.707106781186548,1.,      231P    430
1.,-37.75,-16.5,0.750000000000001,-37.75,-11.5,                      231P    431
0.750000000000001,-37.75,-16.5,2.25,-37.75,-11.5,2.25,-36.25,        231P    432
-16.5,2.25,-36.25,-11.5,2.25,-34.75,-16.5,2.25,-34.75,-11.5,         231P    433
2.25,-34.75,-16.5,0.750000000000001,-34.75,-11.5,                    231P    434
0.750000000000001,-34.75,-16.5,-0.749999999999998,-34.75,-11.5,      231P    435
-0.749999999999998,-36.25,-16.5,-0.749999999999998,-36.25,-11.5,     231P    436
-0.749999999999998,-37.75,-16.5,-0.749999999999998,-37.75,-11.5,     231P    437
-0.749999999999998,-37.75,-16.5,0.750000000000001,-37.75,-11.5,      231P    438
0.750000000000001,0.,3.33333333333334,-3.14159265358979,             231P    439
3.14159265358979;                                                    231P    440
128,1,8,1,2,0,1,0,0,1,0.,0.,3.33333333333334,3.33333333333334,       233P    441
-3.14159265358979,-3.14159265358979,-3.14159265358979,               233P    442
-1.5707963267949,-1.5707963267949,0.,0.,1.5707963267949,             233P    443
1.5707963267949,3.14159265358979,3.14159265358979,                   233P    444
3.14159265358979,1.,1.,0.707106781186548,0.707106781186548,1.,       233P    445
1.,0.707106781186548,0.707106781186548,1.,1.,0.707106781186548,      233P    446
0.707106781186548,1.,1.,0.707106781186548,0.707106781186548,1.,      233P    447
1.,-20.25,-16.5,0.750000000000001,-20.25,-11.5,                      233P    448
0.750000000000001,-20.25,-16.5,2.25,-20.25,-11.5,2.25,-18.75,        233P    449
-16.5,2.25,-18.75,-11.5,2.25,-17.25,-16.5,2.25,-17.25,-11.5,         233P    450
2.25,-17.25,-16.5,0.750000000000001,-17.25,-11.5,                    233P    451
0.750000000000001,-17.25,-16.5,-0.749999999999998,-17.25,-11.5,      233P    452
-0.749999999999998,-18.75,-16.5,-0.749999999999998,-18.75,-11.5,     233P    453
-0.749999999999998,-20.25,-16.5,-0.749999999999998,-20.25,-11.5,     233P    454
-0.749999999999998,-20.25,-16.5,0.750000000000001,-20.25,-11.5,      233P    455
0.750000000000001,0.,3.33333333333334,-3.14159265358979,             233P    456
3.14159265358979;                                                    233P    457
502,33,-41.,-11.5,-2.,-39.,-11.4999999403954,-4.,-39.,-16.5,-4.,     235P    458
-41.,-16.5,-2.,-41.,-16.5,30.,-41.,-30.5,30.,-41.,-30.5,38.,         235P    459
-41.,-1.50000000000001,38.,-41.,-1.50000000000001,30.,-41.,          235P    460
-11.5,30.,-16.0000003576278,-16.5,-4.,-14.0000003576278,-16.5,       235P    461
-2.,-14.0000003576278,-16.5,30.,-37.75,-16.5,0.750000000000001,      235P    462
-20.25,-16.5,0.750000000000001,-20.25,-16.5,24.25,-37.75,-16.5,      235P    463
24.25,-16.0000003576278,-11.4999999403954,-4.,-14.0000003576278,     235P    464
-11.4999999403954,-2.,-14.0000003576278,-11.5,30.,                   235P    465
-14.0000003576278,-1.50000000000001,30.,-14.0000003576278,           235P    466
-1.50000000000001,38.,-14.0000003576278,-30.5,38.,                   235P    467
-14.0000003576278,-30.5,30.,-18.5000001639128,-26.5,38.,             235P    468
-18.5000001639128,-26.5,30.,-17.0000001639128,-9.00000000000001,     235P    469
38.,-18.5000001639128,-7.50000000000001,38.,-18.5000001639128,       235P    470
-7.50000000000001,30.,-37.75,-11.5,24.25,-20.25,-11.5,24.25,         235P    471
-20.25,-11.5,0.750000000000001,-37.75,-11.5,0.750000000000001;       235P    472
504,49,101,235,1,235,2,103,235,2,235,3,105,235,3,235,4,107,235,      237P    473
4,235,1,109,235,4,235,5,111,235,5,235,6,113,235,7,235,6,115,235,     237P    474
7,235,8,117,235,9,235,8,119,235,10,235,9,121,235,10,235,1,123,       237P    475
235,11,235,3,125,235,12,235,11,127,235,12,235,13,129,235,13,235,     237P    476
5,131,235,14,235,14,133,235,15,235,15,135,235,16,235,16,137,235,     237P    477
17,235,17,139,235,11,235,18,141,235,18,235,19,143,235,19,235,12,     237P    478
145,235,19,235,20,147,235,20,235,21,149,235,22,235,21,151,235,       237P    479
22,235,23,153,235,24,235,23,155,235,13,235,24,157,235,25,235,25,     237P    480
159,235,25,235,26,161,235,26,235,26,163,235,27,235,28,165,235,       237P    481
28,235,27,167,235,28,235,29,169,235,29,235,29,171,235,10,235,20,     237P    482
173,235,21,235,9,175,235,8,235,22,177,235,6,235,24,179,235,23,       237P    483
235,7,181,235,2,235,18,183,235,30,235,30,185,235,31,235,31,187,      237P    484
235,32,235,32,189,235,33,235,33,191,235,17,235,30,193,235,16,        237P    485
235,31,195,235,33,235,14,197,235,32,235,15;                          237P    486
406,1,5HBody1;                                                       239P    487
314,62.7450980392157,62.7450980392157,62.7450980392157,13HSteel      241P    488
- Satin;                                                             241P    489
S      1G      2D    242P    489                                        T      1
