                                                                        S      1
,,14HY-Towing-Mount,14HY-Towing-Mount,7Hunknown,7Hunknown,32,38,7,99,15,G      1
,1.,2,2HMM,1,0.08,15H20150627.200400,0.01,10000.,7Hunknown,7Hunknown,11,G      2
0,;                                                                     G      3
     408       1                                                00000001D      1
     408       0               1       0                               0D      2
     308       2                                                00010200D      3
     308       0               1       0                               0D      4
     186       3                                                00010000D      5
     186                       1       0                               0D      6
     514       4                                                00010000D      7
     514                       2       1                               0D      8
     510       6                                                00010000D      9
     510                       1       1                               0D     10
     510       7                                                00010000D     11
     510                       1       1                               0D     12
     510       8                                                00010000D     13
     510                       1       1                               0D     14
     510       9                                                00010000D     15
     510                       1       1                               0D     16
     510      10                                                00010000D     17
     510                       1       1                               0D     18
     510      11                                                00010000D     19
     510                       1       1                               0D     20
     510      12                                                00010000D     21
     510                       1       1                               0D     22
     510      13                                                00010000D     23
     510                       1       1                               0D     24
     510      14                                                00010000D     25
     510                       1       1                               0D     26
     510      15                                                00010000D     27
     510                       1       1                               0D     28
     510      16                                                00010000D     29
     510                       1       1                               0D     30
     510      17                                                00010000D     31
     510                       1       1                               0D     32
     510      18                                                00010000D     33
     510                       1       1                               0D     34
     510      19                                                00010000D     35
     510                       1       1                               0D     36
     510      20                                                00010000D     37
     510                       1       1                               0D     38
     510      21                                                00010000D     39
     510                       1       1                               0D     40
     508      22                                                00010000D     41
     508                       2       1                               0D     42
     508      24                                                00010000D     43
     508                       2       1                               0D     44
     508      26                                                00010000D     45
     508                       1       1                               0D     46
     508      27                                                00010000D     47
     508                       1       1                               0D     48
     508      28                                                00010000D     49
     508                       1       1                               0D     50
     508      29                                                00010000D     51
     508                       1       1                               0D     52
     508      30                                                00010000D     53
     508                       1       1                               0D     54
     508      31                                                00010000D     55
     508                       1       1                               0D     56
     508      32                                                00010000D     57
     508                       2       1                               0D     58
     508      34                                                00010000D     59
     508                       1       1                               0D     60
     508      35                                                00010000D     61
     508                       1       1                               0D     62
     508      36                                                00010000D     63
     508                       1       1                               0D     64
     508      37                                                00010000D     65
     508                       1       1                               0D     66
     508      38                                                00010000D     67
     508                       1       1                               0D     68
     508      39                                                00010000D     69
     508                       2       1                               0D     70
     508      41                                                00010000D     71
     508                       1       1                               0D     72
     508      42                                                00010000D     73
     508                       1       1                               0D     74
     508      43                                                00010000D     75
     508                       1       1                               0D     76
     508      44                                                00010000D     77
     508                       1       1                               0D     78
     508      45                                                00010000D     79
     508                       1       1                               0D     80
     508      46                                                00010000D     81
     508                       2       1                               0D     82
     508      48                                                00010000D     83
     508                       1       1                               0D     84
     508      49                                                00010000D     85
     508                       1       1                               0D     86
     508      50                                                00010000D     87
     508                       1       1                               0D     88
     508      51                                                00010000D     89
     508                       1       1                               0D     90
     508      52                                                00010000D     91
     508                       1       1                               0D     92
     126      53                                                00010000D     93
     126       0               4       0                               0D     94
     126      57                                                00010000D     95
     126       0               7       0                               0D     96
     126      64                                                00010000D     97
     126       0               2       0                               0D     98
     126      66                                                00010000D     99
     126       0               8       0                               0D    100
     126      74                                                00010000D    101
     126       0               4       0                               0D    102
     126      78                                                00010000D    103
     126       0               7       0                               0D    104
     126      85                                                00010000D    105
     126       0               2       0                               0D    106
     126      87                                                00010000D    107
     126       0               8       0                               0D    108
     126      95                                                00010000D    109
     126       0               2       0                               0D    110
     126      97                                                00010000D    111
     126       0               2       0                               0D    112
     126      99                                                00010000D    113
     126       0               2       0                               0D    114
     126     101                                                00010000D    115
     126       0               2       0                               0D    116
     126     103                                                00010000D    117
     126       0               2       0                               0D    118
     126     105                                                00010000D    119
     126       0               2       0                               0D    120
     126     107                                                00010000D    121
     126       0               2       0                               0D    122
     126     109                                                00010000D    123
     126       0               2       0                               0D    124
     126     111                                                00010000D    125
     126       0               2       0                               0D    126
     126     113                                                00010000D    127
     126       0               2       0                               0D    128
     126     115                                                00010000D    129
     126       0               2       0                               0D    130
     126     117                                                00010000D    131
     126       0               2       0                               0D    132
     126     119                                                00010000D    133
     126       0               2       0                               0D    134
     126     121                                                00010000D    135
     126       0               2       0                               0D    136
     126     123                                                00010000D    137
     126       0               2       0                               0D    138
     126     125                                                00010000D    139
     126       0               2       0                               0D    140
     126     127                                                00010000D    141
     126       0               2       0                               0D    142
     126     129                                                00010000D    143
     126       0               2       0                               0D    144
     126     131                                                00010000D    145
     126       0               2       0                               0D    146
     126     133                                                00010000D    147
     126       0               2       0                               0D    148
     126     135                                                00010000D    149
     126       0               3       0                               0D    150
     126     138                                                00010000D    151
     126       0               2       0                               0D    152
     126     140                                                00010000D    153
     126       0               4       0                               0D    154
     126     144                                                00010000D    155
     126       0               8       0                               0D    156
     126     152                                                00010000D    157
     126       0               3       0                               0D    158
     126     155                                                00010000D    159
     126       0               2       0                               0D    160
     126     157                                                00010000D    161
     126       0               8       0                               0D    162
     126     165                                                00010000D    163
     126       0               2       0                               0D    164
     126     167                                                00010000D    165
     126       0               2       0                               0D    166
     126     169                                                00010000D    167
     126       0               2       0                               0D    168
     126     171                                                00010000D    169
     126       0               2       0                               0D    170
     126     173                                                00010000D    171
     126       0               8       0                               0D    172
     126     181                                                00010000D    173
     126       0               4       0                               0D    174
     126     185                                                00010000D    175
     126       0               3       0                               0D    176
     126     188                                                00010000D    177
     126       0               8       0                               0D    178
     126     196                                                00010000D    179
     126       0               2       0                               0D    180
     126     198                                                00010000D    181
     126       0               2       0                               0D    182
     128     200                                                00010000D    183
     128       0              12       0                               0D    184
     128     212                                                00010000D    185
     128       0              12       0                               0D    186
     128     224                                                00010000D    187
     128       0               3       0                               0D    188
     128     227                                                00010000D    189
     128       0               3       0                               0D    190
     128     230                                                00010000D    191
     128       0               3       0                               0D    192
     128     233                                                00010000D    193
     128       0               3       0                               0D    194
     128     236                                                00010000D    195
     128       0               3       0                               0D    196
     128     239                                                00010000D    197
     128       0               3       0                               0D    198
     128     242                                                00010000D    199
     128       0               4       0                               0D    200
     128     246                                                00010000D    201
     128       0               3       0                               0D    202
     128     249                                                00010000D    203
     128       0               3       0                               0D    204
     128     252                                                00010000D    205
     128       0              18       0                               0D    206
     128     270                                                00010000D    207
     128       0              14       0                               0D    208
     128     284                                                00010000D    209
     128       0               3       0                               0D    210
     128     287                                                00010000D    211
     128       0               5       0                               0D    212
     128     292                                                00010000D    213
     128       0               4       0                               0D    214
     502     296                                                00010000D    215
     502                       8       1                               0D    216
     504     304                                                00010001D    217
     504                      13       1                               0D    218
     406     317                                                00000000D    219
     406                       1      15                               0D    220
     406     318                                                00000000D    221
     406                       1      15                               0D    222
     314     319                                                00000200D    223
     314                       2       0                               0D    224
408,3,0.,0.,0.,1.,0,1,221;                                             1P      1
308,0,14HY-Towing-Mount,1,5;                                           3P      2
186,7,1,0,0,1,219;                                                     5P      3
514,16,9,1,11,1,13,1,15,1,17,1,19,1,21,1,23,1,25,1,27,1,29,1,31,       7P      4
1,33,1,35,1,37,1,39,1;                                                 7P      5
510,183,1,1,41;                                                        9P      6
510,185,1,1,43;                                                       11P      7
510,187,1,1,45;                                                       13P      8
510,189,3,1,47,49,51;                                                 15P      9
510,191,1,1,53;                                                       17P     10
510,193,1,1,55;                                                       19P     11
510,195,2,1,57,59;                                                    21P     12
510,197,2,1,61,63;                                                    23P     13
510,199,2,1,65,67;                                                    25P     14
510,201,2,1,69,71;                                                    27P     15
510,203,3,1,73,75,77;                                                 29P     16
510,205,1,1,79;                                                       31P     17
510,207,1,1,81;                                                       33P     18
510,209,1,1,83;                                                       35P     19
510,211,2,1,85,87;                                                    37P     20
510,213,2,1,89,91;                                                    39P     21
508,5,0,217,1,0,0,0,217,2,0,0,0,217,3,1,0,0,217,4,0,0,0,217,3,0,      41P     22
0;                                                                    41P     23
508,5,0,217,5,0,0,0,217,6,0,0,0,217,7,1,0,0,217,8,0,0,0,217,7,0,      43P     24
0;                                                                    43P     25
508,4,0,217,9,1,0,0,217,10,1,0,0,217,11,1,0,0,217,12,1,0;             45P     26
508,4,0,217,13,0,0,0,217,14,1,0,0,217,12,0,0,0,217,15,0,0;            47P     27
508,2,0,217,1,1,0,0,217,2,1,0;                                        49P     28
508,2,0,217,5,1,0,0,217,6,1,0;                                        51P     29
508,4,0,217,16,1,0,0,217,17,1,0,0,217,18,1,0,0,217,19,1,0;            53P     30
508,4,0,217,20,1,0,0,217,21,1,0,0,217,22,0,0,0,217,23,1,0;            55P     31
508,6,0,217,24,1,0,0,217,17,0,0,0,217,25,1,0,0,217,15,1,0,0,217,      57P     32
11,0,0,0,217,26,0,0;                                                  57P     33
508,4,0,217,27,0,0,0,217,28,0,0,0,217,29,1,0,0,217,21,0,0;            59P     34
508,4,0,217,13,1,0,0,217,25,0,0,0,217,16,0,0,0,217,30,0,0;            61P     35
508,2,0,217,31,0,0,0,217,32,0,0;                                      63P     36
508,4,0,217,33,0,0,0,217,18,0,0,0,217,24,0,0,0,217,34,0,0;            65P     37
508,1,0,217,35,0,0;                                                   67P     38
508,6,0,217,33,1,0,0,217,36,0,0,0,217,9,0,0,0,217,14,0,0,0,217,       69P     39
30,1,0,0,217,19,0,0;                                                  69P     40
508,4,0,217,23,0,0,0,217,37,0,0,0,217,38,0,0,0,217,39,0,0;            71P     41
508,4,0,217,34,1,0,0,217,26,1,0,0,217,10,0,0,0,217,36,1,0;            73P     42
508,1,0,217,4,1,0;                                                    75P     43
508,1,0,217,8,1,0;                                                    77P     44
508,4,0,217,40,0,0,0,217,41,1,0,0,217,35,1,0,0,217,41,0,0;            79P     45
508,5,0,217,31,1,0,0,217,42,1,0,0,217,43,0,0,0,217,42,0,0,0,217,      81P     46
32,1,0;                                                               81P     47
508,4,0,217,38,1,0,0,217,44,1,0,0,217,28,1,0,0,217,45,1,0;            83P     48
508,4,0,217,22,1,0,0,217,29,0,0,0,217,44,0,0,0,217,37,1,0;            85P     49
508,1,0,217,43,1,0;                                                   87P     50
508,4,0,217,39,1,0,0,217,45,0,0,0,217,27,1,0,0,217,20,0,0;            89P     51
508,1,0,217,40,1,0;                                                   91P     52
126,2,2,0,0,0,0,1.5707963267949,1.5707963267949,1.5707963267949,      93P     53
3.14159265358979,3.14159265358979,3.14159265358979,1.,                93P     54
0.707106781186542,1.,-51.,-29.,35.,-49.,-29.,35.,-49.,-29.,37.,       93P     55
1.5707963267949,3.14159265358979,0.,0.,0.;                            93P     56
126,6,2,0,0,0,0,3.14159265358979,3.14159265358979,                    95P     57
3.14159265358979,4.71238898038469,4.71238898038469,                   95P     58
6.28318530717959,6.28318530717959,7.85398163397448,                   95P     59
7.85398163397448,7.85398163397448,1.,0.707106781186542,1.,            95P     60
0.707106781186542,1.,0.707106781186542,1.,-49.,-29.,37.,-49.,         95P     61
-29.,39.,-51.,-29.,39.,-53.,-29.,39.,-53.,-29.,37.,-53.,-29.,         95P     62
35.,-51.,-29.,35.,3.14159265358979,7.85398163397448,0.,0.,0.;         95P     63
126,1,1,0,0,1,0,0.,0.,2.,2.,1.,1.,-49.,-29.,37.,-49.,-33.,37.,        97P     64
0.,2.,0.,0.,0.;                                                       97P     65
126,8,2,0,1,0,0,-3.14159265358979,-3.14159265358979,                  99P     66
-3.14159265358979,-1.5707963267949,-1.5707963267949,0.,0.,            99P     67
1.5707963267949,1.5707963267949,3.14159265358979,                     99P     68
3.14159265358979,3.14159265358979,1.,0.707106781186542,1.,            99P     69
0.707106781186542,1.,0.707106781186542,1.,0.707106781186542,1.,       99P     70
-49.,-33.,37.,-49.,-33.,35.,-51.,-33.,35.,-53.,-33.,35.,-53.,         99P     71
-33.,37.,-53.,-33.,39.,-51.,-33.,39.,-49.,-33.,39.,-49.,-33.,         99P     72
37.,-3.14159265358979,3.14159265358979,0.,0.,0.;                      99P     73
126,2,2,0,0,0,0,1.5707963267949,1.5707963267949,1.5707963267949,     101P     74
3.14159265358979,3.14159265358979,3.14159265358979,1.,               101P     75
0.707106781186536,1.,-51.,-29.,45.,-49.,-29.,45.,-49.,-29.,47.,      101P     76
1.5707963267949,3.14159265358979,0.,0.,0.;                           101P     77
126,6,2,0,0,0,0,3.14159265358979,3.14159265358979,                   103P     78
3.14159265358979,4.71238898038469,4.71238898038469,                  103P     79
6.28318530717959,6.28318530717959,7.85398163397448,                  103P     80
7.85398163397448,7.85398163397448,1.,0.707106781186536,1.,           103P     81
0.707106781186549,1.,0.707106781186536,1.,-49.,-29.,47.,-49.,        103P     82
-29.,49.,-51.,-29.,49.,-53.,-29.,49.,-53.,-29.,47.,-53.,-29.,        103P     83
45.,-51.,-29.,45.,3.14159265358979,7.85398163397448,0.,0.,0.;        103P     84
126,1,1,0,0,1,0,0.,0.,2.,2.,1.,1.,-49.,-29.,47.,-49.,-33.,47.,       105P     85
0.,2.,0.,0.,0.;                                                      105P     86
126,8,2,0,1,0,0,-3.14159265358979,-3.14159265358979,                 107P     87
-3.14159265358979,-1.5707963267949,-1.5707963267949,0.,0.,           107P     88
1.5707963267949,1.5707963267949,3.14159265358979,                    107P     89
3.14159265358979,3.14159265358979,1.,0.707106781186536,1.,           107P     90
0.707106781186536,1.,0.707106781186536,1.,0.707106781186536,1.,      107P     91
-49.,-33.,47.,-49.,-33.,45.,-51.,-33.,45.,-53.,-33.,45.,-53.,        107P     92
-33.,47.,-53.,-33.,49.,-51.,-33.,49.,-49.,-33.,49.,-49.,-33.,        107P     93
47.,-3.14159265358979,3.14159265358979,0.,0.,0.;                     107P     94
126,1,1,0,0,1,0,0.,0.,0.4,0.4,1.,1.,-62.,-29.,54.,-62.,-33.,54.,     109P     95
0.,0.4,0.,0.,0.;                                                     109P     96
126,1,1,0,0,1,0,0.,0.,2.2,2.2,1.,1.,-62.,-33.,54.,-40.,-33.,54.,     111P     97
0.,2.2,0.,0.,0.;                                                     111P     98
126,1,1,0,0,1,0,0.,0.,0.399999999999999,0.399999999999999,1.,1.,     113P     99
-40.,-33.,54.,-40.,-29.,54.,0.,0.399999999999999,0.,0.,0.;           113P    100
126,1,1,0,0,1,0,0.,0.,2.2,2.2,1.,1.,-40.,-29.,54.,-62.,-29.,54.,     115P    101
0.,2.2,0.,0.,0.;                                                     115P    102
126,1,1,0,0,1,0,-0.45,-0.45,1.75,1.75,1.,1.,-62.,-29.,27.,-40.,      117P    103
-29.,27.,-0.45,1.75,0.,0.,0.;                                        117P    104
126,1,1,0,0,1,0,0.,0.,2.7,2.7,1.,1.,-62.,-29.,27.,-62.,-29.,54.,     119P    105
0.,2.7,0.,0.,0.;                                                     119P    106
126,1,1,0,0,1,0,0.,0.,2.7,2.7,1.,1.,-40.,-29.,27.,-40.,-29.,54.,     121P    107
0.,2.7,0.,0.,0.;                                                     121P    108
126,1,1,0,0,1,0,-2.2,-2.2,0.,0.,1.,1.,-62.,-10.5,27.,-40.,-10.5,     123P    109
27.,-2.2,0.,0.,0.,0.;                                                123P    110
126,1,1,0,0,1,0,-2.9,-2.9,0.,0.,1.,1.,-40.,-10.5,27.,-40.,-10.5,     125P    111
-2.,-2.9,0.,0.,0.,0.;                                                125P    112
126,1,1,0,0,1,0,-2.2,-2.2,0.,0.,1.,1.,-40.,-10.5,-2.,-62.,-10.5,     127P    113
-2.,-2.2,0.,0.,0.,0.;                                                127P    114
126,1,1,0,0,1,0,-2.9,-2.9,0.,0.,1.,1.,-62.,-10.5,-2.,-62.,-10.5,     129P    115
27.,-2.9,0.,0.,0.,0.;                                                129P    116
126,1,1,0,0,1,0,0.425,0.425,2.625,2.625,1.,1.,-62.,-14.5,4.5,        131P    117
-40.,-14.5,4.5,0.425,2.625,0.,0.,0.;                                 131P    118
126,1,1,0,0,1,0,0.65,0.65,2.25,2.25,1.,1.,-40.,-14.5,4.5,-40.,       133P    119
-14.5,20.5,0.65,2.25,0.,0.,0.;                                       133P    120
126,1,1,0,0,1,0,-1.325,-1.325,0.875,0.875,1.,1.,-62.,-14.5,20.5,     135P    121
-40.,-14.5,20.5,-1.325,0.875,0.,0.,0.;                               135P    122
126,1,1,0,0,1,0,0.65,0.65,2.25,2.25,1.,1.,-62.,-14.5,20.5,-62.,      137P    123
-14.5,4.5,0.65,2.25,0.,0.,0.;                                        137P    124
126,1,1,0,0,1,0,-0.2,-0.2,2.05,2.05,1.,1.,-40.,-33.,-2.,-40.,        139P    125
-10.5,-2.,-0.2,2.05,0.,0.,0.;                                        139P    126
126,1,1,0,0,1,0,-2.05,-2.05,-0.2,-0.2,1.,1.,-40.,-10.5,27.,-40.,     141P    127
-29.,27.,-2.05,-0.2,0.,0.,0.;                                        141P    128
126,1,1,0,0,1,0,-2.9,-2.9,2.7,2.7,1.,1.,-40.,-33.,-2.,-40.,-33.,     143P    129
54.,-2.9,2.7,0.,0.,0.;                                               143P    130
126,1,1,0,0,1,0,-1.,-1.,0.15,0.15,1.,1.,-40.,-26.,4.5,-40.,          145P    131
-14.5,4.5,-1.,0.15,0.,0.,0.;                                         145P    132
126,1,1,0,0,1,0,-3.05,-3.05,-1.45,-1.45,1.,1.,-40.,-26.,20.5,        147P    133
-40.,-26.,4.5,-3.05,-1.45,0.,0.,0.;                                  147P    134
126,1,1,0,0,1,0,-1.05,-1.05,0.0999999999999999,                      149P    135
0.0999999999999999,1.,1.,-40.,-26.,20.5,-40.,-14.5,20.5,-1.05,       149P    136
0.0999999999999999,0.,0.,0.;                                         149P    137
126,1,1,0,0,1,0,-1.45,-1.45,0.4,0.4,1.,1.,-62.,-29.,27.,-62.,        151P    138
-10.5,27.,-1.45,0.4,0.,0.,0.;                                        151P    139
126,2,2,0,0,0,0,1.5707963267949,1.5707963267949,1.5707963267949,     153P    140
3.14159265358979,3.14159265358979,3.14159265358979,1.,               153P    141
0.707106781186555,1.,-51.,-17.,27.,-52.5,-17.,27.,-52.5,-18.5,       153P    142
27.,1.5707963267949,3.14159265358979,0.,0.,0.;                       153P    143
126,6,2,0,0,0,0,3.14159265358979,3.14159265358979,                   155P    144
3.14159265358979,4.71238898038469,4.71238898038469,                  155P    145
6.28318530717959,6.28318530717959,7.85398163397448,                  155P    146
7.85398163397448,7.85398163397448,1.,0.707106781186558,1.,           155P    147
0.707106781186541,1.,0.707106781186555,1.,-52.5,-18.5,27.,-52.5,     155P    148
-20.,27.,-51.,-20.,27.,-49.5,-20.,27.,-49.5,-18.5,27.,-49.5,         155P    149
-17.,27.,-51.,-17.,27.,3.14159265358979,7.85398163397448,0.,0.,      155P    150
0.;                                                                  155P    151
126,1,1,0,0,1,0,-2.05,-2.05,0.199999999999999,0.199999999999999,     157P    152
1.,1.,-62.,-10.5,-2.,-62.,-33.,-2.,-2.05,0.199999999999999,0.,       157P    153
0.,0.;                                                               157P    154
126,1,1,0,0,1,0,-1.325,-1.325,0.875,0.875,1.,1.,-62.,-33.,-2.,       159P    155
-40.,-33.,-2.,-1.325,0.875,0.,0.,0.;                                 159P    156
126,8,2,0,1,0,0,-3.14159265358979,-3.14159265358979,                 161P    157
-3.14159265358979,-1.5707963267949,-1.5707963267949,0.,0.,           161P    158
1.5707963267949,1.5707963267949,3.14159265358979,                    161P    159
3.14159265358979,3.14159265358979,1.,0.707106781186555,1.,           161P    160
0.707106781186555,1.,0.707106781186558,1.,0.707106781186558,1.,      161P    161
-52.5,-18.5,-2.,-52.5,-17.,-2.,-51.,-17.,-2.,-49.5,-17.,-2.,         161P    162
-49.5,-18.5,-2.,-49.5,-20.,-2.,-51.,-20.,-2.,-52.5,-20.,-2.,         161P    163
-52.5,-18.5,-2.,-3.14159265358979,3.14159265358979,0.,0.,0.;         161P    164
126,1,1,0,0,1,0,-5.275,-5.275,0.325,0.325,1.,1.,-62.,-33.,54.,       163P    165
-62.,-33.,-2.,-5.275,0.325,0.,0.,0.;                                 163P    166
126,1,1,0,0,1,0,0.25,0.25,1.4,1.4,1.,1.,-62.,-26.,20.5,-62.,         165P    167
-14.5,20.5,0.25,1.4,0.,0.,0.;                                        165P    168
126,1,1,0,0,1,0,0.325,0.325,1.925,1.925,1.,1.,-62.,-26.,4.5,         167P    169
-62.,-26.,20.5,0.325,1.925,0.,0.,0.;                                 167P    170
126,1,1,0,0,1,0,-1.4,-1.4,-0.25,-0.25,1.,1.,-62.,-14.5,4.5,-62.,     169P    171
-26.,4.5,-1.4,-0.25,0.,0.,0.;                                        169P    172
126,8,2,0,1,0,0,-3.14159265358979,-3.14159265358979,                 171P    173
-3.14159265358979,-1.5707963267949,-1.5707963267949,0.,0.,           171P    174
1.5707963267949,1.5707963267949,3.14159265358979,                    171P    175
3.14159265358979,3.14159265358979,1.,0.707106781186555,1.,           171P    176
0.707106781186555,1.,0.707106781186558,1.,0.707106781186558,1.,      171P    177
-52.5,-18.5,4.5,-52.5,-17.,4.5,-51.,-17.,4.5,-49.5,-17.,4.5,         171P    178
-49.5,-18.5,4.5,-49.5,-20.,4.5,-51.,-20.,4.5,-52.5,-20.,4.5,         171P    179
-52.5,-18.5,4.5,-3.14159265358979,3.14159265358979,0.,0.,0.;         171P    180
126,1,1,0,0,1,0,20.3333333333333,20.3333333333333,                   173P    181
24.6666666666666,24.6666666666666,1.,1.,-52.5,-18.5,                 173P    182
4.50000000000001,-52.5,-18.5,-2.00000000000001,20.3333333333333,     173P    183
24.6666666666666,0.,0.,0.;                                           173P    184
126,1,1,0,0,1,0,5.33333333333332,5.33333333333332,                   175P    185
9.66666666666664,9.66666666666664,1.,1.,-52.5,-18.5,27.,-52.5,       175P    186
-18.5,20.5,5.33333333333332,9.66666666666664,0.,0.,0.;               175P    187
126,8,2,0,1,0,0,-3.14159265358979,-3.14159265358979,                 177P    188
-3.14159265358979,-1.5707963267949,-1.5707963267949,0.,0.,           177P    189
1.5707963267949,1.5707963267949,3.14159265358979,                    177P    190
3.14159265358979,3.14159265358979,1.,0.707106781186558,1.,           177P    191
0.707106781186558,1.,0.707106781186555,1.,0.707106781186555,1.,      177P    192
-52.5,-18.5,20.5,-52.5,-20.,20.5,-51.,-20.,20.5,-49.5,-20.,20.5,     177P    193
-49.5,-18.5,20.5,-49.5,-17.,20.5,-51.,-17.,20.5,-52.5,-17.,20.5,     177P    194
-52.5,-18.5,20.5,-3.14159265358979,3.14159265358979,0.,0.,0.;        177P    195
126,1,1,0,0,1,0,-1.325,-1.325,0.875,0.875,1.,1.,-62.,-26.,20.5,      179P    196
-40.,-26.,20.5,-1.325,0.875,0.,0.,0.;                                179P    197
126,1,1,0,0,1,0,-2.625,-2.625,-0.425,-0.425,1.,1.,-40.,-26.,4.5,     181P    198
-62.,-26.,4.5,-2.625,-0.425,0.,0.,0.;                                181P    199
128,1,8,1,2,0,1,0,0,1,0.,0.,2.,2.,-3.14159265358979,                 183P    200
-3.14159265358979,-3.14159265358979,-1.5707963267949,                183P    201
-1.5707963267949,0.,0.,1.5707963267949,1.5707963267949,              183P    202
3.14159265358979,3.14159265358979,3.14159265358979,1.,1.,            183P    203
0.707106781186548,0.707106781186548,1.,1.,0.707106781186548,         183P    204
0.707106781186548,1.,1.,0.707106781186548,0.707106781186548,1.,      183P    205
1.,0.707106781186548,0.707106781186548,1.,1.,-49.,-29.,37.,-49.,     183P    206
-33.,37.,-49.,-29.,39.,-49.,-33.,39.,-51.,-29.,39.,-51.,-33.,        183P    207
39.,-53.,-29.,39.,-53.,-33.,39.,-53.,-29.,37.,-53.,-33.,37.,         183P    208
-53.,-29.,35.,-53.,-33.,35.,-51.,-29.,35.,-51.,-33.,35.,-49.,        183P    209
-29.,35.,-49.,-33.,35.,-49.,-29.,37.,-49.,-33.,37.,0.,2.,            183P    210
-3.14159265358979,3.14159265358979;                                  183P    211
128,1,8,1,2,0,1,0,0,1,0.,0.,2.,2.,-3.14159265358979,                 185P    212
-3.14159265358979,-3.14159265358979,-1.5707963267949,                185P    213
-1.5707963267949,0.,0.,1.5707963267949,1.5707963267949,              185P    214
3.14159265358979,3.14159265358979,3.14159265358979,1.,1.,            185P    215
0.707106781186548,0.707106781186548,1.,1.,0.707106781186548,         185P    216
0.707106781186548,1.,1.,0.707106781186548,0.707106781186548,1.,      185P    217
1.,0.707106781186548,0.707106781186548,1.,1.,-49.,-29.,47.,-49.,     185P    218
-33.,47.,-49.,-29.,49.,-49.,-33.,49.,-51.,-29.,49.,-51.,-33.,        185P    219
49.,-53.,-29.,49.,-53.,-33.,49.,-53.,-29.,47.,-53.,-33.,47.,         185P    220
-53.,-29.,45.,-53.,-33.,45.,-51.,-29.,45.,-51.,-33.,45.,-49.,        185P    221
-29.,45.,-49.,-33.,45.,-49.,-29.,47.,-49.,-33.,47.,0.,2.,            185P    222
-3.14159265358979,3.14159265358979;                                  185P    223
128,1,1,1,1,0,0,1,0,0,-1.1,-1.1,1.1,1.1,-1.125,-1.125,-0.725,        187P    224
-0.725,1.,1.,1.,1.,-62.,-33.,54.,-40.,-33.,54.,-62.,-29.,54.,        187P    225
-40.,-29.,54.,-1.1,1.1,-1.125,-0.725;                                187P    226
128,1,1,1,1,0,0,1,0,0,0.,0.,2.2,2.2,0.,0.,2.7,2.7,1.,1.,1.,1.,       189P    227
-40.,-29.,27.,-62.,-29.,27.,-40.,-29.,54.,-62.,-29.,54.,0.,2.2,      189P    228
0.,2.7;                                                              189P    229
128,1,1,1,1,0,0,1,0,0,-1.45,-1.45,1.45,1.45,-1.1,-1.1,1.1,1.1,       191P    230
1.,1.,1.,1.,-62.,-10.5,-2.,-62.,-10.5,27.,-40.,-10.5,-2.,-40.,       191P    231
-10.5,27.,-1.45,1.45,-1.1,1.1;                                       191P    232
128,1,1,1,1,0,0,1,0,0,-1.1,-1.1,1.1,1.1,-0.8,-0.8,0.8,0.8,1.,1.,     193P    233
1.,1.,-62.,-14.5,4.5,-40.,-14.5,4.5,-62.,-14.5,20.5,-40.,-14.5,      193P    234
20.5,-1.1,1.1,-0.8,0.8;                                              193P    235
128,1,1,1,1,0,0,1,0,0,-1.9,-1.9,3.7,3.7,-0.2,-0.2,2.05,2.05,1.,      195P    236
1.,1.,1.,-40.,-33.,54.,-40.,-33.,-2.,-40.,-10.5,54.,-40.,-10.5,      195P    237
-2.,-1.9,3.7,-0.2,2.05;                                              195P    238
128,1,1,1,1,0,0,1,0,0,1.3,1.3,3.5,3.5,0.2,0.2,2.05,2.05,1.,1.,       197P    239
1.,1.,-62.,-29.,27.,-40.,-29.,27.,-62.,-10.5,27.,-40.,-10.5,27.,     197P    240
1.3,3.5,0.2,2.05;                                                    197P    241
128,1,1,1,1,0,0,1,0,0,-8.88178419700125D-16,                         199P    242
-8.88178419700125D-16,2.2,2.2,-0.2,-0.2,2.05,2.05,1.,1.,1.,1.,       199P    243
-40.,-33.,-2.,-62.,-33.,-2.,-40.,-10.5,-2.,-62.,-10.5,-2.,           199P    244
-8.88178419700125D-16,2.2,-0.2,2.05;                                 199P    245
128,1,1,1,1,0,0,1,0,0,-6.4,-6.4,-0.8,-0.8,-0.2,-0.2,2.05,2.05,       201P    246
1.,1.,1.,1.,-62.,-33.,-2.,-62.,-33.,54.,-62.,-10.5,-2.,-62.,         201P    247
-10.5,54.,-6.4,-0.8,-0.2,2.05;                                       201P    248
128,1,1,1,1,0,0,1,0,0,-0.45,-0.45,1.75,1.75,-1.45,-1.45,4.15,        203P    249
4.15,1.,1.,1.,1.,-62.,-33.,-2.,-40.,-33.,-2.,-62.,-33.,54.,-40.,     203P    250
-33.,54.,-0.45,1.75,-1.45,4.15;                                      203P    251
128,1,8,1,2,0,1,0,0,1,20.3333333333333,20.3333333333333,             205P    252
24.6666666666666,24.6666666666666,-3.14159265358979,                 205P    253
-3.14159265358979,-3.14159265358979,-1.5707963267949,                205P    254
-1.5707963267949,0.,0.,1.5707963267949,1.5707963267949,              205P    255
3.14159265358979,3.14159265358979,3.14159265358979,1.,1.,            205P    256
0.707106781186548,0.707106781186548,1.,1.,0.707106781186548,         205P    257
0.707106781186548,1.,1.,0.707106781186548,0.707106781186548,1.,      205P    258
1.,0.707106781186548,0.707106781186548,1.,1.,-52.5,-18.5,            205P    259
4.50000000000001,-52.5,-18.5,-2.00000000000001,-52.5,-17.,           205P    260
4.50000000000001,-52.5,-17.,-2.00000000000001,-51.,-17.,             205P    261
4.50000000000001,-51.,-17.,-2.00000000000001,-49.5,-17.,             205P    262
4.50000000000001,-49.5,-17.,-2.00000000000001,-49.5,-18.5,           205P    263
4.50000000000001,-49.5,-18.5,-2.00000000000001,-49.5,-20.,           205P    264
4.50000000000001,-49.5,-20.,-2.00000000000001,-51.,-20.,             205P    265
4.50000000000001,-51.,-20.,-2.00000000000001,-52.5,-20.,             205P    266
4.50000000000001,-52.5,-20.,-2.00000000000001,-52.5,-18.5,           205P    267
4.50000000000001,-52.5,-18.5,-2.00000000000001,20.3333333333333,     205P    268
24.6666666666666,-3.14159265358979,3.14159265358979;                 205P    269
128,1,8,1,2,0,1,0,0,1,5.33333333333332,5.33333333333332,             207P    270
9.66666666666664,9.66666666666664,-3.14159265358979,                 207P    271
-3.14159265358979,-3.14159265358979,-1.5707963267949,                207P    272
-1.5707963267949,0.,0.,1.5707963267949,1.5707963267949,              207P    273
3.14159265358979,3.14159265358979,3.14159265358979,1.,1.,            207P    274
0.707106781186548,0.707106781186548,1.,1.,0.707106781186548,         207P    275
0.707106781186548,1.,1.,0.707106781186548,0.707106781186548,1.,      207P    276
1.,0.707106781186548,0.707106781186548,1.,1.,-52.5,-18.5,27.,        207P    277
-52.5,-18.5,20.5,-52.5,-17.,27.,-52.5,-17.,20.5,-51.,-17.,27.,       207P    278
-51.,-17.,20.5,-49.5,-17.,27.,-49.5,-17.,20.5,-49.5,-18.5,27.,       207P    279
-49.5,-18.5,20.5,-49.5,-20.,27.,-49.5,-20.,20.5,-51.,-20.,27.,       207P    280
-51.,-20.,20.5,-52.5,-20.,27.,-52.5,-20.,20.5,-52.5,-18.5,27.,       207P    281
-52.5,-18.5,20.5,5.33333333333332,9.66666666666664,                  207P    282
-3.14159265358979,3.14159265358979;                                  207P    283
128,1,1,1,1,0,0,1,0,0,-0.45,-0.45,1.75,1.75,-0.8,-0.8,0.8,0.8,       209P    284
1.,1.,1.,1.,-62.,-26.,20.5,-40.,-26.,20.5,-62.,-26.,4.5,-40.,        209P    285
-26.,4.5,-0.45,1.75,-0.8,0.8;                                        209P    286
128,1,1,1,1,0,0,1,0,0,-8.88178419700125D-16,                         211P    287
-8.88178419700125D-16,2.2,2.2,-4.44089209850063D-16,                 211P    288
-4.44089209850063D-16,1.15,1.15,1.,1.,1.,1.,-40.,-26.,20.5,-62.,     211P    289
-26.,20.5,-40.,-14.5,20.5,-62.,-14.5,20.5,-8.88178419700125D-16,     211P    290
2.2,-4.44089209850063D-16,1.15;                                      211P    291
128,1,1,1,1,0,0,1,0,0,1.3,1.3,3.5,3.5,3.0925660296978D-17,           213P    292
3.0925660296978D-17,1.15,1.15,1.,1.,1.,1.,-62.,-26.,4.5,-40.,        213P    293
-26.,4.5,-62.,-14.5,4.5,-40.,-14.5,4.5,1.3,3.5,                      213P    294
3.0925660296978D-17,1.15;                                            213P    295
502,31,-51.,-29.,35.,-49.,-29.,37.,-49.,-33.,37.,-51.,-29.,45.,      215P    296
-49.,-29.,47.,-49.,-33.,47.,-62.,-29.,54.,-62.,-33.,54.,-40.,        215P    297
-33.,54.,-40.,-29.,54.,-62.,-29.,27.,-40.,-29.,27.,-62.,-10.5,       215P    298
27.,-40.,-10.5,27.,-40.,-10.5,-2.,-62.,-10.5,-2.,-62.,-14.5,4.5,     215P    299
-40.,-14.5,4.5,-40.,-14.5,20.5,-62.,-14.5,20.5,-40.,-33.,-2.,        215P    300
-40.,-26.,4.5,-40.,-26.,20.5,-51.,-17.,27.,-52.5,-18.5,27.,-62.,     215P    301
-33.,-2.,-52.5,-18.5,-2.,-62.,-26.,20.5,-62.,-26.,4.5,-52.5,         215P    302
-18.5,4.5,-52.5,-18.5,20.5;                                          215P    303
504,45,93,215,1,215,2,95,215,2,215,1,97,215,2,215,3,99,215,3,        217P    304
215,3,101,215,4,215,5,103,215,5,215,4,105,215,5,215,6,107,215,6,     217P    305
215,6,109,215,7,215,8,111,215,8,215,9,113,215,9,215,10,115,215,      217P    306
10,215,7,117,215,11,215,12,119,215,11,215,7,121,215,12,215,10,       217P    307
123,215,13,215,14,125,215,14,215,15,127,215,15,215,16,129,215,       217P    308
16,215,13,131,215,17,215,18,133,215,18,215,19,135,215,20,215,19,     217P    309
137,215,20,215,17,139,215,21,215,15,141,215,14,215,12,143,215,       217P    310
21,215,9,145,215,22,215,18,147,215,23,215,22,149,215,23,215,19,      217P    311
151,215,11,215,13,153,215,24,215,25,155,215,25,215,24,157,215,       217P    312
16,215,26,159,215,26,215,21,161,215,27,215,27,163,215,8,215,26,      217P    313
165,215,28,215,20,167,215,29,215,28,169,215,17,215,29,171,215,       217P    314
30,215,30,173,215,30,215,27,175,215,25,215,31,177,215,31,215,31,     217P    315
179,215,28,215,23,181,215,22,215,29;                                 217P    316
406,1,5HBody1;                                                       219P    317
406,1,16HY-Towing-Mount:1;                                           221P    318
314,62.7450980392157,62.7450980392157,62.7450980392157,13HSteel      223P    319
- Satin;                                                             223P    320
S      1G      3D    224P    320                                        T      1
