                                                                        S      1
,,14HY-Towing-Mount,14HY-Towing-Mount,7Hunknown,7Hunknown,32,38,7,99,15,G      1
,1.,2,2HMM,1,0.08,15H20150616.201853,0.01,10000.,7Hunknown,7Hunknown,11,G      2
0,;                                                                     G      3
     186       1                                                00000000D      1
     186            -215       1       0                               0D      2
     514       2                                                00010000D      3
     514                       2       1                               0D      4
     510       4                                                00010000D      5
     510            -215       1       1                               0D      6
     510       5                                                00010000D      7
     510            -215       1       1                               0D      8
     510       6                                                00010000D      9
     510            -215       1       1                               0D     10
     510       7                                                00010000D     11
     510            -215       1       1                               0D     12
     510       8                                                00010000D     13
     510            -215       1       1                               0D     14
     510       9                                                00010000D     15
     510            -215       1       1                               0D     16
     510      10                                                00010000D     17
     510            -215       1       1                               0D     18
     510      11                                                00010000D     19
     510            -215       1       1                               0D     20
     510      12                                                00010000D     21
     510            -215       1       1                               0D     22
     510      13                                                00010000D     23
     510            -215       1       1                               0D     24
     510      14                                                00010000D     25
     510            -215       1       1                               0D     26
     510      15                                                00010000D     27
     510            -215       1       1                               0D     28
     510      16                                                00010000D     29
     510            -215       1       1                               0D     30
     510      17                                                00010000D     31
     510            -215       1       1                               0D     32
     510      18                                                00010000D     33
     510            -215       1       1                               0D     34
     510      19                                                00010000D     35
     510            -215       1       1                               0D     36
     508      20                                                00010000D     37
     508                       2       1                               0D     38
     508      22                                                00010000D     39
     508                       1       1                               0D     40
     508      23                                                00010000D     41
     508                       1       1                               0D     42
     508      24                                                00010000D     43
     508                       1       1                               0D     44
     508      25                                                00010000D     45
     508                       1       1                               0D     46
     508      26                                                00010000D     47
     508                       1       1                               0D     48
     508      27                                                00010000D     49
     508                       1       1                               0D     50
     508      28                                                00010000D     51
     508                       1       1                               0D     52
     508      29                                                00010000D     53
     508                       2       1                               0D     54
     508      31                                                00010000D     55
     508                       1       1                               0D     56
     508      32                                                00010000D     57
     508                       1       1                               0D     58
     508      33                                                00010000D     59
     508                       1       1                               0D     60
     508      34                                                00010000D     61
     508                       1       1                               0D     62
     508      35                                                00010000D     63
     508                       1       1                               0D     64
     508      36                                                00010000D     65
     508                       2       1                               0D     66
     508      38                                                00010000D     67
     508                       1       1                               0D     68
     508      39                                                00010000D     69
     508                       1       1                               0D     70
     508      40                                                00010000D     71
     508                       1       1                               0D     72
     508      41                                                00010000D     73
     508                       1       1                               0D     74
     508      42                                                00010000D     75
     508                       1       1                               0D     76
     508      43                                                00010000D     77
     508                       2       1                               0D     78
     508      45                                                00010000D     79
     508                       1       1                               0D     80
     508      46                                                00010000D     81
     508                       1       1                               0D     82
     508      47                                                00010000D     83
     508                       1       1                               0D     84
     508      48                                                00010000D     85
     508                       1       1                               0D     86
     508      49                                                00010000D     87
     508                       1       1                               0D     88
     126      50                                                00010000D     89
     126       0               4       0                               0D     90
     126      54                                                00010000D     91
     126       0               7       0                               0D     92
     126      61                                                00010000D     93
     126       0               2       0                               0D     94
     126      63                                                00010000D     95
     126       0               8       0                               0D     96
     126      71                                                00010000D     97
     126       0               8       0                               0D     98
     126      79                                                00010000D     99
     126       0               2       0                               0D    100
     126      81                                                00010000D    101
     126       0               8       0                               0D    102
     126      89                                                00010000D    103
     126       0               2       0                               0D    104
     126      91                                                00010000D    105
     126       0               2       0                               0D    106
     126      93                                                00010000D    107
     126       0               2       0                               0D    108
     126      95                                                00010000D    109
     126       0               2       0                               0D    110
     126      97                                                00010000D    111
     126       0               2       0                               0D    112
     126      99                                                00010000D    113
     126       0               2       0                               0D    114
     126     101                                                00010000D    115
     126       0               2       0                               0D    116
     126     103                                                00010000D    117
     126       0               2       0                               0D    118
     126     105                                                00010000D    119
     126       0               2       0                               0D    120
     126     107                                                00010000D    121
     126       0               2       0                               0D    122
     126     109                                                00010000D    123
     126       0               2       0                               0D    124
     126     111                                                00010000D    125
     126       0               2       0                               0D    126
     126     113                                                00010000D    127
     126       0               2       0                               0D    128
     126     115                                                00010000D    129
     126       0               2       0                               0D    130
     126     117                                                00010000D    131
     126       0               2       0                               0D    132
     126     119                                                00010000D    133
     126       0               2       0                               0D    134
     126     121                                                00010000D    135
     126       0               2       0                               0D    136
     126     123                                                00010000D    137
     126       0               2       0                               0D    138
     126     125                                                00010000D    139
     126       0               2       0                               0D    140
     126     127                                                00010000D    141
     126       0               2       0                               0D    142
     126     129                                                00010000D    143
     126       0               3       0                               0D    144
     126     132                                                00010000D    145
     126       0               2       0                               0D    146
     126     134                                                00010000D    147
     126       0               4       0                               0D    148
     126     138                                                00010000D    149
     126       0               8       0                               0D    150
     126     146                                                00010000D    151
     126       0               3       0                               0D    152
     126     149                                                00010000D    153
     126       0               2       0                               0D    154
     126     151                                                00010000D    155
     126       0               8       0                               0D    156
     126     159                                                00010000D    157
     126       0               2       0                               0D    158
     126     161                                                00010000D    159
     126       0               2       0                               0D    160
     126     163                                                00010000D    161
     126       0               2       0                               0D    162
     126     165                                                00010000D    163
     126       0               2       0                               0D    164
     126     167                                                00010000D    165
     126       0               8       0                               0D    166
     126     175                                                00010000D    167
     126       0               4       0                               0D    168
     126     179                                                00010000D    169
     126       0               3       0                               0D    170
     126     182                                                00010000D    171
     126       0               8       0                               0D    172
     126     190                                                00010000D    173
     126       0               2       0                               0D    174
     126     192                                                00010000D    175
     126       0               2       0                               0D    176
     128     194                                                00010000D    177
     128       0    -215      12       0                               0D    178
     128     206                                                00010000D    179
     128       0    -215      12       0                               0D    180
     128     218                                                00010000D    181
     128       0    -215       3       0                               0D    182
     128     221                                                00010000D    183
     128       0    -215       3       0                               0D    184
     128     224                                                00010000D    185
     128       0    -215       3       0                               0D    186
     128     227                                                00010000D    187
     128       0    -215       3       0                               0D    188
     128     230                                                00010000D    189
     128       0    -215       3       0                               0D    190
     128     233                                                00010000D    191
     128       0    -215       3       0                               0D    192
     128     236                                                00010000D    193
     128       0    -215       4       0                               0D    194
     128     240                                                00010000D    195
     128       0    -215       3       0                               0D    196
     128     243                                                00010000D    197
     128       0    -215       3       0                               0D    198
     128     246                                                00010000D    199
     128       0    -215      18       0                               0D    200
     128     264                                                00010000D    201
     128       0    -215      14       0                               0D    202
     128     278                                                00010000D    203
     128       0    -215       3       0                               0D    204
     128     281                                                00010000D    205
     128       0    -215       5       0                               0D    206
     128     286                                                00010000D    207
     128       0    -215       4       0                               0D    208
     502     290                                                00010000D    209
     502                       8       1                               0D    210
     504     298                                                00010001D    211
     504                      13       1                               0D    212
     406     311                                                00000000D    213
     406                       1      15                               0D    214
     314     312                                                00000200D    215
     314                       2       0                               0D    216
186,3,1,0,0,1,213;                                                     1P      1
514,16,5,1,7,1,9,1,11,1,13,1,15,1,17,1,19,1,21,1,23,1,25,1,27,1,       3P      2
29,1,31,1,33,1,35,1;                                                   3P      3
510,177,1,1,37;                                                        5P      4
510,179,1,1,39;                                                        7P      5
510,181,3,1,41,43,45;                                                  9P      6
510,183,1,1,47;                                                       11P      7
510,185,1,1,49;                                                       13P      8
510,187,1,1,51;                                                       15P      9
510,189,2,1,53,55;                                                    17P     10
510,191,2,1,57,59;                                                    19P     11
510,193,2,1,61,63;                                                    21P     12
510,195,2,1,65,67;                                                    23P     13
510,197,3,1,69,71,73;                                                 25P     14
510,199,1,1,75;                                                       27P     15
510,201,1,1,77;                                                       29P     16
510,203,1,1,79;                                                       31P     17
510,205,2,1,81,83;                                                    33P     18
510,207,2,1,85,87;                                                    35P     19
508,5,0,211,1,0,0,0,211,2,0,0,0,211,3,1,0,0,211,4,0,0,0,211,3,0,      37P     20
0;                                                                    37P     21
508,4,0,211,5,0,0,0,211,6,1,0,0,211,7,0,0,0,211,6,0,0;                39P     22
508,4,0,211,8,0,0,0,211,9,1,0,0,211,10,0,0,0,211,11,0,0;              41P     23
508,2,0,211,1,1,0,0,211,2,1,0;                                        43P     24
508,1,0,211,5,1,0;                                                    45P     25
508,4,0,211,12,1,0,0,211,13,1,0,0,211,14,1,0,0,211,10,1,0;            47P     26
508,4,0,211,15,1,0,0,211,16,1,0,0,211,17,1,0,0,211,18,1,0;            49P     27
508,4,0,211,19,1,0,0,211,20,1,0,0,211,21,0,0,0,211,22,1,0;            51P     28
508,6,0,211,23,1,0,0,211,16,0,0,0,211,24,1,0,0,211,11,1,0,0,211,      53P     29
14,0,0,0,211,25,0,0;                                                  53P     30
508,4,0,211,26,0,0,0,211,27,0,0,0,211,28,1,0,0,211,20,0,0;            55P     31
508,4,0,211,8,1,0,0,211,24,0,0,0,211,15,0,0,0,211,29,0,0;             57P     32
508,2,0,211,30,0,0,0,211,31,0,0;                                      59P     33
508,4,0,211,32,0,0,0,211,17,0,0,0,211,23,0,0,0,211,33,0,0;            61P     34
508,1,0,211,34,0,0;                                                   63P     35
508,6,0,211,32,1,0,0,211,35,0,0,0,211,12,0,0,0,211,9,0,0,0,211,       65P     36
29,1,0,0,211,18,0,0;                                                  65P     37
508,4,0,211,22,0,0,0,211,36,0,0,0,211,37,0,0,0,211,38,0,0;            67P     38
508,4,0,211,33,1,0,0,211,25,1,0,0,211,13,0,0,0,211,35,1,0;            69P     39
508,1,0,211,4,1,0;                                                    71P     40
508,1,0,211,7,1,0;                                                    73P     41
508,4,0,211,39,0,0,0,211,40,1,0,0,211,34,1,0,0,211,40,0,0;            75P     42
508,5,0,211,30,1,0,0,211,41,1,0,0,211,42,0,0,0,211,41,0,0,0,211,      77P     43
31,1,0;                                                               77P     44
508,4,0,211,37,1,0,0,211,43,1,0,0,211,27,1,0,0,211,44,1,0;            79P     45
508,4,0,211,21,1,0,0,211,28,0,0,0,211,43,0,0,0,211,36,1,0;            81P     46
508,1,0,211,42,1,0;                                                   83P     47
508,4,0,211,38,1,0,0,211,44,0,0,0,211,26,1,0,0,211,19,0,0;            85P     48
508,1,0,211,39,1,0;                                                   87P     49
126,2,2,0,0,0,0,1.5707963267949,1.5707963267949,1.5707963267949,      89P     50
3.14159265358979,3.14159265358979,3.14159265358979,1.,                89P     51
0.707106781186542,1.,-51.,-29.,30.,-49.,-29.,30.,-49.,-29.,32.,       89P     52
1.5707963267949,3.14159265358979,0.,0.,0.;                            89P     53
126,6,2,0,0,0,0,3.14159265358979,3.14159265358979,                    91P     54
3.14159265358979,4.71238898038469,4.71238898038469,                   91P     55
6.28318530717959,6.28318530717959,7.85398163397448,                   91P     56
7.85398163397448,7.85398163397448,1.,0.707106781186542,1.,            91P     57
0.707106781186542,1.,0.707106781186542,1.,-49.,-29.,32.,-49.,         91P     58
-29.,34.,-51.,-29.,34.,-53.,-29.,34.,-53.,-29.,32.,-53.,-29.,         91P     59
30.,-51.,-29.,30.,3.14159265358979,7.85398163397448,0.,0.,0.;         91P     60
126,1,1,0,0,1,0,0.,0.,2.,2.,1.,1.,-49.,-29.,32.,-49.,-33.,32.,        93P     61
0.,2.,0.,0.,0.;                                                       93P     62
126,8,2,0,1,0,0,-3.14159265358979,-3.14159265358979,                  95P     63
-3.14159265358979,-1.5707963267949,-1.5707963267949,0.,0.,            95P     64
1.5707963267949,1.5707963267949,3.14159265358979,                     95P     65
3.14159265358979,3.14159265358979,1.,0.707106781186542,1.,            95P     66
0.707106781186542,1.,0.707106781186542,1.,0.707106781186542,1.,       95P     67
-49.,-33.,32.,-49.,-33.,30.,-51.,-33.,30.,-53.,-33.,30.,-53.,         95P     68
-33.,32.,-53.,-33.,34.,-51.,-33.,34.,-49.,-33.,34.,-49.,-33.,         95P     69
32.,-3.14159265358979,3.14159265358979,0.,0.,0.;                      95P     70
126,8,2,0,1,0,0,-3.14159265358979,-3.14159265358979,                  97P     71
-3.14159265358979,-1.5707963267949,-1.5707963267949,0.,0.,            97P     72
1.5707963267949,1.5707963267949,3.14159265358979,                     97P     73
3.14159265358979,3.14159265358979,1.,0.707106781186554,1.,            97P     74
0.707106781186554,1.,0.707106781186554,1.,0.707106781186554,1.,       97P     75
-49.,-29.,42.,-49.,-29.,44.,-51.,-29.,44.,-53.,-29.,44.,-53.,         97P     76
-29.,42.,-53.,-29.,40.,-51.,-29.,40.,-49.,-29.,40.,-49.,-29.,         97P     77
42.,-3.14159265358979,3.14159265358979,0.,0.,0.;                      97P     78
126,1,1,0,0,1,0,0.,0.,2.00000000000001,2.00000000000001,1.,1.,        99P     79
-49.,-29.,42.,-49.,-33.,42.,0.,2.00000000000001,0.,0.,0.;             99P     80
126,8,2,0,1,0,0,-3.14159265358979,-3.14159265358979,                 101P     81
-3.14159265358979,-1.5707963267949,-1.5707963267949,0.,0.,           101P     82
1.5707963267949,1.5707963267949,3.14159265358979,                    101P     83
3.14159265358979,3.14159265358979,1.,0.707106781186554,1.,           101P     84
0.707106781186554,1.,0.707106781186554,1.,0.707106781186554,1.,      101P     85
-49.,-33.,42.,-49.,-33.,40.,-51.,-33.,40.,-53.,-33.,40.,-53.,        101P     86
-33.,42.,-53.,-33.,44.,-51.,-33.,44.,-49.,-33.,44.,-49.,-33.,        101P     87
42.,-3.14159265358979,3.14159265358979,0.,0.,0.;                     101P     88
126,1,1,0,0,1,0,-0.45,-0.45,1.75,1.75,1.,1.,-62.,-29.,27.,-40.,      103P     89
-29.,27.,-0.45,1.75,0.,0.,0.;                                        103P     90
126,1,1,0,0,1,0,0.,0.,2.2,2.2,1.,1.,-62.,-29.,27.,-62.,-29.,49.,     105P     91
0.,2.2,0.,0.,0.;                                                     105P     92
126,1,1,0,0,1,0,0.,0.,2.2,2.2,1.,1.,-40.,-29.,49.,-62.,-29.,49.,     107P     93
0.,2.2,0.,0.,0.;                                                     107P     94
126,1,1,0,0,1,0,0.,0.,2.2,2.2,1.,1.,-40.,-29.,27.,-40.,-29.,49.,     109P     95
0.,2.2,0.,0.,0.;                                                     109P     96
126,1,1,0,0,1,0,0.,0.,0.4,0.4,1.,1.,-62.,-29.,49.,-62.,-33.,49.,     111P     97
0.,0.4,0.,0.,0.;                                                     111P     98
126,1,1,0,0,1,0,0.,0.,2.2,2.2,1.,1.,-62.,-33.,49.,-40.,-33.,49.,     113P     99
0.,2.2,0.,0.,0.;                                                     113P    100
126,1,1,0,0,1,0,0.,0.,0.399999999999999,0.399999999999999,1.,1.,     115P    101
-40.,-33.,49.,-40.,-29.,49.,0.,0.399999999999999,0.,0.,0.;           115P    102
126,1,1,0,0,1,0,-2.2,-2.2,0.,0.,1.,1.,-62.,-10.5,27.,-40.,-10.5,     117P    103
27.,-2.2,0.,0.,0.,0.;                                                117P    104
126,1,1,0,0,1,0,-2.9,-2.9,0.,0.,1.,1.,-40.,-10.5,27.,-40.,-10.5,     119P    105
-2.,-2.9,0.,0.,0.,0.;                                                119P    106
126,1,1,0,0,1,0,-2.2,-2.2,0.,0.,1.,1.,-40.,-10.5,-2.,-62.,-10.5,     121P    107
-2.,-2.2,0.,0.,0.,0.;                                                121P    108
126,1,1,0,0,1,0,-2.9,-2.9,0.,0.,1.,1.,-62.,-10.5,-2.,-62.,-10.5,     123P    109
27.,-2.9,0.,0.,0.,0.;                                                123P    110
126,1,1,0,0,1,0,0.425,0.425,2.625,2.625,1.,1.,-62.,-14.5,4.5,        125P    111
-40.,-14.5,4.5,0.425,2.625,0.,0.,0.;                                 125P    112
126,1,1,0,0,1,0,0.65,0.65,2.25,2.25,1.,1.,-40.,-14.5,4.5,-40.,       127P    113
-14.5,20.5,0.65,2.25,0.,0.,0.;                                       127P    114
126,1,1,0,0,1,0,-1.325,-1.325,0.875,0.875,1.,1.,-62.,-14.5,20.5,     129P    115
-40.,-14.5,20.5,-1.325,0.875,0.,0.,0.;                               129P    116
126,1,1,0,0,1,0,0.65,0.65,2.25,2.25,1.,1.,-62.,-14.5,20.5,-62.,      131P    117
-14.5,4.5,0.65,2.25,0.,0.,0.;                                        131P    118
126,1,1,0,0,1,0,-0.2,-0.2,2.05,2.05,1.,1.,-40.,-33.,-2.,-40.,        133P    119
-10.5,-2.,-0.2,2.05,0.,0.,0.;                                        133P    120
126,1,1,0,0,1,0,-2.05,-2.05,-0.2,-0.2,1.,1.,-40.,-10.5,27.,-40.,     135P    121
-29.,27.,-2.05,-0.2,0.,0.,0.;                                        135P    122
126,1,1,0,0,1,0,-2.9,-2.9,2.2,2.2,1.,1.,-40.,-33.,-2.,-40.,-33.,     137P    123
49.,-2.9,2.2,0.,0.,0.;                                               137P    124
126,1,1,0,0,1,0,-1.,-1.,0.15,0.15,1.,1.,-40.,-26.,4.5,-40.,          139P    125
-14.5,4.5,-1.,0.15,0.,0.,0.;                                         139P    126
126,1,1,0,0,1,0,-3.05,-3.05,-1.45,-1.45,1.,1.,-40.,-26.,20.5,        141P    127
-40.,-26.,4.5,-3.05,-1.45,0.,0.,0.;                                  141P    128
126,1,1,0,0,1,0,-1.05,-1.05,0.0999999999999999,                      143P    129
0.0999999999999999,1.,1.,-40.,-26.,20.5,-40.,-14.5,20.5,-1.05,       143P    130
0.0999999999999999,0.,0.,0.;                                         143P    131
126,1,1,0,0,1,0,-1.45,-1.45,0.4,0.4,1.,1.,-62.,-29.,27.,-62.,        145P    132
-10.5,27.,-1.45,0.4,0.,0.,0.;                                        145P    133
126,2,2,0,0,0,0,1.5707963267949,1.5707963267949,1.5707963267949,     147P    134
3.14159265358979,3.14159265358979,3.14159265358979,1.,               147P    135
0.707106781186555,1.,-51.,-17.,27.,-52.5,-17.,27.,-52.5,-18.5,       147P    136
27.,1.5707963267949,3.14159265358979,0.,0.,0.;                       147P    137
126,6,2,0,0,0,0,3.14159265358979,3.14159265358979,                   149P    138
3.14159265358979,4.71238898038469,4.71238898038469,                  149P    139
6.28318530717959,6.28318530717959,7.85398163397448,                  149P    140
7.85398163397448,7.85398163397448,1.,0.707106781186558,1.,           149P    141
0.707106781186541,1.,0.707106781186555,1.,-52.5,-18.5,27.,-52.5,     149P    142
-20.,27.,-51.,-20.,27.,-49.5,-20.,27.,-49.5,-18.5,27.,-49.5,         149P    143
-17.,27.,-51.,-17.,27.,3.14159265358979,7.85398163397448,0.,0.,      149P    144
0.;                                                                  149P    145
126,1,1,0,0,1,0,-2.05,-2.05,0.199999999999999,0.199999999999999,     151P    146
1.,1.,-62.,-10.5,-2.,-62.,-33.,-2.,-2.05,0.199999999999999,0.,       151P    147
0.,0.;                                                               151P    148
126,1,1,0,0,1,0,-1.325,-1.325,0.875,0.875,1.,1.,-62.,-33.,-2.,       153P    149
-40.,-33.,-2.,-1.325,0.875,0.,0.,0.;                                 153P    150
126,8,2,0,1,0,0,-3.14159265358979,-3.14159265358979,                 155P    151
-3.14159265358979,-1.5707963267949,-1.5707963267949,0.,0.,           155P    152
1.5707963267949,1.5707963267949,3.14159265358979,                    155P    153
3.14159265358979,3.14159265358979,1.,0.707106781186555,1.,           155P    154
0.707106781186555,1.,0.707106781186558,1.,0.707106781186558,1.,      155P    155
-52.5,-18.5,-2.,-52.5,-17.,-2.,-51.,-17.,-2.,-49.5,-17.,-2.,         155P    156
-49.5,-18.5,-2.,-49.5,-20.,-2.,-51.,-20.,-2.,-52.5,-20.,-2.,         155P    157
-52.5,-18.5,-2.,-3.14159265358979,3.14159265358979,0.,0.,0.;         155P    158
126,1,1,0,0,1,0,-4.775,-4.775,0.325,0.325,1.,1.,-62.,-33.,49.,       157P    159
-62.,-33.,-2.,-4.775,0.325,0.,0.,0.;                                 157P    160
126,1,1,0,0,1,0,0.25,0.25,1.4,1.4,1.,1.,-62.,-26.,20.5,-62.,         159P    161
-14.5,20.5,0.25,1.4,0.,0.,0.;                                        159P    162
126,1,1,0,0,1,0,0.325,0.325,1.925,1.925,1.,1.,-62.,-26.,4.5,         161P    163
-62.,-26.,20.5,0.325,1.925,0.,0.,0.;                                 161P    164
126,1,1,0,0,1,0,-1.4,-1.4,-0.25,-0.25,1.,1.,-62.,-14.5,4.5,-62.,     163P    165
-26.,4.5,-1.4,-0.25,0.,0.,0.;                                        163P    166
126,8,2,0,1,0,0,-3.14159265358979,-3.14159265358979,                 165P    167
-3.14159265358979,-1.5707963267949,-1.5707963267949,0.,0.,           165P    168
1.5707963267949,1.5707963267949,3.14159265358979,                    165P    169
3.14159265358979,3.14159265358979,1.,0.707106781186555,1.,           165P    170
0.707106781186555,1.,0.707106781186558,1.,0.707106781186558,1.,      165P    171
-52.5,-18.5,4.5,-52.5,-17.,4.5,-51.,-17.,4.5,-49.5,-17.,4.5,         165P    172
-49.5,-18.5,4.5,-49.5,-20.,4.5,-51.,-20.,4.5,-52.5,-20.,4.5,         165P    173
-52.5,-18.5,4.5,-3.14159265358979,3.14159265358979,0.,0.,0.;         165P    174
126,1,1,0,0,1,0,20.3333333333333,20.3333333333333,                   167P    175
24.6666666666666,24.6666666666666,1.,1.,-52.5,-18.5,                 167P    176
4.50000000000001,-52.5,-18.5,-2.00000000000001,20.3333333333333,     167P    177
24.6666666666666,0.,0.,0.;                                           167P    178
126,1,1,0,0,1,0,5.33333333333332,5.33333333333332,                   169P    179
9.66666666666664,9.66666666666664,1.,1.,-52.5,-18.5,27.,-52.5,       169P    180
-18.5,20.5,5.33333333333332,9.66666666666664,0.,0.,0.;               169P    181
126,8,2,0,1,0,0,-3.14159265358979,-3.14159265358979,                 171P    182
-3.14159265358979,-1.5707963267949,-1.5707963267949,0.,0.,           171P    183
1.5707963267949,1.5707963267949,3.14159265358979,                    171P    184
3.14159265358979,3.14159265358979,1.,0.707106781186558,1.,           171P    185
0.707106781186558,1.,0.707106781186555,1.,0.707106781186555,1.,      171P    186
-52.5,-18.5,20.5,-52.5,-20.,20.5,-51.,-20.,20.5,-49.5,-20.,20.5,     171P    187
-49.5,-18.5,20.5,-49.5,-17.,20.5,-51.,-17.,20.5,-52.5,-17.,20.5,     171P    188
-52.5,-18.5,20.5,-3.14159265358979,3.14159265358979,0.,0.,0.;        171P    189
126,1,1,0,0,1,0,-1.325,-1.325,0.875,0.875,1.,1.,-62.,-26.,20.5,      173P    190
-40.,-26.,20.5,-1.325,0.875,0.,0.,0.;                                173P    191
126,1,1,0,0,1,0,-2.625,-2.625,-0.425,-0.425,1.,1.,-40.,-26.,4.5,     175P    192
-62.,-26.,4.5,-2.625,-0.425,0.,0.,0.;                                175P    193
128,1,8,1,2,0,1,0,0,1,0.,0.,2.,2.,-3.14159265358979,                 177P    194
-3.14159265358979,-3.14159265358979,-1.5707963267949,                177P    195
-1.5707963267949,0.,0.,1.5707963267949,1.5707963267949,              177P    196
3.14159265358979,3.14159265358979,3.14159265358979,1.,1.,            177P    197
0.707106781186548,0.707106781186548,1.,1.,0.707106781186548,         177P    198
0.707106781186548,1.,1.,0.707106781186548,0.707106781186548,1.,      177P    199
1.,0.707106781186548,0.707106781186548,1.,1.,-49.,-29.,32.,-49.,     177P    200
-33.,32.,-49.,-29.,34.,-49.,-33.,34.,-51.,-29.,34.,-51.,-33.,        177P    201
34.,-53.,-29.,34.,-53.,-33.,34.,-53.,-29.,32.,-53.,-33.,32.,         177P    202
-53.,-29.,30.,-53.,-33.,30.,-51.,-29.,30.,-51.,-33.,30.,-49.,        177P    203
-29.,30.,-49.,-33.,30.,-49.,-29.,32.,-49.,-33.,32.,0.,2.,            177P    204
-3.14159265358979,3.14159265358979;                                  177P    205
128,1,8,1,2,0,1,0,0,1,0.,0.,2.00000000000001,2.00000000000001,       179P    206
-3.14159265358979,-3.14159265358979,-3.14159265358979,               179P    207
-1.5707963267949,-1.5707963267949,0.,0.,1.5707963267949,             179P    208
1.5707963267949,3.14159265358979,3.14159265358979,                   179P    209
3.14159265358979,1.,1.,0.707106781186548,0.707106781186548,1.,       179P    210
1.,0.707106781186548,0.707106781186548,1.,1.,0.707106781186548,      179P    211
0.707106781186548,1.,1.,0.707106781186548,0.707106781186548,1.,      179P    212
1.,-49.,-29.,42.,-49.,-33.,42.,-49.,-29.,44.,-49.,-33.,44.,-51.,     179P    213
-29.,44.,-51.,-33.,44.,-53.,-29.,44.,-53.,-33.,44.,-53.,-29.,        179P    214
42.,-53.,-33.,42.,-53.,-29.,40.,-53.,-33.,40.,-51.,-29.,40.,         179P    215
-51.,-33.,40.,-49.,-29.,40.,-49.,-33.,40.,-49.,-29.,42.,-49.,        179P    216
-33.,42.,0.,2.00000000000001,-3.14159265358979,3.14159265358979;     179P    217
128,1,1,1,1,0,0,1,0,0,0.,0.,2.2,2.2,0.,0.,2.2,2.2,1.,1.,1.,1.,       181P    218
-40.,-29.,27.,-62.,-29.,27.,-40.,-29.,49.,-62.,-29.,49.,0.,2.2,      181P    219
0.,2.2;                                                              181P    220
128,1,1,1,1,0,0,1,0,0,-1.1,-1.1,1.1,1.1,-1.125,-1.125,-0.725,        183P    221
-0.725,1.,1.,1.,1.,-62.,-33.,49.,-40.,-33.,49.,-62.,-29.,49.,        183P    222
-40.,-29.,49.,-1.1,1.1,-1.125,-0.725;                                183P    223
128,1,1,1,1,0,0,1,0,0,-1.45,-1.45,1.45,1.45,-1.1,-1.1,1.1,1.1,       185P    224
1.,1.,1.,1.,-62.,-10.5,-2.,-62.,-10.5,27.,-40.,-10.5,-2.,-40.,       185P    225
-10.5,27.,-1.45,1.45,-1.1,1.1;                                       185P    226
128,1,1,1,1,0,0,1,0,0,-1.1,-1.1,1.1,1.1,-0.8,-0.8,0.8,0.8,1.,1.,     187P    227
1.,1.,-62.,-14.5,4.5,-40.,-14.5,4.5,-62.,-14.5,20.5,-40.,-14.5,      187P    228
20.5,-1.1,1.1,-0.8,0.8;                                              187P    229
128,1,1,1,1,0,0,1,0,0,-1.4,-1.4,3.7,3.7,-0.2,-0.2,2.05,2.05,1.,      189P    230
1.,1.,1.,-40.,-33.,49.,-40.,-33.,-2.,-40.,-10.5,49.,-40.,-10.5,      189P    231
-2.,-1.4,3.7,-0.2,2.05;                                              189P    232
128,1,1,1,1,0,0,1,0,0,1.3,1.3,3.5,3.5,0.2,0.2,2.05,2.05,1.,1.,       191P    233
1.,1.,-62.,-29.,27.,-40.,-29.,27.,-62.,-10.5,27.,-40.,-10.5,27.,     191P    234
1.3,3.5,0.2,2.05;                                                    191P    235
128,1,1,1,1,0,0,1,0,0,-8.88178419700125D-16,                         193P    236
-8.88178419700125D-16,2.2,2.2,-0.2,-0.2,2.05,2.05,1.,1.,1.,1.,       193P    237
-40.,-33.,-2.,-62.,-33.,-2.,-40.,-10.5,-2.,-62.,-10.5,-2.,           193P    238
-8.88178419700125D-16,2.2,-0.2,2.05;                                 193P    239
128,1,1,1,1,0,0,1,0,0,-5.9,-5.9,-0.8,-0.8,-0.2,-0.2,2.05,2.05,       195P    240
1.,1.,1.,1.,-62.,-33.,-2.,-62.,-33.,49.,-62.,-10.5,-2.,-62.,         195P    241
-10.5,49.,-5.9,-0.8,-0.2,2.05;                                       195P    242
128,1,1,1,1,0,0,1,0,0,-0.45,-0.45,1.75,1.75,-1.45,-1.45,3.65,        197P    243
3.65,1.,1.,1.,1.,-62.,-33.,-2.,-40.,-33.,-2.,-62.,-33.,49.,-40.,     197P    244
-33.,49.,-0.45,1.75,-1.45,3.65;                                      197P    245
128,1,8,1,2,0,1,0,0,1,20.3333333333333,20.3333333333333,             199P    246
24.6666666666666,24.6666666666666,-3.14159265358979,                 199P    247
-3.14159265358979,-3.14159265358979,-1.5707963267949,                199P    248
-1.5707963267949,0.,0.,1.5707963267949,1.5707963267949,              199P    249
3.14159265358979,3.14159265358979,3.14159265358979,1.,1.,            199P    250
0.707106781186548,0.707106781186548,1.,1.,0.707106781186548,         199P    251
0.707106781186548,1.,1.,0.707106781186548,0.707106781186548,1.,      199P    252
1.,0.707106781186548,0.707106781186548,1.,1.,-52.5,-18.5,            199P    253
4.50000000000001,-52.5,-18.5,-2.00000000000001,-52.5,-17.,           199P    254
4.50000000000001,-52.5,-17.,-2.00000000000001,-51.,-17.,             199P    255
4.50000000000001,-51.,-17.,-2.00000000000001,-49.5,-17.,             199P    256
4.50000000000001,-49.5,-17.,-2.00000000000001,-49.5,-18.5,           199P    257
4.50000000000001,-49.5,-18.5,-2.00000000000001,-49.5,-20.,           199P    258
4.50000000000001,-49.5,-20.,-2.00000000000001,-51.,-20.,             199P    259
4.50000000000001,-51.,-20.,-2.00000000000001,-52.5,-20.,             199P    260
4.50000000000001,-52.5,-20.,-2.00000000000001,-52.5,-18.5,           199P    261
4.50000000000001,-52.5,-18.5,-2.00000000000001,20.3333333333333,     199P    262
24.6666666666666,-3.14159265358979,3.14159265358979;                 199P    263
128,1,8,1,2,0,1,0,0,1,5.33333333333332,5.33333333333332,             201P    264
9.66666666666664,9.66666666666664,-3.14159265358979,                 201P    265
-3.14159265358979,-3.14159265358979,-1.5707963267949,                201P    266
-1.5707963267949,0.,0.,1.5707963267949,1.5707963267949,              201P    267
3.14159265358979,3.14159265358979,3.14159265358979,1.,1.,            201P    268
0.707106781186548,0.707106781186548,1.,1.,0.707106781186548,         201P    269
0.707106781186548,1.,1.,0.707106781186548,0.707106781186548,1.,      201P    270
1.,0.707106781186548,0.707106781186548,1.,1.,-52.5,-18.5,27.,        201P    271
-52.5,-18.5,20.5,-52.5,-17.,27.,-52.5,-17.,20.5,-51.,-17.,27.,       201P    272
-51.,-17.,20.5,-49.5,-17.,27.,-49.5,-17.,20.5,-49.5,-18.5,27.,       201P    273
-49.5,-18.5,20.5,-49.5,-20.,27.,-49.5,-20.,20.5,-51.,-20.,27.,       201P    274
-51.,-20.,20.5,-52.5,-20.,27.,-52.5,-20.,20.5,-52.5,-18.5,27.,       201P    275
-52.5,-18.5,20.5,5.33333333333332,9.66666666666664,                  201P    276
-3.14159265358979,3.14159265358979;                                  201P    277
128,1,1,1,1,0,0,1,0,0,-0.45,-0.45,1.75,1.75,-0.8,-0.8,0.8,0.8,       203P    278
1.,1.,1.,1.,-62.,-26.,20.5,-40.,-26.,20.5,-62.,-26.,4.5,-40.,        203P    279
-26.,4.5,-0.45,1.75,-0.8,0.8;                                        203P    280
128,1,1,1,1,0,0,1,0,0,-8.88178419700125D-16,                         205P    281
-8.88178419700125D-16,2.2,2.2,-4.44089209850063D-16,                 205P    282
-4.44089209850063D-16,1.15,1.15,1.,1.,1.,1.,-40.,-26.,20.5,-62.,     205P    283
-26.,20.5,-40.,-14.5,20.5,-62.,-14.5,20.5,-8.88178419700125D-16,     205P    284
2.2,-4.44089209850063D-16,1.15;                                      205P    285
128,1,1,1,1,0,0,1,0,0,1.3,1.3,3.5,3.5,3.0925660296978D-17,           207P    286
3.0925660296978D-17,1.15,1.15,1.,1.,1.,1.,-62.,-26.,4.5,-40.,        207P    287
-26.,4.5,-62.,-14.5,4.5,-40.,-14.5,4.5,1.3,3.5,                      207P    288
3.0925660296978D-17,1.15;                                            207P    289
502,30,-51.,-29.,30.,-49.,-29.,32.,-49.,-33.,32.,-49.,-29.,42.,      209P    290
-49.,-33.,42.,-62.,-29.,27.,-40.,-29.,27.,-62.,-29.,49.,-40.,        209P    291
-29.,49.,-62.,-33.,49.,-40.,-33.,49.,-62.,-10.5,27.,-40.,-10.5,      209P    292
27.,-40.,-10.5,-2.,-62.,-10.5,-2.,-62.,-14.5,4.5,-40.,-14.5,4.5,     209P    293
-40.,-14.5,20.5,-62.,-14.5,20.5,-40.,-33.,-2.,-40.,-26.,4.5,         209P    294
-40.,-26.,20.5,-51.,-17.,27.,-52.5,-18.5,27.,-62.,-33.,-2.,          209P    295
-52.5,-18.5,-2.,-62.,-26.,20.5,-62.,-26.,4.5,-52.5,-18.5,4.5,        209P    296
-52.5,-18.5,20.5;                                                    209P    297
504,44,89,209,1,209,2,91,209,2,209,1,93,209,2,209,3,95,209,3,        211P    298
209,3,97,209,4,209,4,99,209,4,209,5,101,209,5,209,5,103,209,6,       211P    299
209,7,105,209,6,209,8,107,209,9,209,8,109,209,7,209,9,111,209,8,     211P    300
209,10,113,209,10,209,11,115,209,11,209,9,117,209,12,209,13,119,     211P    301
209,13,209,14,121,209,14,209,15,123,209,15,209,12,125,209,16,        211P    302
209,17,127,209,17,209,18,129,209,19,209,18,131,209,19,209,16,        211P    303
133,209,20,209,14,135,209,13,209,7,137,209,20,209,11,139,209,21,     211P    304
209,17,141,209,22,209,21,143,209,22,209,18,145,209,6,209,12,147,     211P    305
209,23,209,24,149,209,24,209,23,151,209,15,209,25,153,209,25,        211P    306
209,20,155,209,26,209,26,157,209,10,209,25,159,209,27,209,19,        211P    307
161,209,28,209,27,163,209,16,209,28,165,209,29,209,29,167,209,       211P    308
29,209,26,169,209,24,209,30,171,209,30,209,30,173,209,27,209,22,     211P    309
175,209,21,209,28;                                                   211P    310
406,1,5HBody1;                                                       213P    311
314,62.7450980392157,62.7450980392157,62.7450980392157,13HSteel      215P    312
- Satin;                                                             215P    313
S      1G      3D    216P    313                                        T      1
