                                                                        S      1
,,14HZ-adjustment-2,14HZ-adjustment-2,7Hunknown,7Hunknown,32,38,7,99,15,G      1
,1.,2,2HMM,1,0.08,15H20150625.213249,0.01,10000.,7Hunknown,7Hunknown,11,G      2
0,;                                                                     G      3
     186       1                                                00000000D      1
     186            -191       1       0                               0D      2
     514       2                                                00010000D      3
     514                       2       1                               0D      4
     510       4                                                00010000D      5
     510            -191       1       1                               0D      6
     510       5                                                00010000D      7
     510            -191       1       1                               0D      8
     510       6                                                00010000D      9
     510            -191       1       1                               0D     10
     510       7                                                00010000D     11
     510            -191       1       1                               0D     12
     510       8                                                00010000D     13
     510            -191       1       1                               0D     14
     510       9                                                00010000D     15
     510            -191       1       1                               0D     16
     510      10                                                00010000D     17
     510            -191       1       1                               0D     18
     510      11                                                00010000D     19
     510            -191       1       1                               0D     20
     510      12                                                00010000D     21
     510            -191       1       1                               0D     22
     510      13                                                00010000D     23
     510            -191       1       1                               0D     24
     510      14                                                00010000D     25
     510            -191       1       1                               0D     26
     510      15                                                00010000D     27
     510            -191       1       1                               0D     28
     510      16                                                00010000D     29
     510            -191       1       1                               0D     30
     510      17                                                00010000D     31
     510            -191       1       1                               0D     32
     510      18                                                00010000D     33
     510            -191       1       1                               0D     34
     508      19                                                00010000D     35
     508                       1       1                               0D     36
     508      20                                                00010000D     37
     508                       1       1                               0D     38
     508      21                                                00010000D     39
     508                       1       1                               0D     40
     508      22                                                00010000D     41
     508                       1       1                               0D     42
     508      23                                                00010000D     43
     508                       1       1                               0D     44
     508      24                                                00010000D     45
     508                       1       1                               0D     46
     508      25                                                00010000D     47
     508                       1       1                               0D     48
     508      26                                                00010000D     49
     508                       1       1                               0D     50
     508      27                                                00010000D     51
     508                       1       1                               0D     52
     508      28                                                00010000D     53
     508                       1       1                               0D     54
     508      29                                                00010000D     55
     508                       1       1                               0D     56
     508      30                                                00010000D     57
     508                       1       1                               0D     58
     508      31                                                00010000D     59
     508                       1       1                               0D     60
     508      32                                                00010000D     61
     508                       3       1                               0D     62
     508      35                                                00010000D     63
     508                       1       1                               0D     64
     508      36                                                00010000D     65
     508                       1       1                               0D     66
     508      37                                                00010000D     67
     508                       1       1                               0D     68
     508      38                                                00010000D     69
     508                       3       1                               0D     70
     508      41                                                00010000D     71
     508                       1       1                               0D     72
     508      42                                                00010000D     73
     508                       1       1                               0D     74
     508      43                                                00010000D     75
     508                       1       1                               0D     76
     126      44                                                00010000D     77
     126       0              10       0                               0D     78
     126      54                                                00010000D     79
     126       0               3       0                               0D     80
     126      57                                                00010000D     81
     126       0              10       0                               0D     82
     126      67                                                00010000D     83
     126       0              12       0                               0D     84
     126      79                                                00010000D     85
     126       0               3       0                               0D     86
     126      82                                                00010000D     87
     126       0              12       0                               0D     88
     126      94                                                00010000D     89
     126       0              10       0                               0D     90
     126     104                                                00010000D     91
     126       0               3       0                               0D     92
     126     107                                                00010000D     93
     126       0              10       0                               0D     94
     126     117                                                00010000D     95
     126       0               2       0                               0D     96
     126     119                                                00010000D     97
     126       0               2       0                               0D     98
     126     121                                                00010000D     99
     126       0               2       0                               0D    100
     126     123                                                00010000D    101
     126       0               2       0                               0D    102
     126     125                                                00010000D    103
     126       0               2       0                               0D    104
     126     127                                                00010000D    105
     126       0               2       0                               0D    106
     126     129                                                00010000D    107
     126       0               2       0                               0D    108
     126     131                                                00010000D    109
     126       0               2       0                               0D    110
     126     133                                                00010000D    111
     126       0               2       0                               0D    112
     126     135                                                00010000D    113
     126       0               2       0                               0D    114
     126     137                                                00010000D    115
     126       0               6       0                               0D    116
     126     143                                                00010000D    117
     126       0               6       0                               0D    118
     126     149                                                00010000D    119
     126       0               2       0                               0D    120
     126     151                                                00010000D    121
     126       0               3       0                               0D    122
     126     154                                                00010000D    123
     126       0               3       0                               0D    124
     126     157                                                00010000D    125
     126       0               2       0                               0D    126
     126     159                                                00010000D    127
     126       0               4       0                               0D    128
     126     163                                                00010000D    129
     126       0               4       0                               0D    130
     126     167                                                00010000D    131
     126       0               2       0                               0D    132
     126     169                                                00010000D    133
     126       0               2       0                               0D    134
     126     171                                                00010000D    135
     126       0               2       0                               0D    136
     126     173                                                00010000D    137
     126       0               3       0                               0D    138
     126     176                                                00010000D    139
     126       0               4       0                               0D    140
     126     180                                                00010000D    141
     126       0               4       0                               0D    142
     126     184                                                00010000D    143
     126       0               2       0                               0D    144
     126     186                                                00010000D    145
     126       0               2       0                               0D    146
     126     188                                                00010000D    147
     126       0               2       0                               0D    148
     126     190                                                00010000D    149
     126       0               2       0                               0D    150
     126     192                                                00010000D    151
     126       0               6       0                               0D    152
     126     198                                                00010000D    153
     126       0               6       0                               0D    154
     128     204                                                00010000D    155
     128       0    -191      17       0                               0D    156
     128     221                                                00010000D    157
     128       0    -191      21       0                               0D    158
     128     242                                                00010000D    159
     128       0    -191      17       0                               0D    160
     128     259                                                00010000D    161
     128       0    -191       3       0                               0D    162
     128     262                                                00010000D    163
     128       0    -191       3       0                               0D    164
     128     265                                                00010000D    165
     128       0    -191       3       0                               0D    166
     128     268                                                00010000D    167
     128       0    -191      10       0                               0D    168
     128     278                                                00010000D    169
     128       0    -191       5       0                               0D    170
     128     283                                                00010000D    171
     128       0    -191       7       0                               0D    172
     128     290                                                00010000D    173
     128       0    -191       4       0                               0D    174
     128     294                                                00010000D    175
     128       0    -191       7       0                               0D    176
     128     301                                                00010000D    177
     128       0    -191       4       0                               0D    178
     128     305                                                00010000D    179
     128       0    -191      10       0                               0D    180
     128     315                                                00010000D    181
     128       0    -191       4       0                               0D    182
     128     319                                                00010000D    183
     128       0    -191       4       0                               0D    184
     502     323                                                00010000D    185
     502                      14       1                               0D    186
     504     337                                                00010001D    187
     504                      11       1                               0D    188
     406     348                                                00000000D    189
     406                       1      15                               0D    190
     314     349                                                00000200D    191
     314                       2       0                               0D    192
186,3,1,0,0,1,189;                                                     1P      1
514,15,5,1,7,1,9,1,11,1,13,1,15,1,17,1,19,1,21,1,23,1,25,1,27,1,       3P      2
29,1,31,1,33,1;                                                        3P      3
510,155,1,1,35;                                                        5P      4
510,157,1,1,37;                                                        7P      5
510,159,1,1,39;                                                        9P      6
510,161,1,1,41;                                                       11P      7
510,163,1,1,43;                                                       13P      8
510,165,1,1,45;                                                       15P      9
510,167,1,1,47;                                                       17P     10
510,169,1,1,49;                                                       19P     11
510,171,1,1,51;                                                       21P     12
510,173,1,1,53;                                                       23P     13
510,175,1,1,55;                                                       25P     14
510,177,1,1,57;                                                       27P     15
510,179,1,1,59;                                                       29P     16
510,181,4,1,61,63,65,67;                                              31P     17
510,183,4,1,69,71,73,75;                                              33P     18
508,4,0,187,1,0,0,0,187,2,1,0,0,187,3,1,0,0,187,2,0,0;                35P     19
508,4,0,187,4,0,0,0,187,5,1,0,0,187,6,1,0,0,187,5,0,0;                37P     20
508,4,0,187,7,0,0,0,187,8,1,0,0,187,9,1,0,0,187,8,0,0;                39P     21
508,4,0,187,10,1,0,0,187,11,1,0,0,187,12,0,0,0,187,13,0,0;            41P     22
508,4,0,187,14,1,0,0,187,13,1,0,0,187,15,0,0,0,187,16,0,0;            43P     23
508,4,0,187,17,1,0,0,187,16,1,0,0,187,18,0,0,0,187,19,0,0;            45P     24
508,4,0,187,20,1,0,0,187,19,1,0,0,187,21,0,0,0,187,22,0,0;            47P     25
508,4,0,187,23,1,0,0,187,22,1,0,0,187,24,0,0,0,187,25,0,0;            49P     26
508,4,0,187,26,1,0,0,187,25,1,0,0,187,27,0,0,0,187,28,0,0;            51P     27
508,4,0,187,29,1,0,0,187,28,1,0,0,187,30,0,0,0,187,31,0,0;            53P     28
508,4,0,187,32,1,0,0,187,31,1,0,0,187,33,0,0,0,187,34,0,0;            55P     29
508,4,0,187,35,1,0,0,187,34,1,0,0,187,36,0,0,0,187,37,0,0;            57P     30
508,4,0,187,38,1,0,0,187,37,1,0,0,187,39,0,0,0,187,11,0,0;            59P     31
508,10,0,187,39,1,0,0,187,36,1,0,0,187,33,1,0,0,187,30,1,0,0,         61P     32
187,27,1,0,0,187,24,1,0,0,187,21,1,0,0,187,18,1,0,0,187,15,1,0,       61P     33
0,187,12,1,0;                                                         61P     34
508,1,0,187,3,0,0;                                                    63P     35
508,1,0,187,6,0,0;                                                    65P     36
508,1,0,187,9,0,0;                                                    67P     37
508,10,0,187,38,0,0,0,187,10,0,0,0,187,14,0,0,0,187,17,0,0,0,         69P     38
187,20,0,0,0,187,23,0,0,0,187,26,0,0,0,187,29,0,0,0,187,32,0,0,       69P     39
0,187,35,0,0;                                                         69P     40
508,1,0,187,1,1,0;                                                    71P     41
508,1,0,187,4,1,0;                                                    73P     42
508,1,0,187,7,1,0;                                                    75P     43
126,8,2,0,1,0,0,-3.14159265358979,-3.14159265358979,                  77P     44
-3.14159265358979,-1.5707963267949,-1.5707963267949,0.,0.,            77P     45
1.5707963267949,1.5707963267949,3.14159265358979,                     77P     46
3.14159265358979,3.14159265358979,1.,0.707106781186546,1.,            77P     47
0.707106781186545,1.,0.707106781186546,1.,0.707106781186546,1.,       77P     48
12.5,-12.,-0.999997138977089,12.5,-12.,-2.49999713897709,14.,         77P     49
-12.,-2.49999713897709,15.5,-12.,-2.49999713897709,15.5,-12.,         77P     50
-0.999997138977089,15.5,-12.,0.500002861022912,14.,-12.,              77P     51
0.500002861022912,12.5,-12.,0.500002861022912,12.5,-12.,              77P     52
-0.999997138977089,-3.14159265358979,3.14159265358979,0.,0.,0.;       77P     53
126,1,1,0,0,1,0,-3.33333333333333,-3.33333333333333,0.,0.,1.,1.,      79P     54
12.5,-12.,-0.999997138977089,12.5,-17.,-0.999997138977089,            79P     55
-3.33333333333333,0.,0.,0.,0.;                                        79P     56
126,8,2,0,1,0,0,-3.14159265358979,-3.14159265358979,                  81P     57
-3.14159265358979,-1.5707963267949,-1.5707963267949,0.,0.,            81P     58
1.5707963267949,1.5707963267949,3.14159265358979,                     81P     59
3.14159265358979,3.14159265358979,1.,0.707106781186546,1.,            81P     60
0.707106781186545,1.,0.707106781186546,1.,0.707106781186546,1.,       81P     61
12.5,-17.,-0.999997138977089,12.5,-17.,-2.49999713897709,14.,         81P     62
-17.,-2.49999713897709,15.5,-17.,-2.49999713897709,15.5,-17.,         81P     63
-0.999997138977089,15.5,-17.,0.500002861022912,14.,-17.,              81P     64
0.500002861022912,12.5,-17.,0.500002861022912,12.5,-17.,              81P     65
-0.999997138977089,-3.14159265358979,3.14159265358979,0.,0.,0.;       81P     66
126,8,2,0,1,0,0,-3.14159265358979,-3.14159265358979,                  83P     67
-3.14159265358979,-1.5707963267949,-1.5707963267949,0.,0.,            83P     68
1.5707963267949,1.5707963267949,3.14159265358979,                     83P     69
3.14159265358979,3.14159265358979,1.,0.707106781186548,1.,            83P     70
0.707106781186547,1.,0.707106781186547,1.,0.707106781186548,1.,       83P     71
-5.50000000000002,-12.,-0.99999713897709,-5.50000000000002,-12.,      83P     72
-6.49999713897709,-1.7426790524237D-14,-12.,-6.49999713897709,        83P     73
5.49999999999998,-12.,-6.49999713897709,5.49999999999998,-12.,        83P     74
-0.999997138977089,5.49999999999998,-12.,4.50000286102291,            83P     75
-1.7426790524237D-14,-12.,4.50000286102291,-5.50000000000002,         83P     76
-12.,4.50000286102291,-5.50000000000002,-12.,-0.999997138977088,      83P     77
-3.14159265358979,3.14159265358979,0.,0.,0.;                          83P     78
126,1,1,0,0,1,0,-0.909090909090909,-0.909090909090909,0.,0.,1.,       85P     79
1.,-5.50000000000002,-12.,-0.999997138977089,-5.50000000000002,       85P     80
-17.,-0.999997138977089,-0.909090909090909,0.,0.,0.,0.;               85P     81
126,8,2,0,1,0,0,-3.14159265358979,-3.14159265358979,                  87P     82
-3.14159265358979,-1.5707963267949,-1.5707963267949,0.,0.,            87P     83
1.5707963267949,1.5707963267949,3.14159265358979,                     87P     84
3.14159265358979,3.14159265358979,1.,0.707106781186548,1.,            87P     85
0.707106781186547,1.,0.707106781186547,1.,0.707106781186548,1.,       87P     86
-5.50000000000002,-17.,-0.99999713897709,-5.50000000000002,-17.,      87P     87
-6.49999713897709,-1.7426790524237D-14,-17.,-6.49999713897709,        87P     88
5.49999999999998,-17.,-6.49999713897709,5.49999999999998,-17.,        87P     89
-0.999997138977089,5.49999999999998,-17.,4.50000286102291,            87P     90
-1.7426790524237D-14,-17.,4.50000286102291,-5.50000000000002,         87P     91
-17.,4.50000286102291,-5.50000000000002,-17.,-0.999997138977088,      87P     92
-3.14159265358979,3.14159265358979,0.,0.,0.;                          87P     93
126,8,2,0,1,0,0,-3.14159265358979,-3.14159265358979,                  89P     94
-3.14159265358979,-1.5707963267949,-1.5707963267949,0.,0.,            89P     95
1.5707963267949,1.5707963267949,3.14159265358979,                     89P     96
3.14159265358979,3.14159265358979,1.,0.707106781186546,1.,            89P     97
0.707106781186545,1.,0.707106781186546,1.,0.707106781186546,1.,       89P     98
-15.5,-12.,-0.999997138977089,-15.5,-12.,-2.49999713897709,-14.,      89P     99
-12.,-2.49999713897709,-12.5,-12.,-2.49999713897709,-12.5,-12.,       89P    100
-0.999997138977089,-12.5,-12.,0.500002861022912,-14.,-12.,            89P    101
0.500002861022912,-15.5,-12.,0.500002861022912,-15.5,-12.,            89P    102
-0.999997138977089,-3.14159265358979,3.14159265358979,0.,0.,0.;       89P    103
126,1,1,0,0,1,0,-3.33333333333333,-3.33333333333333,0.,0.,1.,1.,      91P    104
-15.5,-12.,-0.999997138977089,-15.5,-17.,-0.999997138977089,          91P    105
-3.33333333333333,0.,0.,0.,0.;                                        91P    106
126,8,2,0,1,0,0,-3.14159265358979,-3.14159265358979,                  93P    107
-3.14159265358979,-1.5707963267949,-1.5707963267949,0.,0.,            93P    108
1.5707963267949,1.5707963267949,3.14159265358979,                     93P    109
3.14159265358979,3.14159265358979,1.,0.707106781186546,1.,            93P    110
0.707106781186545,1.,0.707106781186546,1.,0.707106781186546,1.,       93P    111
-15.5,-17.,-0.999997138977089,-15.5,-17.,-2.49999713897709,-14.,      93P    112
-17.,-2.49999713897709,-12.5,-17.,-2.49999713897709,-12.5,-17.,       93P    113
-0.999997138977089,-12.5,-17.,0.500002861022912,-14.,-17.,            93P    114
0.500002861022912,-15.5,-17.,0.500002861022912,-15.5,-17.,            93P    115
-0.999997138977089,-3.14159265358979,3.14159265358979,0.,0.,0.;       93P    116
126,1,1,0,0,1,0,0.2,0.2,0.6,0.6,1.,1.,-14.,-12.,                      95P    117
8.00000286102291,-14.,-12.,4.00000286102291,0.2,0.6,0.,0.,0.;         95P    118
126,1,1,0,0,1,0,0.,0.,0.5,0.5,1.,1.,-14.,-12.,4.00000286102291,       97P    119
-14.,-17.,4.00000286102291,0.,0.5,0.,0.,0.;                           97P    120
126,1,1,0,0,1,0,0.2,0.2,0.6,0.6,1.,1.,-14.,-17.,                      99P    121
8.00000286102291,-14.,-17.,4.00000286102291,0.2,0.6,0.,0.,0.;         99P    122
126,1,1,0,0,1,0,0.,0.,0.5,0.5,1.,1.,-14.,-12.,8.00000286102291,      101P    123
-14.,-17.,8.00000286102291,0.,0.5,0.,0.,0.;                          101P    124
126,1,1,0,0,1,0,0.,0.,2.8,2.8,1.,1.,14.,-12.,8.00000286102291,       103P    125
-14.,-12.,8.00000286102291,0.,2.8,0.,0.,0.;                          103P    126
126,1,1,0,0,1,0,0.,0.,2.8,2.8,1.,1.,14.,-17.,8.00000286102291,       105P    127
-14.,-17.,8.00000286102291,0.,2.8,0.,0.,0.;                          105P    128
126,1,1,0,0,1,0,0.,0.,0.5,0.5,1.,1.,14.,-12.,8.00000286102291,       107P    129
14.,-17.,8.00000286102291,0.,0.5,0.,0.,0.;                           107P    130
126,1,1,0,0,1,0,0.,0.,0.4,0.4,1.,1.,14.,-12.,4.00000286102291,       109P    131
14.,-12.,8.00000286102291,0.,0.4,0.,0.,0.;                           109P    132
126,1,1,0,0,1,0,0.,0.,0.4,0.4,1.,1.,14.,-17.,4.00000286102291,       111P    133
14.,-17.,8.00000286102291,0.,0.4,0.,0.,0.;                           111P    134
126,1,1,0,0,1,0,0.,0.,0.5,0.5,1.,1.,14.,-12.,4.00000286102291,       113P    135
14.,-17.,4.00000286102291,0.,0.5,0.,0.,0.;                           113P    136
126,4,2,0,0,0,0,0.,0.,0.,1.5707963267949,1.5707963267949,            115P    137
3.14159265358979,3.14159265358979,3.14159265358979,1.,               115P    138
0.707106781186547,1.,0.707106781186547,1.,14.,-12.,                  115P    139
-5.99999713897709,19.,-12.,-5.99999713897709,19.,-12.,               115P    140
-0.999997138977089,19.,-12.,4.00000286102291,14.,-12.,               115P    141
4.00000286102291,0.,3.14159265358979,0.,0.,0.;                       115P    142
126,4,2,0,0,0,0,0.,0.,0.,1.5707963267949,1.5707963267949,            117P    143
3.14159265358979,3.14159265358979,3.14159265358979,1.,               117P    144
0.707106781186547,1.,0.707106781186547,1.,14.,-17.,                  117P    145
-5.99999713897709,19.,-17.,-5.99999713897709,19.,-17.,               117P    146
-0.999997138977089,19.,-17.,4.00000286102291,14.,-17.,               117P    147
4.00000286102291,0.,3.14159265358979,0.,0.,0.;                       117P    148
126,1,1,0,0,1,0,0.,0.,0.5,0.5,1.,1.,14.,-12.,-5.99999713897709,      119P    149
14.,-17.,-5.99999713897709,0.,0.5,0.,0.,0.;                          119P    150
126,1,1,0,0,1,0,0.,0.,0.0999999999999992,0.0999999999999992,1.,      121P    151
1.,14.,-12.,-6.99999713897708,14.,-12.,-5.99999713897709,0.,         121P    152
0.0999999999999992,0.,0.,0.;                                         121P    153
126,1,1,0,0,1,0,0.,0.,0.0999999999999992,0.0999999999999992,1.,      123P    154
1.,14.,-17.,-6.99999713897708,14.,-17.,-5.99999713897709,0.,         123P    155
0.0999999999999992,0.,0.,0.;                                         123P    156
126,1,1,0,0,1,0,0.,0.,0.5,0.5,1.,1.,14.,-12.,-6.99999713897708,      125P    157
14.,-17.,-6.99999713897708,0.,0.5,0.,0.,0.;                          125P    158
126,2,2,0,0,0,0,0.,0.,0.,1.5707963267949,1.5707963267949,            127P    159
1.5707963267949,1.,0.707106781186547,1.,9.,-12.,                     127P    160
-11.9999971389771,14.,-12.,-11.9999971389771,14.,-12.,               127P    161
-6.99999713897708,0.,1.5707963267949,0.,0.,0.;                       127P    162
126,2,2,0,0,0,0,0.,0.,0.,1.5707963267949,1.5707963267949,            129P    163
1.5707963267949,1.,0.707106781186547,1.,9.,-17.,                     129P    164
-11.9999971389771,14.,-17.,-11.9999971389771,14.,-17.,               129P    165
-6.99999713897708,0.,1.5707963267949,0.,0.,0.;                       129P    166
126,1,1,0,0,1,0,0.,0.,0.5,0.5,1.,1.,9.,-12.,-11.9999971389771,       131P    167
9.,-17.,-11.9999971389771,0.,0.5,0.,0.,0.;                           131P    168
126,1,1,0,0,1,0,0.,0.,1.8,1.8,1.,1.,-9.00000000000003,-12.,          133P    169
-11.9999971389771,9.,-12.,-11.9999971389771,0.,1.8,0.,0.,0.;         133P    170
126,1,1,0,0,1,0,0.,0.,1.8,1.8,1.,1.,-9.00000000000003,-17.,          135P    171
-11.9999971389771,9.,-17.,-11.9999971389771,0.,1.8,0.,0.,0.;         135P    172
126,1,1,0,0,1,0,0.,0.,0.5,0.5,1.,1.,-9.00000000000003,-12.,          137P    173
-11.9999971389771,-9.00000000000003,-17.,-11.9999971389771,0.,       137P    174
0.5,0.,0.,0.;                                                        137P    175
126,2,2,0,0,0,0,0.,0.,0.,1.5707963267949,1.5707963267949,            139P    176
1.5707963267949,1.,0.707106781186547,1.,-14.,-12.,                   139P    177
-6.99999713897709,-14.,-12.,-11.9999971389771,-9.00000000000003,     139P    178
-12.,-11.9999971389771,0.,1.5707963267949,0.,0.,0.;                  139P    179
126,2,2,0,0,0,0,0.,0.,0.,1.5707963267949,1.5707963267949,            141P    180
1.5707963267949,1.,0.707106781186547,1.,-14.,-17.,                   141P    181
-6.99999713897709,-14.,-17.,-11.9999971389771,-9.00000000000003,     141P    182
-17.,-11.9999971389771,0.,1.5707963267949,0.,0.,0.;                  141P    183
126,1,1,0,0,1,0,0.,0.,0.5,0.5,1.,1.,-14.,-12.,-6.99999713897709,     143P    184
-14.,-17.,-6.99999713897709,0.,0.5,0.,0.,0.;                         143P    185
126,1,1,0,0,1,0,0.,0.,0.1,0.1,1.,1.,-14.,-12.,-5.99999713897709,     145P    186
-14.,-12.,-6.99999713897709,0.,0.1,0.,0.,0.;                         145P    187
126,1,1,0,0,1,0,0.,0.,0.1,0.1,1.,1.,-14.,-17.,-5.99999713897709,     147P    188
-14.,-17.,-6.99999713897709,0.,0.1,0.,0.,0.;                         147P    189
126,1,1,0,0,1,0,0.,0.,0.5,0.5,1.,1.,-14.,-12.,-5.99999713897709,     149P    190
-14.,-17.,-5.99999713897709,0.,0.5,0.,0.,0.;                         149P    191
126,4,2,0,0,0,0,0.,0.,0.,1.5707963267949,1.5707963267949,            151P    192
3.14159265358979,3.14159265358979,3.14159265358979,1.,               151P    193
0.707106781186547,1.,0.707106781186547,1.,-14.,-12.,                 151P    194
4.00000286102291,-19.,-12.,4.00000286102291,-19.,-12.,               151P    195
-0.999997138977089,-19.,-12.,-5.99999713897709,-14.,-12.,            151P    196
-5.99999713897709,0.,3.14159265358979,0.,0.,0.;                      151P    197
126,4,2,0,0,0,0,0.,0.,0.,1.5707963267949,1.5707963267949,            153P    198
3.14159265358979,3.14159265358979,3.14159265358979,1.,               153P    199
0.707106781186547,1.,0.707106781186547,1.,-14.,-17.,                 153P    200
4.00000286102291,-19.,-17.,4.00000286102291,-19.,-17.,               153P    201
-0.999997138977089,-19.,-17.,-5.99999713897709,-14.,-17.,            153P    202
-5.99999713897709,0.,3.14159265358979,0.,0.,0.;                      153P    203
128,1,8,1,2,0,1,0,0,1,0.,0.,3.33333333333333,3.33333333333333,       155P    204
-3.14159265358979,-3.14159265358979,-3.14159265358979,               155P    205
-1.5707963267949,-1.5707963267949,0.,0.,1.5707963267949,             155P    206
1.5707963267949,3.14159265358979,3.14159265358979,                   155P    207
3.14159265358979,1.,1.,0.707106781186548,0.707106781186548,1.,       155P    208
1.,0.707106781186548,0.707106781186548,1.,1.,0.707106781186548,      155P    209
0.707106781186548,1.,1.,0.707106781186548,0.707106781186548,1.,      155P    210
1.,12.5,-17.,-0.999997138977089,12.5,-12.,-0.999997138977089,        155P    211
12.5,-17.,0.500002861022912,12.5,-12.,0.500002861022912,14.,         155P    212
-17.,0.500002861022912,14.,-12.,0.500002861022912,15.5,-17.,         155P    213
0.500002861022912,15.5,-12.,0.500002861022912,15.5,-17.,             155P    214
-0.999997138977089,15.5,-12.,-0.999997138977089,15.5,-17.,           155P    215
-2.49999713897709,15.5,-12.,-2.49999713897709,14.,-17.,              155P    216
-2.49999713897709,14.,-12.,-2.49999713897709,12.5,-17.,              155P    217
-2.49999713897709,12.5,-12.,-2.49999713897709,12.5,-17.,             155P    218
-0.999997138977089,12.5,-12.,-0.999997138977089,0.,                  155P    219
3.33333333333333,-3.14159265358979,3.14159265358979;                 155P    220
128,1,8,1,2,0,1,0,0,1,0.,0.,0.909090909090909,0.909090909090909,     157P    221
-3.14159265358979,-3.14159265358979,-3.14159265358979,               157P    222
-1.5707963267949,-1.5707963267949,0.,0.,1.5707963267949,             157P    223
1.5707963267949,3.14159265358979,3.14159265358979,                   157P    224
3.14159265358979,1.,1.,0.707106781186548,0.707106781186548,1.,       157P    225
1.,0.707106781186548,0.707106781186548,1.,1.,0.707106781186548,      157P    226
0.707106781186548,1.,1.,0.707106781186548,0.707106781186548,1.,      157P    227
1.,-5.50000000000002,-17.,-0.999997138977089,-5.50000000000002,      157P    228
-12.,-0.999997138977089,-5.50000000000002,-17.,4.50000286102291,     157P    229
-5.50000000000002,-12.,4.50000286102291,-1.77635683940025D-14,       157P    230
-17.,4.50000286102291,-1.77635683940025D-14,-12.,                    157P    231
4.50000286102291,5.49999999999998,-17.,4.50000286102291,             157P    232
5.49999999999998,-12.,4.50000286102291,5.49999999999998,-17.,        157P    233
-0.999997138977089,5.49999999999998,-12.,-0.999997138977089,         157P    234
5.49999999999998,-17.,-6.49999713897709,5.49999999999998,-12.,       157P    235
-6.49999713897709,-1.77635683940025D-14,-17.,-6.49999713897709,      157P    236
-1.77635683940025D-14,-12.,-6.49999713897709,-5.50000000000002,      157P    237
-17.,-6.49999713897709,-5.50000000000002,-12.,-6.49999713897709,     157P    238
-5.50000000000002,-17.,-0.999997138977089,-5.50000000000002,         157P    239
-12.,-0.999997138977089,0.,0.909090909090909,-3.14159265358979,      157P    240
3.14159265358979;                                                    157P    241
128,1,8,1,2,0,1,0,0,1,0.,0.,3.33333333333333,3.33333333333333,       159P    242
-3.14159265358979,-3.14159265358979,-3.14159265358979,               159P    243
-1.5707963267949,-1.5707963267949,0.,0.,1.5707963267949,             159P    244
1.5707963267949,3.14159265358979,3.14159265358979,                   159P    245
3.14159265358979,1.,1.,0.707106781186548,0.707106781186548,1.,       159P    246
1.,0.707106781186548,0.707106781186548,1.,1.,0.707106781186548,      159P    247
0.707106781186548,1.,1.,0.707106781186548,0.707106781186548,1.,      159P    248
1.,-15.5,-17.,-0.999997138977089,-15.5,-12.,-0.999997138977089,      159P    249
-15.5,-17.,0.500002861022912,-15.5,-12.,0.500002861022912,-14.,      159P    250
-17.,0.500002861022912,-14.,-12.,0.500002861022912,-12.5,-17.,       159P    251
0.500002861022912,-12.5,-12.,0.500002861022912,-12.5,-17.,           159P    252
-0.999997138977089,-12.5,-12.,-0.999997138977089,-12.5,-17.,         159P    253
-2.49999713897709,-12.5,-12.,-2.49999713897709,-14.,-17.,            159P    254
-2.49999713897709,-14.,-12.,-2.49999713897709,-15.5,-17.,            159P    255
-2.49999713897709,-15.5,-12.,-2.49999713897709,-15.5,-17.,           159P    256
-0.999997138977089,-15.5,-12.,-0.999997138977089,0.,                 159P    257
3.33333333333333,-3.14159265358979,3.14159265358979;                 159P    258
128,1,1,1,1,0,0,1,0,0,0.,0.,0.4,0.4,0.,0.,0.5,0.5,1.,1.,1.,1.,       161P    259
-14.,-12.,8.00000286102291,-14.,-12.,4.00000286102291,-14.,-17.,     161P    260
8.00000286102291,-14.,-17.,4.00000286102291,0.,0.4,0.,0.5;           161P    261
128,1,1,1,1,0,0,1,0,0,0.,0.,2.8,2.8,0.,0.,0.5,0.5,1.,1.,1.,1.,       163P    262
14.,-12.,8.00000286102291,-14.,-12.,8.00000286102291,14.,-17.,       163P    263
8.00000286102291,-14.,-17.,8.00000286102291,0.,2.8,0.,0.5;           163P    264
128,1,1,1,1,0,0,1,0,0,0.,0.,0.4,0.4,0.,0.,0.5,0.5,1.,1.,1.,1.,       165P    265
14.,-12.,4.00000286102291,14.,-12.,8.00000286102291,14.,-17.,        165P    266
4.00000286102291,14.,-17.,8.00000286102291,0.,0.4,0.,0.5;            165P    267
128,1,4,1,2,0,0,0,0,0,0.,0.,1.,1.,0.,0.,0.,1.5707963267949,          167P    268
1.5707963267949,3.14159265358979,3.14159265358979,                   167P    269
3.14159265358979,1.,1.,0.707106781186548,0.707106781186548,1.,       167P    270
1.,0.707106781186548,0.707106781186548,1.,1.,14.,-17.,               167P    271
-5.99999713897709,14.,-12.,-5.99999713897709,19.,-17.,               167P    272
-5.99999713897709,19.,-12.,-5.99999713897709,19.,-17.,               167P    273
-0.999997138977089,19.,-12.,-0.999997138977089,19.,-17.,             167P    274
4.00000286102291,19.,-12.,4.00000286102291,14.,-17.,                 167P    275
4.00000286102291,14.,-12.,4.00000286102291,0.,1.,0.,                 167P    276
3.14159265358979;                                                    167P    277
128,1,1,1,1,0,0,1,0,0,0.,0.,0.0999999999999992,                      169P    278
0.0999999999999992,0.,0.,0.5,0.5,1.,1.,1.,1.,14.,-12.,               169P    279
-6.99999713897708,14.,-12.,-5.99999713897709,14.,-17.,               169P    280
-6.99999713897708,14.,-17.,-5.99999713897709,0.,                     169P    281
0.0999999999999992,0.,0.5;                                           169P    282
128,1,2,1,2,0,0,0,0,0,0.,0.,1.,1.,-2.22044604925031D-16,             171P    283
-2.22044604925031D-16,-2.22044604925031D-16,1.5707963267949,         171P    284
1.5707963267949,1.5707963267949,1.,1.,0.707106781186547,             171P    285
0.707106781186547,1.,1.,9.,-17.,-11.9999971389771,9.,-12.,           171P    286
-11.9999971389771,14.,-17.,-11.9999971389771,14.,-12.,               171P    287
-11.9999971389771,14.,-17.,-6.99999713897709,14.,-12.,               171P    288
-6.99999713897709,0.,1.,-2.22044604925031D-16,1.5707963267949;       171P    289
128,1,1,1,1,0,0,1,0,0,0.,0.,1.8,1.8,0.,0.,0.5,0.5,1.,1.,1.,1.,       173P    290
-9.00000000000003,-12.,-11.9999971389771,9.,-12.,                    173P    291
-11.9999971389771,-9.00000000000003,-17.,-11.9999971389771,9.,       173P    292
-17.,-11.9999971389771,0.,1.8,0.,0.5;                                173P    293
128,1,2,1,2,0,0,0,0,0,0.,0.,1.,1.,0.,0.,0.,1.5707963267949,          175P    294
1.5707963267949,1.5707963267949,1.,1.,0.707106781186547,             175P    295
0.707106781186547,1.,1.,-14.,-17.,-6.99999713897709,-14.,-12.,       175P    296
-6.99999713897709,-14.,-17.,-11.9999971389771,-14.,-12.,             175P    297
-11.9999971389771,-9.00000000000003,-17.,-11.9999971389771,          175P    298
-9.00000000000003,-12.,-11.9999971389771,0.,1.,0.,                   175P    299
1.5707963267949;                                                     175P    300
128,1,1,1,1,0,0,1,0,0,0.,0.,0.1,0.1,0.,0.,0.5,0.5,1.,1.,1.,1.,       177P    301
-14.,-12.,-5.99999713897709,-14.,-12.,-6.99999713897709,-14.,        177P    302
-17.,-5.99999713897709,-14.,-17.,-6.99999713897709,0.,0.1,0.,        177P    303
0.5;                                                                 177P    304
128,1,4,1,2,0,0,0,0,0,0.,0.,1.,1.,0.,0.,0.,1.5707963267949,          179P    305
1.5707963267949,3.14159265358979,3.14159265358979,                   179P    306
3.14159265358979,1.,1.,0.707106781186548,0.707106781186548,1.,       179P    307
1.,0.707106781186548,0.707106781186548,1.,1.,-14.,-17.,              179P    308
4.00000286102291,-14.,-12.,4.00000286102291,-19.,-17.,               179P    309
4.00000286102291,-19.,-12.,4.00000286102291,-19.,-17.,               179P    310
-0.999997138977089,-19.,-12.,-0.999997138977089,-19.,-17.,           179P    311
-5.99999713897709,-19.,-12.,-5.99999713897709,-14.,-17.,             179P    312
-5.99999713897709,-14.,-12.,-5.99999713897709,0.,1.,0.,              179P    313
3.14159265358979;                                                    179P    314
128,1,1,1,1,0,0,1,0,0,-1.9,-1.9,1.9,1.9,-1.1,-1.1,0.9,0.9,1.,1.,     181P    315
1.,1.,-19.,-17.,-11.9999971389771,19.,-17.,-11.9999971389771,        181P    316
-19.,-17.,8.00000286102291,19.,-17.,8.00000286102291,-1.9,1.9,       181P    317
-1.1,0.9;                                                            181P    318
128,1,1,1,1,0,0,1,0,0,-1.9,-1.9,1.9,1.9,-1.1,-1.1,0.9,0.9,1.,1.,     183P    319
1.,1.,19.,-12.,-11.9999971389771,-19.,-12.,-11.9999971389771,        183P    320
19.,-12.,8.00000286102291,-19.,-12.,8.00000286102291,-1.9,1.9,       183P    321
-1.1,0.9;                                                            183P    322
502,26,12.5,-12.,-0.999997138977089,12.5,-17.,                       185P    323
-0.999997138977089,-5.50000000000002,-12.,-0.99999713897709,         185P    324
-5.50000000000002,-17.,-0.99999713897709,-15.5,-12.,                 185P    325
-0.999997138977089,-15.5,-17.,-0.999997138977089,-14.,-12.,          185P    326
8.00000286102291,-14.,-12.,4.00000286102291,-14.,-17.,               185P    327
4.00000286102291,-14.,-17.,8.00000286102291,14.,-12.,                185P    328
8.00000286102291,14.,-17.,8.00000286102291,14.,-12.,                 185P    329
4.00000286102291,14.,-17.,4.00000286102291,14.,-12.,                 185P    330
-5.99999713897709,14.,-17.,-5.99999713897709,14.,-12.,               185P    331
-6.99999713897708,14.,-17.,-6.99999713897708,9.,-12.,                185P    332
-11.9999971389771,9.,-17.,-11.9999971389771,-9.00000000000003,       185P    333
-12.,-11.9999971389771,-9.00000000000003,-17.,-11.9999971389771,     185P    334
-14.,-12.,-6.99999713897709,-14.,-17.,-6.99999713897709,-14.,        185P    335
-12.,-5.99999713897709,-14.,-17.,-5.99999713897709;                  185P    336
504,39,77,185,1,185,1,79,185,1,185,2,81,185,2,185,2,83,185,3,        187P    337
185,3,85,185,3,185,4,87,185,4,185,4,89,185,5,185,5,91,185,5,185,     187P    338
6,93,185,6,185,6,95,185,7,185,8,97,185,8,185,9,99,185,10,185,9,      187P    339
101,185,7,185,10,103,185,11,185,7,105,185,12,185,10,107,185,11,      187P    340
185,12,109,185,13,185,11,111,185,14,185,12,113,185,13,185,14,        187P    341
115,185,15,185,13,117,185,16,185,14,119,185,15,185,16,121,185,       187P    342
17,185,15,123,185,18,185,16,125,185,17,185,18,127,185,19,185,17,     187P    343
129,185,20,185,18,131,185,19,185,20,133,185,21,185,19,135,185,       187P    344
22,185,20,137,185,21,185,22,139,185,23,185,21,141,185,24,185,22,     187P    345
143,185,23,185,24,145,185,25,185,23,147,185,26,185,24,149,185,       187P    346
25,185,26,151,185,8,185,25,153,185,9,185,26;                         187P    347
406,1,5HBody1;                                                       189P    348
314,62.7450980392157,62.7450980392157,62.7450980392157,13HSteel      191P    349
- Satin;                                                             191P    350
S      1G      3D    192P    350                                        T      1
