                                                                        S      1
,,17HZ-adjustment-M8-2,17HZ-adjustment-M8-2,7Hunknown,7Hunknown,32,38,7,G      1
99,15,,1.,2,2HMM,1,0.08,15H20150719.210900,0.01,10000.,7Hunknown,7HunknoG      2
wn,11,0,;                                                               G      3
     186       1                                                00000000D      1
     186            -255       1       0                               0D      2
     514       2                                                00010000D      3
     514                       2       1                               0D      4
     510       4                                                00010000D      5
     510            -255       1       1                               0D      6
     510       5                                                00010000D      7
     510            -255       1       1                               0D      8
     510       6                                                00010000D      9
     510            -255       1       1                               0D     10
     510       7                                                00010000D     11
     510            -255       1       1                               0D     12
     510       8                                                00010000D     13
     510            -255       1       1                               0D     14
     510       9                                                00010000D     15
     510            -255       1       1                               0D     16
     510      10                                                00010000D     17
     510            -255       1       1                               0D     18
     510      11                                                00010000D     19
     510            -255       1       1                               0D     20
     510      12                                                00010000D     21
     510            -255       1       1                               0D     22
     510      13                                                00010000D     23
     510            -255       1       1                               0D     24
     510      14                                                00010000D     25
     510            -255       1       1                               0D     26
     510      15                                                00010000D     27
     510            -255       1       1                               0D     28
     510      16                                                00010000D     29
     510            -255       1       1                               0D     30
     510      17                                                00010000D     31
     510            -255       1       1                               0D     32
     510      18                                                00010000D     33
     510            -255       1       1                               0D     34
     510      19                                                00010000D     35
     510            -255       1       1                               0D     36
     510      20                                                00010000D     37
     510            -255       1       1                               0D     38
     510      21                                                00010000D     39
     510            -255       1       1                               0D     40
     510      22                                                00010000D     41
     510            -255       1       1                               0D     42
     510      23                                                00010000D     43
     510            -255       1       1                               0D     44
     510      24                                                00010000D     45
     510            -255       1       1                               0D     46
     508      25                                                00010000D     47
     508                       2       1                               0D     48
     508      27                                                00010000D     49
     508                       1       1                               0D     50
     508      28                                                00010000D     51
     508                       1       1                               0D     52
     508      29                                                00010000D     53
     508                       1       1                               0D     54
     508      30                                                00010000D     55
     508                       1       1                               0D     56
     508      31                                                00010000D     57
     508                       1       1                               0D     58
     508      32                                                00010000D     59
     508                       1       1                               0D     60
     508      33                                                00010000D     61
     508                       1       1                               0D     62
     508      34                                                00010000D     63
     508                       1       1                               0D     64
     508      35                                                00010000D     65
     508                       1       1                               0D     66
     508      36                                                00010000D     67
     508                       1       1                               0D     68
     508      37                                                00010000D     69
     508                       1       1                               0D     70
     508      38                                                00010000D     71
     508                       1       1                               0D     72
     508      39                                                00010000D     73
     508                       1       1                               0D     74
     508      40                                                00010000D     75
     508                       1       1                               0D     76
     508      41                                                00010000D     77
     508                       1       1                               0D     78
     508      42                                                00010000D     79
     508                       1       1                               0D     80
     508      43                                                00010000D     81
     508                       1       1                               0D     82
     508      44                                                00010000D     83
     508                       1       1                               0D     84
     508      45                                                00010000D     85
     508                       3       1                               0D     86
     508      48                                                00010000D     87
     508                       1       1                               0D     88
     508      49                                                00010000D     89
     508                       1       1                               0D     90
     508      50                                                00010000D     91
     508                       3       1                               0D     92
     508      53                                                00010000D     93
     508                       2       1                               0D     94
     508      55                                                00010000D     95
     508                       1       1                               0D     96
     508      56                                                00010000D     97
     508                       1       1                               0D     98
     126      57                                                00010000D     99
     126       0               4       0                               0D    100
     126      61                                                00010000D    101
     126       0               4       0                               0D    102
     126      65                                                00010000D    103
     126       0               4       0                               0D    104
     126      69                                                00010000D    105
     126       0               4       0                               0D    106
     126      73                                                00010000D    107
     126       0               4       0                               0D    108
     126      77                                                00010000D    109
     126       0               4       0                               0D    110
     126      81                                                00010000D    111
     126       0               3       0                               0D    112
     126      84                                                00010000D    113
     126       0               4       0                               0D    114
     126      88                                                00010000D    115
     126       0               3       0                               0D    116
     126      91                                                00010000D    117
     126       0               3       0                               0D    118
     126      94                                                00010000D    119
     126       0               4       0                               0D    120
     126      98                                                00010000D    121
     126       0               3       0                               0D    122
     126     101                                                00010000D    123
     126       0               4       0                               0D    124
     126     105                                                00010000D    125
     126       0               3       0                               0D    126
     126     108                                                00010000D    127
     126       0               4       0                               0D    128
     126     112                                                00010000D    129
     126       0               3       0                               0D    130
     126     115                                                00010000D    131
     126       0               4       0                               0D    132
     126     119                                                00010000D    133
     126       0               4       0                               0D    134
     126     123                                                00010000D    135
     126       0              10       0                               0D    136
     126     133                                                00010000D    137
     126       0               3       0                               0D    138
     126     136                                                00010000D    139
     126       0              10       0                               0D    140
     126     146                                                00010000D    141
     126       0              10       0                               0D    142
     126     156                                                00010000D    143
     126       0               3       0                               0D    144
     126     159                                                00010000D    145
     126       0              10       0                               0D    146
     126     169                                                00010000D    147
     126       0               2       0                               0D    148
     126     171                                                00010000D    149
     126       0               2       0                               0D    150
     126     173                                                00010000D    151
     126       0               2       0                               0D    152
     126     175                                                00010000D    153
     126       0               2       0                               0D    154
     126     177                                                00010000D    155
     126       0               2       0                               0D    156
     126     179                                                00010000D    157
     126       0               2       0                               0D    158
     126     181                                                00010000D    159
     126       0               2       0                               0D    160
     126     183                                                00010000D    161
     126       0               2       0                               0D    162
     126     185                                                00010000D    163
     126       0               2       0                               0D    164
     126     187                                                00010000D    165
     126       0               2       0                               0D    166
     126     189                                                00010000D    167
     126       0               6       0                               0D    168
     126     195                                                00010000D    169
     126       0               6       0                               0D    170
     126     201                                                00010000D    171
     126       0               2       0                               0D    172
     126     203                                                00010000D    173
     126       0               3       0                               0D    174
     126     206                                                00010000D    175
     126       0               3       0                               0D    176
     126     209                                                00010000D    177
     126       0               2       0                               0D    178
     126     211                                                00010000D    179
     126       0               4       0                               0D    180
     126     215                                                00010000D    181
     126       0               4       0                               0D    182
     126     219                                                00010000D    183
     126       0               2       0                               0D    184
     126     221                                                00010000D    185
     126       0               2       0                               0D    186
     126     223                                                00010000D    187
     126       0               2       0                               0D    188
     126     225                                                00010000D    189
     126       0               3       0                               0D    190
     126     228                                                00010000D    191
     126       0               4       0                               0D    192
     126     232                                                00010000D    193
     126       0               4       0                               0D    194
     126     236                                                00010000D    195
     126       0               2       0                               0D    196
     126     238                                                00010000D    197
     126       0               2       0                               0D    198
     126     240                                                00010000D    199
     126       0               2       0                               0D    200
     126     242                                                00010000D    201
     126       0               2       0                               0D    202
     126     244                                                00010000D    203
     126       0               6       0                               0D    204
     126     250                                                00010000D    205
     126       0               6       0                               0D    206
     128     256                                                00010000D    207
     128       0    -255       7       0                               0D    208
     128     263                                                00010000D    209
     128       0    -255       7       0                               0D    210
     128     270                                                00010000D    211
     128       0    -255       7       0                               0D    212
     128     277                                                00010000D    213
     128       0    -255       6       0                               0D    214
     128     283                                                00010000D    215
     128       0    -255       6       0                               0D    216
     128     289                                                00010000D    217
     128       0    -255       7       0                               0D    218
     128     296                                                00010000D    219
     128       0    -255       6       0                               0D    220
     128     302                                                00010000D    221
     128       0    -255      17       0                               0D    222
     128     319                                                00010000D    223
     128       0    -255      17       0                               0D    224
     128     336                                                00010000D    225
     128       0    -255       3       0                               0D    226
     128     339                                                00010000D    227
     128       0    -255       3       0                               0D    228
     128     342                                                00010000D    229
     128       0    -255       3       0                               0D    230
     128     345                                                00010000D    231
     128       0    -255      10       0                               0D    232
     128     355                                                00010000D    233
     128       0    -255       5       0                               0D    234
     128     360                                                00010000D    235
     128       0    -255       7       0                               0D    236
     128     367                                                00010000D    237
     128       0    -255       4       0                               0D    238
     128     371                                                00010000D    239
     128       0    -255       7       0                               0D    240
     128     378                                                00010000D    241
     128       0    -255       4       0                               0D    242
     128     382                                                00010000D    243
     128       0    -255      10       0                               0D    244
     128     392                                                00010000D    245
     128       0    -255       4       0                               0D    246
     128     396                                                00010000D    247
     128       0    -255       4       0                               0D    248
     502     400                                                00010000D    249
     502                      21       1                               0D    250
     504     421                                                00010001D    251
     504                      16       1                               0D    252
     406     437                                                00000000D    253
     406                       1      15                               0D    254
     314     438                                                00000200D    255
     314                       2       0                               0D    256
186,3,1,0,0,1,253;                                                     1P      1
514,21,5,1,7,1,9,1,11,1,13,1,15,1,17,1,19,1,21,1,23,1,25,1,27,1,       3P      2
29,1,31,1,33,1,35,1,37,1,39,1,41,1,43,1,45,1;                          3P      3
510,207,1,1,47;                                                        5P      4
510,209,1,1,49;                                                        7P      5
510,211,1,1,51;                                                        9P      6
510,213,1,1,53;                                                       11P      7
510,215,1,1,55;                                                       13P      8
510,217,1,1,57;                                                       15P      9
510,219,1,1,59;                                                       17P     10
510,221,1,1,61;                                                       19P     11
510,223,1,1,63;                                                       21P     12
510,225,1,1,65;                                                       23P     13
510,227,1,1,67;                                                       25P     14
510,229,1,1,69;                                                       27P     15
510,231,1,1,71;                                                       29P     16
510,233,1,1,73;                                                       31P     17
510,235,1,1,75;                                                       33P     18
510,237,1,1,77;                                                       35P     19
510,239,1,1,79;                                                       37P     20
510,241,1,1,81;                                                       39P     21
510,243,1,1,83;                                                       41P     22
510,245,3,1,85,87,89;                                                 43P     23
510,247,4,1,91,93,95,97;                                              45P     24
508,6,0,251,1,0,0,0,251,2,0,0,0,251,3,0,0,0,251,4,0,0,0,251,5,0,      47P     25
0,0,251,6,0,0;                                                        47P     26
508,4,0,251,4,1,0,0,251,7,0,0,0,251,8,0,0,0,251,9,1,0;                49P     27
508,4,0,251,3,1,0,0,251,10,0,0,0,251,11,0,0,0,251,7,1,0;              51P     28
508,4,0,251,2,1,0,0,251,12,0,0,0,251,13,0,0,0,251,10,1,0;             53P     29
508,4,0,251,6,1,0,0,251,14,0,0,0,251,15,0,0,0,251,16,1,0;             55P     30
508,4,0,251,1,1,0,0,251,16,0,0,0,251,17,0,0,0,251,12,1,0;             57P     31
508,4,0,251,5,1,0,0,251,9,0,0,0,251,18,0,0,0,251,14,1,0;              59P     32
508,4,0,251,19,0,0,0,251,20,1,0,0,251,21,1,0,0,251,20,0,0;            61P     33
508,4,0,251,22,0,0,0,251,23,1,0,0,251,24,1,0,0,251,23,0,0;            63P     34
508,4,0,251,25,1,0,0,251,26,1,0,0,251,27,0,0,0,251,28,0,0;            65P     35
508,4,0,251,29,1,0,0,251,28,1,0,0,251,30,0,0,0,251,31,0,0;            67P     36
508,4,0,251,32,1,0,0,251,31,1,0,0,251,33,0,0,0,251,34,0,0;            69P     37
508,4,0,251,35,1,0,0,251,34,1,0,0,251,36,0,0,0,251,37,0,0;            71P     38
508,4,0,251,38,1,0,0,251,37,1,0,0,251,39,0,0,0,251,40,0,0;            73P     39
508,4,0,251,41,1,0,0,251,40,1,0,0,251,42,0,0,0,251,43,0,0;            75P     40
508,4,0,251,44,1,0,0,251,43,1,0,0,251,45,0,0,0,251,46,0,0;            77P     41
508,4,0,251,47,1,0,0,251,46,1,0,0,251,48,0,0,0,251,49,0,0;            79P     42
508,4,0,251,50,1,0,0,251,49,1,0,0,251,51,0,0,0,251,52,0,0;            81P     43
508,4,0,251,53,1,0,0,251,52,1,0,0,251,54,0,0,0,251,26,0,0;            83P     44
508,10,0,251,54,1,0,0,251,51,1,0,0,251,48,1,0,0,251,45,1,0,0,         85P     45
251,42,1,0,0,251,39,1,0,0,251,36,1,0,0,251,33,1,0,0,251,30,1,0,       85P     46
0,251,27,1,0;                                                         85P     47
508,1,0,251,21,0,0;                                                   87P     48
508,1,0,251,24,0,0;                                                   89P     49
508,10,0,251,53,0,0,0,251,25,0,0,0,251,29,0,0,0,251,32,0,0,0,         91P     50
251,35,0,0,0,251,38,0,0,0,251,41,0,0,0,251,44,0,0,0,251,47,0,0,       91P     51
0,251,50,0,0;                                                         91P     52
508,6,0,251,11,1,0,0,251,13,1,0,0,251,17,1,0,0,251,15,1,0,0,251,      93P     53
18,1,0,0,251,8,1,0;                                                   93P     54
508,1,0,251,19,1,0;                                                   95P     55
508,1,0,251,22,1,0;                                                   97P     56
126,1,1,0,0,1,0,-0.158701522164235,-0.158701522164235,                99P     57
0.649588854701241,0.649588854701241,1.,1.,4.06102806516116,-14.,      99P     58
-7.98865826878633,8.08287210943623,-14.,-0.977374233970567,           99P     59
-0.158701522164235,0.649588854701241,0.,0.,0.;                        99P     60
126,1,1,0,0,1,0,-0.201932651284633,-0.201932651284633,               101P     61
0.606357725580843,0.606357725580843,1.,1.,-4.02184404427509,         101P     62
-14.,-8.01128117379286,4.06102806516116,-14.,-7.98865826878633,      101P     63
-0.201932651284633,0.606357725580843,0.,0.,0.;                       101P     64
126,1,1,0,0,1,0,-0.245303723336766,-0.245303723336766,               103P     65
0.56298665352871,0.56298665352871,1.,1.,-8.08287210943627,-14.,      103P     66
-1.02262004398361,-4.02184404427509,-14.,-8.01128117379286,          103P     67
-0.245303723336766,0.56298665352871,0.,0.,0.;                        103P     68
126,1,1,0,0,1,0,-0.245443666268503,-0.245443666268503,               105P     69
0.562846710596973,0.562846710596973,1.,1.,-4.06102806516119,         105P     70
-14.,5.98866399083215,-8.08287210943627,-14.,-1.02262004398361,      105P     71
-0.245443666268503,0.562846710596973,0.,0.,0.;                       105P     72
126,1,1,0,0,1,0,-0.202212537148106,-0.202212537148106,               107P     73
0.606077839717371,0.606077839717371,1.,1.,4.02184404427506,-14.,     107P     74
6.01128689583868,-4.0610280651612,-14.,5.98866399083215,             107P     75
-0.202212537148106,0.606077839717371,0.,0.,0.;                       107P     76
126,1,1,0,0,1,0,-0.158841465095972,-0.158841465095972,               109P     77
0.649448911769505,0.649448911769505,1.,1.,8.08287210943623,-14.,     109P     78
-0.977374233970568,4.02184404427506,-14.,6.01128689583868,           109P     79
-0.158841465095972,0.649448911769505,0.,0.,0.;                       109P     80
126,1,1,0,0,1,0,0.2,0.2,0.4,0.4,1.,1.,-8.08287210943627,-12.,        111P     81
-1.02262004398361,-8.08287210943627,-14.,-1.02262004398361,0.2,      111P     82
0.4,0.,0.,0.;                                                        111P     83
126,1,1,0,0,1,0,-0.202072594216369,-0.202072594216369,               113P     84
0.606217782649107,0.606217782649107,1.,1.,-4.06102806516119,         113P     85
-12.,5.98866399083215,-8.08287210943627,-12.,-1.02262004398361,      113P     86
-0.202072594216369,0.606217782649107,0.,0.,0.;                       113P     87
126,1,1,0,0,1,0,0.2,0.2,0.4,0.4,1.,1.,-4.06102806516119,-12.,        115P     88
5.98866399083215,-4.06102806516119,-14.,5.98866399083215,0.2,        115P     89
0.4,0.,0.,0.;                                                        115P     90
126,1,1,0,0,1,0,0.2,0.2,0.4,0.4,1.,1.,-4.02184404427509,-12.,        117P     91
-8.01128117379286,-4.02184404427509,-14.,-8.01128117379286,0.2,      117P     92
0.4,0.,0.,0.;                                                        117P     93
126,1,1,0,0,1,0,-0.202072594216369,-0.202072594216369,               119P     94
0.606217782649107,0.606217782649107,1.,1.,-8.08287210943627,         119P     95
-12.,-1.02262004398361,-4.02184404427509,-12.,-8.01128117379286,     119P     96
-0.202072594216369,0.606217782649107,0.,0.,0.;                       119P     97
126,1,1,0,0,1,0,0.2,0.2,0.4,0.4,1.,1.,4.06102806516116,-12.,         121P     98
-7.98865826878633,4.06102806516116,-14.,-7.98865826878633,0.2,       121P     99
0.4,0.,0.,0.;                                                        121P    100
126,1,1,0,0,1,0,-0.202072594216369,-0.202072594216369,               123P    101
0.606217782649108,0.606217782649108,1.,1.,-4.02184404427509,         123P    102
-12.,-8.01128117379286,4.06102806516116,-12.,-7.98865826878633,      123P    103
-0.202072594216369,0.606217782649108,0.,0.,0.;                       123P    104
126,1,1,0,0,1,0,0.2,0.2,0.4,0.4,1.,1.,4.02184404427506,-12.,         125P    105
6.01128689583868,4.02184404427506,-14.,6.01128689583868,0.2,0.4,     125P    106
0.,0.,0.;                                                            125P    107
126,1,1,0,0,1,0,-0.202072594216369,-0.202072594216369,               127P    108
0.606217782649107,0.606217782649107,1.,1.,8.08287210943623,-12.,     127P    109
-0.977374233970568,4.02184404427506,-12.,6.01128689583868,           127P    110
-0.202072594216369,0.606217782649107,0.,0.,0.;                       127P    111
126,1,1,0,0,1,0,0.2,0.2,0.4,0.4,1.,1.,8.08287210943623,-12.,         129P    112
-0.977374233970568,8.08287210943623,-14.,-0.977374233970568,0.2,     129P    113
0.4,0.,0.,0.;                                                        129P    114
126,1,1,0,0,1,0,-0.202072594216369,-0.202072594216369,               131P    115
0.606217782649107,0.606217782649107,1.,1.,4.06102806516116,-12.,     131P    116
-7.98865826878634,8.08287210943623,-12.,-0.977374233970568,          131P    117
-0.202072594216369,0.606217782649107,0.,0.,0.;                       131P    118
126,1,1,0,0,1,0,-0.20207259421637,-0.20207259421637,                 133P    119
0.606217782649107,0.606217782649107,1.,1.,4.02184404427506,-12.,     133P    120
6.01128689583868,-4.06102806516119,-12.,5.98866399083215,            133P    121
-0.20207259421637,0.606217782649107,0.,0.,0.;                        133P    122
126,8,2,0,1,0,0,-3.14159265358979,-3.14159265358979,                 135P    123
-3.14159265358979,-1.5707963267949,-1.5707963267949,0.,0.,           135P    124
1.5707963267949,1.5707963267949,3.14159265358979,                    135P    125
3.14159265358979,3.14159265358979,1.,0.707106781186546,1.,           135P    126
0.707106781186545,1.,0.707106781186546,1.,0.707106781186546,1.,      135P    127
12.5,-12.,-0.999997138977089,12.5,-12.,-2.49999713897709,14.,        135P    128
-12.,-2.49999713897709,15.5,-12.,-2.49999713897709,15.5,-12.,        135P    129
-0.999997138977089,15.5,-12.,0.500002861022912,14.,-12.,             135P    130
0.500002861022912,12.5,-12.,0.500002861022912,12.5,-12.,             135P    131
-0.999997138977089,-3.14159265358979,3.14159265358979,0.,0.,0.;      135P    132
126,1,1,0,0,1,0,-3.33333333333333,-3.33333333333333,0.,0.,1.,1.,     137P    133
12.5,-12.,-0.999997138977089,12.5,-17.,-0.999997138977089,           137P    134
-3.33333333333333,0.,0.,0.,0.;                                       137P    135
126,8,2,0,1,0,0,-3.14159265358979,-3.14159265358979,                 139P    136
-3.14159265358979,-1.5707963267949,-1.5707963267949,0.,0.,           139P    137
1.5707963267949,1.5707963267949,3.14159265358979,                    139P    138
3.14159265358979,3.14159265358979,1.,0.707106781186546,1.,           139P    139
0.707106781186545,1.,0.707106781186546,1.,0.707106781186546,1.,      139P    140
12.5,-17.,-0.999997138977089,12.5,-17.,-2.49999713897709,14.,        139P    141
-17.,-2.49999713897709,15.5,-17.,-2.49999713897709,15.5,-17.,        139P    142
-0.999997138977089,15.5,-17.,0.500002861022912,14.,-17.,             139P    143
0.500002861022912,12.5,-17.,0.500002861022912,12.5,-17.,             139P    144
-0.999997138977089,-3.14159265358979,3.14159265358979,0.,0.,0.;      139P    145
126,8,2,0,1,0,0,-3.14159265358979,-3.14159265358979,                 141P    146
-3.14159265358979,-1.5707963267949,-1.5707963267949,0.,0.,           141P    147
1.5707963267949,1.5707963267949,3.14159265358979,                    141P    148
3.14159265358979,3.14159265358979,1.,0.707106781186546,1.,           141P    149
0.707106781186545,1.,0.707106781186546,1.,0.707106781186546,1.,      141P    150
-15.5,-12.,-0.999997138977089,-15.5,-12.,-2.49999713897709,-14.,     141P    151
-12.,-2.49999713897709,-12.5,-12.,-2.49999713897709,-12.5,-12.,      141P    152
-0.999997138977089,-12.5,-12.,0.500002861022912,-14.,-12.,           141P    153
0.500002861022912,-15.5,-12.,0.500002861022912,-15.5,-12.,           141P    154
-0.999997138977089,-3.14159265358979,3.14159265358979,0.,0.,0.;      141P    155
126,1,1,0,0,1,0,-3.33333333333333,-3.33333333333333,0.,0.,1.,1.,     143P    156
-15.5,-12.,-0.999997138977089,-15.5,-17.,-0.999997138977089,         143P    157
-3.33333333333333,0.,0.,0.,0.;                                       143P    158
126,8,2,0,1,0,0,-3.14159265358979,-3.14159265358979,                 145P    159
-3.14159265358979,-1.5707963267949,-1.5707963267949,0.,0.,           145P    160
1.5707963267949,1.5707963267949,3.14159265358979,                    145P    161
3.14159265358979,3.14159265358979,1.,0.707106781186546,1.,           145P    162
0.707106781186545,1.,0.707106781186546,1.,0.707106781186546,1.,      145P    163
-15.5,-17.,-0.999997138977089,-15.5,-17.,-2.49999713897709,-14.,     145P    164
-17.,-2.49999713897709,-12.5,-17.,-2.49999713897709,-12.5,-17.,      145P    165
-0.999997138977089,-12.5,-17.,0.500002861022912,-14.,-17.,           145P    166
0.500002861022912,-15.5,-17.,0.500002861022912,-15.5,-17.,           145P    167
-0.999997138977089,-3.14159265358979,3.14159265358979,0.,0.,0.;      145P    168
126,1,1,0,0,1,0,0.2,0.2,0.6,0.6,1.,1.,-14.,-12.,                     147P    169
8.00000286102291,-14.,-12.,4.00000286102291,0.2,0.6,0.,0.,0.;        147P    170
126,1,1,0,0,1,0,0.,0.,0.5,0.5,1.,1.,-14.,-12.,4.00000286102291,      149P    171
-14.,-17.,4.00000286102291,0.,0.5,0.,0.,0.;                          149P    172
126,1,1,0,0,1,0,0.2,0.2,0.6,0.6,1.,1.,-14.,-17.,                     151P    173
8.00000286102291,-14.,-17.,4.00000286102291,0.2,0.6,0.,0.,0.;        151P    174
126,1,1,0,0,1,0,0.,0.,0.5,0.5,1.,1.,-14.,-12.,8.00000286102291,      153P    175
-14.,-17.,8.00000286102291,0.,0.5,0.,0.,0.;                          153P    176
126,1,1,0,0,1,0,0.,0.,2.8,2.8,1.,1.,14.,-12.,8.00000286102291,       155P    177
-14.,-12.,8.00000286102291,0.,2.8,0.,0.,0.;                          155P    178
126,1,1,0,0,1,0,0.,0.,2.8,2.8,1.,1.,14.,-17.,8.00000286102291,       157P    179
-14.,-17.,8.00000286102291,0.,2.8,0.,0.,0.;                          157P    180
126,1,1,0,0,1,0,0.,0.,0.5,0.5,1.,1.,14.,-12.,8.00000286102291,       159P    181
14.,-17.,8.00000286102291,0.,0.5,0.,0.,0.;                           159P    182
126,1,1,0,0,1,0,0.,0.,0.4,0.4,1.,1.,14.,-12.,4.00000286102291,       161P    183
14.,-12.,8.00000286102291,0.,0.4,0.,0.,0.;                           161P    184
126,1,1,0,0,1,0,0.,0.,0.4,0.4,1.,1.,14.,-17.,4.00000286102291,       163P    185
14.,-17.,8.00000286102291,0.,0.4,0.,0.,0.;                           163P    186
126,1,1,0,0,1,0,0.,0.,0.5,0.5,1.,1.,14.,-12.,4.00000286102291,       165P    187
14.,-17.,4.00000286102291,0.,0.5,0.,0.,0.;                           165P    188
126,4,2,0,0,0,0,0.,0.,0.,1.5707963267949,1.5707963267949,            167P    189
3.14159265358979,3.14159265358979,3.14159265358979,1.,               167P    190
0.707106781186547,1.,0.707106781186547,1.,14.,-12.,                  167P    191
-5.99999713897709,19.,-12.,-5.99999713897709,19.,-12.,               167P    192
-0.999997138977089,19.,-12.,4.00000286102291,14.,-12.,               167P    193
4.00000286102291,0.,3.14159265358979,0.,0.,0.;                       167P    194
126,4,2,0,0,0,0,0.,0.,0.,1.5707963267949,1.5707963267949,            169P    195
3.14159265358979,3.14159265358979,3.14159265358979,1.,               169P    196
0.707106781186547,1.,0.707106781186547,1.,14.,-17.,                  169P    197
-5.99999713897709,19.,-17.,-5.99999713897709,19.,-17.,               169P    198
-0.999997138977089,19.,-17.,4.00000286102291,14.,-17.,               169P    199
4.00000286102291,0.,3.14159265358979,0.,0.,0.;                       169P    200
126,1,1,0,0,1,0,0.,0.,0.5,0.5,1.,1.,14.,-12.,-5.99999713897709,      171P    201
14.,-17.,-5.99999713897709,0.,0.5,0.,0.,0.;                          171P    202
126,1,1,0,0,1,0,0.,0.,0.0999999999999992,0.0999999999999992,1.,      173P    203
1.,14.,-12.,-6.99999713897708,14.,-12.,-5.99999713897709,0.,         173P    204
0.0999999999999992,0.,0.,0.;                                         173P    205
126,1,1,0,0,1,0,0.,0.,0.0999999999999992,0.0999999999999992,1.,      175P    206
1.,14.,-17.,-6.99999713897708,14.,-17.,-5.99999713897709,0.,         175P    207
0.0999999999999992,0.,0.,0.;                                         175P    208
126,1,1,0,0,1,0,0.,0.,0.5,0.5,1.,1.,14.,-12.,-6.99999713897708,      177P    209
14.,-17.,-6.99999713897708,0.,0.5,0.,0.,0.;                          177P    210
126,2,2,0,0,0,0,0.,0.,0.,1.5707963267949,1.5707963267949,            179P    211
1.5707963267949,1.,0.707106781186547,1.,9.,-12.,                     179P    212
-11.9999971389771,14.,-12.,-11.9999971389771,14.,-12.,               179P    213
-6.99999713897708,0.,1.5707963267949,0.,0.,0.;                       179P    214
126,2,2,0,0,0,0,0.,0.,0.,1.5707963267949,1.5707963267949,            181P    215
1.5707963267949,1.,0.707106781186547,1.,9.,-17.,                     181P    216
-11.9999971389771,14.,-17.,-11.9999971389771,14.,-17.,               181P    217
-6.99999713897708,0.,1.5707963267949,0.,0.,0.;                       181P    218
126,1,1,0,0,1,0,0.,0.,0.5,0.5,1.,1.,9.,-12.,-11.9999971389771,       183P    219
9.,-17.,-11.9999971389771,0.,0.5,0.,0.,0.;                           183P    220
126,1,1,0,0,1,0,0.,0.,1.8,1.8,1.,1.,-9.00000000000003,-12.,          185P    221
-11.9999971389771,9.,-12.,-11.9999971389771,0.,1.8,0.,0.,0.;         185P    222
126,1,1,0,0,1,0,0.,0.,1.8,1.8,1.,1.,-9.00000000000003,-17.,          187P    223
-11.9999971389771,9.,-17.,-11.9999971389771,0.,1.8,0.,0.,0.;         187P    224
126,1,1,0,0,1,0,0.,0.,0.5,0.5,1.,1.,-9.00000000000003,-12.,          189P    225
-11.9999971389771,-9.00000000000003,-17.,-11.9999971389771,0.,       189P    226
0.5,0.,0.,0.;                                                        189P    227
126,2,2,0,0,0,0,0.,0.,0.,1.5707963267949,1.5707963267949,            191P    228
1.5707963267949,1.,0.707106781186547,1.,-14.,-12.,                   191P    229
-6.99999713897709,-14.,-12.,-11.9999971389771,-9.00000000000003,     191P    230
-12.,-11.9999971389771,0.,1.5707963267949,0.,0.,0.;                  191P    231
126,2,2,0,0,0,0,0.,0.,0.,1.5707963267949,1.5707963267949,            193P    232
1.5707963267949,1.,0.707106781186547,1.,-14.,-17.,                   193P    233
-6.99999713897709,-14.,-17.,-11.9999971389771,-9.00000000000003,     193P    234
-17.,-11.9999971389771,0.,1.5707963267949,0.,0.,0.;                  193P    235
126,1,1,0,0,1,0,0.,0.,0.5,0.5,1.,1.,-14.,-12.,-6.99999713897709,     195P    236
-14.,-17.,-6.99999713897709,0.,0.5,0.,0.,0.;                         195P    237
126,1,1,0,0,1,0,0.,0.,0.1,0.1,1.,1.,-14.,-12.,-5.99999713897709,     197P    238
-14.,-12.,-6.99999713897709,0.,0.1,0.,0.,0.;                         197P    239
126,1,1,0,0,1,0,0.,0.,0.1,0.1,1.,1.,-14.,-17.,-5.99999713897709,     199P    240
-14.,-17.,-6.99999713897709,0.,0.1,0.,0.,0.;                         199P    241
126,1,1,0,0,1,0,0.,0.,0.5,0.5,1.,1.,-14.,-12.,-5.99999713897709,     201P    242
-14.,-17.,-5.99999713897709,0.,0.5,0.,0.,0.;                         201P    243
126,4,2,0,0,0,0,0.,0.,0.,1.5707963267949,1.5707963267949,            203P    244
3.14159265358979,3.14159265358979,3.14159265358979,1.,               203P    245
0.707106781186547,1.,0.707106781186547,1.,-14.,-12.,                 203P    246
4.00000286102291,-19.,-12.,4.00000286102291,-19.,-12.,               203P    247
-0.999997138977089,-19.,-12.,-5.99999713897709,-14.,-12.,            203P    248
-5.99999713897709,0.,3.14159265358979,0.,0.,0.;                      203P    249
126,4,2,0,0,0,0,0.,0.,0.,1.5707963267949,1.5707963267949,            205P    250
3.14159265358979,3.14159265358979,3.14159265358979,1.,               205P    251
0.707106781186547,1.,0.707106781186547,1.,-14.,-17.,                 205P    252
4.00000286102291,-19.,-17.,4.00000286102291,-19.,-17.,               205P    253
-0.999997138977089,-19.,-17.,-5.99999713897709,-14.,-17.,            205P    254
-5.99999713897709,0.,3.14159265358979,0.,0.,0.;                      205P    255
128,1,1,1,1,0,0,1,0,0,-0.601128403481577,-0.601128403481577,         207P    256
0.801128403481577,0.801128403481577,-0.808287210943624,              207P    257
-0.808287210943624,0.808287210943626,0.808287210943626,1.,1.,1.,     207P    258
1.,-8.08287210943627,-14.,-8.01128117379286,-8.08287210943627,       207P    259
-14.,6.01128689583868,8.08287210943623,-14.,-8.01128117379286,       207P    260
8.08287210943623,-14.,6.01128689583868,-0.601128403481577,           207P    261
0.801128403481577,-0.808287210943624,0.808287210943626;              207P    262
128,1,1,1,1,0,0,1,0,0,-1.66533453693773D-16,                         209P    263
-1.66533453693773D-16,0.808290376865476,0.808290376865476,0.2,       209P    264
0.2,0.4,0.4,1.,1.,1.,1.,-8.08287210943627,-12.,                      209P    265
-1.02262004398361,-4.06102806516119,-12.,5.98866399083215,           209P    266
-8.08287210943627,-14.,-1.02262004398361,-4.06102806516119,-14.,     209P    267
5.98866399083215,-1.66533453693773D-16,0.808290376865476,0.2,        209P    268
0.4;                                                                 209P    269
128,1,1,1,1,0,0,1,0,0,-5.55111512312578D-17,                         211P    270
-5.55111512312578D-17,0.808290376865476,0.808290376865476,0.2,       211P    271
0.2,0.4,0.4,1.,1.,1.,1.,-4.02184404427509,-12.,                      211P    272
-8.01128117379286,-8.08287210943627,-12.,-1.02262004398361,          211P    273
-4.02184404427509,-14.,-8.01128117379286,-8.08287210943627,-14.,     211P    274
-1.02262004398361,-5.55111512312578D-17,0.808290376865476,0.2,       211P    275
0.4;                                                                 211P    276
128,1,1,1,1,0,0,1,0,0,-5.55109338044868D-17,                         213P    277
-5.55109338044868D-17,0.808290376865476,0.808290376865476,0.2,       213P    278
0.2,0.4,0.4,1.,1.,1.,1.,4.06102806516116,-12.,-7.98865826878633,     213P    279
-4.02184404427509,-12.,-8.01128117379286,4.06102806516116,-14.,      213P    280
-7.98865826878633,-4.02184404427509,-14.,-8.01128117379286,          213P    281
-5.55109338044868D-17,0.808290376865476,0.2,0.4;                     213P    282
128,1,1,1,1,0,0,1,0,0,-4.79961949300085D-17,                         215P    283
-4.79961949300085D-17,0.808290376865476,0.808290376865476,0.2,       215P    284
0.2,0.4,0.4,1.,1.,1.,1.,4.02184404427506,-12.,6.01128689583868,      215P    285
8.08287210943623,-12.,-0.977374233970569,4.02184404427506,-14.,      215P    286
6.01128689583868,8.08287210943623,-14.,-0.977374233970569,           215P    287
-4.79961949300085D-17,0.808290376865476,0.2,0.4;                     215P    288
128,1,1,1,1,0,0,1,0,0,-5.55111512312578D-17,                         217P    289
-5.55111512312578D-17,0.808290376865476,0.808290376865476,0.2,       217P    290
0.2,0.4,0.4,1.,1.,1.,1.,8.08287210943623,-12.,                       217P    291
-0.977374233970568,4.06102806516116,-12.,-7.98865826878633,          217P    292
8.08287210943623,-14.,-0.977374233970568,4.06102806516116,-14.,      217P    293
-7.98865826878633,-5.55111512312578D-17,0.808290376865476,0.2,       217P    294
0.4;                                                                 217P    295
128,1,1,1,1,0,0,1,0,0,-5.55111512312578D-17,                         219P    296
-5.55111512312578D-17,0.808290376865477,0.808290376865477,0.2,       219P    297
0.2,0.4,0.4,1.,1.,1.,1.,-4.0610280651612,-12.,5.98866399083215,      219P    298
4.02184404427506,-12.,6.01128689583868,-4.0610280651612,-14.,        219P    299
5.98866399083215,4.02184404427506,-14.,6.01128689583868,             219P    300
-5.55111512312578D-17,0.808290376865477,0.2,0.4;                     219P    301
128,1,8,1,2,0,1,0,0,1,0.,0.,3.33333333333333,3.33333333333333,       221P    302
-3.14159265358979,-3.14159265358979,-3.14159265358979,               221P    303
-1.5707963267949,-1.5707963267949,0.,0.,1.5707963267949,             221P    304
1.5707963267949,3.14159265358979,3.14159265358979,                   221P    305
3.14159265358979,1.,1.,0.707106781186548,0.707106781186548,1.,       221P    306
1.,0.707106781186548,0.707106781186548,1.,1.,0.707106781186548,      221P    307
0.707106781186548,1.,1.,0.707106781186548,0.707106781186548,1.,      221P    308
1.,12.5,-17.,-0.999997138977089,12.5,-12.,-0.999997138977089,        221P    309
12.5,-17.,0.500002861022912,12.5,-12.,0.500002861022912,14.,         221P    310
-17.,0.500002861022912,14.,-12.,0.500002861022912,15.5,-17.,         221P    311
0.500002861022912,15.5,-12.,0.500002861022912,15.5,-17.,             221P    312
-0.999997138977089,15.5,-12.,-0.999997138977089,15.5,-17.,           221P    313
-2.49999713897709,15.5,-12.,-2.49999713897709,14.,-17.,              221P    314
-2.49999713897709,14.,-12.,-2.49999713897709,12.5,-17.,              221P    315
-2.49999713897709,12.5,-12.,-2.49999713897709,12.5,-17.,             221P    316
-0.999997138977089,12.5,-12.,-0.999997138977089,0.,                  221P    317
3.33333333333333,-3.14159265358979,3.14159265358979;                 221P    318
128,1,8,1,2,0,1,0,0,1,0.,0.,3.33333333333333,3.33333333333333,       223P    319
-3.14159265358979,-3.14159265358979,-3.14159265358979,               223P    320
-1.5707963267949,-1.5707963267949,0.,0.,1.5707963267949,             223P    321
1.5707963267949,3.14159265358979,3.14159265358979,                   223P    322
3.14159265358979,1.,1.,0.707106781186548,0.707106781186548,1.,       223P    323
1.,0.707106781186548,0.707106781186548,1.,1.,0.707106781186548,      223P    324
0.707106781186548,1.,1.,0.707106781186548,0.707106781186548,1.,      223P    325
1.,-15.5,-17.,-0.999997138977089,-15.5,-12.,-0.999997138977089,      223P    326
-15.5,-17.,0.500002861022912,-15.5,-12.,0.500002861022912,-14.,      223P    327
-17.,0.500002861022912,-14.,-12.,0.500002861022912,-12.5,-17.,       223P    328
0.500002861022912,-12.5,-12.,0.500002861022912,-12.5,-17.,           223P    329
-0.999997138977089,-12.5,-12.,-0.999997138977089,-12.5,-17.,         223P    330
-2.49999713897709,-12.5,-12.,-2.49999713897709,-14.,-17.,            223P    331
-2.49999713897709,-14.,-12.,-2.49999713897709,-15.5,-17.,            223P    332
-2.49999713897709,-15.5,-12.,-2.49999713897709,-15.5,-17.,           223P    333
-0.999997138977089,-15.5,-12.,-0.999997138977089,0.,                 223P    334
3.33333333333333,-3.14159265358979,3.14159265358979;                 223P    335
128,1,1,1,1,0,0,1,0,0,0.,0.,0.4,0.4,0.,0.,0.5,0.5,1.,1.,1.,1.,       225P    336
-14.,-12.,8.00000286102291,-14.,-12.,4.00000286102291,-14.,-17.,     225P    337
8.00000286102291,-14.,-17.,4.00000286102291,0.,0.4,0.,0.5;           225P    338
128,1,1,1,1,0,0,1,0,0,0.,0.,2.8,2.8,0.,0.,0.5,0.5,1.,1.,1.,1.,       227P    339
14.,-12.,8.00000286102291,-14.,-12.,8.00000286102291,14.,-17.,       227P    340
8.00000286102291,-14.,-17.,8.00000286102291,0.,2.8,0.,0.5;           227P    341
128,1,1,1,1,0,0,1,0,0,0.,0.,0.4,0.4,0.,0.,0.5,0.5,1.,1.,1.,1.,       229P    342
14.,-12.,4.00000286102291,14.,-12.,8.00000286102291,14.,-17.,        229P    343
4.00000286102291,14.,-17.,8.00000286102291,0.,0.4,0.,0.5;            229P    344
128,1,4,1,2,0,0,0,0,0,0.,0.,1.,1.,0.,0.,0.,1.5707963267949,          231P    345
1.5707963267949,3.14159265358979,3.14159265358979,                   231P    346
3.14159265358979,1.,1.,0.707106781186548,0.707106781186548,1.,       231P    347
1.,0.707106781186548,0.707106781186548,1.,1.,14.,-17.,               231P    348
-5.99999713897709,14.,-12.,-5.99999713897709,19.,-17.,               231P    349
-5.99999713897709,19.,-12.,-5.99999713897709,19.,-17.,               231P    350
-0.999997138977089,19.,-12.,-0.999997138977089,19.,-17.,             231P    351
4.00000286102291,19.,-12.,4.00000286102291,14.,-17.,                 231P    352
4.00000286102291,14.,-12.,4.00000286102291,0.,1.,0.,                 231P    353
3.14159265358979;                                                    231P    354
128,1,1,1,1,0,0,1,0,0,0.,0.,0.0999999999999992,                      233P    355
0.0999999999999992,0.,0.,0.5,0.5,1.,1.,1.,1.,14.,-12.,               233P    356
-6.99999713897708,14.,-12.,-5.99999713897709,14.,-17.,               233P    357
-6.99999713897708,14.,-17.,-5.99999713897709,0.,                     233P    358
0.0999999999999992,0.,0.5;                                           233P    359
128,1,2,1,2,0,0,0,0,0,0.,0.,1.,1.,-2.22044604925031D-16,             235P    360
-2.22044604925031D-16,-2.22044604925031D-16,1.5707963267949,         235P    361
1.5707963267949,1.5707963267949,1.,1.,0.707106781186547,             235P    362
0.707106781186547,1.,1.,9.,-17.,-11.9999971389771,9.,-12.,           235P    363
-11.9999971389771,14.,-17.,-11.9999971389771,14.,-12.,               235P    364
-11.9999971389771,14.,-17.,-6.99999713897709,14.,-12.,               235P    365
-6.99999713897709,0.,1.,-2.22044604925031D-16,1.5707963267949;       235P    366
128,1,1,1,1,0,0,1,0,0,0.,0.,1.8,1.8,0.,0.,0.5,0.5,1.,1.,1.,1.,       237P    367
-9.00000000000003,-12.,-11.9999971389771,9.,-12.,                    237P    368
-11.9999971389771,-9.00000000000003,-17.,-11.9999971389771,9.,       237P    369
-17.,-11.9999971389771,0.,1.8,0.,0.5;                                237P    370
128,1,2,1,2,0,0,0,0,0,0.,0.,1.,1.,0.,0.,0.,1.5707963267949,          239P    371
1.5707963267949,1.5707963267949,1.,1.,0.707106781186547,             239P    372
0.707106781186547,1.,1.,-14.,-17.,-6.99999713897709,-14.,-12.,       239P    373
-6.99999713897709,-14.,-17.,-11.9999971389771,-14.,-12.,             239P    374
-11.9999971389771,-9.00000000000003,-17.,-11.9999971389771,          239P    375
-9.00000000000003,-12.,-11.9999971389771,0.,1.,0.,                   239P    376
1.5707963267949;                                                     239P    377
128,1,1,1,1,0,0,1,0,0,0.,0.,0.1,0.1,0.,0.,0.5,0.5,1.,1.,1.,1.,       241P    378
-14.,-12.,-5.99999713897709,-14.,-12.,-6.99999713897709,-14.,        241P    379
-17.,-5.99999713897709,-14.,-17.,-6.99999713897709,0.,0.1,0.,        241P    380
0.5;                                                                 241P    381
128,1,4,1,2,0,0,0,0,0,0.,0.,1.,1.,0.,0.,0.,1.5707963267949,          243P    382
1.5707963267949,3.14159265358979,3.14159265358979,                   243P    383
3.14159265358979,1.,1.,0.707106781186548,0.707106781186548,1.,       243P    384
1.,0.707106781186548,0.707106781186548,1.,1.,-14.,-17.,              243P    385
4.00000286102291,-14.,-12.,4.00000286102291,-19.,-17.,               243P    386
4.00000286102291,-19.,-12.,4.00000286102291,-19.,-17.,               243P    387
-0.999997138977089,-19.,-12.,-0.999997138977089,-19.,-17.,           243P    388
-5.99999713897709,-19.,-12.,-5.99999713897709,-14.,-17.,             243P    389
-5.99999713897709,-14.,-12.,-5.99999713897709,0.,1.,0.,              243P    390
3.14159265358979;                                                    243P    391
128,1,1,1,1,0,0,1,0,0,-1.9,-1.9,1.9,1.9,-1.1,-1.1,0.9,0.9,1.,1.,     245P    392
1.,1.,-19.,-17.,-11.9999971389771,19.,-17.,-11.9999971389771,        245P    393
-19.,-17.,8.00000286102291,19.,-17.,8.00000286102291,-1.9,1.9,       245P    394
-1.1,0.9;                                                            245P    395
128,1,1,1,1,0,0,1,0,0,-1.9,-1.9,1.9,1.9,-1.1,-1.1,0.9,0.9,1.,1.,     247P    396
1.,1.,19.,-12.,-11.9999971389771,-19.,-12.,-11.9999971389771,        247P    397
19.,-12.,8.00000286102291,-19.,-12.,8.00000286102291,-1.9,1.9,       247P    398
-1.1,0.9;                                                            247P    399
502,36,4.06102806516116,-14.,-7.98865826878633,8.08287210943623,     249P    400
-14.,-0.977374233970568,-4.02184404427509,-14.,                      249P    401
-8.01128117379286,-8.08287210943627,-14.,-1.02262004398361,          249P    402
-4.06102806516119,-14.,5.98866399083215,4.02184404427506,-14.,       249P    403
6.01128689583868,-8.08287210943627,-12.,-1.02262004398361,           249P    404
-4.06102806516119,-12.,5.98866399083215,-4.02184404427509,-12.,      249P    405
-8.01128117379286,4.06102806516116,-12.,-7.98865826878633,           249P    406
4.02184404427506,-12.,6.01128689583868,8.08287210943623,-12.,        249P    407
-0.977374233970568,12.5,-12.,-0.999997138977089,12.5,-17.,           249P    408
-0.999997138977089,-15.5,-12.,-0.999997138977089,-15.5,-17.,         249P    409
-0.999997138977089,-14.,-12.,8.00000286102291,-14.,-12.,             249P    410
4.00000286102291,-14.,-17.,4.00000286102291,-14.,-17.,               249P    411
8.00000286102291,14.,-12.,8.00000286102291,14.,-17.,                 249P    412
8.00000286102291,14.,-12.,4.00000286102291,14.,-17.,                 249P    413
4.00000286102291,14.,-12.,-5.99999713897709,14.,-17.,                249P    414
-5.99999713897709,14.,-12.,-6.99999713897708,14.,-17.,               249P    415
-6.99999713897708,9.,-12.,-11.9999971389771,9.,-17.,                 249P    416
-11.9999971389771,-9.00000000000003,-12.,-11.9999971389771,          249P    417
-9.00000000000003,-17.,-11.9999971389771,-14.,-12.,                  249P    418
-6.99999713897709,-14.,-17.,-6.99999713897709,-14.,-12.,             249P    419
-5.99999713897709,-14.,-17.,-5.99999713897709;                       249P    420
504,54,99,249,1,249,2,101,249,3,249,1,103,249,4,249,3,105,249,5,     251P    421
249,4,107,249,6,249,5,109,249,2,249,6,111,249,7,249,4,113,249,8,     251P    422
249,7,115,249,8,249,5,117,249,9,249,3,119,249,7,249,9,121,249,       251P    423
10,249,1,123,249,9,249,10,125,249,11,249,6,127,249,12,249,11,        251P    424
129,249,12,249,2,131,249,10,249,12,133,249,11,249,8,135,249,13,      251P    425
249,13,137,249,13,249,14,139,249,14,249,14,141,249,15,249,15,        251P    426
143,249,15,249,16,145,249,16,249,16,147,249,17,249,18,149,249,       251P    427
18,249,19,151,249,20,249,19,153,249,17,249,20,155,249,21,249,17,     251P    428
157,249,22,249,20,159,249,21,249,22,161,249,23,249,21,163,249,       251P    429
24,249,22,165,249,23,249,24,167,249,25,249,23,169,249,26,249,24,     251P    430
171,249,25,249,26,173,249,27,249,25,175,249,28,249,26,177,249,       251P    431
27,249,28,179,249,29,249,27,181,249,30,249,28,183,249,29,249,30,     251P    432
185,249,31,249,29,187,249,32,249,30,189,249,31,249,32,191,249,       251P    433
33,249,31,193,249,34,249,32,195,249,33,249,34,197,249,35,249,33,     251P    434
199,249,36,249,34,201,249,35,249,36,203,249,18,249,35,205,249,       251P    435
19,249,36;                                                           251P    436
406,1,5HBody1;                                                       253P    437
314,62.7450980392157,62.7450980392157,62.7450980392157,13HSteel      255P    438
- Satin;                                                             255P    439
S      1G      3D    256P    439                                        T      1
