                                                                        S      1
,,11HZ-Axis-Shim,11HZ-Axis-Shim,7Hunknown,7Hunknown,32,38,7,99,15,,1.,2,G      1
2HMM,1,0.08,15H20150719.183113,0.01,10000.,7Hunknown,7Hunknown,11,0,;   G      2
     186       1                                                00000000D      1
     186            -151       1       0                               0D      2
     514       2                                                00010000D      3
     514                       1       1                               0D      4
     510       3                                                00010000D      5
     510            -151       1       1                               0D      6
     510       4                                                00010000D      7
     510            -151       1       1                               0D      8
     510       5                                                00010000D      9
     510            -151       1       1                               0D     10
     510       6                                                00010000D     11
     510            -151       1       1                               0D     12
     510       7                                                00010000D     13
     510            -151       1       1                               0D     14
     510       8                                                00010000D     15
     510            -151       1       1                               0D     16
     510       9                                                00010000D     17
     510            -151       1       1                               0D     18
     510      10                                                00010000D     19
     510            -151       1       1                               0D     20
     510      11                                                00010000D     21
     510            -151       1       1                               0D     22
     510      12                                                00010000D     23
     510            -151       1       1                               0D     24
     510      13                                                00010000D     25
     510            -151       1       1                               0D     26
     510      14                                                00010000D     27
     510            -151       1       1                               0D     28
     508      15                                                00010000D     29
     508                       1       1                               0D     30
     508      16                                                00010000D     31
     508                       1       1                               0D     32
     508      17                                                00010000D     33
     508                       1       1                               0D     34
     508      18                                                00010000D     35
     508                       1       1                               0D     36
     508      19                                                00010000D     37
     508                       1       1                               0D     38
     508      20                                                00010000D     39
     508                       1       1                               0D     40
     508      21                                                00010000D     41
     508                       1       1                               0D     42
     508      22                                                00010000D     43
     508                       1       1                               0D     44
     508      23                                                00010000D     45
     508                       1       1                               0D     46
     508      24                                                00010000D     47
     508                       1       1                               0D     48
     508      25                                                00010000D     49
     508                       2       1                               0D     50
     508      27                                                00010000D     51
     508                       1       1                               0D     52
     508      28                                                00010000D     53
     508                       1       1                               0D     54
     508      29                                                00010000D     55
     508                       2       1                               0D     56
     508      31                                                00010000D     57
     508                       1       1                               0D     58
     508      32                                                00010000D     59
     508                       1       1                               0D     60
     126      33                                                00010000D     61
     126       0              15       0                               0D     62
     126      48                                                00010000D     63
     126       0               4       0                               0D     64
     126      52                                                00010000D     65
     126       0              15       0                               0D     66
     126      67                                                00010000D     67
     126       0              15       0                               0D     68
     126      82                                                00010000D     69
     126       0               4       0                               0D     70
     126      86                                                00010000D     71
     126       0              15       0                               0D     72
     126     101                                                00010000D     73
     126       0               4       0                               0D     74
     126     105                                                00010000D     75
     126       0               3       0                               0D     76
     126     108                                                00010000D     77
     126       0               4       0                               0D     78
     126     112                                                00010000D     79
     126       0               3       0                               0D     80
     126     115                                                00010000D     81
     126       0               4       0                               0D     82
     126     119                                                00010000D     83
     126       0               4       0                               0D     84
     126     123                                                00010000D     85
     126       0               3       0                               0D     86
     126     126                                                00010000D     87
     126       0               3       0                               0D     88
     126     129                                                00010000D     89
     126       0               3       0                               0D     90
     126     132                                                00010000D     91
     126       0               3       0                               0D     92
     126     135                                                00010000D     93
     126       0               4       0                               0D     94
     126     139                                                00010000D     95
     126       0               4       0                               0D     96
     126     143                                                00010000D     97
     126       0               3       0                               0D     98
     126     146                                                00010000D     99
     126       0               3       0                               0D    100
     126     149                                                00010000D    101
     126       0               3       0                               0D    102
     126     152                                                00010000D    103
     126       0               3       0                               0D    104
     126     155                                                00010000D    105
     126       0               4       0                               0D    106
     126     159                                                00010000D    107
     126       0               4       0                               0D    108
     126     163                                                00010000D    109
     126       0               3       0                               0D    110
     126     166                                                00010000D    111
     126       0               3       0                               0D    112
     126     169                                                00010000D    113
     126       0               3       0                               0D    114
     126     172                                                00010000D    115
     126       0               3       0                               0D    116
     126     175                                                00010000D    117
     126       0               3       0                               0D    118
     126     178                                                00010000D    119
     126       0               3       0                               0D    120
     128     181                                                00010000D    121
     128       0    -151      27       0                               0D    122
     128     208                                                00010000D    123
     128       0    -151      27       0                               0D    124
     128     235                                                00010000D    125
     128       0    -151       7       0                               0D    126
     128     242                                                00010000D    127
     128       0    -151       9       0                               0D    128
     128     251                                                00010000D    129
     128       0    -151       9       0                               0D    130
     128     260                                                00010000D    131
     128       0    -151       9       0                               0D    132
     128     269                                                00010000D    133
     128       0    -151       7       0                               0D    134
     128     276                                                00010000D    135
     128       0    -151       8       0                               0D    136
     128     284                                                00010000D    137
     128       0    -151       7       0                               0D    138
     128     291                                                00010000D    139
     128       0    -151       8       0                               0D    140
     128     299                                                00010000D    141
     128       0    -151       7       0                               0D    142
     128     306                                                00010000D    143
     128       0    -151       7       0                               0D    144
     502     313                                                00010000D    145
     502                      20       1                               0D    146
     504     333                                                00010001D    147
     504                       8       1                               0D    148
     406     341                                                00000000D    149
     406                       1      15                               0D    150
     314     342                                                00000200D    151
     314                       2       0                               0D    152
186,3,1,0,0,1,149;                                                     1P      1
514,12,5,1,7,1,9,1,11,1,13,1,15,1,17,1,19,1,21,1,23,1,25,1,27,1;       3P      2
510,121,1,1,29;                                                        5P      3
510,123,1,1,31;                                                        7P      4
510,125,1,1,33;                                                        9P      5
510,127,1,1,35;                                                       11P      6
510,129,1,1,37;                                                       13P      7
510,131,1,1,39;                                                       15P      8
510,133,1,1,41;                                                       17P      9
510,135,1,1,43;                                                       19P     10
510,137,1,1,45;                                                       21P     11
510,139,1,1,47;                                                       23P     12
510,141,3,1,49,51,53;                                                 25P     13
510,143,3,1,55,57,59;                                                 27P     14
508,4,0,147,1,0,0,0,147,2,1,0,0,147,3,1,0,0,147,2,0,0;                29P     15
508,4,0,147,4,0,0,0,147,5,1,0,0,147,6,1,0,0,147,5,0,0;                31P     16
508,4,0,147,7,1,0,0,147,8,1,0,0,147,9,0,0,0,147,10,0,0;               33P     17
508,4,0,147,11,1,0,0,147,10,1,0,0,147,12,0,0,0,147,13,0,0;            35P     18
508,4,0,147,14,1,0,0,147,13,1,0,0,147,15,0,0,0,147,16,0,0;            37P     19
508,4,0,147,17,1,0,0,147,16,1,0,0,147,18,0,0,0,147,19,0,0;            39P     20
508,4,0,147,20,1,0,0,147,19,1,0,0,147,21,0,0,0,147,22,0,0;            41P     21
508,4,0,147,23,1,0,0,147,22,1,0,0,147,24,0,0,0,147,25,0,0;            43P     22
508,4,0,147,26,1,0,0,147,25,1,0,0,147,27,0,0,0,147,28,0,0;            45P     23
508,4,0,147,29,1,0,0,147,28,1,0,0,147,30,0,0,0,147,8,0,0;             47P     24
508,8,0,147,30,1,0,0,147,27,1,0,0,147,24,1,0,0,147,21,1,0,0,147,      49P     25
18,1,0,0,147,15,1,0,0,147,12,1,0,0,147,9,1,0;                         49P     26
508,1,0,147,4,1,0;                                                    51P     27
508,1,0,147,1,1,0;                                                    53P     28
508,8,0,147,29,0,0,0,147,7,0,0,0,147,11,0,0,0,147,14,0,0,0,147,       55P     29
17,0,0,0,147,20,0,0,0,147,23,0,0,0,147,26,0,0;                        55P     30
508,1,0,147,6,0,0;                                                    57P     31
508,1,0,147,3,0,0;                                                    59P     32
126,8,2,0,1,0,0,-3.14159265358979,-3.14159265358979,                  61P     33
-3.14159265358979,-1.5707963267949,-1.5707963267949,0.,0.,            61P     34
1.5707963267949,1.5707963267949,3.14159265358979,                     61P     35
3.14159265358979,3.14159265358979,1.,0.707106781186548,1.,            61P     36
0.707106781186548,1.,0.707106781186548,1.,0.707106781186548,1.,       61P     37
64.1500000357625,0.968566789963301,33.4870668516938,                  61P     38
64.1500000357625,2.9685667899633,33.4870668516938,                    61P     39
64.1500000357625,2.9685667899633,31.4870668516938,                    61P     40
64.1500000357625,2.9685667899633,29.4870668516938,                    61P     41
64.1500000357625,0.968566789963301,29.4870668516938,                  61P     42
64.1500000357625,-1.0314332100367,29.4870668516938,                   61P     43
64.1500000357625,-1.0314332100367,31.4870668516938,                   61P     44
64.1500000357625,-1.0314332100367,33.4870668516938,                   61P     45
64.1500000357625,0.968566789963301,33.4870668516938,                  61P     46
-3.14159265358979,3.14159265358979,0.,0.,0.;                          61P     47
126,1,1,0,0,1,0,-1.5,-1.5,8.05672765243488D-17,                       63P     48
8.05672765243488D-17,1.,1.,64.1500000357625,0.968566789963301,        63P     49
33.4870668516938,61.1500000357625,0.968566789963301,                  63P     50
33.4870668516938,-1.5,8.05672765243488D-17,0.,0.,0.;                  63P     51
126,8,2,0,1,0,0,-3.14159265358979,-3.14159265358979,                  65P     52
-3.14159265358979,-1.5707963267949,-1.5707963267949,0.,0.,            65P     53
1.5707963267949,1.5707963267949,3.14159265358979,                     65P     54
3.14159265358979,3.14159265358979,1.,0.707106781186548,1.,            65P     55
0.707106781186548,1.,0.707106781186548,1.,0.707106781186548,1.,       65P     56
61.1500000357625,0.968566789963301,33.4870668516938,                  65P     57
61.1500000357625,2.9685667899633,33.4870668516938,                    65P     58
61.1500000357625,2.9685667899633,31.4870668516938,                    65P     59
61.1500000357625,2.9685667899633,29.4870668516938,                    65P     60
61.1500000357625,0.968566789963301,29.4870668516938,                  65P     61
61.1500000357625,-1.0314332100367,29.4870668516938,                   65P     62
61.1500000357625,-1.0314332100367,31.4870668516938,                   65P     63
61.1500000357625,-1.0314332100367,33.4870668516938,                   65P     64
61.1500000357625,0.968566789963301,33.4870668516938,                  65P     65
-3.14159265358979,3.14159265358979,0.,0.,0.;                          65P     66
126,8,2,0,1,0,0,-3.14159265358979,-3.14159265358979,                  67P     67
-3.14159265358979,-1.5707963267949,-1.5707963267949,0.,0.,            67P     68
1.5707963267949,1.5707963267949,3.14159265358979,                     67P     69
3.14159265358979,3.14159265358979,1.,0.707106781186547,1.,            67P     70
0.707106781186547,1.,0.707106781186547,1.,0.707106781186547,1.,       67P     71
64.1500000357625,0.968566789965539,-8.51293314830621,                 67P     72
64.1500000357625,2.96856678996554,-8.51293314830621,                  67P     73
64.1500000357625,2.96856678996554,-10.5129331483062,                  67P     74
64.1500000357625,2.96856678996554,-12.5129331483062,                  67P     75
64.1500000357625,0.968566789965539,-12.5129331483062,                 67P     76
64.1500000357625,-1.03143321003446,-12.5129331483062,                 67P     77
64.1500000357625,-1.03143321003446,-10.5129331483062,                 67P     78
64.1500000357625,-1.03143321003446,-8.51293314830621,                 67P     79
64.1500000357625,0.968566789965539,-8.51293314830621,                 67P     80
-3.14159265358979,3.14159265358979,0.,0.,0.;                          67P     81
126,1,1,0,0,1,0,-1.5,-1.5,8.05672765243488D-17,                       69P     82
8.05672765243488D-17,1.,1.,64.1500000357625,0.968566789965539,        69P     83
-8.51293314830621,61.1500000357625,0.968566789965539,                 69P     84
-8.51293314830621,-1.5,8.05672765243488D-17,0.,0.,0.;                 69P     85
126,8,2,0,1,0,0,-3.14159265358979,-3.14159265358979,                  71P     86
-3.14159265358979,-1.5707963267949,-1.5707963267949,0.,0.,            71P     87
1.5707963267949,1.5707963267949,3.14159265358979,                     71P     88
3.14159265358979,3.14159265358979,1.,0.707106781186547,1.,            71P     89
0.707106781186547,1.,0.707106781186547,1.,0.707106781186547,1.,       71P     90
61.1500000357625,0.968566789965539,-8.51293314830621,                 71P     91
61.1500000357625,2.96856678996554,-8.51293314830621,                  71P     92
61.1500000357625,2.96856678996554,-10.5129331483062,                  71P     93
61.1500000357625,2.96856678996554,-12.5129331483062,                  71P     94
61.1500000357625,0.968566789965539,-12.5129331483062,                 71P     95
61.1500000357625,-1.03143321003446,-12.5129331483062,                 71P     96
61.1500000357625,-1.03143321003446,-10.5129331483062,                 71P     97
61.1500000357625,-1.03143321003446,-8.51293314830621,                 71P     98
61.1500000357625,0.968566789965539,-8.51293314830621,                 71P     99
-3.14159265358979,3.14159265358979,0.,0.,0.;                          71P    100
126,1,1,0,0,1,0,0.,0.,5.19999999999991,5.19999999999991,1.,1.,        73P    101
61.1500000357625,-6.03143321003425,36.4870668516933,                  73P    102
61.1500000357625,-6.03143321003425,-15.5129331483058,0.,              73P    103
5.19999999999991,0.,0.,0.;                                            73P    104
126,1,1,0,0,1,0,0.,0.,0.3,0.3,1.,1.,61.1500000357625,                 75P    105
-6.03143321003425,-15.5129331483058,64.1500000357625,                 75P    106
-6.03143321003425,-15.5129331483058,0.,0.3,0.,0.,0.;                  75P    107
126,1,1,0,0,1,0,0.,0.,5.19999999999991,5.19999999999991,1.,1.,        77P    108
64.1500000357625,-6.03143321003425,36.4870668516933,                  77P    109
64.1500000357625,-6.03143321003425,-15.5129331483058,0.,              77P    110
5.19999999999991,0.,0.,0.;                                            77P    111
126,1,1,0,0,1,0,0.,0.,0.3,0.3,1.,1.,61.1500000357625,                 79P    112
-6.03143321003425,36.4870668516933,64.1500000357625,                  79P    113
-6.03143321003425,36.4870668516933,0.,0.3,0.,0.,0.;                   79P    114
126,1,1,0,0,1,0,0.,0.,1.49999999999972,1.49999999999972,1.,1.,        81P    115
61.1500000357625,8.96856678996298,36.4870668516942,                   81P    116
61.1500000357625,-6.03143321003425,36.4870668516933,0.,               81P    117
1.49999999999972,0.,0.,0.;                                            81P    118
126,1,1,0,0,1,0,0.,0.,1.49999999999972,1.49999999999972,1.,1.,        83P    119
64.1500000357625,8.96856678996298,36.4870668516942,                   83P    120
64.1500000357625,-6.03143321003425,36.4870668516933,0.,               83P    121
1.49999999999972,0.,0.,0.;                                            83P    122
126,1,1,0,0,1,0,0.,0.,0.3,0.3,1.,1.,61.1500000357625,                 85P    123
8.96856678996298,36.4870668516942,64.1500000357625,                   85P    124
8.96856678996298,36.4870668516942,0.,0.3,0.,0.,0.;                    85P    125
126,1,1,0,0,1,0,4.2,4.2,5.2,5.2,1.,1.,61.1500000357625,               87P    126
8.96856678996351,26.4870668516942,61.1500000357625,                   87P    127
8.96856678996298,36.4870668516942,4.2,5.2,0.,0.,0.;                   87P    128
126,1,1,0,0,1,0,4.2,4.2,5.2,5.2,1.,1.,64.1500000357625,               89P    129
8.96856678996351,26.4870668516942,64.1500000357625,                   89P    130
8.96856678996298,36.4870668516942,4.2,5.2,0.,0.,0.;                   89P    131
126,1,1,0,0,1,0,0.,0.,0.3,0.3,1.,1.,61.1500000357625,                 91P    132
8.96856678996351,26.4870668516942,64.1500000357625,                   91P    133
8.96856678996351,26.4870668516942,0.,0.3,0.,0.,0.;                    91P    134
126,1,1,0,0,1,0,0.,0.,1.00000000000001,1.00000000000001,1.,1.,        93P    135
61.1500000357625,18.9685667899636,26.4870668516946,                   93P    136
61.1500000357625,8.96856678996351,26.4870668516942,0.,                93P    137
1.00000000000001,0.,0.,0.;                                            93P    138
126,1,1,0,0,1,0,0.,0.,1.00000000000001,1.00000000000001,1.,1.,        95P    139
64.1500000357625,18.9685667899636,26.4870668516946,                   95P    140
64.1500000357625,8.96856678996351,26.4870668516942,0.,                95P    141
1.00000000000001,0.,0.,0.;                                            95P    142
126,1,1,0,0,1,0,0.,0.,0.3,0.3,1.,1.,61.1500000357625,                 97P    143
18.9685667899636,26.4870668516946,64.1500000357625,                   97P    144
18.9685667899636,26.4870668516946,0.,0.3,0.,0.,0.;                    97P    145
126,1,1,0,0,1,0,0.,0.,3.2,3.2,1.,1.,61.1500000357625,                 99P    146
18.9685667899653,-5.51293314830539,61.1500000357625,                  99P    147
18.9685667899636,26.4870668516946,0.,3.2,0.,0.,0.;                    99P    148
126,1,1,0,0,1,0,0.,0.,3.2,3.2,1.,1.,64.1500000357625,                101P    149
18.9685667899653,-5.51293314830539,64.1500000357625,                 101P    150
18.9685667899636,26.4870668516946,0.,3.2,0.,0.,0.;                   101P    151
126,1,1,0,0,1,0,0.,0.,0.3,0.3,1.,1.,61.1500000357625,                103P    152
18.9685667899653,-5.51293314830539,64.1500000357625,                 103P    153
18.9685667899653,-5.51293314830539,0.,0.3,0.,0.,0.;                  103P    154
126,1,1,0,0,1,0,0.,0.,1.00000000000001,1.00000000000001,1.,1.,       105P    155
61.1500000357625,8.96856678996522,-5.51293314830577,                 105P    156
61.1500000357625,18.9685667899653,-5.51293314830539,0.,              105P    157
1.00000000000001,0.,0.,0.;                                           105P    158
126,1,1,0,0,1,0,0.,0.,1.00000000000001,1.00000000000001,1.,1.,       107P    159
64.1500000357625,8.96856678996522,-5.51293314830577,                 107P    160
64.1500000357625,18.9685667899653,-5.51293314830539,0.,              107P    161
1.00000000000001,0.,0.,0.;                                           107P    162
126,1,1,0,0,1,0,0.,0.,0.3,0.3,1.,1.,61.1500000357625,                109P    163
8.96856678996521,-5.51293314830577,64.1500000357625,                 109P    164
8.96856678996521,-5.51293314830577,0.,0.3,0.,0.,0.;                  109P    165
126,1,1,0,0,1,0,0.,0.,1.,1.,1.,1.,61.1500000357625,                  111P    166
8.96856678996575,-15.5129331483058,61.1500000357625,                 111P    167
8.96856678996521,-5.51293314830577,0.,1.,0.,0.,0.;                   111P    168
126,1,1,0,0,1,0,0.,0.,1.,1.,1.,1.,64.1500000357625,                  113P    169
8.96856678996575,-15.5129331483058,64.1500000357625,                 113P    170
8.96856678996521,-5.51293314830577,0.,1.,0.,0.,0.;                   113P    171
126,1,1,0,0,1,0,0.,0.,0.3,0.3,1.,1.,61.1500000357625,                115P    172
8.96856678996575,-15.5129331483058,64.1500000357625,                 115P    173
8.96856678996575,-15.5129331483058,0.,0.3,0.,0.,0.;                  115P    174
126,1,1,0,0,1,0,0.,0.,1.5,1.5,1.,1.,61.1500000357625,                117P    175
-6.03143321003425,-15.5129331483058,61.1500000357625,                117P    176
8.96856678996575,-15.5129331483058,0.,1.5,0.,0.,0.;                  117P    177
126,1,1,0,0,1,0,0.,0.,1.5,1.5,1.,1.,64.1500000357625,                119P    178
-6.03143321003425,-15.5129331483058,64.1500000357625,                119P    179
8.96856678996575,-15.5129331483058,0.,1.5,0.,0.,0.;                  119P    180
128,1,8,1,2,0,1,0,0,1,-8.05672765243488D-17,                         121P    181
-8.05672765243488D-17,1.5,1.5,-3.14159265358979,                     121P    182
-3.14159265358979,-3.14159265358979,-1.5707963267949,                121P    183
-1.5707963267949,0.,0.,1.5707963267949,1.5707963267949,              121P    184
3.14159265358979,3.14159265358979,3.14159265358979,1.,1.,            121P    185
0.707106781186548,0.707106781186548,1.,1.,0.707106781186548,         121P    186
0.707106781186548,1.,1.,0.707106781186548,0.707106781186548,1.,      121P    187
1.,0.707106781186548,0.707106781186548,1.,1.,61.1500000357625,       121P    188
0.968566789963301,33.4870668516938,64.1500000357625,                 121P    189
0.968566789963301,33.4870668516938,61.1500000357625,                 121P    190
-1.0314332100367,33.4870668516938,64.1500000357625,                  121P    191
-1.0314332100367,33.4870668516938,61.1500000357625,                  121P    192
-1.0314332100367,31.4870668516938,64.1500000357625,                  121P    193
-1.0314332100367,31.4870668516938,61.1500000357625,                  121P    194
-1.0314332100367,29.4870668516938,64.1500000357625,                  121P    195
-1.0314332100367,29.4870668516938,61.1500000357625,                  121P    196
0.968566789963301,29.4870668516938,64.1500000357625,                 121P    197
0.968566789963301,29.4870668516938,61.1500000357625,                 121P    198
2.9685667899633,29.4870668516938,64.1500000357625,                   121P    199
2.9685667899633,29.4870668516938,61.1500000357625,                   121P    200
2.9685667899633,31.4870668516938,64.1500000357625,                   121P    201
2.9685667899633,31.4870668516938,61.1500000357625,                   121P    202
2.9685667899633,33.4870668516938,64.1500000357625,                   121P    203
2.9685667899633,33.4870668516938,61.1500000357625,                   121P    204
0.968566789963301,33.4870668516938,64.1500000357625,                 121P    205
0.968566789963301,33.4870668516938,-8.05672765243488D-17,1.5,        121P    206
-3.14159265358979,3.14159265358979;                                  121P    207
128,1,8,1,2,0,1,0,0,1,-8.05672765243488D-17,                         123P    208
-8.05672765243488D-17,1.5,1.5,-3.14159265358979,                     123P    209
-3.14159265358979,-3.14159265358979,-1.5707963267949,                123P    210
-1.5707963267949,0.,0.,1.5707963267949,1.5707963267949,              123P    211
3.14159265358979,3.14159265358979,3.14159265358979,1.,1.,            123P    212
0.707106781186548,0.707106781186548,1.,1.,0.707106781186548,         123P    213
0.707106781186548,1.,1.,0.707106781186548,0.707106781186548,1.,      123P    214
1.,0.707106781186548,0.707106781186548,1.,1.,61.1500000357625,       123P    215
0.968566789965539,-8.51293314830621,64.1500000357625,                123P    216
0.968566789965539,-8.51293314830621,61.1500000357625,                123P    217
-1.03143321003446,-8.51293314830621,64.1500000357625,                123P    218
-1.03143321003446,-8.51293314830621,61.1500000357625,                123P    219
-1.03143321003446,-10.5129331483062,64.1500000357625,                123P    220
-1.03143321003446,-10.5129331483062,61.1500000357625,                123P    221
-1.03143321003446,-12.5129331483062,64.1500000357625,                123P    222
-1.03143321003446,-12.5129331483062,61.1500000357625,                123P    223
0.968566789965539,-12.5129331483062,64.1500000357625,                123P    224
0.968566789965539,-12.5129331483062,61.1500000357625,                123P    225
2.96856678996554,-12.5129331483062,64.1500000357625,                 123P    226
2.96856678996554,-12.5129331483062,61.1500000357625,                 123P    227
2.96856678996554,-10.5129331483062,64.1500000357625,                 123P    228
2.96856678996554,-10.5129331483062,61.1500000357625,                 123P    229
2.96856678996554,-8.51293314830621,64.1500000357625,                 123P    230
2.96856678996554,-8.51293314830621,61.1500000357625,                 123P    231
0.968566789965539,-8.51293314830621,64.1500000357625,                123P    232
0.968566789965539,-8.51293314830621,-8.05672765243488D-17,1.5,       123P    233
-3.14159265358979,3.14159265358979;                                  123P    234
128,1,1,1,1,0,0,1,0,0,-1.66533453693712D-17,                         125P    235
-1.66533453693712D-17,5.19999999999991,5.19999999999991,0.,0.,       125P    236
0.3,0.3,1.,1.,1.,1.,61.1500000357625,-6.03143321003425,              125P    237
36.4870668516933,61.1500000357625,-6.03143321003425,                 125P    238
-15.5129331483058,64.1500000357625,-6.03143321003425,                125P    239
36.4870668516933,64.1500000357625,-6.03143321003425,                 125P    240
-15.5129331483058,-1.66533453693712D-17,5.19999999999991,0.,0.3;     125P    241
128,1,1,1,1,0,0,1,0,0,-1.26287869051112D-17,                         127P    242
-1.26287869051112D-17,1.49999999999972,1.49999999999972,             127P    243
-2.26549333757138D-45,-2.26549333757138D-45,0.3,0.3,1.,1.,1.,1.,     127P    244
61.1500000357625,8.96856678996298,36.4870668516942,                  127P    245
61.1500000357625,-6.03143321003425,36.4870668516933,                 127P    246
64.1500000357625,8.96856678996298,36.4870668516942,                  127P    247
64.1500000357625,-6.03143321003425,36.4870668516933,                 127P    248
-1.26287869051112D-17,1.49999999999972,-2.26549333757138D-45,        127P    249
0.3;                                                                 127P    250
128,1,1,1,1,0,0,1,0,0,-4.44089209850063D-16,                         129P    251
-4.44089209850063D-16,0.999999999999999,0.999999999999999,           129P    252
-5.5511151231235D-17,-5.5511151231235D-17,0.3,0.3,1.,1.,1.,1.,       129P    253
61.1500000357625,8.96856678996351,26.4870668516942,                  129P    254
61.1500000357625,8.96856678996298,36.4870668516942,                  129P    255
64.1500000357625,8.96856678996351,26.4870668516942,                  129P    256
64.1500000357625,8.96856678996298,36.4870668516942,                  129P    257
-4.44089209850063D-16,0.999999999999999,-5.5511151231235D-17,        129P    258
0.3;                                                                 129P    259
128,1,1,1,1,0,0,1,0,0,-1.26287869051111D-17,                         131P    260
-1.26287869051111D-17,1.00000000000001,1.00000000000001,             131P    261
-7.22635751036311D-46,-7.22635751036311D-46,0.3,0.3,1.,1.,1.,1.,     131P    262
61.1500000357625,18.9685667899636,26.4870668516946,                  131P    263
61.1500000357625,8.96856678996351,26.4870668516942,                  131P    264
64.1500000357625,18.9685667899636,26.4870668516946,                  131P    265
64.1500000357625,8.96856678996351,26.4870668516942,                  131P    266
-1.26287869051111D-17,1.00000000000001,-7.22635751036311D-46,        131P    267
0.3;                                                                 131P    268
128,1,1,1,1,0,0,1,0,0,0.,0.,3.2,3.2,-1.77635683939953D-16,           133P    269
-1.77635683939953D-16,0.3,0.3,1.,1.,1.,1.,61.1500000357625,          133P    270
18.9685667899653,-5.51293314830539,61.1500000357625,                 133P    271
18.9685667899636,26.4870668516946,64.1500000357625,                  133P    272
18.9685667899653,-5.51293314830539,64.1500000357625,                 133P    273
18.9685667899636,26.4870668516946,0.,3.2,-1.77635683939953D-16,      133P    274
0.3;                                                                 133P    275
128,1,1,1,1,0,0,1,0,0,-2.2218338280311D-16,-2.2218338280311D-16,     135P    276
1.00000000000001,1.00000000000001,-4.16333634234418D-17,             135P    277
-4.16333634234418D-17,0.3,0.3,1.,1.,1.,1.,61.1500000357625,          135P    278
8.96856678996521,-5.51293314830577,61.1500000357625,                 135P    279
18.9685667899653,-5.51293314830539,64.1500000357625,                 135P    280
8.96856678996521,-5.51293314830577,64.1500000357625,                 135P    281
18.9685667899653,-5.51293314830539,-2.2218338280311D-16,             135P    282
1.00000000000001,-4.16333634234418D-17,0.3;                          135P    283
128,1,1,1,1,0,0,1,0,0,0.,0.,1.,1.,-5.55111512312351D-17,             137P    284
-5.55111512312351D-17,0.3,0.3,1.,1.,1.,1.,61.1500000357625,          137P    285
8.96856678996575,-15.5129331483058,61.1500000357625,                 137P    286
8.96856678996521,-5.51293314830577,64.1500000357625,                 137P    287
8.96856678996575,-15.5129331483058,64.1500000357625,                 137P    288
8.96856678996521,-5.51293314830577,0.,1.,-5.55111512312351D-17,      137P    289
0.3;                                                                 137P    290
128,1,1,1,1,0,0,1,0,0,-1.38777878078239D-19,                         139P    291
-1.38777878078239D-19,1.5,1.5,-6.24500451351603D-17,                 139P    292
-6.24500451351603D-17,0.3,0.3,1.,1.,1.,1.,61.1500000357625,          139P    293
-6.03143321003425,-15.5129331483058,61.1500000357625,                139P    294
8.96856678996575,-15.5129331483058,64.1500000357625,                 139P    295
-6.03143321003425,-15.5129331483058,64.1500000357625,                139P    296
8.96856678996575,-15.5129331483058,-1.38777878078239D-19,1.5,        139P    297
-6.24500451351603D-17,0.3;                                           139P    298
128,1,1,1,1,0,0,1,0,0,-2.6,-2.6,2.6,2.6,-1.24999999999998,           141P    299
-1.24999999999998,1.24999999999998,1.24999999999998,1.,1.,1.,1.,     141P    300
64.1500000357625,-6.03143321003425,36.4870668516942,                 141P    301
64.1500000357625,-6.03143321003425,-15.5129331483058,                141P    302
64.1500000357625,18.9685667899653,36.4870668516942,                  141P    303
64.1500000357625,18.9685667899653,-15.5129331483058,-2.6,2.6,        141P    304
-1.24999999999998,1.24999999999998;                                  141P    305
128,1,1,1,1,0,0,1,0,0,-2.6,-2.6,2.6,2.6,-1.24999999999998,           143P    306
-1.24999999999998,1.24999999999998,1.24999999999998,1.,1.,1.,1.,     143P    307
61.1500000357625,-6.03143321003425,-15.5129331483058,                143P    308
61.1500000357625,-6.03143321003425,36.4870668516942,                 143P    309
61.1500000357625,18.9685667899653,-15.5129331483058,                 143P    310
61.1500000357625,18.9685667899653,36.4870668516942,-2.6,2.6,         143P    311
-1.24999999999998,1.24999999999998;                                  143P    312
502,20,64.1500000357625,0.968566789963301,33.4870668516938,          145P    313
61.1500000357625,0.968566789963301,33.4870668516938,                 145P    314
64.1500000357625,0.968566789965539,-8.51293314830621,                145P    315
61.1500000357625,0.968566789965539,-8.51293314830621,                145P    316
61.1500000357625,-6.03143321003425,36.4870668516933,                 145P    317
61.1500000357625,-6.03143321003425,-15.5129331483058,                145P    318
64.1500000357625,-6.03143321003425,-15.5129331483058,                145P    319
64.1500000357625,-6.03143321003425,36.4870668516933,                 145P    320
61.1500000357625,8.96856678996298,36.4870668516942,                  145P    321
64.1500000357625,8.96856678996298,36.4870668516942,                  145P    322
61.1500000357625,8.96856678996351,26.4870668516942,                  145P    323
64.1500000357625,8.96856678996351,26.4870668516942,                  145P    324
61.1500000357625,18.9685667899636,26.4870668516946,                  145P    325
64.1500000357625,18.9685667899636,26.4870668516946,                  145P    326
61.1500000357625,18.9685667899653,-5.51293314830539,                 145P    327
64.1500000357625,18.9685667899653,-5.51293314830539,                 145P    328
61.1500000357625,8.96856678996521,-5.51293314830577,                 145P    329
64.1500000357625,8.96856678996521,-5.51293314830577,                 145P    330
61.1500000357625,8.96856678996575,-15.5129331483058,                 145P    331
64.1500000357625,8.96856678996575,-15.5129331483058;                 145P    332
504,30,61,145,1,145,1,63,145,1,145,2,65,145,2,145,2,67,145,3,        147P    333
145,3,69,145,3,145,4,71,145,4,145,4,73,145,5,145,6,75,145,6,145,     147P    334
7,77,145,8,145,7,79,145,5,145,8,81,145,9,145,5,83,145,10,145,8,      147P    335
85,145,9,145,10,87,145,11,145,9,89,145,12,145,10,91,145,11,145,      147P    336
12,93,145,13,145,11,95,145,14,145,12,97,145,13,145,14,99,145,15,     147P    337
145,13,101,145,16,145,14,103,145,15,145,16,105,145,17,145,15,        147P    338
107,145,18,145,16,109,145,17,145,18,111,145,19,145,17,113,145,       147P    339
20,145,18,115,145,19,145,20,117,145,6,145,19,119,145,7,145,20;       147P    340
406,1,5HBody1;                                                       149P    341
314,62.7450980392157,62.7450980392157,62.7450980392157,13HSteel      151P    342
- Satin;                                                             151P    343
S      1G      2D    152P    343                                        T      1
