                                                                        S      1
,,11HZ-Endstop-2,11HZ-Endstop-2,7Hunknown,7Hunknown,32,38,7,99,15,,1.,2,G      1
2HMM,1,0.08,15H20150630.183523,0.01,10000.,7Hunknown,7Hunknown,11,0,;   G      2
     186       1                                                00000000D      1
     186            -135       1       0                               0D      2
     514       2                                                00010000D      3
     514                       1       1                               0D      4
     510       3                                                00010000D      5
     510            -135       1       1                               0D      6
     510       4                                                00010000D      7
     510            -135       1       1                               0D      8
     510       5                                                00010000D      9
     510            -135       1       1                               0D     10
     510       6                                                00010000D     11
     510            -135       1       1                               0D     12
     510       7                                                00010000D     13
     510            -135       1       1                               0D     14
     510       8                                                00010000D     15
     510            -135       1       1                               0D     16
     510       9                                                00010000D     17
     510            -135       1       1                               0D     18
     510      10                                                00010000D     19
     510            -135       1       1                               0D     20
     510      11                                                00010000D     21
     510            -135       1       1                               0D     22
     510      12                                                00010000D     23
     510            -135       1       1                               0D     24
     508      13                                                00010000D     25
     508                       1       1                               0D     26
     508      14                                                00010000D     27
     508                       1       1                               0D     28
     508      15                                                00010000D     29
     508                       1       1                               0D     30
     508      16                                                00010000D     31
     508                       1       1                               0D     32
     508      17                                                00010000D     33
     508                       1       1                               0D     34
     508      18                                                00010000D     35
     508                       1       1                               0D     36
     508      19                                                00010000D     37
     508                       1       1                               0D     38
     508      20                                                00010000D     39
     508                       1       1                               0D     40
     508      21                                                00010000D     41
     508                       1       1                               0D     42
     508      22                                                00010000D     43
     508                       1       1                               0D     44
     508      23                                                00010000D     45
     508                       1       1                               0D     46
     508      24                                                00010000D     47
     508                       1       1                               0D     48
     508      25                                                00010000D     49
     508                       1       1                               0D     50
     508      26                                                00010000D     51
     508                       1       1                               0D     52
     508      27                                                00010000D     53
     508                       1       1                               0D     54
     508      28                                                00010000D     55
     508                       1       1                               0D     56
     508      29                                                00010000D     57
     508                       1       1                               0D     58
     508      30                                                00010000D     59
     508                       1       1                               0D     60
     126      31                                                00010000D     61
     126       0               3       0                               0D     62
     126      34                                                00010000D     63
     126       0               3       0                               0D     64
     126      37                                                00010000D     65
     126       0               3       0                               0D     66
     126      40                                                00010000D     67
     126       0               3       0                               0D     68
     126      43                                                00010000D     69
     126       0              13       0                               0D     70
     126      56                                                00010000D     71
     126       0              13       0                               0D     72
     126      69                                                00010000D     73
     126       0              13       0                               0D     74
     126      82                                                00010000D     75
     126       0               3       0                               0D     76
     126      85                                                00010000D     77
     126       0              13       0                               0D     78
     126      98                                                00010000D     79
     126       0               3       0                               0D     80
     126     101                                                00010000D     81
     126       0               3       0                               0D     82
     126     104                                                00010000D     83
     126       0               3       0                               0D     84
     126     107                                                00010000D     85
     126       0               3       0                               0D     86
     126     110                                                00010000D     87
     126       0              12       0                               0D     88
     126     122                                                00010000D     89
     126       0              12       0                               0D     90
     126     134                                                00010000D     91
     126       0               3       0                               0D     92
     126     137                                                00010000D     93
     126       0               3       0                               0D     94
     126     140                                                00010000D     95
     126       0              12       0                               0D     96
     126     152                                                00010000D     97
     126       0               3       0                               0D     98
     126     155                                                00010000D     99
     126       0              12       0                               0D    100
     126     167                                                00010000D    101
     126       0               3       0                               0D    102
     126     170                                                00010000D    103
     126       0               3       0                               0D    104
     126     173                                                00010000D    105
     126       0               3       0                               0D    106
     126     176                                                00010000D    107
     126       0               3       0                               0D    108
     128     179                                                00010000D    109
     128       0    -135       5       0                               0D    110
     128     184                                                00010000D    111
     128       0    -135      22       0                               0D    112
     128     206                                                00010000D    113
     128       0    -135      22       0                               0D    114
     128     228                                                00010000D    115
     128       0    -135       5       0                               0D    116
     128     233                                                00010000D    117
     128       0    -135       5       0                               0D    118
     128     238                                                00010000D    119
     128       0    -135      20       0                               0D    120
     128     258                                                00010000D    121
     128       0    -135      20       0                               0D    122
     128     278                                                00010000D    123
     128       0    -135       5       0                               0D    124
     128     283                                                00010000D    125
     128       0    -135       6       0                               0D    126
     128     289                                                00010000D    127
     128       0    -135       5       0                               0D    128
     502     294                                                00010000D    129
     502                      11       1                               0D    130
     504     305                                                00010001D    131
     504                       7       1                               0D    132
     406     312                                                00000000D    133
     406                       1      15                               0D    134
     314     313                                                00000200D    135
     314                       2       0                               0D    136
186,3,1,0,0,1,133;                                                     1P      1
514,10,5,1,7,1,9,1,11,1,13,1,15,1,17,1,19,1,21,1,23,1;                 3P      2
510,109,3,1,25,27,29;                                                  5P      3
510,111,1,1,31;                                                        7P      4
510,113,1,1,33;                                                        9P      5
510,115,3,1,35,37,39;                                                 11P      6
510,117,1,1,41;                                                       13P      7
510,119,1,1,43;                                                       15P      8
510,121,1,1,45;                                                       17P      9
510,123,3,1,47,49,51;                                                 19P     10
510,125,3,1,53,55,57;                                                 21P     11
510,127,1,1,59;                                                       23P     12
508,4,0,131,1,1,0,0,131,2,1,0,0,131,3,1,0,0,131,4,1,0;                25P     13
508,1,0,131,5,1,0;                                                    27P     14
508,1,0,131,6,1,0;                                                    29P     15
508,4,0,131,7,0,0,0,131,8,1,0,0,131,5,0,0,0,131,8,0,0;                31P     16
508,4,0,131,9,0,0,0,131,10,1,0,0,131,6,0,0,0,131,10,0,0;              33P     17
508,4,0,131,11,1,0,0,131,12,0,0,0,131,13,0,0,0,131,2,0,0;             35P     18
508,1,0,131,14,1,0;                                                   37P     19
508,1,0,131,15,1,0;                                                   39P     20
508,4,0,131,16,0,0,0,131,17,0,0,0,131,11,0,0,0,131,1,0,0;             41P     21
508,4,0,131,18,0,0,0,131,19,1,0,0,131,15,0,0,0,131,19,0,0;            43P     22
508,4,0,131,20,0,0,0,131,21,1,0,0,131,14,0,0,0,131,21,0,0;            45P     23
508,4,0,131,17,1,0,0,131,22,1,0,0,131,23,1,0,0,131,12,1,0;            47P     24
508,1,0,131,7,1,0;                                                    49P     25
508,1,0,131,9,1,0;                                                    51P     26
508,4,0,131,24,1,0,0,131,22,0,0,0,131,16,1,0,0,131,4,0,0;             53P     27
508,1,0,131,18,1,0;                                                   55P     28
508,1,0,131,20,1,0;                                                   57P     29
508,4,0,131,13,1,0,0,131,23,0,0,0,131,24,0,0,0,131,3,0,0;             59P     30
126,1,1,0,0,1,0,-0.8625,-0.8625,0.2875,0.2875,1.,1.,                  61P     31
37.6500000357628,-22.5,54.6500000357628,37.6500000357628,-34.,        61P     32
54.6500000357628,-0.8625,0.2875,0.,0.,0.;                             61P     33
126,1,1,0,0,1,0,-2.95,-2.95,1.,1.,1.,1.,37.6500000357628,-34.,        63P     34
54.6500000357628,77.1500000357628,-34.,54.6500000357628,-2.95,        63P     35
1.,0.,0.,0.;                                                          63P     36
126,1,1,0,0,1,0,-0.8625,-0.8625,0.2875,0.2875,1.,1.,                  65P     37
77.1500000357628,-34.,54.6500000357628,77.1500000357628,-22.5,        65P     38
54.6500000357628,-0.8625,0.2875,0.,0.,0.;                             65P     39
126,1,1,0,0,1,0,-3.,-3.,0.95,0.95,1.,1.,77.1500000357628,-22.5,       67P     40
54.6500000357628,37.6500000357628,-22.5,54.6500000357628,-3.,         67P     41
0.95,0.,0.,0.;                                                        67P     42
126,8,2,0,1,0,0,-3.14159265358979,-3.14159265358979,                  69P     43
-3.14159265358979,-1.5707963267949,-1.5707963267949,0.,0.,            69P     44
1.5707963267949,1.5707963267949,3.14159265358979,                     69P     45
3.14159265358979,3.14159265358979,1.,0.707106781186542,1.,            69P     46
0.707106781186542,1.,0.707106781186542,1.,0.707106781186542,1.,       69P     47
69.1500000357628,-28.25,54.6500000357628,69.1500000357628,            69P     48
-30.25,54.6500000357628,67.1500000357628,-30.25,                      69P     49
54.6500000357628,65.1500000357628,-30.25,54.6500000357628,            69P     50
65.1500000357628,-28.25,54.6500000357628,65.1500000357628,            69P     51
-26.25,54.6500000357628,67.1500000357628,-26.25,                      69P     52
54.6500000357628,69.1500000357628,-26.25,54.6500000357628,            69P     53
69.1500000357628,-28.25,54.6500000357628,-3.14159265358979,           69P     54
3.14159265358979,0.,0.,0.;                                            69P     55
126,8,2,0,1,0,0,-3.14159265358979,-3.14159265358979,                  71P     56
-3.14159265358979,-1.5707963267949,-1.5707963267949,0.,0.,            71P     57
1.5707963267949,1.5707963267949,3.14159265358979,                     71P     58
3.14159265358979,3.14159265358979,1.,0.707106781186542,1.,            71P     59
0.707106781186542,1.,0.707106781186542,1.,0.707106781186542,1.,       71P     60
44.6500000357628,-28.25,54.6500000357628,44.6500000357628,            71P     61
-30.25,54.6500000357628,42.6500000357628,-30.25,                      71P     62
54.6500000357628,40.6500000357628,-30.25,54.6500000357628,            71P     63
40.6500000357628,-28.25,54.6500000357628,40.6500000357628,            71P     64
-26.25,54.6500000357628,42.6500000357628,-26.25,                      71P     65
54.6500000357628,44.6500000357628,-26.25,54.6500000357628,            71P     66
44.6500000357628,-28.25,54.6500000357628,-3.14159265358979,           71P     67
3.14159265358979,0.,0.,0.;                                            71P     68
126,8,2,0,1,0,0,-3.14159265358979,-3.14159265358979,                  73P     69
-3.14159265358979,-1.5707963267949,-1.5707963267949,0.,0.,            73P     70
1.5707963267949,1.5707963267949,3.14159265358979,                     73P     71
3.14159265358979,3.14159265358979,1.,0.707106781186542,1.,            73P     72
0.707106781186542,1.,0.707106781186542,1.,0.707106781186542,1.,       73P     73
69.1500000357628,-28.25,40.6500000357628,69.1500000357628,            73P     74
-26.25,40.6500000357628,67.1500000357628,-26.25,                      73P     75
40.6500000357628,65.1500000357628,-26.25,40.6500000357628,            73P     76
65.1500000357628,-28.25,40.6500000357628,65.1500000357628,            73P     77
-30.25,40.6500000357628,67.1500000357628,-30.25,                      73P     78
40.6500000357628,69.1500000357628,-30.25,40.6500000357628,            73P     79
69.1500000357628,-28.25,40.6500000357628,-3.14159265358979,           73P     80
3.14159265358979,0.,0.,0.;                                            73P     81
126,1,1,0,0,1,0,0.,0.,6.99999999999999,6.99999999999999,1.,1.,        75P     82
69.1500000357628,-28.25,40.6500000357628,69.1500000357628,            75P     83
-28.25,54.6500000357628,0.,6.99999999999999,0.,0.,0.;                 75P     84
126,8,2,0,1,0,0,-3.14159265358979,-3.14159265358979,                  77P     85
-3.14159265358979,-1.5707963267949,-1.5707963267949,0.,0.,            77P     86
1.5707963267949,1.5707963267949,3.14159265358979,                     77P     87
3.14159265358979,3.14159265358979,1.,0.707106781186542,1.,            77P     88
0.707106781186542,1.,0.707106781186542,1.,0.707106781186542,1.,       77P     89
44.6500000357628,-28.25,40.6500000357628,44.6500000357628,            77P     90
-26.25,40.6500000357628,42.6500000357628,-26.25,                      77P     91
40.6500000357628,40.6500000357628,-26.25,40.6500000357628,            77P     92
40.6500000357628,-28.25,40.6500000357628,40.6500000357628,            77P     93
-30.25,40.6500000357628,42.6500000357628,-30.25,                      77P     94
40.6500000357628,44.6500000357628,-30.25,40.6500000357628,            77P     95
44.6500000357628,-28.25,40.6500000357628,-3.14159265358979,           77P     96
3.14159265358979,0.,0.,0.;                                            77P     97
126,1,1,0,0,1,0,0.,0.,6.99999999999999,6.99999999999999,1.,1.,        79P     98
44.6500000357628,-28.25,40.6500000357628,44.6500000357628,            79P     99
-28.25,54.6500000357628,0.,6.99999999999999,0.,0.,0.;                 79P    100
126,1,1,0,0,1,0,0.2,0.2,1.6,1.6,1.,1.,37.6500000357628,-34.,          81P    101
54.6500000357628,37.6500000357628,-34.,40.6500000357628,0.2,1.6,      81P    102
0.,0.,0.;                                                             81P    103
126,1,1,0,0,1,0,-4.,-4.,-0.0499999999999994,-0.0499999999999994,      83P    104
1.,1.,77.1500000357628,-34.,40.6500000357628,37.6500000357628,        83P    105
-34.,40.6500000357628,-4.,-0.0499999999999994,0.,0.,0.;               83P    106
126,1,1,0,0,1,0,0.2,0.2,1.6,1.6,1.,1.,77.1500000357628,-34.,          85P    107
54.6500000357628,77.1500000357628,-34.,40.6500000357628,0.2,1.6,      85P    108
0.,0.,0.;                                                             85P    109
126,8,2,0,1,0,0,-3.14159265358979,-3.14159265358979,                  87P    110
-3.14159265358979,-1.5707963267949,-1.5707963267949,0.,0.,            87P    111
1.5707963267949,1.5707963267949,3.14159265358979,                     87P    112
3.14159265358979,3.14159265358979,1.,0.707106781186553,1.,            87P    113
0.707106781186553,1.,0.707106781186553,1.,0.707106781186553,1.,       87P    114
75.5250000357628,-34.,43.6500000357628,75.5250000357628,-34.,         87P    115
42.2750000357628,74.1500000357628,-34.,42.2750000357628,              87P    116
72.7750000357628,-34.,42.2750000357628,72.7750000357628,-34.,         87P    117
43.6500000357628,72.7750000357628,-34.,45.0250000357628,              87P    118
74.1500000357628,-34.,45.0250000357628,75.5250000357628,-34.,         87P    119
45.0250000357628,75.5250000357628,-34.,43.6500000357628,              87P    120
-3.14159265358979,3.14159265358979,0.,0.,0.;                          87P    121
126,8,2,0,1,0,0,-3.14159265358979,-3.14159265358979,                  89P    122
-3.14159265358979,-1.5707963267949,-1.5707963267949,0.,0.,            89P    123
1.5707963267949,1.5707963267949,3.14159265358979,                     89P    124
3.14159265358979,3.14159265358979,1.,0.707106781186553,1.,            89P    125
0.707106781186553,1.,0.707106781186553,1.,0.707106781186553,1.,       89P    126
56.5250000357628,-34.,43.6500000357628,56.5250000357628,-34.,         89P    127
42.2750000357628,55.1500000357628,-34.,42.2750000357628,              89P    128
53.7750000357628,-34.,42.2750000357628,53.7750000357628,-34.,         89P    129
43.6500000357628,53.7750000357628,-34.,45.0250000357628,              89P    130
55.1500000357628,-34.,45.0250000357628,56.5250000357628,-34.,         89P    131
45.0250000357628,56.5250000357628,-34.,43.6500000357628,              89P    132
-3.14159265358979,3.14159265358979,0.,0.,0.;                          89P    133
126,1,1,0,0,1,0,-1.6,-1.6,-0.2,-0.2,1.,1.,37.6500000357628,           91P    134
-22.5,40.6500000357628,37.6500000357628,-22.5,54.6500000357628,       91P    135
-1.6,-0.2,0.,0.,0.;                                                   91P    136
126,1,1,0,0,1,0,-0.2875,-0.2875,0.8625,0.8625,1.,1.,                  93P    137
37.6500000357628,-34.,40.6500000357628,37.6500000357628,-22.5,        93P    138
40.6500000357628,-0.2875,0.8625,0.,0.,0.;                             93P    139
126,8,2,0,1,0,0,-3.14159265358979,-3.14159265358979,                  95P    140
-3.14159265358979,-1.5707963267949,-1.5707963267949,0.,0.,            95P    141
1.5707963267949,1.5707963267949,3.14159265358979,                     95P    142
3.14159265358979,3.14159265358979,1.,0.707106781186553,1.,            95P    143
0.707106781186553,1.,0.707106781186553,1.,0.707106781186553,1.,       95P    144
56.5250000357628,-22.5,43.6500000357628,56.5250000357628,-22.5,       95P    145
45.0250000357628,55.1500000357628,-22.5,45.0250000357628,             95P    146
53.7750000357628,-22.5,45.0250000357628,53.7750000357628,-22.5,       95P    147
43.6500000357628,53.7750000357628,-22.5,42.2750000357628,             95P    148
55.1500000357628,-22.5,42.2750000357628,56.5250000357628,-22.5,       95P    149
42.2750000357628,56.5250000357628,-22.5,43.6500000357628,             95P    150
-3.14159265358979,3.14159265358979,0.,0.,0.;                          95P    151
126,1,1,0,0,1,0,0.,0.,8.36363636363635,8.36363636363635,1.,1.,        97P    152
56.5250000357628,-22.5,43.6500000357628,56.5250000357628,-34.,        97P    153
43.6500000357628,0.,8.36363636363635,0.,0.,0.;                        97P    154
126,8,2,0,1,0,0,-3.14159265358979,-3.14159265358979,                  99P    155
-3.14159265358979,-1.5707963267949,-1.5707963267949,0.,0.,            99P    156
1.5707963267949,1.5707963267949,3.14159265358979,                     99P    157
3.14159265358979,3.14159265358979,1.,0.707106781186553,1.,            99P    158
0.707106781186553,1.,0.707106781186553,1.,0.707106781186553,1.,       99P    159
75.5250000357628,-22.5,43.6500000357628,75.5250000357628,-22.5,       99P    160
45.0250000357628,74.1500000357628,-22.5,45.0250000357628,             99P    161
72.7750000357628,-22.5,45.0250000357628,72.7750000357628,-22.5,       99P    162
43.6500000357628,72.7750000357628,-22.5,42.2750000357628,             99P    163
74.1500000357628,-22.5,42.2750000357628,75.5250000357628,-22.5,       99P    164
42.2750000357628,75.5250000357628,-22.5,43.6500000357628,             99P    165
-3.14159265358979,3.14159265358979,0.,0.,0.;                          99P    166
126,1,1,0,0,1,0,0.,0.,8.36363636363635,8.36363636363635,1.,1.,       101P    167
75.5250000357628,-22.5,43.6500000357628,75.5250000357628,-34.,       101P    168
43.6500000357628,0.,8.36363636363635,0.,0.,0.;                       101P    169
126,1,1,0,0,1,0,-3.95,-3.95,0.,0.,1.,1.,37.6500000357628,-22.5,      103P    170
40.6500000357628,77.1500000357628,-22.5,40.6500000357628,-3.95,      103P    171
0.,0.,0.,0.;                                                         103P    172
126,1,1,0,0,1,0,-1.15,-1.15,0.,0.,1.,1.,77.1500000357628,-22.5,      105P    173
40.6500000357628,77.1500000357628,-34.,40.6500000357628,-1.15,       105P    174
0.,0.,0.,0.;                                                         105P    175
126,1,1,0,0,1,0,0.2,0.2,1.6,1.6,1.,1.,77.1500000357628,-22.5,        107P    176
54.6500000357628,77.1500000357628,-22.5,40.6500000357628,0.2,        107P    177
1.6,0.,0.,0.;                                                        107P    178
128,1,1,1,1,0,0,1,0,0,-2.,-2.,1.95,1.95,-0.575,-0.575,0.575,         109P    179
0.575,1.,1.,1.,1.,37.6500000357628,-34.,54.6500000357628,            109P    180
77.1500000357628,-34.,54.6500000357628,37.6500000357628,-22.5,       109P    181
54.6500000357628,77.1500000357628,-22.5,54.6500000357628,-2.,        109P    182
1.95,-0.575,0.575;                                                   109P    183
128,1,8,1,2,0,1,0,0,1,0.,0.,6.99999999999999,6.99999999999999,       111P    184
-3.14159265358979,-3.14159265358979,-3.14159265358979,               111P    185
-1.5707963267949,-1.5707963267949,0.,0.,1.5707963267949,             111P    186
1.5707963267949,3.14159265358979,3.14159265358979,                   111P    187
3.14159265358979,1.,1.,0.707106781186548,0.707106781186548,1.,       111P    188
1.,0.707106781186548,0.707106781186548,1.,1.,0.707106781186548,      111P    189
0.707106781186548,1.,1.,0.707106781186548,0.707106781186548,1.,      111P    190
1.,69.1500000357628,-28.25,40.6500000357628,69.1500000357628,        111P    191
-28.25,54.6500000357628,69.1500000357628,-26.25,                     111P    192
40.6500000357628,69.1500000357628,-26.25,54.6500000357628,           111P    193
67.1500000357628,-26.25,40.6500000357628,67.1500000357628,           111P    194
-26.25,54.6500000357628,65.1500000357628,-26.25,                     111P    195
40.6500000357628,65.1500000357628,-26.25,54.6500000357628,           111P    196
65.1500000357628,-28.25,40.6500000357628,65.1500000357628,           111P    197
-28.25,54.6500000357628,65.1500000357628,-30.25,                     111P    198
40.6500000357628,65.1500000357628,-30.25,54.6500000357628,           111P    199
67.1500000357628,-30.25,40.6500000357628,67.1500000357628,           111P    200
-30.25,54.6500000357628,69.1500000357628,-30.25,                     111P    201
40.6500000357628,69.1500000357628,-30.25,54.6500000357628,           111P    202
69.1500000357628,-28.25,40.6500000357628,69.1500000357628,           111P    203
-28.25,54.6500000357628,0.,6.99999999999999,-3.14159265358979,       111P    204
3.14159265358979;                                                    111P    205
128,1,8,1,2,0,1,0,0,1,0.,0.,6.99999999999999,6.99999999999999,       113P    206
-3.14159265358979,-3.14159265358979,-3.14159265358979,               113P    207
-1.5707963267949,-1.5707963267949,0.,0.,1.5707963267949,             113P    208
1.5707963267949,3.14159265358979,3.14159265358979,                   113P    209
3.14159265358979,1.,1.,0.707106781186548,0.707106781186548,1.,       113P    210
1.,0.707106781186548,0.707106781186548,1.,1.,0.707106781186548,      113P    211
0.707106781186548,1.,1.,0.707106781186548,0.707106781186548,1.,      113P    212
1.,44.6500000357628,-28.25,40.6500000357628,44.6500000357628,        113P    213
-28.25,54.6500000357628,44.6500000357628,-26.25,                     113P    214
40.6500000357628,44.6500000357628,-26.25,54.6500000357628,           113P    215
42.6500000357628,-26.25,40.6500000357628,42.6500000357628,           113P    216
-26.25,54.6500000357628,40.6500000357628,-26.25,                     113P    217
40.6500000357628,40.6500000357628,-26.25,54.6500000357628,           113P    218
40.6500000357628,-28.25,40.6500000357628,40.6500000357628,           113P    219
-28.25,54.6500000357628,40.6500000357628,-30.25,                     113P    220
40.6500000357628,40.6500000357628,-30.25,54.6500000357628,           113P    221
42.6500000357628,-30.25,40.6500000357628,42.6500000357628,           113P    222
-30.25,54.6500000357628,44.6500000357628,-30.25,                     113P    223
40.6500000357628,44.6500000357628,-30.25,54.6500000357628,           113P    224
44.6500000357628,-28.25,40.6500000357628,44.6500000357628,           113P    225
-28.25,54.6500000357628,0.,6.99999999999999,-3.14159265358979,       113P    226
3.14159265358979;                                                    113P    227
128,1,1,1,1,0,0,1,0,0,-9.7968512D-17,-9.7968512D-17,3.95,3.95,       115P    228
0.2,0.2,1.6,1.6,1.,1.,1.,1.,77.1500000357628,-34.,                   115P    229
54.6500000357628,37.6500000357628,-34.,54.6500000357628,             115P    230
77.1500000357628,-34.,40.6500000357628,37.6500000357628,-34.,        115P    231
40.6500000357628,-9.7968512D-17,3.95,0.2,1.6;                        115P    232
128,1,1,1,1,0,0,1,0,0,0.199999999999999,0.199999999999999,1.6,       117P    233
1.6,0.,0.,1.15,1.15,1.,1.,1.,1.,37.6500000357628,-34.,               117P    234
40.6500000357628,37.6500000357628,-34.,54.6500000357628,             117P    235
37.6500000357628,-22.5,40.6500000357628,37.6500000357628,-22.5,      117P    236
54.6500000357628,0.199999999999999,1.6,0.,1.15;                      117P    237
128,1,8,1,2,0,1,0,0,1,0.,0.,8.36363636363635,8.36363636363635,       119P    238
-3.14159265358979,-3.14159265358979,-3.14159265358979,               119P    239
-1.5707963267949,-1.5707963267949,0.,0.,1.5707963267949,             119P    240
1.5707963267949,3.14159265358979,3.14159265358979,                   119P    241
3.14159265358979,1.,1.,0.707106781186548,0.707106781186548,1.,       119P    242
1.,0.707106781186548,0.707106781186548,1.,1.,0.707106781186548,      119P    243
0.707106781186548,1.,1.,0.707106781186548,0.707106781186548,1.,      119P    244
1.,56.5250000357628,-22.5,43.6500000357628,56.5250000357628,         119P    245
-34.,43.6500000357628,56.5250000357628,-22.5,45.0250000357628,       119P    246
56.5250000357628,-34.,45.0250000357628,55.1500000357628,-22.5,       119P    247
45.0250000357628,55.1500000357628,-34.,45.0250000357628,             119P    248
53.7750000357628,-22.5,45.0250000357628,53.7750000357628,-34.,       119P    249
45.0250000357628,53.7750000357628,-22.5,43.6500000357628,            119P    250
53.7750000357628,-34.,43.6500000357628,53.7750000357628,-22.5,       119P    251
42.2750000357628,53.7750000357628,-34.,42.2750000357628,             119P    252
55.1500000357628,-22.5,42.2750000357628,55.1500000357628,-34.,       119P    253
42.2750000357628,56.5250000357628,-22.5,42.2750000357628,            119P    254
56.5250000357628,-34.,42.2750000357628,56.5250000357628,-22.5,       119P    255
43.6500000357628,56.5250000357628,-34.,43.6500000357628,0.,          119P    256
8.36363636363635,-3.14159265358979,3.14159265358979;                 119P    257
128,1,8,1,2,0,1,0,0,1,0.,0.,8.36363636363635,8.36363636363635,       121P    258
-3.14159265358979,-3.14159265358979,-3.14159265358979,               121P    259
-1.5707963267949,-1.5707963267949,0.,0.,1.5707963267949,             121P    260
1.5707963267949,3.14159265358979,3.14159265358979,                   121P    261
3.14159265358979,1.,1.,0.707106781186548,0.707106781186548,1.,       121P    262
1.,0.707106781186548,0.707106781186548,1.,1.,0.707106781186548,      121P    263
0.707106781186548,1.,1.,0.707106781186548,0.707106781186548,1.,      121P    264
1.,75.5250000357628,-22.5,43.6500000357628,75.5250000357628,         121P    265
-34.,43.6500000357628,75.5250000357628,-22.5,45.0250000357628,       121P    266
75.5250000357628,-34.,45.0250000357628,74.1500000357628,-22.5,       121P    267
45.0250000357628,74.1500000357628,-34.,45.0250000357628,             121P    268
72.7750000357628,-22.5,45.0250000357628,72.7750000357628,-34.,       121P    269
45.0250000357628,72.7750000357628,-22.5,43.6500000357628,            121P    270
72.7750000357628,-34.,43.6500000357628,72.7750000357628,-22.5,       121P    271
42.2750000357628,72.7750000357628,-34.,42.2750000357628,             121P    272
74.1500000357628,-22.5,42.2750000357628,74.1500000357628,-34.,       121P    273
42.2750000357628,75.5250000357628,-22.5,42.2750000357628,            121P    274
75.5250000357628,-34.,42.2750000357628,75.5250000357628,-22.5,       121P    275
43.6500000357628,75.5250000357628,-34.,43.6500000357628,0.,          121P    276
8.36363636363635,-3.14159265358979,3.14159265358979;                 121P    277
128,1,1,1,1,0,0,1,0,0,-2.,-2.,1.95,1.95,-0.575,-0.575,0.575,         123P    278
0.575,1.,1.,1.,1.,77.1500000357628,-34.,40.6500000357628,            123P    279
37.6500000357628,-34.,40.6500000357628,77.1500000357628,-22.5,       123P    280
40.6500000357628,37.6500000357628,-22.5,40.6500000357628,-2.,        123P    281
1.95,-0.575,0.575;                                                   123P    282
128,1,1,1,1,0,0,1,0,0,0.0500000000000003,0.0500000000000003,4.,      125P    283
4.,0.199999999999998,0.199999999999998,1.6,1.6,1.,1.,1.,1.,          125P    284
37.6500000357628,-22.5,54.6500000357628,77.1500000357628,-22.5,      125P    285
54.6500000357628,37.6500000357628,-22.5,40.6500000357628,            125P    286
77.1500000357628,-22.5,40.6500000357628,0.0500000000000003,4.,       125P    287
0.199999999999998,1.6;                                               125P    288
128,1,1,1,1,0,0,1,0,0,0.,0.,1.15,1.15,0.199999999999999,             127P    289
0.199999999999999,1.6,1.6,1.,1.,1.,1.,77.1500000357628,-22.5,        127P    290
54.6500000357628,77.1500000357628,-34.,54.6500000357628,             127P    291
77.1500000357628,-22.5,40.6500000357628,77.1500000357628,-34.,       127P    292
40.6500000357628,0.,1.15,0.199999999999999,1.6;                      127P    293
502,16,37.6500000357628,-22.5,54.6500000357628,37.6500000357628,     129P    294
-34.,54.6500000357628,77.1500000357628,-34.,54.6500000357628,        129P    295
77.1500000357628,-22.5,54.6500000357628,69.1500000357628,-28.25,     129P    296
54.6500000357628,44.6500000357628,-28.25,54.6500000357628,           129P    297
69.1500000357628,-28.25,40.6500000357628,44.6500000357628,           129P    298
-28.25,40.6500000357628,37.6500000357628,-34.,40.6500000357628,      129P    299
77.1500000357628,-34.,40.6500000357628,75.5250000357628,-34.,        129P    300
43.6500000357628,56.5250000357628,-34.,43.6500000357628,             129P    301
37.6500000357628,-22.5,40.6500000357628,56.5250000357628,-22.5,      129P    302
43.6500000357628,75.5250000357628,-22.5,43.6500000357628,            129P    303
77.1500000357628,-22.5,40.6500000357628;                             129P    304
504,24,61,129,1,129,2,63,129,2,129,3,65,129,3,129,4,67,129,4,        131P    305
129,1,69,129,5,129,5,71,129,6,129,6,73,129,7,129,7,75,129,7,129,     131P    306
5,77,129,8,129,8,79,129,8,129,6,81,129,2,129,9,83,129,10,129,9,      131P    307
85,129,3,129,10,87,129,11,129,11,89,129,12,129,12,91,129,13,129,     131P    308
1,93,129,9,129,13,95,129,14,129,14,97,129,14,129,12,99,129,15,       131P    309
129,15,101,129,15,129,11,103,129,13,129,16,105,129,16,129,10,        131P    310
107,129,4,129,16;                                                    131P    311
406,1,5HBody1;                                                       133P    312
314,62.7450980392157,62.7450980392157,62.7450980392157,13HSteel      135P    313
- Satin;                                                             135P    314
S      1G      2D    136P    314                                        T      1
